<svg xmlns="http://www.w3.org/2000/svg" width="200" height="200" viewBox="0 0 24 24"><path fill="currentColor" d="M8.808 11.192h.884V5.808H7.308v.884h1.5v4.5Zm4.865 0h1.096l1.393-4.469q.111-.346-.093-.63q-.204-.285-.55-.285h-3.211v.884h2.773l-1.408 4.5Zm-7.365 7h.884v-4.5h1.616v3h.884v-3h1.616v4.5h.884V13.5q0-.31-.191-.501t-.501-.191H7q-.31 0-.501.191t-.191.501v4.692Zm7.5 0h.884v-1.5H17q.31 0 .501-.191t.191-.501v-2.5q0-.31-.191-.501T17 12.808h-3.192v5.384Zm.884-2.384v-2.116h2.116v2.116h-2.116ZM5.615 20q-.69 0-1.152-.462Q4 19.075 4 18.385V5.615q0-.69.463-1.152Q4.925 4 5.615 4h12.77q.69 0 1.152.463q.463.462.463 1.152v12.77q0 .69-.462 1.152q-.463.463-1.153.463H5.615Z"/></svg>