<svg xmlns="http://www.w3.org/2000/svg" width="200" height="200" viewBox="0 0 24 24"><path fill="currentColor" d="M12 21q-1.868 0-3.51-.709t-2.857-1.923q-1.215-1.215-1.924-2.858Q3 13.868 3 12h1q0 3.125 2.091 5.402t5.205 2.563L9.731 18.4l.707-.708l3.127 3.127q-.378.096-.78.139q-.4.042-.785.042Zm.808-6.308V9.308h3l.769.769v3.846l-.77.77h-3Zm-5.385 0v-.884h2.885v-1.423H8.423v-.77h1.885v-1.423H7.423v-.884h3.77v5.384h-3.77Zm6.27-.884h2v-3.616h-2v3.616ZM20 12q0-3.125-2.091-5.402t-5.205-2.563L14.269 5.6l-.707.708l-3.127-3.127q.378-.096.78-.139Q11.614 3 12 3q1.868 0 3.51.709t2.857 1.924q1.215 1.215 1.924 2.857Q21 10.133 21 12h-1Z"/></svg>