<svg xmlns="http://www.w3.org/2000/svg" width="200" height="200" viewBox="0 0 24 24"><path fill="currentColor" d="M9 13H6.73q-.69 0-1.152-.463t-.463-1.152v-4.77q0-.69.463-1.153Q6.04 5 6.73 5h3.884v1H6.731q-.27 0-.443.173t-.173.442V8.5H9q.69 0 1.153.463q.462.462.462 1.152v1.27q0 .69-.462 1.153Q9.69 13 9 13ZM6.115 9.5v1.885q0 .269.173.442t.443.173H9q.27 0 .442-.173t.173-.442v-1.27q0-.269-.173-.442T9 9.5H6.115ZM17.27 13H15q-.69 0-1.153-.463q-.462-.462-.462-1.152v-4.77q0-.69.462-1.153Q14.31 5 15 5h2.27q.69 0 1.152.463t.463 1.152v4.77q0 .69-.463 1.153Q17.96 13 17.27 13Zm0-1q.27 0 .443-.173t.173-.442v-4.77q0-.269-.173-.442T17.269 6H15q-.27 0-.442.173t-.173.442v4.77q0 .269.173.442T15 12h2.27ZM3.846 21.5v-4h1v4h-1Zm3.385 0v-4h1v4h-1Zm3.384 0v-4h1v4h-1Zm3.385 0v-4h6.154v4H14Z"/></svg>