<svg xmlns="http://www.w3.org/2000/svg" width="200" height="200" viewBox="0 0 24 24"><path fill="currentColor" d="M8.27 18.115H4.73q-.788 0-1.317-.528q-.528-.53-.528-1.318V7.731q0-.789.528-1.318q.53-.528 1.318-.528h4.384v1.23H4.731q-.27 0-.443.173t-.173.443v3.154H8.27q.789 0 1.318.528q.528.53.528 1.318v3.538q0 .789-.528 1.318q-.53.528-1.318.528Zm-4.155-6v4.154q0 .27.173.443t.443.173h3.538q.27 0 .443-.173t.173-.443v-3.538q0-.27-.173-.443t-.443-.173H4.115Zm10.616 4.77h4.538q.27 0 .443-.173t.173-.443V7.731q0-.27-.173-.443t-.443-.173h-4.538q-.27 0-.443.173t-.173.443v8.538q0 .27.173.443t.443.173Zm0 1.23q-.789 0-1.318-.528q-.528-.53-.528-1.318V7.731q0-.789.528-1.318q.53-.528 1.318-.528h4.538q.789 0 1.318.528q.528.53.528 1.318v8.538q0 .789-.528 1.318q-.53.528-1.318.528h-4.538Z"/></svg>