<svg xmlns="http://www.w3.org/2000/svg" width="200" height="200" viewBox="0 0 24 24"><path fill="currentColor" d="M7.154 14.692h2.23q.33 0 .55-.22q.22-.22.22-.549v-1.538q0-.33-.22-.55t-.55-.22H7.27v-1.423h2.885v-.884h-3q-.329 0-.55.22q-.22.22-.22.549v3.846q0 .329.22.55q.221.22.55.22Zm.115-.769v-1.538h2v1.538h-2Zm4.25.77h.885v-2.366l2.288 2.365h1.23l-2.653-2.73l2.652-2.654h-1.19l-2.327 2.327V9.308h-.885v5.384Zm5.212-.808h.769v-1.5H19v-.77h-1.5v-1.5h-.77v1.5h-1.5v.77h1.5v1.5ZM5.615 20q-.69 0-1.152-.462Q4 19.075 4 18.385V5.615q0-.69.463-1.152Q4.925 4 5.615 4h12.77q.69 0 1.152.463q.463.462.463 1.152v12.77q0 .69-.462 1.152q-.463.463-1.153.463H5.615Zm0-1h12.77q.23 0 .423-.192q.192-.193.192-.423V5.615q0-.23-.192-.423Q18.615 5 18.385 5H5.615q-.23 0-.423.192Q5 5.385 5 5.615v12.77q0 .23.192.423q.193.192.423.192ZM5 5v14V5Z"/></svg>