<svg xmlns="http://www.w3.org/2000/svg" width="200" height="200" viewBox="0 0 24 24"><path fill="currentColor" d="M11.48 11.192h.982l1.392-4.469q.111-.346-.092-.63q-.204-.285-.55-.285H10v.884h2.888l-1.407 4.5Zm-5.172 7h.884v-4.5h1.616v3h.884v-3h1.616v4.5h.884V13.5q0-.31-.191-.501t-.501-.191H7q-.31 0-.501.191t-.191.501v4.692Zm7.5 0h.884v-1.5H17q.31 0 .501-.191t.191-.501v-2.5q0-.31-.191-.501T17 12.808h-3.192v5.384Zm.884-2.384v-2.116h2.116v2.116h-2.116ZM5.615 20q-.69 0-1.152-.462Q4 19.075 4 18.385V5.615q0-.69.463-1.152Q4.925 4 5.615 4h12.77q.69 0 1.152.463q.463.462.463 1.152v12.77q0 .69-.462 1.152q-.463.463-1.153.463H5.615Zm0-1h12.77q.23 0 .423-.192q.192-.193.192-.423V5.615q0-.23-.192-.423Q18.615 5 18.385 5H5.615q-.23 0-.423.192Q5 5.385 5 5.615v12.77q0 .23.192.423q.193.192.423.192ZM5 5v14V5Z"/></svg>