<svg xmlns="http://www.w3.org/2000/svg" width="200" height="200" viewBox="0 0 24 24"><path fill="currentColor" d="M7.154 14.692H9.5q.327 0 .548-.22q.221-.222.221-.549v-3.846q0-.327-.22-.548q-.222-.221-.549-.221H7.154q-.327 0-.548.22q-.221.222-.221.549v3.846q0 .327.22.548q.222.221.549.221Zm.115-.769v-1.538h2.116v1.538H7.269Zm0-2.308v-1.538h2.116v1.538H7.269Zm4.25 3.077h.885v-2.365l2.288 2.365h1.212l-2.635-2.73l2.635-2.654H14.73l-2.327 2.327V9.308h-.885v5.384Zm5.212-.807h.769v-1.5H19v-.77h-1.5v-1.5h-.77v1.5h-1.5v.77h1.5v1.5ZM5.615 20q-.69 0-1.152-.462Q4 19.075 4 18.385V5.615q0-.69.463-1.152Q4.925 4 5.615 4h12.77q.69 0 1.152.463q.463.462.463 1.152v12.77q0 .69-.462 1.152q-.463.463-1.153.463H5.615Z"/></svg>