<svg xmlns="http://www.w3.org/2000/svg" width="200" height="200" viewBox="0 0 24 24"><path fill="currentColor" d="M12 3.5q1.038 0 1.788.75t.75 1.788t-.75 1.789t-1.788.75t-1.788-.75t-.75-1.789t.75-1.788T12 3.5m.003 5.923q.985 0 1.95.237q.964.236 1.735.64q.797.417 1.285.959q.489.541.489 1.187v4.877q0 .688-.405 1.225q-.404.537-1.059.537q-.29 0-.501-.211t-.212-.659v-.419q0-.797-1.106-1.3T12 15.992q-.821 0-1.627.265t-1.26.718q-.18.18-.095.435t.363.336q.723.206 1.468.267t1.455.068q.446 0 .766.32t.32.774t-.32.774t-.774.32q-.817 0-1.804-.142t-1.873-.49t-1.483-.911t-.598-1.403v-4.877q0-.646.489-1.187q.488-.542 1.26-.959q.776-.404 1.753-.64q.977-.237 1.963-.237M12 14.5q.698 0 1.195-.497t.497-1.195t-.497-1.195T12 11.115t-1.195.498t-.497 1.195t.497 1.195T12 14.5"/></svg>