<svg xmlns="http://www.w3.org/2000/svg" width="200" height="200" viewBox="0 0 24 24"><path fill="currentColor" d="M11.994 3q1.87 0 3.509.71t2.858 1.93t1.928 2.855t.711 3.511q0 1.852-.71 3.494t-1.93 2.86t-2.855 1.93t-3.511.71q-1.852 0-3.491-.707q-1.64-.708-2.864-1.932t-1.932-2.864T3 12.007q0-1.875.71-3.512q.711-1.637 1.93-2.856t2.862-1.928T11.994 3M12 20q3.325 0 5.663-2.337T20 12t-2.337-5.663T12 4T6.337 6.338T4 12t2.338 5.663T12 20M10.308 7.77q0 .709.491 1.2q.491.492 1.201.492t1.201-.492t.491-1.2t-.491-1.202T12 6.077t-1.201.491t-.491 1.201m1.69 2.539q-1.398 0-2.602.46T8.192 12.43v3.37q0 1.2 1.208 1.656t2.607.455q.36 0 .6-.244t.24-.603t-.244-.603T12 16.22q-.442.02-.853-.065t-.803-.266q-.217-.086-.282-.3t.07-.396q.366-.37.86-.512T12 14.538q.771 0 1.443.239q.672.238.672.904v.869q0 .254.18.444q.178.19.43.19q.498 0 .79-.426q.293-.427.293-.95v-3.376q0-1.203-1.207-1.664t-2.604-.46m0 3.807q-.445 0-.75-.307t-.305-.753t.308-.75t.753-.305t.75.308t.305.752t-.308.75t-.753.305M12 12"/></svg>