<svg xmlns="http://www.w3.org/2000/svg" width="200" height="200" viewBox="0 0 24 24"><path fill="currentColor" d="M5.77 20.23q-.834 0-1.417-.583q-.584-.583-.584-1.416q0-.706.428-1.238q.428-.531 1.072-.703V7.71q-.644-.172-1.072-.703q-.428-.532-.428-1.238q0-.833.584-1.416q.583-.584 1.416-.584q.706 0 1.238.428q.531.428.703 1.072h8.58q.166-.644.702-1.072q.536-.428 1.239-.428q.833 0 1.416.584q.584.583.584 1.416q0 .703-.428 1.24q-.428.535-1.072.7v8.581q.644.172 1.072.703q.428.532.428 1.238q0 .833-.584 1.416q-.583.584-1.416.584q-.706 0-1.238-.428q-.531-.428-.703-1.072H7.71q-.172.644-.703 1.072q-.532.428-1.238.428Zm0-13.46q.424 0 .712-.288t.287-.713q0-.425-.287-.712t-.713-.288q-.425 0-.712.288t-.288.712q0 .425.288.713t.712.287Zm12.46 0q.426 0 .713-.288t.288-.713q0-.425-.288-.712t-.712-.288q-.425 0-.713.288t-.287.712q0 .425.287.713t.713.287ZM7.71 17.73h8.58q.148-.534.527-.913q.38-.379.914-.527V7.71q-.535-.13-.923-.518q-.389-.388-.518-.923H7.71q-.148.535-.527.914q-.38.379-.914.527v8.58q.535.148.914.527q.379.38.527.914Zm10.52 1.5q.426 0 .713-.287t.288-.712q0-.425-.288-.713t-.712-.287q-.425 0-.713.287t-.287.713q0 .425.287.712t.713.288Zm-12.46 0q.424 0 .712-.287t.287-.712q0-.425-.287-.713t-.713-.287q-.425 0-.712.287t-.288.713q0 .425.288.712t.712.288Zm0-13.46Zm12.46 0Zm0 12.46Zm-12.46 0Z"/></svg>