<svg xmlns="http://www.w3.org/2000/svg" width="200" height="200" viewBox="0 0 24 24"><path fill="currentColor" d="M14.816 19q-2.935 0-4.972-2.037q-2.036-2.037-2.036-4.971q0-2.913 2.036-4.953T14.816 5q2.913 0 4.952 2.04t2.04 4.952q0 2.934-2.04 4.971T14.816 19Zm-.008-1q2.5 0 4.25-1.75t1.75-4.25q0-2.5-1.75-4.25T14.808 6q-2.5 0-4.25 1.75T8.808 12q0 2.5 1.75 4.25t4.25 1.75Zm.5-6.188V8.808q0-.213-.144-.357t-.357-.143q-.213 0-.356.143q-.143.144-.143.357v3.082q0 .154.058.297t.189.275l2.366 2.384q.146.166.347.166q.201 0 .367-.166q.165-.165.165-.357t-.165-.356l-2.327-2.321ZM3.692 8.5q-.212 0-.356-.144t-.144-.357t.144-.356q.144-.143.356-.143h2.616q.212 0 .356.144T6.808 8t-.144.356q-.144.143-.356.143H3.692Zm-1 4q-.212 0-.356-.144T2.192 12t.144-.356q.144-.143.356-.143h3.616q.212 0 .356.144t.144.357t-.144.356q-.144.143-.356.143H2.692Zm1 4q-.212 0-.356-.144T3.192 16t.144-.356q.144-.143.356-.143h2.616q.212 0 .356.144t.144.357t-.144.356q-.144.143-.356.143H3.692ZM14.808 12Z"/></svg>