<svg xmlns="http://www.w3.org/2000/svg" width="200" height="200" viewBox="0 0 24 24"><path fill="currentColor" d="M8.115 17q-.67 0-1.143-.472q-.472-.472-.472-1.143v-7.47L2.515 3.931q-.14-.14-.15-.344q-.01-.204.15-.364t.354-.16t.354.16l17.554 17.554q.14.14.15.344q.01.204-.15.364t-.354.16t-.354-.16L15.585 17h-7.47Zm-3 3q-.67 0-1.143-.472q-.472-.472-.472-1.143V7.115q0-.213.143-.356q.144-.144.357-.144t.357.144t.143.356v11.27q0 .269.173.442t.442.173h11.27q.213 0 .356.143t.144.357q0 .213-.144.357q-.143.143-.356.143H5.115Zm14.527-3.183L8.825 6H19.5V4.615q0-.269-.173-.442T18.885 4H8.115q-.211 0-.365.115q-.154.116-.23.308v.271l-.837-.836q.2-.408.587-.633T8.115 3h10.77q.67 0 1.143.472q.472.472.472 1.143v10.77q0 .457-.225.845t-.633.587Z"/></svg>