<svg xmlns="http://www.w3.org/2000/svg" width="200" height="200" viewBox="0 0 24 24"><path fill="currentColor" d="m19.642 16.817l-.855-.855h.27q.212-.058.328-.212q.115-.154.115-.365V6H8.825L6.683 3.858q.2-.408.587-.633T8.115 3h10.77q.666 0 1.14.475q.475.474.475 1.14v10.77q0 .457-.225.845t-.633.587ZM8.115 17q-.666 0-1.14-.475q-.475-.474-.475-1.14v-7.47L2.515 3.931q-.14-.14-.15-.344q-.01-.204.15-.364t.354-.16t.354.16l17.554 17.554q.14.14.15.344q.01.204-.15.364t-.354.16t-.354-.16L15.585 17h-7.47Zm0-1h6.47L7.5 8.915v6.47q0 .269.173.442t.442.173Zm-3 4q-.666 0-1.14-.475q-.475-.474-.475-1.14V7.115q0-.212.144-.356T4 6.615q.212 0 .356.144q.143.144.143.356v11.27q0 .269.173.442t.442.173h11.27q.212 0 .356.144t.144.357q0 .212-.144.356q-.144.143-.356.143H5.115Zm5.972-7.498Zm2.426-1.814Z"/></svg>