<svg xmlns="http://www.w3.org/2000/svg" width="200" height="200" viewBox="0 0 24 24"><path fill="currentColor" d="M5.615 20q-.67 0-1.143-.472Q4 19.056 4 18.385V5.805q0-.095.01-.172q.01-.077.048-.154l-.54-.54q-.141-.14-.15-.342q-.01-.2.155-.366q.16-.16.354-.16q.194 0 .354.16l15.538 15.538q.146.146.153.344q.007.199-.159.364q-.165.16-.353.162q-.189.003-.354-.162l-.516-.515q-.096.019-.173.028q-.077.01-.173.01H5.615Zm0-1H17.58L5 6.421v11.964q0 .269.173.442t.442.173ZM20 17.175l-1-1V8.154h-8.021L6.825 4h11.56q.67 0 1.143.472q.472.472.472 1.143v11.56Z"/></svg>