<svg xmlns="http://www.w3.org/2000/svg" width="200" height="200" viewBox="0 0 24 24"><path fill="currentColor" d="M12 16.173q-.613 0-1.028-.424q-.414-.424-.414-1.037v-2.885q0-.614.414-1.038q.415-.424 1.028-.424t1.028.424t.414 1.038v2.885q0 .613-.414 1.037q-.415.424-1.028.424m0 2.02q1.333 0 2.283-.878t1.11-2.196q.03-.187.156-.297t.3-.11q.198 0 .325.137t.097.334q-.148 1.525-1.224 2.617t-2.605 1.246v1.512q0 .191-.125.317q-.125.125-.316.125t-.317-.125t-.126-.317v-1.512q-1.53-.154-2.595-1.246t-1.215-2.617q-.03-.196.098-.334t.335-.137q.161 0 .278.114t.149.293q.16 1.32 1.11 2.196t2.282.877m-9.25-5.269q-.319 0-.534-.216T2 12.173v-.133q0-.76.295-1.274t.926-.845q.904-.467 1.92-.704t2.109-.236q.47 0 .912.044t.882.133q.206.05.224.243t-.162.299q-.818.483-1.448 1.235q-.631.752-.955 1.644q-.059.14-.197.242t-.296.102zm15.04 0q-.158 0-.296-.102t-.197-.242q-.324-.892-.952-1.644T14.9 9.7q-.18-.106-.153-.299t.209-.243q.441-.089.882-.133t.912-.044q1.094 0 2.11.236q1.015.237 1.919.704q.63.33.926.845T22 12.04v.133q0 .319-.216.534t-.534.216zM7.251 7.846q-1.001 0-1.703-.707t-.702-1.716t.701-1.716T7.249 3t1.703.707t.702 1.716t-.701 1.716t-1.702.707m9.5 0q-1.001 0-1.703-.707t-.702-1.716t.7-1.716Q15.749 3 16.75 3t1.703.707t.702 1.716t-.7 1.716q-.702.707-1.703.707"/></svg>