<svg xmlns="http://www.w3.org/2000/svg" width="200" height="200" viewBox="0 0 24 24"><path fill="currentColor" d="M17.5 12.923q-.213 0-.356-.144q-.144-.144-.144-.357q0-.212.144-.356t.356-.143h3.483q-.043-.425-.216-.694t-.54-.446q-.765-.414-1.564-.608q-.8-.194-1.913-.194q-.26 0-.513.019t-.512.058q-.213.019-.354-.131t-.14-.354t.132-.341t.345-.169q.26-.044.52-.063t.522-.02q1.229 0 2.177.237t1.852.704q.63.33.926.845T22 12.04v.133q0 .319-.216.534t-.534.216zm-.749-5.077q-1.001 0-1.703-.707t-.702-1.716t.701-1.716T16.749 3t1.703.707t.702 1.716t-.7 1.716q-.702.707-1.703.707m0-1q.597 0 1-.408q.403-.407.403-1.01t-.404-1.015T16.749 4t-1 .408t-.403 1.01t.404 1.016t1.001.412M2.75 12.923q-.319 0-.534-.216T2 12.173v-.133q0-.76.295-1.274t.926-.845q.904-.467 1.852-.704t2.177-.236q.26 0 .521.019t.521.063q.214.031.346.169t.131.341t-.14.354t-.354.13q-.26-.038-.513-.057t-.512-.02q-1.113 0-1.912.195q-.8.194-1.565.608q-.367.177-.54.446t-.216.694H6.5q.213 0 .356.144t.144.357t-.144.356q-.143.143-.356.143zm4.501-5.077q-1.001 0-1.703-.707t-.702-1.716t.7-1.716Q6.249 3 7.25 3t1.703.707t.702 1.716t-.701 1.716t-1.702.707m0-1q.597 0 1-.408q.403-.407.403-1.01T8.25 4.413T7.249 4t-1 .408t-.403 1.01t.404 1.016t1.001.412M12 16.173q-.613 0-1.028-.424q-.414-.424-.414-1.037v-2.885q0-.614.414-1.038q.415-.424 1.028-.424t1.028.424t.414 1.038v2.885q0 .613-.414 1.037q-.415.424-1.028.424M12 21q-.19 0-.316-.125q-.126-.126-.126-.317v-1.512q-1.53-.154-2.595-1.246t-1.215-2.617q-.03-.196.098-.334t.335-.137q.161 0 .278.114t.149.293q.16 1.32 1.11 2.196t2.282.877t2.283-.877t1.11-2.196q.03-.187.156-.297t.3-.11q.198 0 .325.137t.097.334q-.148 1.525-1.224 2.617t-2.605 1.246v1.512q0 .191-.125.317q-.125.125-.316.125"/></svg>