<svg xmlns="http://www.w3.org/2000/svg" width="200" height="200" viewBox="0 0 24 24"><path fill="currentColor" d="M20.594 22.015L2.408 3.83q-.14-.14-.15-.342t.145-.366q.17-.165.361-.165t.357.165l18.18 18.187q.141.14.154.341t-.157.37q-.156.156-.35.156t-.354-.16m-3.843-14.17q-1.001 0-1.703-.707t-.702-1.716t.7-1.716Q15.749 3 16.75 3t1.703.707t.702 1.716t-.7 1.716q-.702.707-1.703.707m0-1q.597 0 1-.408q.403-.407.403-1.01t-.404-1.015T16.749 4t-1 .408t-.403 1.01t.404 1.016t1.001.412M2.75 12.923q-.319 0-.534-.216T2 12.173v-.133q0-.76.295-1.274t.926-.845q.904-.467 1.92-.704t2.109-.236q.41 0 .805.041t.797.11v1q-.402-.088-.797-.12t-.805-.031q-.979 0-1.845.194t-1.632.608q-.367.177-.54.446t-.216.694H6.5q.213 0 .356.144t.144.357t-.144.356q-.143.143-.356.143zm6.144-9.279q.368.368.564.814t.196.965q0 .115-.006.235t-.042.229q-.062.242-.307.301t-.437-.132L6.31 3.485q-.148-.148-.137-.336t.171-.312q.13-.095.239-.158t.244-.102q.663.154 1.182.427t.885.64M12 16.174q-.613 0-1.028-.425q-.414-.424-.414-1.037v-2.885q0-.28.082-.51t.243-.429l2.56 2.56v1.264q0 .613-.415 1.037T12 16.173M12 21q-.19 0-.316-.125q-.126-.126-.126-.317v-1.512q-1.53-.154-2.595-1.246t-1.215-2.617q-.03-.196.098-.334t.335-.137q.161 0 .278.114t.149.293q.16 1.32 1.11 2.196t2.282.877q1.267 0 2.197-.807q.93-.808 1.163-2.025l.725.73q-.398 1.218-1.381 2.016t-2.262.94v1.512q0 .191-.125.317q-.125.125-.316.125m5.499-8.077q-.213 0-.356-.144q-.144-.144-.144-.357q0-.212.144-.356t.356-.143h3.483q-.043-.425-.216-.694t-.54-.446q-.765-.414-1.564-.608q-.8-.194-1.913-.194q-.26 0-.513.019t-.512.058q-.213.019-.354-.131t-.14-.354t.132-.341t.345-.169q.26-.044.52-.063t.522-.02q1.229 0 2.177.237t1.852.704q.63.33.926.845T22 12.04v.133q0 .319-.216.534t-.534.216z"/></svg>