<svg xmlns="http://www.w3.org/2000/svg" width="200" height="200" viewBox="0 0 24 24"><path fill="currentColor" d="M5.73 17v-4.5h4.54V17v-4.5H5.73V17ZM16 8.5ZM2 18V9.5l6-4.27l6 4.27v1.079q-.287.179-.527.387q-.24.209-.473.467V10L8 6.488L3 10v7h2.73v-4.5h4.54V17h1.036q.036.275.1.515q.063.24.154.485H9.27v-4.5H6.73V18H2ZM22 2v8.567q-.233-.2-.473-.35q-.24-.152-.527-.292V3h-9.615v2.188l-1-.719V2H22Zm-4.77 4.77h1.54V5.23h-1.54v1.54ZM18 20q-1.671 0-2.836-1.164T14 16q0-1.671 1.164-2.836T18 12q1.671 0 2.836 1.164T22 16q0 1.671-1.164 2.836T18 20Zm-.385-1.115h.77v-2.5h2.5v-.77h-2.5v-2.5h-.77v2.5h-2.5v.77h2.5v2.5Z"/></svg>