<svg xmlns="http://www.w3.org/2000/svg" width="200" height="200" viewBox="0 0 24 24"><path fill="currentColor" d="M19.5 18.5H17q-.213 0-.356-.144q-.144-.144-.144-.357t.144-.356q.144-.143.356-.143h2.5V15q0-.213.144-.356q.144-.144.357-.144t.356.144q.143.144.143.356v2.5H23q.213 0 .356.144q.144.144.144.357t-.144.356q-.143.143-.356.143h-2.5V21q0 .213-.144.356q-.144.144-.357.144t-.356-.144Q19.5 21.213 19.5 21v-2.5ZM4 11.192h16V8.808H4v2.384ZM4.615 19q-.69 0-1.152-.462Q3 18.075 3 17.385V6.615q0-.69.463-1.152Q3.925 5 4.615 5h14.77q.69 0 1.152.463q.463.462.463 1.152V12.5h-1.5q-2.075 0-3.538 1.463T14.5 17.5V19H4.615Z"/></svg>