<svg xmlns="http://www.w3.org/2000/svg" width="200" height="200" viewBox="0 0 24 24"><path fill="currentColor" d="M4.138 20q-.701 0-1.06-.606q-.357-.606.01-1.22L10.95 4.787q.187-.298.467-.456t.58-.159t.584.159t.469.456l7.88 13.385q.368.615.01 1.221q-.357.606-1.06.606zm.202-1h15.32q.23 0 .327-.163t-.058-.414l-7.64-12.942q-.097-.173-.289-.173t-.288.173l-7.66 12.98q-.115.212-.02.376T4.34 19m7.16-3.846v1.442q0 .213.144.356q.144.144.357.144t.356-.144t.143-.356v-1.442h1.48q.213 0 .357-.144t.144-.357t-.144-.356t-.356-.143H12.5V12.73q0-.213-.144-.356q-.144-.144-.357-.144t-.356.144t-.143.356v1.423h-1.462q-.212 0-.356.144t-.144.357t.144.356t.356.143zm.5-.5"/></svg>