<svg xmlns="http://www.w3.org/2000/svg" width="200" height="200" viewBox="0 0 24 24"><path fill="currentColor" d="M6.477 19.885q-.333 0-.67-.189q-.338-.188-.517-.484L3.248 15.63q-.179-.302-.179-.683t.18-.683L8.79 4.788q.18-.301.517-.487t.67-.186h4.046q.333 0 .67.186t.517.487l3.4 5.839q-.235-.004-.466-.013q-.23-.008-.47.03q-.053 0-.105.003t-.104.015l-3.23-5.547H9.746L4.031 14.92l2.254 3.966h6.788q.121.286.272.527q.151.24.351.473h-7.22Zm1.311-3.635l-.417-.737l4.056-7.051h1.146l2.052 3.575q-.194.17-.384.353q-.19.183-.354.397L12 9.469L8.692 15.25h4.027q-.079.244-.096.494l-.036.506H7.788ZM18 20v-3h-3v-1h3v-3h1v3h3v1h-3v3h-1Z"/></svg>