<svg xmlns="http://www.w3.org/2000/svg" width="200" height="200" viewBox="0 0 24 24"><path fill="currentColor" d="M17.846 6.77h.327q.248 0 .422-.184t.174-.432v-.327q0-.248-.174-.422t-.422-.174h-.327q-.248 0-.432.174q-.183.174-.183.422v.327q0 .248.183.432q.184.183.432.183ZM18 20q-1.671 0-2.836-1.164T14 16q0-1.671 1.164-2.836T18 12q1.671 0 2.836 1.164T22 16q0 1.671-1.164 2.836T18 20Zm-.385-3.615V18.5q0 .162.112.273q.111.112.273.112t.273-.112q.112-.111.112-.273v-2.115H20.5q.162 0 .273-.112q.112-.111.112-.273t-.112-.273q-.111-.112-.273-.112h-2.115V13.5q0-.162-.112-.273q-.111-.112-.273-.112t-.273.112q-.112.111-.112.273v2.115H15.5q-.162 0-.273.112q-.112.111-.112.273t.112.273q.111.112.273.112h2.115ZM22 10.567q-.84-.665-1.88-1Q19.078 9.23 18 9.23q-.525 0-1.022.08T16 9.556v-.223q0-.385-.174-.743q-.174-.357-.497-.575L10.385 4.47v-.865q0-.666.469-1.135T11.988 2h8.397q.67 0 1.143.472q.472.472.472 1.143v6.952ZM2 17.192v-6.86q0-.384.177-.742q.177-.357.5-.575l4.385-3.113q.428-.298.938-.298t.938.298l4.454 3.16q.295.2.451.523q.157.323.157.667v.327q-1.3.908-2.035 2.366q-.734 1.459-.734 3.055q0 .563.076 1.018q.076.455.253.982h-.906q-.348 0-.578-.23q-.23-.23-.23-.578V13.52q0-.248-.174-.422t-.422-.174H6.77q-.249 0-.432.174q-.184.174-.184.422v3.673q0 .348-.23.578q-.23.23-.578.23H2.808q-.348 0-.578-.23q-.23-.23-.23-.578Z"/></svg>