<svg xmlns="http://www.w3.org/2000/svg" width="200" height="200" viewBox="0 0 24 24"><path fill="currentColor" d="M11.99 21q-.313 0-.608-.118t-.551-.36l-7.34-7.347q-.237-.262-.364-.556T3 12q0-.304.127-.609t.363-.541l7.34-7.346q.262-.262.551-.383T12 3q.304 0 .612.121t.544.383l7.334 7.346q.256.242.383.544t.127.616t-.124.608t-.386.557l-7.334 7.346q-.237.237-.544.358T11.99 21m-.49-8.5v2.615q0 .213.144.357q.144.143.357.143t.356-.143t.143-.357V12.5h2.615q.213 0 .357-.144q.143-.144.143-.357t-.143-.356t-.357-.143H12.5V8.885q0-.213-.144-.357q-.144-.143-.357-.143t-.356.143t-.143.357V11.5H8.885q-.213 0-.357.144q-.143.144-.143.357t.143.356t.357.143z"/></svg>