<svg xmlns="http://www.w3.org/2000/svg" width="200" height="200" viewBox="0 0 24 24"><path fill="currentColor" d="M6.154 17v-4.077h3.692V17v-4.077H6.154V17Zm10.038-7.075ZM2 17.192v-6.86q0-.384.177-.742q.177-.357.5-.575l4.385-3.113q.428-.298.938-.298t.938.298l4.454 3.16q.295.2.451.523q.157.323.157.667v.327q-.287.179-.527.387q-.24.209-.473.467v-1.106q0-.154-.067-.289q-.068-.134-.202-.23l-4.385-3.07Q8.192 6.623 8 6.623t-.346.115l-4.385 3.07q-.134.096-.202.23q-.067.135-.067.289V17h2.73v-3.692q0-.344.233-.576q.232-.232.575-.232h2.924q.343 0 .575.232q.232.232.232.576V17h1.037q.036.275.1.515q.063.24.154.485h-1.483q-.343 0-.576-.232q-.232-.232-.232-.576V13.5H6.731v3.692q0 .344-.232.576q-.233.232-.576.232H2.808q-.344 0-.576-.232Q2 17.536 2 17.192ZM22 3.615v6.952q-.233-.2-.473-.35q-.24-.152-.527-.292v-6.31q0-.269-.173-.442T20.385 3H12q-.27 0-.442.173t-.173.442v1.573l-1-.719v-.865q0-.658.473-1.131T11.988 2h8.397q.666 0 1.14.475q.475.474.475 1.14ZM17.635 6.77h.73q.162 0 .283-.12t.121-.284v-.73q0-.162-.12-.283t-.284-.121h-.73q-.162 0-.283.12t-.121.284v.73q0 .162.12.283t.284.121ZM18 20q-1.671 0-2.836-1.164T14 16q0-1.671 1.164-2.836T18 12q1.671 0 2.836 1.164T22 16q0 1.671-1.164 2.836T18 20Zm-.385-3.615V18.5q0 .154.116.27q.115.115.269.115t.27-.116q.115-.115.115-.269v-2.115H20.5q.154 0 .27-.116q.115-.115.115-.269t-.116-.27q-.115-.115-.269-.115h-2.115V13.5q0-.154-.116-.27q-.115-.115-.269-.115t-.27.116q-.115.115-.115.269v2.115H15.5q-.154 0-.27.116q-.115.115-.115.269t.116.27q.115.115.269.115h2.115Z"/></svg>