<svg xmlns="http://www.w3.org/2000/svg" width="200" height="200" viewBox="0 0 24 24"><path fill="currentColor" d="M4.615 19q-.69 0-1.152-.462Q3 18.075 3 17.385V6.615q0-.69.463-1.152Q3.925 5 4.615 5h14.77q.69 0 1.152.463q.463.462.463 1.152v4.577H4v6.193q0 .23.192.423q.193.192.423.192h8.077q.213 0 .357.144q.143.144.143.357q0 .212-.143.356q-.144.143-.357.143H4.615ZM4 8.808h16V6.615q0-.23-.192-.423Q19.615 6 19.385 6H4.615q-.23 0-.423.192Q4 6.385 4 6.615v2.193ZM19.5 18.5H17q-.213 0-.356-.144q-.144-.144-.144-.357t.144-.356q.144-.143.356-.143h2.5V15q0-.213.144-.356q.144-.144.357-.144t.356.144q.143.144.143.356v2.5H23q.213 0 .356.144q.144.144.144.357t-.144.356q-.143.143-.356.143h-2.5V21q0 .213-.144.356q-.144.144-.357.144t-.356-.144Q19.5 21.213 19.5 21v-2.5ZM4 18V6v12Z"/></svg>