<svg xmlns="http://www.w3.org/2000/svg" width="200" height="200" viewBox="0 0 24 24"><path fill="currentColor" d="M17.23 6.77h1.54V5.23h-1.54v1.54ZM18 20q-1.671 0-2.836-1.164T14 16q0-1.671 1.164-2.836T18 12q1.671 0 2.836 1.164T22 16q0 1.671-1.164 2.836T18 20Zm-.385-1.115h.77v-2.5h2.5v-.77h-2.5v-2.5h-.77v2.5h-2.5v.77h2.5v2.5ZM22 10.567q-.84-.665-1.88-1Q19.078 9.23 18 9.23q-.525 0-1.022.08T16 9.556V8.5l-5.615-4.03V2H22v8.567ZM2 18V9.5l6-4.27l6 4.27v1.079q-1.3.908-2.035 2.366q-.734 1.459-.734 3.055q0 .563.076 1.018q.076.455.253.982H9.846v-5.077H6.154V18H2Z"/></svg>