<svg xmlns="http://www.w3.org/2000/svg" width="200" height="200" viewBox="0 0 24 24"><path fill="currentColor" d="M11.5 15.615h1V12.5h3.115v-1H12.5V8.385h-1V11.5H8.385v1H11.5zM12 21q-.323 0-.618-.118t-.551-.36l-7.34-7.347q-.237-.262-.364-.557T3 12q0-.304.127-.609t.363-.541l7.34-7.346q.262-.262.555-.383T12 3q.304 0 .612.121t.544.383l7.334 7.346q.256.242.383.544T21 12q0 .323-.124.618t-.386.557l-7.334 7.346q-.237.237-.544.358T12 21m.462-1.192l7.32-7.327q.174-.173.174-.471t-.173-.472l-7.321-7.326q-.174-.174-.472-.174t-.47.174l-7.322 7.326q-.154.174-.154.472t.154.47l7.321 7.328q.173.154.471.154t.472-.154M12 12"/></svg>