<svg xmlns="http://www.w3.org/2000/svg" width="200" height="200" viewBox="0 0 24 24"><path fill="currentColor" d="M16.693 13.075q-.355 0-.704-.07t-.71-.186q-.189-.067-.274-.25t-.018-.383q.067-.176.244-.274t.365-.031q.294.094.578.144t.551.05q.37 0 .741-.11q.37-.11.753-.367q.523-.367 1.066-.508q.542-.14 1.023-.14q.329 0 .69.053t.723.159q.202.064.296.258t.03.41q-.065.203-.26.292t-.402.022q-.333-.113-.56-.154q-.229-.04-.525-.04q-.377 0-.797.122t-.897.455q-.448.311-.925.43t-.988.118m.023-3.515q-.353 0-.704-.066t-.714-.19q-.205-.062-.295-.247t-.022-.396q.067-.186.247-.284t.387-.03q.333.1.593.156t.513.057q.38 0 .739-.107q.357-.107.76-.37q.547-.368 1.071-.508t1.014-.14q.357 0 .706.062t.71.168q.205.062.295.248t.024.401q-.066.204-.257.293t-.398.022q-.314-.1-.58-.147q-.267-.047-.508-.047q-.393 0-.8.119q-.409.12-.91.477q-.374.267-.87.398t-1.001.13m.01 7.031q-.368 0-.718-.07t-.71-.185q-.208-.068-.303-.24t-.028-.384q.068-.186.254-.294q.187-.107.394-.04q.31.091.59.152q.282.061.525.061q.364 0 .73-.104t.76-.373q.51-.357 1.087-.502t1.021-.146q.334 0 .683.053t.71.159q.212.064.31.258q.1.194.032.41q-.067.205-.26.303t-.4.03q-.338-.1-.602-.156t-.498-.057q-.41 0-.85.142q-.44.141-.866.455q-.368.253-.855.39q-.487.138-1.006.138M4.808 20q-.344 0-.576-.232T4 19.192V6.5q0-1.042.73-1.77Q5.457 4 6.5 4H10q1.042 0 1.77.73q.73.728.73 1.77v2h-1.77q-.666 0-1.14.475q-.475.474-.475 1.14v4.77q0 .666.475 1.14q.474.475 1.14.475h1.77v2.692q0 .344-.232.576t-.576.232zm7.692-4.5h-1.77q-.268 0-.442-.173t-.173-.442v-4.77q0-.269.173-.442t.443-.173H12.5z"/></svg>