<svg xmlns="http://www.w3.org/2000/svg" width="200" height="200" viewBox="0 0 24 24"><path fill="currentColor" d="M4 20V7q0-1.238.881-2.119T7 4h7q1.238 0 2.119.881T17 7v1h-1v9h1v3H4Zm6.5-5q1.238 0 2.119-.881T13.5 12q0-1.238-.881-2.119T10.5 9q-1.238 0-2.119.881T7.5 12q0 1.238.881 2.119T10.5 15Zm0-1q-.825 0-1.413-.588T8.5 12q0-.825.588-1.413T10.5 10q.825 0 1.413.588T12.5 12q0 .825-.588 1.413T10.5 14Zm6-2.5v-1h.4q.383 0 .681-.17q.298-.17.48-.55q.299-.609.841-.944q.543-.336 1.198-.336h.4v1h-.4q-.383 0-.68.17q-.299.17-.482.55q-.298.609-.84.944q-.543.336-1.198.336h-.4Zm0 4v-1h.4q.383 0 .681-.17q.298-.17.48-.55q.299-.57.841-.925q.543-.355 1.198-.355h.4v1h-.4q-.383 0-.68.17q-.299.17-.482.55q-.298.609-.84.944q-.543.336-1.198.336h-.4Z"/></svg>