<svg xmlns="http://www.w3.org/2000/svg" width="200" height="200" viewBox="0 0 24 24"><path fill="currentColor" d="M9.538 13V8h7.924q1.237 0 2.118.881T20.462 11v2H9.538Zm1-4v3v-3Zm-7 6.77v-1h16.924v1H3.538ZM5.654 13q-.904 0-1.51-.606t-.606-1.51q0-.903.606-1.509q.606-.606 1.51-.606t1.51.606q.605.606.605 1.51q0 .903-.606 1.51q-.605.605-1.51.605Zm0-1q.474 0 .795-.32q.32-.321.32-.795q0-.474-.32-.795q-.321-.32-.795-.32q-.474 0-.795.32q-.32.32-.32.795q0 .474.32.794q.32.321.795.321Zm4.884 0h8.924v-1q0-.825-.588-1.413T17.462 9h-6.924v3Zm-4.884-1.115Z"/></svg>