<svg xmlns="http://www.w3.org/2000/svg" width="200" height="200" viewBox="0 0 24 24"><path fill="currentColor" d="M15 20.23q-.492 0-.805-.438q-.312-.438-.17-.905l1.398-4.387H7.27q-.632 0-1.066-.434Q5.77 13.633 5.77 13V3.5h5v7h6q.594 0 1.028.414t.472 1.01l-2.154 6.614h1.72q.425 0 .699.211q.274.21.274.636t-.25.635q-.248.21-.673.21H15ZM5.385 16.5q-.69 0-1.153-.463t-.463-1.152V4q0-.213.144-.357q.143-.143.356-.143q.214 0 .357.143q.143.144.143.357v10.885q0 .23.193.423q.192.192.423.192h5.884q.214 0 .357.143q.143.144.143.357t-.143.357q-.143.143-.357.143H5.385Z"/></svg>