<svg xmlns="http://www.w3.org/2000/svg" width="200" height="200" viewBox="0 0 24 24"><path fill="currentColor" d="M15.942 14.5h-8q-.632 0-1.066-.434q-.434-.433-.434-1.066V3.5h5v7h4.846q.633 0 1.067.434q.433.433.433 1.066v6.73h1.808q.439 0 .7.24q.262.238.262.603t-.262.608q-.261.242-.7.242h-3.154q-.212 0-.356-.144t-.144-.356V14.5Zm-2.577 2H6.058q-.69 0-1.153-.463q-.463-.462-.463-1.152V4q0-.213.144-.356t.357-.144q.213 0 .356.144q.143.143.143.356v10.885q0 .23.193.423q.192.192.423.192h7.307q.213 0 .357.144q.143.144.143.357t-.143.356q-.144.143-.357.143Z"/></svg>