<svg xmlns="http://www.w3.org/2000/svg" width="200" height="200" viewBox="0 0 24 24"><path fill="currentColor" d="M2 16V8h1v7h8.5V8H19q1.238 0 2.119.881T22 11v5H2Zm10.5-1H21v-4q0-.825-.588-1.413T19 9h-6.5v6Zm0-6v6v-6Zm-5.498 4.115q.883 0 1.498-.617q.615-.618.615-1.5q0-.883-.617-1.498q-.618-.615-1.5-.615q-.883 0-1.498.617q-.615.618-.615 1.5q0 .883.617 1.498q.618.615 1.5.615Zm-.002-1q-.463 0-.79-.326q-.325-.326-.325-.789t.326-.79q.326-.325.789-.325t.79.326q.325.326.325.789t-.326.79q-.326.325-.789.325ZM7 11Z"/></svg>