<svg xmlns="http://www.w3.org/2000/svg" width="200" height="200" viewBox="0 0 24 24"><path fill="currentColor" d="M12.27 16.5H4.384q-.672 0-1.144-.472q-.472-.472-.472-1.143V4q0-.213.143-.357q.144-.143.357-.143q.214 0 .357.143q.143.144.143.357v10.885q0 .23.193.423q.192.192.423.192h7.884q.214 0 .357.143q.143.144.143.357t-.143.357q-.143.143-.357.143Zm3.115-2H8.154q-1.039 0-1.77-.73q-.73-.732-.73-1.77V3.5h5v7h3.923q.44 0 .78.245q.341.245.558.636l3.131 6.411l1.639-.73q.344-.14.691-.078q.347.062.512.381q.185.345.04.695t-.509.51l-2.586 1.184q-.298.136-.606.025q-.308-.112-.444-.404L15.385 14.5Z"/></svg>