<svg xmlns="http://www.w3.org/2000/svg" width="200" height="200" viewBox="0 0 24 24"><path fill="currentColor" d="M3 16.385V5.615q0-.69.463-1.152Q3.925 4 4.615 4h14.77q.69 0 1.152.463q.463.462.463 1.152v10.77q0 .67-.472 1.143q-.472.472-1.143.472H17v-1h2.385q.23 0 .423-.192q.192-.193.192-.423V5.615q0-.23-.192-.423Q19.615 5 19.385 5H4.615q-.23 0-.423.192Q4 5.385 4 5.615v10.77q0 .23.192.423q.193.192.423.192H7v1H4.615q-.67 0-1.143-.472Q3 17.056 3 16.385Zm5.448 2.59l2.987-2.987q.242-.242.565-.242q.323 0 .565.242l2.987 2.987q.292.292.134.659q-.16.366-.563.366H8.877q-.404 0-.563-.366q-.158-.367.134-.659ZM12 11.5Z"/></svg>