<svg xmlns="http://www.w3.org/2000/svg" width="200" height="200" viewBox="0 0 24 24"><path fill="currentColor" d="M18.97 16.404L8.35 5.75q.738-.327 1.574-.538Q10.76 5 11.75 5q1.658 0 3.113.623q1.454.623 2.545 1.716q1.09 1.094 1.716 2.551q.626 1.458.626 3.133q0 .875-.188 1.73q-.189.855-.593 1.65ZM17.487 4.488q-.14-.14-.15-.344q-.01-.204.15-.363q.16-.16.354-.16q.195 0 .354.16l2.773 2.773q.14.14.15.344q.01.204-.15.364t-.354.16q-.194 0-.353-.16l-2.774-2.774ZM11.75 21q-1.658 0-3.113-.623q-1.454-.623-2.545-1.708q-1.09-1.084-1.716-2.536q-.626-1.452-.626-3.11q0-1.55.568-2.96q.569-1.411 1.578-2.478L4.412 6.1L3.238 7.273q-.14.14-.344.15q-.204.01-.363-.15q-.16-.16-.16-.354t.16-.354l1.173-1.173L2.38 4.07q-.14-.14-.15-.344q-.01-.204.15-.363q.16-.16.354-.16q.194 0 .353.16l17.631 17.63q.14.14.15.345q.01.203-.15.363q-.16.16-.354.16q-.194 0-.353-.16l-2.835-2.835q-1.029.96-2.42 1.548T11.75 21Z"/></svg>