<svg xmlns="http://www.w3.org/2000/svg" width="200" height="200" viewBox="0 0 24 24"><path fill="currentColor" d="M8.25 13.73q.31 0 .52-.21t.21-.52q0-.31-.21-.52t-.52-.21q-.31 0-.52.21t-.21.52q0 .31.21.52t.52.21Zm3.75 0q.31 0 .52-.21t.21-.52q0-.31-.21-.52t-.52-.21q-.31 0-.52.21t-.21.52q0 .31.21.52t.52.21Zm3.75 0q.31 0 .52-.21t.21-.52q0-.31-.21-.52t-.52-.21q-.31 0-.52.21t-.21.52q0 .31.21.52t.52.21ZM12 21q-1.664 0-3.12-.626q-1.454-.626-2.542-1.713q-1.087-1.088-1.713-2.542Q4 14.666 4 13.001q0-1.664.626-3.12q.626-1.454 1.713-2.542q1.088-1.087 2.542-1.713Q10.334 5 11.999 5q1.664 0 3.12.626q1.454.626 2.542 1.713q1.087 1.088 1.713 2.542q.626 1.453.626 3.118q0 1.664-.626 3.12q-.626 1.454-1.713 2.542q-1.088 1.087-2.542 1.713q-1.453.626-3.118.626Zm0-8ZM5.908 3.427l.707.708l-3.48 3.48l-.708-.707l3.48-3.481Zm12.184 0l3.481 3.48l-.708.708l-3.48-3.48l.707-.708ZM12 20q2.906 0 4.953-2.047T19 13q0-2.906-2.047-4.953T12 6Q9.094 6 7.047 8.047T5 13q0 2.906 2.047 4.953T12 20Z"/></svg>