<svg xmlns="http://www.w3.org/2000/svg" width="200" height="200" viewBox="0 0 24 24"><path fill="currentColor" d="m18.97 16.404l-.732-.73q.256-.676.384-1.342q.128-.667.128-1.309q0-2.92-2.04-4.971Q14.67 6 11.75 6q-.7 0-1.35.122q-.65.122-1.28.397l-.77-.769q.738-.327 1.574-.538Q10.76 5 11.75 5q1.658 0 3.113.623q1.454.623 2.545 1.716q1.09 1.094 1.716 2.551q.626 1.458.626 3.133q0 .875-.188 1.73q-.189.855-.593 1.65ZM17.487 4.488q-.14-.14-.15-.344q-.01-.204.15-.363q.16-.16.354-.16q.195 0 .354.16l2.773 2.773q.14.14.15.344q.01.204-.15.364t-.354.16q-.194 0-.353-.16l-2.774-2.774ZM11.75 21q-1.658 0-3.113-.623q-1.454-.623-2.545-1.708q-1.09-1.084-1.716-2.536q-.626-1.452-.626-3.11q0-1.55.568-2.96q.569-1.411 1.578-2.478L4.412 6.1L3.238 7.273q-.14.14-.344.15q-.204.01-.363-.15q-.16-.16-.16-.354t.16-.354l1.173-1.173L2.38 4.07q-.14-.14-.15-.344q-.01-.204.15-.363q.16-.16.354-.16q.194 0 .353.16l17.631 17.63q.14.14.15.345q.01.203-.15.363q-.16.16-.354.16q-.194 0-.353-.16l-2.835-2.835q-1.029.96-2.42 1.548T11.75 21Zm0-.994q1.338 0 2.54-.48t2.168-1.38L6.604 8.304q-.902.971-1.378 2.185q-.476 1.215-.476 2.534q0 2.92 2.04 4.951q2.04 2.032 4.96 2.032Zm-.22-6.781Zm2.158-2.138Z"/></svg>