<svg xmlns="http://www.w3.org/2000/svg" width="200" height="200" viewBox="0 0 24 24"><path fill="currentColor" d="M12 21q-1.663 0-3.118-.626q-1.455-.626-2.543-1.713q-1.087-1.088-1.713-2.543Q4 14.663 4 13q0-1.663.626-3.118q.626-1.455 1.713-2.543q1.088-1.087 2.543-1.713Q10.337 5 12 5q1.663 0 3.118.626q1.455.626 2.543 1.713q1.087 1.088 1.713 2.543Q20 11.337 20 13q0 1.663-.626 3.118q-.626 1.455-1.713 2.543q-1.088 1.087-2.543 1.713Q13.663 21 12 21Zm3.146-4.146l.708-.708l-3.354-3.354V8h-1v5.208l3.646 3.646ZM5.908 3.427l.707.708l-3.48 3.48l-.708-.707l3.48-3.481Zm12.184 0l3.481 3.48l-.708.708l-3.48-3.48l.707-.708Z"/></svg>