<svg xmlns="http://www.w3.org/2000/svg" width="200" height="200" viewBox="0 0 24 24"><path fill="currentColor" d="M3.5 4q-.213 0-.356-.144T3 3.5q0-.212.144-.356Q3.287 3 3.5 3h17q.213 0 .356.144q.144.144.144.357q0 .212-.144.356Q20.713 4 20.5 4h-17Zm4.808 5.5q-.344 0-.576-.232q-.232-.232-.232-.576v-.384q0-.344.232-.576q.232-.232.576-.232h7.384q.344 0 .576.232q.232.232.232.576v.384q0 .344-.232.576q-.232.232-.576.232H8.308Zm0 6q-.344 0-.576-.232q-.232-.232-.232-.576v-.384q0-.344.232-.576q.232-.232.576-.232h7.384q.344 0 .576.232q.232.232.232.576v.384q0 .344-.232.576q-.232.232-.576.232H8.308Z"/></svg>