<svg xmlns="http://www.w3.org/2000/svg" width="200" height="200" viewBox="0 0 24 24"><path fill="currentColor" d="M11.5 4.846v-3h1v3h-1ZM7.921 6.06L5.633 3.77l.713-.713l2.289 2.288l-.714.714ZM6.577 17.423H10v-1.461H6.577v1.461Zm7.423 0h3.423v-1.461H14v1.461ZM16.602 11l3.148-3.142l-.627-.627l-2.521 2.51l-1.11-1.11l-.627.632L16.602 11Zm.706 1.98q-1.671 0-2.836-1.164t-1.164-2.835q0-1.671 1.164-2.836q1.165-1.164 2.836-1.164t2.835 1.164q1.165 1.165 1.165 2.836t-1.165 2.835q-1.164 1.165-2.835 1.165ZM4 22v-7.846L6.162 8h3.761V6.462h1.564q-.274.58-.419 1.208q-.145.628-.145 1.31V9H6.888l-1.61 4.385h7.44q.903.944 2.086 1.462t2.504.518q.704 0 1.383-.152q.68-.153 1.309-.446V22h-1.23v-2H5.23v2H4Z"/></svg>