<svg xmlns="http://www.w3.org/2000/svg" width="200" height="200" viewBox="0 0 24 24"><path fill="currentColor" d="M11.5 4.846v-3h1v3h-1ZM7.921 6.06L5.633 3.77l.713-.713l2.289 2.288l-.714.714ZM6.577 17.423h2.692q.31 0 .52-.21q.211-.21.211-.52q0-.31-.21-.52t-.52-.211H6.576v1.461Zm8.154 0h2.692v-1.461h-2.692q-.31 0-.52.21q-.211.21-.211.52q0 .31.21.52t.52.211ZM16.6 11l3.149-3.142l-.627-.627l-2.521 2.51l-1.11-1.11l-.627.632L16.602 11Zm.707 1.98q-1.671 0-2.836-1.164t-1.164-2.835q0-1.671 1.164-2.836q1.165-1.164 2.836-1.164t2.835 1.164q1.165 1.165 1.165 2.836t-1.165 2.835q-1.164 1.165-2.835 1.165ZM4.5 22q-.213 0-.356-.144T4 21.5v-7.346L5.985 8.5q.073-.238.281-.37q.209-.13.465-.13h3.192V6.462h1.564q-.274.58-.419 1.203q-.145.623-.145 1.316V9H6.888l-1.61 4.385h7.44q.903.944 2.086 1.462t2.504.518q.704 0 1.383-.152q.68-.153 1.309-.446V21.5q0 .213-.144.356T19.5 22h-.23q-.213 0-.357-.144t-.144-.356V20H5.231v1.5q0 .213-.144.356T4.731 22H4.5Z"/></svg>