<svg xmlns="http://www.w3.org/2000/svg" width="200" height="200" viewBox="0 0 24 24"><path fill="currentColor" d="M11.5 4.346v-2q0-.212.144-.356T12 1.846t.356.144q.143.144.143.356v2q0 .213-.144.356q-.144.144-.357.144t-.356-.144q-.143-.143-.143-.356ZM7.587 5.7L5.992 4.125q-.146-.151-.146-.36q0-.207.146-.353t.35-.147q.205 0 .358.147l1.58 1.58q.147.146.157.354q.01.208-.147.354t-.356.146q-.201 0-.347-.146Zm1.682 11.723q.31 0 .52-.21q.211-.21.211-.52q0-.31-.21-.52t-.52-.211H6.98q-.16 0-.282.12t-.121.283v.654q0 .162.121.283t.283.121h2.288Zm5.462 0h2.288q.162 0 .283-.121t.121-.283v-.654q0-.161-.121-.282t-.283-.121h-2.288q-.31 0-.52.21q-.211.21-.211.52q0 .31.21.52t.52.211ZM16.6 9.74l-.795-.796q-.13-.129-.304-.135q-.175-.007-.323.141t-.148.313q0 .166.148.314l.858.858q.242.242.565.242q.323 0 .565-.242l2.27-2.264q.128-.129.138-.304q.01-.175-.138-.323t-.314-.145q-.165.003-.313.145L16.602 9.74Zm.707-4.76q1.67 0 2.835 1.165t1.165 2.836t-1.165 2.835q-1.164 1.165-2.835 1.165t-2.836-1.165q-1.164-1.164-1.164-2.835t1.164-2.836q1.165-1.164 2.836-1.164ZM4.5 22q-.213 0-.356-.144T4 21.5v-7.073q0-.137.015-.273q.016-.137.066-.267L5.985 8.5q.073-.238.281-.37q.209-.13.465-.13h3.192v-.73q0-.344.232-.576q.233-.232.576-.232h.756q-.274.58-.419 1.203q-.145.623-.145 1.316V9H6.888l-1.61 4.385h7.44q.903.944 2.086 1.462t2.504.518q.704 0 1.383-.152q.68-.153 1.309-.446V21.5q0 .213-.144.356T19.5 22h-.23q-.213 0-.357-.144t-.144-.356V20H5.231v1.5q0 .213-.144.356T4.731 22H4.5Z"/></svg>