<svg xmlns="http://www.w3.org/2000/svg" width="200" height="200" viewBox="0 0 24 24"><path fill="currentColor" d="m13.762 11.898l2.546-1.727q.354-.242.354-.671t-.354-.671l-2.546-1.727q-.404-.292-.833-.05t-.429.727v3.442q0 .485.429.727t.833-.05m-7.581 8.92q-.671.08-1.2-.324q-.527-.404-.608-1.075L3.15 9.7q-.08-.671.336-1.203t1.087-.618l.127-.02q.213-.036.378.12t.164.394q0 .183-.128.323t-.31.177H4.72q-.27.039-.423.23t-.115.462l1.196 9.72q.038.269.23.423t.462.115l11.773-1.47q.214-.03.375.095t.193.339q.03.213-.095.362t-.338.18zm2.67-4.356q-.69 0-1.152-.463t-.462-1.153V4.308q0-.69.462-1.153q.463-.463 1.153-.463H19.39q.69 0 1.153.463t.463 1.153v10.538q0 .69-.463 1.153t-1.153.463zm0-1h10.54q.269 0 .442-.174t.173-.442V4.308q0-.27-.173-.443t-.443-.173H8.852q-.27 0-.442.173t-.173.443v10.538q0 .27.173.442t.442.174m5.27-5.885"/></svg>