<svg xmlns="http://www.w3.org/2000/svg" width="200" height="200" viewBox="0 0 24 24"><path fill="currentColor" d="m12.5 12.75l4.788-3.25L12.5 6.25zm4.383 5.712h1.455q.004.35-.244.614t-.61.32L6.182 20.817q-.671.081-1.2-.323q-.527-.404-.608-1.075L3.15 9.7q-.08-.671.336-1.206t1.087-.615l.664-.067v1l-.516.061q-.27.039-.423.23t-.115.462l1.196 9.72q.038.269.23.423t.462.115zm-8.031-2q-.69 0-1.153-.463t-.462-1.153V4.308q0-.69.462-1.153q.463-.463 1.153-.463H19.39q.69 0 1.153.463t.463 1.153v10.538q0 .69-.463 1.153t-1.153.463zm0-1H19.39q.27 0 .443-.174t.173-.442V4.308q0-.27-.173-.443t-.443-.173H8.852q-.27 0-.442.173t-.173.443v10.538q0 .27.173.442t.442.174m5.27-5.885"/></svg>