<svg xmlns="http://www.w3.org/2000/svg" width="200" height="200" viewBox="0 0 24 24"><path fill="currentColor" d="M9.75 11.5q-.192 0-.317-.125t-.125-.316q0-.192.125-.318t.317-.126h4.5q.192 0 .317.125q.125.126.125.317t-.125.317q-.125.126-.317.126h-4.5Zm1 2.385q-.192 0-.317-.125q-.125-.126-.125-.317t.125-.317q.125-.126.317-.126h2.5q.192 0 .317.125t.125.316q0 .192-.125.318t-.317.126h-2.5Zm-.23 6.307q-.34 0-.619-.204q-.28-.205-.384-.548l-.675-2.375q-1.257-.738-2.05-2.086T6 12q0-1.63.792-2.979t2.05-2.086l.675-2.375q.104-.343.384-.548q.28-.204.618-.204h2.962q.338 0 .618.204q.28.205.384.548l.675 2.375q1.257.738 2.05 2.086T18 12q0 1.63-.792 2.979t-2.05 2.086l-.675 2.375q-.104.343-.384.548q-.28.204-.618.204h-2.962ZM12 17q2.075 0 3.538-1.463T17 12q0-2.075-1.463-3.538T12 7Q9.925 7 8.462 8.463T7 12q0 2.075 1.463 3.538T12 17ZM10.062 6.327q.519-.164.988-.248q.468-.085.95-.085t.95.085q.47.084.988.248l-.438-1.52h-3l-.438 1.52Zm.438 12.865h3l.438-1.519q-.519.164-.988.236q-.468.072-.95.072t-.95-.072q-.47-.072-.988-.236l.438 1.52Zm-.438-14.384h3.876h-3.876Zm.438 14.384h-.438h3.876H10.5Z"/></svg>