<svg xmlns="http://www.w3.org/2000/svg" width="200" height="200" viewBox="0 0 24 24"><path fill="currentColor" d="m12 14l-2-2l2-2l2 2l-2 2ZM9.875 8.471L8.183 6.78l2.68-2.68q.243-.243.54-.355q.299-.111.597-.111t.596.111q.298.112.54.354l2.681 2.68l-1.692 1.693L12 6.346L9.875 8.471Zm-3.096 7.346l-2.68-2.68q-.243-.243-.355-.54q-.111-.299-.111-.597t.111-.596q.112-.298.354-.54l2.68-2.681l1.693 1.692L6.346 12l2.125 2.125l-1.692 1.692Zm10.442 0l-1.692-1.692L17.654 12l-2.125-2.125l1.692-1.692l2.68 2.68q.243.243.355.54q.111.299.111.597t-.111.596q-.112.298-.354.54l-2.68 2.681Zm-6.358 4.085l-2.68-2.68l1.692-1.693L12 17.654l2.125-2.125l1.692 1.692l-2.68 2.68q-.243.243-.54.355q-.299.111-.597.111t-.596-.111q-.298-.112-.54-.354Z"/></svg>