<svg xmlns="http://www.w3.org/2000/svg" width="200" height="200" viewBox="0 0 24 24"><path fill="currentColor" d="M17.5 15.692q-1.535 0-2.613-1.079q-1.08-1.078-1.08-2.613t1.08-2.613t2.613-1.08t2.613 1.08q1.08 1.078 1.08 2.613t-1.08 2.613t-2.613 1.08m0-.885q.454 0 .858-.133t.792-.398l-3.927-3.927q-.265.387-.398.792t-.133.858q0 1.165.821 1.987q.822.82 1.987.82m2.277-1.157q.304-.41.417-.803t.114-.847q0-1.165-.821-1.987q-.822-.82-1.987-.82q-.454 0-.858.132t-.792.398zM7.615 22q-.666 0-1.14-.475Q6 21.052 6 20.386V3.615q0-.666.475-1.14Q6.949 2 7.615 2h8.77q.666 0 1.14.475q.475.474.475 1.14v2.808q0 .213-.144.356q-.144.144-.357.144q-.212 0-.356-.144T17 6.423V5.5H7v13h10v-.923q0-.213.144-.356t.357-.144t.356.144t.143.356v2.808q0 .666-.475 1.14q-.474.475-1.14.475z"/></svg>