<svg xmlns="http://www.w3.org/2000/svg" width="200" height="200" viewBox="0 0 24 24"><path fill="currentColor" d="M17.5 15.692q-1.535 0-2.613-1.079q-1.08-1.078-1.08-2.613t1.08-2.613t2.613-1.08t2.613 1.08q1.08 1.078 1.08 2.613t-1.08 2.613t-2.613 1.08m0-.885q.454 0 .857-.133t.793-.398l-3.927-3.927q-.265.39-.398.793t-.133.857q0 1.165.821 1.987q.822.82 1.987.82m2.277-1.157q.304-.41.417-.803t.114-.847q0-1.165-.821-1.987q-.822-.82-1.987-.82q-.454 0-.857.132t-.793.398zM7.615 22q-.67 0-1.143-.472Q6 21.056 6 20.385V3.615q0-.67.472-1.143Q6.944 2 7.615 2h8.77q.67 0 1.143.472q.472.472.472 1.143v2.808q0 .214-.143.357t-.357.143t-.357-.143T17 6.423V5.5H7v13h10v-.923q0-.214.143-.357t.357-.143t.357.143t.143.357v2.808q0 .67-.472 1.143q-.472.472-1.143.472zM7 19.5v.885q0 .23.192.423t.423.192h8.77q.23 0 .423-.192t.192-.423V19.5zm0-15h10v-.885q0-.23-.192-.423T16.385 3h-8.77q-.23 0-.423.192T7 3.615zm0 0V3zm0 15V21z"/></svg>