<svg xmlns="http://www.w3.org/2000/svg" width="200" height="200" viewBox="0 0 24 24"><path fill="currentColor" d="M6 19.23q-.508 0-.87-.36q-.36-.362-.36-.87t.36-.87q.362-.36.87-.36t.87.36q.36.362.36.87t-.36.87q-.362.36-.87.36Zm0-6q-.508 0-.87-.36q-.36-.362-.36-.87t.36-.87q.362-.36.87-.36t.87.36q.36.362.36.87t-.36.87q-.362.36-.87.36Zm0-6q-.508 0-.87-.36q-.36-.362-.36-.87t.36-.87q.362-.36.87-.36t.87.36q.36.362.36.87t-.36.87q-.362.36-.87.36Zm6 0q-.508 0-.87-.36q-.36-.362-.36-.87t.36-.87q.362-.36.87-.36t.87.36q.36.362.36.87t-.36.87q-.362.36-.87.36Zm6 0q-.508 0-.87-.36q-.36-.362-.36-.87t.36-.87q.362-.36.87-.36t.87.36q.36.362.36.87t-.36.87q-.362.36-.87.36Zm-6 6q-.508 0-.87-.36q-.36-.362-.36-.87t.36-.87q.362-.36.87-.36t.87.36q.36.362.36.87t-.36.87q-.362.36-.87.36Zm1.23 6v-2.209l5.96-5.934l2.19 2.203l-5.94 5.94h-2.21Zm6.885-5.94l-.925-.944l.925.944Zm-6 5.056h.95l3.468-3.473l-.47-.475l-.455-.488l-3.493 3.486v.95Zm3.948-3.948l-.455-.488l.925.963l-.47-.475Z"/></svg>