<svg xmlns="http://www.w3.org/2000/svg" width="200" height="200" viewBox="0 0 24 24"><path fill="currentColor" d="M6 19.23q-.508 0-.87-.36q-.36-.362-.36-.87t.36-.87q.362-.36.87-.36t.87.36q.36.362.36.87t-.36.87q-.362.36-.87.36Zm0-6q-.508 0-.87-.36q-.36-.362-.36-.87t.36-.87q.362-.36.87-.36t.87.36q.36.362.36.87t-.36.87q-.362.36-.87.36Zm0-6q-.508 0-.87-.36q-.36-.362-.36-.87t.36-.87q.362-.36.87-.36t.87.36q.36.362.36.87t-.36.87q-.362.36-.87.36Zm6 0q-.508 0-.87-.36q-.36-.362-.36-.87t.36-.87q.362-.36.87-.36t.87.36q.36.362.36.87t-.36.87q-.362.36-.87.36Zm6 0q-.508 0-.87-.36q-.36-.362-.36-.87t.36-.87q.362-.36.87-.36t.87.36q.36.362.36.87t-.36.87q-.362.36-.87.36Zm-6 6q-.508 0-.87-.36q-.36-.362-.36-.87t.36-.87q.362-.36.87-.36t.87.36q.36.362.36.87t-.36.87q-.362.36-.87.36Zm1.23 6v-2.209l5.333-5.308q.149-.148.306-.2t.315-.051q.172 0 .338.064q.165.064.301.193l.925.944q.123.149.188.308t.064.32q0 .159-.062.322q-.061.162-.19.31l-5.308 5.308h-2.21Zm6.885-5.94l-.925-.944l.925.944Zm-6 5.056h.95l3.468-3.473l-.47-.475l-.455-.488l-3.493 3.486v.95Zm3.948-3.948l-.455-.488l.925.963l-.47-.475Z"/></svg>