<svg xmlns="http://www.w3.org/2000/svg" width="200" height="200" viewBox="0 0 24 24"><path fill="currentColor" d="M6 19.23q-.508 0-.87-.36q-.36-.362-.36-.87t.36-.87q.362-.36.87-.36t.87.36q.36.362.36.87t-.36.87q-.362.36-.87.36Zm0-6q-.508 0-.87-.36q-.36-.362-.36-.87t.36-.87q.362-.36.87-.36t.87.36q.36.362.36.87t-.36.87q-.362.36-.87.36Zm0-6q-.508 0-.87-.36q-.36-.362-.36-.87t.36-.87q.362-.36.87-.36t.87.36q.36.362.36.87t-.36.87q-.362.36-.87.36Zm6 0q-.508 0-.87-.36q-.36-.362-.36-.87t.36-.87q.362-.36.87-.36t.87.36q.36.362.36.87t-.36.87q-.362.36-.87.36Zm6 0q-.508 0-.87-.36q-.36-.362-.36-.87t.36-.87q.362-.36.87-.36t.87.36q.36.362.36.87t-.36.87q-.362.36-.87.36Zm-6 6q-.508 0-.87-.36q-.36-.362-.36-.87t.36-.87q.362-.36.87-.36t.87.36q.36.362.36.87t-.36.87q-.362.36-.87.36Zm1.23 6v-2.209l5.96-5.934l2.19 2.203l-5.94 5.94h-2.21Zm5.96-4.984l.925-.956l-.925-.944l-.95.95l.95.95Z"/></svg>