<svg xmlns="http://www.w3.org/2000/svg" width="200" height="200" viewBox="0 0 24 24"><path fill="currentColor" d="M11.997 20.92q-.159 0-.295-.057t-.267-.186l-5.427-5.421q-.14-.14-.15-.344t.13-.35q.147-.166.357-.156t.357.156l4.798 4.784V12.73q0-.213.144-.356q.144-.144.357-.144t.356.144t.143.356v6.636l4.823-4.803q.136-.14.339-.14t.353.145q.137.134.137.341t-.14.348l-5.447 5.42q-.13.132-.27.187q-.139.056-.298.056M12 10.23q-.212 0-.356-.144T11.5 9.73v-2q0-.213.144-.356q.144-.144.357-.144t.356.144t.143.356v2.02q0 .203-.144.342q-.144.138-.357.138m0-5q-.212 0-.356-.144T11.5 4.73v-1q0-.213.144-.356q.144-.144.357-.144t.356.144t.143.356v1.02q0 .203-.144.342q-.144.138-.357.138"/></svg>