<svg xmlns="http://www.w3.org/2000/svg" width="200" height="200" viewBox="0 0 24 24"><path fill="currentColor" d="M12 8q-1.238 0-2.119.881T9 11q0 1.238.881 2.119T12 14q1.238 0 2.119-.881T15 11q0-1.238-.881-2.119T12 8Zm0 5q-.825 0-1.413-.588T10 11q0-.825.588-1.413T12 9q.825 0 1.413.588T14 11q0 .825-.588 1.413T12 13Zm4.001 3.77q.328 0 .548-.222q.22-.222.22-.55t-.221-.547q-.222-.22-.55-.22t-.547.221q-.22.222-.22.55t.221.547q.222.22.55.22ZM5 20.23V7q0-1.671 1.164-2.836T9 3h6q1.671 0 2.836 1.164T19 7v13.23H5Zm1-1h12V18H6v1.23Z"/></svg>