<svg xmlns="http://www.w3.org/2000/svg" width="200" height="200" viewBox="0 0 24 24"><path fill="currentColor" d="M5.615 20q-.666 0-1.14-.475Q4 19.051 4 18.385V5.615q0-.666.475-1.14Q4.949 4 5.615 4h4.7q-.136-.765.367-1.383Q11.185 2 12.01 2t1.328.617q.502.618.347 1.383h4.7q.666 0 1.14.475q.475.474.475 1.14v5.95q-.263-.09-.504-.147q-.24-.056-.496-.112v-5.69q0-.231-.192-.424Q18.615 5 18.385 5H5.615q-.23 0-.423.192Q5 5.385 5 5.615v12.77q0 .23.192.423q.193.192.423.192h5.666q.036.28.093.521q.057.24.147.479H5.615ZM5 18.007V19V5v6.306v-.075v6.776Zm3-1.738h3.46q.055-.256.15-.496l.2-.504H8q-.213 0-.356.144t-.144.357q0 .213.144.356q.143.143.356.143ZM8 12.5h6.08q.493-.346.97-.587q.479-.24 1.027-.376V11.5H8q-.213 0-.356.144q-.144.144-.144.357t.144.356q.144.143.356.143Zm0-3.77h8q.213 0 .356-.143t.144-.357q0-.213-.144-.356T16 7.731H8q-.213 0-.356.144q-.144.144-.144.356q0 .213.144.357q.143.143.356.143Zm4-4.288q.325 0 .537-.212t.213-.538q0-.325-.213-.537T12 2.942q-.325 0-.537.213t-.213.537q0 .325.213.538t.537.212Zm6 17.673q-1.671 0-2.836-1.164T14 18.115q0-1.67 1.164-2.835T18 14.115q1.671 0 2.836 1.165T22 18.115q0 1.672-1.164 2.836Q19.67 22.115 18 22.115Zm-.385-3.615v2.115q0 .154.116.27q.115.115.269.115t.27-.115q.115-.116.115-.27V18.5H20.5q.154 0 .27-.115q.115-.116.115-.27q0-.153-.116-.269q-.115-.115-.269-.115h-2.115v-2.116q0-.153-.116-.269q-.115-.115-.269-.115t-.27.115q-.115.116-.115.27v2.115H15.5q-.154 0-.27.115q-.115.116-.115.27q0 .153.116.269q.115.115.269.115h2.115Z"/></svg>