<svg xmlns="http://www.w3.org/2000/svg" width="200" height="200" viewBox="0 0 24 24"><path fill="currentColor" d="M12 4.442q.325 0 .537-.212t.213-.538q0-.325-.213-.537T12 2.942q-.325 0-.537.213t-.213.537q0 .325.213.538t.537.212Zm6 17.673q-1.671 0-2.836-1.164T14 18.115q0-1.67 1.164-2.835T18 14.115q1.671 0 2.836 1.165T22 18.115q0 1.672-1.164 2.836Q19.67 22.115 18 22.115ZM11.521 20H5.615q-.666 0-1.14-.475Q4 19.051 4 18.385V5.615q0-.666.475-1.14Q4.949 4 5.615 4h4.7q-.136-.765.367-1.383Q11.185 2 12.01 2t1.328.617q.502.618.347 1.383h4.7q.666 0 1.14.475q.475.474.475 1.14v5.95q-.494-.157-.991-.246q-.497-.088-1.009-.088q-.506 0-.984.08t-.94.226V11.5H8q-.213 0-.356.144q-.144.144-.144.357t.144.356q.144.143.356.143h6.087q-.758.521-1.332 1.223q-.574.702-.945 1.546H8q-.213 0-.356.144t-.144.357q0 .213.144.356q.143.143.356.143h3.46q-.108.423-.169.853q-.06.43-.06.878q0 .46.054 1.009q.053.549.236.991Zm6.094-1.5v2.115q0 .154.116.27q.115.115.269.115t.27-.115q.115-.116.115-.27V18.5H20.5q.154 0 .27-.115q.115-.116.115-.27q0-.153-.116-.269q-.115-.115-.269-.115h-2.115v-2.116q0-.153-.116-.269q-.115-.115-.269-.115t-.27.115q-.115.116-.115.27v2.115H15.5q-.154 0-.27.115q-.115.116-.115.27q0 .153.116.269q.115.115.269.115h2.115ZM8 8.73h8q.213 0 .356-.143t.144-.357q0-.213-.144-.356T16 7.731H8q-.213 0-.356.144q-.144.144-.144.356q0 .213.144.357q.143.143.356.143Z"/></svg>