<svg xmlns="http://www.w3.org/2000/svg" width="200" height="200" viewBox="0 0 24 24"><path fill="currentColor" d="M10.267 12.23q.31 0 .54-.229q.23-.23.23-.54q0-.31-.23-.539q-.23-.23-.54-.23q-.31 0-.54.23q-.229.23-.229.54q0 .31.23.539q.23.23.54.23Zm-3.46 0q.31 0 .54-.229q.23-.23.23-.54q0-.31-.23-.539q-.23-.23-.54-.23q-.309 0-.539.23q-.23.23-.23.54q0 .31.23.539q.23.23.54.23Zm6.926 0q.31 0 .54-.229q.229-.23.229-.54q0-.31-.23-.539q-.23-.23-.54-.23q-.309 0-.539.23q-.23.23-.23.54q0 .31.23.539q.23.23.54.23Zm3.46 0q.309 0 .539-.229q.23-.23.23-.54q0-.31-.23-.539q-.23-.23-.54-.23q-.31 0-.54.23q-.229.23-.229.54q0 .31.23.539q.23.23.54.23ZM12 19.463q-2.437 0-3.968-.29q-1.532-.29-1.532-.745v-.965H3v-12h18v12h-3.5v.965q0 .456-1.532.745q-1.531.29-3.968.29Z"/></svg>