<svg xmlns="http://www.w3.org/2000/svg" width="200" height="200" viewBox="0 0 24 24"><path fill="currentColor" d="M11.5 21.77q-2.088 0-3.563-1.476q-1.475-1.475-1.475-3.563V5.615q0-1.507 1.073-2.58q1.073-1.073 2.58-1.073q1.508 0 2.58 1.073q1.074 1.073 1.074 2.58v8.5h-.884v-8.5q0-1.163-.804-1.966t-1.967-.803q-1.164 0-1.966.803t-.802 1.966v11.116q0 1.727 1.218 2.94q1.218 1.214 2.929 1.214q.751 0 1.418-.248t1.204-.69v1.088q-.575.352-1.237.543q-.663.191-1.378.191Zm5-1.27v-3h-3v-1h3v-3h1v3h3v1h-3v3h-1Zm-5-3.5v.885q-.954 0-1.612-.658q-.657-.659-.657-1.612v-10h.884v10q0 .589.398.987q.399.398.987.398Zm4.154-5.77V5.616h.884v5.616h-.884Z"/></svg>