<svg xmlns="http://www.w3.org/2000/svg" width="200" height="200" viewBox="0 0 24 24"><path fill="currentColor" d="M7.115 17.038q-2.09 0-3.545-1.475T2.115 12q0-2.088 1.475-3.563t3.564-1.475h11.115q1.507 0 2.58 1.073q1.074 1.073 1.074 2.58q0 1.508-1.073 2.58q-1.074 1.074-2.58 1.074h-10q-.954 0-1.612-.658T6 11.999q0-.953.658-1.61q.658-.658 1.611-.658h9.558q.192 0 .317.125t.125.316q0 .191-.125.317t-.317.126H8.269q-.588 0-.986.398q-.398.399-.398.987t.398.987q.398.398.986.398h10q1.163 0 1.966-.804t.803-1.967q0-1.164-.803-1.966t-1.966-.802H7.154q-1.727 0-2.94 1.214Q3 10.273 3 11.99q0 1.718 1.204 2.94t2.911 1.224h10.712q.192 0 .317.125t.125.316q0 .192-.125.318q-.125.125-.317.125H7.115Z"/></svg>