<svg xmlns="http://www.w3.org/2000/svg" width="200" height="200" viewBox="0 0 24 24"><path fill="currentColor" d="M11.5 21.77q-2.088 0-3.563-1.476q-1.475-1.475-1.475-3.563V5.615q0-1.507 1.073-2.58q1.073-1.073 2.58-1.073q1.508 0 2.58 1.073q1.074 1.073 1.074 2.58v8.5h-.884v-8.5q0-1.163-.804-1.966t-1.967-.803q-1.164 0-1.966.803t-.802 1.966v11.116q0 1.727 1.218 2.94q1.218 1.214 2.929 1.214q.751 0 1.418-.248t1.204-.69v1.088q-.575.352-1.237.543q-.663.191-1.378.191Zm5-4.27H14q-.213 0-.356-.144q-.144-.144-.144-.357t.144-.356q.144-.143.356-.143h2.5V14q0-.213.144-.356q.144-.144.357-.144t.356.144q.143.144.143.356v2.5H20q.213 0 .356.144q.144.144.144.357t-.144.356q-.143.143-.356.143h-2.5V20q0 .213-.144.356q-.144.144-.357.144t-.356-.144Q16.5 20.213 16.5 20v-2.5Zm-5-.5v.885q-.954 0-1.612-.658q-.657-.659-.657-1.612V6.058q0-.192.125-.317q.125-.126.316-.126t.317.126q.126.125.126.317v9.557q0 .589.398.987q.399.398.987.398Zm4.154-5.77V6.059q0-.192.125-.317q.125-.126.316-.126q.192 0 .318.126q.125.125.125.317v5.173h-.884Z"/></svg>