<svg xmlns="http://www.w3.org/2000/svg" width="200" height="200" viewBox="0 0 24 24"><path fill="currentColor" d="M12.622 21q-.697 0-1.16-.463Q11 20.076 11 19.379v-6.756q0-.697.463-1.16q.462-.462 1.159-.462h6.756q.697 0 1.16.463q.462.462.462 1.159v6.756q0 .697-.463 1.16q-.462.462-1.159.462h-6.756ZM7 16.73V8.616q0-.69.463-1.152Q7.925 7 8.614 7h8.116q.212 0 .356.144t.144.357q0 .212-.144.356Q16.942 8 16.73 8H8.615q-.23 0-.423.192Q8 8.385 8 8.615v8.116q0 .212-.144.356t-.357.144q-.212 0-.356-.144Q7 16.943 7 16.731Zm-4-4V4.616q0-.69.463-1.152Q3.925 3 4.615 3h8.116q.212 0 .356.144t.144.357q0 .212-.144.356q-.144.143-.356.143H4.615q-.23 0-.423.192Q4 4.385 4 4.615v8.116q0 .212-.144.356t-.357.144q-.212 0-.356-.144Q3 12.943 3 12.731Z"/></svg>