<svg xmlns="http://www.w3.org/2000/svg" width="200" height="200" viewBox="0 0 24 24"><path fill="currentColor" d="M4.252 20q-1.04 0-1.771-.73q-.731-.728-.731-1.77q0-.898.572-1.587q.572-.688 1.428-.853V8.94q-.856-.165-1.428-.853Q1.75 7.398 1.75 6.5q0-1.042.729-1.77Q3.207 4 4.247 4t1.771.73q.731.728.731 1.77q0 .898-.572 1.587q-.572.688-1.428.853v2.56h6.75V8.94q-.856-.165-1.428-.853Q9.5 7.398 9.5 6.5q0-1.042.729-1.77q.728-.73 1.769-.73q1.04 0 1.771.73q.731.728.731 1.77q0 .898-.572 1.587q-.572.688-1.428.853v2.56h6.77V8.94q-.857-.165-1.429-.853q-.572-.689-.572-1.587q0-1.042.729-1.77q.728-.73 1.769-.73t1.771.73q.731.728.731 1.77q0 .898-.572 1.587q-.572.688-1.428.853v3.56H12.5v2.56q.856.165 1.428.853q.572.689.572 1.587q0 1.042-.729 1.77q-.728.73-1.769.73t-1.771-.73Q9.5 18.543 9.5 17.5q0-.898.572-1.587q.572-.688 1.428-.853V12.5H4.75v2.56q.856.165 1.428.853q.572.689.572 1.587q0 1.042-.729 1.77q-.728.73-1.769.73Zm-.002-1q.617 0 1.059-.441q.441-.442.441-1.059t-.441-1.059Q4.867 16 4.25 16t-1.059.441q-.441.442-.441 1.059t.441 1.059Q3.633 19 4.25 19Zm0-11q.617 0 1.059-.441q.441-.442.441-1.059t-.441-1.059Q4.867 5 4.25 5t-1.059.441Q2.75 5.883 2.75 6.5t.441 1.059Q3.633 8 4.25 8ZM12 19q.617 0 1.059-.441q.441-.442.441-1.059t-.441-1.059Q12.617 16 12 16t-1.059.441q-.441.442-.441 1.059t.441 1.059Q11.383 19 12 19Zm0-11q.617 0 1.059-.441q.441-.442.441-1.059t-.441-1.059Q12.617 5 12 5t-1.059.441Q10.5 5.883 10.5 6.5t.441 1.059Q11.383 8 12 8Zm7.77 0q.617 0 1.058-.441q.441-.442.441-1.059t-.441-1.059Q20.387 5 19.769 5q-.617 0-1.058.441q-.442.442-.442 1.059t.442 1.059Q19.15 8 19.769 8ZM4.25 17.5Zm0-11Zm7.75 11Zm0-11Zm7.77 0Z"/></svg>