<svg xmlns="http://www.w3.org/2000/svg" width="200" height="200" viewBox="0 0 24 24"><path fill="currentColor" d="M3.615 19q-.69 0-1.152-.462T2 17.385V6.615q0-.69.463-1.152T3.615 5h16.77q.69 0 1.152.463T22 6.615v10.77q0 .69-.462 1.152T20.385 19zm0-1h16.77q.269 0 .442-.173t.173-.442V6.615q0-.269-.173-.442T20.385 6H3.615q-.269 0-.442.173T3 6.615v10.77q0 .269.173.442t.442.173M3 18V6zm3.154-5h2.27v1.25q0 .19.125.316t.316.126t.317-.126t.126-.316v-3.865q0-.445-.317-.761t-.76-.316H6.346q-.444 0-.76.316t-.317.76v3.866q0 .19.126.316t.317.126t.316-.126t.126-.316zm0-.885V10.5q0-.115.096-.212t.212-.096h1.653q.116 0 .212.096t.096.212v1.615zm6.596 1.445l-1.138-3.94q-.056-.148-.167-.23t-.264-.083q-.235 0-.36.172t-.065.387l1.286 4.416q.056.186.205.298t.341.111h.324q.192 0 .34-.111t.206-.298l1.286-4.416q.062-.215-.064-.387t-.36-.172q-.155 0-.265.082t-.167.231zm5.096-3.368v4.058q0 .19.126.316t.316.126t.317-.126t.126-.316v-4.5q0-.19-.126-.316t-.317-.126h-1.346q-.19 0-.316.126t-.126.316t.126.316t.316.126z"/></svg>