<svg xmlns="http://www.w3.org/2000/svg" width="200" height="200" viewBox="0 0 24 24"><path fill="currentColor" d="M3.615 19q-.69 0-1.152-.462T2 17.385V6.615q0-.69.463-1.152T3.615 5h16.77q.69 0 1.152.463T22 6.615v10.77q0 .69-.462 1.152T20.385 19zm1.654-4.308h.885V13h2.27v1.692h.884v-4.307q0-.445-.317-.761t-.76-.316H6.346q-.444 0-.76.316t-.317.76zm.885-2.577V10.5q0-.115.096-.212t.212-.096h1.653q.116 0 .212.096t.096.212v1.615zm6 2.577h1.192l1.558-5.384h-.923L12.75 13.56l-1.23-4.252h-.924zm5.692 0h.885V9.308H16.5v.884h1.346z"/></svg>