<svg xmlns="http://www.w3.org/2000/svg" width="200" height="200" viewBox="0 0 24 24"><path fill="currentColor" d="M15.923 14.692h1.73q.445 0 .761-.316t.317-.76V13.5q0-.19-.126-.316t-.317-.126q-.184 0-.313.129q-.129.128-.129.313q0 .135-.086.221q-.087.087-.222.087h-1.5q-.134 0-.22-.087q-.087-.086-.087-.221v-3q0-.135.086-.221q.087-.087.221-.087h1.5q.135 0 .222.087q.086.086.086.221q0 .19.126.316t.316.126t.317-.126t.126-.316v-.115q0-.445-.317-.761t-.76-.316h-1.73q-.445 0-.761.316t-.317.76v3.231q0 .445.317.761t.76.316M3.615 19q-.69 0-1.152-.462T2 17.385V6.615q0-.69.463-1.152T3.615 5h16.77q.69 0 1.152.463T22 6.615v10.77q0 .69-.462 1.152T20.385 19zm2.539-6h2.115v1.25q0 .19.126.316t.317.126t.316-.126t.126-.316v-3.865q0-.445-.316-.761t-.761-.316h-1.73q-.445 0-.761.316t-.317.76v3.866q0 .19.126.316t.317.126t.316-.126t.126-.316zm0-.885V10.5q0-.115.096-.212t.212-.096h1.5q.115 0 .211.096t.096.212v1.615zm5.942 1.445l-1.138-3.94q-.056-.148-.167-.23t-.264-.083q-.235 0-.36.172t-.065.387l1.286 4.416q.056.186.205.298t.342.111h.323q.192 0 .341-.111t.205-.298l1.286-4.416q.062-.215-.064-.387t-.36-.172q-.154 0-.265.082t-.166.231z"/></svg>