<svg xmlns="http://www.w3.org/2000/svg" width="200" height="200" viewBox="0 0 24 24"><path fill="currentColor" d="M4 20h3.25v-3.25H4V20Zm4.25 0h3.25v-3.25H8.25V20Zm4.25 0h3.25v-3.25H12.5V20Zm4.25 0H20v-3.25h-3.25V20ZM4 7.25h3.25V4H4v3.25Zm0 4.25h3.25V8.25H4v3.25Zm0 4.25h3.25V12.5H4v3.25Zm4.25-8.5h3.25V4H8.25v3.25Zm0 4.25h3.25V8.25H8.25v3.25Zm0 4.25h3.25V12.5H8.25v3.25Zm4.25-8.5h3.25V4H12.5v3.25Zm0 4.25h3.25V8.25H12.5v3.25Zm0 4.25h3.25V12.5H12.5v3.25Zm4.25-8.5H20V4h-3.25v3.25Zm0 4.25H20V8.25h-3.25v3.25Zm0 4.25H20V12.5h-3.25v3.25Z"/></svg>