<svg xmlns="http://www.w3.org/2000/svg" width="200" height="200" viewBox="0 0 24 24"><path fill="currentColor" d="M5 19h2.75v-2.75H5V19Zm3.75 0h2.75v-2.75H8.75V19Zm3.75 0h2.75v-2.75H12.5V19Zm3.75 0H19v-2.75h-2.75V19ZM5 7.75h2.75V5H5v2.75Zm0 3.75h2.75V8.75H5v2.75Zm0 3.75h2.75V12.5H5v2.75Zm3.75-7.5h2.75V5H8.75v2.75Zm0 3.75h2.75V8.75H8.75v2.75Zm0 3.75h2.75V12.5H8.75v2.75Zm3.75-7.5h2.75V5H12.5v2.75Zm0 3.75h2.75V8.75H12.5v2.75Zm0 3.75h2.75V12.5H12.5v2.75Zm3.75-7.5H19V5h-2.75v2.75Zm0 3.75H19V8.75h-2.75v2.75Zm0 3.75H19V12.5h-2.75v2.75ZM4 20V4h16v16H4Z"/></svg>