<svg xmlns="http://www.w3.org/2000/svg" width="200" height="200" viewBox="0 0 24 24"><path fill="currentColor" d="M12.025 17.5Zm7.844-.088l1.504-1.62l-1.911-3.584l-1.666 4.123l2.073 1.08Zm-5.307-.912h2.084l2.877-7.094l-4.196-1.668l-.765 8.762Zm-7.208 0h2.084l-.765-8.762l-4.138 1.649L7.354 16.5Zm-3.223.912l2.073-1.081l-1.627-4.123l-1.95 3.661l1.504 1.543Zm6.307-.912h3.124l.876-10H9.562l.876 10Zm-6.51 2.137l-2.495-2.554L4.077 11l-.854-2.175l5.365-2.104L8.483 5.5h7.029l-.1 1.202l5.403 2.18l-.853 2.068l2.63 5.012l-2.51 2.682l-2.228-1.144H6.134L3.93 18.637Z"/></svg>