<svg xmlns="http://www.w3.org/2000/svg" width="200" height="200" viewBox="0 0 24 24"><path fill="currentColor" d="M6.002 19.462q-1.002 0-1.591-.778q-.59-.778-.35-1.722l1.897-7.127q-.806-.275-1.382-1.05Q4 8.01 4 7q0-1.238.881-2.119T7 4h9.61l-3 6h-3.558l-.371 1.404h.857v3H8.881l-.943 3.608q-.183.642-.717 1.046q-.535.404-1.22.404Zm-.002-1q.35 0 .6-.2t.35-.525L9.015 10H6.94l-1.915 7.212q-.125.475.175.862t.8.388ZM17.98 4.654l-.393-.87l3.125-1.419l.388.875l-3.12 1.414Zm2.732 6.98l-3.125-1.394l.394-.875l3.119 1.42l-.388.85Zm-2.597-4.153v-.962h3.462v.962h-3.462ZM7.971 10ZM7 9h6l2-4H7q-.825 0-1.413.588T5 7q0 .825.588 1.413T7 9Zm2.885-2Z"/></svg>