<svg xmlns="http://www.w3.org/2000/svg" width="200" height="200" viewBox="0 0 24 24"><path fill="currentColor" d="M9.001 17.77q.328 0 .548-.222q.22-.222.22-.55t-.221-.547q-.222-.22-.55-.22t-.547.221q-.22.222-.22.55t.221.547q.222.22.55.22Zm3 0q.328 0 .548-.222q.22-.222.22-.55t-.221-.547q-.222-.22-.55-.22t-.547.221q-.22.222-.22.55t.221.547q.222.22.55.22Zm3 0q.328 0 .548-.222q.22-.222.22-.55t-.221-.547q-.222-.22-.55-.22t-.547.221q-.22.222-.22.55t.221.547q.222.22.55.22Zm-6-3q.328 0 .548-.222q.22-.222.22-.55t-.221-.547q-.222-.22-.55-.22t-.547.221q-.22.222-.22.55t.221.547q.222.22.55.22Zm3 0q.328 0 .548-.222q.22-.222.22-.55t-.221-.547q-.222-.22-.55-.22t-.547.221q-.22.222-.22.55t.221.547q.222.22.55.22Zm3 0q.328 0 .548-.222q.22-.222.22-.55t-.221-.547q-.222-.22-.55-.22t-.547.221q-.22.222-.22.55t.221.547q.222.22.55.22Zm-7.386-3.385h8.77V11q0-1.806-1.29-3.095q-1.29-1.29-3.095-1.29q-1.806 0-3.095 1.29q-1.29 1.29-1.29 3.095v.385Zm.935-.885q.2-1.275 1.163-2.138T12 7.5q1.325 0 2.288.863T15.45 10.5h-6.9ZM3 21V3h18v18H3Zm1-1h16V4H4v16Zm0 0V4v16Z"/></svg>