<svg xmlns="http://www.w3.org/2000/svg" width="200" height="200" viewBox="0 0 24 24"><path fill="currentColor" d="M17.008 15.573q-.25 0-.469.118q-.218.119-.354.324q-.125.162-.305.218q-.18.055-.362-.025q-.205-.081-.285-.268q-.081-.186.027-.355q.28-.443.742-.706q.463-.264 1.002-.264q.767 0 1.349.507t.582 1.266q0 .218-.056.426q-.056.21-.186.383q-.237.35-.545.604q-.308.255-.513.622q-.039.064-.106.292q-.042.21-.18.357T17 19.22q-.217 0-.373-.152q-.156-.153-.13-.356q.024-.163.052-.316q.028-.153.109-.29q.211-.36.54-.615q.327-.254.56-.594q.063-.084.163-.49q0-.363-.28-.598t-.633-.235ZM17 21.385q-.295 0-.505-.205q-.21-.204-.21-.505q0-.287.21-.491t.503-.205q.294 0 .503.206q.209.206.209.494q0 .288-.205.497q-.204.209-.505.209ZM8.692 21q-.343 0-.575-.232q-.232-.232-.232-.576V5.288q0-.343.232-.575q.232-.232.575-.232h1.616v-.673q0-.344.232-.576q.232-.232.575-.232h1.77q.343 0 .575.232q.232.232.232.576v.673h1.62q.344 0 .574.232q.23.232.23.575v6.904q-2.135.275-3.587 1.897q-1.452 1.623-1.452 3.853q0 .843.227 1.618t.663 1.44H8.692Z"/></svg>