<svg xmlns="http://www.w3.org/2000/svg" width="200" height="200" viewBox="0 0 24 24"><path fill="currentColor" d="M17.008 15.573q-.25 0-.469.118q-.218.119-.354.324q-.131.162-.308.218q-.177.055-.359-.025q-.205-.081-.288-.268q-.084-.186.023-.355q.276-.443.744-.706q.468-.264 1.007-.264q.767 0 1.349.507t.582 1.266q0 .218-.056.426q-.056.21-.186.383q-.237.35-.545.604q-.308.255-.513.622q-.039.064-.106.292q-.042.21-.18.357T17 19.22q-.217 0-.373-.152q-.156-.153-.13-.356q.024-.163.052-.316q.028-.153.109-.29q.211-.36.54-.615q.327-.254.56-.594q.063-.084.163-.49q0-.363-.28-.598t-.633-.235ZM17 21.385q-.295 0-.505-.205q-.21-.204-.21-.505q0-.287.21-.491t.503-.205q.294 0 .503.206q.209.206.209.494q0 .288-.205.497q-.204.209-.505.209ZM8.885 20Zm-.193 1q-.343 0-.575-.232q-.232-.232-.232-.576V5.288q0-.343.232-.575q.232-.232.575-.232h1.616v-.673q0-.344.232-.576q.232-.232.575-.232h1.77q.343 0 .575.232q.232.232.232.576v.673h1.62q.344 0 .574.232q.23.232.23.575v6.904q-.276.039-.516.088q-.24.049-.485.128V5.462h-6.23V20h2.561q.104.287.228.527q.124.24.293.473H8.692Z"/></svg>