<svg xmlns="http://www.w3.org/2000/svg" width="200" height="200" viewBox="0 0 24 24"><path fill="currentColor" d="M8.692 21q-.343 0-.575-.232q-.232-.232-.232-.576V5.288q0-.343.232-.575q.232-.232.575-.232h1.616v-.673q0-.344.232-.576q.232-.232.575-.232h1.77q.343 0 .575.232q.232.232.232.576v.673h1.62q.344 0 .574.232q.23.232.23.575v6.904q-2.135.275-3.587 1.897q-1.452 1.623-1.452 3.853q0 .843.227 1.618t.663 1.44H8.692Zm.193-10.77h6.23V5.463h-6.23v4.769Zm7.692 8.616h-.858q-.223 0-.341-.195q-.118-.195-.001-.407l1.676-3.021q.084-.127.227-.096q.143.03.143.197v1.83h.858q.223 0 .341.195q.118.195.001.407l-1.676 3.021q-.084.127-.227.096q-.143-.03-.143-.197v-1.83Z"/></svg>