<svg xmlns="http://www.w3.org/2000/svg" width="200" height="200" viewBox="0 0 24 24"><path fill="currentColor" d="m19.362 20.077l-6.043-6.004l.708-.708l6.042 6.043l-.707.669ZM5.98 18.838q-1.904-2.373-2.015-5.384q-.11-3.012 1.6-5.483q-.214.966-.028 2.047q.187 1.082.636 2.17q.45 1.089 1.097 2.124t1.346 1.89L5.98 18.838ZM9.3 15.52q-1.046-1.142-1.706-2.43q-.66-1.287-.95-2.477q-.292-1.19-.191-2.153q.1-.963.587-1.45q.487-.492 1.45-.576q.962-.085 2.146.216q1.183.301 2.461.973q1.278.672 2.401 1.7L9.3 15.518Zm6.88-6.88q-.828-.68-1.844-1.322q-1.017-.642-2.083-1.104q-1.066-.461-2.139-.68q-1.072-.218-2.018-.023q2.471-1.616 5.422-1.5q2.951.117 5.313 1.978l-2.65 2.65Z"/></svg>