<svg xmlns="http://www.w3.org/2000/svg" width="200" height="200" viewBox="0 0 24 24"><path fill="currentColor" d="M17.892 20H5.615q-.69 0-1.152-.462Q4 19.075 4 18.385V6.108l-2.17-2.17q-.145-.146-.155-.347q-.01-.2.156-.366q.165-.165.357-.165t.356.165l18.231 18.23q.146.147.156.345q.01.198-.156.363q-.165.166-.357.166t-.356-.166L17.892 20Zm-8.661-8.012L5 16.218v2.167q0 .23.192.423q.193.192.423.192h11.277l-3.413-3.413q-.223.084-.439.03q-.215-.054-.375-.213l-3.434-3.416ZM5 7.108v7.684l3.842-3.842L5 7.108ZM6.17 4h12.215q.69 0 1.152.463q.463.462.463 1.152v12.216l-1-1V9.596l-3.423 3.812l-.714-.714L19 8.096v-2.48q0-.231-.192-.424Q18.615 5 18.385 5H7.169l-1-1Zm8.693 8.694Zm-3.68.596Zm-2.34-2.34Zm.388 1.038Zm3.804-1.123Z"/></svg>