<svg xmlns="http://www.w3.org/2000/svg" width="200" height="200" viewBox="0 0 24 24"><path fill="currentColor" d="M2.19 2.871L21.13 21.81l-.714.713L17.892 20H5.615q-.69 0-1.152-.462Q4 19.075 4 18.385V6.108L1.477 3.585l.713-.714Zm7.04 9.117L5 16.218v2.167q0 .23.192.423q.193.192.423.192h11.277l-3.33-3.33l-.3.33l-4.031-4.012ZM5 7.108v7.684l3.842-3.842L5 7.108ZM6.17 4h12.215q.69 0 1.152.463q.463.462.463 1.152v12.216l-1-1V9.596l-3.423 3.812l-.714-.714L19 8.096v-2.48q0-.231-.192-.424Q18.615 5 18.385 5H7.169l-1-1Zm8.693 8.694Zm-3.68.596Zm-2.34-2.34Zm.388 1.038Zm3.804-1.123Z"/></svg>