<svg xmlns="http://www.w3.org/2000/svg" width="200" height="200" viewBox="0 0 24 24"><path fill="currentColor" d="M17.892 20H5.615q-.69 0-1.152-.462Q4 19.075 4 18.385V6.108l-2.17-2.17q-.145-.146-.155-.347q-.01-.2.156-.366q.165-.165.357-.165t.356.165l18.231 18.23q.146.147.156.345q.01.198-.156.363q-.165.166-.357.166t-.356-.166L17.892 20ZM20 17.83l-4.423-4.422L19 9.596v-1.5l-4.137 4.598L6.17 4h12.216q.69 0 1.152.463q.463.462.463 1.152v12.216ZM5 16.22l4.23-4.232l3.687 3.687q.135.135.316.132q.18-.003.31-.157l-4.7-4.7L5 14.792v1.427Z"/></svg>