<svg xmlns="http://www.w3.org/2000/svg" width="200" height="200" viewBox="0 0 24 24"><path fill="currentColor" d="M4.5 20q-1.042 0-1.77-.73Q2 18.543 2 17.5v-11q0-1.042.73-1.77Q3.457 4 4.5 4h7q1.042 0 1.77.73q.73.728.73 1.77v6.3h1.654q.633 0 1.066.434t.434 1.066v3.046q0 .45.313.764q.314.313.764.313t.763-.313t.314-.764V10.5q-.748 0-1.259-.51q-.51-.511-.51-1.26V7.27q0-.31.23-.54t.539-.23V5.327q0-.192.125-.317t.316-.125t.317.125t.126.317V6.5h1.231V5.327q0-.192.125-.317t.317-.125t.317.125t.126.317V6.5q.31 0 .54.23t.229.54v1.46q0 .749-.51 1.26t-1.26.51v6.823q0 .858-.609 1.467q-.61.61-1.467.61t-1.468-.61t-.61-1.467v-3.008q0-.269-.172-.442t-.443-.173H14v3.415q0 1.19-.847 2.038T11.115 20zm0-1h6.622q.78 0 1.329-.554q.549-.553.549-1.33q0-.778-.554-1.332t-1.33-.553h-5.04q-.295 0-.493.198t-.198.494t.198.494t.494.198h5.038q.213 0 .357.144t.143.357t-.143.356t-.357.143H6.077q-.71 0-1.202-.49q-.49-.491-.49-1.202t.49-1.201t1.202-.491h5.038q.512 0 1.012.13t.873.489V6.5q0-.617-.441-1.059T11.5 5h-7q-.617 0-1.059.441T3 6.5v11q0 .617.441 1.059T4.5 19m0 0h6.615H3z"/></svg>