<svg xmlns="http://www.w3.org/2000/svg" width="200" height="200" viewBox="0 0 24 24"><path fill="currentColor" d="M5.692 17.192q.496 0 .845-.348q.348-.348.348-.844t-.348-.844q-.349-.348-.845-.348t-.844.348Q4.5 15.504 4.5 16t.348.844q.348.348.844.348Zm4-4.346q.36 0 .603-.243t.243-.603q0-.36-.243-.603t-.603-.243t-.603.243q-.243.243-.243.603t.243.603q.244.243.603.243Zm0-4q.36 0 .603-.243T10.538 8q0-.36-.243-.603t-.603-.243t-.603.243q-.243.243-.243.603t.243.603q.244.243.603.243ZM4 20v-1h16v1H4ZM5.692 9.192q.496 0 .845-.348q.348-.348.348-.844t-.348-.844q-.349-.348-.845-.348t-.844.348Q4.5 7.504 4.5 8t.348.844q.348.348.844.348Zm0 4q.496 0 .845-.348q.348-.348.348-.844t-.348-.844q-.349-.348-.845-.348t-.844.348Q4.5 11.504 4.5 12t.348.844q.348.348.844.348Zm4 3.654q.36 0 .603-.243t.243-.603q0-.36-.243-.603t-.603-.243t-.603.243q-.243.243-.243.603t.243.603q.244.243.603.243Zm8-.346q.225 0 .363-.138t.137-.362q0-.225-.137-.363t-.363-.137q-.225 0-.362.138t-.138.362q0 .225.138.363t.362.137ZM4 5V4h16v1H4Zm13.692 3.5q.225 0 .363-.138T18.192 8q0-.225-.137-.363t-.363-.137q-.225 0-.362.138T17.192 8q0 .225.138.363t.362.137Zm0 4q.225 0 .363-.138t.137-.362q0-.225-.137-.363t-.363-.137q-.225 0-.362.138t-.138.362q0 .225.138.363t.362.137Zm-4-3.654q.36 0 .603-.243T14.538 8q0-.36-.243-.603t-.603-.243t-.603.243q-.243.243-.243.603t.243.603q.244.243.603.243Zm0 4q.36 0 .603-.243t.243-.603q0-.36-.243-.603t-.603-.243t-.603.243q-.243.243-.243.603t.243.603q.244.243.603.243Zm0 4q.36 0 .603-.243t.243-.603q0-.36-.243-.603t-.603-.243t-.603.243q-.243.243-.243.603t.243.603q.244.243.603.243ZM4 19V5v14Z"/></svg>