<svg xmlns="http://www.w3.org/2000/svg" width="200" height="200" viewBox="0 0 24 24"><path fill="currentColor" d="M5.692 17.192q.496 0 .845-.348q.348-.348.348-.844t-.348-.844q-.349-.348-.845-.348t-.844.348Q4.5 15.504 4.5 16t.348.844q.348.348.844.348Zm4-4.346q.36 0 .603-.243t.243-.603q0-.36-.243-.603t-.603-.243t-.603.243q-.243.243-.243.603t.243.603q.244.243.603.243Zm0-4q.36 0 .603-.243T10.538 8q0-.36-.243-.603t-.603-.243t-.603.243q-.243.243-.243.603t.243.603q.244.243.603.243Zm-4 .346q.496 0 .845-.348q.348-.348.348-.844t-.348-.844q-.349-.348-.845-.348t-.844.348Q4.5 7.504 4.5 8t.348.844q.348.348.844.348Zm0 4q.496 0 .845-.348q.348-.348.348-.844t-.348-.844q-.349-.348-.845-.348t-.844.348Q4.5 11.504 4.5 12t.348.844q.348.348.844.348Zm4 3.654q.36 0 .603-.243t.243-.603q0-.36-.243-.603t-.603-.243t-.603.243q-.243.243-.243.603t.243.603q.244.243.603.243Zm8-.346q.225 0 .363-.138t.137-.362q0-.225-.137-.363t-.363-.137q-.225 0-.362.137t-.138.363q0 .225.138.362t.362.138Zm0-8q.225 0 .363-.138T18.192 8q0-.225-.137-.363t-.363-.137q-.225 0-.362.137T17.192 8q0 .225.138.362t.362.138Zm0 4q.225 0 .363-.138t.137-.362q0-.225-.137-.363t-.363-.137q-.225 0-.362.137t-.138.363q0 .225.138.362t.362.138Zm-4-3.654q.36 0 .603-.243T14.538 8q0-.36-.243-.603t-.603-.243t-.603.243q-.243.243-.243.603t.243.603q.244.243.603.243Zm0 4q.36 0 .603-.243t.243-.603q0-.36-.243-.603t-.603-.243t-.603.243q-.243.243-.243.603t.243.603q.244.243.603.243Zm0 4q.36 0 .603-.243t.243-.603q0-.36-.243-.603t-.603-.243t-.603.243q-.243.243-.243.603t.243.603q.244.243.603.243ZM20 4.5v15q0 .213-.144.356T19.5 20h-15q-.213 0-.356-.144T4 19.5v-15q0-.213.144-.356T4.5 4h15q.213 0 .356.144T20 4.5Z"/></svg>