<svg xmlns="http://www.w3.org/2000/svg" width="200" height="200" viewBox="0 0 24 24"><path fill="currentColor" d="m10.5 18.923l-3.738 1.608q-.808.348-1.535-.134q-.727-.482-.727-1.345V7.615q0-.69.463-1.152Q5.425 6 6.115 6h8.77q.69 0 1.153.463q.462.462.462 1.152v11.437q0 .863-.727 1.345t-1.535.134L10.5 18.923Zm0-1.123l4.135 1.785q.307.134.586-.058q.279-.192.279-.52V7.616q0-.23-.192-.423Q15.115 7 14.885 7h-8.77q-.23 0-.423.192q-.192.193-.192.423v11.393q0 .327.279.519t.586.058L10.5 17.8Zm8 .7V4.615q0-.23-.192-.423Q18.115 4 17.885 4H7.5V3h10.385q.69 0 1.152.463q.463.462.463 1.152V18.5h-1ZM10.5 7h-5h10h-5Z"/></svg>