<svg xmlns="http://www.w3.org/2000/svg" width="200" height="200" viewBox="0 0 24 24"><path fill="currentColor" d="m12 16.923l-3.738 1.608q-.808.348-1.535-.134Q6 17.915 6 17.052V5.615q0-.67.472-1.143Q6.944 4 7.615 4h6.154q-.384.596-.577 1.197Q13 5.798 13 6.5q0 1.742 1.157 3.012Q15.313 10.78 17 10.958q.287.036.5.036q.213 0 .5-.036v6.094q0 .863-.727 1.345t-1.535.134L12 16.923Zm5.113-9.325l3.172-3.19q.146-.166.347-.166q.2 0 .366.166q.165.165.165.356t-.165.357l-3.32 3.314q-.241.242-.565.242q-.323 0-.565-.242L15.335 7.22q-.14-.14-.14-.341t.14-.347q.146-.166.356-.156q.21.01.357.156l1.065 1.065Z"/></svg>