<svg xmlns="http://www.w3.org/2000/svg" width="200" height="200" viewBox="0 0 24 24"><path fill="currentColor" d="M17 7h-1.5q-.213 0-.356-.144T15 6.499q0-.212.144-.356Q15.288 6 15.5 6H17V4.5q0-.213.144-.356T17.5 4q.212 0 .356.144q.143.144.143.356V6h1.5q.213 0 .356.144q.144.144.144.357q0 .212-.144.356Q19.713 7 19.5 7H18v1.5q0 .213-.144.356Q17.712 9 17.5 9t-.356-.144Q17 8.713 17 8.5V7Zm-5 9.923l-3.738 1.608q-.808.348-1.535-.13Q6 17.926 6 17.052V5.616q0-.666.475-1.14Q6.949 4 7.615 4h6.154q-.384.596-.577 1.197Q13 5.798 13 6.5q0 1.742 1.157 3.012Q15.313 10.78 17 10.958q.288.036.5.036q.213 0 .5-.036v6.094q0 .873-.727 1.35q-.727.477-1.535.129L12 16.923Z"/></svg>