<svg xmlns="http://www.w3.org/2000/svg" width="200" height="200" viewBox="0 0 24 24"><path fill="currentColor" d="m12 16.923l-3.738 1.608q-.808.348-1.535-.134Q6 17.915 6 17.052V5.615q0-.69.463-1.152Q6.925 4 7.615 4H13v1H7.615q-.23 0-.423.192Q7 5.385 7 5.615v11.393q0 .327.279.519t.586.058L12 15.8l4.135 1.785q.307.134.586-.058q.279-.192.279-.52V11h1v6.052q0 .863-.727 1.345t-1.535.134L12 16.923ZM12 5H7h6h-1Zm5.113 2.598l3.172-3.19q.146-.166.347-.166q.2 0 .366.166q.165.165.165.356t-.165.357l-3.32 3.314q-.241.242-.565.242q-.323 0-.565-.242L15.335 7.22q-.14-.14-.14-.341t.14-.347q.146-.166.356-.156q.21.01.357.156l1.065 1.065Z"/></svg>