<svg xmlns="http://www.w3.org/2000/svg" width="200" height="200" viewBox="0 0 24 24"><path fill="currentColor" d="M12 8.923q-.262 0-.438-.177q-.177-.177-.177-.438q0-.262.177-.439q.176-.177.438-.177t.438.177q.177.177.177.439q0 .261-.177.438q-.176.177-.438.177Zm-3.692 3.692q-.262 0-.439-.177q-.177-.176-.177-.438t.177-.438q.177-.177.439-.177q.261 0 .438.177q.177.176.177.438t-.177.438q-.177.177-.438.177Zm3.692 0q-.262 0-.438-.177q-.177-.176-.177-.438t.177-.438q.176-.177.438-.177t.438.177q.177.176.177.438t-.177.438q-.176.177-.438.177Zm3.692 0q-.261 0-.438-.177q-.177-.176-.177-.438t.177-.438q.177-.177.438-.177q.262 0 .439.177q.177.176.177.438t-.177.438q-.177.177-.439.177ZM12 16.308q-.262 0-.438-.177q-.177-.177-.177-.439q0-.261.177-.438q.176-.177.438-.177t.438.177q.177.177.177.438q0 .262-.177.439q-.176.177-.438.177ZM8.308 5.23q-.262 0-.439-.177t-.177-.439q0-.261.177-.438T8.308 4q.261 0 .438.177t.177.438q0 .262-.177.439t-.438.177Zm3.692 0q-.262 0-.438-.177q-.177-.177-.177-.439q0-.261.177-.438Q11.738 4 12 4t.438.177q.177.177.177.438q0 .262-.177.439q-.176.177-.438.177Zm3.692 0q-.261 0-.438-.177t-.177-.439q0-.261.177-.438T15.692 4q.262 0 .439.177t.177.438q0 .262-.177.439t-.439.177Zm3.693 0q-.262 0-.439-.177t-.177-.439q0-.261.177-.438T19.385 4q.261 0 .438.177t.177.438q0 .262-.177.439t-.438.177Zm0 3.692q-.262 0-.439-.177t-.177-.438q0-.262.177-.439t.439-.177q.261 0 .438.177t.177.439q0 .261-.177.438t-.438.177Zm0 3.692q-.262 0-.439-.177q-.177-.176-.177-.438t.177-.438q.177-.177.439-.177q.261 0 .438.177q.177.176.177.438t-.177.438q-.177.177-.438.177Zm0 3.693q-.262 0-.439-.177t-.177-.439q0-.261.177-.438t.439-.177q.261 0 .438.177t.177.438q0 .262-.177.439t-.438.177ZM8.308 20q-.262 0-.439-.177t-.177-.438q0-.262.177-.439t.439-.177q.261 0 .438.177t.177.439q0 .261-.177.438T8.308 20ZM12 20q-.262 0-.438-.177q-.177-.177-.177-.438q0-.262.177-.439q.176-.177.438-.177t.438.177q.177.177.177.439q0 .261-.177.438Q12.262 20 12 20Zm3.692 0q-.261 0-.438-.177t-.177-.438q0-.262.177-.439t.438-.177q.262 0 .439.177t.177.439q0 .261-.177.438t-.439.177Zm3.693 0q-.262 0-.439-.177t-.177-.438q0-.262.177-.439t.439-.177q.261 0 .438.177t.177.439q0 .261-.177.438t-.438.177ZM4 19.5v-15q0-.213.144-.356Q4.288 4 4.501 4q.212 0 .356.144Q5 4.288 5 4.5v15q0 .213-.144.356T4.499 20q-.212 0-.356-.144Q4 19.713 4 19.5Z"/></svg>