<svg xmlns="http://www.w3.org/2000/svg" width="200" height="200" viewBox="0 0 24 24"><path fill="currentColor" d="M4 20v-1.23h1.23V20H4Zm0-3.692v-1.231h1.23v1.23H4Zm0-3.693v-1.23h1.23v1.23H4Zm0-3.692v-1.23h1.23v1.23H4Zm0-3.692V4h1.23v1.23H4ZM7.692 20v-1.23h1.231V20h-1.23Zm0-7.385v-1.23h1.231v1.23h-1.23Zm0-7.384V4h1.231v1.23h-1.23ZM11.385 20v-1.23h1.23V20h-1.23Zm0-3.692v-1.231h1.23v1.23h-1.23Zm0-3.693v-1.23h1.23v1.23h-1.23Zm0-3.692v-1.23h1.23v1.23h-1.23Zm0-3.692V4h1.23v1.23h-1.23ZM15.077 20v-1.23h1.23V20h-1.23Zm0-7.385v-1.23h1.23v1.23h-1.23Zm0-7.384V4h1.23v1.23h-1.23ZM19 20V4h1v16h-1Z"/></svg>