<svg xmlns="http://www.w3.org/2000/svg" width="200" height="200" viewBox="0 0 24 24"><path fill="currentColor" d="M5.38 6.808H18.6L17.096 5H6.885L5.38 6.808ZM10 12.962l2-1l2 1V7.808h-4v5.154ZM4 20V6.915L6.415 4h11.15L20 6.954v1.729l-1 1V7.808h-4v5.855l-.617.618L12 13.096l-3 1.5V7.808H5V19h6.846v1H4ZM15 7.808h4h-4Zm-10 0h9.383H5ZM14.23 20v-2.21l5.96-5.934l2.19 2.204L16.44 20h-2.21Zm6.885-5.94l-.925-.945l.925.945Zm-6 5.055h.95l3.468-3.473l-.47-.475l-.455-.488l-3.493 3.486v.95Zm3.948-3.948l-.455-.488l.925.963l-.47-.475Z"/></svg>