<svg xmlns="http://www.w3.org/2000/svg" width="200" height="200" viewBox="0 0 24 24"><path fill="currentColor" d="M7.27 16.5h3.46q.213 0 .357-.144t.144-.357t-.144-.356q-.144-.143-.356-.143H7.269q-.212 0-.356.144T6.769 16t.144.356q.144.143.356.143Zm0-4h3.46q.213 0 .357-.144t.144-.357t-.144-.356q-.144-.143-.356-.143H7.269q-.212 0-.356.144T6.769 12t.144.356q.144.143.356.143Zm9.46-5q-.213 0-.356.144q-.143.143-.143.356v4q0 .213.144.356q.144.144.356.144q.213 0 .357-.144q.143-.144.143-.356V8q0-.213-.144-.356T16.73 7.5Zm-9.46 1h3.46q.213 0 .357-.144t.144-.357t-.144-.356q-.144-.143-.356-.143H7.269q-.212 0-.356.144T6.769 8t.144.356q.144.143.356.143ZM4.614 20q-.69 0-1.152-.462Q3 19.075 3 18.385V5.615q0-.69.463-1.152Q3.925 4 4.615 4h14.77q.69 0 1.152.463q.463.462.463 1.152v12.77q0 .69-.462 1.152q-.463.463-1.153.463H4.615Zm0-1h14.77q.23 0 .423-.192q.192-.193.192-.423V5.615q0-.23-.192-.423Q19.615 5 19.385 5H4.615q-.23 0-.423.192Q4 5.385 4 5.615v12.77q0 .23.192.423q.193.192.423.192ZM4 19V5v14Zm12.731-2.5q.213 0 .357-.144q.143-.144.143-.357t-.144-.356q-.144-.143-.357-.143t-.356.144q-.143.144-.143.357t.144.356q.144.143.356.143Z"/></svg>