<svg xmlns="http://www.w3.org/2000/svg" width="200" height="200" viewBox="0 0 24 24"><path fill="currentColor" d="M5 20V9.873q-.829-.492-1.414-1.212Q3 7.94 3 7q0-1.246.877-2.123Q4.754 4 6 4h12q1.246 0 2.123.877Q21 5.754 21 7q0 .94-.586 1.66T19 9.874V20H5Zm1-1h12V9.3l.538-.33q.566-.353 1.014-.832Q20 7.66 20 7q0-.825-.588-1.413T18 5H6q-.825 0-1.413.588T4 7q0 .665.445 1.147t1.017.834L6 9.3V19Zm6-2.177L15.862 13L12 9.138L8.177 13L12 16.823Zm0-1.415L9.592 13L12 10.554L14.446 13L12 15.408ZM12 12Z"/></svg>