<svg xmlns="http://www.w3.org/2000/svg" width="200" height="200" viewBox="0 0 24 24"><path fill="currentColor" d="M12 21q-1.858 0-3.5-.71t-2.86-1.93q-1.22-1.217-1.93-2.86Q3 13.858 3 12q0-1.863.71-3.503q.711-1.64 1.93-2.858Q6.857 4.421 8.5 3.711Q10.142 3 12 3q.398 0 .8.04t.775.097v3.42q-.32-.717-.714-1.35q-.396-.634-.861-1.215q-.823.977-1.404 2.116q-.58 1.138-.977 2.546h3.956v1H9.381q-.114.615-.16 1.18q-.048.564-.048 1.166t.047 1.166q.047.565.16 1.18h5.24q.113-.615.16-1.18q.047-.564.047-1.166q0-.41-.018-.81q-.019-.402-.074-.805h1q.055.423.074.824q.018.4.018.791q0 .563-.047 1.147q-.047.584-.16 1.2h4.034q.163-.52.255-1.133T20 12q0-.41-.043-.81q-.044-.402-.13-.805h1.03q.062.384.103.798q.04.413.04.817q0 1.858-.71 3.5t-1.93 2.86q-1.218 1.219-2.857 1.93Q13.863 21 12 21Zm-7.654-6.654h4.035q-.114-.615-.16-1.199q-.048-.584-.048-1.147q0-.563.047-1.147q.047-.584.16-1.2H4.347q-.163.52-.255 1.133T4 12q0 .602.091 1.214q.092.613.255 1.132Zm6.38 5.55q-.7-.863-1.277-2.078q-.578-1.214-.86-2.472H4.753q.86 1.866 2.437 3.06q1.578 1.194 3.536 1.49ZM4.755 8.654h3.834q.322-1.239.88-2.424q.559-1.186 1.259-2.126q-2.054.334-3.574 1.5q-1.52 1.165-2.4 3.05ZM12 20.008q.88-1.131 1.452-2.221q.571-1.09.929-2.44H9.619q.396 1.426.948 2.516q.552 1.09 1.433 2.145Zm1.273-.112q1.958-.277 3.536-1.48q1.578-1.204 2.437-3.07h-3.834q-.38 1.277-.957 2.492q-.578 1.214-1.182 2.058ZM16 8V3h5v5h-5Zm2.692-2.692h1.539V3.769h-1.539v1.539Z"/></svg>