<svg xmlns="http://www.w3.org/2000/svg" width="200" height="200" viewBox="0 0 24 24"><path fill="currentColor" d="M4.615 19q-.666 0-1.14-.475Q3 18.051 3 17.385V9.308q0-.384.172-.727t.474-.566l5.385-4.038q.223-.162.466-.242t.507-.081t.504.08t.461.243l3.746 2.79q.289.218.215.55t-.422.446q-1.143.389-2.098 1.096t-1.652 1.681q-.7.968-1.063 2.111T9.333 15q0 .791.16 1.563t.488 1.501q.148.334-.031.635T9.413 19zm12.38-9.308q-2.205 0-3.754 1.54T11.692 15q0 .987.366 1.913t1.032 1.652q.123.14.13.316t-.122.323t-.306.142t-.296-.134q-.804-.856-1.246-1.944T10.808 15q0-2.596 1.809-4.394t4.379-1.798q2.594 0 4.395 1.798T23.192 15q0 1.181-.427 2.269q-.427 1.087-1.255 1.923q-.123.135-.289.138t-.294-.145t-.122-.317t.13-.308q.667-.708 1.02-1.638T22.308 15q0-2.23-1.54-3.768t-3.773-1.54m.005 2.5q-1.165 0-1.987.815q-.82.814-.82 1.993q0 .49.19.94t.513.839q.112.152.112.34t-.13.316q-.147.148-.325.145t-.295-.163q-.446-.5-.698-1.12T13.308 15q0-1.546 1.083-2.62q1.084-1.072 2.605-1.072q1.544 0 2.62 1.073T20.692 15q0 .671-.24 1.304q-.239.633-.704 1.133q-.117.153-.292.147t-.304-.155t-.122-.32t.118-.33q.317-.371.489-.82q.17-.447.17-.959q0-1.18-.814-1.993T17 12.192m0 8.5q-.19 0-.316-.125t-.126-.317v-4.423q-.225-.123-.363-.347t-.137-.48q0-.396.281-.669t.657-.273q.394 0 .67.273t.276.669q0 .256-.122.473t-.378.354v4.423q0 .192-.125.317t-.316.125"/></svg>