<svg xmlns="http://www.w3.org/2000/svg" width="200" height="200" viewBox="0 0 24 24"><path fill="currentColor" d="M4 13V5.615q0-.69.463-1.152Q4.925 4 5.615 4H11v9H4Zm6-1Zm3-8h5.385q.69 0 1.152.463q.463.462.463 1.159V9h-7V4Zm0 16v-9h7v7.385q0 .69-.462 1.152q-.463.463-1.153.463H13Zm-9-5h7v5H5.615q-.69 0-1.152-.462Q4 19.075 4 18.378V15Zm6 1Zm4-8Zm0 4Zm-9 0h5V5H5.615q-.269 0-.442.173T5 5.615V12Zm9-4h5V5.615q0-.269-.173-.442T18.385 5H14v3Zm0 4v7h4.385q.269 0 .442-.173t.173-.442V12h-5Zm-9 4v2.385q0 .269.173.442t.442.173H10v-3H5Z"/></svg>