<svg xmlns="http://www.w3.org/2000/svg" width="200" height="200" viewBox="0 0 24 24"><path fill="currentColor" d="M7.192 20v-1.538l.77-.77H4.615q-.69 0-1.153-.462Q3 16.767 3 16.077V5.615q0-.69.463-1.152Q3.925 4 4.615 4h7.827v1H4.615q-.23 0-.423.192Q4 5.385 4 5.615v10.462q0 .23.192.423q.193.192.423.192h14.77q.23 0 .423-.192q.192-.192.192-.423V13h1v3.077q0 .69-.463 1.153q-.462.462-1.152.462h-3.347l.77.77V20H7.192Zm8.52-5.712L11.423 10l.708-.708l3.08 3.095V4h1v8.387l3.081-3.095L20 10l-4.288 4.288Z"/></svg>