<svg xmlns="http://www.w3.org/2000/svg" width="200" height="200" viewBox="0 0 24 24"><path fill="currentColor" d="M1.77 18V6h1v12h-1ZM6 18V6h1v12H6Zm5.846 0q-.69 0-1.153-.463q-.462-.462-.462-1.152v-8.77q0-.69.462-1.153Q11.156 6 11.846 6h8.77q.69 0 1.152.463t.463 1.152v8.77q0 .69-.463 1.152q-.462.463-1.153.463h-8.769Zm0-1h8.77q.23 0 .422-.192q.193-.193.193-.423v-8.77q0-.23-.193-.423Q20.846 7 20.615 7h-8.769q-.23 0-.423.192q-.192.193-.192.423v8.77q0 .23.192.423q.192.192.423.192Zm.846-2.23h7.077l-2.138-2.885l-1.9 2.5l-1.4-1.85l-1.639 2.234ZM11.231 17V7v10Z"/></svg>