<svg xmlns="http://www.w3.org/2000/svg" width="200" height="200" viewBox="0 0 24 24"><path fill="currentColor" d="M17.615 10.385q-1.67 0-2.835-1.165t-1.165-2.835q0-1.672 1.165-2.836q1.164-1.164 2.835-1.164q1.672 0 2.836 1.164t1.164 2.836q0 1.67-1.164 2.835t-2.836 1.165ZM17.231 7H18V4h-.77v3Zm.384 1.846q.2 0 .331-.13q.13-.131.13-.331t-.13-.331q-.13-.13-.33-.13t-.331.13q-.131.13-.131.33t.13.331q.131.131.331.131Zm-11.11 7.77q.466 0 .788-.327t.322-.794t-.326-.788q-.327-.322-.794-.322t-.788.326q-.322.327-.322.794t.326.788q.327.322.794.322Zm7 0q.466 0 .788-.327t.322-.794t-.326-.788q-.327-.322-.794-.322t-.788.326q-.322.327-.322.794t.326.788q.327.322.794.322ZM5.038 21q-.212 0-.356-.144t-.144-.356v-1.896q-.488-.212-1.013-.901Q3 17.013 3 16.115V7q0-.673.364-1.263t1.324-1.016q.958-.427 2.652-.624q1.695-.197 4.348-.085q-.348.834-.438 1.728q-.09.895.108 1.798H4V12h10.792q.431.315 1.069.523q.637.208 1.139.208v3.384q0 .898-.525 1.588q-.525.69-1.013.9V20.5q0 .213-.144.356t-.356.144h-.231q-.213 0-.356-.144t-.144-.356V19H5.769v1.5q0 .213-.144.356T5.27 21h-.23Z"/></svg>