<svg xmlns="http://www.w3.org/2000/svg" width="200" height="200" viewBox="0 0 24 24"><path fill="currentColor" d="M6.505 16.615q.466 0 .788-.326q.322-.327.322-.794t-.326-.788q-.327-.322-.794-.322t-.788.326q-.322.327-.322.794t.326.788q.327.322.794.322Zm7 0q.466 0 .788-.326q.322-.327.322-.794t-.326-.788q-.327-.322-.794-.322t-.788.326q-.322.327-.322.794t.326.788q.327.322.794.322ZM5.769 19v1.385q0 .256-.18.436q-.18.179-.437.179t-.436-.18q-.178-.179-.178-.435v-1.781q-.488-.212-1.013-.901Q3 17.013 3 16.115V7q0-.673.364-1.263t1.324-1.016q.958-.427 2.652-.624q1.695-.197 4.348-.085q-.288.68-.4 1.728q-.113 1.048.07 1.798H4V12h10.792q.431.315 1.069.523q.637.208 1.139.208v3.384q0 .898-.525 1.588q-.525.69-1.013.9v1.782q0 .256-.18.436q-.18.179-.438.179t-.435-.18q-.178-.179-.178-.435V19H5.769Zm11.846-8.615q-1.67 0-2.835-1.165t-1.165-2.835q0-1.672 1.165-2.836q1.164-1.164 2.835-1.164q1.672 0 2.836 1.164t1.164 2.836q0 1.67-1.164 2.835t-2.836 1.165Zm0-3.385q.154 0 .27-.115q.115-.116.115-.27v-2.23q0-.154-.115-.27Q17.769 4 17.615 4q-.153 0-.269.115q-.115.116-.115.27v2.23q0 .154.115.27q.116.115.27.115Zm0 1.846q.2 0 .331-.13q.13-.131.13-.331t-.13-.331q-.13-.13-.33-.13t-.331.13q-.131.13-.131.33t.13.331q.131.131.331.131Z"/></svg>