<svg xmlns="http://www.w3.org/2000/svg" width="200" height="200" viewBox="0 0 24 24"><path fill="currentColor" d="M4.615 17q-.69 0-1.152-.462Q3 16.075 3 15.378V8.622q0-.697.463-1.16Q3.925 7 4.614 7h14.77q.69 0 1.152.463q.463.462.463 1.159v6.756q0 .697-.463 1.16q-.462.462-1.152.462H4.615Zm2.943-4.558v1.616q0 .191.125.317q.125.125.316.125t.317-.125q.126-.126.126-.317v-1.616h1.616q.191 0 .317-.125q.125-.125.125-.316t-.125-.317q-.126-.126-.317-.126H8.442V9.942q0-.191-.125-.317q-.125-.125-.316-.125t-.317.125q-.126.126-.126.317v1.616H5.942q-.191 0-.317.125q-.125.125-.125.316t.125.317q.126.126.317.126h1.616Z"/></svg>