<svg xmlns="http://www.w3.org/2000/svg" width="200" height="200" viewBox="0 0 24 24"><path fill="currentColor" d="M8.308 17.692h.884v-2h2v-.884h-2v-2h-.884v2h-2v.884h2v2Zm5-.75h4.384v-.884h-4.384v.884Zm0-2.5h4.384v-.884h-4.384v.884Zm.792-3.954l1.4-1.4l1.4 1.4l.627-.626l-1.4-1.412l1.4-1.4l-.627-.627l-1.4 1.4l-1.4-1.4l-.627.627l1.4 1.4l-1.4 1.412l.627.626ZM6.558 8.892h4.384v-.884H6.558v.884ZM5.615 20q-.69 0-1.152-.462Q4 19.075 4 18.385V5.615q0-.69.463-1.152Q4.925 4 5.615 4h12.77q.69 0 1.152.463q.463.462.463 1.152v12.77q0 .69-.462 1.152q-.463.463-1.153.463H5.615Z"/></svg>