<svg xmlns="http://www.w3.org/2000/svg" width="200" height="200" viewBox="0 0 24 24"><path fill="currentColor" d="M17.5 18.5H15q-.213 0-.356-.144q-.144-.144-.144-.357t.144-.356q.144-.143.356-.143h2.5V15q0-.213.144-.356q.144-.144.357-.144t.356.144q.143.144.143.356v2.5H21q.213 0 .356.144q.144.144.144.357t-.144.356q-.143.143-.356.143h-2.5V21q0 .213-.144.356q-.144.144-.357.144t-.356-.144Q17.5 21.213 17.5 21v-2.5ZM5.615 19q-.69 0-1.152-.462Q4 18.075 4 17.385V6.615q0-.69.463-1.152Q4.925 5 5.615 5h1.77V3.308q0-.23.155-.384q.156-.155.386-.155t.383.155q.153.155.153.384V5h5.153V3.27q0-.213.144-.357t.357-.144q.213 0 .356.144t.143.356V5h1.77q.69 0 1.152.463q.463.462.463 1.152v5.716q-.25-.018-.5-.018t-.5.018v-1.716H5v6.77q0 .23.192.423q.193.192.423.192h6.673q0 .25.018.5q.017.25.063.5H5.615ZM5 9.615h12v-3q0-.23-.192-.423Q16.615 6 16.385 6H5.615q-.23 0-.423.192Q5 6.385 5 6.615v3Zm0 0V6v3.615Z"/></svg>