<svg xmlns="http://www.w3.org/2000/svg" width="200" height="200" viewBox="0 0 24 24"><path fill="currentColor" d="M12.538 17.615q-.251 0-.433-.181q-.182-.182-.182-.434v-4q0-.252.182-.434q.182-.181.433-.181h4q.252 0 .434.181t.182.434v1.462l1.256-.656q.211-.106.4.015t.19.339v1.68q0 .218-.19.339t-.4.015l-1.256-.656V17q0 .252-.182.434t-.434.181h-4ZM5 18.385v-8.077q0-.38.174-.727q.174-.348.472-.566l5.385-4.057q.429-.323.969-.323t.97.323l5.384 4.057q.298.218.472.566t.174.727V11h-1v-.692q0-.154-.067-.28q-.068-.124-.183-.22l-5.385-4.039q-.153-.134-.365-.134t-.365.134L6.25 9.808q-.115.096-.183.22q-.067.126-.067.28v8.077q0 .269.173.442t.442.173H18.5q.213 0 .357.143q.143.144.143.357t-.143.357Q18.713 20 18.5 20H6.615q-.67 0-1.143-.472Q5 19.056 5 18.385Zm7-6.135Z"/></svg>