<svg xmlns="http://www.w3.org/2000/svg" width="200" height="200" viewBox="0 0 24 24"><path fill="currentColor" d="M17.923 12.5v-1h3.23v1h-3.23Zm1.085 6.462l-2.585-1.939l.623-.792l2.585 1.938l-.623.793Zm-2.039-11.27l-.623-.792l2.585-1.938l.623.792l-2.585 1.938ZM5.5 17.962v-3.808H4.462q-.672 0-1.144-.472q-.472-.472-.472-1.144v-1.076q0-.672.472-1.144q.472-.472 1.144-.472h3.73L12.154 7.5v9l-3.962-2.346H6.5v3.808h-1Zm5.654-3.243V9.281l-2.68 1.565H4.461q-.231 0-.424.192q-.192.193-.192.424v1.076q0 .231.192.424q.193.192.424.192h4.011l2.68 1.565Zm2.77.17V9.111q.501.465.808 1.222q.306.756.306 1.666t-.306 1.666q-.307.757-.809 1.222ZM7.5 12Z"/></svg>