<svg xmlns="http://www.w3.org/2000/svg" width="200" height="200" viewBox="0 0 24 24"><path fill="currentColor" d="M6.423 20h11.27q.604 0 1.013-.41q.41-.408.41-1.013v-.442H5v.442q0 .605.41 1.014q.408.409 1.013.409Zm5.638-12.365q-.934 0-1.57-.665q-.637-.664-.587-1.595q.05-1.05.71-1.864T12.058 2q.782.696 1.443 1.51q.66.815.71 1.846q.05.95-.583 1.615q-.634.664-1.567.664Zm-1.388 9.5h2.77V10.5h-2.77v6.635Zm1.383-10.5q.5 0 .828-.348q.328-.348.328-.85q0-.618-.373-1.112q-.372-.494-.781-.954q-.41.46-.782.954q-.372.494-.372 1.112q0 .502.326.85q.327.348.826.348Zm7.79 10.5q.479 0 .817-.338q.337-.337.337-.826q0-.488-.338-.826q-.337-.337-.816-.337q-.479 0-.816.337q-.338.338-.338.826q0 .489.338.826q.337.338.816.338ZM17.692 21H6.423q-1.01 0-1.716-.707T4 18.577v-1.442h5.673V9.5h4.77v7.635h3.638q-.185-.258-.287-.55q-.102-.29-.102-.623q0-.901.627-1.528q.626-.626 1.527-.626q.9 0 1.527.626q.627.627.627 1.528q0 .834-.543 1.444q-.544.61-1.342.706v.465q0 1.01-.706 1.716q-.707.707-1.717.707Zm-5.634-1Zm-1.385-2.865h2.77h-2.77Zm1.385-12.139Z"/></svg>