<svg xmlns="http://www.w3.org/2000/svg" width="200" height="200" viewBox="0 0 24 24"><path fill="currentColor" d="M12.06 7.635q-.933 0-1.57-.665q-.636-.664-.586-1.595q.05-1.05.71-1.864T12.058 2q.782.696 1.443 1.51q.66.815.71 1.846q.05.95-.583 1.615q-.634.664-1.567.664Zm7.786 9.5q.479 0 .817-.338q.337-.337.337-.826q0-.488-.338-.826q-.337-.337-.816-.337q-.479 0-.816.337q-.338.338-.338.826q0 .489.338.826q.337.338.816.338ZM17.692 21H6.423q-1.01 0-1.716-.707T4 18.577v-1.442h5.673V9.5h4.77v7.635h3.638q-.185-.258-.287-.55q-.102-.29-.102-.623q0-.901.627-1.528q.626-.626 1.527-.626q.9 0 1.527.626q.627.627.627 1.528q0 .834-.543 1.444q-.544.61-1.342.706v.465q0 1.01-.706 1.716q-.707.707-1.717.707Z"/></svg>