<svg xmlns="http://www.w3.org/2000/svg" width="200" height="200" viewBox="0 0 24 24"><path fill="currentColor" d="M12.06 7.635q-.933 0-1.57-.665q-.636-.664-.586-1.603q.05-.861.521-1.57q.471-.709 1.073-1.274q.13-.125.274-.178q.143-.053.286-.053q.142 0 .285.063t.274.168q.602.565 1.073 1.264q.472.7.522 1.57q.05.951-.584 1.614q-.634.664-1.567.664Zm7.786 9.5q.479 0 .817-.338q.337-.337.337-.826q0-.488-.338-.826q-.337-.337-.816-.337q-.479 0-.816.337q-.338.338-.338.826q0 .489.338.826q.337.338.816.338ZM17.692 21H6.423q-1.01 0-1.716-.707T4 18.577v-.635q0-.343.232-.575q.232-.232.576-.232h4.865v-6.02q0-.666.475-1.14q.474-.475 1.14-.475h1.539q.666 0 1.14.475q.475.474.475 1.14v6.02h3.639q-.185-.258-.287-.55q-.102-.29-.102-.623q0-.901.627-1.528q.626-.626 1.527-.626q.9 0 1.527.626q.627.627.627 1.528q0 .834-.543 1.444q-.544.61-1.342.706v.465q0 1.01-.706 1.716q-.707.707-1.717.707Z"/></svg>