<svg xmlns="http://www.w3.org/2000/svg" width="200" height="200" viewBox="0 0 24 24"><path fill="currentColor" d="M10.727 19.896q-.7-.94-1.259-2.126q-.558-1.185-.88-2.424H4.754q.879 1.885 2.399 3.05q1.52 1.166 3.574 1.5Zm-6.38-5.55H8.38q-.114-.615-.16-1.199q-.048-.584-.048-1.147q0-.563.047-1.147q.047-.584.16-1.2H4.347q-.163.52-.255 1.133T4 12q0 .602.091 1.214q.092.613.255 1.132Zm.407-5.692h3.834q.283-1.258.861-2.472q.578-1.215 1.278-2.078q-1.958.296-3.536 1.49t-2.437 3.06Zm4.865 0h4.762q-.358-1.35-.93-2.44q-.57-1.09-1.451-2.222q-.88 1.054-1.433 2.145q-.552 1.09-.948 2.517Zm5.793 0h3.834q-.86-1.866-2.437-3.07q-1.578-1.203-3.536-1.48q.604.844 1.182 2.059q.578 1.214.957 2.49ZM12 21q-1.858 0-3.5-.71t-2.86-1.93q-1.22-1.217-1.93-2.86Q3 13.858 3 12q0-1.863.71-3.503q.711-1.64 1.93-2.858Q6.857 4.421 8.5 3.711Q10.142 3 12 3q1.863 0 3.503.71q1.64.711 2.858 1.93q1.218 1.218 1.928 2.857Q21 10.137 21 12q0 .27-.013.558q-.012.288-.056.557h-1.025q.05-.269.072-.554Q20 12.275 20 12q0-.602-.091-1.214q-.092-.613-.255-1.132h-4.035q.114.615.16 1.199q.048.584.048 1.147q0 .275-.01.551t-.034.564h-1q.025-.269.034-.554q.01-.286.01-.561q0-.602-.047-1.166q-.047-.565-.16-1.18H9.38q-.113.615-.16 1.18q-.047.564-.047 1.166t.047 1.166q.047.565.16 1.18h3.735v1H9.62q.396 1.408.977 2.546q.58 1.139 1.404 2.116q.313-.381.583-.784q.269-.403.532-.828v2.535q-.269.044-.554.056Q12.275 21 12 21Zm7.95-.337l-3.45-3.45v2.937h-1V15.5h4.65v1h-2.962l3.45 3.45l-.688.713Z"/></svg>