<svg xmlns="http://www.w3.org/2000/svg" width="200" height="200" viewBox="0 0 24 24"><path fill="currentColor" d="M3.613 20q-.257 0-.435-.18T3 19.386v-6.958q0-.137.015-.273q.016-.137.066-.267L4.985 6.5q.073-.238.281-.37T5.731 6h2.884q.213 0 .357.144q.143.144.143.357q0 .212-.143.356T8.615 7H5.888l-1.473 4.154h7.397q.331 0 .632.13t.518.349l1.967 1.967q-.039.065-.07.135t-.013.169q-.173.24-.178.524t.14.495q.115.327.429.479t.669.042q.39.012.672-.197t.345-.541q.31.09.614.104t.613-.037q.327-.073.588.114q.262.186.262.507v3.99q0 .257-.18.437t-.438.179t-.435-.18q-.178-.179-.178-.435V18H4.231v1.385q0 .256-.18.436T3.613 20m2.815-4.308q.466 0 .788-.326q.322-.327.322-.794t-.326-.788t-.793-.322t-.79.326t-.321.793t.326.79t.794.321m8.571-9.961q.31 0 .521-.21t.21-.52t-.21-.521t-.52-.21t-.52.21t-.21.52t.21.52t.52.21m1.762 6.32l-4.908-4.908q-.157-.157-.256-.383q-.098-.225-.098-.46V2.711q0-.53.353-.87t.859-.342h3.586q.236 0 .461.098q.226.099.383.256l4.908 4.908q.367.367.367.86t-.367.86l-3.567 3.568q-.368.367-.86.367t-.861-.367"/></svg>