<svg xmlns="http://www.w3.org/2000/svg" width="200" height="200" viewBox="0 0 24 24"><path fill="currentColor" d="M17.607 10.385q-1.663 0-2.827-1.165t-1.165-2.843q0-1.658 1.163-2.825q1.162-1.167 2.845-1.167q1.664 0 2.828 1.164t1.164 2.836q0 1.67-1.172 2.835t-2.836 1.165ZM5.231 17v1.385q0 .256-.18.436q-.18.179-.438.179t-.435-.18Q4 18.642 4 18.386v-6.958q0-.137.015-.273q.016-.137.061-.272l1.707-4.801q.16-.48.578-.78Q6.78 5 7.298 5h4.098q-.073.244-.1.485q-.027.24-.046.515H7.33q-.21 0-.365.106q-.153.106-.23.298l-1.32 3.75h7.087q.198.286.407.527q.208.24.466.473H5V16h14v-3.383q.275-.055.515-.138q.24-.083.485-.173v6.079q0 .256-.18.436q-.18.179-.438.179t-.435-.18q-.178-.179-.178-.435V17H5.231Zm2.197-2.308q.466 0 .788-.326q.322-.327.322-.794t-.326-.788q-.327-.322-.793-.322t-.79.326q-.321.327-.321.793t.326.79q.327.321.794.321Zm9.153 0q.467 0 .79-.325q.321-.325.321-.79q0-.26-.128-.48q-.127-.222-.35-.347q-.252-.02-.512-.058q-.26-.038-.494-.115q-.316.085-.531.366q-.215.282-.215.634q0 .465.326.79q.327.325.793.325ZM5 16v-4.846V16Zm12.615-9q.154 0 .27-.115q.115-.116.115-.27v-2.23q0-.154-.115-.27Q17.769 4 17.615 4q-.153 0-.269.115q-.115.116-.115.27v2.23q0 .154.115.27q.116.115.27.115Zm0 1.846q.2 0 .322-.13q.12-.131.14-.312q0-.192-.13-.337q-.132-.144-.332-.144t-.33.13q-.131.132-.131.332t.13.33q.131.131.331.131Z"/></svg>