<svg xmlns="http://www.w3.org/2000/svg" width="200" height="200" viewBox="0 0 24 24"><path fill="currentColor" d="M17.607 10.385q-1.663 0-2.827-1.165t-1.165-2.843q0-1.658 1.163-2.825q1.162-1.167 2.845-1.167q1.664 0 2.828 1.164t1.164 2.836q0 1.67-1.172 2.835t-2.836 1.165ZM17.231 7H18V4h-.77v3ZM4 19v-7.846L6.162 5h5.234q-.073.244-.1.485q-.027.24-.046.515H6.888l-1.473 4.154h7.087q.198.286.407.527q.208.24.466.473H5V16h14v-3.383q.275-.055.515-.138q.24-.083.485-.173V19h-1.23v-2H5.23v2H4Zm3.428-4.308q.466 0 .788-.326q.322-.327.322-.794t-.326-.788q-.327-.322-.793-.322t-.79.326q-.321.327-.321.793t.326.79q.327.321.794.321Zm9.153 0q.467 0 .79-.325q.321-.325.321-.79q0-.26-.128-.48q-.127-.222-.35-.347q-.252-.02-.512-.058q-.26-.038-.494-.115q-.316.085-.531.366q-.215.282-.215.634q0 .465.326.79q.327.325.793.325ZM5 16v-4.846V16Zm12.135-7.135h.961v-.942h-.961v.942Z"/></svg>