<svg xmlns="http://www.w3.org/2000/svg" width="200" height="200" viewBox="0 0 24 24"><path fill="currentColor" d="M11.5 20.77v-3h-7v-1h15v1h-7v3h-1Zm-2.885-8.732q.31 0 .54-.23q.23-.23.23-.539q0-.31-.23-.54q-.23-.229-.54-.229q-.31 0-.539.23q-.23.23-.23.54q0 .309.23.539q.23.23.54.23Zm6.77 0q.31 0 .539-.23q.23-.23.23-.539q0-.31-.23-.54q-.23-.229-.54-.229q-.309 0-.539.23q-.23.23-.23.54q0 .309.23.539q.23.23.54.23ZM6 9.523L7.65 4.77h8.694L18 9.523v6.246h-1v-2H7v2H6V9.523Zm1.304-.754h9.392l-1.046-3h-7.3l-1.046 3Z"/></svg>