<svg xmlns="http://www.w3.org/2000/svg" width="200" height="200" viewBox="0 0 24 24"><path fill="currentColor" d="M11.5 20.77v-3h-7v-1h15v1h-7v3h-1Zm-2.885-8.732q.31 0 .54-.23q.23-.23.23-.539q0-.31-.23-.54q-.23-.229-.54-.229q-.31 0-.539.23q-.23.23-.23.54q0 .309.23.539q.23.23.54.23Zm6.77 0q.31 0 .539-.23q.23-.23.23-.539q0-.31-.23-.54q-.23-.229-.54-.229q-.309 0-.539.23q-.23.23-.23.54q0 .309.23.539q.23.23.54.23ZM6 9.523l1.496-4.3q.067-.215.241-.335q.174-.119.386-.119h7.754q.212 0 .386.12q.174.119.24.334L18 9.523v5.792q0 .199-.128.327q-.127.127-.326.127h-.092q-.199 0-.326-.127q-.128-.128-.128-.327V13.77H7v1.546q0 .199-.128.327q-.127.127-.326.127h-.092q-.199 0-.326-.127Q6 15.514 6 15.315V9.523Zm1.304-.754h9.392l-1.046-3h-7.3l-1.046 3Z"/></svg>