<svg xmlns="http://www.w3.org/2000/svg" width="200" height="200" viewBox="0 0 24 24"><path fill="currentColor" d="M6.428 15.692q.466 0 .788-.326q.322-.327.322-.794t-.326-.788t-.793-.322t-.79.326t-.321.793t.326.79t.794.321m9.149 0q.442 0 .756-.29q.313-.29.342-.727q-.423-.12-.806-.337q-.382-.219-.738-.555l-.144-.145q-.231.143-.378.394t-.147.545q0 .465.325.79t.79.325M4 17v-4.846zm-1-4.573q0-.137.015-.273q.016-.137.066-.267L4.985 6.5q.073-.238.281-.37T5.731 6h2.884q.213 0 .357.144q.143.144.143.357q0 .212-.143.356T8.615 7H5.888l-1.473 4.154h8.027q.213 0 .357.144q.143.144.143.357q0 .212-.143.356t-.357.143H4V17h14v-1.096q0-.213.144-.356t.357-.144t.356.144t.143.356v3.48q0 .257-.18.437t-.438.179t-.435-.18q-.178-.179-.178-.435V18H4.231v1.385q0 .256-.18.436T3.613 20t-.435-.18T3 19.386zM15 5.73q.31 0 .52-.21t.21-.52t-.21-.521t-.52-.21t-.52.21t-.21.52t.21.52t.52.21m1.762 6.32l-4.908-4.908q-.157-.157-.256-.383q-.098-.225-.098-.46V2.711q0-.53.353-.87t.859-.342h3.586q.236 0 .461.098q.226.099.383.256l4.908 4.908q.367.367.367.86t-.367.86l-3.567 3.568q-.368.367-.86.367t-.861-.367m.42-.98q.174.172.433.172q.26 0 .433-.173l3.021-3.02q.173-.174.173-.434t-.173-.432l-4.51-4.51q-.096-.096-.21-.135t-.232-.038h-3.31q-.134 0-.22.087q-.087.086-.087.22v3.31q0 .116.038.231t.135.212zM16.9 6.9"/></svg>