<svg xmlns="http://www.w3.org/2000/svg" width="200" height="200" viewBox="0 0 24 24"><path fill="currentColor" d="M10.308 11.115H7.577q-.343 0-.576-.232t-.232-.575V7.577q0-.343.232-.576t.576-.232h2.73q.344 0 .576.232t.232.576v2.73q0 .344-.232.576t-.575.232m0 6.116H7.577q-.343 0-.576-.232q-.232-.233-.232-.576v-2.73q0-.344.232-.576t.576-.232h2.73q.344 0 .576.232t.232.575v2.731q0 .343-.232.576t-.575.232m6.115-6.116h-2.73q-.344 0-.576-.232t-.232-.575V7.577q0-.343.232-.576t.575-.232h2.731q.343 0 .576.232t.232.576v2.73q0 .344-.232.576t-.576.232m0 6.116h-2.73q-.344 0-.576-.232t-.232-.576v-2.73q0-.344.232-.576t.575-.232h2.731q.343 0 .576.232t.232.575v2.731q0 .343-.232.576q-.233.232-.576.232M5.615 20q-.69 0-1.152-.462T4 18.385V5.615q0-.69.463-1.152T5.615 4h12.77q.69 0 1.152.463T20 5.615v12.77q0 .69-.462 1.152T18.385 20zm0-1h12.77q.23 0 .423-.192t.192-.423V5.615q0-.23-.192-.423T18.385 5H5.615q-.23 0-.423.192T5 5.615v12.77q0 .23.192.423t.423.192"/></svg>