<svg xmlns="http://www.w3.org/2000/svg" width="200" height="200" viewBox="0 0 24 24"><path fill="currentColor" d="M6.77 11.115V6.77h4.345v4.346H6.77Zm0 6.116v-4.346h4.345v4.346H6.77Zm6.115-6.116V6.77h4.346v4.346h-4.346Zm0 6.116v-4.346h4.346v4.346h-4.346Zm-5.116-7.116h2.346V7.77H7.77v2.346Zm6.116 0h2.346V7.77h-2.346v2.346Zm-6.116 6.116h2.346v-2.346H7.77v2.346Zm6.116 0h2.346v-2.346h-2.346v2.346Zm-3.77-6.116Zm3.77 0Zm0 3.77Zm-3.77 0ZM5.615 20q-.69 0-1.152-.462Q4 19.075 4 18.385V5.615q0-.69.463-1.152Q4.925 4 5.615 4h12.77q.69 0 1.152.463q.463.462.463 1.152v12.77q0 .69-.462 1.152q-.463.463-1.153.463H5.615Zm0-1h12.77q.23 0 .423-.192q.192-.193.192-.423V5.615q0-.23-.192-.423Q18.615 5 18.385 5H5.615q-.23 0-.423.192Q5 5.385 5 5.615v12.77q0 .23.192.423q.193.192.423.192Z"/></svg>