<svg xmlns="http://www.w3.org/2000/svg" width="200" height="200" viewBox="0 0 24 24"><path fill="currentColor" d="m11.29 19.287l-.452-.406q-2.319-2.068-3.827-3.573t-2.404-2.689q-.895-1.182-1.254-2.156t-.359-1.969q0-1.907 1.296-3.2T7.494 4q1.32 0 2.485.675t2.04 1.963q.894-1.288 2.04-1.963Q15.207 4 16.526 4q1.908 0 3.204 1.293q1.296 1.294 1.296 3.201q0 .996-.359 1.97t-1.253 2.155t-2.404 2.689t-3.828 3.573l-.433.386q-.152.159-.345.224t-.387.065t-.38-.065t-.346-.204M4.68 10.885h14.68q.362-.67.514-1.243t.152-1.148q0-1.508-1.018-2.501T16.525 5q-1.108 0-2.037.579T12.72 7.352q-.136.186-.31.302t-.39.115t-.39-.115q-.173-.116-.31-.302q-.84-1.194-1.783-1.773T7.494 5q-1.463 0-2.481.993t-1.02 2.501q0 .574.162 1.148q.161.573.523 1.243m2.588 3.269h9.504q.63-.656 1.11-1.21q.479-.556.83-1.06H5.309q.37.504.85 1.06q.479.554 1.11 1.21m4.751 4.415q1.131-.992 2.053-1.833t1.688-1.582H8.279q.765.74 1.687 1.582t2.053 1.833m0-7.684"/></svg>