<svg xmlns="http://www.w3.org/2000/svg" width="200" height="200" viewBox="0 0 24 24"><path fill="currentColor" d="M9.5 19V9h-.885q-.269 0-.442.173T8 9.615v8.77q0 .269.173.442t.442.173H9.5Zm2.277 1H8.615q-.69 0-1.152-.462Q7 19.075 7 18.385v-8.77q0-.69.463-1.152Q7.925 8 8.614 8H14V4h-1.115q-.213 0-.357-.144t-.143-.357q0-.212.143-.356q.144-.143.357-.143H15v9.165q-.254.104-.518.237q-.265.133-.482.29V9h-3.5v10h.965q.056.273.13.507q.072.233.182.493Zm5.53-6.308q1.672 0 2.836 1.165t1.165 2.835q0 1.671-1.165 2.836q-1.164 1.164-2.835 1.164t-2.836-1.164q-1.164-1.165-1.164-2.836q0-1.67 1.164-2.835t2.836-1.165Zm0 6.846q.227 0 .381-.154t.154-.38t-.154-.38q-.154-.155-.38-.155t-.38.154q-.155.155-.155.38t.154.381q.154.154.38.154ZM10 14Zm-.5 5V9v10Zm1 0V9v10Zm8.43-2.676q0-.68-.445-1.117q-.447-.438-1.173-.438q-.46 0-.86.238q-.4.237-.65.656q-.08.131-.018.26q.063.13.21.19q.125.06.266.014q.14-.046.227-.171q.144-.194.353-.323q.21-.13.462-.13q.42 0 .65.206q.233.205.233.615q0 .301-.17.498q-.169.197-.369.397q-.15.15-.293.32q-.143.169-.268.336q-.075.125-.113.285q-.037.16-.037.324t.102.267q.103.103.268.103q.164 0 .27-.104q.106-.103.106-.27q0-.218.15-.39q.15-.17.35-.37q.35-.3.55-.614q.2-.314.2-.782Z"/></svg>