<svg xmlns="http://www.w3.org/2000/svg" width="200" height="200" viewBox="0 0 24 24"><path fill="currentColor" d="m16.608 19.712l3.357-3.358l-.557-.558l-2.8 2.8l-1.4-1.4l-.558.558l1.958 1.958ZM9.5 19V9H8v10h1.5Zm2.277 1H7V8h7V4h-1.615V3H15v9.165q-.254.104-.518.237q-.265.133-.482.29V9h-3.5v10h.965q.056.273.13.512q.072.238.182.488Zm5.53-6.308q1.672 0 2.836 1.165t1.165 2.835q0 1.671-1.165 2.836q-1.164 1.164-2.835 1.164t-2.836-1.164q-1.164-1.165-1.164-2.836q0-1.67 1.164-2.835t2.836-1.165ZM10 14Zm-.5 5V9v10Zm1 0V9v10Z"/></svg>