<svg xmlns="http://www.w3.org/2000/svg" width="200" height="200" viewBox="0 0 24 24"><path fill="currentColor" d="m14 12.996l-1-1V9H9.985l-1-1H13V4h-1.115q-.213 0-.357-.144t-.143-.357q0-.212.143-.356q.144-.143.357-.143h1.307q.344 0 .576.232q.232.232.232.576v9.188Zm3.908 8.173L16.4 19.662q-.063.934-.736 1.598q-.672.663-1.664.663q-.975 0-1.612-.61T11.642 20H7.615q-.69 0-1.152-.462Q6 19.075 6 18.385v-8.77q0-.063.014-.153q.015-.09.044-.143L2.292 5.554q-.14-.14-.15-.344q-.01-.204.15-.364t.354-.16t.354.16l15.615 15.616q.14.14.15.344q.01.204-.15.363q-.16.16-.353.16t-.354-.16ZM8.5 19v-7.227l-1.5-1.5v8.112q0 .269.173.442t.442.173H8.5Zm5.5 2.038q.65 0 1.094-.444q.444-.444.444-1.094t-.444-1.094q-.444-.444-1.094-.444t-1.094.444q-.444.444-.444 1.094t.444 1.094q.444.444 1.094.444ZM9.5 19h2.162q.067-.523.46-1.009q.391-.485.878-.633v-1.085l-3.5-3.5V19Zm4.488.512ZM9.985 9ZM9 15.887ZM8.5 19v-7.227V19Zm1 0v-6.227V19Zm4.5.5Z"/></svg>