<svg xmlns="http://www.w3.org/2000/svg" width="200" height="200" viewBox="0 0 24 24"><path fill="currentColor" d="M15 17.077q1.01 0 1.716.707t.707 1.716q0 1.01-.707 1.716q-.706.707-1.716.707q-.873 0-1.53-.54T12.637 20H7V8h7V4h-1.615V3H15v14.077ZM9.5 19V9H8v10h1.5Zm1-10v10h2.156q.061-.587.43-1.024q.37-.438.914-.63V9h-3.5Zm4.502 12.038q.642 0 1.09-.449q.446-.45.446-1.091q0-.642-.449-1.09q-.45-.446-1.091-.446q-.642 0-1.09.449q-.446.45-.446 1.091q0 .642.449 1.09t1.091.446ZM15 19.5ZM10.5 14Zm-1 5V9v10Zm1-10v10V9Z"/></svg>