<svg xmlns="http://www.w3.org/2000/svg" width="200" height="200" viewBox="0 0 24 24"><path fill="currentColor" d="M9.5 19V9H8v10h1.5Zm2.277 1H7V8h7V4h-1.615V3H15v9.165q-.254.104-.518.237q-.265.133-.482.29V9h-3.5v10h.965q.056.273.13.507q.072.233.182.493Zm5.53-6.308q1.672 0 2.836 1.165t1.165 2.835q0 1.671-1.165 2.836q-1.164 1.164-2.835 1.164t-2.836-1.164q-1.164-1.165-1.164-2.836q0-1.67 1.164-2.835t2.836-1.165Zm0 6.846q.227 0 .381-.154t.154-.38t-.154-.38q-.154-.155-.38-.155t-.38.154q-.155.155-.155.38t.154.381q.154.154.38.154Zm-.372-1.784h.746v-.173q0-.294.15-.478t.35-.384q.35-.3.55-.613q.2-.314.2-.782q0-.68-.451-1.117q-.451-.438-1.163-.438q-.546 0-1.008.338q-.463.337-.663.874l.685.273q.113-.3.37-.525q.257-.225.607-.225q.41 0 .644.205q.233.205.233.615q0 .301-.17.498q-.169.197-.369.397q-.15.15-.293.32q-.143.169-.268.336q-.075.125-.113.285q-.037.16-.037.317v.277ZM10 14Zm-.5 5V9v10Zm1 0V9v10Z"/></svg>