<svg xmlns="http://www.w3.org/2000/svg" width="200" height="200" viewBox="0 0 24 24"><path fill="currentColor" d="M18.673 8.115h.77V4.731h-.77v3.384Zm-2.115 0h.769V4.731h-.77v3.384ZM12 12Zm-9 5.077q.788 0 1.356.567q.567.568.567 1.356H3v-1.923Zm0-3.385q2.213 0 3.76 1.545Q8.309 16.782 8.309 19h-1q0-1.787-1.26-3.028Q4.786 14.731 3 14.692v-1Zm0-3.769q1.89 0 3.538.71q1.647.71 2.883 1.946q1.235 1.236 1.946 2.883q.71 1.648.71 3.538h-1q0-1.679-.636-3.145q-.635-1.467-1.732-2.564T6.145 11.56Q4.68 10.923 3 10.923v-1ZM19.385 19h-4.923q0-.25-.014-.5q-.013-.25-.04-.5h4.977q.269 0 .442-.173t.173-.442v-4.897q.28-.078.521-.2q.24-.123.479-.255v5.352q0 .666-.475 1.14q-.474.475-1.14.475ZM3 7.538v-.923q0-.666.475-1.14Q3.949 5 4.615 5h7.166q-.073.244-.1.485q-.027.24-.046.515h-7.02q-.269 0-.442.173T4 6.615v.977q-.25-.027-.5-.04q-.25-.014-.5-.014Zm15 2.885q-1.671 0-2.836-1.164T14 6.423q0-1.671 1.164-2.835T18 2.423q1.671 0 2.836 1.165T22 6.423q0 1.671-1.164 2.836T18 10.423Z"/></svg>