<svg xmlns="http://www.w3.org/2000/svg" width="200" height="200" viewBox="0 0 24 24"><path fill="currentColor" d="m14.712 11.608l3.538-2.031l-3.538-2.03l-3.539 2.03l3.539 2.03Zm0 2.857l2.596-1.484v-1.754l-2.596 1.523l-2.597-1.523v1.754l2.597 1.484ZM12 12Zm9 7h-6.538q0-.25-.014-.5q-.013-.25-.04-.5H20V6H4v1.592q-.25-.027-.5-.04q-.25-.014-.5-.014V5h18v14ZM3 19v-1.923q.788 0 1.356.567q.567.568.567 1.356H3Zm4.308 0q0-1.787-1.26-3.028Q4.786 14.731 3 14.692v-1q2.213 0 3.76 1.545Q8.309 16.782 8.309 19h-1Zm3.769 0q0-1.679-.636-3.145q-.635-1.467-1.732-2.564T6.145 11.56Q4.68 10.923 3 10.923v-1q1.89 0 3.538.71q1.647.71 2.883 1.946q1.235 1.236 1.945 2.883q.71 1.648.71 3.538h-1Z"/></svg>