<svg xmlns="http://www.w3.org/2000/svg" width="200" height="200" viewBox="0 0 24 24"><path fill="currentColor" d="M7.885 10.23L12 3.463l4.115 6.769h-8.23Zm9.615 11q-1.567 0-2.65-1.08q-1.08-1.083-1.08-2.65t1.08-2.649q1.083-1.082 2.65-1.082t2.65 1.082q1.08 1.082 1.08 2.649t-1.081 2.65q-1.082 1.08-2.649 1.08Zm-13.73-.5v-6.46h6.46v6.46H3.77Zm13.73-.5q1.146 0 1.938-.791q.793-.792.793-1.938q0-1.147-.792-1.94q-.792-.792-1.938-.792q-1.147 0-1.94.792q-.792.792-.792 1.938q0 1.147.792 1.94q.792.792 1.938.792Zm-12.73-.5h4.46v-4.46H4.77v4.46Zm4.857-10.5h4.746L12 5.428L9.627 9.23Zm2.373 0Zm-2.77 6.04Zm8.27 2.23Z"/></svg>