<svg xmlns="http://www.w3.org/2000/svg" width="200" height="200" viewBox="0 0 24 24"><path fill="currentColor" d="m3.596 20.346l3.77-10.538l6.769 6.769l-10.539 3.77ZM5.242 18.7l7.05-2.5l-4.55-4.55l-2.5 7.05Zm8.173-5.842l-.627-.627l7.083-7.083l2.083 2.083l-.589.627l-1.475-1.475l-6.475 6.475ZM10.108 9.55l-.627-.627l1.911-1.911L9.47 5.088l.627-.626l2.55 2.55l-2.538 2.538Zm1.654 1.654l-.627-.627l4.475-4.475l-2.475-2.475l.627-.627l3.101 3.102l-5.101 5.102Zm3.307 3.308l-.627-.627l2.775-2.775l2.775 2.775l-.627.627l-2.148-2.149l-2.148 2.149ZM5.242 18.7Z"/></svg>