<svg xmlns="http://www.w3.org/2000/svg" width="200" height="200" viewBox="0 0 24 24"><path fill="currentColor" d="M19.367 17.5H15q-.213 0-.356-.144q-.144-.144-.144-.357t.144-.356q.144-.143.356-.143h4.367l-1.72-1.74q-.135-.147-.14-.348q-.007-.2.14-.347t.35-.146q.204 0 .357.146l2.37 2.37q.241.242.241.565q0 .323-.242.565l-2.37 2.37q-.152.146-.357.146t-.35-.146q-.146-.147-.14-.347q.006-.201.14-.348l1.721-1.74Zm-13.579 0L4.19 19.099q-.186.186-.438.089t-.252-.369V6.115q0-.666.475-1.14q.474-.475 1.14-.475h11.77q.666 0 1.14.475q.475.474.475 1.14v4.902q-.125-.011-.25-.014Q18.125 11 18 11t-.25.003q-.125.003-.25.014V6.115q0-.269-.173-.442t-.442-.173H5.115q-.269 0-.442.173t-.173.442V16.5h7.517q-.011.125-.014.25Q12 16.875 12 17t.003.25q.003.125.014.25H5.788Zm1.827-8h6.77q.212 0 .356-.144T14.885 9t-.144-.356q-.144-.143-.356-.143h-6.77q-.212 0-.356.144T7.115 9t.144.356q.144.143.356.143Zm0 4h3.77q.212 0 .356-.144t.144-.357t-.144-.356q-.144-.143-.356-.143h-3.77q-.212 0-.356.144T7.115 13t.144.356q.144.143.356.143Zm-3.115 3v-11v11Z"/></svg>