<svg xmlns="http://www.w3.org/2000/svg" width="200" height="200" viewBox="0 0 24 24"><path fill="currentColor" d="M19.367 17.5H15q-.213 0-.356-.144q-.144-.144-.144-.357t.144-.356q.144-.143.356-.143h4.367l-1.72-1.74q-.135-.147-.14-.348q-.007-.2.14-.347t.35-.146q.204 0 .357.146l2.37 2.37q.241.242.241.565q0 .323-.242.565l-2.37 2.37q-.152.146-.357.146t-.35-.146q-.146-.147-.14-.347q.006-.201.14-.348l1.721-1.74Zm-11.752-8h6.77q.212 0 .356-.144T14.885 9t-.144-.356q-.144-.143-.356-.143h-6.77q-.212 0-.356.144T7.115 9t.144.356q.144.143.356.143Zm0 4h3.77q.212 0 .356-.144t.144-.357t-.144-.356q-.144-.143-.356-.143h-3.77q-.212 0-.356.144T7.115 13t.144.356q.144.143.356.143Zm-1.827 4L4.19 19.099q-.186.186-.438.089t-.252-.369V6.115q0-.666.475-1.14q.474-.475 1.14-.475h11.77q.666 0 1.14.475q.475.474.475 1.14v4.902q-.192-.011-.385-.014q-.192-.003-.384-.003q-2.39 0-4.06 1.671Q12 14.343 12 16.731q0 .192.003.384q.003.193.014.385H5.788Z"/></svg>