<svg xmlns="http://www.w3.org/2000/svg" width="200" height="200" viewBox="0 0 24 24"><path fill="currentColor" d="M7.615 8.5h6.77q.212 0 .356-.144t.144-.357t-.144-.356q-.144-.143-.356-.143h-6.77q-.212 0-.356.144T7.115 8t.144.356q.144.143.356.143Zm0 4h3.77q.212 0 .356-.144t.144-.357t-.144-.356q-.144-.143-.356-.143h-3.77q-.212 0-.356.144T7.115 12t.144.356q.144.143.356.143Zm9.885 4H15q-.213 0-.356-.144q-.144-.144-.144-.357t.144-.356q.144-.143.356-.143h2.5V13q0-.213.144-.356q.144-.144.357-.144t.356.144q.143.144.143.356v2.5H21q.213 0 .356.144q.144.144.144.357t-.144.356q-.143.143-.356.143h-2.5V19q0 .213-.144.356q-.144.144-.357.144t-.356-.144Q17.5 19.213 17.5 19v-2.5Zm-11.712 0L4.19 18.099q-.186.186-.438.089t-.252-.369V5.115q0-.666.475-1.14q.474-.475 1.14-.475h11.77q.666 0 1.14.475q.475.474.475 1.14v4.902q-.192-.011-.385-.014q-.192-.003-.384-.003q-2.39 0-4.06 1.671Q12 13.343 12 15.731q0 .192.003.384q.003.193.014.385H5.788Z"/></svg>