<svg xmlns="http://www.w3.org/2000/svg" width="200" height="200" viewBox="0 0 24 24"><path fill="currentColor" d="M3.385 19.385v-1h17.23v1H3.385Zm3.23-3q-.69 0-1.153-.463Q5 15.46 5 14.77V8.615q0-.69.463-1.152Q5.925 7 6.615 7h3q0-.98.702-1.683q.702-.702 1.683-.702q.98 0 1.683.702q.702.702.702 1.683h3q.69 0 1.152.463q.463.462.463 1.152v6.154q0 .69-.463 1.153t-1.152.463H6.615Zm10.077-1h.693q.269 0 .442-.173q.173-.174.173-.443V8.615q0-.269-.173-.442T17.385 8h-.693v7.385ZM10.5 7h3q0-.65-.425-1.075T12 5.5q-.65 0-1.075.425T10.5 7Zm-3.192 8.385V8h-.693q-.269 0-.442.173T6 8.615v6.154q0 .27.173.443t.442.173h.693ZM8.192 8v7.385h7.616V8H8.192Zm-.884 7.385h.884h-.884Zm9.384 0h-.884h.884Zm-9.384 0H6h1.308Zm.884 0h7.616h-7.616Zm8.5 0H18h-1.308Z"/></svg>