<svg xmlns="http://www.w3.org/2000/svg" width="200" height="200" viewBox="0 0 24 24"><path fill="currentColor" d="m7.992 4.84l-.807-2.403l.823-.277l.807 2.398l-.823.282Zm3.566-1.148V1.308h.884v2.384h-.884Zm4.45 1.148l-.823-.282l.807-2.398l.823.282l-.807 2.398Zm5.4 17.68l.146-.995l-6.208-.958l-1.044-3.352l.783-1.703l.857 2.653l.958-.311l-2.687-8.308l.656-.363l4.602 8.798h2.317v-1h-1.707l-4.816-9.183l-2.24 1.279l1.621 5.02l-1.417 3.065l1.361 4.301l6.818 1.056Zm-5.466-4.355l-1.296-4.069l1.296 4.07Zm.958-.311ZM2.592 22.519l-.146-.994l6.202-.958l1.05-3.352l-.788-1.703l-.852 2.653l-.958-.311l2.662-8.308l-.631-.363l-4.608 8.798H2.212v-1h1.707l4.816-9.183l2.24 1.279l-1.621 5.02l1.417 3.065l-1.386 4.301l-6.793 1.056Zm5.466-4.354l1.296-4.069l-1.296 4.07Zm-.958-.311Z"/></svg>