<svg xmlns="http://www.w3.org/2000/svg" width="200" height="200" viewBox="0 0 24 24"><path fill="currentColor" d="m7.992 4.84l-.807-2.403l.823-.277l.807 2.398l-.823.282Zm3.566-1.148V1.308h.884v2.384h-.884Zm4.45 1.148l-.823-.282l.807-2.398l.823.282l-.807 2.398Zm5.4 17.68l-6.793-1.057l-1.386-4.301l1.165-2.231l1.073 3.375l.714-.237l-2.918-9.088l2.002-1.183l4.816 9.183h1.707l-.38 5.538Zm-18.816 0l-.38-5.54h1.707l4.816-9.182l2.002 1.183l-2.918 9.088l.714.237l1.073-3.375l1.165 2.23l-1.386 4.302l-6.793 1.056Z"/></svg>