<svg xmlns="http://www.w3.org/2000/svg" width="200" height="200" viewBox="0 0 24 24"><path fill="currentColor" d="M5.77 19.23h12.46v-1.326q0-.27-.172-.442t-.443-.174H6.385q-.27 0-.443.174t-.173.442v1.327Zm2.684-2.942h7.092l-.69-4.788H9.144l-.69 4.788ZM5.57 20.231q-.341 0-.571-.232q-.23-.233-.23-.576v-1.52q0-.665.475-1.14q.474-.475 1.14-.475h1.07l.684-4.788H6.27q-.212 0-.356-.144T5.769 11t.144-.356q.144-.143.356-.143h11.462q.212 0 .356.144t.144.357t-.144.356q-.144.143-.356.143h-1.87l.685 4.788h1.065q.676 0 1.148.475q.472.474.472 1.14v1.52q0 .343-.231.576q-.231.232-.573.232H5.57ZM8.102 10.5L6.615 3.77q.71.451 1.327.703q.616.252 1.356.252q.827 0 1.501-.272q.674-.272 1.201-.703q.527.43 1.202.703q.675.272 1.48.272q.685 0 1.281-.242q.597-.243 1.44-.714L15.899 10.5h-1.03l1.128-4.998q-.288.096-.63.16q-.341.063-.76.063q-.696 0-1.362-.179q-.667-.179-1.244-.525q-.571.346-1.238.525t-1.364.179q-.411 0-.749-.044t-.626-.14l1.11 4.959H8.102Zm3.898 1Zm.02-1ZM12 19.23Z"/></svg>