<svg xmlns="http://www.w3.org/2000/svg" width="200" height="200" viewBox="0 0 24 24"><path fill="currentColor" d="M5.57 20.23q-.34 0-.57-.23q-.23-.233-.23-.576v-1.52q0-.665.475-1.14q.474-.475 1.14-.475h1.07l.684-4.788H6.27q-.212 0-.356-.144T5.769 11t.144-.356q.144-.143.356-.143h11.462q.212 0 .356.144t.144.357t-.144.356q-.144.143-.356.143h-1.87l.685 4.788h1.065q.676 0 1.148.475q.472.474.472 1.14v1.52q0 .343-.231.576q-.231.232-.573.232H5.57ZM7.912 9.616L6.615 3.77q.71.452 1.327.704q.616.252 1.356.252q.827 0 1.501-.272q.674-.272 1.201-.703q.527.43 1.202.703q.675.272 1.48.272q.685 0 1.281-.242q.597-.243 1.44-.714l-1.309 5.846H7.912Z"/></svg>