<svg xmlns="http://www.w3.org/2000/svg" width="200" height="200" viewBox="0 0 24 24"><path fill="currentColor" d="M20.577 14q-.343 0-.576-.23t-.232-.57v-2.4q0-.34.232-.57t.576-.23h.961q.344 0 .576.23t.232.57v2.4q0 .34-.232.57t-.576.23zm-3.808 1H11q-.515 0-1.024.132q-.509.131-1.23.445q-.879.367-1.48.52T6 16.25q-1.546 0-2.773-.871T2 13.308v-2.616Q2 9.467 3.227 8.61T6 7.75q.665 0 1.266.153t1.48.52q.721.314 1.23.445T11 9h5.77q.666 0 1.14.475q.475.474.475 1.14v2.77q0 .666-.475 1.14q-.474.475-1.14.475M2.884 12.385h.692q.154 0 .27-.116T3.961 12t-.116-.27t-.27-.115h-.691q-.154 0-.27.116T2.5 12t.115.27t.27.115"/></svg>