<svg xmlns="http://www.w3.org/2000/svg" width="200" height="200" viewBox="0 0 24 24"><path fill="currentColor" d="M9.542 19.615q-2.505 0-4.255-1.746q-1.749-1.746-1.749-4.254q0-2.111 1.453-3.917q1.453-1.806 4.047-2.065v-1.04q0-1.174.812-1.98t1.981-.805q.642 0 1.219.282q.576.282.973.772l4.554 5.769l.498-.398l1.929 2.398l-1.789 1.406l-1.903-2.399l.478-.398l-4.573-5.769q-.269-.338-.617-.5q-.349-.163-.761-.163q-.749 0-1.275.516q-.526.516-.526 1.26v1.049q2.595.26 4.048 2.065q1.452 1.806 1.452 3.917q0 2.508-1.745 4.254q-1.745 1.746-4.25 1.746Zm-.004-1q2.075 0 3.538-1.462t1.462-3.538q0-2.075-1.462-3.537T9.538 8.615q-2.075 0-3.537 1.463t-1.463 3.537q0 2.075 1.463 3.538t3.537 1.462Z"/></svg>