<svg xmlns="http://www.w3.org/2000/svg" width="200" height="200" viewBox="0 0 24 24"><path fill="currentColor" d="M18.77 14.115v-4.23h2.538v4.23h-2.539ZM6.924 16.442q-1.588 0-2.91-.952q-1.323-.952-1.323-2.22v-2.54q0-1.268 1.324-2.22q1.325-.952 2.913-.952q.89 0 1.512.208q.622.209 1.151.426q.398.181.769.302q.37.121.793.121h6.77v6.77h-6.77q-.423 0-.793.12q-.37.122-.769.303q-.529.217-1.153.426q-.625.208-1.514.208ZM6.92 14.75q.613 0 1.089-.162t.899-.335q.529-.238 1.058-.4q.529-.16 1.185-.16h5.08v-3.385h-5.08q-.657 0-1.186-.166q-.528-.166-1.057-.394q-.423-.173-.898-.336q-.476-.162-1.088-.162q-.95 0-1.744.438q-.793.439-.793 1.036v.853h.43q.173 0 .295.121t.12.302q0 .18-.12.302t-.294.121h-.431v.853q0 .597.792 1.036q.792.438 1.743.438ZM4.385 12Z"/></svg>