<svg xmlns="http://www.w3.org/2000/svg" width="200" height="200" viewBox="0 0 24 24"><path fill="currentColor" d="M18.77 14.115v-4.23h2.538v4.23h-2.539ZM6.924 16.442q-1.588 0-2.91-.952q-1.323-.952-1.323-2.22v-2.54q0-1.268 1.324-2.22q1.325-.952 2.913-.952q.89 0 1.512.208q.622.209 1.151.426q.398.181.769.302q.37.121.793.121h6.77v6.77h-6.77q-.423 0-.793.12q-.37.122-.769.303q-.529.217-1.153.426q-.625.208-1.514.208Zm-2.972-4.019h.863q.172 0 .294-.121T5.23 12q0-.18-.12-.302t-.294-.121h-.863q-.172 0-.293.121q-.122.121-.122.302t.122.302q.12.121.293.121Z"/></svg>