<svg xmlns="http://www.w3.org/2000/svg" width="200" height="200" viewBox="0 0 24 24"><path fill="currentColor" d="M4.615 4L5.74 6.25q.175.35.5.55t.7.2q.75 0 1.15-.638t.05-1.312L7.615 4h2l1.125 2.25q.175.35.5.55t.7.2q.75 0 1.15-.638t.05-1.312L12.615 4h2l1.125 2.25q.175.35.5.55t.7.2q.75 0 1.15-.638t.05-1.312L17.615 4h1.77q.69 0 1.152.463T21 5.615v12.77q0 .69-.462 1.152T19.385 20H4.615q-.69 0-1.152-.462T3 18.385V5.615q0-.69.463-1.152T4.615 4M4 8v10.385q0 .269.173.442t.442.173h14.77q.269 0 .442-.173t.173-.442V8zm0 0v11zm5.454 9.115h5.092q.3 0 .474-.225t.078-.498q-.096-.232-.282-.42q-.185-.19-.454-.335q-.493-.274-1.074-.398q-.58-.124-1.288-.124t-1.288.124t-1.074.398q-.269.146-.457.334q-.189.189-.285.421q-.115.235.071.48q.187.243.487.243M12 13.5q.633 0 1.066-.434T13.5 12t-.434-1.066T12 10.5t-1.066.434T10.5 12t.434 1.066T12 13.5"/></svg>