<svg xmlns="http://www.w3.org/2000/svg" width="200" height="200" viewBox="0 0 24 24"><path fill="currentColor" d="M11 20.5q-1.548 0-2.916-.587t-2.389-1.608t-1.607-2.389T3.5 13q0-2.54 1.55-4.529t4.015-2.6q.3-.108.558.063t.341.479q.076.283-.097.535t-.448.365Q7.465 7.8 6.233 9.381T5 13q0 2.5 1.75 4.25T11 19q2.038 0 3.644-1.23t2.043-3.208q.107-.281.356-.466t.535-.12q.324.072.503.33t.077.563q-.587 2.489-2.587 4.06T11 20.5m6-18.346q2.02 0 3.433 1.413T21.846 7t-1.413 3.433T17 11.846t-3.433-1.413T12.154 7t1.413-3.433T17 2.154m0 8.192q1.394 0 2.37-.976T20.346 7t-.976-2.37T17 3.654t-2.37.976T13.654 7t.976 2.37t2.37.976m-6.04 2.694"/></svg>