<svg xmlns="http://www.w3.org/2000/svg" width="200" height="200" viewBox="0 0 24 24"><path fill="currentColor" d="M7.885 22L6.154 9h11.711l-1.73 13h-8.25Zm1.403-1h5.424q.23 0 .403-.154q.173-.154.212-.384L16.7 10H7.275l1.398 10.462q.039.23.212.384t.403.154ZM12 15.5q1.038 0 1.77-.73q.73-.732.73-1.77v-1.5h-1V13q0 .617-.441 1.059q-.442.441-1.059.441t-1.059-.441Q10.5 13.617 10.5 13v-1.5h-1V13q0 1.038.73 1.77q.732.73 1.77.73Zm3-8.52q-.413 0-.707-.293Q14 6.394 14 5.981q0-.414.293-.707q.294-.293.707-.293t.707.293q.293.293.293.707q0 .413-.293.707q-.294.293-.707.293Zm-5-1q-.82 0-1.41-.59T8 3.98q0-.838.59-1.418q.59-.581 1.41-.581q.838 0 1.42.58q.58.581.58 1.42q0 .819-.58 1.41q-.582.59-1.42.59ZM14.712 21h-6h6.576h-.576Z"/></svg>