<svg xmlns="http://www.w3.org/2000/svg" width="200" height="200" viewBox="0 0 24 24"><path fill="currentColor" d="M5.615 19q-.69 0-1.152-.462T4 17.385V6.615q0-.69.463-1.152T5.615 5h12.77q.69 0 1.152.463T20 6.615v7q0 .214-.143.357t-.357.143t-.357-.143t-.143-.357v-7q0-.23-.192-.423T18.385 6H5.615q-.23 0-.423.192T5 6.615v10.77q0 .23.192.423t.423.192h9q.214 0 .357.143t.143.357t-.143.357t-.357.143zM19 19h-1.5q-.213 0-.357-.143T17 18.5t.143-.357T17.5 18H19v-1.5q0-.213.143-.357T19.5 16t.357.143t.143.357V18h1.5q.213 0 .357.143T22 18.5t-.143.357Q21.713 19 21.5 19H20v1.5q0 .213-.143.357T19.5 21t-.357-.143Q19 20.713 19 20.5zm-5-4.308h2.23q.445 0 .761-.316t.317-.76v-.128q0-.19-.155-.277t-.365-.088q-.17 0-.268.097q-.097.097-.097.268v.012q0 .135-.086.221q-.087.087-.222.087h-2q-.115 0-.211-.096t-.096-.212v-3q0-.115.096-.212t.211-.096h2q.135 0 .222.087q.086.086.086.221v.05q0 .19.126.316t.316.126t.317-.126t.126-.316v-.165q0-.445-.317-.761t-.76-.316H14q-.444 0-.76.316t-.317.76v3.231q0 .445.316.761t.761.316m-6.23 0H10q.444 0 .76-.316t.317-.76v-.128q0-.19-.155-.277t-.364-.088q-.171 0-.269.097q-.097.097-.097.268v.012q0 .135-.086.221q-.087.087-.221.087h-2q-.116 0-.212-.096t-.096-.212v-3q0-.115.096-.212t.212-.096h2q.134 0 .22.087q.087.086.087.221v.05q0 .19.126.316t.317.126t.316-.126t.126-.316v-.165q0-.445-.316-.761T10 9.308H7.77q-.445 0-.761.316t-.317.76v3.231q0 .445.317.761t.76.316"/></svg>