<svg xmlns="http://www.w3.org/2000/svg" width="200" height="200" viewBox="0 0 24 24"><path fill="currentColor" d="M5.615 19q-.69 0-1.152-.462T4 17.385V6.615q0-.69.463-1.152T5.615 5h12.77q.69 0 1.152.463T20 6.615v7.043q-.25-.048-.5-.048t-.5.048q-.86.092-1.615.455q-.756.362-1.333.939t-.94 1.333T14.659 18q-.043.25-.043.5t.043.5zM19 21v-2h-2v-1h2v-2h1v2h2v1h-2v2zM7.77 14.692H10q.444 0 .76-.316t.317-.76v-.385h-.885v.269q0 .115-.096.212t-.211.096h-2q-.116 0-.212-.096t-.096-.212v-3q0-.115.096-.212t.212-.096h2q.115 0 .211.096t.096.212v.308h.885v-.423q0-.445-.316-.761T10 9.308H7.77q-.445 0-.761.316t-.317.76v3.231q0 .445.317.761t.76.316m6.231 0h2.237q.125-.023.237-.06q.113-.036.232-.124q.08-.05.18-.122t.2-.123q.127-.182.175-.324t.047-.324v-.384h-.885v.269q0 .115-.096.212t-.212.096h-2q-.115 0-.211-.096t-.096-.212v-3q0-.115.096-.212t.211-.096h2q.116 0 .212.096t.096.212v.308h.885v-.423q0-.445-.317-.761t-.76-.316H14q-.444 0-.76.316t-.317.76v3.231q0 .445.316.761t.761.316"/></svg>