<svg xmlns="http://www.w3.org/2000/svg" width="200" height="200" viewBox="0 0 24 24"><path fill="currentColor" d="M7.817 5h10.568q.69 0 1.152.463q.463.462.463 1.152v10.568l-1-1V6.615q0-.269-.173-.442T18.385 6H8.817l-1-1Zm8.606 8.577v-.212q0-.142.121-.244t.264-.102h.115q.162 0 .273.112q.112.111.112.254v.327q0 .148-.069.283t-.166.26l-.679-.678h.03ZM14 9.307h2.23q.445 0 .761.317q.317.316.317.76v.241q0 .142-.102.254q-.102.111-.283.111h-.115q-.181 0-.283-.111q-.102-.112-.102-.254V10.5q0-.115-.096-.212q-.096-.096-.212-.096h-2q-.115 0-.211.096q-.096.097-.096.212v.49l-.846-.846v-.029q.096-.348.383-.578q.288-.23.655-.23Zm-.088 1.781Zm-3.024 1.216ZM9.313 9.308l.885.884H7.885q-.116 0-.212.096q-.096.097-.096.212v3q0 .115.096.212q.096.096.212.096h2q.115 0 .211-.096q.096-.097.096-.212v-.125q0-.142.102-.263q.102-.122.283-.122h.115q.181 0 .283.122q.102.12.102.263v.24q0 .445-.316.761q-.317.316-.761.316H7.77q-.445 0-.761-.316q-.317-.316-.317-.76v-3.231q0-.445.317-.761q.316-.316.76-.316h1.544Zm-4.228-4.23l.92.922h-.39q-.23 0-.423.192Q5 6.385 5 6.615v10.77q0 .23.192.423q.193.192.423.192H16.58L2.24 3.662q-.146-.147-.155-.348q-.01-.2.155-.366q.166-.165.357-.165q.191 0 .357.165l18.515 18.515q.146.147.156.345q.01.198-.156.363q-.165.166-.356.166t-.357-.166L17.579 19H5.615q-.69 0-1.152-.462Q4 18.075 4 17.385V6.615q0-.548.299-.968q.3-.42.786-.568Z"/></svg>