<svg xmlns="http://www.w3.org/2000/svg" width="200" height="200" viewBox="0 0 24 24"><path fill="currentColor" d="M5.5 12.077q0 1.522.643 2.804q.644 1.282 2.28 2.723v-2.527q0-.213.144-.356t.357-.144q.213 0 .356.144q.143.143.143.356v3.461q0 .344-.232.576q-.232.232-.576.232H5.154q-.213 0-.356-.144q-.144-.144-.144-.357q0-.212.144-.356q.143-.143.356-.143h2.59q-1.794-1.561-2.519-3.073q-.725-1.511-.725-3.187q0-2.211 1.151-4.024q1.15-1.814 2.991-2.756q.196-.104.408-.042t.279.27q.067.208-.028.4q-.095.193-.272.297q-1.592.813-2.56 2.383q-.969 1.57-.969 3.463ZM15 19.5q-1.02 0-1.76-.74T12.5 17q0-1.003.68-1.724q.682-.72 1.805-.77q.367-.881 1.147-1.444q.78-.562 1.868-.562q1.229 0 2.134.814q.904.815 1.047 2.186h.307q.839 0 1.425.571q.587.571.587 1.396q0 .846-.58 1.44t-1.42.593H15Zm3.4-8.77q-.252-1.14-.838-2.092q-.587-.951-1.985-2.223v2.508q0 .213-.144.356t-.357.144q-.213 0-.356-.144q-.143-.143-.143-.356V5.462q0-.344.232-.576q.232-.232.576-.232h3.461q.213 0 .356.144q.144.144.144.357q0 .212-.144.356q-.143.143-.356.143h-2.59q1.594 1.411 2.253 2.61q.658 1.198.897 2.467H18.4Z"/></svg>