<svg xmlns="http://www.w3.org/2000/svg" width="200" height="200" viewBox="0 0 24 24"><path fill="currentColor" d="M8.115 16h10.77q.23 0 .423-.192q.192-.193.192-.423V4.615q0-.23-.192-.423Q19.115 4 18.885 4H17.5v6.115l-2-1.192l-2 1.192V4H8.115q-.23 0-.423.192q-.192.193-.192.423v10.77q0 .23.192.423q.193.192.423.192Zm0 1q-.69 0-1.152-.462q-.463-.463-.463-1.153V4.615q0-.69.463-1.152Q7.425 3 8.114 3h10.77q.69 0 1.152.463q.463.462.463 1.152v10.77q0 .69-.462 1.153q-.463.462-1.153.462H8.115Zm-3 3q-.69 0-1.152-.462q-.463-.463-.463-1.153V6.615h1v11.77q0 .23.192.423q.193.192.423.192h11.77v1H5.115ZM13.5 4h4h-4ZM8.115 4H7.5h12H8.115Z"/></svg>