<svg xmlns="http://www.w3.org/2000/svg" width="200" height="200" viewBox="0 0 24 24"><path fill="currentColor" d="M4.615 17q-.69 0-1.152-.462Q3 16.075 3 15.385V4.805q0-.095.01-.172q.01-.077.028-.173l-.798-.798q-.146-.147-.155-.348q-.01-.2.155-.366q.166-.165.357-.165q.191 0 .357.165l18.515 18.515q.146.147.156.345q.01.198-.156.363q-.165.166-.356.166t-.357-.166L15.579 17H4.615ZM21 18.183L18.817 16H20V4.615q0-.269-.173-.442T19.385 4H6.817l-1-1h13.568q.69 0 1.152.463q.463.462.463 1.152v13.568ZM4.615 16h9.964l-2.5-2.5H7q-.213 0-.356-.144Q6.5 13.212 6.5 13t.144-.356Q6.788 12.5 7 12.5h4.079l-2-2H7q-.213 0-.356-.144Q6.5 10.212 6.5 10t.144-.356Q6.788 9.5 7 9.5h1.587v.508L4 5.42v9.964q0 .269.173.442t.442.173Zm11.702-2.5l-1-1H17q.213 0 .356.144q.144.144.144.357t-.144.356q-.143.143-.356.143h-.683Zm-3-3l-1-1H17q.213 0 .356.144q.144.144.144.357t-.144.356q-.143.143-.356.143h-3.683Zm-3-3l-1-1H17q.213 0 .356.144q.144.144.144.357t-.144.356Q17.213 7.5 17 7.5h-6.683Zm-1.025 3.208Zm3.987-.246Z"/></svg>