<svg xmlns="http://www.w3.org/2000/svg" width="200" height="200" viewBox="0 0 24 24"><path fill="currentColor" d="M4.615 17q-.69 0-1.152-.462Q3 16.075 3 15.385V4.805q0-.095.01-.172q.01-.077.028-.173L1.887 3.308l.713-.714l19.223 19.223l-.713.714L15.579 17H4.615ZM21 18.183L18.817 16H20V4.615q0-.269-.173-.442T19.385 4H6.817l-1-1h13.568q.69 0 1.152.463q.463.462.463 1.152v13.568ZM4.615 16h9.964l-2.5-2.5H6.5v-1h4.579l-2-2H6.5v-1h1.579L4 5.421v9.964q0 .269.173.442t.442.173Zm11.702-2.5l-1-1H17.5v1h-1.183Zm-3-3l-1-1H17.5v1h-4.183Zm-3-3l-1-1H17.5v1h-7.183Zm-1.025 3.208Zm3.987-.246Z"/></svg>