<svg xmlns="http://www.w3.org/2000/svg" width="200" height="200" viewBox="0 0 24 24"><path fill="currentColor" d="m20.756 22.171l-3.154-3.148q-1.162.935-2.578 1.456T12 21q-1.863 0-3.506-.71t-2.857-1.927t-1.926-2.857T3 12q0-1.608.521-3.024t1.456-2.578L2.24 3.662q-.146-.147-.153-.348t.16-.366t.356-.165t.357.165l18.51 18.515q.145.147.155.345t-.156.363t-.356.166t-.357-.166M12 20q1.394 0 2.628-.454t2.249-1.248L12 13.421zm9-8q0 1.125-.257 2.175t-.74 1.98q-.097.183-.305.226t-.385-.062t-.234-.305t.04-.383q.44-.821.66-1.734Q20 12.985 20 12q0-3.325-2.337-5.663T12 4v4.213q0 .274-.252.37t-.444-.096L8.162 5.344q-.374-.373-.286-.885t.547-.73q.829-.362 1.723-.545T12 3q1.863 0 3.506.71t2.857 1.927t1.926 2.857T21 12"/></svg>