<svg xmlns="http://www.w3.org/2000/svg" width="200" height="200" viewBox="0 0 24 24"><path fill="currentColor" d="M14.192 11.192h6.616V6.577h-6.616v4.615Zm3.308-1.134l-2.462-1.712v-.884L17.5 9.173l2.462-1.711v.884L17.5 10.058ZM2.615 19.615q-.69 0-1.153-.462Q1 18.69 1 18V6q0-.69.463-1.153t1.152-.462h18.77q.69 0 1.152.462Q23 5.31 23 6v12q0 .69-.463 1.153t-1.152.462H2.615ZM9 14.231q1.038 0 1.77-.731q.73-.73.73-1.77q0-1.038-.73-1.768Q10.037 9.23 9 9.23t-1.77.73q-.73.731-.73 1.77q0 1.038.73 1.769q.732.73 1.77.73Zm-5.785 4.384h11.57q-1.05-1.355-2.554-2.177q-1.504-.823-3.231-.823t-3.23.822q-1.505.823-2.555 2.178Z"/></svg>