<svg xmlns="http://www.w3.org/2000/svg" width="200" height="200" viewBox="0 0 24 24"><path fill="currentColor" d="M6 21q-.846 0-1.423-.577Q4 19.846 4 19v-1.154q0-.666.475-1.14q.474-.475 1.14-.475H7V4.615q0-.666.475-1.14Q7.949 3 8.615 3h9.77q.666 0 1.14.475q.475.474.475 1.14V19q0 .846-.577 1.423Q18.846 21 18 21H6Zm12-1q.425 0 .713-.288T19 19V4.615q0-.269-.173-.442T18.385 4h-9.77q-.269 0-.442.173T8 4.615v11.616h7.385q.666 0 1.14.474q.475.475.475 1.141V19q0 .425.288.713T18 20ZM9.885 8.385q-.213 0-.357-.144t-.143-.357q0-.213.143-.356q.144-.143.357-.143h7.23q.213 0 .357.144q.143.144.143.356q0 .213-.143.356q-.144.144-.357.144h-7.23Zm0 2.769q-.213 0-.357-.144t-.143-.357q0-.213.143-.356q.144-.143.357-.143h7.23q.213 0 .357.144q.143.144.143.357q0 .212-.143.356q-.144.143-.357.143h-7.23ZM6 20h10v-2.154q0-.27-.173-.442t-.442-.173h-9.77q-.269 0-.442.173T5 17.846V19q0 .425.288.713T6 20Zm0 0H5h11H6Z"/></svg>