<svg xmlns="http://www.w3.org/2000/svg" width="200" height="200" viewBox="0 0 24 24"><path fill="currentColor" d="M9.385 8.385v-1h8.23v1h-8.23Zm0 2.769v-1h8.23v1h-8.23ZM11.846 20H5h6.846Zm0 1H6q-.846 0-1.423-.577Q4 19.846 4 19v-2.77h3V3h13v7.89q-.27.008-.513.057q-.243.05-.487.14V4H8v12.23h5.346l-1 1H5V19q0 .425.288.713T6 20h5.846v1Zm2.385 0v-2.21l5.332-5.307q.149-.148.308-.2q.16-.052.32-.052q.165 0 .334.064t.298.193l.925.945q.123.148.188.307q.064.16.064.32t-.062.322q-.061.162-.19.31L16.44 21h-2.21Zm6.884-5.94l-.925-.945l.925.945Zm-6 5.055h.95l3.468-3.473l-.47-.475l-.455-.488l-3.493 3.486v.95Zm3.948-3.948l-.455-.488l.925.963l-.47-.475Z"/></svg>