<svg xmlns="http://www.w3.org/2000/svg" width="200" height="200" viewBox="0 0 24 24"><path fill="currentColor" d="M14.192 11.192h6.616V6.577h-6.616v4.615Zm3.308-1.134l-2.462-1.712v-.884L17.5 9.173l2.462-1.711v.884L17.5 10.058ZM1 19.615V4.385h22v15.23H1Zm7.998-5.384q1.04 0 1.771-.729q.731-.728.731-1.769q0-1.04-.729-1.771T9.002 9.23q-1.04 0-1.771.728q-.731.729-.731 1.77q0 1.04.729 1.771t1.769.73Zm-5.783 4.384h11.57q-1.05-1.355-2.554-2.177q-1.504-.823-3.231-.823t-3.23.822q-1.505.823-2.555 2.178Z"/></svg>