<svg xmlns="http://www.w3.org/2000/svg" width="200" height="200" viewBox="0 0 24 24"><path fill="currentColor" d="m19.096 18.81l-2.125 2.119l-.708-.708l2.12-2.125l-2.12-2.125l.708-.708l2.125 2.12l2.125-2.12l.708.708l-2.12 2.125l2.12 2.125l-.708.708l-2.125-2.12ZM6 21q-.846 0-1.423-.577Q4 19.846 4 19v-2.77h3V3h13v9.298q-.244-.06-.494-.08q-.25-.02-.506-.02V4H8v12.23h5.523q-.079.245-.137.485q-.06.24-.098.516H5V19q0 .425.288.713T6 20h7.523q.085.287.221.527q.137.24.287.473H6ZM9.385 8.385v-1h8.23v1h-8.23Zm0 2.769v-1h8.23v1h-8.23ZM13.523 20H5h8.288h-.06h.295Z"/></svg>