<svg xmlns="http://www.w3.org/2000/svg" width="200" height="200" viewBox="0 0 24 24"><path fill="currentColor" d="M9.885 7.385h7.23q.213 0 .357.144q.143.144.143.356q0 .213-.143.356q-.144.144-.357.144h-7.23q-.213 0-.357-.144t-.143-.357q0-.213.143-.356q.144-.143.357-.143Zm0 2.769h7.23q.213 0 .357.144q.143.144.143.357q0 .212-.143.356q-.144.143-.357.143h-7.23q-.213 0-.357-.144t-.143-.357q0-.213.143-.356q.144-.143.357-.143ZM11.846 20H5h6.846Zm0 1H6q-.846 0-1.423-.577Q4 19.846 4 19v-1.962q0-.343.232-.575q.232-.232.576-.232H7V4.615q0-.666.475-1.14Q7.949 3 8.615 3h9.77q.666 0 1.14.475q.475.474.475 1.14v6.275q-.27.008-.513.057q-.243.05-.487.14V4.615q0-.269-.173-.442T18.385 4h-9.77q-.269 0-.442.173T8 4.615v11.616h5.346l-1 1H5V19q0 .425.288.713T6 20h5.846v1Zm2.385-.808V19.12q0-.153.056-.297q.055-.143.186-.274l5.09-5.065q.149-.148.306-.2t.315-.052q.172 0 .338.064q.165.065.301.193l.925.945q.123.148.188.307q.064.16.064.32t-.062.322q-.061.162-.19.31l-5.065 5.066q-.131.13-.275.186q-.143.056-.296.056h-1.074q-.343 0-.575-.232q-.232-.232-.232-.576Zm6.884-5.132l-.925-.945l.925.945Zm-6 5.055h.95l3.468-3.473l-.47-.475l-.455-.488l-3.493 3.486v.95Zm3.948-3.948l-.455-.488l.925.963l-.47-.475Z"/></svg>