<svg xmlns="http://www.w3.org/2000/svg" width="200" height="200" viewBox="0 0 24 24"><path fill="currentColor" d="M11.846 21H6q-.846 0-1.423-.577Q4 19.846 4 19v-1.962q0-.343.232-.575q.232-.232.576-.232H7V4.615q0-.666.475-1.14Q7.949 3 8.615 3h9.77q.666 0 1.14.475q.475.474.475 1.14v6.256q-.27.008-.513.057t-.487.14V4.614q0-.269-.173-.442T18.385 4h-9.77q-.269 0-.442.173T8 4.615v11.616h5.346l-1.021 1.02q-.217.218-.348.519q-.13.3-.13.632V21Zm2.385-.808V19.12q0-.161.056-.304q.055-.142.186-.267l5.09-5.065q.149-.13.306-.19q.158-.062.315-.062q.172 0 .338.064q.165.065.301.193l.925.945q.123.148.188.307q.064.16.064.32t-.052.322t-.2.31l-5.068 5.069q-.122.122-.265.18q-.142.059-.303.059h-1.074q-.343 0-.575-.232q-.232-.232-.232-.576Zm5.96-4.177l.924-.955l-.925-.945l-.95.95l.95.95ZM9.884 10.154h7.23q.213 0 .357.144q.143.144.143.357q0 .212-.143.356q-.144.143-.357.143h-7.23q-.213 0-.357-.144t-.143-.357q0-.213.143-.356q.144-.143.357-.143Zm0-2.77h7.23q.213 0 .357.145q.143.143.143.356t-.143.356q-.144.144-.357.144h-7.23q-.213 0-.357-.144t-.143-.357q0-.213.143-.356q.144-.143.357-.143Z"/></svg>