<svg xmlns="http://www.w3.org/2000/svg" width="200" height="200" viewBox="0 0 24 24"><path fill="currentColor" d="M5.615 20q-.69 0-1.152-.462T4 18.385V5.615q0-.69.463-1.152T5.615 4h12.77q.69 0 1.152.463T20 5.615v12.77q0 .69-.462 1.152T18.385 20zm0-1h12.77q.23 0 .423-.192t.192-.423V5.615q0-.115-.048-.22t-.144-.203L5.192 18.808q.096.096.202.144t.221.048m2.673-9.827v1.558q0 .191.126.317t.316.125t.317-.125t.126-.317V9.173h1.558q.191 0 .317-.125q.125-.125.125-.316q0-.192-.125-.318t-.317-.126H9.173V6.731q0-.192-.125-.317q-.125-.126-.316-.126q-.192 0-.318.126t-.126.317v1.557H6.731q-.192 0-.317.126t-.126.316t.126.317t.317.126zm8.256 6.423h-3.5q-.191 0-.317-.125q-.125-.125-.125-.316q0-.192.125-.317q.126-.126.317-.126h3.5q.192 0 .317.125t.126.316t-.126.317t-.317.126"/></svg>