<svg xmlns="http://www.w3.org/2000/svg" width="200" height="200" viewBox="0 0 24 24"><path fill="currentColor" d="m19.096 18.81l-1.771 1.765q-.14.14-.341.153q-.201.012-.367-.153q-.16-.16-.16-.354t.16-.354l1.766-1.77l-1.766-1.772q-.14-.14-.153-.341q-.012-.201.153-.367q.16-.16.354-.16t.354.16l1.771 1.766l1.771-1.766q.14-.14.342-.153q.2-.012.366.153q.16.16.16.354t-.16.354l-1.765 1.771l1.765 1.771q.14.14.153.342q.012.2-.153.366q-.16.16-.354.16t-.354-.16l-1.77-1.765ZM6 21q-.846 0-1.423-.577Q4 19.846 4 19v-1.154q0-.671.472-1.143t1.143-.472H7V4.615q0-.67.472-1.143Q7.944 3 8.615 3h9.77q.67 0 1.143.472q.472.472.472 1.143v7.683q-.244-.06-.494-.08q-.25-.02-.506-.02V4.615q0-.269-.173-.442T18.385 4h-9.77q-.269 0-.442.173T8 4.615v11.616h5.523q-.079.244-.137.484q-.06.24-.098.516H5.615q-.269 0-.442.173T5 17.846V19q0 .425.288.713T6 20h7.523q.085.287.221.527q.137.24.287.473H6Zm7.523-1H5h8.288h-.06h.295ZM9.885 8.385q-.214 0-.357-.144q-.143-.143-.143-.356q0-.214.143-.357t.357-.143h7.23q.214 0 .357.143t.143.357q0 .213-.143.356q-.143.144-.357.144h-7.23Zm0 2.769q-.214 0-.357-.143q-.143-.144-.143-.357q0-.214.143-.357t.357-.143h7.23q.214 0 .357.143t.143.357q0 .213-.143.357q-.143.143-.357.143h-7.23Z"/></svg>