<svg xmlns="http://www.w3.org/2000/svg" width="200" height="200" viewBox="0 0 24 24"><path fill="currentColor" d="M4.5 21.385v-1h15v1h-15Zm0-17.77v-1h15v1h-15ZM11.998 14q1.04 0 1.771-.729q.731-.728.731-1.769q0-1.04-.729-1.771Q13.043 9 12.002 9t-1.771.729q-.731.728-.731 1.769q0 1.04.729 1.771t1.769.731ZM3 19V5h18v14H3Zm4.058-1q1.125-1.015 2.36-1.508Q10.651 16 12 16q1.348 0 2.583.492q1.234.493 2.36 1.508H20V6H4v12h3.058ZM8.7 18h6.6q-.725-.5-1.563-.75T12 17q-.9 0-1.738.25T8.7 18Zm3.3-5q-.617 0-1.059-.441q-.441-.442-.441-1.059t.441-1.059Q11.383 10 12 10t1.059.441q.441.442.441 1.059t-.441 1.059Q12.617 13 12 13Zm0-1Z"/></svg>