<svg xmlns="http://www.w3.org/2000/svg" width="200" height="200" viewBox="0 0 24 24"><path fill="currentColor" d="M11.998 17.5q2.29 0 3.896-1.604q1.606-1.603 1.606-3.894q0-2.29-1.604-3.896Q14.293 6.5 12.002 6.5T8.106 8.104Q6.5 9.707 6.5 11.998t1.604 3.896Q9.707 17.5 11.998 17.5Zm-.002-1q-1.858 0-3.177-1.323T7.5 11.997q0-1.859 1.323-3.178t3.18-1.319q1.859 0 3.178 1.323t1.319 3.18q0 1.859-1.323 3.178t-3.18 1.319ZM12 12.708l2.108-2.108l-.708-.708L11.292 12l.708.708ZM4 20V4h16v16H4Zm1-1h14V5H5v14ZM5 5v14V5Z"/></svg>