<svg xmlns="http://www.w3.org/2000/svg" width="200" height="200" viewBox="0 0 24 24"><path fill="currentColor" d="M1 19.615V4.385h22v15.23H1Zm7.998-5.384q1.04 0 1.771-.729q.731-.728.731-1.769q0-1.04-.729-1.771T9.002 9.23q-1.04 0-1.771.728q-.731.729-.731 1.77q0 1.04.729 1.771t1.769.73Zm-5.783 4.384h11.57q-1.05-1.355-2.554-2.177q-1.504-.823-3.231-.823t-3.23.822q-1.505.823-2.555 2.178Zm15.093-1.192l1.615-1.615l-1.23-1.654h-1.728q-.188-.566-.269-1.078q-.08-.513-.08-1.076q0-.563.08-1.051q.08-.487.27-1.103h1.726l1.231-1.654l-1.615-1.615q-1.216.992-1.896 2.412q-.681 1.42-.681 3.011t.68 3.01q.681 1.42 1.897 2.413Z"/></svg>