<svg xmlns="http://www.w3.org/2000/svg" width="200" height="200" viewBox="0 0 24 24"><path fill="currentColor" d="M10 19.27v-1.885q0-.27-.173-.443t-.442-.173H3.5v-1h5.885q.67 0 1.143.472q.472.472.472 1.144v1.884h-1Zm3 0v-1.885q0-.672.472-1.144q.472-.472 1.143-.472H20.5v1h-5.885q-.269 0-.442.173t-.173.443v1.884h-1ZM6.5 14q-1.038 0-1.77-.73Q4 12.537 4 11.5V8.692h16V11.5q0 1.038-.73 1.77q-.732.73-1.77.73h-11Zm0-1h11q.617 0 1.059-.441Q19 12.117 19 11.5V9.692H5V11.5q0 .617.441 1.059Q5.883 13 6.5 13ZM4 6.923v-1h5.5V5.5q0-.348.23-.578q.23-.23.578-.23h3.384q.348 0 .578.23q.23.23.23.578v.423H20v1H4ZM5 13V9.692V13Z"/></svg>