<svg xmlns="http://www.w3.org/2000/svg" width="200" height="200" viewBox="0 0 24 24"><path fill="currentColor" d="M4 17.423v-1.23h1.23v1.23H4Zm0-3.577v-1.23h1.23v1.23H4Zm0-3.577V9.04h1.23v1.23H4ZM7.577 21v-1.23h1.23V21h-1.23Zm1.73-3.692q-.69 0-1.152-.463t-.463-1.153V4.615q0-.69.463-1.153Q8.617 3 9.308 3h8.077q.69 0 1.152.463q.463.462.463 1.152v11.077q0 .69-.463 1.153t-1.152.463H9.308ZM11.155 21v-1.23h1.23V21h-1.23ZM5.23 21q-.508 0-.87-.362Q4 20.277 4 19.77h1.23V21Zm9.5 0v-1.23h1.23q0 .517-.361.873q-.362.357-.87.357ZM4 6.692q0-.507.362-.869q.361-.361.869-.361v1.23H4Z"/></svg>