<svg xmlns="http://www.w3.org/2000/svg" width="200" height="200" viewBox="0 0 24 24"><path fill="currentColor" d="M4 8.808h16V6.615q0-.23-.192-.423Q19.615 6 19.385 6H4.615q-.23 0-.423.192Q4 6.385 4 6.615v2.193ZM3 6.615q0-.69.463-1.152Q3.925 5 4.615 5h14.77q.69 0 1.152.463q.463.462.463 1.152v4.577H4v6.193q0 .23.192.423q.193.192.423.192h4.658v1H4.615q-.69 0-1.152-.462Q3 18.075 3 17.385V6.615Zm11.642 13.923l-3.557-3.557l.707-.708l2.85 2.839l5.689-5.689l.707.72l-6.396 6.395ZM4 6.615v10.77q0 .23.192.423q.193.192.423.192H4v-4.558v2.845V6h.615q-.23 0-.423.192Q4 6.385 4 6.615Z"/></svg>