<svg xmlns="http://www.w3.org/2000/svg" width="200" height="200" viewBox="0 0 24 24"><path fill="currentColor" d="M9.25 16.73v3.058q0 .505.353.859q.354.353.859.353h3.057q.505 0 .858-.353q.354-.354.354-.859v-3.057q0-.505-.354-.858q-.353-.354-.858-.354h-3.057q-.505 0-.859.354q-.353.353-.353.858Zm-.77-3.192v-3.057q0-.505-.353-.858q-.353-.354-.858-.354H4.212q-.505 0-.859.354Q3 9.976 3 10.48v3.057q0 .505.353.859q.354.353.859.353h3.057q.505 0 .858-.353q.354-.354.354-.859Zm1.982 1.212h3.057q.505 0 .858-.353q.354-.354.354-.859v-3.057q0-.505-.354-.858q-.353-.354-.858-.354h-3.057q-.505 0-.859.354q-.353.353-.353.858v3.057q0 .505.353.859q.354.353.859.353Zm6.25 0h3.076q.505 0 .859-.353q.353-.354.353-.859v-3.057q0-.505-.353-.858q-.354-.354-.859-.354h-3.076q-.505 0-.859.354q-.353.353-.353.858v3.057q0 .505.353.859q.354.353.859.353Zm0-6.25h3.076q.505 0 .859-.353q.353-.354.353-.859V4.212q0-.505-.353-.859Q20.293 3 19.788 3h-3.076q-.505 0-.859.353q-.353.354-.353.859v3.076q0 .505.353.859q.354.353.859.353Z"/></svg>