<svg xmlns="http://www.w3.org/2000/svg" width="200" height="200" viewBox="0 0 24 24"><path fill="currentColor" d="M3 20v-1h2V4h14v15h2v1H3Zm3-1h4.43q-.2-1.942-1.284-3.884Q8.062 13.175 6 12.631V19ZM6 5v6.37q2.062-.545 3.146-2.486Q10.231 6.942 10.431 5H6Zm1.11 7q1.988.856 3.067 2.883Q11.256 16.91 11.45 19h1.1q.194-2.09 1.273-4.117T16.89 12q-2.007-.856-3.086-2.883Q12.725 7.09 12.53 5h-1.08q-.194 2.09-1.273 4.117T7.11 12ZM18 5h-4.45q.2 1.942 1.285 3.884q1.084 1.941 3.165 2.485V5Zm0 14v-6.37q-2.08.545-3.153 2.486q-1.072 1.942-1.272 3.884H18ZM6 5v6.37V5Zm12 0v6.37V5Zm0 14v-6.37V19ZM6 19v-6.37V19Z"/></svg>