<svg xmlns="http://www.w3.org/2000/svg" width="200" height="200" viewBox="0 0 24 24"><path fill="currentColor" d="M12.5 19v1.5q0 .213-.144.356Q12.212 21 12 21t-.356-.144q-.143-.143-.143-.356v-4q0-.213.144-.356Q11.788 16 12 16t.356.144q.143.144.143.356V18h7q.213 0 .356.144T20 18.5q0 .212-.144.356q-.143.143-.356.143h-7Zm-8 0q-.213 0-.356-.144Q4 18.712 4 18.5t.144-.356Q4.288 18 4.5 18h4.115q.213 0 .357.144t.143.357q0 .212-.143.356q-.144.143-.357.143H4.5Zm5.062-7.633h4.882l.946 2.7q.062.16.177.239q.116.079.279.079q.271 0 .408-.214q.136-.213.052-.458l-3.77-10.448q-.051-.122-.154-.194Q12.278 3 12.144 3h-.294q-.127 0-.23.071t-.157.194L7.688 13.72q-.078.244.055.455q.134.21.4.21q.174 0 .287-.078t.18-.244l.952-2.695Zm.33-.936l2.058-5.802h.1l2.058 5.802H9.892Z"/></svg>