<svg xmlns="http://www.w3.org/2000/svg" width="200" height="200" viewBox="0 0 24 24"><path fill="currentColor" d="M13.5 8.183V4.817q0-.357.234-.587q.234-.23.58-.23h4.88q.346 0 .576.23q.23.23.23.587v3.366q0 .357-.234.587q-.234.23-.58.23h-4.88q-.346 0-.576-.23q-.23-.23-.23-.587ZM4 11.2V4.8q0-.34.234-.57q.234-.23.58-.23h4.88q.346 0 .576.23q.23.23.23.57v6.4q0 .34-.234.57q-.234.23-.58.23h-4.88q-.346 0-.576-.23Q4 11.54 4 11.2Zm9.5 8v-6.4q0-.34.234-.57q.234-.23.58-.23h4.88q.346 0 .576.23q.23.23.23.57v6.4q0 .34-.234.57q-.234.23-.58.23h-4.88q-.346 0-.576-.23q-.23-.23-.23-.57ZM4 19.183v-3.366q0-.357.234-.587q.234-.23.58-.23h4.88q.346 0 .576.23q.23.23.23.587v3.366q0 .357-.234.587q-.234.23-.58.23h-4.88q-.346 0-.576-.23q-.23-.23-.23-.587ZM5 11h4.5V5H5v6Zm9.5 8H19v-6h-4.5v6Zm0-11H19V5h-4.5v3ZM5 19h4.5v-3H5v3Zm4.5-8Zm5-3Zm0 5Zm-5 3Z"/></svg>