<svg xmlns="http://www.w3.org/2000/svg" width="200" height="200" viewBox="0 0 24 24"><path fill="currentColor" d="M4 19V3h16v8.254q-.11-.012-.216-.017q-.105-.006-.226-.006H19V4H5v14h3.446q.062.28.138.521q.076.24.178.479H4Zm1-2v1V4v13Zm2.5-1.5h1.042q.258-.898.74-1.666q.483-.769 1.168-1.334H7.5v3Zm0-6h3v-3h-3v3ZM14 20q-1.238 0-2.119-.881T11 17q0-1.238.881-2.119T14 14h1.808v1H14q-.825 0-1.413.588T12 17q0 .825.588 1.413T14 19h1.808v1H14Zm-.5-10.5h3v-3h-3v3Zm.5 8v-1h6v1h-6Zm4.192 2.5v-1H20q.825 0 1.413-.588T22 17q0-.825-.588-1.413T20 15h-1.808v-1H20q1.238 0 2.119.874T23 17.006q0 1.24-.881 2.117T20 20h-1.808Z"/></svg>