<svg xmlns="http://www.w3.org/2000/svg" width="200" height="200" viewBox="0 0 24 24"><path fill="currentColor" d="M5.615 19q-.69 0-1.152-.462Q4 18.075 4 17.385V4.615q0-.69.463-1.152Q4.925 3 5.615 3h12.77q.69 0 1.152.463q.463.462.463 1.152v6.633q-.197-.011-.384-.014q-.187-.003-.385-.003h-5.5q-1.002 0-1.878.33q-.876.33-1.601.939H8.308q-.344 0-.576.232q-.232.232-.232.576v1.384q0 .344.232.576q.232.232.576.232h.036q-.107.365-.149.738q-.041.372-.041.762q0 .522.113 1.02q.114.497.302.98H5.615ZM14 20q-1.238 0-2.119-.881T11 17q0-1.238.881-2.119T14 14h1.308q.212 0 .356.144t.144.357q0 .212-.144.356q-.144.143-.356.143H14q-.825 0-1.413.588T12 17q0 .825.588 1.413T14 19h1.308q.212 0 .356.144t.144.357q0 .212-.144.356q-.144.143-.356.143H14Zm.5-2.5q-.213 0-.356-.144Q14 17.212 14 17t.144-.356q.144-.143.356-.143h5q.213 0 .356.144q.144.144.144.357t-.144.356q-.143.143-.356.143h-5ZM20 20h-1.308q-.212 0-.356-.144t-.144-.357q0-.212.144-.356q.144-.143.356-.143H20q.825 0 1.413-.588T22 17q0-.825-.588-1.413T20 15h-1.308q-.212 0-.356-.144t-.144-.357q0-.212.144-.356q.144-.143.356-.143H20q1.238 0 2.119.874T23 17.006q0 1.24-.881 2.117T20 20ZM7.5 7.308v1.384q0 .344.232.576q.232.232.576.232h1.384q.344 0 .576-.232q.232-.232.232-.576V7.308q0-.344-.232-.576q-.232-.232-.576-.232H8.308q-.344 0-.576.232q-.232.232-.232.576ZM14.308 9.5h1.384q.344 0 .576-.232q.232-.232.232-.576V7.308q0-.344-.232-.576q-.232-.232-.576-.232h-1.384q-.344 0-.576.232q-.232.232-.232.576v1.384q0 .344.232.576q.232.232.576.232Z"/></svg>