<svg xmlns="http://www.w3.org/2000/svg" width="200" height="200" viewBox="0 0 24 24"><path fill="currentColor" d="M12 21q-1.863 0-3.506-.71t-2.857-1.927Q4.42 17.148 3.71 15.506Q3 13.863 3 12q0-3.471 2.287-6.013Q7.573 3.444 11 3.05v1.23q-2.927.39-4.848 2.585Q4.23 9.062 4.23 12q0 3.252 2.258 5.51T12 19.77q1.83 0 3.46-.782q1.63-.78 2.732-2.242l1.062.654q-1.31 1.72-3.204 2.66Q14.156 21 12 21Zm8.265-5.45l-1.061-.615q.321-.702.443-1.436T19.77 12q0-2.938-1.92-5.144Q15.926 4.65 13 4.28V3.05q3.446.317 5.723 2.898T21 12q0 .915-.168 1.815q-.169.9-.567 1.735Z"/></svg>