<svg xmlns="http://www.w3.org/2000/svg" width="200" height="200" viewBox="0 0 24 24"><path fill="currentColor" d="M5.615 20q-.67 0-1.143-.472Q4 19.056 4 18.385V5.615q0-.67.472-1.143Q4.944 4 5.615 4h12.77q.67 0 1.143.472q.472.472.472 1.143v12.77q0 .67-.472 1.143q-.472.472-1.143.472H5.615Zm9.708-1h1.24L19 16.563V16h-.677l-3 3ZM7.65 13.288l3.025-3l2 2L17.038 7.9l-.688-.688l-3.675 3.675l-2-2L6.962 12.6l.688.688ZM5.365 19h.197l3-3h-1.24L5 18.321q.058.24.125.368t.24.311Zm7.545 0l3-3h-1.24l-3 3h1.24Zm-3.648 0l3-3h-1.24l-3 3h1.24Z"/></svg>