<svg xmlns="http://www.w3.org/2000/svg" width="200" height="200" viewBox="0 0 24 24"><path fill="currentColor" d="M4 19V3h16v8.248q-.197-.011-.384-.014q-.187-.003-.385-.003h-5.5q-1.002 0-1.878.33q-.876.33-1.601.939H7.5v3h.844q-.107.365-.149.738q-.041.372-.041.762q0 .522.113 1.02q.114.497.302.98H4Zm3.5-9.5h3v-3h-3v3ZM14 20q-1.238 0-2.119-.881T11 17q0-1.238.881-2.119T14 14h1.808v1H14q-.825 0-1.413.588T12 17q0 .825.588 1.413T14 19h1.808v1H14Zm-.5-10.5h3v-3h-3v3Zm.5 8v-1h6v1h-6Zm4.192 2.5v-1H20q.825 0 1.413-.588T22 17q0-.825-.588-1.413T20 15h-1.808v-1H20q1.238 0 2.119.874T23 17.006q0 1.24-.881 2.117T20 20h-1.808Z"/></svg>