<svg xmlns="http://www.w3.org/2000/svg" width="200" height="200" viewBox="0 0 24 24"><path fill="currentColor" d="m15.3 8.979l-1.152-1.133q-.111-.111-.263-.118q-.152-.007-.283.124t-.13.273q0 .142.13.273l1.133 1.114q.242.242.565.242q.323 0 .565-.242l2.533-2.539q.112-.111.121-.263q.01-.152-.12-.283t-.274-.13q-.142 0-.273.13L15.3 8.979ZM4.5 19.5q-.213 0-.356-.144Q4 19.212 4 19t.144-.356q.144-.143.356-.143h10q.213 0 .356.144q.144.144.144.357t-.144.356q-.143.143-.356.143h-10Zm11.503-7q-1.866 0-3.185-1.315Q11.5 9.869 11.5 8.003t1.315-3.185Q14.131 3.5 15.997 3.5t3.185 1.315Q20.5 6.131 20.5 7.997t-1.315 3.185Q17.869 12.5 16.003 12.5ZM4.5 11.5q-.213 0-.356-.144Q4 11.212 4 11t.144-.356q.144-.143.356-.143h4.877q.098.28.217.521q.12.24.271.479H4.5Zm0 4q-.213 0-.356-.144Q4 15.212 4 15t.144-.356q.144-.143.356-.143h8.765q.402.177.84.309q.44.131.895.193v.017q0 .194-.144.338q-.143.143-.356.143h-10Z"/></svg>