<svg xmlns="http://www.w3.org/2000/svg" width="200" height="200" viewBox="0 0 24 24"><path fill="currentColor" d="M8 13.885q-.31 0-.54-.23q-.23-.23-.23-.54q0-.31.23-.539q.23-.23.54-.23q.31 0 .54.23q.23.23.23.54q0 .309-.23.539q-.23.23-.54.23Zm4 0q-.31 0-.54-.23q-.23-.23-.23-.54q0-.31.23-.539q.23-.23.54-.23q.31 0 .54.23q.23.23.23.54q0 .309-.23.539q-.23.23-.54.23Zm4 0q-.31 0-.54-.23q-.23-.23-.23-.54q0-.31.23-.539q.23-.23.54-.23q.31 0 .54.23q.23.23.23.54q0 .309-.23.539q-.23.23-.54.23ZM4 21V5h3.385V2.77h1.077V5h7.153V2.77h1V5H20v16H4Zm1-1h14v-9.385H5V20ZM5 9.615h14V6H5v3.615Zm0 0V6v3.615Z"/></svg>