<svg xmlns="http://www.w3.org/2000/svg" width="200" height="200" viewBox="0 0 24 24"><path fill="currentColor" d="M11.962 20q-2.881 0-5.056-1.768Q4.73 16.463 4.16 13.7q-.062-.221.044-.409q.106-.187.338-.218q.208-.03.37.092q.161.123.228.35q.543 2.385 2.447 3.935Q9.49 19 11.962 19q.275 0 .54-.013q.267-.012.536-.062v1.006q-.269.044-.535.056q-.266.013-.541.013Zm6.25-2.19l-1.766 1.74q-.14.14-.332.134q-.19-.007-.337-.153q-.14-.14-.14-.344q0-.204.14-.345l1.746-1.746l-1.765-1.765q-.14-.14-.131-.344q.01-.204.15-.345q.14-.14.344-.14t.344.14l1.747 1.766l1.765-1.766q.14-.14.341-.133q.201.006.347.153q.14.14.14.334t-.14.335l-1.74 1.765l1.74 1.766q.14.14.134.34q-.007.202-.153.348q-.14.14-.334.14q-.195 0-.335-.14l-1.765-1.74ZM11.962 5q-1.552 0-2.918.656q-1.365.656-2.41 1.806h1.981q.214 0 .357.143t.143.357q0 .213-.143.356q-.143.144-.357.144H5.77q-.348 0-.578-.23q-.23-.23-.23-.578V4.808q0-.214.144-.357q.143-.143.357-.143q.213 0 .356.143q.144.143.144.357v1.888q1.16-1.273 2.718-1.984Q10.238 4 11.962 4q3.326 0 5.663 2.337Q19.962 8.673 19.962 12v.27h-1V12q0-2.925-2.038-4.963T11.962 5Zm1.965 9.615l-2.165-2.165q-.131-.13-.187-.27t-.056-.301V7.5q0-.213.144-.357T12.018 7q.214 0 .357.143q.143.144.143.357v4.292l1.939 1.939l-.531.884Z"/></svg>