<svg xmlns="http://www.w3.org/2000/svg" width="200" height="200" viewBox="0 0 24 24"><path fill="currentColor" d="M18 18.115q.625 0 1.063-.437t.437-1.063q0-.625-.438-1.062T18 15.115q-.625 0-1.063.438t-.437 1.062q0 .625.438 1.063t1.062.437Zm0 3q.75 0 1.4-.35t1.075-.975q-.575-.35-1.2-.512T18 19.115q-.65 0-1.275.163t-1.2.512q.425.625 1.075.975t1.4.35Zm0 1q-1.671 0-2.836-1.164Q14 19.787 14 18.115q0-1.67 1.164-2.835T18 14.115q1.671 0 2.836 1.165T22 18.115q0 1.672-1.164 2.836Q19.67 22.115 18 22.115ZM8 8.731h8q.213 0 .356-.144t.144-.357q0-.213-.144-.356T16 7.731H8q-.213 0-.356.144q-.144.144-.144.356q0 .213.144.357q.143.143.356.143ZM11.521 20H5.615q-.666 0-1.14-.475Q4 19.051 4 18.385V5.615q0-.666.475-1.14Q4.949 4 5.615 4h12.77q.666 0 1.14.475q.475.474.475 1.14v5.95q-.494-.157-.991-.246q-.497-.088-1.009-.088q-.506 0-.984.08t-.94.226q-.112-.025-.25-.03q-.137-.007-.25-.007H8q-.213 0-.356.144q-.144.144-.144.357t.144.356q.144.143.356.143h6.087q-.758.521-1.332 1.223q-.574.702-.945 1.546H8q-.213 0-.356.144t-.144.357q0 .213.144.356q.143.143.356.143h3.46q-.108.423-.169.853q-.06.43-.06.878q0 .46.054 1.009q.053.549.236.991Z"/></svg>