<svg xmlns="http://www.w3.org/2000/svg" width="200" height="200" viewBox="0 0 24 24"><path fill="currentColor" d="M18 18.115q.625 0 1.063-.437t.437-1.063q0-.625-.438-1.062T18 15.115q-.625 0-1.063.438t-.437 1.062q0 .625.438 1.063t1.062.437Zm0 3q.75 0 1.4-.35t1.075-.975q-.575-.35-1.2-.512T18 19.115q-.65 0-1.275.163t-1.2.512q.425.625 1.075.975t1.4.35ZM5.615 20q-.666 0-1.14-.475Q4 19.051 4 18.385V5.615q0-.666.475-1.14Q4.949 4 5.615 4h12.77q.666 0 1.14.475q.475.474.475 1.14v5.95q-.263-.09-.504-.147q-.24-.056-.496-.112v-5.69q0-.231-.192-.424Q18.615 5 18.385 5H5.615q-.23 0-.423.192Q5 5.385 5 5.615v12.77q0 .23.192.423q.193.192.423.192h5.666q.036.28.093.521q.057.24.147.479H5.615ZM5 18.007V19V5v6.306v-.075v6.776Zm2.5-2.237q0 .213.144.356q.143.143.356.143h3.46q.055-.256.15-.496l.2-.504H8q-.213 0-.356.144t-.144.357Zm0-3.77q0 .213.144.357q.144.143.356.143h6.08q.493-.346.97-.587q.479-.24 1.027-.376q-.113-.025-.25-.03q-.138-.007-.25-.007H8q-.213 0-.356.144q-.144.144-.144.357Zm0-3.769q0 .213.144.357q.143.143.356.143h8q.213 0 .356-.144t.144-.357q0-.213-.144-.356T16 7.731H8q-.213 0-.356.144q-.144.144-.144.356ZM18 22.115q-1.671 0-2.836-1.164T14 18.115q0-1.67 1.164-2.835T18 14.115q1.671 0 2.836 1.165T22 18.115q0 1.672-1.164 2.836Q19.67 22.115 18 22.115Z"/></svg>