<svg xmlns="http://www.w3.org/2000/svg" width="200" height="200" viewBox="0 0 24 24"><path fill="currentColor" d="M6.505 16.615q.466 0 .788-.326q.322-.327.322-.794t-.326-.788q-.327-.322-.794-.322t-.788.326q-.322.327-.322.794t.326.788q.327.322.794.322Zm7 0q.466 0 .788-.326q.322-.327.322-.794t-.326-.788q-.327-.322-.794-.322t-.788.326q-.322.327-.322.794t.326.788q.327.322.794.322ZM5.769 19v2H4.54v-2.396q-.489-.212-1.014-.901Q3 17.013 3 16.115V7q0-.673.364-1.263t1.324-1.016q.958-.427 2.652-.624q1.695-.197 4.348-.085q-.102.235-.173.477q-.07.242-.127.511q-3.876-.113-5.434.335q-1.558.448-1.85 1.203h7.127q0 .25.032.5q.031.25.095.5H4V12h10.792q.431.315 1.069.523q.637.208 1.139.208v3.384q0 .898-.525 1.588q-.525.69-1.013.9V21H14.23v-2H5.769ZM14 13H4h12h-2Zm3.615-2.615q-1.67 0-2.835-1.165t-1.165-2.835q0-1.672 1.165-2.836q1.164-1.164 2.835-1.164q1.672 0 2.836 1.164t1.164 2.836q0 1.67-1.164 2.835t-2.836 1.165ZM6 18h8q.825 0 1.413-.588T16 16v-3H4v3q0 .825.588 1.413T6 18Zm5.23-11.462H4.105h7.127ZM18 6.231V3.5h-.77v3.046l2.035 2.046l.558-.557L18 6.23Z"/></svg>