<svg xmlns="http://www.w3.org/2000/svg" width="200" height="200" viewBox="0 0 24 24"><path fill="currentColor" d="M16.615 17.808h.77v-3h-.77v3ZM12 11.578Zm-8 4.97V7.452l8-4.598l8 4.598v3.727q-.238-.133-.479-.236q-.24-.103-.521-.181V8.523l-3.735 2.152q-1.169.312-2.133.986q-.965.674-1.632 1.624v-.998L5 8.523v7.427l5.53 3.213q.1.397.26.769t.373.733q-.011-.005-.014-.008l-.014-.009L4 16.548ZM12 4L5.594 7.713L12 11.427l6.406-3.714L12 4Zm5 17.23q-1.671 0-2.836-1.164T13 17.231q0-1.671 1.164-2.836T17 13.231q1.671 0 2.836 1.164T21 17.231q0 1.67-1.164 2.835T17 21.231Zm-.462-1.576h.924v-.923h-.924v.923Z"/></svg>