<svg xmlns="http://www.w3.org/2000/svg" width="200" height="200" viewBox="0 0 24 24"><path fill="currentColor" d="M4 16.548V7.452l8-4.598l8 4.598v3.74q-.677-.35-1.44-.54q-.762-.19-1.58-.19q-.443 0-.87.047q-.425.047-.845.166L19 8.523V8.05l-.594-.337L12 11.427L5.594 7.713L5 8.05v.473l6.5 3.764v.998q-.61.838-.94 1.825q-.33.986-.33 2.102q0 .953.25 1.826q.249.874.697 1.64q-.006-.005-.012-.005q-.005 0-.011-.006L4 16.548Zm13 3.279l2.538-2.539l-.546-.546l-1.607 1.608v-3.715h-.77v3.715l-1.607-1.608l-.546.546L17 19.827Zm0 1.404q-1.671 0-2.836-1.165T13 17.231q0-1.671 1.164-2.836T17 13.231q1.671 0 2.836 1.164T21 17.231q0 1.67-1.164 2.835T17 21.231Z"/></svg>