<svg xmlns="http://www.w3.org/2000/svg" width="200" height="200" viewBox="0 0 24 24"><path fill="currentColor" d="M12 11.598Zm-.808-8.285q.385-.217.811-.217t.805.217l6.384 3.68q.384.225.596.594q.212.369.212.803v2.789q-.238-.133-.479-.236q-.24-.103-.521-.181V8.523l-3.735 2.152q-1.169.312-2.133.986q-.965.674-1.632 1.624v-.998L5 8.523v7.08q0 .155.077.29q.077.134.23.23l5.224 3.04q.1.397.26.769q.159.372.372.733q-.011-.005-.014-.008l-.014-.009l-6.327-3.64q-.384-.226-.596-.595Q4 16.044 4 15.61V8.39q0-.434.212-.803q.212-.37.596-.595l6.384-3.679Zm.5.86l-6.117 3.54L12 11.427l6.425-3.714l-6.117-3.54q-.154-.096-.308-.096t-.308.096ZM17 21.231q-1.671 0-2.836-1.165T13 17.231q0-1.671 1.164-2.836T17 13.231q1.671 0 2.836 1.164T21 17.231q0 1.67-1.164 2.835T17 21.231Zm0-1.577q.2 0 .33-.13q.132-.132.132-.332t-.131-.33Q17.2 18.73 17 18.73t-.33.13q-.132.131-.132.331t.131.331q.131.13.331.13Zm0-1.846q.154 0 .27-.116q.115-.115.115-.269v-2.23q0-.155-.116-.27q-.115-.115-.269-.115t-.27.115q-.115.115-.115.27v2.23q0 .154.116.27q.115.115.269.115Z"/></svg>