<svg xmlns="http://www.w3.org/2000/svg" width="200" height="200" viewBox="0 0 24 24"><path fill="currentColor" d="m16.615 18.35l-1.334-1.335q-.112-.111-.264-.12q-.152-.01-.282.12q-.131.131-.131.273q0 .143.13.274l1.7 1.7q.243.242.566.242q.323 0 .565-.242l1.7-1.7q.112-.112.122-.264q.01-.152-.122-.283q-.13-.13-.273-.13q-.142 0-.273.13l-1.334 1.335v-3.33q0-.162-.112-.274q-.111-.111-.273-.111t-.273.111q-.112.112-.112.273v3.331ZM11.192 3.313q.38-.217.808-.217t.808.217l6.384 3.68q.38.217.594.59q.214.373.214.807v2.802q-.677-.35-1.44-.54q-.762-.19-1.58-.19q-.443 0-.87.047q-.425.047-.845.166L19 8.523v-.242q0-.096-.048-.193q-.048-.096-.144-.153l-.383-.222L12 11.427L5.575 7.713l-.383.222q-.096.057-.144.153Q5 8.185 5 8.281v.242l6.5 3.764v.998q-.61.838-.94 1.825q-.33.986-.33 2.102q0 .953.25 1.826q.249.874.697 1.64q-.006-.005-.012-.005q-.005 0-.011-.006l-6.346-3.66q-.38-.217-.594-.59Q4 16.044 4 15.61V8.39q0-.434.214-.807q.215-.373.594-.59l6.384-3.68ZM17 21.231q-1.671 0-2.836-1.165T13 17.231q0-1.671 1.164-2.836T17 13.231q1.671 0 2.836 1.164T21 17.231q0 1.67-1.164 2.835T17 21.231Z"/></svg>