<svg xmlns="http://www.w3.org/2000/svg" width="200" height="200" viewBox="0 0 24 24"><path fill="currentColor" d="M12 11.598Zm-.808-8.285q.38-.217.808-.217t.808.217l6.384 3.68q.38.217.594.59q.214.373.214.807v2.789q-.238-.133-.479-.236q-.24-.103-.521-.181V8.523l-3.735 2.152q-1.169.312-2.133.986q-.965.674-1.632 1.624v-.998L5 8.523v7.08q0 .155.077.29q.077.134.23.23l5.224 3.04q.1.397.26.769q.159.372.372.733q-.011-.005-.014-.008l-.014-.009l-6.327-3.64q-.38-.218-.594-.59Q4 16.043 4 15.61V8.39q0-.434.214-.807q.215-.373.594-.59l6.384-3.68Zm.5.86l-6.117 3.54L12 11.427l6.425-3.714l-6.117-3.54q-.154-.096-.308-.096t-.308.096ZM17 19.827l2.538-2.539l-.546-.546l-1.607 1.608v-3.715h-.77v3.715l-1.607-1.608l-.546.546L17 19.827Zm0 1.404q-1.671 0-2.836-1.165T13 17.231q0-1.671 1.164-2.836T17 13.231q1.671 0 2.836 1.164T21 17.231q0 1.67-1.164 2.835T17 21.231Z"/></svg>