<svg xmlns="http://www.w3.org/2000/svg" width="200" height="200" viewBox="0 0 24 24"><path fill="currentColor" d="M11.192 3.313q.38-.217.808-.217t.808.217l6.384 3.68q.38.217.594.59q.214.373.214.807v2.802q-.677-.35-1.44-.54q-.762-.19-1.58-.19q-.443 0-.87.047q-.425.047-.845.166L19 8.523v-.242q0-.096-.048-.193q-.048-.096-.144-.153l-.383-.222L12 11.427L5.575 7.713l-.383.222q-.096.057-.144.153Q5 8.185 5 8.281v.242l6.5 3.764v.998q-.61.838-.94 1.825q-.33.986-.33 2.102q0 .953.25 1.826q.249.874.697 1.64q-.006-.005-.012-.005q-.005 0-.011-.006l-6.346-3.66q-.38-.217-.594-.59Q4 16.044 4 15.61V8.39q0-.434.214-.807q.215-.373.594-.59l6.384-3.68ZM17 19.827l2.538-2.539l-.546-.546l-1.607 1.608v-3.715h-.77v3.715l-1.607-1.608l-.546.546L17 19.827Zm0 1.404q-1.671 0-2.836-1.165T13 17.231q0-1.671 1.164-2.836T17 13.231q1.671 0 2.836 1.164T21 17.231q0 1.67-1.164 2.835T17 21.231Z"/></svg>