<svg xmlns="http://www.w3.org/2000/svg" width="200" height="200" viewBox="0 0 24 24"><path fill="currentColor" d="M12 11.579Zm-8 4.97V7.451l8-4.598l8 4.598v3.727q-.238-.133-.479-.236q-.24-.103-.521-.181V8.523l-3.735 2.152q-1.169.312-2.133.986q-.965.674-1.632 1.624v-.998L5 8.523v7.427l5.53 3.213q.1.397.26.769t.373.733q-.011-.005-.014-.008l-.014-.009L4 16.548ZM12 4L5.594 7.713L12 11.427l6.406-3.714L12 4Zm5 15.827l2.538-2.539l-.546-.546l-1.607 1.608v-3.715h-.77v3.715l-1.607-1.608l-.546.546L17 19.827Zm0 1.404q-1.671 0-2.836-1.165T13 17.231q0-1.671 1.164-2.836T17 13.231q1.671 0 2.836 1.164T21 17.231q0 1.67-1.164 2.835T17 21.231Z"/></svg>