<svg xmlns="http://www.w3.org/2000/svg" width="200" height="200" viewBox="0 0 24 24"><path fill="currentColor" d="M17 19.654q.2 0 .33-.13q.132-.132.132-.332t-.131-.33Q17.2 18.73 17 18.73t-.33.13q-.132.131-.132.331t.131.331q.131.13.331.13Zm0-1.846q.162 0 .273-.112q.112-.111.112-.273v-2.23q0-.162-.112-.274q-.111-.111-.273-.111t-.273.111q-.112.112-.112.273v2.231q0 .162.112.273q.111.112.273.112ZM11.192 3.313q.38-.217.808-.217t.808.217l6.384 3.68q.38.217.594.59q.214.373.214.807v2.802q-.677-.35-1.44-.54q-.762-.19-1.58-.19q-.443 0-.87.047q-.425.047-.845.166L19 8.523v-.242q0-.096-.048-.193q-.048-.096-.144-.153l-.383-.222L12 11.427L5.575 7.713l-.383.222q-.096.057-.144.153Q5 8.185 5 8.281v.242l6.5 3.764v.998q-.61.838-.94 1.825q-.33.986-.33 2.102q0 .953.25 1.826q.249.874.697 1.64q-.006-.005-.012-.005q-.005 0-.011-.006l-6.346-3.66q-.38-.217-.594-.59Q4 16.044 4 15.61V8.39q0-.434.214-.807q.215-.373.594-.59l6.384-3.68ZM17 21.231q-1.671 0-2.836-1.165T13 17.231q0-1.671 1.164-2.836T17 13.231q1.671 0 2.836 1.164T21 17.231q0 1.67-1.164 2.835T17 21.231Z"/></svg>