<svg xmlns="http://www.w3.org/2000/svg" width="200" height="200" viewBox="0 0 24 24"><path fill="currentColor" d="M3 20v-9h6.5v1q0 1.042.729 1.77q.728.73 1.769.73q1.04 0 1.771-.73q.731-.728.731-1.77v-1H21v9H3Zm9-7.5q-.213 0-.357-.144q-.143-.143-.143-.356q0-2.6.596-5.13t2.562-4.235q.17-.122.369-.113q.198.009.338.17q.14.162.123.37q-.019.207-.19.328q-1.827 1.552-2.312 3.879Q12.5 9.595 12.5 12q0 .213-.144.356q-.144.144-.357.144Zm-6.254 2.923q.29 0 .484-.19q.193-.19.193-.48t-.19-.483q-.19-.193-.48-.193t-.483.19q-.193.19-.193.48t.19.483q.19.193.48.193Zm1 2.5q.29 0 .484-.19q.193-.19.193-.48t-.19-.483q-.19-.193-.48-.193t-.483.19q-.193.19-.193.48t.19.483q.19.193.48.193Zm11.5-2.5q.29 0 .484-.19q.193-.19.193-.48t-.19-.483q-.19-.193-.48-.193t-.483.19q-.193.19-.193.48t.19.483q.19.193.48.193Z"/></svg>