<svg xmlns="http://www.w3.org/2000/svg" width="200" height="200" viewBox="0 0 24 24"><path fill="currentColor" d="M4.425 4.04v1.416L2.131 3.162q-.14-.14-.15-.345q-.01-.204.15-.363q.16-.16.354-.16q.194 0 .353.16L20.815 20.43q.14.14.15.344q.01.204-.15.363q-.16.16-.353.16q-.195 0-.354-.16L15.969 17H13v2h1.5q.213 0 .357.143q.143.144.143.357t-.143.357Q14.713 20 14.5 20h-5q-.213 0-.357-.143Q9 19.713 9 19.5t.143-.357Q9.287 19 9.5 19H11v-2H4.615q-.69 0-1.152-.462Q3 16.075 3 15.385v-9.77q0-.713.463-1.144q.462-.43.962-.43Zm15.64 12.81L7.215 4h12.17q.69 0 1.152.463q.463.462.463 1.152v9.77q0 .496-.257.89q-.256.394-.678.575Z"/></svg>