<svg xmlns="http://www.w3.org/2000/svg" width="200" height="200" viewBox="0 0 24 24"><path fill="currentColor" d="M5.5 20.23q-.633 0-1.066-.433Q4 19.363 4 18.731v-3.443q0-.632.434-1.066q.433-.434 1.066-.434h13q.633 0 1.066.434q.434.434.434 1.066v3.443q0 .632-.434 1.066q-.433.434-1.066.434h-13Zm.115-1h12.77q.269 0 .442-.172t.173-.443v-3.211q0-.27-.173-.442t-.442-.174H5.615q-.269 0-.442.174T5 15.404v3.211q0 .27.173.443t.442.173Zm1.045-6.942l-3.622-2.1l5.097-.865L6.74 4.275l4.264 3.044L13.6 2.77l.865 5.154l5.048-1.394l-3.025 4.263l2.647 1.496h-2.05l-2.073-1.173l2.05-2.873l-3.408.937l-.585-3.477l-1.742 3.075l-2.873-2.05l.936 3.408l-3.419.584l2.616 1.57H6.66Zm4.977 0ZM12 17Z"/></svg>