<svg xmlns="http://www.w3.org/2000/svg" width="200" height="200" viewBox="0 0 24 24"><path fill="currentColor" d="m10.95 18.637l3.871-3.89q.146-.166.347-.17q.201-.002.367.163q.165.166.165.357t-.165.357l-4.02 4.02q-.242.241-.565.241q-.323 0-.565-.242l-1.92-1.92q-.146-.145-.152-.353q-.007-.208.158-.354q.146-.14.354-.134q.208.007.354.153l1.771 1.772ZM5 5v1.154q0 .27.173.442t.442.173h12.77q.269 0 .442-.173T19 6.154V5H5Zm2.523 2.77l.492 1.365q.077.192.231.298q.154.105.346.105h6.816q.192 0 .346-.105q.154-.106.23-.298l.493-1.366H7.523Zm1.07 2.768q-.516 0-.935-.29q-.42-.292-.6-.783L6.462 7.77h-.847q-.67 0-1.143-.472Q4 6.825 4 6.154V4h16v2.154q0 .671-.472 1.143t-1.143.472h-.847l-.669 1.72q-.186.46-.59.754q-.404.295-.914.295H8.592ZM5 5v1.77V5Z"/></svg>