<svg xmlns="http://www.w3.org/2000/svg" width="200" height="200" viewBox="0 0 24 24"><path fill="currentColor" d="M8.56 14.02q-.416 0-.709-.292t-.293-.706t.29-.71t.707-.293t.71.291t.293.707t-.291.709t-.707.293m3.462 3q-.416 0-.71-.29t-.293-.708t.291-.709t.707-.293t.709.291t.293.707t-.29.709t-.707.293m-3.462 3q-.416 0-.709-.29t-.293-.708t.29-.709t.707-.293t.71.291t.293.707t-.291.709t-.707.293m6.904-6q-.416 0-.71-.29t-.292-.708t.29-.709t.707-.293t.71.291t.293.707t-.291.709t-.707.293m.038 6q-.415 0-.709-.29t-.293-.707t.291-.71t.707-.293q.415 0 .709.291t.293.707t-.291.709t-.707.293m3.404-3q-.416 0-.709-.29t-.293-.708t.29-.709t.708-.293t.709.291t.293.707t-.291.709t-.707.293m-13.788 0q-.416 0-.71-.29t-.293-.708t.291-.709t.707-.293t.71.291q.292.291.292.707t-.29.709t-.707.293m3.474-6.711q-.517 0-.935-.292t-.6-.781l-.595-1.697h-.847q-.666 0-1.14-.474Q4 6.589 4 5.924V4.807q0-.44.299-.74q.3-.299.74-.299h13.923q.44 0 .739.3q.299.298.299.739v1.115q0 .666-.475 1.14q-.474.475-1.14.475h-.847l-.669 1.72q-.183.464-.59.757t-.914.293zm-1.069-2.77l.492 1.366q.077.192.231.298t.346.106h6.816q.192 0 .346-.106t.23-.298l.493-1.366z"/></svg>