<svg xmlns="http://www.w3.org/2000/svg" width="200" height="200" viewBox="0 0 24 24"><path fill="currentColor" d="M8.56 14.02q-.416 0-.709-.292q-.293-.29-.293-.706t.29-.71q.292-.293.707-.293q.416 0 .71.291q.293.291.293.707t-.291.709q-.291.293-.707.293Zm3.462 3q-.416 0-.71-.292q-.293-.29-.293-.707q0-.415.291-.709q.291-.293.707-.293t.709.291q.293.291.293.707t-.29.709q-.292.293-.707.293Zm-3.462 3q-.416 0-.709-.292q-.293-.29-.293-.707q0-.415.29-.709q.292-.293.707-.293q.416 0 .71.291q.293.291.293.707t-.291.709q-.291.293-.707.293Zm6.904-6q-.416 0-.71-.292q-.292-.29-.292-.707q0-.415.29-.709q.292-.293.707-.293q.416 0 .71.291q.293.291.293.707t-.291.709q-.291.293-.707.293Zm.038 6q-.415 0-.709-.292q-.293-.29-.293-.707q0-.415.291-.709q.291-.293.707-.293q.415 0 .709.291q.293.291.293.707t-.291.709q-.291.293-.707.293Zm3.404-3q-.416 0-.709-.292q-.293-.29-.293-.707q0-.415.29-.709q.292-.293.708-.293q.415 0 .709.291q.293.291.293.707t-.291.709q-.291.293-.707.293Zm-13.788 0q-.416 0-.71-.292q-.293-.29-.293-.707q0-.415.291-.709q.291-.293.707-.293t.71.291q.292.291.292.707t-.29.709q-.292.293-.707.293Zm2.405-9.482l.646 1.77h7.662l.646-1.77H7.523Zm-.092 2.77l-.97-2.77H4V3.77h16v3.77h-2.462l-1.073 2.769H7.431Z"/></svg>