<svg xmlns="http://www.w3.org/2000/svg" width="200" height="200" viewBox="0 0 24 24"><path fill="currentColor" d="M4.846 20q-.69 0-1.153-.463q-.462-.462-.462-1.152V5.615q0-.69.462-1.153Q4.156 4 4.846 4h12.77q.69 0 1.152.463t.463 1.152V7.77h1.538v1h-1.538v2.73h1.538v1h-1.538v2.73h1.538v1h-1.538v2.155q0 .69-.463 1.152q-.462.463-1.153.463H4.846Zm0-1h12.77q.23 0 .422-.192q.193-.193.193-.423V5.615q0-.23-.193-.423Q17.846 5 17.615 5H4.846q-.23 0-.423.192q-.192.193-.192.423v12.77q0 .23.192.423q.192.192.423.192ZM7 16.23h4.038v-3.038H7v3.039Zm5.423-6.422h3.039V7.769h-3.039v2.039Zm-5.423 2h4.038V7.769H7v4.039Zm5.423 4.423h3.039v-5.039h-3.039v5.039ZM4.231 5v14V5Z"/></svg>