<svg xmlns="http://www.w3.org/2000/svg" width="200" height="200" viewBox="0 0 24 24"><path fill="currentColor" d="M21.244 22.396L2.021 3.173l.714-.713l19.223 19.223l-.714.713ZM7.133 4H19.23v3.77h1.538v1H19.23v2.557h1.538v1H19.23v2.558h1.538v1h-1.732l-.806-.806V5H8.133l-1-1Zm3.982 4.233l-.463-.464h.463v.464Zm1.825 1.575l-.517-.518V7.77h3.039v2.038H12.94Zm2.522 2.842l-1.458-1.458h1.458v1.458Zm-4.152.08Zm1.653-2.91ZM7 16.23v-3.038h4.115v3.039H7ZM4.335 4.06l.94.94H4.231v14h14v-1.044l.98.98V20H3.232V4.06h1.104Zm8.088 8.088l3.039 3.039v1.044h-3.039v-4.083ZM8.044 7.77l3.071 3.071v.968H7v-4.04h1.044Z"/></svg>