<svg xmlns="http://www.w3.org/2000/svg" width="200" height="200" viewBox="0 0 24 24"><path fill="currentColor" d="M8.6 15.87L4.73 12L8.6 8.13l.708.72L6.158 12l3.15 3.15l-.708.72ZM6 17h1v1.5h10V17h1v3.385q0 .69-.462 1.152q-.463.463-1.153.463h-8.77q-.69 0-1.152-.462Q6 21.075 6 20.385V17ZM7 7H6V3.615q0-.69.463-1.152Q6.925 2 7.615 2h8.77q.69 0 1.152.463q.463.462.463 1.152V7h-1V5.5H7V7Zm0 12.5v.885q0 .23.192.423q.193.192.423.192h8.77q.23 0 .423-.192q.192-.193.192-.423V19.5H7Zm0-15h10v-.885q0-.23-.192-.423Q16.615 3 16.385 3h-8.77q-.23 0-.423.192Q7 3.385 7 3.615V4.5Zm8.4 11.37l-.708-.72l3.15-3.15l-3.15-3.15l.708-.72L19.27 12l-3.87 3.87ZM7 4.5V3v1.5Zm0 15V21v-1.5Z"/></svg>