<svg xmlns="http://www.w3.org/2000/svg" width="200" height="200" viewBox="0 0 24 24"><path fill="currentColor" d="M21.244 22.396L2.021 3.173l.714-.713l19.223 19.223l-.714.713ZM7.133 4h10.482q.69 0 1.153.463t.463 1.152V7.77h1.538v1h-1.538v2.558h1.538v1h-1.538v2.558h1.538v1h-1.732l-.806-.806V5.615q0-.23-.193-.423Q17.846 5 17.615 5H8.133l-1-1Zm3.982 4.233l-.463-.464h.463v.464Zm1.825 1.575l-.517-.518V7.77h3.039v2.038H12.94Zm2.522 2.842l-1.458-1.458h1.458v1.458Zm-4.152.08Zm1.653-2.91ZM7 16.23v-3.038h4.115v3.039H7ZM4.335 4.06l.94.94h-.237q-.384 0-.596.183q-.211.182-.211.432v12.77q0 .23.192.423q.192.192.423.192h12.77q.269 0 .442-.24t.173-.568v-.236l.98.98q-.176.5-.628.782q-.452.282-.968.282H4.846q-.69 0-1.153-.463q-.462-.462-.462-1.152V5.615q0-.528.299-.958q.299-.43.805-.597Zm8.088 8.088l3.039 3.039v1.044h-3.039v-4.083ZM8.044 7.77l3.071 3.071v.968H7v-4.04h1.044Z"/></svg>