<svg xmlns="http://www.w3.org/2000/svg" width="200" height="200" viewBox="0 0 24 24"><path fill="currentColor" d="M4.423 5.5h8V4h-8v1.5Zm-1 15.5V3h10v5.312q-.286.165-.527.34q-.24.177-.473.383V6.5h-8v11h6.252q.123.28.27.521q.147.24.324.479H4.423V20h8.27v-.092q.086.098.184.179q.098.08.213.144V21H3.423Zm13.5-3q1.508 0 2.562-1.054t1.053-2.561q0-1.508-1.053-2.562t-2.562-1.054q-1.508 0-2.561 1.054q-1.054 1.054-1.054 2.562q0 1.507 1.054 2.561Q15.415 18 16.923 18Zm-2 3v-2.446q-1.177-.56-1.896-1.672q-.72-1.112-.72-2.502q0-1.39.72-2.497q.72-1.108 1.896-1.668V7.77h4v2.446q1.177.56 1.896 1.672q.72 1.112.72 2.502q0 1.39-.72 2.498q-.719 1.107-1.896 1.667V21h-4Zm-10.5-2.5V20v-1.5Zm0-13V4v1.5Z"/></svg>