<svg xmlns="http://www.w3.org/2000/svg" width="200" height="200" viewBox="0 0 24 24"><path fill="currentColor" d="M18.93 20q-2.528 0-5.184-1.266q-2.656-1.267-4.934-3.555q-2.28-2.289-3.546-4.935Q4 7.598 4 5.07q0-.458.3-.763Q4.6 4 5.05 4h2.473q.408 0 .712.257t.411.658L9.142 7.3q.07.42-.025.733q-.094.313-.332.513L6.59 10.592q.616 1.118 1.361 2.076q.745.959 1.59 1.817q.87.87 1.874 1.62q1.004.749 2.204 1.414l2.139-2.177q.244-.263.549-.347q.305-.083.674-.033l2.104.43q.407.1.661.41q.254.311.254.713v2.435q0 .45-.306.75q-.305.3-.763.3ZM6.122 9.654l1.92-1.766q.096-.076.124-.211q.03-.135-.01-.25l-.443-2.12q-.039-.153-.135-.23T7.327 5H5.275q-.115 0-.192.077t-.077.192q.029 1.025.32 2.14q.293 1.116.795 2.245Zm8.45 8.334q1.014.502 2.16.743q1.148.24 2 .257q.115 0 .192-.076q.077-.077.077-.193v-2.007q0-.154-.077-.25q-.077-.097-.23-.135l-1.85-.379q-.116-.038-.203-.01q-.086.03-.182.125l-1.887 1.925Zm-8.45-8.334Zm8.45 8.334Zm-2.148-9.95V7.27h1.808v-.884h-1.808V4H15v.77h-1.808v.845H15v2.423h-2.577Zm3.385 0V4h.769v4.038h-.77Zm1.577 0V4H20v2.385h-1.846v1.653h-.77Zm.769-2.423h1.077V4.77h-1.077v.846Z"/></svg>