<svg xmlns="http://www.w3.org/2000/svg" width="200" height="200" viewBox="0 0 24 24"><path fill="currentColor" d="M5.72 12.556h2.868l.475 1.306q.05.111.137.17t.204.058q.198 0 .303-.157t.043-.35L7.738 8.24q-.05-.13-.168-.211t-.255-.08h-.323q-.136 0-.255.08t-.168.211l-2.011 5.362q-.062.173.043.33t.303.158q.117 0 .207-.058t.139-.176zm.286-.733l1.123-3.06h.05l1.123 3.06zm.494 4.215q1.31 0 2.547.301t2.453.98V7.508q-1.083-.773-2.387-1.16Q7.81 5.962 6.5 5.962q-.9 0-1.576.107q-.676.108-1.5.4q-.232.077-.328.221T3 7.008v9.015q0 .27.192.394t.423.03q.548-.185 1.267-.297t1.618-.112m6 1.281q1.215-.679 2.453-.98t2.547-.3q.9 0 1.618.111t1.267.296q.23.096.423-.029t.192-.394V7.008q0-.173-.096-.308t-.327-.23q-.825-.293-1.501-.4T17.5 5.961q-1.31 0-2.613.386q-1.304.387-2.387 1.16zm-.5 1.137q-.235 0-.432-.059t-.376-.15q-1.09-.595-2.27-.902T6.5 17.038q-.78 0-1.534.131q-.753.131-1.466.42q-.544.217-1.022-.131T2 16.496V6.831q0-.371.195-.689t.547-.442q.881-.388 1.833-.563T6.5 4.962q1.47 0 2.866.423T12 6.615q1.237-.807 2.634-1.23t2.866-.423q.973 0 1.925.175t1.833.563q.352.125.547.442q.195.318.195.689v9.665q0 .614-.516.942q-.517.33-1.1.112q-.694-.27-1.418-.39t-1.466-.122q-1.24 0-2.421.307t-2.271.901q-.18.092-.376.151t-.432.059m1.885-9.508q0-.11.076-.222q.076-.113.18-.168q.763-.346 1.613-.53t1.746-.182q.48 0 .91.053t.886.153q.129.03.224.135t.095.257q0 .252-.15.366t-.402.052q-.369-.075-.756-.103T17.5 8.73q-.804 0-1.573.154t-1.46.43q-.257.098-.42-.005t-.162-.362m0 5.423q0-.11.076-.232t.18-.177q.724-.347 1.613-.52q.888-.173 1.746-.173q.48 0 .91.053t.886.153q.129.03.224.135q.095.103.095.257q0 .252-.15.366t-.402.052q-.369-.075-.756-.103t-.807-.028q-.785 0-1.544.16q-.76.161-1.45.457q-.258.117-.44-.003t-.181-.397m0-2.692q0-.11.076-.222q.076-.113.18-.169q.763-.346 1.613-.528t1.746-.183q.48 0 .91.053t.886.153q.129.03.224.134t.095.258q0 .252-.15.365t-.402.052q-.369-.075-.756-.103t-.807-.027q-.804 0-1.573.153q-.77.154-1.46.431q-.257.098-.42-.006q-.162-.103-.162-.361"/></svg>