<svg xmlns="http://www.w3.org/2000/svg" width="200" height="200" viewBox="0 0 24 24"><path fill="currentColor" d="M4.385 14.09h.778l.556-1.534h2.87l.561 1.534h.792l-2.31-6.142h-.957l-2.29 6.142Zm1.62-2.267l1.124-3.06h.05l1.123 3.06H6.006Zm7.88-2.23v-.931q.805-.408 1.726-.612t1.889-.204q.554 0 1.063.071q.51.071 1.052.202v.908q-.523-.167-1.02-.232q-.497-.064-1.095-.064q-.97 0-1.892.218q-.923.218-1.723.643Zm0 5.46v-.968q.767-.408 1.716-.612q.949-.204 1.899-.204q.554 0 1.063.071q.51.072 1.052.202v.908q-.523-.167-1.02-.232q-.497-.064-1.095-.064q-.97 0-1.892.234q-.923.235-1.723.666Zm0-2.71v-.97q.805-.408 1.726-.611q.92-.204 1.889-.204q.554 0 1.063.07q.51.072 1.052.203v.907q-.523-.167-1.02-.231q-.497-.065-1.095-.065q-.97 0-1.892.238q-.923.237-1.723.662ZM12.5 17.318q1.215-.679 2.453-.98q1.237-.3 2.547-.3q.9 0 1.618.111q.719.112 1.267.296q.23.096.423-.029q.192-.125.192-.394V7.008q0-.173-.096-.308t-.327-.23q-.825-.293-1.501-.4q-.676-.108-1.576-.108q-1.31 0-2.613.386q-1.304.387-2.387 1.16v9.811Zm-.5 1.45q-1.22-.834-2.62-1.282q-1.4-.449-2.88-.449q-.78 0-1.534.131q-.753.131-1.466.42q-.544.217-1.022-.131T2 16.496V6.831q0-.371.195-.689q.195-.317.547-.442q.881-.388 1.833-.563q.952-.175 1.925-.175q1.47 0 2.866.423q1.397.423 2.634 1.23q1.237-.807 2.634-1.23q1.397-.423 2.866-.423q.973 0 1.925.175t1.833.563q.352.125.547.442q.195.318.195.689v9.665q0 .614-.516.942q-.517.33-1.1.112q-.694-.27-1.418-.39q-.724-.122-1.466-.122q-1.48 0-2.88.449q-1.4.448-2.62 1.282Z"/></svg>