<svg xmlns="http://www.w3.org/2000/svg" width="200" height="200" viewBox="0 0 24 24"><path fill="currentColor" d="m15.956 17.396l-2.85 2.85q-.243.242-.538.364t-.593.12q-.298 0-.593-.12q-.295-.122-.538-.364L3.73 13.131q-.242-.243-.364-.538T3.245 12q0-.298.12-.593q.122-.295.364-.538l2.85-2.85L2.22 3.662q-.146-.147-.156-.348q-.01-.2.156-.366t.357-.165q.191 0 .357.165l18.51 18.515q.145.147.155.345q.01.198-.156.363q-.165.166-.356.166t-.357-.166l-4.775-4.775Zm-2.535-2.534l-.713-.708l-1.093 1.092q-.14.14-.15.342q-.01.2.156.366q.16.16.354.16t.354-.16l1.092-1.092ZM11.054 12.5l-1-1H8.167q-.213 0-.356.143q-.144.144-.144.357t.144.357q.143.143.356.143h2.887Zm4.39.135l.248-.243q.171-.16.169-.373q-.003-.213-.169-.379l-3.575-3.575q-.146-.146-.344-.155q-.198-.01-.363.155q-.12.12-.134.239q-.014.12.07.244L8.698 5.9l2.146-2.146q.243-.242.538-.364t.593-.12q.298 0 .593.12q.295.122.538.364l7.115 7.115q.242.243.364.538t.12.593q0 .298-.12.593q-.122.295-.364.538l-2.146 2.146l-2.63-2.642Z"/></svg>