<svg xmlns="http://www.w3.org/2000/svg" width="200" height="200" viewBox="0 0 24 24"><path fill="currentColor" d="m20.756 22.171l-4.775-4.775l-2.85 2.85q-.242.242-.534.364q-.291.12-.593.12t-.597-.12q-.294-.122-.538-.364l-7.115-7.115q-.242-.242-.364-.534q-.12-.291-.12-.593t.12-.597q.122-.294.364-.538l3.563-3.563l5.78 5.76l-.007 1.446L2.24 3.662q-.146-.147-.152-.348q-.007-.2.158-.366q.166-.165.357-.165t.357.165l18.51 18.515q.145.147.155.345q.01.198-.156.363q-.165.166-.356.166t-.357-.166ZM9 14.481q.212 0 .356-.144q.143-.144.143-.356v-2.5h2.006l-1-1H9.308q-.33 0-.569.24q-.239.239-.239.567v2.693q0 .212.144.356t.357.144Zm9.099.796l-3.035-3.054l.68-.682q.24-.241.24-.562q0-.321-.243-.564l-1.177-1.157q-.161-.162-.363-.071Q14 9.277 14 9.5v.98h-.677l-4.6-4.58l2.146-2.146q.242-.242.534-.364q.291-.12.593-.12t.597.12q.294.122.538.364l7.115 7.115q.242.242.364.534q.12.291.12.593t-.12.597q-.122.294-.364.538L18.1 15.277Z"/></svg>