<svg xmlns="http://www.w3.org/2000/svg" width="200" height="200" viewBox="0 0 24 24"><path fill="currentColor" d="m20.756 22.171l-4.775-4.775l-2.85 2.85q-.242.242-.534.364q-.291.12-.593.12t-.597-.12q-.294-.122-.538-.364l-7.115-7.115q-.242-.242-.364-.534q-.12-.291-.12-.593t.12-.597q.122-.294.364-.538l2.85-2.85L2.24 3.662q-.146-.147-.152-.348q-.007-.2.158-.366q.166-.165.357-.165t.357.165l18.51 18.515q.145.147.155.345q.01.198-.156.363q-.165.166-.356.166t-.357-.166Zm-5.464-5.463l-8-8l-2.869 2.869q-.173.173-.173.423t.173.423l7.154 7.154q.173.173.423.173t.423-.173l2.87-2.87Zm2.808-1.431l-.688-.689l2.165-2.165q.173-.173.173-.423t-.173-.423l-7.154-7.154Q12.25 4.25 12 4.25t-.423.173L9.412 6.588L8.723 5.9l2.146-2.146q.242-.242.534-.364q.291-.12.593-.12t.597.12q.294.122.538.364l7.115 7.115q.242.242.364.534q.12.291.12.593t-.12.597q-.122.294-.364.538L18.1 15.277Zm-4.688-4.689Zm-2.12 2.12ZM8.5 14v-2.692q0-.344.232-.576q.232-.232.576-.232h1.198l1 1H9.5V14q0 .213-.144.356q-.144.144-.357.144t-.356-.144Q8.5 14.213 8.5 14Zm6.546-1.777l.68-.665q.24-.235.24-.565q0-.33-.243-.578L14.6 9.312q-.173-.174-.387-.089q-.213.085-.213.323v.954h-.677l1.723 1.723Z"/></svg>