<svg xmlns="http://www.w3.org/2000/svg" width="200" height="200" viewBox="0 0 24 24"><path fill="currentColor" d="m21.11 22.53l-5.13-5.134l-2.85 2.85q-.24.242-.533.364q-.291.12-.593.12t-.597-.12q-.294-.122-.538-.364l-7.115-7.115q-.242-.242-.364-.534q-.12-.291-.12-.593t.12-.597q.122-.294.364-.538l2.85-2.85l-4.717-4.711l.713-.714l19.223 19.223l-.713.714Zm-5.818-5.822l-1.846-1.846L12 16.308l-.708-.708l1.44-1.446L11.08 12.5H7.692v-1h2.387L7.292 8.708l-2.869 2.869q-.173.173-.173.423t.173.423l7.154 7.154q.173.173.423.173t.423-.173l2.87-2.87Zm2.808-1.431l-.688-.689l2.165-2.165q.173-.173.173-.423t-.173-.423l-7.154-7.154Q12.25 4.25 12 4.25t-.423.173L9.412 6.588L8.723 5.9l2.146-2.146q.242-.242.534-.364q.291-.12.593-.12t.597.12q.294.122.538.364l7.115 7.115q.242.242.364.534q.12.291.12.593t-.12.597q-.122.294-.364.538L18.1 15.277Zm-2.63-2.63l.626-.628l-4.308-4.307l-.626.626l4.307 4.308Zm-2.058-2.059Zm-2.12 2.12Z"/></svg>