<svg xmlns="http://www.w3.org/2000/svg" width="200" height="200" viewBox="0 0 24 24"><path fill="currentColor" d="M5.53 17.506q-.978-1.143-1.504-2.558Q3.5 13.533 3.5 12q0-3.615 2.663-6.058Q8.827 3.5 12.5 3.5v-.692q0-.243.217-.354q.218-.112.43.03l2.163 1.62q.323.242.323.646t-.323.646l-2.164 1.62q-.211.142-.429.03q-.217-.111-.217-.354V6Q9.86 6 7.93 7.718Q6 9.437 6 12q0 1.13.399 2.15q.4 1.02 1.13 1.846l-1.998 1.51ZM11.5 20.5v.692q0 .243-.217.354q-.218.112-.43-.03l-2.163-1.62q-.323-.242-.323-.646t.323-.646l2.164-1.62q.211-.142.429-.03q.217.111.217.354V18q2.64 0 4.57-1.718Q18 14.563 18 12q0-1.13-.399-2.16q-.4-1.028-1.13-1.855l1.998-1.51q.98 1.142 1.505 2.558q.526 1.415.526 2.967q0 3.615-2.663 6.058Q15.173 20.5 11.5 20.5Z"/></svg>