<svg xmlns="http://www.w3.org/2000/svg" width="200" height="200" viewBox="0 0 24 24"><path fill="currentColor" d="m21.11 22.53l-5.13-5.134l-3.98 3.98L2.623 12l3.98-3.98l-4.716-4.712l.713-.714l19.223 19.223l-.713.714Zm-5.818-5.822l-1.846-1.846L12 16.308l-.708-.708l1.44-1.446L11.08 12.5H7.692v-1h2.387L7.292 8.708L4 12l8 8l3.292-3.292Zm2.808-1.431l-.688-.689L20 12l-8-8l-2.588 2.588l-.689-.688L12 2.623L21.377 12L18.1 15.277Zm-2.63-2.63l.626-.628l-4.308-4.307l-.626.626l4.307 4.308Zm-2.155-2.155Zm-2.023 2.216Z"/></svg>