<svg xmlns="http://www.w3.org/2000/svg" width="200" height="200" viewBox="0 0 24 24"><path fill="currentColor" d="m20.756 22.171l-4.775-4.775l-2.85 2.85q-.242.242-.534.364q-.291.12-.593.12t-.597-.12q-.294-.122-.538-.364l-7.115-7.115q-.242-.242-.364-.534q-.12-.291-.12-.593t.12-.597q.122-.294.364-.538l2.85-2.85L2.24 3.662q-.146-.147-.152-.348q-.007-.2.158-.366q.166-.165.357-.165t.357.165l18.51 18.515q.145.147.155.345q.01.198-.156.363q-.165.166-.356.166t-.357-.166Zm-5.464-5.463l-1.846-1.846l-1.092 1.092q-.14.14-.341.153t-.371-.157q-.155-.156-.158-.347q-.003-.191.156-.357l1.093-1.092l-1.654-1.654H8.192q-.212 0-.356-.144T7.692 12t.144-.356q.144-.143.356-.143h1.887L7.292 8.708l-2.869 2.869q-.173.173-.173.423t.173.423l7.154 7.154q.173.173.423.173t.423-.173l2.87-2.87Zm2.808-1.431l-.688-.689l2.165-2.165q.173-.173.173-.423t-.173-.423l-7.154-7.154Q12.25 4.25 12 4.25t-.423.173L9.412 6.588L8.723 5.9l2.146-2.146q.242-.242.534-.364q.291-.12.593-.12t.597.12q.294.122.538.364l7.115 7.115q.242.242.364.534q.12.291.12.593t-.12.597q-.122.294-.364.538L18.1 15.277Zm-2.637-2.637l.254-.248q.171-.16.169-.373q-.003-.213-.169-.379l-3.575-3.575q-.146-.146-.344-.155q-.198-.01-.363.155q-.12.12-.134.239q-.014.12.07.244l4.092 4.092Zm-2.051-2.052Zm-2.12 2.12Z"/></svg>