<svg xmlns="http://www.w3.org/2000/svg" width="200" height="200" viewBox="0 0 24 24"><path fill="currentColor" d="m20 17.208l-1-1V5.5q0-.213.144-.356T19.5 5q.212 0 .356.144q.143.144.143.356v11.708Zm-11-11l-1-1v-.15q0-.213.144-.357q.144-.143.357-.143q.212 0 .356.143q.143.144.143.357v1.15Zm3.673 3.673l-1-1V3.058q0-.213.144-.357t.357-.143q.213 0 .356.143q.143.144.143.357V9.88Zm3.673 1.66h-1V4.057q0-.213.144-.357t.357-.143q.213 0 .356.143q.143.144.143.357v7.482Zm1.944 8.17L9 10.422v5.042l-4.412-3.08l5.08 7.455q.201.316.532.489t.715.173H16.5q.538 0 1.007-.216q.468-.217.783-.572ZM10.915 21.5q-.623 0-1.163-.28t-.908-.808l-6.125-8.98l.216-.209q.32-.321.76-.348q.438-.027.809.233L8 13.537V9.42L1.887 3.308l.713-.714l19.223 19.223l-.713.714l-2.12-2.12q-.48.49-1.11.79q-.628.299-1.38.299h-5.585Zm2.733-6.43Zm.679-3.53Z"/></svg>