<svg xmlns="http://www.w3.org/2000/svg" width="200" height="200" viewBox="0 0 24 24"><path fill="currentColor" d="M8.5 21.385v-1h7v1h-7Zm.115-3q-.69 0-1.153-.463Q7 17.46 7 16.77V4q0-.69.463-1.153t1.152-.462h6.77q.69 0 1.153.462Q17 3.31 17 4v12.77q0 .69-.463 1.152t-1.152.463h-6.77ZM8 15.885v.884q0 .231.192.423q.193.193.423.193h6.77q.23 0 .423-.193Q16 17 16 16.77v-.884H8Zm0-1h8v-9H8v9Zm0-10h8V4q0-.23-.192-.423q-.193-.192-.423-.192h-6.77q-.23 0-.423.192Q8 3.769 8 4v.885Zm0 0v-1.5v1.5Zm0 11v1.5v-1.5Z"/></svg>