<svg xmlns="http://www.w3.org/2000/svg" width="200" height="200" viewBox="0 0 24 24"><path fill="currentColor" d="M2.5 5.5v-4h4v1h-3v3h-1Zm18 0v-3h-3v-1h4v4h-1Zm-18 17v-4h1v3h3v1h-4Zm15 0v-1h3v-3h1v4h-4Zm-11-4.615q0 .23.192.423q.193.192.423.192h9.77q.23 0 .423-.192q.192-.193.192-.423V6.115q0-.23-.192-.423q-.193-.192-.423-.192h-9.77q-.23 0-.423.192q-.192.193-.192.423v11.77Zm.615 1.615q-.69 0-1.152-.462q-.463-.463-.463-1.153V6.115q0-.69.463-1.152q.462-.463 1.152-.463h9.77q.69 0 1.152.463q.463.462.463 1.152v11.77q0 .69-.462 1.152q-.463.463-1.153.463h-9.77ZM9.5 9.5h5v-1h-5v1Zm0 3h5v-1h-5v1Zm0 3h5v-1h-5v1Zm-3 2.385V5.5v13v-.615Z"/></svg>