<svg xmlns="http://www.w3.org/2000/svg" width="200" height="200" viewBox="0 0 24 24"><path fill="currentColor" d="M11.025 20.95q-3.446-.356-5.723-2.917Q3.025 15.47 3.025 12t2.277-6.013q2.277-2.543 5.723-2.937v1.23q-2.927.408-4.848 2.595Q4.256 9.062 4.256 12t1.92 5.125q1.922 2.187 4.849 2.594v1.231Zm2 0v-1.23q2.638-.34 4.475-2.21q1.837-1.872 2.244-4.51h1.231q-.312 3.171-2.545 5.414q-2.234 2.244-5.405 2.536Zm6.72-9.95q-.37-2.638-2.226-4.51q-1.856-1.87-4.494-2.21V3.05q3.19.292 5.424 2.526Q20.683 7.81 20.975 11h-1.23Z"/></svg>