<svg xmlns="http://www.w3.org/2000/svg" width="200" height="200" viewBox="0 0 24 24"><path fill="currentColor" d="M9.73 12.77q-.309 0-.539-.23q-.23-.23-.23-.54q0-.31.23-.54q.23-.23.54-.23q.31 0 .54.23q.229.23.229.54q0 .31-.23.54q-.23.23-.54.23Zm4.54 0q-.31 0-.54-.23q-.23-.23-.23-.54q0-.31.23-.54q.23-.23.54-.23q.309 0 .539.23q.23.23.23.54q0 .31-.23.54q-.23.23-.54.23ZM4.5 20v-1h1V5.615q0-.69.463-1.152Q6.425 4 7.115 4h9.77q.69 0 1.152.463q.463.462.463 1.152V19h1v1h-15Zm2-1h5V5H7.115q-.23 0-.423.192q-.192.193-.192.423V19Zm6 0h5V5.615q0-.23-.192-.423Q17.115 5 16.885 5H12.5v14Zm-.5-7.5Z"/></svg>