<svg xmlns="http://www.w3.org/2000/svg" width="200" height="200" viewBox="0 0 24 24"><path fill="currentColor" d="M6 21V3h12v18H6Zm1-1h10V4H7v16Zm5-1.5q.777 0 1.331-.554q.554-.553.554-1.33q0-.778-.554-1.332q-.554-.553-1.331-.553q-.777 0-1.331.553q-.554.554-.554 1.331q0 .778.554 1.331q.554.554 1.331.554Zm0-.77q-.463 0-.79-.325q-.325-.326-.325-.79q0-.463.326-.789T12 15.5q.463 0 .79.326q.325.326.325.79q0 .463-.326.789T12 17.73Zm0-4.538q.38 0 .613-.232q.233-.233.233-.614h-1.692q0 .373.233.61q.232.236.613.236Zm-3.385-1.346h6.77v-.77h-.847v-1.95q0-.955-.478-1.698q-.48-.743-1.377-1.002v-.95h-1.368v.943q-.896.321-1.375 1.04q-.478.72-.478 1.672v1.946h-.847v.77ZM7 20V4v16Z"/></svg>