<svg xmlns="http://www.w3.org/2000/svg" width="200" height="200" viewBox="0 0 24 24"><path fill="currentColor" d="M4.044 11.994q0 2.902 1.831 5.116q1.83 2.213 4.66 2.767q.202.042.33.204q.13.161.13.369t-.16.336q-.16.127-.356.09q-3.23-.545-5.333-3.042q-2.102-2.497-2.102-5.84q0-3.342 2.115-5.84q2.114-2.496 5.345-3.042q.196-.037.356.09q.16.129.16.336q0 .208-.13.37q-.128.161-.33.204q-2.835.553-4.675 2.757q-1.84 2.204-1.84 5.125Zm8.45 2.381l2.735-2.735q.146-.146.35-.155q.204-.01.37.155q.164.166.162.36q-.003.194-.169.36l-3.382 3.382q-.243.243-.566.243t-.565-.243l-3.394-3.4q-.147-.146-.153-.347q-.007-.2.158-.366q.166-.166.357-.166t.357.166l2.74 2.746V8.192q0-.213.144-.356t.356-.144q.214 0 .357.144q.143.143.143.356v6.183Zm3.973 4.27q.183-.13.409-.124q.226.006.397.177q.165.146.135.357q-.031.21-.208.32q-.838.558-1.762.92q-.923.363-1.905.563q-.208.055-.373-.07q-.166-.125-.166-.338q0-.213.138-.365t.37-.22q.8-.15 1.546-.461q.746-.312 1.42-.76ZM13.533 4.141q-.214-.067-.364-.229q-.15-.161-.15-.375q0-.213.153-.338q.153-.125.36-.088q.99.2 1.915.572q.926.372 1.765.935q.176.13.201.327t-.115.364q-.165.17-.391.177q-.226.005-.428-.124q-.673-.448-1.41-.75q-.736-.301-1.536-.47Zm6.327 9.366q.067-.214.222-.364t.368-.15q.213 0 .341.162q.128.161.086.369q-.18.988-.565 1.909q-.385.92-.949 1.74q-.128.176-.326.195q-.199.02-.339-.12q-.165-.166-.174-.39q-.009-.222.12-.405q.448-.673.757-1.407t.459-1.54Zm-1.197-5.96q-.128-.202-.12-.432q.009-.23.174-.395q.16-.16.358-.118t.327.212q.53.839.896 1.746q.365.906.565 1.895q.056.207-.072.373q-.128.165-.341.165q-.213 0-.368-.153t-.222-.366q-.15-.8-.45-1.527q-.298-.727-.747-1.4Z"/></svg>