<svg xmlns="http://www.w3.org/2000/svg" width="200" height="200" viewBox="0 0 24 24"><path fill="currentColor" d="M4.115 11q-.666 0-1.14-.475q-.475-.474-.475-1.14v-3.27q0-.666.475-1.14q.474-.475 1.14-.475H13V11H4.115Zm0-1H12V5.5H4.115q-.269 0-.442.173t-.173.442v3.27q0 .269.173.442t.442.173Zm0 9.5q-.666 0-1.14-.475q-.475-.474-.475-1.14v-3.27q0-.666.475-1.14Q3.449 13 4.115 13H15v6.5H4.115Zm0-1H14V14H4.115q-.269 0-.442.173t-.173.442v3.27q0 .269.173.442t.442.173ZM17 19.5V11h-2V4.5h6.27l-2 5.115h1.96L17 19.5ZM5 17h1.5v-1.5H5V17Zm0-8.5h1.5V7H5v1.5ZM3.5 10V5.5V10Zm0 8.5V14v4.5Z"/></svg>