<svg xmlns="http://www.w3.org/2000/svg" width="200" height="200" viewBox="0 0 24 24"><path fill="currentColor" d="M6.092 18.898q-.99-1-1.541-2.287T4 13.95q0-1.383.533-2.757q.532-1.374 1.71-2.55q1.71-1.712 4.852-2.208t6.26-.39q.382.043.682.178t.513.348t.32.497t.13.626q.05 1.512-.036 3.124t-.37 3.09t-.81 2.737t-1.376 2.113q-1.152 1.17-2.486 1.706T11.245 21q-1.408 0-2.785-.551q-1.377-.55-2.368-1.55m1.685.07q.783.521 1.699.776T11.25 20q1.163 0 2.3-.453q1.138-.453 2.144-1.497q.447-.45.905-1.263t.794-2.124t.508-3.175t.087-4.438q-1.225-.05-2.781-.018t-3.11.266t-2.92.715t-2.183 1.299q-1.106 1.105-1.55 2.292T5 13.815q0 1.36.543 2.54t1.315 1.841q.627-1.77 1.938-3.395q1.312-1.626 3.67-3.032q-1.724 1.498-2.898 3.188t-1.791 4.012m0 0"/></svg>