<svg xmlns="http://www.w3.org/2000/svg" width="200" height="200" viewBox="0 0 24 24"><path fill="currentColor" d="M16 11.663V5.5q0-.213.144-.356T16.5 5q.212 0 .356.144q.143.144.143.356v5.163l-1 1ZM5 18.5v-13q0-.213.144-.356Q5.288 5 5.501 5q.212 0 .356.144Q6 5.288 6 5.5v13q0 .213-.144.356T5.499 19q-.212 0-.356-.144Q5 18.713 5 18.5Zm5.5-10.98V5.5q0-.213.144-.356Q10.788 5 11 5t.356.144q.143.144.143.356v2.02q0 .212-.144.355q-.144.144-.357.144t-.356-.144q-.143-.143-.143-.356Zm0 5.48v-2.02q0-.212.144-.355q.144-.144.357-.144t.356.144q.143.143.143.356V13q0 .213-.144.356q-.144.144-.357.144t-.356-.144Q10.5 13.213 10.5 13Zm0 5.5v-2.02q0-.212.144-.355q.144-.144.357-.144t.356.144q.143.143.143.356V18.5q0 .213-.144.356Q11.212 19 11 19t-.356-.144q-.143-.143-.143-.356Zm3.73-.308V17.12q0-.153.057-.297q.055-.143.186-.274l5.09-5.065q.149-.148.306-.2t.315-.052q.172 0 .338.064q.165.065.301.193l.925.945q.123.148.188.307q.064.16.064.32t-.062.322q-.061.162-.19.31l-5.065 5.066q-.131.13-.275.186q-.143.056-.296.056h-1.074q-.343 0-.575-.232q-.232-.232-.232-.576Zm6.885-5.132l-.925-.945l.925.945Zm-6 5.055h.95l3.468-3.473l-.47-.475l-.455-.488l-3.493 3.486v.95Zm3.948-3.948l-.455-.488l.925.963l-.47-.475Z"/></svg>