<svg xmlns="http://www.w3.org/2000/svg" width="200" height="200" viewBox="0 0 24 24"><path fill="currentColor" d="M16 11.663V5h1v5.663l-1 1ZM5 19V5h1v14H5Zm5.5-10.98V5h1v3.02h-1Zm0 5.48v-3.02h1v3.02h-1Zm0 5.5v-3.02h1V19h-1Zm3.73 0v-2.21l5.333-5.307q.149-.148.306-.2t.315-.052q.172 0 .338.064q.165.065.301.193l.925.945q.123.148.188.307q.064.16.064.32t-.062.322q-.061.162-.19.31L16.44 19h-2.21Zm6.885-5.94l-.925-.945l.925.945Zm-6 5.055h.95l3.468-3.473l-.47-.475l-.455-.488l-3.493 3.486v.95Zm3.948-3.948l-.455-.488l.925.963l-.47-.475Z"/></svg>