<svg xmlns="http://www.w3.org/2000/svg" width="200" height="200" viewBox="0 0 24 24"><path fill="currentColor" d="M14.685 11.829L12.17 9.315l4.99-5.01q.147-.145.336-.216q.19-.07.397-.07q.189 0 .381.073t.352.22l1.067 1.073q.146.16.217.352q.07.192.07.394q0 .188-.07.378t-.217.335l-5.01 4.985Zm4.723 8.994l-6.856-6.83l-5.554 5.547q-.217.218-.522.339q-.305.121-.628.121h-1.04q-.348 0-.578-.23q-.23-.23-.23-.578v-1.034q0-.323.121-.628t.339-.522l5.553-5.554l-6.836-6.862q-.146-.146-.153-.344q-.007-.198.159-.363q.165-.166.356-.166t.357.166L20.121 20.11q.146.146.153.347q.007.2-.159.366q-.165.165-.353.165q-.189 0-.354-.165ZM17.504 7.588L19 6.112L17.888 5l-1.476 1.496l1.092 1.092Z"/></svg>