<svg xmlns="http://www.w3.org/2000/svg" width="200" height="200" viewBox="0 0 24 24"><path fill="currentColor" d="M11.997 21.385q-.668 0-1.14-.475q-.472-.474-.472-1.14h3.23q0 .67-.475 1.142q-.476.473-1.143.473Zm6.503-2.616h-13q-.213 0-.356-.144Q5 18.481 5 18.27q0-.213.144-.356q.143-.144.356-.144h1.115V9.846q0-1.96 1.24-3.447Q9.097 4.912 11 4.546V4q0-.417.291-.708q.291-.292.707-.292q.415 0 .709.292Q13 3.583 13 4v.546q.39.075.74.191q.348.117.675.3l-4.084 4.06q-.222.218-.354.518q-.13.299-.13.618v3.305q0 .667.474 1.141q.474.475 1.14.475h3.306q.32 0 .62-.13q.3-.132.517-.349l1.48-1.487v4.581H18.5q.213 0 .356.144t.144.357q0 .213-.144.356t-.356.143Zm-6.27-6.807v-1.074q0-.161.057-.303q.055-.143.186-.268l5.09-5.065q.149-.129.306-.19q.157-.062.315-.062q.172 0 .338.064q.165.065.301.194l.925.944q.123.148.188.308q.064.16.064.319q0 .16-.052.322t-.2.31l-5.068 5.07q-.122.12-.265.18q-.142.058-.303.058h-1.074q-.343 0-.575-.232q-.232-.232-.232-.575Zm5.96-4.177l.925-.956l-.925-.944l-.95.95l.95.95Z"/></svg>