<svg xmlns="http://www.w3.org/2000/svg" width="200" height="200" viewBox="0 0 24 24"><path fill="currentColor" d="M5.5 14q-.213 0-.356-.144T5 13.5q0-.212.144-.356T5.5 13h6q.213 0 .356.144q.144.144.144.357q0 .212-.144.356q-.143.143-.356.143h-6Zm0-4q-.213 0-.356-.144T5 9.5q0-.212.144-.356T5.5 9h10q.213 0 .356.144q.144.144.144.357q0 .212-.144.356q-.143.143-.356.143h-10Zm0-4q-.213 0-.356-.144T5 5.499q0-.212.144-.356Q5.288 5 5.5 5h10q.213 0 .356.144q.144.144.144.357q0 .212-.144.356Q15.713 6 15.5 6h-10Zm7.73 12.192V17.12q0-.153.057-.297q.055-.143.186-.274l5.09-5.065q.149-.148.306-.2t.315-.052q.172 0 .338.064q.165.065.301.193l.925.945q.123.148.188.307q.064.16.064.32t-.062.322q-.061.162-.19.31l-5.065 5.066q-.131.13-.275.186q-.143.056-.296.056h-1.074q-.343 0-.575-.232q-.232-.232-.232-.576Zm6.885-5.132l-.925-.945l.925.945Zm-6 5.055h.95l3.468-3.473l-.47-.475l-.455-.488l-3.493 3.486v.95Zm3.948-3.948l-.455-.488l.925.963l-.47-.475Z"/></svg>