<svg xmlns="http://www.w3.org/2000/svg" width="200" height="200" viewBox="0 0 24 24"><path fill="currentColor" d="M13.654 20.192V19.12q0-.161.056-.3q.055-.14.186-.27l5.09-5.066q.149-.13.308-.19q.16-.062.32-.062q.165 0 .334.064q.17.065.298.193l.925.945q.123.148.188.307q.064.16.064.32t-.061.322q-.062.162-.19.31l-5.066 5.066q-.131.13-.27.186q-.14.056-.301.056h-1.073q-.349 0-.578-.23q-.23-.23-.23-.578Zm6.884-5.132l-.925-.945l.925.945Zm-6 5.055h.95l3.468-3.473l-.45-.494l-.475-.47l-3.493 3.487v.95ZM6.615 21q-.69 0-1.152-.462Q5 20.075 5 19.385V4.615q0-.69.463-1.152Q5.925 3 6.615 3h7.214q.323 0 .628.13q.305.132.522.349L18.52 7.02q.217.217.348.522q.131.305.131.628v1.925h-1V8h-3.192q-.348 0-.578-.23q-.23-.23-.23-.578V4H6.615q-.23 0-.423.192Q6 4.385 6 4.615v14.77q0 .23.192.423q.193.192.423.192h4.654v1H6.615ZM6 20V4v16Zm12.506-3.852l-.475-.47l.925.964l-.45-.494Z"/></svg>