<svg xmlns="http://www.w3.org/2000/svg" width="200" height="200" viewBox="0 0 24 24"><path fill="currentColor" d="m14.685 11.829l-.708-.708l2.82-2.82l-1.099-1.097l-2.82 2.82l-.707-.709l5.01-5.028q.153-.15.34-.218q.185-.069.386-.069q.202 0 .39.063q.19.064.35.23l1.066 1.072q.166.16.226.352q.061.193.061.385q0 .205-.07.391q-.07.186-.217.332l-5.028 5.004ZM5 19h1.098l5.74-5.74l-.539-.559l-.559-.54L5 17.902V19Zm14.408 1.823l-6.856-6.83l-5.554 5.547q-.226.22-.524.34q-.297.12-.626.12h-1.04q-.344 0-.576-.232Q4 19.536 4 19.192v-1.034q0-.329.12-.627q.12-.297.34-.523l5.553-5.554l-6.836-6.862q-.146-.146-.153-.344q-.007-.198.159-.363q.165-.166.356-.166t.357.166L20.121 20.11q.146.146.153.347q.007.2-.159.366q-.165.165-.353.165q-.189 0-.354-.165Zm-.389-14.73L17.908 4.98l1.111 1.111Zm-3.32 1.11l1.097 1.099l-1.098-1.098Zm-4.4 5.498l-.559-.54l1.098 1.099l-.539-.559Z"/></svg>