<svg xmlns="http://www.w3.org/2000/svg" width="200" height="200" viewBox="0 0 24 24"><path fill="currentColor" d="M6.615 21q-.69 0-1.152-.462Q5 20.075 5 19.385V4.615q0-.69.463-1.152Q5.925 3 6.615 3h7.214q.331 0 .632.13q.3.132.518.349L18.52 7.02q.217.217.348.518q.131.3.131.632v2.733q-.498.067-.93.304q-.433.237-.8.604l-5.516 5.496q-.217.217-.351.518q-.134.3-.134.632V21H6.615Zm7.039-.808V19.12q0-.153.056-.297q.055-.143.186-.274l5.09-5.065q.149-.13.306-.19q.158-.062.315-.062q.172 0 .338.064q.165.065.301.193l.925.945q.123.148.188.307q.064.16.064.32t-.061.322q-.062.162-.19.31l-5.066 5.066q-.131.13-.275.186q-.143.056-.296.056h-1.073q-.344 0-.576-.232q-.232-.232-.232-.576Zm5.96-4.177l.924-.955l-.925-.945l-.95.95l.95.95ZM14.8 8H18l-4-4l4 4l-4-4v3.2q0 .34.23.57q.23.23.57.23Z"/></svg>