<svg xmlns="http://www.w3.org/2000/svg" width="200" height="200" viewBox="0 0 24 24"><path fill="currentColor" d="M7.885 17.5h2v-3.808h1v-2.577q0-.632-.434-1.066q-.434-.434-1.066-.434h-1q-.633 0-1.067.434q-.433.434-.433 1.066v2.577h1V17.5Zm1-8.808q.448 0 .752-.305t.305-.752q0-.448-.305-.753t-.752-.305q-.448 0-.753.305t-.305.753q0 .448.305.752t.753.305Zm4.827 1.808h3.192l-1.596-2.558l-1.596 2.558Zm1.596 5.558l1.596-2.558h-3.192l1.596 2.558ZM5.615 20q-.69 0-1.152-.462Q4 19.075 4 18.385V5.615q0-.69.463-1.152Q4.925 4 5.615 4h12.77q.69 0 1.152.463q.463.462.463 1.152v12.77q0 .69-.462 1.152q-.463.463-1.153.463H5.615Zm0-1h12.77q.269 0 .442-.173t.173-.442V5.615q0-.269-.173-.442T18.385 5H5.615q-.269 0-.442.173T5 5.615v12.77q0 .269.173.442t.442.173ZM5 19V5v14Z"/></svg>