<svg xmlns="http://www.w3.org/2000/svg" width="200" height="200" viewBox="0 0 24 24"><path fill="currentColor" d="M15.327 22q-1.979 0-3.632-1.065t-2.449-2.866q-.104-.232-.094-.468t.163-.443t.362-.318t.471-.11h6.725q.044-.351.066-.72q.023-.368.023-.758q0-.321-.023-.645q-.022-.324-.066-.684h-.936q-.214 0-.357-.143t-.143-.357t.143-.357t.357-.143h4.51q-.428-.935-1.162-1.65q-.735-.717-1.675-1.12q-.214-.09-.306-.303t-.014-.396t.256-.275t.348-.014q1.881.777 2.994 2.455Q22 13.298 22 15.327q0 2.779-1.947 4.726T15.327 22m-1.221-1.204q-.425-.75-.717-1.513q-.29-.764-.449-1.552h-2.713q.54 1.182 1.555 2t2.324 1.065m1.22.139q.532-.743.86-1.548t.516-1.656h-2.75q.188.85.51 1.656t.865 1.548m1.221-.139q1.31-.248 2.334-1.065t1.564-2h-2.733q-.182.788-.461 1.552t-.704 1.513m1.325-4.065h2.95q.089-.327.133-.68t.044-.724t-.044-.724t-.133-.68h-2.95q.044.321.066.665q.023.343.023.664q0 .371-.023.74q-.022.368-.066.739m-9.2-1.385q-2.779 0-4.726-1.947T2 8.673t1.947-4.726T8.673 2T13.4 3.947t1.947 4.726T13.4 13.4t-4.726 1.947M6.308 7.981q.29 0 .51-.21t.22-.521t-.22-.52t-.51-.21q-.31 0-.52.21t-.211.52t.21.52t.52.21m2.366 4.093q.989 0 1.801-.454t1.314-1.196l-6.23-.02q.502.762 1.324 1.216t1.791.454m2.385-4.092q.29 0 .51-.21t.22-.521t-.22-.52t-.51-.21q-.31 0-.52.21t-.211.52t.21.52t.52.21"/></svg>