<svg xmlns="http://www.w3.org/2000/svg" width="200" height="200" viewBox="0 0 24 24"><path fill="currentColor" d="M10.115 20.196v-5.542l1.362-3.889q.048-.12.15-.193q.104-.072.3-.072h7.146q.17 0 .286.072q.116.072.164.193l1.362 3.89v5.541q0 .178-.121.298q-.121.121-.299.121h-.161q-.178 0-.298-.12q-.121-.121-.121-.299v-1.273h-8.77v1.273q0 .178-.12.298q-.121.121-.299.121h-.161q-.178 0-.299-.12q-.12-.121-.12-.299Zm1.231-6.35h8.308l-.854-2.461h-6.6l-.854 2.461Zm1.23 3.346q.377 0 .631-.254q.255-.254.255-.63t-.255-.63q-.254-.255-.63-.255t-.63.254q-.255.255-.255.63t.255.631q.254.254.63.254Zm5.847 0q.376 0 .63-.254q.255-.254.255-.63t-.255-.63q-.254-.255-.63-.255t-.63.254q-.255.255-.255.63t.255.631q.254.254.63.254ZM6.346 12.615v-1.538h1.539v1.538H6.346Zm4-5V6.077h1.539v1.538h-1.539Zm-4 9v-1.538h1.539v1.538H6.346Zm0 4v-1.538h1.539v1.538H6.346Zm-3.23 0V7.846h4v-5h8V8.27h-1V3.846h-6v5h-4v11.77h-1Z"/></svg>