<svg xmlns="http://www.w3.org/2000/svg" width="200" height="200" viewBox="0 0 24 24"><path fill="currentColor" d="M12 19.885q-.554 0-.954-.322q-.4-.323-.47-.828H10q-.402 0-.701-.3q-.299-.298-.299-.7v-3.012q-1.552-.86-2.401-2.344q-.849-1.485-.849-3.129q0-2.621 1.814-4.436T12 3q2.621 0 4.436 1.814T18.25 9.25q0 1.656-.849 3.135q-.85 1.478-2.401 2.338v3.012q0 .402-.299.7q-.3.3-.701.3h-.577q-.07.505-.47.828q-.4.322-.953.322Zm-2-2.15h4v-.977h-4v.977Zm0-1.747h4V15h-4v.988ZM12.442 14v-3.123l2.085-2.085l-.627-.627l-1.9 1.9l-1.9-1.9l-.627.627l2.085 2.085V14h.884Z"/></svg>