<svg xmlns="http://www.w3.org/2000/svg" width="200" height="200" viewBox="0 0 24 24"><path fill="currentColor" d="M7.115 17.692h3.423q.344 0 .576-.232t.232-.575v-1.923q0-.344-.232-.576t-.576-.232H7.115q-.343 0-.575.232t-.232.576v1.923q0 .343.232.575t.575.232m0-4.846h3.423q.344 0 .576-.232t.232-.576V7.115q0-.343-.232-.575t-.576-.232H7.115q-.343 0-.575.232t-.232.575v4.923q0 .344.232.576t.575.232m6.347 4.846h3.423q.343 0 .575-.232t.232-.575v-4.923q0-.344-.232-.576t-.575-.232h-3.423q-.344 0-.576.232t-.232.576v4.923q0 .343.232.575t.576.232m0-7.846h3.423q.343 0 .575-.232t.232-.576V7.115q0-.343-.232-.575t-.575-.232h-3.423q-.344 0-.576.232t-.232.575v1.923q0 .344.232.576t.576.232M5.615 20q-.69 0-1.152-.462T4 18.385V5.615q0-.69.463-1.152T5.615 4h12.77q.69 0 1.152.463T20 5.615V7.77h1.038q.213 0 .357.144t.143.357t-.143.356t-.357.143H20v2.73h1.038q.213 0 .357.144q.143.144.143.357t-.143.356t-.357.143H20v2.73h1.038q.213 0 .357.145q.143.144.143.356q0 .213-.143.357t-.357.143H20v2.154q0 .69-.462 1.152T18.385 20z"/></svg>