<svg xmlns="http://www.w3.org/2000/svg" width="200" height="200" viewBox="0 0 24 24"><path fill="currentColor" d="M10 13Zm-6.385 8q-.666 0-1.14-.475Q2 20.051 2 19.385V6.615q0-.666.475-1.14Q2.949 5 3.614 5H11.5v1H3.615q-.269 0-.442.173T3 6.615v12.77q0 .269.173.442t.442.173h12.77q.269 0 .442-.173t.173-.442V13.5h1v5.885q0 .666-.475 1.14q-.474.475-1.14.475H3.615Zm2.116-3.5h1v-6h-1v6Zm3.769 0h1v-9h-1v9Zm3.77 0h1v-3h-1v3Zm4.73-6q-.788 0-1.513-.26q-.725-.26-1.35-.75l-.683.62q-.166.14-.366.15q-.201.01-.342-.131q-.16-.16-.16-.354t.16-.354l.689-.67q-.42-.618-.677-1.312Q13.5 7.745 13.5 7q0-1.868 1.316-3.184T18 2.5h4.5V7q0 1.868-1.316 3.184T18 11.5Zm0-1q1.458 0 2.48-1.02Q21.5 8.457 21.5 7V3.5H18q-1.458 0-2.48 1.02Q14.5 5.543 14.5 7q0 .541.197 1.04q.197.5.457.973l3.042-3.042q.16-.16.354-.16t.35.156q.17.17.17.37t-.166.367L15.88 9.727q.44.38.993.577q.553.196 1.126.196Zm-.535-3.071Z"/></svg>