<svg xmlns="http://www.w3.org/2000/svg" width="200" height="200" viewBox="0 0 24 24"><path fill="currentColor" d="M6.23 11.5q-.213 0-.356.144T5.731 12v5q0 .213.144.356q.144.144.356.144q.213 0 .357-.144T6.73 17v-5q0-.213-.144-.356T6.23 11.5m3.77-3q-.213 0-.357.144T9.5 9v8q0 .213.144.356q.144.144.357.144t.356-.144T10.5 17V9q0-.213-.144-.356Q10.212 8.5 10 8.5m3.77 6q-.213 0-.357.144T13.27 15v2q0 .213.144.356t.357.144t.356-.144t.143-.356v-2q0-.213-.144-.356q-.144-.144-.356-.144m4.231-3q-.788 0-1.513-.26t-1.35-.75l-.683.62q-.166.14-.366.15t-.342-.131q-.16-.16-.16-.354t.16-.354l.689-.67q-.42-.618-.677-1.312T13.5 7q0-1.868 1.316-3.184T18 2.5h3.692q.344 0 .576.232t.232.576V7q0 1.868-1.316 3.184T18 11.5m.9-5.533q-.156-.155-.35-.155t-.354.16l-2.17 2.168q-.164.166-.162.364t.163.363q.165.146.354.159t.354-.153l2.169-2.17q.165-.165.165-.366t-.17-.37M3.616 21q-.666 0-1.14-.475Q2 20.051 2 19.385V6.615q0-.666.475-1.14Q2.949 5 3.614 5h7.077q.344 0 .576.232t.232.576v6.077q0 .666.475 1.14q.474.475 1.14.475h4.07q.347 0 .581.232t.234.576v5.077q0 .666-.475 1.14q-.474.475-1.14.475z"/></svg>