<svg xmlns="http://www.w3.org/2000/svg" width="200" height="200" viewBox="0 0 24 24"><path fill="currentColor" d="M4.615 20q-.69 0-1.152-.462T3 18.385v-9.77q0-.69.463-1.152T4.615 7H7v1.415l-4.1-4.1q-.14-.14-.15-.344t.15-.363t.354-.16t.354.16l17.554 17.554q.14.14.15.344t-.15.363t-.354.16t-.354-.16L18.584 20zM21 8.615v8.34q0 .258-.165.402t-.373.143q-.104 0-.212-.046t-.18-.12L9.401 6.668q-.198-.198-.3-.445T9 5.69v-.075q0-.69.463-1.152T10.615 4h2.77q.69 0 1.153.463T15 5.615V7h4.385q.69 0 1.152.463T21 8.615M10 7h4V5.615q0-.23-.192-.423T13.385 5h-2.77q-.23 0-.423.192T10 5.615z"/></svg>