<svg xmlns="http://www.w3.org/2000/svg" width="200" height="200" viewBox="0 0 24 24"><path fill="currentColor" d="M20.808 22.223L18.585 20H4.615q-.69 0-1.152-.462Q3 19.075 3 18.385v-9.77q0-.69.463-1.152Q3.925 7 4.615 7H7l1 1H4.615q-.23 0-.423.192Q4 8.385 4 8.615v9.77q0 .23.192.423q.193.192.423.192H17.58L2.546 3.962l.708-.708l18.261 18.261l-.707.708ZM21 18.265l-1-1v-8.65q0-.23-.192-.423Q19.615 8 19.385 8h-8.65L9 6.265v-.65q0-.69.463-1.152Q9.925 4 10.614 4h2.77q.69 0 1.153.463q.462.462.462 1.152V7h4.385q.69 0 1.152.463q.463.462.463 1.152v9.65ZM10 7h4V5.615q0-.23-.192-.423Q13.615 5 13.385 5h-2.77q-.23 0-.423.192q-.192.193-.192.423V7Zm5.367 5.633Zm-3.282.867Z"/></svg>