<svg xmlns="http://www.w3.org/2000/svg" width="200" height="200" viewBox="0 0 24 24"><path fill="currentColor" d="M20.454 21.87L18.584 20H4.616q-.69 0-1.152-.462T3 18.385v-9.77q0-.69.463-1.152T4.615 7H7l1 1H4.615q-.23 0-.423.192T4 8.615v9.77q0 .23.192.423t.423.192H17.58L2.9 4.315q-.14-.14-.153-.341t.153-.366q.16-.16.354-.16t.354.16l17.554 17.554q.14.14.15.344t-.15.363t-.354.16t-.354-.16M21 8.614v8.443q0 .25-.159.375t-.341.125t-.341-.128t-.159-.378V8.615q0-.23-.192-.423T19.385 8h-7.98q-.322 0-.627-.13t-.522-.349l-.854-.854q-.198-.198-.3-.445T9 5.69v-.075q0-.69.463-1.152T10.615 4h2.77q.69 0 1.153.463T15 5.615V7h4.385q.69 0 1.152.463T21 8.615M10 7h4V5.615q0-.23-.192-.423T13.385 5h-2.77q-.23 0-.423.192T10 5.615zm2.085 6.5"/></svg>