<svg xmlns="http://www.w3.org/2000/svg" width="200" height="200" viewBox="0 0 24 24"><path fill="currentColor" d="M17 17.538h-2.5q-.213 0-.356-.143T14 17.038q0-.213.144-.356q.144-.144.356-.144H17v-2.5q0-.212.144-.356t.357-.144q.212 0 .356.144q.143.144.143.356v2.5h2.5q.213 0 .356.144q.144.144.144.357t-.144.356q-.144.143-.356.143H18v2.5q0 .213-.144.357q-.144.143-.357.143q-.212 0-.356-.143Q17 20.25 17 20.038v-2.5ZM12 21q-1.868 0-3.51-.708q-1.643-.709-2.857-1.924q-1.215-1.214-1.924-2.856Q3 13.87 3 12.003q0-1.866.708-3.51q.709-1.643 1.924-2.859q1.214-1.216 2.856-1.925Q10.13 3 11.997 3q1.866 0 3.51.709t2.859 1.924q1.216 1.215 1.925 2.857Q21 10.133 21 12q0 .2-.015.388q-.016.187-.027.364q-.462-.38-.995-.638t-1.148-.383l1.043-1.156q-.12-.662-.34-1.298q-.222-.637-.556-1.21l-8.681 8.675q.429.575.928 1.048q.499.473 1.099.864q.165.627.492 1.186q.327.56.765 1.022q-.388.069-.77.103Q12.413 21 12 21Zm-2.256-5.117L18.4 7.208q-.371-.493-.79-.915q-.42-.422-.918-.768l-7.863 7.87q.12.66.35 1.285q.23.624.565 1.203ZM8.73 12.067l7.079-7.079q-.335-.19-.68-.354q-.345-.165-.718-.272q-2.554.776-4.138 2.899q-1.584 2.122-1.543 4.806Z"/></svg>