<svg xmlns="http://www.w3.org/2000/svg" width="200" height="200" viewBox="0 0 24 24"><path fill="currentColor" d="M15.615 20q-.402 0-.7-.299q-.3-.3-.3-.701v-4.385q0-.402.3-.7q.298-.3.7-.3H20q.402 0 .701.3q.299.298.299.7V19q0 .402-.299.701q-.3.299-.701.299h-4.385Zm0-1H20v-4.385h-4.385V19ZM3.5 17.308q-.213 0-.356-.144T3 16.807q0-.213.144-.356q.143-.143.356-.143h7.23q.213 0 .357.144t.144.356q0 .213-.144.356q-.144.144-.356.144H3.5Zm12.115-6.923q-.402 0-.7-.3q-.3-.298-.3-.7V5q0-.402.3-.701q.298-.299.7-.299H20q.402 0 .701.299q.299.3.299.701v4.385q0 .402-.299.7q-.3.3-.701.3h-4.385Zm0-1H20V5h-4.385v4.385ZM3.5 7.692q-.213 0-.356-.144Q3 7.404 3 7.192q0-.213.144-.356q.143-.144.356-.144h7.23q.213 0 .357.144t.144.357q0 .213-.144.356t-.356.143H3.5Zm14.308 9.116Zm0-9.616Z"/></svg>