<svg xmlns="http://www.w3.org/2000/svg" width="200" height="200" viewBox="0 0 24 24"><path fill="currentColor" d="M12 21q-1.863 0-3.506-.71t-2.857-1.927Q4.42 17.148 3.71 15.506Q3 13.863 3 12q0-1.596.521-3.013t1.456-2.583L3.094 4.52q-.146-.146-.156-.347q-.01-.2.156-.366q.166-.166.357-.166t.357.166l16.384 16.384q.146.146.156.345q.01.198-.156.363q-.165.165-.356.165t-.357-.165l-1.883-1.877q-1.167.935-2.583 1.456Q13.596 21 12 21Zm.512-7.062l-2.462-2.461l-2.652 4.606q-.144.269.053.466q.197.197.466.053l4.595-2.664Zm7.107 2.87l-5.18-5.181l2.163-3.71q.144-.25-.053-.447q-.197-.197-.466-.072l-3.71 2.164l-5.18-5.181q1.07-.666 2.275-1.023Q10.673 3 12 3q1.863 0 3.506.71t2.857 1.927q1.216 1.215 1.926 2.857Q21 10.137 21 12q0 1.327-.358 2.532q-.357 1.205-1.023 2.276Z"/></svg>