<svg xmlns="http://www.w3.org/2000/svg" width="200" height="200" viewBox="0 0 24 24"><path fill="currentColor" d="m14.438 11.627l-2.065-2.065l3.71-2.164q.265-.125.464.072q.2.197.055.447l-2.164 3.71Zm5.04 9.273l-1.882-1.877q-1.167.935-2.583 1.456Q13.596 21 12 21q-1.868 0-3.51-.709t-2.857-1.923q-1.215-1.215-1.924-2.858Q3 13.868 3 12q0-1.596.521-3.013t1.456-2.583L3.094 4.52q-.146-.146-.156-.347q-.01-.2.156-.366q.166-.166.357-.166t.357.166l16.384 16.384q.146.146.156.345q.01.198-.156.363q-.165.165-.356.165t-.357-.165Zm.141-4.092l-.738-.739q.55-.911.834-1.933Q20 13.113 20 12q0-3.325-2.337-5.663T12 4q-1.113 0-2.136.285q-1.022.284-1.933.834l-.739-.738q1.066-.67 2.274-1.025Q10.673 3 12 3q1.868 0 3.51.709t2.857 1.924q1.215 1.215 1.924 2.857Q21 10.133 21 12q0 1.327-.356 2.534q-.355 1.208-1.025 2.274Zm-6.213-6.214Zm-2.12 2.12ZM12 20q1.383 0 2.616-.448t2.26-1.248l-4.364-4.366l-4.595 2.664q-.269.144-.466-.053q-.197-.197-.053-.466l2.652-4.606l-4.354-4.354q-.8 1.027-1.248 2.26Q4 10.618 4 12q0 3.325 2.337 5.663T12 20Z"/></svg>