<svg xmlns="http://www.w3.org/2000/svg" width="200" height="200" viewBox="0 0 24 24"><path fill="currentColor" d="M3.615 22q-.69 0-1.152-.462T2 20.385v-2.116q0-.213.143-.356t.357-.144t.357.144t.143.356v2.116q0 .269.173.442t.442.173h2.116q.213 0 .357.143t.143.357t-.143.357T5.73 22zm16.77 0h-2.116q-.213 0-.356-.143t-.144-.357t.144-.357t.356-.143h2.116q.269 0 .442-.173t.173-.442v-2.116q0-.213.143-.356t.357-.144t.357.144t.143.356v2.116q0 .69-.462 1.152T20.385 22M12 17.73q-2.42 0-4.39-1.226q-1.972-1.227-3.15-3.46q-.131-.242-.187-.497t-.056-.522q0-.273.056-.55t.187-.52q1.178-2.232 3.15-3.459T12 6.27t4.39 1.227t3.15 3.46q.131.242.187.506t.056.538t-.056.537t-.187.507q-1.178 2.233-3.15 3.46Q14.42 17.73 12 17.73m0-1q2.277 0 4.083-1.239Q17.888 14.254 18.92 12q-1.033-2.254-2.838-3.492Q14.277 7.269 12 7.269T7.917 8.508T5.08 12q1.033 2.254 2.838 3.492Q9.723 16.731 12 16.731m0-1.866q1.2 0 2.033-.832T14.865 12t-.832-2.033T12 9.135t-2.033.832T9.135 12t.832 2.033t2.033.832m0-1q-.779 0-1.322-.543T10.135 12t.543-1.322T12 10.135t1.322.543t.543 1.322t-.543 1.322t-1.322.543M5.73 3H3.616q-.269 0-.442.173T3 3.615v2.616H2V3.615q0-.69.463-1.152T3.615 2h2.116q.213 0 .357.143t.143.357t-.143.357T5.73 3M22 3.615v2.116q0 .213-.143.357t-.357.143t-.357-.143T21 5.73V3.615q0-.269-.173-.442T20.385 3h-2.116q-.213 0-.356-.143t-.144-.357t.144-.357t.356-.143h2.116q.69 0 1.152.463T22 3.615M12 12"/></svg>