<svg xmlns="http://www.w3.org/2000/svg" width="200" height="200" viewBox="0 0 24 24"><path fill="currentColor" d="M3.615 22q-.69 0-1.152-.462T2 20.385v-2.116q0-.212.144-.356t.357-.144t.356.144t.143.356v2.116q0 .269.173.442t.442.173h2.116q.212 0 .356.144t.144.357t-.144.356t-.356.143zm16.77 0h-2.116q-.212 0-.356-.144t-.144-.357t.144-.356t.356-.143h2.116q.269 0 .442-.173t.173-.442v-2.116q0-.212.144-.356t.357-.144t.356.144t.143.356v2.116q0 .69-.462 1.152T20.385 22M12 17.73q-2.42 0-4.39-1.226q-1.972-1.227-3.15-3.46q-.122-.242-.182-.494t-.06-.515q0-.283.055-.56t.187-.52q1.178-2.232 3.15-3.459T12 6.27t4.39 1.227t3.15 3.46q.131.242.187.506t.056.538t-.056.537t-.187.507q-1.178 2.233-3.15 3.46Q14.42 17.73 12 17.73m0-2.866q1.2 0 2.033-.832T14.865 12t-.832-2.033T12 9.135t-2.033.832T9.135 12t.832 2.033t2.033.832m-.001-1q-.778 0-1.321-.544t-.543-1.322t.544-1.321t1.322-.543t1.321.544t.543 1.322t-.544 1.321t-1.322.543M5.73 3H3.615q-.269 0-.442.173T3 3.615v2.616H2V3.615q0-.69.463-1.152T3.615 2h2.116q.212 0 .356.144t.144.357t-.144.356T5.731 3M22 3.615v2.116q0 .212-.144.356t-.357.144t-.356-.144T21 5.731V3.615q0-.269-.173-.442T20.385 3h-2.116q-.212 0-.356-.144t-.144-.357t.144-.356t.356-.143h2.116q.69 0 1.152.463T22 3.615"/></svg>