<svg xmlns="http://www.w3.org/2000/svg" width="200" height="200" viewBox="0 0 24 24"><path fill="currentColor" d="M6.23 22H2v-4.23h1V21h3.23zm11.54 0v-1H21v-3.23h1V22zM12 17.73q-2.673 0-4.803-1.515T3.981 12q1.086-2.7 3.216-4.215Q9.327 6.269 12 6.269t4.803 1.516T20.019 12q-1.086 2.7-3.216 4.215q-2.13 1.516-4.803 1.516m0-2.866q1.2 0 2.033-.832T14.865 12t-.832-2.033T12 9.135t-2.033.832T9.135 12t.832 2.033t2.033.832m-.001-1q-.778 0-1.321-.544t-.543-1.322t.544-1.321t1.322-.543t1.321.544t.543 1.322t-.544 1.321t-1.322.543M2 6.231V2h4.23v1H3v3.23zm19 0V3h-3.23V2H22v4.23z"/></svg>