<svg xmlns="http://www.w3.org/2000/svg" width="200" height="200" viewBox="0 0 24 24"><path fill="currentColor" d="M6.23 22H3.616q-.69 0-1.152-.462T2 20.385v-2.616h1v2.616q0 .269.173.442t.442.173h2.616zm11.54 0v-1h2.615q.269 0 .442-.173t.173-.442v-2.616h1v2.616q0 .69-.462 1.152T20.385 22zM12 17.73q-2.673 0-4.803-1.515T3.981 12q1.086-2.7 3.216-4.215Q9.327 6.269 12 6.269t4.803 1.516T20.019 12q-1.086 2.7-3.216 4.215q-2.13 1.516-4.803 1.516m0-1q2.277 0 4.083-1.239Q17.888 14.254 18.92 12q-1.033-2.254-2.838-3.492Q14.277 7.269 12 7.269T7.917 8.508T5.08 12q1.033 2.254 2.838 3.492Q9.723 16.731 12 16.731m0-1.866q1.2 0 2.033-.832T14.865 12t-.832-2.033T12 9.135t-2.033.832T9.135 12t.832 2.033t2.033.832m0-1q-.779 0-1.322-.543T10.135 12t.543-1.322T12 10.135t1.322.543t.543 1.322t-.543 1.322t-1.322.543M2 6.231V3.615q0-.69.463-1.152T3.615 2h2.616v1H3.615q-.269 0-.442.173T3 3.615v2.616zm19 0V3.615q0-.269-.173-.442T20.385 3h-2.616V2h2.616q.69 0 1.152.463T22 3.615v2.616zM12 12"/></svg>