<svg xmlns="http://www.w3.org/2000/svg" width="200" height="200" viewBox="0 0 24 24"><path fill="currentColor" d="M9 16.25q-.525 0-.888-.363T7.75 15q0-.525.363-.888T9 13.75q.525 0 .888.363t.362.887q0 .525-.363.888T9 16.25Zm6 0q-.525 0-.888-.363T13.75 15q0-.525.363-.888T15 13.75q.525 0 .888.363t.362.887q0 .525-.363.888T15 16.25ZM12 22q3.35 0 5.675-2.325T20 14q0-.6-.075-1.163t-.275-1.087q-.525.125-1.05.188T17.5 12q-2.275 0-4.3-.975T9.75 8.3q-.8 1.95-2.288 3.388T4 13.85V14q0 3.35 2.325 5.675T12 22ZM9.708 6.317Q10.93 8.76 13.163 9.88T17.5 11q.465 0 .915-.047t.897-.155q-.954-2.23-2.956-3.514Q14.354 6 12 6q-.658 0-1.204.076q-.546.076-1.088.241Zm-5.571 6.389q1.544-.687 3.128-2.25Q8.85 8.892 9.113 6.525q-2.005.763-3.32 2.404q-1.316 1.64-1.656 3.777Zm5.57-6.389Zm-.594.208ZM3.425 11.46q.546-1.998 1.916-3.522q1.37-1.525 3.31-2.263q-.54-.679-1.34-1.1q-.8-.421-1.766-.421q-1.666 0-2.817 1.152Q1.577 6.46 1.577 8.13q0 1.05.508 1.92q.507.87 1.34 1.41ZM12.003 23q-1.866 0-3.51-.709t-2.859-1.923q-1.216-1.215-1.925-2.858Q3 15.867 3 14q0-.394.033-.782q.032-.387.117-.749q-1.171-.63-1.872-1.785Q.577 9.53.577 8.13q0-2.075 1.45-3.525t3.525-1.45q1.268 0 2.332.59q1.064.589 1.74 1.58q.572-.162 1.17-.243Q11.392 5 12 5q1.868 0 3.51.708q1.643.709 2.857 1.924q1.215 1.214 1.924 2.856Q21 12.13 21 13.997q0 1.866-.708 3.51q-.709 1.643-1.924 2.859q-1.214 1.216-2.856 1.925Q13.87 23 12.003 23ZM5.348 7.944Z"/></svg>