<svg xmlns="http://www.w3.org/2000/svg" width="200" height="200" viewBox="0 0 24 24"><path fill="currentColor" d="m20.812 21.408l-2.854-2.854q-1.218 1.129-2.739 1.787q-1.52.659-3.4.659q-1.857 0-3.5-.71q-1.642-.711-2.86-1.93q-1.219-1.218-1.93-2.86q-.71-1.642-.71-3.5q0-1.84.678-3.413q.678-1.572 1.768-2.731L2.412 3.008l.707-.708l18.4 18.4l-.707.708Zm-1.018-5.245l-.725-.763q.35-.8.55-1.65t.2-1.75q0-.6-.075-1.162T19.47 9.75q-.525.125-1.05.188t-1.1.062q-1.4 0-2.624-.343q-1.224-.344-2.387-1.019L7.688 4.02q1.004-.523 1.96-.77Q10.604 3 11.82 3q1.864 0 3.503.71q1.64.711 2.858 1.927q1.218 1.215 1.929 2.857q.71 1.643.71 3.506q0 1.037-.235 2.095q-.236 1.059-.79 2.068ZM8.82 14.25q-.525 0-.887-.362T7.569 13q0-.525.363-.887t.887-.363q.525 0 .888.363t.362.887q0 .525-.362.888t-.888.362Zm3 5.75q1.614 0 3.03-.599q1.414-.6 2.39-1.555L8.13 8.725q-.789 1.05-1.966 1.89q-1.178.84-2.344 1.235V12q0 3.325 2.338 5.663T11.819 20Z"/></svg>