<svg xmlns="http://www.w3.org/2000/svg" width="200" height="200" viewBox="0 0 24 24"><path fill="currentColor" d="M12 6q-.2 0-.35-.15t-.15-.35q0-.2.15-.35T12 5q.2 0 .35.15t.15.35q0 .2-.15.35T12 6Zm2 0q-.2 0-.35-.15t-.15-.35q0-.2.15-.35T14 5q.2 0 .35.15t.15.35q0 .2-.15.35T14 6Zm-4 0q-.2 0-.35-.15T9.5 5.5q0-.2.15-.35T10 5q.2 0 .35.15t.15.35q0 .2-.15.35T10 6Zm7 1q-.2 0-.35-.15t-.15-.35q0-.2.15-.35T17 6q.2 0 .35.15t.15.35q0 .2-.15.35T17 7ZM9 7q-.2 0-.35-.15T8.5 6.5q0-.2.15-.35T9 6q.2 0 .35.15t.15.35q0 .2-.15.35T9 7ZM7 7q-.2 0-.35-.15T6.5 6.5q0-.2.15-.35T7 6q.2 0 .35.15t.15.35q0 .2-.15.35T7 7Zm4 0q-.2 0-.35-.15t-.15-.35q0-.2.15-.35T11 6q.2 0 .35.15t.15.35q0 .2-.15.35T11 7Zm2 0q-.2 0-.35-.15t-.15-.35q0-.2.15-.35T13 6q.2 0 .35.15t.15.35q0 .2-.15.35T13 7Zm2 0q-.2 0-.35-.15t-.15-.35q0-.2.15-.35T15 6q.2 0 .35.15t.15.35q0 .2-.15.35T15 7Zm-3 1q-.2 0-.35-.15t-.15-.35q0-.2.15-.35T12 7q.2 0 .35.15t.15.35q0 .2-.15.35T12 8Zm2 0q-.2 0-.35-.15t-.15-.35q0-.2.15-.35T14 7q.2 0 .35.15t.15.35q0 .2-.15.35T14 8Zm2 0q-.2 0-.35-.15t-.15-.35q0-.2.15-.35T16 7q.2 0 .35.15t.15.35q0 .2-.15.35T16 8Zm-6 0q-.2 0-.35-.15T9.5 7.5q0-.2.15-.35T10 7q.2 0 .35.15t.15.35q0 .2-.15.35T10 8ZM8 8q-.2 0-.35-.15T7.5 7.5q0-.2.15-.35T8 7q.2 0 .35.15t.15.35q0 .2-.15.35T8 8Zm1 1q-.2 0-.35-.15T8.5 8.5q0-.2.15-.35T9 8q.2 0 .35.15t.15.35q0 .2-.15.35T9 9ZM7 9q-.2 0-.35-.15T6.5 8.5q0-.2.15-.35T7 8q.2 0 .35.15t.15.35q0 .2-.15.35T7 9Zm4 0q-.2 0-.35-.15t-.15-.35q0-.2.15-.35T11 8q.2 0 .35.15t.15.35q0 .2-.15.35T11 9Zm2 0q-.2 0-.35-.15t-.15-.35q0-.2.15-.35T13 8q.2 0 .35.15t.15.35q0 .2-.15.35T13 9Zm2 0q-.2 0-.35-.15t-.15-.35q0-.2.15-.35T15 8q.2 0 .35.15t.15.35q0 .2-.15.35T15 9Zm2 0q-.2 0-.35-.15t-.15-.35q0-.2.15-.35T17 8q.2 0 .35.15t.15.35q0 .2-.15.35T17 9ZM5 9q-.2 0-.35-.15T4.5 8.5q0-.2.15-.35T5 8q.2 0 .35.15t.15.35q0 .2-.15.35T5 9Zm1-1q-.2 0-.35-.15T5.5 7.5q0-.2.15-.35T6 7q.2 0 .35.15t.15.35q0 .2-.15.35T6 8Zm2-2q-.2 0-.35-.15T7.5 5.5q0-.2.15-.35T8 5q.2 0 .35.15t.15.35q0 .2-.15.35T8 6Zm1-1q-.2 0-.35-.15T8.5 4.5q0-.2.15-.35T9 4q.2 0 .35.15t.15.35q0 .2-.15.35T9 5Zm2 0q-.2 0-.35-.15t-.15-.35q0-.2.15-.35T11 4q.2 0 .35.15t.15.35q0 .2-.15.35T11 5Zm2 0q-.2 0-.35-.15t-.15-.35q0-.2.15-.35T13 4q.2 0 .35.15t.15.35q0 .2-.15.35T13 5Zm2 0q-.2 0-.35-.15t-.15-.35q0-.2.15-.35T15 4q.2 0 .35.15t.15.35q0 .2-.15.35T15 5Zm1 1q-.2 0-.35-.15t-.15-.35q0-.2.15-.35T16 5q.2 0 .35.15t.15.35q0 .2-.15.35T16 6Zm2 2q-.2 0-.35-.15t-.15-.35q0-.2.15-.35T18 7q.2 0 .35.15t.15.35q0 .2-.15.35T18 8Zm1 1q-.2 0-.35-.15t-.15-.35q0-.2.15-.35T19 8q.2 0 .35.15t.15.35q0 .2-.15.35T19 9ZM9 14.25q-.525 0-.888-.363T7.75 13q0-.525.363-.888T9 11.75q.525 0 .888.363t.362.887q0 .525-.363.888T9 14.25Zm6 0q-.525 0-.888-.363T13.75 13q0-.525.363-.888T15 11.75q.525 0 .888.363t.362.887q0 .525-.363.888T15 14.25ZM12 21q-1.858 0-3.497-.707q-1.64-.708-2.864-1.932t-1.932-2.864Q3 13.857 3 12.008q0-1.871.71-3.514q.711-1.642 1.93-2.867Q6.857 4.402 8.501 3.7q1.646-.7 3.493-.7q1.87 0 3.512.701q1.642.7 2.867 1.926T20.3 8.493Q21 10.134 21 12q0 1.85-.701 3.496q-.7 1.646-1.926 2.865q-1.225 1.218-2.866 1.928Q13.866 21 12 21Zm0-1q3.35 0 5.675-2.337T20 12q0-3.35-2.325-5.675T12 4Q8.675 4 6.337 6.325T4 12q0 3.325 2.337 5.663T12 20Z"/></svg>