<svg xmlns="http://www.w3.org/2000/svg" width="200" height="200" viewBox="0 0 24 24"><path fill="currentColor" d="M4.615 21q-.666 0-1.14-.475Q3 20.051 3 19.385v-7.662q0-.492.258-.902q.257-.41.717-.602l2.894-1.215q.404-.162.768.06q.363.223.363.667v.75l3.894-1.566q.404-.161.755.082q.351.244.351.67V11h8v8.385q0 .666-.475 1.14q-.474.475-1.14.475H4.615Zm6.616-3.462h1.538v-3.076h-1.538v3.076Zm-4 0h1.538v-3.076H7.231v3.076Zm8 0h1.538v-3.076h-1.538v3.076Zm5.646-7.423h-2.875l.821-5.855q.03-.222.196-.356q.165-.135.381-.135h.283q.182 0 .316.124t.159.309l.719 5.913Z"/></svg>