<svg xmlns="http://www.w3.org/2000/svg" width="200" height="200" viewBox="0 0 24 24"><path fill="currentColor" d="M11.997 15.462q1.01 0 1.804-.617q.793-.616 1.16-1.549H9.039q.368.933 1.158 1.55q.79.616 1.8.616Zm-2.108-3.539q.467 0 .789-.327q.322-.326.322-.793q0-.466-.327-.789q-.326-.322-.793-.322t-.789.327q-.322.327-.322.793q0 .467.327.789q.326.322.793.322Zm4.23 0q.468 0 .79-.327q.322-.326.322-.793q0-.466-.327-.789q-.326-.322-.793-.322t-.789.327q-.322.327-.322.793q0 .467.327.789q.326.322.793.322Zm-5.994-4.83L12 1.936l3.875 5.155l6.138 2.07l-3.94 5.336l.156 6.056L12 18.733l-6.229 1.82l.156-6.08l-3.915-5.311l6.113-2.07Zm.629.859l-5.1 1.735l3.292 4.494l-.138 5.006L12 17.697l5.192 1.534l-.138-5.05l3.292-4.444l-5.1-1.785L12 3.615L8.754 7.952ZM12 11.423Z"/></svg>