<svg xmlns="http://www.w3.org/2000/svg" width="200" height="200" viewBox="0 0 24 24"><path fill="currentColor" d="M9.808 22.5q-1.102 0-1.994-.657q-.89-.656-1.183-1.703q-.189-.728-.654-1.28t-1.18-.552q-.459 0-.876.207t-.706.547q-.067.078-.158.13t-.207.052q-.213 0-.357-.143t-.143-.357q0-.084.021-.167t.089-.15q.428-.535 1.037-.827t1.3-.292q1.043 0 1.774.76q.73.759 1.023 1.792q.208.728.837 1.184t1.377.456q.667 0 1.167-.394t.871-.923l.044-.07l-6.61-9.543q-.142-.217-.21-.46T5 9.626q0-.304.121-.599t.344-.538l5.962-6.048q.217-.217.496-.338t.577-.121t.577.12t.496.34l5.962 6.047q.223.243.344.538t.121.599q0 .242-.068.485q-.069.242-.21.46l-7.03 10.134q-.584.875-1.315 1.335t-1.57.461"/></svg>