<svg xmlns="http://www.w3.org/2000/svg" width="200" height="200" viewBox="0 0 24 24"><path fill="currentColor" d="M12.003 19q-2.93 0-4.966-2.033Q5 14.933 5 12.003q0-2.93 2.033-4.966Q9.067 5 11.997 5q2.93 0 4.966 2.033Q19 9.067 19 11.997q0 2.93-2.033 4.966Q14.933 19 12.003 19ZM12 18q2.5 0 4.25-1.75T18 12q0-.435-.063-.857q-.062-.422-.187-.831q-.394.094-.793.14q-.4.048-.798.048q-1.676 0-3.169-.706q-1.492-.706-2.578-1.97q-.624 1.443-1.762 2.522Q7.512 11.425 6 11.938q.017 2.489 1.764 4.275Q9.512 18 12 18Zm-5.83-7.208q1.157-.517 2.222-1.616q1.066-1.1 1.346-2.745q-1.411.557-2.348 1.707q-.936 1.149-1.22 2.654Zm3.526 2.958q-.402 0-.674-.272t-.272-.674q0-.402.272-.69t.674-.287q.402 0 .69.287t.287.69q0 .402-.287.674q-.288.272-.69.272Zm6.458-4.25q.323 0 .617-.029t.598-.111q-.748-1.568-2.203-2.464Q13.712 6 12 6q-.42 0-.771.038q-.352.039-.708.14q.937 1.703 2.486 2.512q1.549.81 3.147.81Zm-1.843 4.25q-.402 0-.674-.272t-.272-.674q0-.402.272-.69q.272-.287.674-.287t.69.287t.287.69q0 .402-.287.674q-.288.272-.69.272ZM2 6V2h4v1H3v3H2Zm0 16v-4h1v3h3v1H2Zm16 0v-1h3v-3h1v4h-4Zm3-16V3h-3V2h4v4h-1Zm-10.479.179Zm-.783.252Z"/></svg>