<svg xmlns="http://www.w3.org/2000/svg" width="200" height="200" viewBox="0 0 24 24"><path fill="currentColor" d="M14.383 14.385q-.666-1.356-2.185-1.794q-1.52-.437-3.14-.437q-1.612 0-3.155.437q-1.543.438-2.17 1.794h10.65Zm-11.94 1q0-2.187 2.063-3.21q2.063-1.021 4.552-1.021q2.488 0 4.552 1.022q2.063 1.022 2.063 3.209H2.443Zm0 3.307v-1h13.23v1H2.443ZM17.672 22v-1h1.4l1.4-13.615h-9.011l-.135-1h4.615v-4h1v4h4.616l-1.496 14.703q-.056.414-.358.663q-.302.249-.716.249h-1.315Zm0-1h1.4h-1.4ZM3.058 22q-.262 0-.439-.177t-.177-.438V21h13.231v.385q0 .261-.177.438t-.438.177h-12Zm6-7.615Z"/></svg>