<svg xmlns="http://www.w3.org/2000/svg" width="200" height="200" viewBox="0 0 24 24"><path fill="currentColor" d="M5 20.5q-1.042 0-1.77-.73q-.73-.728-.73-1.77v-7q0-1.042.73-1.77Q3.957 8.5 5 8.5q.617 0 1.132.275q.514.275.881.725H8.5V6.462q0-.667.475-1.141q.474-.475 1.14-.475h5.77q.666 0 1.14.475q.475.474.475 1.14V9.5H19q1.042 0 1.77.73q.73.728.73 1.77v5.885q0 .666-.475 1.14q-.474.475-1.14.475H7.013q-.367.45-.881.725Q5.617 20.5 5 20.5Zm0-1q.617 0 1.059-.441Q6.5 18.617 6.5 18v-7q0-.617-.441-1.059Q5.617 9.5 5 9.5t-1.059.441Q3.5 10.383 3.5 11v7q0 .617.441 1.059q.442.441 1.059.441Zm4.5-10h7V6.462q0-.27-.173-.443t-.442-.173h-5.77q-.269 0-.442.173t-.173.443V9.5Zm-2 9h12.385q.269 0 .442-.173t.173-.442V12q0-.617-.441-1.059Q19.617 10.5 19 10.5H7.5v8ZM15 14q.425 0 .713-.288T16 13q0-.425-.288-.713T15 12q-.425 0-.713.288T14 13q0 .425.288.713T15 14Zm3 0q.425 0 .713-.288T19 13q0-.425-.288-.713T18 12q-.425 0-.713.288T17 13q0 .425.288.713T18 14Zm-3 3q.425 0 .713-.288T16 16q0-.425-.288-.713T15 15q-.425 0-.713.288T14 16q0 .425.288.713T15 17Zm3 0q.425 0 .713-.288T19 16q0-.425-.288-.713T18 15q-.425 0-.713.288T17 16q0 .425.288.713T18 17Zm-8.192 0h2.384q.344 0 .576-.232q.232-.232.232-.576v-3.384q0-.344-.232-.576q-.232-.232-.576-.232H9.808q-.344 0-.576.232q-.232.232-.232.576v3.384q0 .344.232.576q.232.232.576.232ZM7.5 18.5v-8v8Z"/></svg>