<svg xmlns="http://www.w3.org/2000/svg" width="200" height="200" viewBox="0 0 24 24"><path fill="currentColor" d="m18 12.52l1 1v5.865q0 .69-.462 1.152q-.463.463-1.153.463H4.615q-.69 0-1.152-.462Q3 20.075 3 19.385V6.615q0-.69.463-1.152Q3.925 5 4.615 5h5.366q-.085.277-.118.52L9.8 6H4.615q-.23 0-.423.192Q4 6.385 4 6.615v12.77q0 .23.192.423q.193.192.423.192h12.77q.23 0 .423-.192q.192-.193.192-.423v-6.866Zm.454-3.774l2.961 2.962q.14.14.15.344q.01.204-.15.363q-.16.16-.353.16q-.195 0-.354-.16l-2.962-2.961q-.448.396-1.038.586q-.59.19-1.208.19q-1.567 0-2.65-1.081q-1.08-1.082-1.08-2.649t1.08-2.65q1.083-1.08 2.65-1.08t2.65 1.08q1.08 1.083 1.08 2.65q0 .675-.209 1.237q-.21.561-.567 1.01Zm-2.954.485q1.146 0 1.938-.793q.793-.792.793-1.938t-.793-1.938q-.792-.793-1.938-.793t-1.938.793q-.793.792-.793 1.938t.793 1.938q.792.793 1.938.793ZM4 12.519V20V6v6.23v-.28v.57Z"/></svg>