<svg xmlns="http://www.w3.org/2000/svg" width="200" height="200" viewBox="0 0 24 24"><path fill="currentColor" d="M13.308 12.577q.31 0 .54-.23q.229-.23.229-.54q0-.117-.018-.206t-.074-.176q.255-.062.424-.263t.168-.47q0-.31-.23-.54q-.23-.229-.54-.229q-.247 0-.459.156q-.211.156-.273.417l-3.67-1.77q.108-.118.179-.247t.07-.287q0-.31-.23-.54q-.23-.229-.54-.229t-.539.23t-.23.54q0 .092.031.181t.087.176q-.256.062-.437.263t-.18.495q0 .31.23.54q.229.229.539.229q.253 0 .446-.14t.273-.362l3.65 1.73q-.039.04-.216.503q0 .31.23.54q.23.229.54.229m-3.304.763q-.154-.028-.765-.124t-1.456-.376q-.881-.269-1.909-.741t-2.049-1.243q-.183-.135-.197-.322t.107-.37q.115-.177.319-.199q.204-.02.38.095q1.016.765 2.06 1.22t1.892.703t1.394.332l.545.085q.546.044.751.433t.149.742l-.1.767q-.1.768-.125 1.93q-.025 1.16.136 2.56q.16 1.399.656 2.668q.068.177-.057.31t-.308.165t-.378-.073t-.312-.427q-.468-1.256-.612-2.522t-.13-2.334t.101-1.862t.1-1.09q-.006-.115-.029-.211t-.163-.116m7.194-4.652q.379.61.59 1.29T18 11.426V21.5q0 .213-.143.357q-.144.143-.357.143t-.357-.143T17 21.5V11.425q0-1.2-.638-2.175T14.65 7.775L8.412 5.008q-.233-.104-.3-.352t.092-.456q.123-.165.31-.205t.363.034l6.194 2.825q.685.292 1.217.759t.91 1.075M12 22q-.625-1.3-.825-2.775t-.187-2.725t.125-2.087l.112-.838q.056-.354-.149-.742t-.751-.433l-.6-.088q-.6-.087-1.52-.374t-2.029-.8T4.033 9.75q1.032.875 2.143 1.388t2.03.8t1.519.374l.6.088q.546.044.751.433t.149.742l-.112.838q-.113.837-.125 2.087t.187 2.725T12 22"/></svg>