<svg xmlns="http://www.w3.org/2000/svg" width="200" height="200" viewBox="0 0 24 24"><path fill="currentColor" d="M13.308 12.577q.329 0 .549-.23t.22-.54q0-.13-.073-.382q.256-.062.414-.263t.159-.47q0-.329-.22-.549t-.55-.22q-.267 0-.469.156t-.263.417l-3.67-1.77q.083-.074.249-.534q0-.329-.22-.549t-.55-.22q-.309 0-.539.22t-.23.55q0 .188.098.357q-.255.062-.426.263q-.172.202-.172.495q0 .31.23.54q.23.229.54.229q.253 0 .455-.14t.283-.362l3.63 1.73q-.038.04-.215.503q0 .31.23.54q.23.229.54.229m3.89-3.889q.379.61.59 1.29T18 11.426v9.363q0 .51-.351.861t-.86.351l-5.135-.02q-.348 0-.603-.189q-.255-.19-.38-.512q-.85-2.485-.674-4.751t.2-2.86q-.007-.116-.03-.212t-.163-.116q-.29-.046-2.053-.448t-3.688-1.705q-.367-.237-.413-.673t.215-.783l3.818-5.11q.267-.348.683-.45t.801.085l5.704 2.598q.685.292 1.217.759t.91 1.075"/></svg>