<svg xmlns="http://www.w3.org/2000/svg" width="200" height="200" viewBox="0 0 24 24"><path fill="currentColor" d="m20.188 18.1l-.688-.713l1.1-1.1l.688.713l-1.1 1.1ZM18.5 16.387l-1-1v-1.868h1v2.868Zm-4 7.113v-1h5.887L5.5 7.613v10.272q0 .23.192.423q.193.192.423.192h6v1h-6q-.652 0-1.133-.482q-.482-.481-.482-1.133V6.613L1.412 3.5l.688-.688L21.788 22.5v1H14.5Zm3-12.365h1V8L13 2.5H6.115q-.313 0-.586.12q-.273.12-.479.322l.794.789q.096-.096.212-.164q.115-.067.25-.067H12.5v5h5v2.635Zm-7.163 1.315Zm2.003-2.223Z"/></svg>