<svg xmlns="http://www.w3.org/2000/svg" width="200" height="200" viewBox="0 0 24 24"><path fill="currentColor" d="M19.479 20.9L3.094 4.521q-.146-.146-.156-.347q-.01-.2.156-.366q.166-.166.357-.166t.357.166l16.384 16.384q.146.146.156.345q.01.198-.156.363q-.165.165-.356.165t-.357-.165Zm-4.154-8.4l-1-1h2.348q.213 0 .356.144q.144.144.144.357t-.144.356q-.143.143-.356.143h-1.348Zm-4.5-4.5l-1-1H19.5q.213 0 .356.144q.144.144.144.357q0 .212-.144.356Q19.713 8 19.5 8h-8.675Zm.233 9q-.213 0-.357-.144q-.143-.144-.143-.357q0-.212.143-.356q.144-.143.357-.143h1.865q.213 0 .356.144t.144.357q0 .212-.144.356q-.143.143-.356.143h-1.865Zm.015-4.5H7.308q-.213 0-.357-.144q-.143-.144-.143-.357t.143-.356q.144-.143.357-.143h3.765v1ZM6.573 8H4.5q-.213 0-.356-.144T4 7.499q0-.212.144-.356Q4.288 7 4.5 7h2.073v1Z"/></svg>