<svg xmlns="http://www.w3.org/2000/svg" width="200" height="200" viewBox="0 0 24 24"><path fill="currentColor" d="M8.692 11.25V7.5q0-.337.236-.572t.572-.236t.572.236t.236.572v3.75q0 .337-.236.572t-.572.236t-.572-.236t-.236-.572m4.346 1.294V3.5q0-.337.236-.572t.572-.236t.572.236t.236.572v9.044q0 .404-.248.606t-.557.202t-.56-.202t-.25-.606m-8.731 2.143V11.5q0-.337.235-.572t.572-.236t.573.236t.235.572v3.187q0 .403-.248.605t-.557.202t-.56-.202t-.25-.605m1.085 5.863q-.335 0-.463-.305t.116-.549l3.908-3.908q.217-.217.535-.242t.565.192l2.984 2.566l6.754-6.754H18q-.213 0-.356-.144q-.144-.144-.144-.357t.144-.356t.356-.143h2.692q.344 0 .576.232t.232.576v2.692q0 .213-.144.356q-.144.144-.357.144t-.356-.144t-.143-.356v-1.792l-6.904 6.904q-.217.217-.535.242t-.565-.192l-2.984-2.566l-3.758 3.758q-.065.06-.161.103t-.2.043"/></svg>