<svg xmlns="http://www.w3.org/2000/svg" width="200" height="200" viewBox="0 0 24 24"><path fill="currentColor" d="m15.442 20l1 1H6.615q-.69 0-1.152-.462Q5 20.075 5 19.385V4.615q0-.69.463-1.152Q5.925 3 6.615 3h7.923L19 8.346v11.039q0 .23-.126.46t-.328.409l-4.815-4.804q-.425.294-.84.422Q12.477 16 12 16q-1.238 0-2.119-.881T9 13q0-1.238.881-2.119T12 10q1.238 0 2.119.881T15 13q0 .517-.138.93q-.137.414-.412.8l3.55 3.6V8.7L14.05 4H6.615q-.23 0-.423.192Q6 4.385 6 4.615v14.77q0 .23.192.423q.193.192.423.192h8.827ZM12 15q.825 0 1.413-.588T14 13q0-.825-.588-1.413T12 11q-.825 0-1.413.588T10 13q0 .825.588 1.413T12 15Zm0-2.5Zm0 0Z"/></svg>