<svg xmlns="http://www.w3.org/2000/svg" width="200" height="200" viewBox="0 0 24 24"><path fill="currentColor" d="M9.577 20.5q-.633 0-1.066-.434q-.434-.433-.434-1.066v-.5h7.846v.5q0 .633-.434 1.066q-.433.434-1.066.434H9.577Zm-1.5-3v-5h7.846v5H8.077Zm.023-6q.23-.938 1.002-1.768q.771-.83 2.092-1.113v-.211q-.384-.123-.69-.4q-.306-.275-.456-.57l-3.01-.765v-.577l2.99-.765q.28-.533.804-.855q.524-.322 1.168-.322q.41 0 .77.127q.359.127.657.388L15.923 4v4.77l-2.367-.805q-.154.154-.337.26q-.182.106-.413.202v.192q1.213.264 2.045 1.092q.832.827 1.049 1.789H8.1ZM12 7.385q.406 0 .703-.298Q13 6.79 13 6.385q-.006-.431-.3-.716q-.294-.284-.7-.284q-.425 0-.713.287T11 6.385q0 .425.288.712t.712.288Z"/></svg>