<svg xmlns="http://www.w3.org/2000/svg" width="200" height="200" viewBox="0 0 24 24"><path fill="currentColor" d="M8.48 19.385v-8.97L2.659 4.592q-.14-.14-.15-.344q-.01-.204.15-.363q.16-.16.354-.16q.194 0 .353.16l16.577 16.577q.14.14.15.344q.01.204-.15.363q-.16.16-.354.16q-.194 0-.353-.16l-4.754-4.754v2.97q0 .67-.472 1.143q-.472.472-1.144.472h-2.769q-.671 0-1.143-.472t-.472-1.143Zm8-13.885H7.83l-1.3-1.302q.148-.517.571-.858q.423-.34.996-.34h6.77q.67 0 1.143.472q.472.472.472 1.143V5.5Zm-2 6.65L8.83 6.5h7.65v.708q0 .242-.065.46q-.065.217-.202.428l-1.732 2.596v1.458Z"/></svg>