<svg xmlns="http://www.w3.org/2000/svg" width="200" height="200" viewBox="0 0 24 24"><path fill="currentColor" d="M2 15.48V8.52q0-.344.232-.576q.232-.232.576-.232h3.154q.343 0 .575.232q.232.232.232.575v6.962q0 .343-.232.575q-.232.232-.575.232H2.808q-.344 0-.576-.232Q2 15.824 2 15.481Zm7.615 0V8.52q0-.344.233-.576q.232-.232.575-.232h3.154q.343 0 .575.232q.233.232.233.575v6.962q0 .343-.233.575q-.232.232-.575.232h-3.154q-.343 0-.575-.232q-.233-.232-.233-.575Zm7.616 0V8.52q0-.344.232-.576q.232-.232.575-.232h3.154q.344 0 .576.232q.232.232.232.575v6.962q0 .343-.232.575q-.232.232-.576.232h-3.154q-.343 0-.575-.232q-.232-.232-.232-.575ZM3 15.289h2.77V8.712H3v6.576Zm15.423 0H21V8.712h-2.577v6.576Z"/></svg>