<svg xmlns="http://www.w3.org/2000/svg" width="200" height="200" viewBox="0 0 24 24"><path fill="currentColor" d="M14.077 12q-.614 0-1.038-.434q-.424-.433-.424-1.066v-4q0-.633.424-1.066Q13.463 5 14.077 5h1.558q.594 0 .98.434Q17 5.867 17 6.5v4q0 .633-.386 1.066q-.385.434-.98.434h-1.557Zm0-1h1.558q.173 0 .269-.144T16 10.5v-4q0-.212-.096-.356T15.634 6h-1.557q-.192 0-.327.144t-.135.356v4q0 .212.135.356t.327.144ZM9.5 17q-.387 0-.69-.224q-.304-.224-.427-.586L6 8.058V5h1v3l2.385 8H17v1H9.5Zm-1.096 3v-1h8.577v1H8.404Zm5.673-14h-.462H16h-1.923Z"/></svg>