<svg xmlns="http://www.w3.org/2000/svg" width="200" height="200" viewBox="0 0 24 24"><path fill="currentColor" d="M9.308 16.308q-.69 0-1.153-.463t-.463-1.153V5.615q0-.69.463-1.153Q8.617 4 9.308 4h9.077q.69 0 1.152.463q.463.462.463 1.152v9.077q0 .69-.463 1.153t-1.152.463H9.308Zm0-1h9.077q.23 0 .423-.193q.192-.192.192-.423V5.615q0-.23-.192-.423Q18.615 5 18.385 5H9.308q-.231 0-.423.192q-.193.193-.193.423v9.077q0 .231.193.423q.192.193.423.193ZM5.23 18.769V20q-.518 0-.874-.357Q4 19.287 4 18.77h1.23ZM4 16.308v-1.231h1.23v1.23H4Zm0-3.693v-1.23h1.23v1.23H4Zm0-3.692v-1.23h1.23v1.23H4ZM7.692 20v-1.23h1.231V20h-1.23Zm3.693 0v-1.23h1.23V20h-1.23Zm3.692 0v-1.23h1.23V20h-1.23Z"/></svg>