<svg xmlns="http://www.w3.org/2000/svg" width="200" height="200" viewBox="0 0 24 24"><path fill="currentColor" d="M3 19V5h18v1.615h-1V6H4v12h8.23v1H3Zm1-1V6v12Zm16.73 3.538h-4v-2.58q-1.493-.177-2.496-1.3Q13.23 16.538 13.23 15V9h8v6q0 1.537-1.003 2.659q-1.003 1.122-2.497 1.299v1.58h3v1ZM18.98 14.5h1.25V10h-6v2.5h.75q.691 0 1.323.317q.632.318 1.074.89q.267.397.702.595q.434.198.902.198ZM17.23 18q1.11 0 1.943-.716q.833-.717.998-1.784h-1.19q-.708 0-1.34-.305q-.633-.305-1.076-.883q-.282-.39-.7-.601q-.417-.211-.884-.211h-.75V15q0 1.275.862 2.138t2.138.862Zm-.665-4.292ZM6.5 10.5h4.346v-1H6.5v1Zm0 4h4.346v-1H6.5v1Z"/></svg>