<svg xmlns="http://www.w3.org/2000/svg" width="200" height="200" viewBox="0 0 24 24"><path fill="currentColor" d="M4.5 19q-.633 0-1.066-.434Q3 18.133 3 17.5V6.615q0-.632.491-1.124Q3.983 5 4.615 5h4.31q.323 0 .628.13q.305.132.522.349L11.596 7h7.789q.517 0 .902.28q.386.28.54.72h-9.633l-2-2H4.615q-.269 0-.442.173T4 6.615V18q0-.27.106-.202q.106.067.279.164l1.917-6.422q.161-.515.593-.835q.432-.32.967-.32h12.823q.813 0 1.304.649q.492.649.255 1.426l-1.646 5.48q-.142.477-.545.769q-.403.291-.9.291H4.5Zm.927-1h13.65q.211 0 .375-.115q.163-.116.221-.327l1.608-5.385q.096-.308-.096-.548q-.193-.24-.5-.24H7.862q-.212 0-.375.115q-.164.115-.222.327L5.427 18ZM4 11.546V6v5.546ZM5.427 18l1.838-6.173q.058-.212.097-.327l.038-.115l-.067.24q-.068.24-.164.548l-1.607 5.385q-.058.211-.097.327L5.427 18Z"/></svg>