<svg xmlns="http://www.w3.org/2000/svg" width="200" height="200" viewBox="0 0 24 24"><path fill="currentColor" d="M20.871 18.046L20 17.175v-8.56q0-.269-.173-.442T19.385 8H10.85l-2-2l-1-1h.756q.323 0 .628.13q.304.132.522.349L11.276 7h8.109q.69 0 1.152.463q.463.462.463 1.152v8.77q0 .178-.03.349q-.032.17-.099.312ZM4.615 19q-.69 0-1.152-.462Q3 18.075 3 17.385V6.615q0-.69.463-1.152Q3.925 5 4.615 5H5l1 1H4.615q-.269 0-.442.173T4 6.615v10.77q0 .269.173.442t.442.173H16.58L2.9 4.315q-.14-.14-.153-.341q-.012-.2.153-.366q.16-.16.354-.16q.194 0 .354.16l17.554 17.554q.146.146.152.344q.007.198-.158.363q-.166.16-.354.163q-.189.003-.354-.163L17.578 19H4.616Zm5.97-7Zm3.84-.425Z"/></svg>