<svg xmlns="http://www.w3.org/2000/svg" width="200" height="200" viewBox="0 0 24 24"><path fill="currentColor" d="m21.11 22.53l-1.589-1.588q-.077.039-.154.048q-.077.01-.173.01H4.615q-.67 0-1.143-.472Q3 20.056 3 19.385V4.805q0-.095.01-.172q.01-.077.048-.154L1.887 3.308l.713-.714l19.223 19.223l-.713.714ZM4.615 20H18.58L4 5.421v13.964q0 .23.192.423q.193.192.423.192ZM21 18.183l-1-1V4.615q0-.23-.192-.423Q19.615 4 19.385 4H6.817l-1-1h13.568q.67 0 1.143.472q.472.472.472 1.143v13.568Zm-6.612-6.612l-1.569-1.57l-.769-2.174h-.1l-.34.965l-.716-.715l.671-1.885h.87l1.953 5.38Zm-3.096 1.137Zm2.12-2.12Zm2.088 6.989l-1.137-3.22l1.622 1.622l.577 1.598H15.5Zm-8.062 0l2.7-7.444l.727.727l-.973 2.763h3.737l.942.942h-5.01L8.5 17.577H7.438Z"/></svg>