<svg xmlns="http://www.w3.org/2000/svg" width="200" height="200" viewBox="0 0 24 24"><path fill="currentColor" d="M21.11 22.53L19.579 21H3V4.421L1.887 3.308l.713-.714l19.223 19.223l-.713.714ZM4 20h14.579L4 5.421V20Zm17-1.817l-1-1V4H6.817l-1-1H21v15.183Zm-6.612-6.612l-1.569-1.57l-.769-2.174h-.1l-.34.965l-.716-.715l.671-1.885h.87l1.953 5.38Zm-3.096 1.137Zm2.12-2.12Zm2.088 6.989l-1.137-3.22l1.622 1.622l.577 1.598H15.5Zm-8.062 0l2.7-7.444l.727.727l-.973 2.763h3.737l.942.942h-5.01L8.5 17.577H7.438Z"/></svg>