<svg xmlns="http://www.w3.org/2000/svg" width="200" height="200" viewBox="0 0 24 24"><path fill="currentColor" d="M4.962 20.5q-1.039 0-1.77-.73q-.73-.732-.73-1.77q0-.592.26-1.113t.74-.887v-4.5H5.75V6h6.096L16.2 16.19q.13.312.215.633q.085.321.085.677q0 1.258-.871 2.129T13.5 20.5q-.967 0-1.743-.547q-.776-.547-1.086-1.453h-3.27q-.17.88-.859 1.44q-.688.56-1.58.56Zm12.538-1v-15h1v14h3.038v1H17.5Zm-12.538 0q.617 0 1.058-.441q.442-.442.442-1.059t-.442-1.059q-.44-.441-1.058-.441q-.618 0-1.06.441q-.44.442-.44 1.059t.44 1.059q.442.441 1.06.441Zm8.538 0q.817 0 1.409-.591q.591-.592.591-1.409q0-.817-.591-1.409q-.592-.591-1.409-.591q-.817 0-1.409.591q-.591.592-.591 1.409q0 .817.591 1.409q.592.591 1.409.591Zm-6.098-2h3.104q-.027-.563.19-1.09q.216-.525.629-.91H9.248l-2.925-3H4.462v3.077q.115-.039.24-.058q.125-.019.26-.019q.892 0 1.58.56q.689.56.86 1.44Zm2.273-3h3.86q.25 0 .49.058q.24.057.471.173L11.194 7H6.75v4.5l2.925 3Zm-.427 1l-.462-.475q-.463-.475-1-1.038t-1-1.024l-.463-.463H4.462h1.861l2.925 3h2.077h-2.077Z"/></svg>