<svg xmlns="http://www.w3.org/2000/svg" width="200" height="200" viewBox="0 0 24 24"><path fill="currentColor" d="M18.442 15.862L8.938 6.396l2.224-2.179q.186-.186.403-.267q.218-.08.435-.08t.444.083q.227.084.414.264l4.1 4.025q.927.877 1.484 2.219Q19 11.8 19 13.138q0 .67-.133 1.35q-.132.681-.425 1.374ZM12 20q-2.921 0-4.96-2.005Q5 15.99 5 13.138q0-1.39.544-2.613t1.402-2.163l-3.77-3.77q-.14-.14-.15-.344q-.009-.204.15-.363q.16-.16.355-.16q.194 0 .354.16L20.23 20.23q.14.14.15.344q.01.204-.15.363q-.16.16-.354.16t-.354-.16l-2.785-2.784q-.87.86-2.132 1.353T12 20Z"/></svg>