<svg xmlns="http://www.w3.org/2000/svg" width="200" height="200" viewBox="0 0 24 24"><path fill="currentColor" d="M7.269 17.308q-.213 0-.356-.144t-.144-.356v-3.25q-1.573 0-2.67-1.098T3 9.788t1.098-2.67t2.672-1.1h6.077q.213 0 .356.144t.144.357t-.144.356t-.356.143h-1.5v9.789q0 .212-.144.356t-.357.144t-.356-.144t-.143-.356V7.019H7.77v9.789q0 .212-.144.356t-.356.144m10.289 1.382q-.143 0-.289-.062t-.277-.174l-2.523-2.408q-.151-.135-.158-.339t.152-.363q.147-.146.35-.156q.204-.01.364.131l1.88 1.78V6.518q0-.212.145-.356q.144-.144.356-.144q.213 0 .356.144t.144.356V17.1l1.88-1.786q.166-.146.364-.133t.344.158q.16.166.153.364t-.172.344l-2.504 2.408q-.13.111-.277.174t-.288.062"/></svg>