<svg xmlns="http://www.w3.org/2000/svg" width="200" height="200" viewBox="0 0 24 24"><path fill="currentColor" d="M18 20.885q.154 0 .27-.116q.115-.115.115-.269v-2.115H20.5q.154 0 .27-.116q.115-.115.115-.269t-.116-.27q-.115-.115-.269-.115h-2.115V15.5q0-.154-.116-.27q-.115-.115-.269-.115t-.27.116q-.115.115-.115.269v2.115H15.5q-.154 0-.27.116q-.115.115-.115.269t.116.27q.115.115.269.115h2.115V20.5q0 .154.116.27q.115.115.269.115ZM18 22q-1.671 0-2.836-1.164T14 18q0-1.671 1.164-2.836T18 14q1.671 0 2.836 1.164T22 18q0 1.671-1.164 2.836T18 22ZM10.115 6.5q-.212 0-.356-.144t-.144-.357t.144-.356q.144-.143.356-.143H19.5q.213 0 .356.144q.144.144.144.357t-.144.356q-.143.143-.356.143h-9.385ZM5.327 19.327q-.547 0-.937-.39T4 18t.39-.937q.39-.39.937-.39t.937.39q.39.39.39.937t-.39.937q-.39.39-.937.39Zm0-6q-.547 0-.937-.39T4 12t.39-.937q.39-.39.937-.39t.937.39q.39.39.39.937t-.39.937q-.39.39-.937.39Zm0-6q-.547 0-.937-.39T4 6t.39-.937q.39-.39.937-.39t.937.39q.39.39.39.937t-.39.937q-.39.39-.937.39ZM10.115 18.5q-.212 0-.356-.144T9.615 18t.144-.356q.144-.143.356-.143h1.402q-.036.25-.036.5t.036.5h-1.402Zm0-6q-.212 0-.356-.144T9.615 12t.144-.356q.144-.143.356-.143H18q-.944 0-1.79.259q-.847.258-1.566.741h-4.529Z"/></svg>