<svg xmlns="http://www.w3.org/2000/svg" width="200" height="200" viewBox="0 0 24 24"><path fill="currentColor" d="M14 20.5q-.213 0-.356-.144q-.144-.144-.144-.357t.144-.356q.144-.143.356-.143h4.402l-3.589-2.529q-.18-.123-.212-.314q-.032-.192.079-.37q.11-.179.308-.21q.197-.033.374.077l3.632 2.504l-1.532-4.131q-.074-.189.025-.378q.098-.19.286-.262q.189-.074.39.025q.202.098.275.286l1.47 4.13l1.173-4.243q.067-.189.231-.305t.353-.05q.189.068.318.233t.061.352l-1.55 5.8q-.061.177-.191.281q-.13.104-.303.104h-6Zm-7-3q-.213 0-.356-.144Q6.5 17.212 6.5 17t.144-.356Q6.788 16.5 7 16.5h4.517q-.017.265-.004.505q.012.24.03.495H7Zm0-4q-.213 0-.356-.144Q6.5 13.212 6.5 13t.144-.356Q6.788 12.5 7 12.5h6.804q-.287.208-.538.458q-.25.25-.485.542H7Zm0-4q-.213 0-.356-.144Q6.5 9.212 6.5 9t.144-.356Q6.788 8.5 7 8.5h11q.213 0 .356.144q.144.144.144.357t-.144.356Q18.213 9.5 18 9.5H7Zm0-4q-.213 0-.356-.144q-.144-.144-.144-.357t.144-.356Q6.788 4.5 7 4.5h11q.213 0 .356.144q.144.144.144.357t-.144.356Q18.213 5.5 18 5.5H7Zm-3 0q-.213 0-.357-.144q-.143-.144-.143-.357t.144-.356Q3.788 4.5 4 4.5t.356.144q.143.144.143.357t-.144.356q-.144.143-.357.143Zm0 4q-.213 0-.357-.144Q3.5 9.212 3.5 9t.144-.356Q3.788 8.5 4 8.5t.356.144Q4.5 8.788 4.5 9t-.144.356q-.144.143-.357.143Zm0 4q-.213 0-.357-.144Q3.5 13.212 3.5 13t.144-.356Q3.788 12.5 4 12.5t.356.144q.143.144.143.357t-.144.356q-.144.143-.357.143Zm0 4q-.213 0-.357-.144Q3.5 17.212 3.5 17t.144-.356Q3.788 16.5 4 16.5t.356.144q.143.144.143.357t-.144.356q-.144.143-.357.143Z"/></svg>