<svg xmlns="http://www.w3.org/2000/svg" width="200" height="200" viewBox="0 0 24 24"><path fill="currentColor" d="M3.808 24q-.348 0-.578-.23q-.23-.23-.23-.578v-1.846q0-.348.23-.578q.23-.23.578-.23h16.384q.348 0 .578.23q.23.23.23.578v1.846q0 .348-.23.578q-.23.23-.578.23H3.808Zm3.202-7q-.287 0-.442-.228q-.155-.228-.05-.49l4.9-11.994q.047-.119.155-.203Q11.681 4 11.82 4h.362q.144 0 .249.085q.105.084.153.203l4.886 11.943q.104.28-.06.525q-.165.244-.451.244q-.177 0-.323-.094q-.147-.094-.214-.271l-1.302-3.273H8.815L7.502 16.66q-.067.157-.191.249Q7.187 17 7.01 17Zm2.16-4.6h5.584L12.05 5.6h-.138l-2.743 6.8Z"/></svg>