<svg xmlns="http://www.w3.org/2000/svg" width="200" height="200" viewBox="0 0 24 24"><path fill="currentColor" d="M4 21v-.885h2.5V18.75H5v-.885h1.5V16.5H4v-.885h2.692q.295 0 .494.2q.199.198.199.493v1.384q0 .295-.2.494q-.198.199-.493.199q.295 0 .494.199t.199.493v1.23q0 .295-.2.494q-.198.199-.493.199H4Zm0-6.308V12.25q0-.294.199-.493q.2-.2.493-.2H6.5v-1.365H4v-.884h2.692q.295 0 .494.199t.199.493v1.75q0 .294-.2.493q-.198.2-.493.2H4.885v1.365h2.5v.884H4Zm1.5-6.307v-4.5H4V3h2.385v5.385H5.5ZM9.615 18.5v-1H20v1H9.615Zm0-6v-1H20v1H9.615Zm0-6v-1H20v1H9.615Z"/></svg>