<svg xmlns="http://www.w3.org/2000/svg" width="200" height="200" viewBox="0 0 24 24"><path fill="currentColor" d="M17 20.475q-.213 0-.357-.144q-.143-.143-.143-.356v-2.5H14q-.213 0-.356-.144q-.144-.144-.144-.357t.144-.356q.144-.143.356-.143h2.5v-2.5q0-.212.144-.356t.357-.144t.356.144q.143.144.143.356v2.5H20q.213 0 .356.144q.144.144.144.357t-.144.356q-.143.143-.356.143h-2.5v2.5q0 .213-.144.356q-.144.144-.357.144ZM7 17.5q-.213 0-.356-.144Q6.5 17.212 6.5 17t.144-.356Q6.788 16.5 7 16.5h4.517q-.017.265-.004.505q.012.24.03.495H7Zm0-4q-.213 0-.356-.144Q6.5 13.212 6.5 13t.144-.356Q6.788 12.5 7 12.5h6.804q-.287.208-.538.458q-.25.25-.485.542H7Zm0-4q-.213 0-.356-.144Q6.5 9.212 6.5 9t.144-.356Q6.788 8.5 7 8.5h11q.213 0 .356.144q.144.144.144.357t-.144.356Q18.213 9.5 18 9.5H7Zm0-4q-.213 0-.356-.144q-.144-.144-.144-.357t.144-.356Q6.788 4.5 7 4.5h11q.213 0 .356.144q.144.144.144.357t-.144.356Q18.213 5.5 18 5.5H7Zm-3 0q-.213 0-.357-.144q-.143-.144-.143-.357t.144-.356Q3.788 4.5 4 4.5t.356.144q.143.144.143.357t-.144.356q-.144.143-.357.143Zm0 4q-.213 0-.357-.144Q3.5 9.212 3.5 9t.144-.356Q3.788 8.5 4 8.5t.356.144Q4.5 8.788 4.5 9t-.144.356q-.144.143-.357.143Zm0 4q-.213 0-.357-.144Q3.5 13.212 3.5 13t.144-.356Q3.788 12.5 4 12.5t.356.144q.143.144.143.357t-.144.356q-.144.143-.357.143Zm0 4q-.213 0-.357-.144Q3.5 17.212 3.5 17t.144-.356Q3.788 16.5 4 16.5t.356.144q.143.144.143.357t-.144.356q-.144.143-.357.143Z"/></svg>