<svg xmlns="http://www.w3.org/2000/svg" width="200" height="200" viewBox="0 0 24 24"><path fill="currentColor" d="M19.983 19h-4.368q-.213 0-.356-.143q-.144-.144-.144-.357t.144-.357t.356-.143h4.387l-1.746-1.746q-.146-.146-.153-.354q-.007-.208.159-.354q.146-.14.353-.133q.208.006.354.152l2.37 2.37q.242.242.242.565q0 .323-.243.565l-2.388 2.389q-.14.14-.341.134q-.201-.007-.347-.153q-.14-.14-.14-.335t.14-.335L19.982 19ZM4.615 19q-.67 0-1.143-.472Q3 18.056 3 17.385V6.615q0-.67.472-1.143Q3.944 5 4.615 5h14.77q.67 0 1.143.472q.472.472.472 1.143v7.435q-.54-.265-1.13-.408q-.59-.142-1.197-.142q-2.154 0-3.663 1.51q-1.51 1.51-1.51 3.663V19H4.615ZM12 11L4.82 6.32q-.195-.122-.402-.045q-.206.077-.264.288q-.058.149-.016.307q.043.159.185.245l7.229 4.714q.211.13.448.13q.237 0 .448-.13l7.229-4.714q.142-.086.194-.245t-.025-.307q-.058-.211-.264-.278q-.207-.068-.401.053L12 11Z"/></svg>