<svg xmlns="http://www.w3.org/2000/svg" width="200" height="200" viewBox="0 0 24 24"><path fill="currentColor" d="M20 6H4v11.385q0 .269.173.442t.442.173H13.5v1H4.615q-.69 0-1.152-.462Q3 18.075 3 17.385V6.615q0-.69.463-1.152Q3.925 5 4.615 5h14.77q.69 0 1.152.463q.463.462.463 1.152V13.5h-1V6ZM4 6v12v-4.5v.171V6Zm8 5l8-5v.885l-7.571 4.752q-.212.13-.429.13t-.429-.13L4 7.038V6l8 5Zm7.983 8h-4.368q-.213 0-.356-.143q-.144-.144-.144-.357t.144-.357t.356-.143h4.387l-1.746-1.746q-.146-.146-.153-.354q-.007-.208.159-.354q.146-.14.353-.133q.208.006.354.152l2.37 2.37q.242.242.242.565q0 .323-.243.565l-2.388 2.389q-.14.14-.341.134q-.201-.007-.347-.153q-.14-.14-.14-.335t.14-.335L19.982 19Z"/></svg>