<svg xmlns="http://www.w3.org/2000/svg" width="200" height="200" viewBox="0 0 24 24"><path fill="currentColor" d="M6 18.5V16h-.654q-.212 0-.356-.144t-.144-.357q0-.212.144-.356q.144-.143.356-.143H6v-3.904l-.72.289q-.272.153-.474-.114q-.202-.267.073-.511l6.581-5.93q.217-.217.538-.217q.322 0 .542.218l6.581 5.929q.275.244.073.511t-.475.114L18 11.096V15h.654q.212 0 .356.144t.144.357q0 .212-.144.356q-.144.143-.356.143H18v2.5q0 .213-.144.356q-.144.144-.357.144q-.212 0-.356-.144Q17 18.713 17 18.5V16h-4.5v2.5q0 .213-.144.356Q12.212 19 12 19t-.356-.144q-.143-.143-.143-.356V16H7v2.5q0 .213-.144.356T6.499 19q-.212 0-.356-.144Q6 18.713 6 18.5ZM7 15h4.5V6.158L7 10.2V15Zm5.5 0H17v-4.8l-4.5-4.042V15Z"/></svg>