<svg xmlns="http://www.w3.org/2000/svg" width="200" height="200" viewBox="0 0 24 24"><path fill="currentColor" d="M5.385 17.115v-1.4q0-.402.205-.756t.558-.565q1.294-.769 2.703-1.061q1.409-.293 2.903-.173q-.012.087-.017.17t-.006.17q0 .16.006.333q.005.173.036.327q-1.348-.177-2.771.188t-2.583 1.037v.75h6.102q.16.292.365.532q.204.24.46.448zm5.497-5.23q-1.042 0-1.77-.728q-.727-.728-.727-1.77q0-1.022.728-1.762t1.77-.74q1.02 0 1.761.74t.74 1.762q0 1.042-.74 1.77t-1.762.728m.003-1q.617 0 1.058-.432t.442-1.068q0-.618-.442-1.06q-.441-.44-1.068-.44t-1.059.44t-.431 1.07t.43 1.058t1.07.432m5.346 6.23v-1.294q-.902-.167-1.5-.835t-.616-1.601h.77q.019.71.522 1.2t1.21.492t1.209-.491t.52-1.201h.77q-.02.932-.617 1.6q-.598.666-1.499.83v1.3zm.384-2.807q-.428 0-.724-.296t-.295-.724v-1.692q0-.428.296-.723t.724-.296t.723.296t.296.723v1.692q0 .429-.296.724t-.724.296M3 21v-5h1v4h4v1zM3 8V3h5v1H4v4zm13 13v-1h4v-4h1v5zm4-13V4h-4V3h5v5z"/></svg>