<svg xmlns="http://www.w3.org/2000/svg" width="200" height="200" viewBox="0 0 24 24"><path fill="currentColor" d="M3 21v-5h1v4h4v1H3ZM3 8V3h5v1H4v4H3Zm13 13v-1h4v-4h1v5h-5Zm4-13V4h-4V3h5v5h-1Zm-8.002 3.885q-1.042 0-1.77-.728T9.5 9.387q0-1.022.728-1.762t1.77-.74q1.021 0 1.762.74q.74.74.74 1.762q0 1.042-.74 1.77t-1.762.728Zm.002-1q.617 0 1.059-.432q.441-.43.441-1.068q0-.618-.441-1.059q-.442-.441-1.069-.441t-1.058.44q-.432.442-.432 1.07t.431 1.058q.432.432 1.069.432Zm-5.5 6.23v-1.4q0-.402.206-.756t.557-.565q1.074-.636 2.278-.957q1.205-.322 2.459-.322t2.459.322q1.204.32 2.278.957q.352.21.557.565t.206.756v1.4h-11Zm5.5-3q-1.121 0-2.25.327t-2.215.943v.75h8.93v-.77q-1.067-.615-2.205-.932q-1.139-.318-2.26-.318Zm0-4.73Zm0 6.75h4.465h-8.93H12Z"/></svg>