<svg xmlns="http://www.w3.org/2000/svg" width="200" height="200" viewBox="0 0 24 24"><path fill="currentColor" d="M5.385 17.115v-1.4q0-.402.205-.756t.558-.565q1.275-.75 2.7-1.052t2.906-.182q-.012.087-.017.17t-.006.17q0 1.046.41 1.997q.409.951 1.205 1.618zm5.497-5.23q-1.042 0-1.77-.728q-.727-.728-.727-1.77q0-1.022.728-1.762t1.77-.74q1.02 0 1.761.74t.74 1.762q0 1.042-.74 1.77t-1.762.728M4.622 21q-.697 0-1.16-.462T3 19.378V16h1v3.385q0 .23.192.423t.423.192H8v1zM3 8V4.622q0-.697.463-1.16T4.622 3H8v1H4.615q-.23 0-.423.192T4 4.615V8zm13 13v-1h3.385q.23 0 .423-.192t.192-.423V16h1v3.378q0 .697-.462 1.16t-1.16.462zm4-13V4.615q0-.23-.192-.423T19.385 4H16V3h3.378q.697 0 1.16.463T21 4.622V8zm-3.77 9.115v-1.294q-.901-.167-1.498-.835t-.617-1.601h.77q.019.71.522 1.2t1.21.492t1.209-.491t.52-1.201h.77q-.02.932-.617 1.6q-.598.666-1.499.83v1.3zm.385-2.807q-.428 0-.724-.296t-.295-.724v-1.692q0-.428.296-.723t.724-.296t.723.296t.296.723v1.692q0 .429-.296.724t-.724.296"/></svg>