<svg xmlns="http://www.w3.org/2000/svg" width="200" height="200" viewBox="0 0 24 24"><path fill="currentColor" d="M6.404 17.115q-.428 0-.724-.295t-.295-.724v-.38q0-.403.205-.757t.558-.565q1.185-.702 2.468-1.004t2.644-.255q.213-.006.353.152t.14.373q0 .195-.15.335t-.343.126q-1.258-.084-2.524.29t-2.317.974v.75h6.031q.194 0 .338.136t.143.337t-.143.355t-.338.152zm4.478-5.23q-1.042 0-1.77-.728q-.727-.728-.727-1.77q0-1.022.728-1.762t1.77-.74q1.02 0 1.761.74t.74 1.762q0 1.042-.74 1.77t-1.762.728m.003-1q.617 0 1.058-.432t.442-1.068q0-.618-.442-1.06q-.441-.44-1.068-.44t-1.059.44t-.431 1.07t.43 1.058t1.07.432m5.73 4.192q.604 0 1.072-.367q.467-.368.603-.94q.05-.162.165-.274t.276-.111t.273.12t.08.264q-.136.777-.712 1.346t-1.372.7v.916q0 .154-.115.269t-.27.115t-.269-.115t-.115-.27v-.915q-.796-.13-1.372-.7q-.576-.569-.713-1.346q-.03-.142.085-.263t.269-.121q.162 0 .276.111t.164.273q.137.573.604.94q.468.368 1.071.368m0-.77q-.428 0-.724-.295t-.295-.724v-1.692q0-.428.296-.723t.724-.296t.723.296t.296.723v1.692q0 .429-.296.724t-.724.296M4.615 21q-.69 0-1.152-.462T3 19.385V16.5q0-.213.144-.356Q3.288 16 3.5 16t.356.144T4 16.5v2.885q0 .23.192.423t.423.192H7.5q.213 0 .356.144T8 20.5t-.144.356T7.5 21zM3 7.5V4.615q0-.69.463-1.152T4.615 3H7.5q.213 0 .356.144Q8 3.288 8 3.5t-.144.356T7.5 4H4.615q-.23 0-.423.192T4 4.615V7.5q0 .213-.144.356T3.5 8t-.356-.144T3 7.5M19.385 21H16.5q-.213 0-.356-.144Q16 20.712 16 20.5t.144-.356T16.5 20h2.885q.23 0 .423-.192t.192-.423V16.5q0-.213.144-.356T20.5 16t.356.144t.143.356v2.885q0 .69-.462 1.152T19.385 21M20 7.5V4.615q0-.23-.192-.423T19.385 4H16.5q-.213 0-.356-.144T16 3.5t.144-.356T16.5 3h2.885q.69 0 1.152.463T21 4.615V7.5q0 .213-.144.356Q20.712 8 20.5 8t-.356-.144T20 7.5"/></svg>