<svg xmlns="http://www.w3.org/2000/svg" width="200" height="200" viewBox="0 0 24 24"><path fill="currentColor" d="m16.14 20.137l3.897-3.897q.146-.146.353-.152q.208-.007.354.158q.14.146.14.354t-.14.354l-4.013 4.02q-.243.241-.566.241q-.323 0-.565-.242l-1.938-1.938q-.14-.14-.131-.345q.01-.203.15-.344q.14-.14.344-.14t.344.14l1.771 1.79ZM9 14.688l-1.265 1.266q-.14.14-.335.13q-.194-.009-.335-.15q-.14-.14-.14-.344t.14-.344L8.312 14l-1.266-1.265q-.14-.14-.13-.345q.009-.203.15-.344q.14-.14.344-.14t.344.14L9 13.312l1.265-1.266q.14-.14.345-.14t.344.14q.14.14.14.344t-.14.345L9.688 14l1.266 1.265q.14.14.14.335t-.14.335q-.14.14-.344.14t-.345-.14L9 14.688ZM5.615 21q-.69 0-1.152-.462Q4 20.075 4 19.385V6.615q0-.69.463-1.152Q4.925 5 5.615 5h1.77V3.308q0-.233.153-.386q.152-.153.385-.153t.386.153q.153.153.153.386V5h7.153V3.27q0-.214.144-.357t.356-.144q.214 0 .357.143t.143.357V5h1.77q.69 0 1.152.463q.463.462.463 1.152v5.716l-1 1.025v-2.74H5v8.769q0 .23.192.423q.193.192.423.192h5.077l1.033 1h-6.11Z"/></svg>