<svg xmlns="http://www.w3.org/2000/svg" width="200" height="200" viewBox="0 0 24 24"><path fill="currentColor" d="M5.308 19.5q-.344 0-.576-.232q-.232-.232-.232-.576V17.5h3v1.192q0 .344-.232.576q-.232.232-.576.232H5.308Zm-.808-4v-3h3v3h-3Zm0-5V5.308q0-.344.232-.576q.232-.232.576-.232h1.384q.344 0 .576.232q.232.232.232.576V10.5h-3Zm6.808 9q-.344 0-.576-.232q-.232-.232-.232-.576V13.5h3v5.192q0 .344-.232.576q-.232.232-.576.232h-1.384Zm-.808-8v-3h3v3h-3Zm0-5V5.308q0-.344.232-.576q.232-.232.576-.232h1.384q.344 0 .576.232q.232.232.232.576V6.5h-3Zm6.77 13q-.31 0-.54-.23q-.23-.23-.23-.54v-.23h3v.23q0 .31-.23.54q-.23.23-.54.23h-1.46Zm-.77-3v-3h3v3h-3Zm0-5V5.308q0-.344.232-.576q.232-.232.576-.232h1.384q.344 0 .576.232q.232.232.232.576V11.5h-3Z"/></svg>