<svg xmlns="http://www.w3.org/2000/svg" width="200" height="200" viewBox="0 0 24 24"><path fill="currentColor" d="M4.115 18q-.666 0-1.14-.475q-.475-.474-.475-1.14v-8.77q0-.666.475-1.14Q3.449 6 4.114 6h8.77q.666 0 1.14.475q.475.474.475 1.14v8.77q0 .666-.475 1.14q-.474.475-1.14.475h-8.77Zm13.202-7q-.357 0-.587-.23q-.23-.23-.23-.587V6.817q0-.357.23-.587q.23-.23.587-.23h3.366q.357 0 .587.23q.23.23.23.587v3.366q0 .357-.23.587q-.23.23-.587.23h-3.366Zm.183-1h3V7h-3v3ZM4.115 17h8.77q.269 0 .442-.173t.173-.442v-8.77q0-.269-.173-.442T12.885 7h-8.77q-.269 0-.442.173t-.173.442v8.77q0 .269.173.442t.442.173ZM5.5 14.904h6q.233 0 .349-.217q.116-.218-.026-.43l-1.625-2.174q-.13-.162-.323-.162t-.323.162L8 14.153l-1.052-1.395q-.13-.162-.323-.162t-.323.162l-1.125 1.5q-.142.211-.026.429q.116.217.349.217ZM17.317 18q-.357 0-.587-.23q-.23-.23-.23-.587v-3.366q0-.357.23-.587q.23-.23.587-.23h3.366q.357 0 .587.23q.23.23.23.587v3.366q0 .357-.23.587q-.23.23-.587.23h-3.366Zm.183-1h3v-3h-3v3Zm-14 0V7v10Zm14-7V7v3Zm0 7v-3v3Z"/></svg>