<svg xmlns="http://www.w3.org/2000/svg" width="200" height="200" viewBox="0 0 24 24"><path fill="currentColor" d="M3 21V3h18v18H3Zm1-1h16V4H4v16Zm4.615-6.23q-.31 0-.539-.23q-.23-.23-.23-.54q0-.31.23-.54q.23-.23.54-.23q.309 0 .539.23q.23.23.23.54q0 .31-.23.54q-.23.23-.54.23Zm6.77 0q-.31 0-.54-.23q-.23-.23-.23-.54q0-.31.23-.54q.23-.23.54-.23q.31 0 .539.23q.23.23.23.54q0 .31-.23.54q-.23.23-.54.23ZM6 11.253V17.5h1v-2h10v2h1v-6.246L16.35 6.5H7.657L6 11.254Zm1.304-.754l1.046-3h7.3l1.046 3H7.304ZM4 4v16V4Zm3 10.5v-3h10v3H7Z"/></svg>