<svg xmlns="http://www.w3.org/2000/svg" width="200" height="200" viewBox="0 0 24 24"><path fill="currentColor" d="M8 21q-1.238 0-2.119-.881T5 18V8q0-1.238.881-2.119T8 5h1.5V3.5q0-.213.144-.356Q9.788 3 10 3t.356.144q.143.143.143.356V5h3V3.5q0-.213.144-.356Q13.788 3 14 3t.356.144q.143.143.143.356V5H16q1.238 0 2.119.881T19 8v10q0 1.238-.881 2.119T16 21H8Zm0-1h8q.825 0 1.413-.588T18 18V8q0-.825-.588-1.413T16 6H8q-.825 0-1.413.588T6 8v10q0 .825.588 1.413T8 20ZM9 9.5h6q.213 0 .356-.144q.144-.144.144-.357t-.144-.356Q15.213 8.5 15 8.5H9q-.213 0-.356.144Q8.5 8.788 8.5 9t.144.356Q8.787 9.5 9 9.5Zm2.997 7.827q.822 0 1.393-.568q.572-.569.572-1.36q0-.329-.08-.56q-.08-.232-.3-.54l-1.122-1.336q-.187-.217-.461-.217t-.451.214l-1.137 1.343q-.216.311-.294.535q-.079.224-.079.555q0 .797.568 1.366q.568.568 1.39.568ZM6 6v14V6Z"/></svg>