<svg xmlns="http://www.w3.org/2000/svg" width="200" height="200" viewBox="0 0 24 24"><path fill="currentColor" d="M8 21q-1.238 0-2.119-.881T5 18V8q0-1.238.881-2.119T8 5h1.5V3h1v2h3V3h1v2H16q1.238 0 2.119.881T19 8v10q0 1.238-.881 2.119T16 21H8Zm0-1h8q.825 0 1.413-.588T18 18V8q0-.825-.588-1.413T16 6H8q-.825 0-1.413.588T6 8v10q0 .825.588 1.413T8 20Zm.5-10.5h7v-1h-7v1Zm3.497 7.827q.822 0 1.393-.568q.572-.569.572-1.36q0-.636-.373-1.098q-.373-.462-1.589-1.878q-1.229 1.415-1.595 1.882q-.367.466-.367 1.088q0 .797.568 1.366q.568.568 1.39.568ZM6 6v14V6Z"/></svg>