<svg xmlns="http://www.w3.org/2000/svg" width="200" height="200" viewBox="0 0 24 24"><path fill="currentColor" d="M4.384 15.885q-.213 0-.356-.144t-.143-.356v-6.77q0-.212.144-.356t.356-.144t.356.144t.144.356v6.77q0 .212-.144.356t-.357.144m2.837 1.692q-.338 0-.568-.233t-.23-.579V9.462q0-1.266.893-2.152t2.146-.887h5.076q1.266 0 2.152.887q.887.886.887 2.152v7.303q0 .345-.23.579t-.568.233zm12.394-1.692q-.213 0-.356-.144t-.144-.356v-6.77q0-.212.144-.356t.357-.144t.356.144t.143.356v6.77q0 .212-.144.356t-.356.144m-12.192.692H11.5V12.5h-1.192q-.213 0-.357-.144q-.143-.144-.143-.357t.143-.356t.357-.143H11.5V7.423H9.462q-.841 0-1.44.599t-.599 1.44zm5.077 0h4.077V9.462q0-.841-.599-1.44t-1.44-.599H12.5V11.5h1.192q.213 0 .357.144q.143.144.143.357t-.143.356t-.357.143H12.5z"/></svg>