<svg xmlns="http://www.w3.org/2000/svg" width="200" height="200" viewBox="0 0 24 24"><path fill="currentColor" d="M4.384 15.885q-.213 0-.356-.144t-.143-.356v-6.77q0-.212.144-.356t.356-.144t.356.144t.144.356v6.77q0 .212-.144.356t-.357.144m15.23 0q-.212 0-.355-.144t-.144-.356v-6.77q0-.212.144-.356t.357-.144t.356.144t.143.356v6.77q0 .212-.144.356t-.356.144m-13.192.88V9.462q0-1.266.893-2.152t2.146-.887h1.23q.344 0 .576.232t.232.576V11.5h-1.192q-.213 0-.357.144q-.143.144-.143.357t.143.356t.357.143H11.5v4.27q0 .343-.232.575t-.576.232H7.231q-.343 0-.576-.233t-.232-.579m6.077.004V12.5h1.192q.213 0 .357-.144q.143-.144.143-.357t-.143-.356t-.357-.143H12.5V7.23q0-.342.232-.575t.576-.232h1.23q1.266 0 2.152.887q.887.886.887 2.152v7.303q0 .345-.232.579t-.576.233h-3.461q-.344 0-.576-.232t-.232-.576"/></svg>