<svg xmlns="http://www.w3.org/2000/svg" width="200" height="200" viewBox="0 0 24 24"><path fill="currentColor" d="M9.572 17Q9.23 17 9 16.768q-.23-.232-.23-.576V5.615q0-.666.475-1.14Q9.72 4 10.386 4h3.234q.667 0 1.139.475q.472.474.472 1.14v10.577q0 .344-.233.576q-.232.232-.576.232h-4.85Zm.197-1h4.462V5.615q0-.269-.173-.442T13.615 5h-3.23q-.27 0-.443.173t-.173.442V16Zm-.5 2.385h5.462q.212 0 .356.144t.144.356q0 .213-.144.356q-.144.144-.356.144H9.269q-.212 0-.356-.144t-.144-.357q0-.213.144-.356t.356-.143ZM9.77 16h4.462H9.77Z"/></svg>