<svg xmlns="http://www.w3.org/2000/svg" width="200" height="200" viewBox="0 0 24 24"><path fill="currentColor" d="M3.423 10.55q-.244 0-.372-.192t-.03-.406L6.03 2.823q.061-.121.164-.187t.224-.067h.316q.12 0 .224.067t.164.187l3.014 7.129q.092.213-.036.406q-.128.192-.366.192q-.14 0-.24-.076t-.162-.197l-.743-1.704H4.562l-.743 1.71q-.061.12-.158.194q-.098.073-.238.073M4.95 21.575q-.82 0-1.385-.593Q3 20.388 3 19.55q0-.404.152-.77t.444-.659l1.416-1.415l-.716-.696q-.292-.293-.444-.647t-.152-.738q0-.838.593-1.432q.594-.593 1.432-.593t1.42.58t.58 1.42q0 .404-.14.77t-.431.659l-.721.696l1.392 1.412l1.071-1.047q.146-.14.347-.152t.367.152q.146.147.146.348t-.146.366l-1.047 1.065l1.047 1.052q.14.146.15.354t-.156.354q-.146.14-.354.134t-.354-.153L7.85 19.563L6.454 20.98q-.298.298-.687.447q-.388.149-.817.149m.775-4.137l-1.421 1.416q-.133.133-.206.316t-.073.38q0 .412.282.706T5 20.55q.196 0 .37-.076t.326-.228l1.421-1.415zM5.7 13.6q-.412 0-.693.294q-.282.294-.282.706q0 .196.073.38t.206.316l.702.716l.69-.69q.152-.153.228-.327t.076-.37q0-.43-.285-.728q-.284-.297-.715-.297m.825-9.715l-1.612 3.83h3.324l-1.612-3.83zm7.246 6.198q-.188.067-.362-.05t-.236-.304t.055-.356t.305-.235q.73-.194 1.436-.5t1.335-.734q-.71-.683-1.215-1.526q-.504-.843-.735-1.803h-.97q-.213 0-.356-.143t-.143-.357t.143-.357t.357-.143h7.23q.214 0 .357.143t.143.357t-.143.357t-.357.143h-.713q-.237.979-.77 1.822q-.534.843-1.282 1.507q.61.41 1.26.706q.652.296 1.344.49q.208.067.321.244t.052.385t-.236.314t-.362.04q-.858-.25-1.642-.626q-.785-.376-1.51-.915q-.744.533-1.587.909q-.842.376-1.719.632m-.4 10.52q-.165-.145-.156-.356t.156-.357l6.37-6.369q.14-.14.34-.14t.348.14q.165.146.156.357t-.156.357l-6.37 6.369q-.14.14-.34.14t-.348-.14M14.5 15.55q-.413 0-.707-.293q-.293-.294-.293-.707t.293-.707t.707-.293t.707.293q.293.294.293.707t-.293.707t-.707.293m.883-10.975q.2.802.634 1.496q.435.694 1.06 1.242q.644-.548 1.108-1.242q.463-.694.688-1.496zM19.5 20.55q-.413 0-.707-.293q-.293-.294-.293-.707t.293-.707t.707-.293t.707.293q.293.294.293.707t-.293.707t-.707.293M16.604 3.667q-.204.068-.38-.022t-.243-.293t.012-.38t.284-.243l1.044-.354q.198-.067.39.01t.277.275t0 .399t-.284.268z"/></svg>