<svg xmlns="http://www.w3.org/2000/svg" width="200" height="200" viewBox="0 0 24 24"><path fill="currentColor" d="M11 13v-2h2v2h-2Zm-2 2v-2h2v2H9Zm4 0v-2h2v2h-2Zm2-2v-2h2v2h-2Zm-8 0v-2h2v2H7Zm-1.385 7q-.67 0-1.143-.472Q4 19.056 4 18.385V5.615q0-.67.472-1.143Q4.944 4 5.615 4h12.77q.67 0 1.143.472q.472.472.472 1.143v12.77q0 .67-.472 1.143q-.472.472-1.143.472H5.615ZM7 19h2v-2H7v2Zm4 0h2v-2h-2v2Zm8 0v-2v2ZM5 17h2v-2h2v2h2v-2h2v2h2v-2h2v2h2v-2h-2v-2h2V5.615q0-.23-.192-.423Q18.615 5 18.385 5H5.615q-.23 0-.423.192Q5 5.385 5 5.615V13h2v2H5v2Zm.615 2H5V5h.615q-.23 0-.423.192Q5 5.385 5 5.615v12.77q0 .23.192.423q.193.192.423.192ZM19 13v2v-2Zm-4 4v2h2v-2h-2Z"/></svg>