<svg xmlns="http://www.w3.org/2000/svg" width="200" height="200" viewBox="0 0 24 24"><path fill="currentColor" d="M5.615 20h3.06v-4.656H4v3.04q0 .667.475 1.141q.474.475 1.14.475Zm4.06 0h4.65v-4.656h-4.65V20Zm5.65 0h3.06q.666 0 1.14-.475q.475-.474.475-1.14v-3.04h-4.675V20ZM4 14.344h4.675V9.656H4v4.688Zm5.675 0h4.65V9.656h-4.65v4.688Zm5.65 0H20V9.656h-4.675v4.688ZM4 8.656h4.675V4h-3.06q-.666 0-1.14.475Q4 4.949 4 5.615v3.04Zm5.675 0h4.65V4h-4.65v4.656Zm5.65 0H20v-3.04q0-.667-.475-1.141Q19.051 4 18.385 4h-3.06v4.656Z"/></svg>