<svg xmlns="http://www.w3.org/2000/svg" width="200" height="200" viewBox="0 0 24 24"><path fill="currentColor" d="M5.688 19h12.599l-2.774-2.773q-.725.602-1.612.937q-.888.336-1.901.336t-1.901-.338q-.887-.339-1.612-.94L5.688 19ZM5 18.287l2.773-2.774q-.602-.725-.937-1.612Q6.5 13.013 6.5 12t.338-1.901q.339-.887.94-1.612L5 5.688v12.599Zm3.492-3.493l2.8-2.794l-2.8-2.794q-.467.584-.73 1.286Q7.5 11.194 7.5 12t.263 1.508q.262.702.73 1.286ZM12 16.5q.806 0 1.508-.263q.702-.262 1.286-.73L12 12.689l-2.82 2.82q.585.467 1.3.73q.714.262 1.52.262Zm0-5.213l2.794-2.795q-.584-.467-1.286-.73Q12.806 7.5 12 7.5t-1.508.263q-.702.262-1.286.73L12 11.286Zm3.508 3.507q.467-.584.73-1.286q.262-.702.262-1.508t-.263-1.52q-.262-.715-.73-1.3l-2.794 2.795l2.795 2.82ZM19 18.287V5.688l-2.779 2.799q.602.725.94 1.612q.339.888.339 1.901t-.336 1.901q-.335.887-.937 1.612L19 18.287ZM15.513 7.779L18.312 5H5.713l2.774 2.773q.725-.602 1.612-.937Q10.987 6.5 12 6.5t1.901.338q.887.339 1.612.94ZM4 20V4h16v16H4Z"/></svg>