<svg xmlns="http://www.w3.org/2000/svg" width="200" height="200" viewBox="0 0 24 24"><path fill="currentColor" d="M12 22q-4.246 0-7.123-1.52T2 16.75q0-1.494 1.408-2.691t4.015-1.89V13.2q-2.036.575-3.23 1.523T3 16.75q0 1.715 2.68 2.983Q8.363 21 12 21t6.32-1.267T21 16.75q0-1.079-1.193-2.027t-3.23-1.523v-1.03q2.588.672 4.006 1.879Q22 15.256 22 16.75q0 2.21-2.877 3.73T12 22m-2.192-4.077V7.096H5v-1h14v1h-4.808v10.827h-1v-4.942h-2.384v4.942zM12 4.903q-.595 0-1.02-.423t-.423-1.018q0-.611.423-1.046T12 1.98t1.02.435t.423 1.046q0 .594-.423 1.018T12 4.904"/></svg>