<svg xmlns="http://www.w3.org/2000/svg" width="200" height="200" viewBox="0 0 24 24"><path fill="currentColor" d="M12 22q-4.246 0-7.123-1.52T2 16.75q0-.687.3-1.307t.904-1.193t1.483-1.024t1.98-.826q.183-.073.373.026t.256.31q.067.183-.043.363t-.313.259q-.892.275-1.618.66t-1.26.844q-.54.457-.801.927T3 16.75q0 1.715 2.68 2.983Q8.363 21 12 21t6.32-1.267T21 16.75q0-.49-.26-.96t-.802-.928q-.534-.458-1.26-.844t-1.618-.66q-.202-.08-.313-.259t-.043-.369q.067-.201.257-.302q.189-.101.39-.028q.926.298 1.717.693q.792.395 1.367.85q.782.621 1.174 1.324q.391.702.391 1.483q0 2.21-2.877 3.73T12 22m-1.693-4.077q-.213 0-.356-.144t-.143-.356V7.096H5.5q-.213 0-.356-.144Q5 6.808 5 6.595q0-.212.144-.356t.356-.143h13q.213 0 .356.144t.144.357t-.144.356t-.356.143h-4.308v10.327q0 .213-.144.356t-.356.144t-.356-.144t-.144-.356v-4.442h-2.384v4.442q0 .213-.144.356t-.357.144M12 4.903q-.594 0-1.018-.423t-.424-1.018q0-.611.423-1.046T12 1.98t1.02.435t.423 1.046q0 .594-.423 1.018T12 4.904"/></svg>