<svg xmlns="http://www.w3.org/2000/svg" width="200" height="200" viewBox="0 0 24 24"><path fill="currentColor" d="M11.256 17.192q-1.56 0-2.658-1.098T7.52 13.442q-2.269.006-3.894-1.487T2 8.25q0-.587.418-1.005t1.005-.418h4.289V5H6.115q-.212 0-.356-.144t-.144-.357t.144-.356T6.115 4h4.173q.213 0 .357.144q.143.144.143.357q0 .212-.143.356Q10.5 5 10.288 5H8.712v1.827h3.405q.323 0 .616.12t.515.34l7.894 7.798q.858.855.858 2.037t-.858 2.04t-2.053.857t-2.062-.857l-1.989-1.97zm-.025-3.75H8.513q-.019 1.152.78 1.951q.8.8 1.957.8h2.788zm1.117-5.615H3.423q-.173 0-.298.125T3 8.25q0 1.785 1.338 2.988T7.5 12.442h4.152l6.088 6.012q.566.546 1.355.546q.79 0 1.348-.55T21 17.124t-.565-1.325zm0 0"/></svg>