<svg xmlns="http://www.w3.org/2000/svg" width="200" height="200" viewBox="0 0 24 24"><path fill="currentColor" d="M20.808 21.692v-2h-2v-.884h2v-2h.884v2h2v.884h-2v2h-.884Zm-7.5 0v-5.384h4.384v3.323h-1.054l.9 2.061h-.923l-.9-2h-1.523v2h-.884Zm.884-2.884h2.616v-1.616h-2.616v1.616ZM.308 21.692v-5.384h.884v2h2.616v-2h.884v5.384h-.884v-2.5H1.192v2.5H.308Zm6.5 0v-5.384h3.942l.442.442v4.5l-.442.442H6.808Zm.884-.884h2.616v-3.616H7.692v3.616ZM16.65 9.83l-6.462-6.493q.42-.165.877-.251Q11.523 3 12 3q2.083 0 3.542 1.458Q17 5.917 17 8q0 .438-.083.915q-.082.477-.267.916Zm-.246 3.988l-1.67-1.669q-.555.396-1.243.623Q12.804 13 12 13q-2.083 0-3.542-1.458Q7 10.083 7 8q0-.744.208-1.452q.207-.708.642-1.283L6.142 3.596l.708-.746l10.262 10.262l-.708.707Z"/></svg>