<svg xmlns="http://www.w3.org/2000/svg" width="200" height="200" viewBox="0 0 24 24"><path fill="currentColor" d="m16.65 9.83l-6.462-6.492q.42-.165.877-.251Q11.523 3 12 3q2.083 0 3.542 1.458Q17 5.917 17 8q0 .438-.083.915q-.082.477-.267.916Zm-.246 3.99l-1.67-1.67q-.555.396-1.243.623Q12.804 13 12 13q-2.083 0-3.542-1.458Q7 10.083 7 8q0-.744.208-1.452q.207-.708.642-1.283L6.142 3.596l.708-.746l10.262 10.262l-.708.707Zm4.404 7.872v-2h-2v-.884h2v-2h.884v2h2v.884h-2v2h-.884Zm-7.5 0v-5.384h2.884q.6 0 1.05.43q.45.431.45 1.07v.384q0 .46-.262.85q-.263.389-.792.589l.9 2.061h-.923l-.9-2h-1.523v2h-.884Zm.884-2.884h2q.231 0 .423-.193q.193-.192.193-.423v-.384q0-.231-.193-.423q-.192-.193-.423-.193h-2v1.616ZM.308 21.692v-5.384h.884v2h2.616v-2h.884v5.384h-.884v-2.5H1.192v2.5H.308Zm6.5 0v-5.384h2.884q.6 0 1.05.45t.45 1.05v2.384q0 .6-.45 1.05t-1.05.45H6.808Zm.884-.884h2q.231 0 .423-.193q.193-.192.193-.423v-2.384q0-.231-.193-.423q-.192-.193-.423-.193h-2v3.616Zm13.116.884v-2h-2v-.884h2v-2h.884v2h2v.884h-2v2h-.884Zm-7.5 0v-5.384h2.884q.6 0 1.05.43q.45.431.45 1.07v.384q0 .46-.262.85q-.263.389-.792.589l.9 2.061h-.923l-.9-2h-1.523v2h-.884Zm.884-2.884h2q.231 0 .423-.193q.193-.192.193-.423v-.384q0-.231-.193-.423q-.192-.193-.423-.193h-2v1.616ZM.308 21.692v-5.384h.884v2h2.616v-2h.884v5.384h-.884v-2.5H1.192v2.5H.308Zm6.5 0v-5.384h2.884q.6 0 1.05.45t.45 1.05v2.384q0 .6-.45 1.05t-1.05.45H6.808Zm.884-.884h2q.231 0 .423-.193q.193-.192.193-.423v-2.384q0-.231-.193-.423q-.192-.193-.423-.193h-2v3.616Z"/></svg>