<svg xmlns="http://www.w3.org/2000/svg" width="200" height="200" viewBox="0 0 24 24"><path fill="currentColor" d="M5.615 15q-1.237 0-2.118-.881T2.615 12q0-1.238.882-2.119T5.615 9q1.238 0 2.12.881T8.614 12q0 1.238-.88 2.119T5.614 15Zm0-1q.825 0 1.413-.588T7.615 12q0-.825-.587-1.413T5.615 10q-.825 0-1.412.588T3.615 12q0 .825.588 1.413T5.615 14Zm10.774 3q-2.081 0-3.543-1.457q-1.461-1.457-1.461-3.538q0-2.082 1.457-3.543Q14.299 7 16.38 7q2.082 0 3.543 1.457q1.462 1.457 1.462 3.538q0 2.082-1.457 3.543Q18.47 17 16.389 17Z"/></svg>