<svg xmlns="http://www.w3.org/2000/svg" width="200" height="200" viewBox="0 0 24 24"><path fill="currentColor" d="M12.005 13q-2.082 0-3.543-1.457Q7 10.086 7 8.005q0-2.082 1.457-3.543Q9.914 3 11.995 3q2.082 0 3.543 1.457Q17 5.914 17 7.995q0 2.082-1.457 3.543Q14.086 13 12.005 13Zm-.505-2.5h1v-2h2v-1h-2v-2h-1v2h-2v1h2v2Zm9.308 11.192v-2h-2v-.884h2v-2h.884v2h2v.884h-2v2h-.884Zm-7.5 0v-5.384h4.384v3.323h-1.054l.9 2.061h-.923l-.9-2h-1.523v2h-.884Zm.884-2.884h2.616v-1.616h-2.616v1.616ZM.308 21.692v-5.384h.884v2h2.616v-2h.884v5.384h-.884v-2.5H1.192v2.5H.308Zm6.5 0v-5.384h3.942l.442.442v4.5l-.442.442H6.808Zm.884-.884h2.616v-3.616H7.692v3.616Z"/></svg>