<svg xmlns="http://www.w3.org/2000/svg" width="200" height="200" viewBox="0 0 24 24"><path fill="currentColor" d="M7.788 17q-1.356 0-2.322-.935T4.5 13.788v-3.67q0-1 .656-1.754t1.656-.94Q8.12 7.18 9.406 7.08t2.595-.1t2.606.094t2.581.35q1 .191 1.656.94t.656 1.753v3.671q0 1.362-.972 2.287T16.192 17h-.942q-.26 0-.522-.047q-.26-.047-.522-.134l-1.485-.473q-.358-.125-.721-.125t-.721.125l-1.504.473q-.262.087-.522.134Q8.992 17 8.73 17zm0-1h.943q.195 0 .376-.035q.181-.034.37-.084q.629-.206 1.243-.418q.614-.211 1.283-.211t1.287.206t1.233.423q.189.05.364.084q.175.035.363.035h.942q.94 0 1.624-.65t.684-1.562v-3.67q0-.653-.427-1.127t-1.067-.599q-1.237-.251-2.485-.331T12 7.98q-1.281 0-2.515.091t-2.49.32q-.641.117-1.068.6q-.427.482-.427 1.125v3.671q0 .913.672 1.562q.672.65 1.616.65M2 13.788v-3.653h.865v3.653zm19.135 0v-3.653H22v3.653zM7.788 16q-.944 0-1.616-.65T5.5 13.788v-3.67q0-.644.427-1.126q.427-.483 1.067-.6q1.258-.228 2.491-.32T12 7.981q1.278 0 2.52.078q1.243.078 2.486.333q.64.125 1.067.6t.427 1.125v3.671q0 .913-.684 1.562q-.683.65-1.624.65h-.942q-.188 0-.363-.035q-.175-.034-.364-.084q-.62-.217-1.24-.423T12 15.252q-.669 0-1.281.211t-1.242.418q-.189.05-.37.084q-.181.035-.376.035z"/></svg>