<svg xmlns="http://www.w3.org/2000/svg" width="200" height="200" viewBox="0 0 24 24"><path fill="currentColor" d="m20.1 17.304l-1-1v-2.458h-2.077v.4l-1-1v-.4H19.1V11q0-2.912-2.05-4.956Q15 4 12.1 4q-1.1 0-2.145.341q-1.045.342-1.87.936l-.72-.708q.837-.663 2.074-1.116Q10.677 3 12.1 3q1.658 0 3.113.623q1.454.623 2.545 1.714q1.09 1.09 1.716 2.545Q20.1 9.337 20.1 11v6.304Zm1.092 5.404l-1.71-1.71q-.188.202-.455.294q-.267.093-.542.093H12.1v-1h6.154q.115 0 .23-.039q.116-.038.212-.134L17.485 19h-1.462v-1.462L6.017 7.533q-.398.715-.657 1.638q-.26.923-.26 1.829v1.846h3.077V19H5.715q-.69 0-1.152-.462q-.463-.463-.463-1.153V11q0-1.183.314-2.238t.873-1.966L1.392 2.902l.714-.708l19.794 19.8l-.708.714ZM5.715 18h1.462v-4.154H5.1v3.539q0 .269.173.442t.442.173ZM19.1 13.846Zm-13.385 0H5.1h2.077h-1.462Z"/></svg>