<svg xmlns="http://www.w3.org/2000/svg" width="200" height="200" viewBox="0 0 24 24"><path fill="currentColor" d="M8.077 20H5.615q-.69 0-1.152-.462Q4 19.075 4 18.385V12q0-1.663.626-3.118q.626-1.455 1.713-2.543q1.088-1.087 2.543-1.713Q10.337 4 12 4q1.663 0 3.118.626q1.455.626 2.543 1.713q1.087 1.088 1.713 2.543Q20 10.337 20 12v6.385q0 .69-.462 1.152q-.463.463-1.153.463h-2.462v-6.154H19V12q0-2.925-2.038-4.963T12 5Q9.075 5 7.037 7.038T5 12v1.846h3.077V20Zm-1-5.154H5v3.539q0 .23.192.423q.193.192.423.192h1.462v-4.154Zm9.846 0V19h1.462q.23 0 .423-.192q.192-.193.192-.423v-3.539h-2.077Zm-9.846 0H5h2.077Zm9.846 0H19h-2.077Z"/></svg>