<svg xmlns="http://www.w3.org/2000/svg" width="200" height="200" viewBox="0 0 24 24"><path fill="currentColor" d="M5.615 19q-.69 0-1.152-.462Q4 18.075 4 17.385V11q0-1.658.626-3.113q.626-1.454 1.716-2.545q1.09-1.09 2.546-1.716Q10.341 3 12 3q1.658 0 3.113.626q1.454.626 2.545 1.716q1.09 1.09 1.716 2.546Q20 9.341 20 11v8.77q0 .69-.463 1.152q-.462.463-1.152.463H12.5q-.213 0-.357-.144T12 20.885q0-.214.143-.357q.144-.143.357-.143h5.885q.269 0 .442-.173t.173-.443V19h-1.462q-.67 0-1.143-.472q-.472-.472-.472-1.143v-2.923q0-.672.472-1.144q.472-.472 1.143-.472H19V11q0-2.9-2.05-4.95T12 4Q9.1 4 7.05 6.05T5 11v1.846h1.462q.67 0 1.143.472q.472.472.472 1.144v2.923q0 .67-.472 1.143Q7.133 19 6.462 19h-.847Zm0-1h.847q.269 0 .442-.173t.173-.442v-2.923q0-.27-.173-.443t-.442-.173H5v3.539q0 .269.173.442t.442.173Zm11.923 0H19v-4.154h-1.462q-.269 0-.442.173t-.173.443v2.923q0 .269.173.442t.442.173ZM5.615 13.846H5h2.077h-1.462Zm11.923 0h-.615H19h-1.462Z"/></svg>