<svg xmlns="http://www.w3.org/2000/svg" width="200" height="200" viewBox="0 0 24 24"><path fill="currentColor" d="m20.1 17.304l-3.783-3.764q.231-.319.558-.506q.327-.188.763-.188H19.1V11q0-2.912-2.05-4.956Q15 4 12.1 4q-1.1 0-2.145.341q-1.045.342-1.87.936l-.72-.708q.837-.663 2.074-1.116Q10.677 3 12.1 3q1.658 0 3.113.623q1.454.623 2.545 1.714q1.09 1.09 1.716 2.545Q20.1 9.337 20.1 11v6.304Zm-7.5 4.08q-.213 0-.357-.143t-.143-.356q0-.214.143-.357q.144-.143.357-.143h5.654q.115 0 .23-.039q.116-.038.212-.134L17.485 19h.153q-.67 0-1.143-.472q-.472-.472-.472-1.143v.153L6.017 7.533q-.398.715-.657 1.638q-.26.923-.26 1.829v1.846h1.462q.67 0 1.143.472q.472.472.472 1.144v2.923q0 .67-.472 1.143Q7.233 19 6.562 19h-.847q-.69 0-1.152-.462q-.463-.463-.463-1.153V11q0-1.183.314-2.238t.873-1.966l-3.54-3.54q-.147-.146-.154-.344q-.006-.199.159-.364q.165-.16.354-.162q.188-.003.354.162L21.546 21.64q.14.14.15.342q.01.2-.15.366q-.165.165-.35.171q-.186.006-.329-.136l-1.384-1.385q-.189.202-.456.294q-.267.093-.542.093H12.6Z"/></svg>