<svg xmlns="http://www.w3.org/2000/svg" width="200" height="200" viewBox="0 0 24 24"><path fill="currentColor" d="M7.788 17q-1.356 0-2.322-.935T4.5 13.788v-3.67q0-1 .656-1.754t1.656-.94Q8.12 7.18 9.406 7.08t2.595-.1t2.606.094t2.581.35q1 .191 1.656.94t.656 1.753v3.671q0 1.362-.972 2.287T16.192 17h-.942q-.26 0-.522-.047q-.26-.047-.522-.134l-1.485-.473q-.358-.125-.721-.125t-.721.125l-1.504.473q-.262.087-.522.134Q8.992 17 8.73 17zm0-1h.943q.195 0 .376-.035q.181-.034.37-.084q.629-.206 1.243-.418q.614-.211 1.283-.211t1.287.206t1.233.423q.189.05.364.084q.175.035.363.035h.942q.94 0 1.624-.65t.684-1.562v-3.67q0-.653-.427-1.127t-1.067-.599q-1.237-.251-2.485-.331T12 7.98q-1.281 0-2.515.091t-2.49.32q-.641.117-1.068.6q-.427.482-.427 1.125v3.671q0 .913.672 1.562q.672.65 1.616.65m-5.337-2.212q-.18 0-.315-.135Q2 13.517 2 13.346v-2.788q0-.171.136-.297t.306-.126t.297.126t.126.297v2.807q0 .172-.117.298q-.118.125-.297.125m19.134 0q-.18 0-.315-.135q-.135-.136-.135-.307v-2.788q0-.171.135-.297t.307-.126t.297.126t.126.297v2.807q0 .172-.117.298q-.118.125-.298.125M12 11.981"/></svg>