<svg xmlns="http://www.w3.org/2000/svg" width="200" height="200" viewBox="0 0 24 24"><path fill="currentColor" d="M12 21.385v-1h6.385q.269 0 .442-.173t.173-.443V19h-3.077v-6.154H19V11q0-2.9-2.05-4.95T12 4Q9.1 4 7.05 6.05T5 11v1.846h3.077V19H5.615q-.69 0-1.152-.462Q4 18.075 4 17.385V11q0-1.658.626-3.113q.626-1.454 1.716-2.545q1.09-1.09 2.546-1.716Q10.341 3 12 3q1.658 0 3.113.626q1.454.626 2.545 1.716q1.09 1.09 1.716 2.546Q20 9.341 20 11v8.77q0 .69-.463 1.152q-.462.463-1.152.463H12ZM5.615 18h1.462v-4.154H5v3.539q0 .269.173.442t.442.173Zm11.308 0H19v-4.154h-2.077V18ZM5.615 13.846H5h2.077h-1.462Zm11.308 0H19h-2.077Z"/></svg>