<svg xmlns="http://www.w3.org/2000/svg" width="200" height="200" viewBox="0 0 24 24"><path fill="currentColor" d="M7.788 17q-1.361 0-2.325-.935q-.963-.934-.963-2.277v-3.67q0-1.006.656-1.757t1.656-.938q1.31-.236 2.594-.34T12 6.982t2.607.093t2.581.35q1 .191 1.656.94t.656 1.753v3.671q0 1.362-.973 2.287T16.192 17h-.942q-.267 0-.525-.047t-.52-.134l-1.484-.473q-.358-.125-.721-.125t-.721.125l-1.504.473q-.262.087-.52.134q-.257.047-.524.047zm0-1h.943q.194 0 .376-.035q.181-.034.37-.084q.629-.206 1.24-.418q.61-.211 1.283-.211t1.287.209t1.236.42q.189.05.36.084q.173.035.367.035h.942q.94 0 1.624-.645t.684-1.567v-3.67q0-.647-.427-1.124t-1.067-.602q-1.243-.255-2.488-.333T12 7.98t-2.515.09q-1.243.09-2.49.321q-.641.12-1.068.6T5.5 10.116v3.671q0 .922.674 1.567T7.788 16m-5.346-2.212q-.17 0-.306-.135Q2 13.517 2 13.346v-2.788q0-.171.136-.297t.306-.126t.297.126t.126.297v2.807q0 .172-.116.298q-.116.125-.307.125m19.135 0q-.171 0-.307-.135q-.135-.136-.135-.307v-2.788q0-.171.135-.297t.307-.126t.297.126t.126.297v2.807q0 .172-.116.298q-.117.125-.307.125M7.788 16q-.94 0-1.614-.645T5.5 13.788v-3.67q0-.647.427-1.127t1.067-.599q1.248-.23 2.49-.32T12 7.98t2.518.078t2.488.333q.64.125 1.067.602t.427 1.123v3.671q0 .922-.684 1.567T16.192 16h-.942q-.194 0-.366-.035q-.172-.034-.36-.084l-1.237-.42q-.614-.21-1.287-.21t-1.284.212t-1.24.418q-.188.05-.37.084q-.181.035-.375.035z"/></svg>