<svg xmlns="http://www.w3.org/2000/svg" width="200" height="200" viewBox="0 0 24 24"><path fill="currentColor" d="m12 16.265l-5.15 5.15l-4.285-4.284l5.17-5.17l-5.131-5.13L6.85 2.585l5.13 5.13l5.132-5.13l4.284 4.284l-5.15 5.15l5.15 5.15l-4.246 4.246l-5.15-5.15Zm.003-5.073q.345 0 .575-.233q.23-.233.23-.578q0-.344-.233-.574q-.234-.23-.578-.23q-.345 0-.575.233q-.23.233-.23.578t.233.574q.234.23.578.23Zm-3.58.081l2.85-2.85L6.85 4L4 6.85l4.423 4.423Zm1.965 1.535q.345 0 .575-.234q.23-.233.23-.577q0-.345-.234-.575q-.233-.23-.578-.23q-.344 0-.574.233q-.23.234-.23.578q0 .345.233.575q.233.23.578.23Zm1.615 1.615q.345 0 .575-.233q.23-.233.23-.578t-.233-.575q-.234-.23-.578-.23q-.345 0-.575.234q-.23.233-.23.578q0 .344.234.574q.233.23.577.23Zm1.616-1.615q.344 0 .574-.234q.23-.233.23-.577q0-.345-.233-.575q-.233-.23-.578-.23t-.574.233q-.23.234-.23.578q0 .345.233.575q.233.23.578.23Zm-.911 2.75L17.15 20L20 17.15l-4.442-4.442l-2.85 2.85ZM9.302 9.302Zm5.377 5.377Z"/></svg>