<svg xmlns="http://www.w3.org/2000/svg" width="200" height="200" viewBox="0 0 24 24"><path fill="currentColor" d="m5.72 20.285l-2.024-2.023q-.46-.466-.46-1.134q0-.668.46-1.128L15.981 3.715q.465-.46 1.134-.46q.668 0 1.127.46l2.023 2.023q.46.466.46 1.134q0 .668-.46 1.128L7.981 20.285q-.466.46-1.134.46q-.668 0-1.128-.46Zm6.826-3.473l4.246-4.247l3.454 3.454q.479.47.479 1.146q0 .675-.46 1.135l-1.946 1.946q-.479.479-1.16.489q-.68.01-1.159-.47l-3.454-3.453Zm-.543-2.389q.345 0 .575-.233q.23-.233.23-.578t-.233-.574q-.234-.23-.578-.23q-.345 0-.575.233q-.23.233-.23.578q0 .344.233.574q.234.23.578.23Zm-1.615-1.615q.345 0 .575-.233q.23-.234.23-.578q0-.345-.234-.575q-.233-.23-.578-.23q-.344 0-.574.233q-.23.234-.23.578q0 .345.233.575q.233.23.578.23Zm3.23 0q.345 0 .575-.233q.23-.234.23-.578q0-.345-.233-.575q-.233-.23-.578-.23t-.574.233q-.23.234-.23.578q0 .345.233.575q.233.23.578.23ZM7.184 11.41l-3.43-3.43q-.459-.459-.478-1.13q-.02-.671.44-1.13L5.72 3.714q.466-.46 1.134-.46q.668 0 1.128.46l3.454 3.454l-4.252 4.24Zm4.82-.218q.345 0 .575-.233q.23-.233.23-.578q0-.344-.233-.574q-.234-.23-.578-.23q-.345 0-.575.233q-.23.233-.23.578t.234.574q.233.23.577.23Z"/></svg>