<svg xmlns="http://www.w3.org/2000/svg" width="200" height="200" viewBox="0 0 24 24"><path fill="currentColor" d="m6.85 21.415l-4.285-4.284L17.112 2.585l4.284 4.284L6.85 21.415Zm5.696-4.603l4.246-4.247l4.604 4.604l-4.246 4.246l-4.604-4.603Zm-.543-2.389q.345 0 .575-.233q.23-.233.23-.578t-.233-.574q-.234-.23-.578-.23q-.345 0-.575.233q-.23.233-.23.578q0 .344.233.574q.234.23.578.23Zm-1.615-1.615q.345 0 .575-.233q.23-.234.23-.578q0-.345-.234-.575q-.233-.23-.578-.23q-.344 0-.574.233q-.23.234-.23.578q0 .345.233.575q.233.23.578.23Zm3.23 0q.345 0 .575-.233q.23-.234.23-.578q0-.345-.233-.575q-.233-.23-.578-.23t-.574.233q-.23.234-.23.578q0 .345.233.575q.233.23.578.23ZM7.184 11.41l-4.58-4.58L6.85 2.586l4.585 4.584l-4.252 4.24Zm4.82-.218q.345 0 .575-.233q.23-.233.23-.578q0-.344-.233-.574q-.234-.23-.578-.23q-.345 0-.575.233q-.23.233-.23.578t.234.574q.233.23.577.23Z"/></svg>