<svg xmlns="http://www.w3.org/2000/svg" width="200" height="200" viewBox="0 0 24 24"><path fill="currentColor" d="M14.498 18q.415 0 .709-.291q.293-.291.293-.707q0-.415-.291-.709q-.291-.293-.707-.293q-.415 0-.709.291q-.293.291-.293.707q0 .415.291.709q.291.293.707.293Zm-5.048-.262l5.788-5.788l-.688-.688l-5.788 5.788l.688.688ZM9.498 13q.415 0 .709-.291q.293-.291.293-.707q0-.415-.291-.709Q9.918 11 9.502 11q-.415 0-.709.291q-.293.291-.293.707q0 .415.291.709q.291.293.707.293ZM5 21V3h9.5L19 7.5V21H5Zm9-13V4H6v16h12V8h-4ZM6 4v4v-4v16V4Z"/></svg>