<svg xmlns="http://www.w3.org/2000/svg" width="200" height="200" viewBox="0 0 24 24"><path fill="currentColor" d="M2.5 18V6h12v12h-12Zm14-7V6h5v5h-5Zm0 7v-5h5v5h-5Zm-5.502-2.5q.415 0 .709-.291q.293-.291.293-.707q0-.415-.291-.709q-.291-.293-.707-.293q-.415 0-.709.291q-.293.291-.293.707q0 .415.291.709q.291.293.707.293Zm-5.048-.262l5.788-5.788l-.688-.688l-5.788 5.788l.688.688Zm.048-4.738q.415 0 .709-.291Q7 9.918 7 9.502q0-.415-.291-.709q-.291-.293-.707-.293q-.415 0-.709.291Q5 9.082 5 9.498q0 .415.291.709q.291.293.707.293Z"/></svg>