<svg xmlns="http://www.w3.org/2000/svg" width="200" height="200" viewBox="0 0 24 24"><path fill="currentColor" d="M15.23 13.5q-.212 0-.355-.144q-.144-.144-.144-.357t.144-.356t.356-.143h6q.212 0 .356.144t.144.357t-.144.356t-.356.143zM2 8.225q0-1.908 1.296-3.201T6.5 3.731q1.32 0 2.475.675T11 6.369q.87-1.288 2.025-1.963T15.5 3.73q1.813 0 3.172 1.261q1.359 1.262 1.359 3.171q0 .343-.068.711t-.188.73q-.05.254-.237.347t-.372.056t-.312-.196t-.077-.419q.102-.333.153-.638q.05-.306.05-.59q0-1.662-1.14-2.548T15.5 4.73q-1.246 0-2.244.746t-1.718 1.811q-.09.15-.235.214t-.307.065q-.163 0-.305-.074t-.23-.205q-.719-1.065-1.717-1.811T6.5 4.73q-1.463 0-2.482.993T3 8.225q0 .842.35 1.709t1.25 2.002t2.45 2.661T11 18.3l2.475-2.277q.165-.14.365-.127t.337.158q.165.165.153.372t-.184.347l-2.417 2.225q-.16.154-.351.212t-.383.057t-.378-.057t-.346-.218q-2.125-1.942-3.69-3.448t-2.577-2.756t-1.509-2.351T2 8.225"/></svg>