<svg xmlns="http://www.w3.org/2000/svg" width="200" height="200" viewBox="0 0 24 24"><path fill="currentColor" d="M12 17.27q-2.212 0-3.74-1.53Q6.73 14.212 6.73 12t1.53-3.75Q9.788 6.712 12 6.712t3.75 1.538q1.538 1.538 1.538 3.75t-1.538 3.74q-1.538 1.53-3.75 1.53Zm-.442-1.018V13.05l-2.25 2.25q.484.398 1.049.647q.564.25 1.2.305Zm.884 0q.612-.056 1.189-.295t1.061-.638l-2.25-2.25v3.183Zm2.877-1.56q.398-.484.638-1.061t.295-1.189h-3.183l2.25 2.25Zm-2.25-3.134h3.183q-.056-.612-.295-1.189t-.638-1.061l-2.25 2.25Zm-.627-.608l2.25-2.25q-.484-.398-1.049-.647q-.564-.25-1.2-.305v3.202ZM12 12.673q.29 0 .482-.191q.191-.192.191-.482t-.191-.482q-.192-.191-.482-.191t-.482.191q-.191.192-.191.482t.191.482q.192.191.482.191Zm-.442-1.742V7.748q-.612.056-1.189.295t-1.061.638l2.25 2.25Zm-3.81.627h3.183l-2.25-2.25q-.398.484-.638 1.061t-.295 1.189Zm.933 3.134l2.25-2.25H7.729q.075.612.324 1.189q.249.577.628 1.061ZM4 20V4h16v16H4Zm1-1h14V5H5v14Zm0 0V5v14Z"/></svg>