<svg xmlns="http://www.w3.org/2000/svg" width="200" height="200" viewBox="0 0 24 24"><path fill="currentColor" d="M11.558 16.72v-3.67l-2.59 2.59q.557.466 1.216.739q.658.273 1.374.34Zm.884-.007q.716-.061 1.365-.334t1.206-.739l-2.57-2.57v3.643Zm3.198-1.7q.466-.557.717-1.216q.25-.659.337-1.355H13.07l2.571 2.571Zm-2.57-3.455h3.643q-.067-.71-.337-1.359t-.736-1.207l-2.57 2.566Zm-.628-.608l2.59-2.59q-.557-.466-1.216-.748q-.658-.283-1.374-.35v3.688ZM12 12.673q.29 0 .482-.191q.191-.192.191-.482t-.191-.482q-.192-.191-.482-.191t-.482.191q-.191.192-.191.482t.191.482q.192.191.482.191Zm-.442-1.742V7.287q-.716.061-1.365.334t-1.206.739l2.57 2.57Zm-4.29.627h3.663L8.34 8.973q-.466.558-.74 1.214q-.272.655-.334 1.37Zm1.072 3.475l2.59-2.59H7.28q.068.715.332 1.373q.263.659.728 1.217ZM5.615 20q-.69 0-1.152-.462Q4 19.075 4 18.385V5.615q0-.69.463-1.152Q4.925 4 5.615 4h12.77q.69 0 1.152.463q.463.462.463 1.152v12.77q0 .69-.462 1.152q-.463.463-1.153.463H5.615Z"/></svg>