<svg xmlns="http://www.w3.org/2000/svg" width="200" height="200" viewBox="0 0 24 24"><path fill="currentColor" d="m19.479 20.9l-1.883-1.877q-1.167.935-2.583 1.456Q13.596 21 12 21q-1.868 0-3.51-.709t-2.857-1.923q-1.215-1.215-1.924-2.858Q3 13.868 3 12q0-1.596.521-3.013t1.456-2.583L3.094 4.52q-.146-.146-.156-.347q-.01-.2.156-.366q.166-.166.357-.166t.357.166l16.384 16.384q.146.146.156.345q.01.198-.156.363q-.165.165-.356.165t-.357-.165ZM12 20q1.383 0 2.616-.448t2.26-1.248L5.697 7.124q-.8 1.026-1.248 2.26Q4 10.617 4 12q0 3.325 2.337 5.663T12 20Zm7.62-3.192l-.74-.739q.55-.911.835-1.933Q20 13.113 20 12q0-3.325-2.337-5.663T12 4q-1.113 0-2.136.285q-1.022.284-1.933.834l-.739-.738q1.066-.67 2.274-1.025Q10.673 3 12 3q1.868 0 3.51.709t2.857 1.924q1.215 1.215 1.924 2.857Q21 10.133 21 12q0 1.327-.356 2.534q-.355 1.208-1.025 2.274Zm-6.214-6.214Zm-2.12 2.12Z"/></svg>