<svg xmlns="http://www.w3.org/2000/svg" width="200" height="200" viewBox="0 0 24 24"><path fill="currentColor" d="M20 17.15L6.85 4h11.535q.69 0 1.152.463q.463.462.463 1.152V17.15ZM5.615 20q-.69 0-1.152-.462Q4 19.075 4 18.385V5.415L2.446 3.862q-.14-.14-.15-.345q-.01-.204.15-.363t.354-.16q.194 0 .354.16l17.692 17.692q.14.14.15.344q.01.204-.15.364t-.354.16q-.194 0-.354-.16L18.585 20H5.615Zm9.464-3.5l-2.35-2.35l-1.517 1.888l-1.427-1.725q-.131-.142-.314-.142t-.313.162l-1.154 1.52q-.162.212-.05.43q.111.217.354.217h6.77Z"/></svg>