<svg xmlns="http://www.w3.org/2000/svg" width="200" height="200" viewBox="0 0 24 24"><path fill="currentColor" d="m20 17.15l-1-1V5.615q0-.23-.192-.423Q18.615 5 18.385 5H7.85l-1-1h11.535q.69 0 1.152.463q.463.462.463 1.152V17.15ZM5.615 20q-.69 0-1.152-.462Q4 19.075 4 18.385V5.415L2.446 3.862q-.14-.14-.15-.345q-.01-.204.15-.363t.354-.16q.194 0 .354.16l17.692 17.692q.14.14.15.344q.01.204-.15.364t-.354.16q-.194 0-.354-.16L18.585 20H5.615Zm9.464-3.5H8.308q-.243 0-.354-.217q-.112-.218.05-.43l1.154-1.52q.13-.162.313-.162t.314.142l1.427 1.725l1.517-1.888L5 6.421v11.964q0 .23.192.423q.193.192.423.192H17.58l-2.5-2.5Zm-1.654-5.925Zm-2.133 2.133Z"/></svg>