<svg xmlns="http://www.w3.org/2000/svg" width="200" height="200" viewBox="0 0 24 24"><path fill="currentColor" d="m7.23 22.5l2.941-15.146q.092-.494.48-.77q.39-.276.814-.276q.444 0 .82.192q.376.192.607.577l1 1.6q.489.783 1.442 1.486q.953.702 2.281 1.093V9.308h.885V22.5h-.885V12.256q-1.315-.277-2.542-1.04q-1.227-.764-2.246-2.004l-.85 4.269l2.138 2.038V22.5h-1v-5.904l-2.984-2.308L8.31 22.5H7.23Zm.003-9.971l-2.12-.402l1.152-5.952l2.125.485l-1.157 5.869Zm5.882-7.337q-.698 0-1.195-.497q-.497-.497-.497-1.195t.497-1.195q.497-.497 1.195-.497q.698 0 1.196.497q.497.497.497 1.195t-.497 1.195q-.498.497-1.196.497Z"/></svg>