<svg xmlns="http://www.w3.org/2000/svg" width="200" height="200" viewBox="0 0 24 24"><path fill="currentColor" d="M3.308 14.692V9.308h.884v2h2.616v-2h.884v5.384h-.884v-2.5H4.192v2.5h-.884Zm6.923 0V9.308h.884v4.5h2.731v.884h-3.615Zm6.346 0q-.327 0-.548-.22q-.221-.222-.221-.549V13h.884v.808h2.616v-1.5h-2.885q-.261 0-.438-.177t-.177-.439v-1.615q0-.327.22-.548q.222-.221.549-.221h2.846q.327 0 .548.22q.221.222.221.549V11h-.884v-.808h-2.616v1.5h2.885q.261 0 .438.177t.177.439v1.615q0 .327-.22.548q-.222.221-.549.221h-2.846Z"/></svg>