<svg xmlns="http://www.w3.org/2000/svg" width="200" height="200" viewBox="0 0 24 24"><path fill="currentColor" d="M11.997 20.248q-.159 0-.295-.053q-.137-.053-.267-.183l-.956-.956q-.217-.218-.348-.518q-.131-.3-.131-.632V5.892L8.548 3.825q-.177-.27-.037-.547Q8.651 3 8.97 3h6.062q.318 0 .458.278t-.037.547L14 5.892v12.014q0 .331-.13.632q-.132.3-.349.518l-.956.956q-.13.13-.27.183q-.139.053-.298.053ZM11 10.5h2V5.6L14 4h-4l1 1.6v4.9Zm2 1h-2v3h2v-3Zm0 6.577V15.5h-2v2.577l1 1l1-1ZM12 10.5Zm0 4Zm0-4Zm0 1Zm0 4Z"/></svg>