<svg xmlns="http://www.w3.org/2000/svg" width="200" height="200" viewBox="0 0 24 24"><path fill="currentColor" d="M9.96 19.173q-1.393 0-2.31-1.035q-.915-1.036-.723-2.413L8.09 7.002q.026-.124.101-.22q.076-.095.197-.157l6.708-2.67q.22-.084.423.034q.204.119.235.369l1.37 11.417q.147 1.358-.742 2.378q-.89 1.02-2.267 1.02H9.96ZM8.398 12.25h7.29l-.861-7.137l-5.754 2.335l-.675 4.802Zm1.562 5.923h4.155q.925 0 1.53-.685q.603-.684.484-1.603l-.3-2.635H8.277l-.35 2.61q-.125.915.485 1.614q.61.7 1.548.7Zm2.09-4.923v-1v1Zm.006-1Zm-.031 1Z"/></svg>