<svg xmlns="http://www.w3.org/2000/svg" width="200" height="200" viewBox="0 0 24 24"><path fill="currentColor" d="M16.006 21.965q-.443.454-1 .745q-.556.29-1.189.29q-1.168 0-1.99-.823t-.821-2q0-.633.287-1.187q.288-.553.747-.99q-.46-.456-.747-1.035q-.287-.578-.287-1.23q0-1.158.821-1.947q.822-.788 1.99-.788q.633 0 1.202.268q.57.269.987.728q.417-.46.967-.728q.55-.268 1.183-.268q1.184 0 2.017.795t.833 1.967q0 .632-.297 1.192q-.297.56-.776.996q.479.442.776 1.005q.297.562.297 1.195q0 1.184-.824 2.017q-.823.833-2 .833q-.632 0-1.195-.28q-.564-.282-.981-.755Zm3.35-3.19l-.9-.8l1-.85q.275-.225.412-.563t.138-.712q0-.775-.538-1.313T18.156 14q-.398 0-.734.138q-.336.137-.56.412l-.87 1l-.846-1q-.224-.275-.56-.413q-.336-.137-.74-.137q-.756 0-1.298.55t-.542 1.35q0 .356.162.703q.163.347.482.622l.9.75l-1 .85q-.27.225-.407.56q-.137.334-.137.715q0 .8.54 1.35t1.296.55q.377 0 .742-.175q.364-.175.666-.525l.745-.85l.87 1q.223.275.558.413q.335.137.733.137q.775 0 1.312-.55t.538-1.35q0-.35-.163-.7t-.487-.625Zm-3.35.317q.46 0 .776-.316t.316-.776t-.316-.776q-.317-.316-.776-.316q-.46 0-.776.316q-.317.316-.317.776t.317.776q.316.316.776.316ZM6.616 19q-.667 0-1.141-.475Q5 18.051 5 17.385V9.95h-.765q-.43 0-.569-.4q-.14-.402.19-.675l7.125-5.773q.447-.373 1.016-.373q.568 0 1.022.373l7.125 5.773q.33.273.19.674t-.569.401H19V11h-1V8.45l-5.615-4.573q-.173-.154-.385-.154q-.212 0-.385.154L6 8.457v8.928q0 .269.173.442t.442.173H9v1H6.615Zm9.39-1Z"/></svg>