<svg xmlns="http://www.w3.org/2000/svg" width="200" height="200" viewBox="0 0 24 24"><path fill="currentColor" d="M16.006 21.965q-.443.454-1 .745q-.556.29-1.189.29q-1.177 0-1.994-.82t-.817-2.003q0-.633.287-1.187q.288-.553.747-.99q-.46-.456-.747-1.035q-.287-.578-.287-1.23q0-1.158.817-1.947Q12.64 13 13.817 13q.633 0 1.202.268q.57.269.987.728q.417-.46.967-.728q.55-.268 1.183-.268q1.177 0 2.013.795q.837.795.837 1.967q0 .632-.297 1.192q-.297.56-.776.996q.479.442.776 1.005q.297.562.297 1.195q0 1.177-.82 2.013q-.82.837-2.003.837q-.633 0-1.196-.28q-.564-.282-.981-.755Zm0-2.873q.46 0 .776-.316t.316-.776t-.316-.776q-.317-.316-.776-.316q-.46 0-.776.316q-.317.316-.317.776t.317.776q.316.316.776.316ZM6.616 19q-.672 0-1.144-.472Q5 18.056 5 17.385V9.95h-.765q-.43 0-.569-.4q-.14-.402.19-.675l7.125-5.773q.454-.373 1.019-.373t1.02.373l7.124 5.773q.33.273.19.674t-.569.401H19V11h-1V8.45l-5.615-4.573q-.173-.154-.385-.154q-.212 0-.385.154L6 8.45v8.935q0 .269.173.442t.442.173H9v1H6.615Z"/></svg>