<svg xmlns="http://www.w3.org/2000/svg" width="200" height="200" viewBox="0 0 24 24"><path fill="currentColor" d="M17.23 8.77h1.54V7.23h-1.54v1.54Zm0 4h1.54v-1.54h-1.54v1.54Zm0 4h1.54v-1.54h-1.54v1.54ZM20.386 20H16.5q-.213 0-.356-.144Q16 19.712 16 19.5t.144-.356q.144-.143.356-.143h3.885q.269 0 .442-.173t.173-.442V5.615q0-.269-.173-.442T20.385 5H12q-.27 0-.442.173t-.173.442v1.573l-1-.719v-.865q0-.658.473-1.131T11.988 4h8.397q.666 0 1.14.475q.475.474.475 1.14v12.77q0 .666-.475 1.14q-.474.475-1.14.475Zm-16.77 0q-.666 0-1.14-.475Q2 19.051 2 18.385v-6.052q0-.385.177-.743q.177-.357.5-.575l4.385-3.113q.428-.298.938-.298t.938.298l4.385 3.113q.323.218.5.575q.177.358.177.743v6.052q0 .666-.475 1.14q-.474.475-1.14.475h-2.308q-.343 0-.576-.232q-.232-.232-.232-.576V15.5H6.731v3.692q0 .344-.232.576q-.233.232-.576.232H3.615ZM3 12.327v6.058q0 .269.173.442t.442.173h2.116v-3.692q0-.344.232-.576q.232-.232.575-.232h2.924q.343 0 .575.232q.232.232.232.576V19h2.116q.269 0 .442-.173t.173-.442v-6.058q0-.154-.067-.289q-.068-.134-.202-.23l-4.385-3.07Q8.192 8.623 8 8.623t-.346.115l-4.385 3.07q-.134.096-.202.23q-.067.135-.067.289Zm12.329-2.312ZM10.269 19v-4.5H5.731V19v-4.5h4.538V19Z"/></svg>