<svg xmlns="http://www.w3.org/2000/svg" width="200" height="200" viewBox="0 0 24 24"><path fill="currentColor" d="M17.23 8.77h1.54V7.23h-1.54v1.54Zm0 4h1.54v-1.54h-1.54v1.54Zm0 4h1.54v-1.54h-1.54v1.54ZM2.818 20q-.357 0-.587-.232q-.23-.232-.23-.576v-6.86q0-.384.177-.742q.177-.357.5-.575l4.385-3.113q.217-.142.453-.22q.235-.078.481-.078t.486.078t.456.22l4.385 3.113q.323.218.5.575q.177.358.177.743v6.86q0 .343-.23.575q-.23.232-.587.232h-2.52q-.357 0-.587-.232q-.23-.232-.23-.576v-3.461q0-.343-.232-.576q-.232-.232-.576-.232H6.962q-.344 0-.576.232q-.232.233-.232.576v3.461q0 .344-.23.576q-.23.232-.587.232h-2.52Zm17.568 0h-3.577q-.344 0-.576-.232q-.232-.232-.232-.576v-7.86q0-.384-.174-.742q-.174-.357-.495-.576l-4.946-3.545v-.865q0-.658.473-1.131T11.988 4h8.397q.666 0 1.14.475q.475.474.475 1.14v12.77q0 .666-.475 1.14q-.474.475-1.14.475Z"/></svg>