<svg xmlns="http://www.w3.org/2000/svg" width="200" height="200" viewBox="0 0 24 24"><path fill="currentColor" d="M12 13.73ZM3 19v-8.923q0-.69.463-1.153t1.152-.462H7.5V6.615q0-.69.463-1.152Q8.425 5 9.114 5h5.77q.69 0 1.153.463q.462.462.462 1.152v1.847h2.885q.69 0 1.152.462q.463.463.463 1.153V19H3Zm4.385-4.77v1h-1v-1H4V18h16v-3.77h-2.385v1h-1v-1h-9.23ZM4 10.078v3.154h2.385v-1h1v1h9.23v-1h1v1H20v-3.154q0-.23-.192-.423q-.193-.192-.423-.192H4.615q-.23 0-.423.192Q4 9.846 4 10.077Zm4.5-1.615h7V6.615q0-.23-.192-.423Q15.115 6 14.885 6h-5.77q-.23 0-.423.192q-.192.193-.192.423v1.847Z"/></svg>