<svg xmlns="http://www.w3.org/2000/svg" width="200" height="200" viewBox="0 0 24 24"><path fill="currentColor" d="M16.006 21.965q-.443.454-1 .745q-.556.29-1.189.29q-1.177 0-1.994-.82t-.817-2.003q0-.633.287-1.187q.288-.553.747-.99q-.46-.456-.747-1.035q-.287-.578-.287-1.23q0-1.158.817-1.947Q12.64 13 13.817 13q.633 0 1.202.268q.57.269.987.728q.417-.46.967-.728q.55-.268 1.183-.268q1.177 0 2.013.795q.837.795.837 1.967q0 .632-.297 1.192q-.297.56-.776.996q.479.442.776 1.005q.297.562.297 1.195q0 1.177-.82 2.013q-.82.837-2.003.837q-.633 0-1.196-.28q-.564-.282-.981-.755Zm0-2.873q.46 0 .776-.316t.316-.776t-.316-.776q-.317-.316-.776-.316q-.46 0-.776.316q-.317.316-.317.776t.317.776q.316.316.776.316ZM5 19V9.95H2.538L12 2.27l9.462 7.68H19V11h-1V8.45l-6-4.9l-6 4.9V18h3v1H5Z"/></svg>