<svg xmlns="http://www.w3.org/2000/svg" width="200" height="200" viewBox="0 0 24 24"><path fill="currentColor" d="M2.5 18q-.213 0-.357-.144Q2 17.713 2 17.5v-12q0-.213.144-.356Q2.288 5 2.5 5t.356.144Q3 5.288 3 5.5V14h8.5V8q0-.402.299-.701q.3-.299.701-.299H19q1.238 0 2.119.881T22 10v7.5q0 .213-.144.356q-.144.144-.357.144q-.212 0-.356-.144Q21 17.713 21 17.5V15H3v2.5q0 .213-.144.356T2.5 18Zm4.498-5.885q-.883 0-1.498-.617q-.615-.618-.615-1.5q0-.883.617-1.498q.618-.615 1.5-.615q.883 0 1.498.617q.615.618.615 1.5q0 .883-.617 1.498q-.618.615-1.5.615ZM12.5 14H21v-4q0-.825-.588-1.413T19 8h-6.5v6ZM7 11.115q.463 0 .79-.326q.325-.326.325-.789t-.326-.79Q7.463 8.886 7 8.886t-.79.326q-.325.326-.325.789t.326.79q.326.325.789.325ZM7 10Zm5.5-2v6v-6Z"/></svg>