<svg xmlns="http://www.w3.org/2000/svg" width="200" height="200" viewBox="0 0 24 24"><path fill="currentColor" d="M10.77 19H6.807q-.344 0-.576-.232Q6 18.536 6 18.192V11h-.392q-.273 0-.36-.248q-.086-.248.114-.413l6.098-5.508q.22-.218.542-.218q.321 0 .538.218l3.306 3V5.942q0-.161.121-.282q.121-.122.283-.122h.808q.161 0 .282.122t.122.282v3.32l1.178 1.075q.198.186.112.425q-.087.238-.36.238H18v7.192q0 .344-.232.576q-.232.232-.576.232h-3.961v-5.23h-2.462V19ZM7 18h2.77v-5.23h4.46V18H17v-7.8l-5-4.5l-5 4.5V18Zm2.77-5.23h4.46h-4.46Zm.422-2.764h3.616q0-.704-.543-1.159q-.542-.455-1.265-.455q-.723 0-1.265.453q-.543.453-.543 1.16Z"/></svg>