<svg xmlns="http://www.w3.org/2000/svg" width="200" height="200" viewBox="0 0 24 24"><path fill="currentColor" d="M6 18.5v-7.404l-.72.289q-.272.153-.474-.114q-.202-.267.073-.511l6.58-5.93q.218-.217.541-.217q.323 0 .54.218l6.581 5.929q.275.244.073.511t-.475.114L18 11.096V18.5q0 .213-.143.357q-.144.143-.357.143t-.357-.143Q17 18.713 17 18.5v-1H7v1q0 .213-.143.357Q6.713 19 6.5 19t-.357-.143Q6 18.713 6 18.5Zm2.892-10h6.216L12 5.7L8.892 8.5ZM7 12.5h10v-2.3l-.783-.7H7.783L7 10.2v2.3Zm0 4h10v-3H7v3Z"/></svg>