<svg xmlns="http://www.w3.org/2000/svg" width="200" height="200" viewBox="0 0 24 24"><path fill="currentColor" d="M10.538 19h-3.73q-.344 0-.576-.232Q6 18.536 6 18.192V11h-.392q-.273 0-.36-.248q-.086-.248.114-.413l6.098-5.508q.22-.218.542-.218q.321 0 .538.218l3.306 3V5.942q0-.161.121-.282q.121-.122.283-.122h.808q.161 0 .282.122t.122.282v3.32l1.178 1.075q.198.186.112.425q-.087.238-.36.238H18v7.192q0 .344-.232.576q-.232.232-.576.232h-3.73v-4.423q0-.343-.233-.576q-.232-.232-.575-.232h-1.308q-.343 0-.575.232q-.233.233-.233.576V19Zm-.346-8.994h3.616q0-.704-.543-1.159q-.542-.455-1.265-.455q-.723 0-1.265.453q-.543.453-.543 1.16Z"/></svg>