<svg xmlns="http://www.w3.org/2000/svg" width="200" height="200" viewBox="0 0 24 24"><path fill="currentColor" d="M5.385 21.23q-.69 0-1.153-.462t-.463-1.153v-2.588q0-.292.096-.575t.308-.5l2.454-2.77q.14-.17.357-.173t.381.162q.14.14.147.329t-.135.354L4.81 16.769h14.38l-2.517-2.865q-.14-.166-.135-.354t.147-.329q.165-.165.381-.162t.357.174l2.404 2.719q.211.217.308.5t.096.575v2.588q0 .69-.463 1.153t-1.153.463zm0-1h13.23q.25 0 .433-.182t.183-.433V17.77H4.769v1.846q0 .25.183.433t.433.183m5.51-6.318l-2.987-3.025q-.48-.478-.467-1.143t.492-1.143l4.38-4.38q.48-.48 1.137-.485t1.137.473l3.005 3.005q.48.48.485 1.131t-.473 1.13l-4.442 4.443q-.48.48-1.134.476q-.655-.003-1.134-.482m5.971-5.119q.154-.154.154-.442t-.154-.442l-2.967-2.968q-.154-.154-.442-.154t-.443.154L8.621 9.335q-.154.153-.154.442q0 .288.154.442l2.967 2.968q.154.153.443.153q.288 0 .442-.153zM4.77 20.231v-2.462z"/></svg>