<svg xmlns="http://www.w3.org/2000/svg" width="200" height="200" viewBox="0 0 24 24"><path fill="currentColor" d="M5.385 21.23q-.69 0-1.153-.462t-.463-1.153v-2.588q0-.292.106-.575t.317-.5l1.743-1.942q.14-.172.356-.174t.382.162q.14.14.146.329t-.134.354L4.81 16.769h14.38l-1.863-2.077q-.14-.165-.125-.363t.156-.339q.165-.165.372-.153t.347.184l1.73 1.93q.212.218.318.5t.106.576v2.588q0 .69-.463 1.153t-1.153.463zm5.503-7.31l-2.975-3.026q-.478-.479-.469-1.146t.489-1.146l4.38-4.38q.48-.48 1.137-.48t1.137.48l3.005 2.993q.48.48.482 1.134q.003.655-.476 1.134l-4.442 4.442q-.48.479-1.134.476q-.655-.003-1.134-.482m5.977-5.13q.154-.154.154-.443t-.154-.442l-2.973-2.962q-.154-.154-.442-.154t-.442.154L8.615 9.335q-.153.153-.153.442q0 .288.153.442l2.973 2.962q.154.154.443.154q.288 0 .442-.154z"/></svg>