<svg xmlns="http://www.w3.org/2000/svg" width="200" height="200" viewBox="0 0 24 24"><path fill="currentColor" d="M12.35 19.865q-.654 0-1.267-.249q-.614-.249-1.112-.716l-6.775-6.338q-.217-.212-.255-.526t.163-.557l3.99-5.423q.256-.354.675-.424t.793.147q1.626 1.09 2.873 2.615q1.246 1.525 1.748 3.102q1.034-1.258 2.103-1.9t3.249-1.22q.54-.141 1.006-.285t.89-.285q.379-.143.714.075t.336.62v5.357q0 .423-.202.79t-.55.583l-6.498 4.086q-.418.262-.888.405t-.993.143M9.808 15.5q.31 0 .54-.23q.229-.23.229-.54v-.09q0-.04-.025-.09q.058.038.115.048t.116.01q.31 0 .542-.23t.233-.54t-.23-.539t-.54-.23q-.2 0-.358.097t-.265.242l-2.594-2.92q.183-.086.306-.264T8 9.827q0-.31-.23-.54t-.54-.23t-.539.23t-.23.54q0 .05.01.08t.016.081q-.058-.038-.116-.048t-.115-.01q-.31 0-.543.23q-.232.23-.232.54t.23.54t.539.23q.206 0 .374-.098t.274-.266l2.614 2.938q-.208.068-.34.258t-.134.429q0 .31.23.54q.23.229.54.229"/></svg>