<svg xmlns="http://www.w3.org/2000/svg" width="200" height="200" viewBox="0 0 24 24"><path fill="currentColor" d="M12 17.096q2.135 0 3.615-1.48q1.481-1.481 1.481-3.616t-1.48-3.615Q14.134 6.904 12 6.904t-3.615 1.48Q6.904 9.866 6.904 12t1.48 3.615Q9.866 17.096 12 17.096Zm0-.98q-.84 0-1.583-.33q-.742-.33-1.35-.901h5.866q-.608.57-1.35.9q-.743.33-1.583.33Zm-3.527-2q-.223-.404-.362-.837t-.196-.894h8.17q-.05.457-.197.891q-.146.434-.38.84H8.473Zm-.558-2.5q.05-.458.197-.892q.146-.434.38-.84h7.035q.223.404.362.837t.196.894h-8.17Zm1.152-2.5q.608-.572 1.35-.902q.743-.33 1.583-.33t1.583.33q.742.33 1.35.901H9.067ZM4 20V4h16v16H4Zm1-1h14V5H5v14Zm0 0V5v14Z"/></svg>