<svg xmlns="http://www.w3.org/2000/svg" width="200" height="200" viewBox="0 0 24 24"><path fill="currentColor" d="M14.154 12.462h4.077v-1h-4.077zm0-2.77h4.077v-1h-4.077zm-8.385 5.616h6.616v-.166q0-.875-.88-1.354t-2.428-.48t-2.429.48t-.879 1.354zm3.308-3.616q.633 0 1.066-.433t.434-1.067t-.434-1.066t-1.066-.434t-1.066.434t-.434 1.066t.434 1.067t1.066.433M4.615 19q-.69 0-1.152-.462T3 17.385V6.615q0-.69.463-1.152T4.615 5h14.77q.69 0 1.152.463T21 6.615v10.77q0 .69-.462 1.152T19.385 19zm0-1h14.77q.23 0 .423-.192t.192-.423V6.615q0-.23-.192-.423T19.385 6H4.615q-.23 0-.423.192T4 6.615v10.77q0 .23.192.423t.423.192M4 18V6z"/></svg>