<svg xmlns="http://www.w3.org/2000/svg" width="200" height="200" viewBox="0 0 24 24"><path fill="currentColor" d="M17.73 12.462q.214 0 .358-.144t.143-.356t-.144-.357t-.356-.143h-3.077q-.214 0-.357.143t-.143.357t.143.356t.357.144zm0-2.77q.214 0 .358-.143t.143-.357t-.144-.356t-.356-.144h-3.077q-.214 0-.357.144t-.143.356t.143.357t.357.143zm-8.653 3.616q-.823 0-1.394.114q-.571.115-1.025.368q-.39.21-.589.46q-.198.248-.198.53q0 .224.177.376t.444.152h5.17q.267 0 .444-.165t.177-.393q0-.252-.189-.488t-.598-.472q-.454-.253-1.025-.368t-1.394-.114m0-1.616q.633 0 1.066-.433t.434-1.067t-.434-1.066t-1.066-.434t-1.066.434t-.434 1.066t.434 1.067t1.066.433M4.615 19q-.69 0-1.152-.462T3 17.385V6.615q0-.69.463-1.152T4.615 5h14.77q.69 0 1.152.463T21 6.615v10.77q0 .69-.462 1.152T19.385 19zm0-1h14.77q.23 0 .423-.192t.192-.423V6.615q0-.23-.192-.423T19.385 6H4.615q-.23 0-.423.192T4 6.615v10.77q0 .23.192.423t.423.192M4 18V6z"/></svg>