<svg xmlns="http://www.w3.org/2000/svg" width="200" height="200" viewBox="0 0 24 24"><path fill="currentColor" d="M15.848 17.154q.546 0 .926-.382t.38-.928q0-.546-.382-.926t-.928-.38q-.546 0-.926.383q-.38.382-.38.927q0 .546.383.926q.382.38.927.38Zm-3.846-3.846q.546 0 .926-.382t.38-.928q0-.546-.382-.926t-.928-.38q-.546 0-.926.382t-.38.928q0 .546.382.926t.928.38ZM8.156 9.462q.546 0 .926-.383q.38-.382.38-.927q0-.546-.383-.926q-.382-.38-.927-.38q-.546 0-.926.382t-.38.928q0 .546.382.926t.928.38ZM4 20V4h16v16H4Zm1-1h14V5H5v14Zm0 0V5v14Z"/></svg>