<svg xmlns="http://www.w3.org/2000/svg" width="200" height="200" viewBox="0 0 24 24"><path fill="currentColor" d="M4.615 19q-.67 0-1.143-.472Q3 18.056 3 17.385V6.615q0-.67.472-1.143Q3.944 5 4.615 5H5v1.427L2.235 3.662q-.147-.147-.153-.348q-.007-.2.158-.366t.357-.165q.191 0 .357.165l18.51 18.515q.146.147.155.345q.01.198-.156.363q-.165.166-.356.166t-.357-.166L17.573 19H4.615Zm0-1h11.958l-10-10H4v9.385q0 .269.173.442t.442.173Zm16.237.04L20 17.188V8h-9.188l-3-3h11.573q.67 0 1.143.472q.472.472.472 1.143v10.77q0 .173-.04.343q-.04.17-.108.312Zm-3.16-3.16l-.884-.884v-2.804h-2.804l-.885-.884h3.766q.348 0 .577.23q.23.23.23.577v3.766Z"/></svg>