<svg xmlns="http://www.w3.org/2000/svg" width="200" height="200" viewBox="0 0 24 24"><path fill="currentColor" d="M6.615 19q-.666 0-1.14-.475Q5 18.051 5 17.385V9.452l-2 1.486q-.171.116-.363.095t-.325-.202q-.135-.168-.111-.356t.195-.323l8.629-6.439q.217-.161.464-.232q.246-.071.503-.071t.51.07t.473.233l8.648 6.433q.171.135.195.323t-.11.366t-.323.195t-.366-.097l-8.654-6.414q-.153-.115-.365-.115t-.365.115L6 8.715v8.67q0 .269.173.442t.442.173H8.18q.215 0 .355.144t.14.357t-.145.356t-.356.143zm8.019 1.652q-.159 0-.296-.046t-.267-.177l-2.613-2.614q-.146-.148-.146-.345t.146-.362t.354-.156t.353.156l2.472 2.465l5.315-5.296q.146-.146.347-.14t.347.149t.146.347t-.146.357l-5.444 5.439q-.13.13-.27.177t-.298.046"/></svg>