<svg xmlns="http://www.w3.org/2000/svg" width="200" height="200" viewBox="0 0 24 24"><path fill="currentColor" d="m14.637 19.573l5.315-5.296q.146-.146.347-.143t.347.149t.146.354t-.146.353l-5.444 5.439q-.13.13-.267.177t-.298.046t-.299-.046t-.267-.177l-2.613-2.614q-.146-.146-.146-.344t.146-.363t.354-.156t.353.156zM6.615 19q-.67 0-1.143-.472Q5 18.056 5 17.385V9.452l-2 1.486q-.171.116-.363.095t-.325-.198q-.135-.172-.111-.36t.195-.323l8.629-6.439q.217-.161.463-.242t.512-.08q.248 0 .503.08t.472.242l8.648 6.433q.171.135.195.323t-.116.366q-.135.17-.32.195t-.363-.092l-.636-.461l-5.746 5.733l-.752-.772q-.856-.861-2.073-.851t-2.074.87q-.72.722-.811 1.724T9.347 19z"/></svg>