<svg xmlns="http://www.w3.org/2000/svg" width="200" height="200" viewBox="0 0 24 24"><path fill="currentColor" d="M17.327 16.865q0-.161-.112-.273q-.111-.111-.273-.111q-.161 0-.273.111q-.111.112-.111.273v2.5q0 .162.111.273q.112.112.273.112q.162 0 .273-.112q.112-.111.112-.273v-2.5Zm1.346 0v2.5q0 .162.112.273q.111.112.273.112q.161 0 .273-.112q.111-.111.111-.273v-2.5q0-.161-.111-.273q-.112-.111-.273-.111q-.162 0-.273.111q-.112.112-.112.273ZM7.27 8.731h9.462q.213 0 .356-.144t.144-.356q0-.214-.519-.357q-.518-.143-.616-.143H7.27q-.213 0-.356.143q-.144.143-.144.357q0 .213.144.357t.356.143ZM18 22.115q-1.671 0-2.836-1.164T14 18.115q0-1.67 1.164-2.835T18 14.115q1.671 0 2.836 1.165T22 18.115q0 1.672-1.164 2.836Q19.67 22.115 18 22.115ZM4 20.721V5.615q0-.67.472-1.143Q4.944 4 5.615 4h12.77q.67 0 1.143.472q.472.472.472 1.143v5.945q-.244-.09-.485-.154q-.24-.064-.515-.1v-5.69q0-.231-.192-.424Q18.615 5 18.385 5H5.615q-.23 0-.423.192Q5 5.385 5 5.615V19.05h6.344q.068.41.176.802q.109.392.303.748q-.029.006-.06-.009q-.032-.014-.055-.037l-.82-.57q-.111-.072-.234-.072t-.235.073l-.877.607q-.111.073-.234.073t-.235-.073l-.877-.607q-.111-.073-.234-.073q-.124 0-.235.073l-.877.607q-.112.073-.235.073t-.234-.073l-.877-.607q-.112-.073-.235-.073t-.234.073l-.781.607q-.058.039-.254.13Zm3.27-4.452h4.209q.056-.275.138-.515q.083-.24.193-.485H7.27q-.214 0-.357.144t-.144.356q0 .214.144.357q.143.143.356.143Zm0-3.769h6.81q.49-.387 1.05-.645q.56-.259 1.197-.355H7.269q-.213 0-.356.143q-.144.144-.144.357t.144.357q.143.143.356.143ZM5 19.05V5v14.05Z"/></svg>