<svg xmlns="http://www.w3.org/2000/svg" width="200" height="200" viewBox="0 0 24 24"><path fill="currentColor" d="m19.479 20.9l-4.756-4.75l-2.52 2.608q-.13.13-.279.186q-.149.056-.31.056H4.886q-.162 0-.301-.056q-.14-.056-.27-.186l-1.172-1.171q-.479-.48-.491-1.137q-.013-.658.466-1.162l5.277-5.465l-5.302-5.302q-.146-.146-.156-.347q-.01-.2.156-.366q.166-.166.357-.166t.357.166l16.384 16.384q.146.146.156.345q.01.198-.156.363q-.165.165-.356.165t-.357-.165ZM4.985 18h6.55l2.475-2.563l-4.925-4.925l-5.258 5.446q-.154.173-.154.452q0 .278.154.432L4.985 18Zm11.832-3.994l-.713-.714l2.838-2.9q.154-.154.154-.442t-.154-.442l-4.084-4.085q-.154-.154-.433-.154t-.433.173l-2.819 2.92l-.708-.708l2.808-2.92q.479-.503 1.134-.494q.655.01 1.133.489l4.09 4.09q.48.48.49 1.146q.009.668-.47 1.147l-2.833 2.894Zm-3.169-3.189Zm-2.088 2.145Z"/></svg>