<svg xmlns="http://www.w3.org/2000/svg" width="200" height="200" viewBox="0 0 24 24"><path fill="currentColor" d="M6.615 21q-.666 0-1.14-.475Q5 20.051 5 19.385v-2.077q0-.344.232-.576q.232-.232.576-.232h12.384q.344 0 .576.232q.232.232.232.576v2.077q0 .666-.475 1.14q-.474.475-1.14.475H6.615ZM14 4v3.2q0 .34.23.57q.23.23.57.23H18l-4-4Zm-9 .615q0-.666.475-1.14Q5.949 3 6.615 3h7.214q.331 0 .632.13q.3.132.518.349L18.52 7.02q.217.217.348.518q.131.3.131.632v2.521q0 .344-.232.576q-.232.232-.576.232H5.808q-.344 0-.576-.232Q5 11.036 5 10.692V4.615ZM9.692 14.5q-.212 0-.356-.144T9.192 14t.144-.356q.144-.143.356-.143h4.616q.212 0 .356.144t.144.357t-.144.356q-.144.143-.356.143H9.692Zm7.616 0q-.213 0-.357-.144q-.143-.144-.143-.357t.143-.356q.144-.143.357-.143h4.615q.213 0 .356.144q.144.144.144.357t-.144.356q-.143.143-.356.143h-4.615Zm-15.231 0q-.213 0-.356-.144q-.144-.144-.144-.357t.144-.356q.143-.143.356-.143h4.615q.213 0 .357.144q.143.144.143.357t-.143.356q-.144.143-.357.143H2.077Z"/></svg>