<svg xmlns="http://www.w3.org/2000/svg" width="200" height="200" viewBox="0 0 24 24"><path fill="currentColor" d="m2.77 10.423l4.268-7.442l4.27 7.442H2.769ZM7.057 20.52q-1.477 0-2.498-1.02q-1.022-1.022-1.022-2.49q0-1.492 1.022-2.51q1.02-1.018 2.498-1.018q1.477 0 2.498 1.02q1.02 1.022 1.02 2.499t-1.02 2.498q-1.02 1.021-2.497 1.021Zm0-1q1.055 0 1.787-.731q.732-.732.732-1.788t-.732-1.788q-.732-.731-1.787-.731q-1.056 0-1.788.732T4.538 17q0 1.056.732 1.788t1.788.731ZM4.496 9.423H9.6L7.038 5.01L4.496 9.423ZM13.52 20.52v-7.038h7.039v7.038H13.52Zm1-1h5.039v-5.038H14.52v5.038Zm2.52-9.096q-.926-.738-1.696-1.371q-.77-.633-1.326-1.229q-.555-.596-.863-1.185q-.308-.588-.308-1.232q0-.894.586-1.477q.585-.583 1.491-.583q.598 0 1.118.293q.52.294.997.882q.477-.57 1.017-.872q.54-.303 1.118-.303q.88 0 1.469.614t.589 1.503q0 .625-.308 1.204q-.308.58-.863 1.166q-.556.586-1.326 1.219q-.77.633-1.696 1.371Zm0-1.298q1.742-1.346 2.467-2.183q.725-.836.725-1.486q0-.48-.303-.794q-.303-.316-.763-.316q-.323 0-.63.195t-.848.738l-.649.636l-.648-.636q-.561-.562-.856-.747q-.296-.186-.622-.186q-.48 0-.773.287q-.293.286-.293.784q0 .689.725 1.525q.725.837 2.467 2.183Zm0-2.392Zm-9.981.47Zm0 9.797Zm9.98 0Z"/></svg>