<svg xmlns="http://www.w3.org/2000/svg" width="200" height="200" viewBox="0 0 24 24"><path fill="currentColor" d="M6.727 8.208q.13.13.283.13t.282-.13l1.05-1.05q.131-.124.131-.29q0-.164-.13-.295l-1.05-1.05q-.131-.13-.283-.13t-.283.13l-1.05 1.05q-.13.124-.13.289q0 .165.13.296l1.05 1.05ZM12 8.269Zm-7.385 5.5q-.69 0-1.153-.462Q3 12.844 3 12.154v-7.77q0-.69.463-1.152q.462-.463 1.152-.463h14.77q.69 0 1.152.463q.463.462.463 1.153v7.769q0 .69-.463 1.153q-.462.462-1.152.462h-3.072q.047-.25.062-.5t.004-.5h3.006q.23 0 .423-.192q.192-.192.192-.423v-7.77q0-.23-.192-.422q-.193-.193-.423-.193H4.615q-.23 0-.423.193Q4 4.154 4 4.385v7.769q0 .23.192.423q.193.192.423.192h3.006q-.011.25.004.5t.062.5H4.615Zm11.883-6.5q.415 0 .709-.29q.293-.292.293-.707q0-.416-.291-.71q-.291-.293-.707-.293q-.415 0-.709.291q-.293.291-.293.707t.291.709q.291.293.707.293Zm-9.69 13.962q-.344 0-.576-.232Q6 20.766 6 20.423v-.6q0-.592.324-1.099t.874-.747q1.148-.517 2.348-.786q1.2-.268 2.454-.268q1.254 0 2.454.268q1.2.269 2.348.786q.55.24.874.747q.324.507.324 1.1v.6q0 .342-.232.575q-.232.232-.576.232H6.808Zm.192-1h10v-.408q0-.3-.175-.55t-.45-.375q-1.05-.475-2.15-.725T12 17.923q-1.125 0-2.225.25t-2.15.725q-.275.125-.45.375t-.175.55v.408Zm5-4.693q-1.046 0-1.773-.726q-.727-.727-.727-1.774q0-1.046.727-1.773q.727-.727 1.773-.727q1.046 0 1.773.727q.727.727.727 1.773q0 1.047-.727 1.774q-.727.726-1.773.726Zm0-1q.625 0 1.063-.437t.437-1.063q0-.625-.438-1.062T12 11.538q-.625 0-1.063.438t-.437 1.062q0 .625.438 1.063t1.062.437Zm0-1.5Zm0 7.193Z"/></svg>