<svg xmlns="http://www.w3.org/2000/svg" width="200" height="200" viewBox="0 0 24 24"><path fill="currentColor" d="M20.502 16.23q-.415 0-.709-.29q-.293-.293-.293-.71v-2.5q0-.416.291-.708q.291-.291.707-.291q.415 0 .709.291q.293.292.293.709v2.5q0 .416-.291.708t-.707.292Zm-.387 3.655v-1.531q-1.236-.2-1.974-1.047q-.737-.847-.795-2.076h.77q0 .992.69 1.688q.692.696 1.694.696t1.693-.691q.692-.692.692-1.693h.769q-.058 1.229-.786 2.076t-1.983 1.045v1.533h-.77ZM8.654 11.346q-1.112-.038-1.921-.886q-.81-.848-.81-2.075q0-1.227.81-2.075q.81-.848 1.92-.887q.075 0 .147.012q.071.011.165.04q-.477.525-.72 1.247Q8 7.444 8 8.385q0 .94.235 1.643q.234.703.73 1.266q-.075.03-.152.04q-.078.012-.16.012Zm-6.73 7.27v-1.641q0-.523.28-1.017q.28-.495.858-.87q.45-.269 1.014-.487t1.178-.341q-.596.43-.925 1.12Q4 16.072 4 16.976v1.64H1.923ZM13 11.384q-1.238 0-2.119-.882T10 8.385q0-1.238.881-2.12q.881-.88 2.119-.88q1.238 0 2.119.88q.881.882.881 2.12q0 1.237-.881 2.118T13 11.385Zm0-1q.825 0 1.413-.588T15 8.385q0-.825-.588-1.413T13 6.385q-.825 0-1.413.587T11 8.385q0 .825.588 1.412t1.412.588Zm-7 8.23v-1.64q0-.62.358-1.162q.357-.542.973-.84q1.198-.592 2.685-.975T13 13.615q.646 0 1.366.1q.72.098 1.342.258q-.096.2-.153.466q-.057.267-.088.503q-.605-.173-1.243-.25q-.637-.077-1.224-.077q-1.588 0-2.918.383t-2.269.852q-.384.183-.599.488T7 16.974v.64h9.002q.163.304.367.545q.204.24.456.455H6Zm7-10.23Zm0 9.23Z"/></svg>