<svg xmlns="http://www.w3.org/2000/svg" width="200" height="200" viewBox="0 0 24 24"><path fill="currentColor" d="m5.723 13.615l5.97 3.443q.153.096.307.096t.308-.096l5.95-3.443l-5.758-3.328V13.5h-1v-3.213l-5.777 3.328ZM11.5 9.14V7.946q-.87-.171-1.435-.857Q9.5 6.402 9.5 5.5q0-1.046.727-1.773Q10.954 3 12 3q1.046 0 1.773.727q.727.727.727 1.773q0 .902-.565 1.589q-.566.686-1.435.857V9.14l6.692 3.852q.384.22.596.592q.212.371.212.812v1.208q0 .441-.212.812q-.212.371-.596.592l-6.384 3.679q-.385.217-.811.217t-.805-.217l-6.384-3.68q-.384-.22-.596-.59Q4 16.044 4 15.603v-1.208q0-.441.212-.812q.212-.371.596-.592L11.5 9.14Zm-.308 8.777L5 14.352v1.252q0 .154.077.298t.23.24l6.385 3.685q.154.096.308.096t.308-.096l6.384-3.685q.154-.096.231-.24t.077-.298v-1.252l-6.192 3.565q-.385.218-.811.218t-.805-.218ZM12 7q.625 0 1.063-.438T13.5 5.5q0-.625-.438-1.063T12 4q-.625 0-1.063.438T10.5 5.5q0 .625.438 1.063T12 7Zm-.115 12.923Z"/></svg>