<svg xmlns="http://www.w3.org/2000/svg" width="200" height="200" viewBox="0 0 24 24"><path fill="currentColor" d="M6.942 22.615v-4.5H5.885q-.84 0-1.42-.58q-.58-.579-.58-1.419q0-.84.58-1.42t1.42-.58h1.057V12.5H3.885v-4h3.057V6.885H5.885q-.84 0-1.42-.58t-.58-1.42q0-.839.58-1.42t1.42-.58h1.057v-1.5h.885v1.5h1.058q.84 0 1.42.58q.58.579.58 1.419q0 .84-.58 1.42t-1.42.58H7.827V8.5h3.058v4H7.827v1.615h1.058q.84 0 1.42.58t.58 1.42q0 .839-.58 1.42t-1.42.58H7.827v4.5h-.885Zm9.231 0v-4.5h-1.058q-.84 0-1.42-.58q-.58-.579-.58-1.419q0-.84.58-1.42t1.42-.58h1.058V12.5h-3.058v-4h3.058V6.885h-1.058q-.84 0-1.42-.58t-.58-1.42q0-.839.58-1.42t1.42-.58h1.058v-1.5h.885v1.5h1.057q.84 0 1.42.58q.58.579.58 1.419q0 .84-.58 1.42t-1.42.58h-1.057V8.5h3.057v4h-3.057v1.615h1.057q.84 0 1.42.58t.58 1.42q0 .839-.58 1.42t-1.42.58h-1.057v4.5h-.885ZM5.885 5.885h3q.411 0 .705-.295q.295-.294.295-.705q0-.412-.295-.706q-.294-.294-.705-.294h-3q-.412 0-.706.294t-.294.706q0 .411.294.705q.294.295.706.295Zm9.23 0h3q.412 0 .706-.295q.294-.294.294-.705q0-.412-.294-.706t-.706-.294h-3q-.411 0-.705.294q-.295.294-.295.706q0 .411.295.705q.294.295.705.295ZM4.885 11.5h5v-2h-5v2Zm9.23 0h5v-2h-5v2Zm-8.23 5.615h3q.411 0 .705-.294q.295-.294.295-.706q0-.411-.295-.705q-.294-.295-.705-.295h-3q-.412 0-.706.295q-.294.294-.294.705q0 .412.294.706t.706.294Zm9.23 0h3q.412 0 .706-.294t.294-.706q0-.411-.294-.705q-.294-.295-.706-.295h-3q-.411 0-.705.295q-.295.294-.295.705q0 .412.295.706q.294.294.705.294ZM4.885 5.885v-2v2Zm9.23 0v-2v2ZM4.885 11.5v-2v2Zm9.23 0v-2v2Zm-9.23 5.615v-2v2Zm9.23 0v-2v2Z"/></svg>