<svg xmlns="http://www.w3.org/2000/svg" width="200" height="200" viewBox="0 0 24 24"><path fill="currentColor" d="M14 5h-4v2.175L7.885 5.06q-.106-.106-.14-.198q-.033-.093-.033-.224q0-.244.157-.44T8.325 4H15.5q.213 0 .356.145t.144.36q0 .203-.16.317q-.161.115-.34.178H15v6q0 .213-.144.356q-.144.144-.357.144q-.212 0-.356-.144T14 11zm-2.5 15v-5H8.958q-.477 0-.763-.332t-.285-.728q0-.198.076-.387t.245-.36l.769-.77v-1.996L3.215 4.63q-.14-.14-.152-.342t.157-.37q.155-.156.35-.156t.353.16l15.379 15.379q.146.146.153.347t-.159.37q-.165.156-.354.159t-.354-.163L13.573 15H12.5v5q0 .213-.144.356q-.144.144-.357.144t-.356-.144T11.5 20m-2.65-6h3.762l-2.6-2.562L10 12.85zm1.162-2.562"/></svg>