<svg xmlns="http://www.w3.org/2000/svg" width="200" height="200" viewBox="0 0 24 24"><path fill="currentColor" d="m14.07 11.244l-6.182-6.18q-.11-.11-.143-.202t-.033-.224q0-.244.157-.44T8.325 4H15.5q.213 0 .356.145t.144.36q0 .203-.16.317q-.161.115-.34.178H15v5.865q0 .362-.334.502q-.333.14-.597-.123M11.5 20v-5H8.958q-.477 0-.763-.332t-.285-.728q0-.198.076-.387t.245-.36l.769-.77v-1.996L3.215 4.63q-.14-.14-.152-.342t.157-.37q.155-.156.35-.156t.353.16l15.379 15.379q.146.146.153.347t-.159.37q-.165.156-.354.159t-.354-.163L13.573 15H12.5v5q0 .213-.144.356q-.144.144-.357.144t-.356-.144T11.5 20"/></svg>