<svg xmlns="http://www.w3.org/2000/svg" width="200" height="200" viewBox="0 0 24 24"><path fill="currentColor" d="m9 20.5l-.5-.5v-5H4.423v-1L6 12.423V5H5V4h6.048q-.2.233-.37.473t-.31.527H7v7.85L5.85 14h7.133q.138.08.285.136t.309.077V15H9.5v5zM16 8q.625 0 1.063-.437T17.5 6.5t-.437-1.062T16 5t-1.062.438T14.5 6.5t.438 1.063T16 8m0 3q.75 0 1.4-.35t1.075-.975q-.575-.35-1.2-.513T16 9t-1.275.163t-1.2.512q.425.625 1.075.975T16 11m0 1q-1.671 0-2.836-1.164T12 8t1.164-2.836T16 4t2.836 1.164T20 8t-1.164 2.836T16 12"/></svg>