<svg xmlns="http://www.w3.org/2000/svg" width="200" height="200" viewBox="0 0 24 24"><path fill="currentColor" d="M16.37 21q-.35 0-.62-.27t-.27-.618v-2.8q0-.35.27-.6t.62-.25h.11v-1q0-.749.511-1.26q.51-.51 1.259-.51t1.259.51t.51 1.26v1h.112q.358 0 .613.25t.256.6v2.8q0 .35-.256.619t-.613.269zm.88-4.538h2v-1q0-.425-.288-.713t-.712-.287t-.712.287t-.288.713zM5.23 12.769h1.54v-1.538H5.23zm3 0h1.54v-1.538H8.23zm3 0h1.54v-1.538h-1.54zm3 0h1.54v-1.538h-1.54zm-9-3h1.54V8.231H5.23zm3 0h1.54V8.231H8.23zm3 0h1.54V8.231h-1.54zm3 0h1.54V8.231h-1.54zm3 0h1.54V8.231h-1.54zm-3.98 7.077V18H4.615q-.69 0-1.152-.462T3 16.385v-8.77q0-.69.463-1.152T4.615 6h14.77q.69 0 1.152.463T21 7.62v5.053q-.496-.327-1.07-.529t-1.16-.26v-.653h-1.54V12q-1.042.199-1.868.782q-.827.582-1.362 1.448H8.23v1.538h5.14q-.05.27-.085.536t-.035.541"/></svg>