<svg xmlns="http://www.w3.org/2000/svg" width="200" height="200" viewBox="0 0 24 24"><path fill="currentColor" d="M9.929 6h9.456q.69 0 1.152.463T21 7.615v4.104q0 .327-.274.494t-.582.024q-.323-.125-.675-.22t-.719-.132q-.038-.29-.249-.473t-.501-.18t-.501.182t-.249.472q0 .023.003.043t.014.043q-.46.087-.86.242t-.79.395l-.069-.064q.03-.03.16-.254q.03-.061.046-.132t.015-.158q0-.31-.23-.54T15 11.23q-.125 0-.225.035t-.2.104q-.07.044-.273.333l-2.004-2.004q.089-.03.333-.273q.069-.1.104-.2T12.769 9q0-.31-.23-.54T12 8.23q-.125 0-.225.035t-.2.104q-.07.044-.273.333L9.537 6.93q-.264-.264-.12-.597T9.93 6M4.615 18q-.69 0-1.152-.462T3 16.385v-8.77q0-.69.463-1.152T4.615 6H5.75l8.23 8.23H9q-.31 0-.54.221T8.23 15q0 .31.23.54t.54.23h4.37q-.05.268-.085.535q-.035.266-.035.541v.346q0 .348-.23.578t-.578.23zm15.39 3.677L2.382 4.052q-.146-.146-.156-.347t.156-.367t.354-.165t.353.165L20.713 20.97q.147.146.156.344t-.156.364t-.353.165t-.354-.165M21 18.4l-1.75-1.75v-1.188q0-.425-.288-.713t-.712-.287q-.244 0-.457.1t-.337.294l-.546-.552q.236-.28.585-.446t.755-.166q.748 0 1.259.51q.51.511.51 1.26v1h.112q.35 0 .61.25q.259.25.259.6zM16.37 21q-.35 0-.62-.27t-.27-.618v-2.8q0-.293.212-.533t.504-.298h.035l3.788 3.788V21zM6 9.77q.31 0 .54-.23T6.77 9t-.23-.54T6 8.23t-.54.23t-.23.54t.23.54t.54.23m0 3q.31 0 .54-.23t.23-.54t-.23-.54t-.54-.23t-.54.23t-.23.54t.23.54t.54.23m3 0q.31 0 .54-.23t.23-.54t-.23-.54t-.54-.23t-.54.23t-.23.54t.23.54t.54.23m6-3q.31 0 .54-.23t.23-.54t-.23-.54t-.54-.23t-.54.23t-.23.54t.23.54t.54.23m3 0q.31 0 .54-.23t.23-.54t-.23-.54t-.54-.23t-.54.23t-.23.54t.23.54t.54.23"/></svg>