<svg xmlns="http://www.w3.org/2000/svg" width="200" height="200" viewBox="0 0 24 24"><path fill="currentColor" d="M12 21.846L8.923 18.77h6.154L12 21.846ZM4.615 16q-.69 0-1.152-.462Q3 15.075 3 14.385v-8.77q0-.69.463-1.152Q3.925 4 4.615 4h14.77q.69 0 1.152.463q.463.462.463 1.152v8.77q0 .69-.462 1.153q-.463.462-1.153.462H4.615Zm0-1h14.77q.23 0 .423-.192q.192-.193.192-.423v-8.77q0-.23-.192-.423Q19.615 5 19.385 5H4.615q-.23 0-.423.192Q4 5.385 4 5.615v8.77q0 .23.192.423q.193.192.423.192Zm3.616-1.23h7.538v-1.54H8.231v1.54Zm-3-3h1.538V9.23H5.231v1.54Zm3 0h1.538V9.23H8.231v1.54Zm3 0h1.538V9.23h-1.538v1.54Zm3 0h1.538V9.23h-1.538v1.54Zm3 0h1.538V9.23h-1.538v1.54Zm-12-3h1.538V6.23H5.231v1.54Zm3 0h1.538V6.23H8.231v1.54Zm3 0h1.538V6.23h-1.538v1.54Zm3 0h1.538V6.23h-1.538v1.54Zm3 0h1.538V6.23h-1.538v1.54ZM4 15V5v10Z"/></svg>