<svg xmlns="http://www.w3.org/2000/svg" width="200" height="200" viewBox="0 0 24 24"><path fill="currentColor" d="M4 17V7v10Zm-1 1V6h18v6.89q-.233-.188-.473-.322q-.24-.133-.527-.256V7H4v10h8.042q-.011.125-.014.244q-.003.119-.003.256t.003.256q.003.119.014.244H3Zm5.23-3.77v1.54h4.062q.143-.422.337-.807q.194-.384.44-.732H8.231Zm-3-3v1.54h1.54v-1.54H5.23Zm3 0v1.54h1.54v-1.54H8.23Zm3 0v1.54h1.54v-1.54h-1.54Zm3 0v1.54h.316q.28-.2.587-.344q.305-.143.636-.268v-.927h-1.538Zm3 0v.62q.116-.021.226-.032q.11-.01.236-.01q.275 0 .542.034q.266.035.535.085v-.696h-1.538Zm-12-3v1.54h1.54V8.23H5.23Zm3 0v1.54h1.54V8.23H8.23Zm3 0v1.54h1.54V8.23h-1.54Zm3 0v1.54h1.54V8.23h-1.54Zm3 0v1.54h1.54V8.23h-1.54Zm.462 12.558l-.688-.688L19.06 18h-4.868v-1h4.868l-2.056-2.1l.688-.688l3.289 3.288l-3.289 3.288Z"/></svg>