<svg xmlns="http://www.w3.org/2000/svg" width="200" height="200" viewBox="0 0 24 24"><path fill="currentColor" d="M15 11.23q-.244 0-.437.13q-.194.128-.261.342l.996.996q.194-.144.333-.28t.138-.418q0-.31-.23-.54T15 11.23m-1.844 4.54H9q-.31 0-.54-.222T8.23 15q0-.31.23-.54t.54-.23h4.579q-.154.347-.26.741t-.163.798m6.85 5.908L2.38 4.052q-.146-.146-.156-.347t.156-.367t.354-.165t.353.165L20.713 20.97q.147.146.156.344t-.156.364t-.353.165t-.354-.165M19.385 6q.69 0 1.152.463T21 7.615v4.277q0 .24-.155.36t-.341.121t-.345-.125t-.159-.375V7.615q0-.23-.192-.423T19.385 7H9.813q-.25 0-.375-.155t-.125-.341t.125-.345T9.813 6zM4.615 18q-.69 0-1.152-.462T3 16.385v-8.77q0-.69.463-1.152T4.615 6H5.75l1 1H4.615q-.23 0-.423.192T4 7.615v8.77q0 .23.192.423t.423.192h8.135q.213 0 .356.144t.144.357t-.144.356t-.356.143zm11.754 3q-.35 0-.619-.27t-.27-.618v-2.796q0-.297.212-.537t.504-.298h.035l3.788 3.788V21zM21 18.4l-1.75-1.75v-1.188q0-.425-.288-.713t-.72-.287q-.229 0-.445.1t-.341.294l-.546-.552q.244-.282.59-.447q.344-.165.75-.165q.748 0 1.259.51q.51.511.51 1.26v1h.112q.358 0 .613.25t.256.6zM6 9.77q-.31 0-.54-.23T5.23 9t.23-.54t.54-.23t.54.23t.23.54t-.23.54t-.54.23m0 3q-.31 0-.54-.23T5.23 12t.23-.54t.54-.23t.54.23t.23.54t-.23.54t-.54.23m3 0q-.31 0-.54-.23T8.23 12t.23-.54t.54-.23t.54.23t.23.54t-.23.54t-.54.23m6-3q.31 0 .54-.23t.23-.54t-.23-.54t-.54-.23t-.54.23t-.23.54t.23.54t.54.23m3 0q.31 0 .54-.23t.23-.54t-.23-.54t-.54-.23t-.54.23t-.23.54t.23.54t.54.23m0 1.53q-.31 0-.54.23t-.23.54t.23.539t.54.23t.54-.23t.23-.54t-.23-.54T18 11.3m-6-3.07q-.244 0-.437.13q-.194.128-.261.342l.996.996q.214-.067.342-.26T12.77 9q0-.31-.23-.54T12 8.23m.496 1.641"/></svg>