<svg xmlns="http://www.w3.org/2000/svg" width="200" height="200" viewBox="0 0 24 24"><path fill="currentColor" d="M5.23 11.23v1.54h1.54v-1.54H5.23Zm3 0v1.54h1.54v-1.54H8.23Zm3 0v1.54h1.54v-1.54h-1.54Zm-6-3v1.54h1.54V8.23H5.23Zm3 0v1.54h1.54V8.23H8.23Zm3 0v1.54h1.54V8.23h-1.54Zm3 0v1.54h1.54V8.23h-1.54Zm3 0v1.54h1.54V8.23h-1.54Zm.462 12.558l-.688-.688L19.06 18h-4.868v-1h4.868l-2.056-2.1l.688-.688l3.289 3.288l-3.289 3.288ZM3 18V6h18v6.89q-.496-.363-1.066-.6q-.57-.238-1.165-.363v-.696h-1.538v.622q-.39.028-.753.107t-.709.198v-.927h-1.538v1.538h.315q-.44.296-.802.665q-.361.368-.675.797H8.231v1.538h4.061q-.144.413-.205.848q-.062.435-.062.883q0 .138.003.256q.003.119.014.244H3Z"/></svg>