<svg xmlns="http://www.w3.org/2000/svg" width="200" height="200" viewBox="0 0 24 24"><path fill="currentColor" d="M8.23 16.77h7.54v-1.54H8.23v1.54Zm-3-3h1.54v-1.54H5.23v1.54Zm3 0h1.54v-1.54H8.23v1.54Zm3 0h1.54v-1.54h-1.54v1.54Zm3 0h1.54v-1.54h-1.54v1.54Zm3 0h1.54v-1.54h-1.54v1.54ZM4.616 19q-.69 0-1.152-.462Q3 18.075 3 17.385V6.615q0-.69.463-1.152Q3.925 5 4.615 5h14.77q.69 0 1.152.463q.463.462.463 1.152v10.77q0 .69-.462 1.152q-.463.463-1.153.463H4.615ZM4 9.5h16V6.615q0-.23-.192-.423Q19.615 6 19.385 6H4.615q-.23 0-.423.192Q4 6.385 4 6.615V9.5Zm.615 8.5h14.77q.23 0 .423-.192q.192-.193.192-.423V10.5H4v6.885q0 .23.192.423q.193.192.423.192ZM4 18v-7.5V18Z"/></svg>