<svg xmlns="http://www.w3.org/2000/svg" width="200" height="200" viewBox="0 0 24 24"><path fill="currentColor" d="M20.265 21.53L3.31 4.58q-.147-.145-.153-.346q-.007-.201.158-.367q.166-.165.357-.165q.191 0 .357.165l16.95 16.956q.146.146.156.344q.01.198-.156.364q-.166.165-.357.165q-.191 0-.357-.165Zm-4.34-5.76l-1.538-1.54H9q-.31 0-.54.221q-.23.22-.23.549q0 .31.23.54q.23.23.54.23h6.925ZM4.615 18q-.69 0-1.152-.462Q3 17.075 3 16.385v-8.77q0-.69.463-1.152Q3.925 6 4.615 6h1.54l12 12H4.616ZM6 9.77q.31 0 .54-.23q.23-.23.23-.54q0-.31-.23-.54q-.23-.23-.54-.23q-.31 0-.54.23q-.23.23-.23.54q0 .31.23.54q.23.23.54.23Zm9 0q.31 0 .54-.23q.23-.23.23-.54q0-.31-.23-.54q-.23-.23-.54-.23q-.31 0-.54.23q-.23.23-.23.54q0 .31.23.54q.23.23.54.23Zm3 0q.31 0 .54-.23q.23-.23.23-.54q0-.31-.23-.54q-.23-.23-.54-.23q-.31 0-.54.23q-.23.23-.23.54q0 .31.23.54q.23.23.54.23Zm-12 3q.31 0 .54-.23q.23-.23.23-.54q0-.31-.23-.54q-.23-.23-.54-.23q-.31 0-.54.23q-.23.23-.23.54q0 .31.23.54q.23.23.54.23Zm3 0q.31 0 .54-.23q.23-.23.23-.54q0-.31-.23-.54q-.23-.23-.54-.23q-.31 0-.54.23q-.23.23-.23.54q0 .31.23.54q.23.23.54.23Zm9 0q.31 0 .54-.23q.23-.23.23-.54q0-.31-.23-.54q-.23-.23-.54-.23q-.31 0-.54.23q-.23.23-.23.54q0 .31.23.54q.23.23.54.23Zm2.515 4.77l-4.988-4.994q.106-.106.174-.245q.068-.14.068-.301q0-.31-.23-.54q-.23-.23-.539-.23q-.162 0-.301.069q-.14.068-.245.174l-1.927-1.927q.106-.106.174-.245q.068-.14.068-.301q0-.31-.23-.54q-.23-.23-.539-.23q-.162 0-.301.057q-.14.055-.245.161L9.006 6h10.379q.69 0 1.152.463q.463.462.463 1.152v8.775q0 .348-.134.64q-.133.293-.35.51Z"/></svg>