<svg xmlns="http://www.w3.org/2000/svg" width="200" height="200" viewBox="0 0 24 24"><path fill="currentColor" d="M20.62 21.89L2.955 4.227l.713-.714l17.664 17.664l-.714.713ZM8.23 15.77v-1.54h6.157l1.538 1.54H8.231Zm-3-3v-1.54h1.54v1.54H5.23Zm3 0v-1.54h1.54v1.54H8.23Zm9 0v-1.54h1.54v1.54h-1.54Zm-12-3V8.23h1.54v1.54H5.23Zm9 0V8.23h1.54v1.54h-1.54Zm3 0V8.23h1.54v1.54h-1.54ZM20 17.02V7h-9.994l-1-1H21v12.025l-1-1.006ZM3 18V6h3.156l1 1H4v10h13.156l1 1H3Zm8.237-9.77h1.532v1.533l-1.532-1.532Zm2.994 3h1.538v1.533l-1.538-1.532Zm-3.502.77ZM15 12Z"/></svg>