<svg xmlns="http://www.w3.org/2000/svg" width="200" height="200" viewBox="0 0 24 24"><path fill="currentColor" d="M4 17V7v10Zm.615 1q-.69 0-1.152-.462Q3 17.075 3 16.385v-8.77q0-.69.463-1.152Q3.925 6 4.615 6h14.77q.69 0 1.152.463q.463.462.463 1.152v5.275q-.233-.188-.473-.322q-.24-.133-.527-.256V7.615q0-.23-.192-.423Q19.615 7 19.385 7H4.615q-.23 0-.423.192Q4 7.385 4 7.615v8.77q0 .23.192.423q.193.192.423.192h7.427q-.011.135-.014.247q-.003.113-.003.253t.003.253q.003.112.014.247H4.615ZM9 15.77h3.292q.143-.422.337-.807q.194-.384.44-.732H9q-.31 0-.54.22q-.23.22-.23.549q0 .31.23.54q.23.23.54.23ZM19.06 18h-4.368q-.213 0-.356-.143q-.144-.144-.144-.357t.144-.357t.356-.143h4.368l-1.727-1.746q-.14-.14-.14-.351q0-.21.145-.357q.14-.14.354-.14q.214 0 .354.14l2.37 2.389q.242.242.242.565q0 .323-.243.565l-2.369 2.389q-.14.14-.35.133q-.211-.006-.358-.152q-.14-.14-.14-.345q0-.203.14-.344L19.06 18ZM6 9.77q.31 0 .54-.23q.23-.23.23-.54q0-.31-.23-.54q-.23-.23-.54-.23q-.31 0-.54.23q-.23.23-.23.54q0 .31.23.54q.23.23.54.23Zm3 0q.31 0 .54-.23q.23-.23.23-.54q0-.31-.23-.54q-.23-.23-.54-.23q-.31 0-.54.23q-.23.23-.23.54q0 .31.23.54q.23.23.54.23Zm3 0q.31 0 .54-.23q.23-.23.23-.54q0-.31-.23-.54q-.23-.23-.54-.23q-.31 0-.54.23q-.23.23-.23.54q0 .31.23.54q.23.23.54.23Zm3 0q.31 0 .54-.23q.23-.23.23-.54q0-.31-.23-.54q-.23-.23-.54-.23q-.31 0-.54.23q-.23.23-.23.54q0 .31.23.54q.23.23.54.23Zm3 0q.31 0 .54-.23q.23-.23.23-.54q0-.31-.23-.54q-.23-.23-.54-.23q-.31 0-.54.23q-.23.23-.23.54q0 .31.23.54q.23.23.54.23Zm-12 3q.31 0 .54-.23q.23-.23.23-.54q0-.31-.23-.54q-.23-.23-.54-.23q-.31 0-.54.23q-.23.23-.23.54q0 .31.23.54q.23.23.54.23Zm3 0q.31 0 .54-.23q.23-.23.23-.54q0-.31-.23-.54q-.23-.23-.54-.23q-.31 0-.54.23q-.23.23-.23.54q0 .31.23.54q.23.23.54.23Zm3 0q.31 0 .54-.23q.23-.23.23-.54q0-.31-.23-.54q-.23-.23-.54-.23q-.31 0-.54.23q-.23.23-.23.54q0 .31.23.54q.23.23.54.23Zm2.667-.083q.256-.162.527-.3q.271-.137.558-.243q.011-.042.014-.072q.003-.03.003-.072q0-.31-.23-.54q-.23-.23-.539-.23q-.31 0-.54.23q-.23.23-.23.54q0 .235.124.41q.123.177.313.277Zm2.602-.862q.193-.012.363-.014q.17-.003.362.016q.198.02.381.022q.183.003.375.053v-.017q-.038-.272-.249-.463q-.21-.191-.501-.191q-.271 0-.472.162q-.201.163-.259.415v.017Z"/></svg>