<svg xmlns="http://www.w3.org/2000/svg" width="200" height="200" viewBox="0 0 24 24"><path fill="currentColor" d="M20.62 21.89L3.31 4.58q-.147-.145-.153-.346q-.007-.201.158-.367q.166-.165.357-.165q.191 0 .357.165l17.304 17.31l-.714.713ZM9 15.77q-.31 0-.54-.22q-.23-.221-.23-.55q0-.31.23-.54q.23-.23.54-.23h5.387l1.538 1.54H9Zm11.515 1.77L20 17.02V7.614q0-.23-.192-.423Q19.615 7 19.385 7h-9.38l-1-1h10.38q.69 0 1.152.463q.463.462.463 1.152v8.775q0 .348-.134.64q-.133.293-.35.51Zm-15.9.46q-.69 0-1.152-.462Q3 17.075 3 16.385v-8.77q0-.69.463-1.152Q3.925 6 4.615 6h1.54l1 1h-2.54q-.23 0-.423.192Q4 7.385 4 7.615v8.77q0 .23.192.423q.193.192.423.192h12.54l1 1H4.616Zm6.114-6ZM15 12ZM6 9.77q-.31 0-.54-.23q-.23-.23-.23-.54q0-.31.23-.54q.23-.23.54-.23q.31 0 .54.23q.23.23.23.54q0 .31-.23.54q-.23.23-.54.23Zm6.546-.224l-1.092-1.092q.106-.106.255-.165q.149-.058.291-.058q.31 0 .54.23q.23.23.23.539q0 .142-.06.291q-.058.15-.164.255ZM15 9.77q-.31 0-.54-.23q-.23-.23-.23-.539q0-.31.23-.54q.23-.23.54-.23q.31 0 .54.23q.23.23.23.54q0 .31-.23.54q-.23.23-.54.23Zm3 0q-.31 0-.54-.23q-.23-.23-.23-.539q0-.31.23-.54q.23-.23.54-.23q.31 0 .54.23q.23.23.23.54q0 .31-.23.54q-.23.23-.54.23Zm-12 3q-.31 0-.54-.23q-.23-.23-.23-.539q0-.31.23-.54q.23-.23.54-.23q.31 0 .54.23q.23.23.23.54q0 .31-.23.54q-.23.23-.54.23Zm3 0q-.31 0-.54-.23q-.23-.23-.23-.539q0-.31.23-.54q.23-.23.54-.23q.31 0 .54.23q.23.23.23.54q0 .31-.23.54q-.23.23-.54.23Zm6.546-.223l-1.092-1.092q.106-.106.255-.165q.149-.058.291-.058q.31 0 .54.23q.23.23.23.539q0 .142-.06.291q-.058.15-.164.255ZM18 12.77q-.31 0-.54-.23q-.23-.23-.23-.539q0-.31.23-.54q.23-.23.54-.23q.31 0 .54.23q.23.23.23.54q0 .31-.23.54q-.23.23-.54.23Z"/></svg>