<svg xmlns="http://www.w3.org/2000/svg" width="200" height="200" viewBox="0 0 24 24"><path fill="currentColor" d="M19.06 18h-4.368q-.213 0-.356-.143q-.144-.144-.144-.357t.144-.357t.356-.143h4.368l-1.727-1.746q-.14-.14-.14-.351q0-.21.145-.357q.14-.14.354-.14q.214 0 .354.14l2.37 2.389q.242.242.242.565q0 .323-.243.565l-2.369 2.389q-.14.14-.35.133q-.211-.006-.358-.152q-.14-.14-.14-.345q0-.203.14-.344L19.06 18ZM6 9.77q.31 0 .54-.23q.23-.23.23-.54q0-.31-.23-.54q-.23-.23-.54-.23q-.31 0-.54.23q-.23.23-.23.54q0 .31.23.54q.23.23.54.23Zm3 0q.31 0 .54-.23q.23-.23.23-.54q0-.31-.23-.54q-.23-.23-.54-.23q-.31 0-.54.23q-.23.23-.23.54q0 .31.23.54q.23.23.54.23Zm3 0q.31 0 .54-.23q.23-.23.23-.54q0-.31-.23-.54q-.23-.23-.54-.23q-.31 0-.54.23q-.23.23-.23.54q0 .31.23.54q.23.23.54.23Zm3 0q.31 0 .54-.23q.23-.23.23-.54q0-.31-.23-.54q-.23-.23-.54-.23q-.31 0-.54.23q-.23.23-.23.54q0 .31.23.54q.23.23.54.23Zm3 0q.31 0 .54-.23q.23-.23.23-.54q0-.31-.23-.54q-.23-.23-.54-.23q-.31 0-.54.23q-.23.23-.23.54q0 .31.23.54q.23.23.54.23Zm-12 3q.31 0 .54-.23q.23-.23.23-.54q0-.31-.23-.54q-.23-.23-.54-.23q-.31 0-.54.23q-.23.23-.23.54q0 .31.23.54q.23.23.54.23Zm3 0q.31 0 .54-.23q.23-.23.23-.54q0-.31-.23-.54q-.23-.23-.54-.23q-.31 0-.54.23q-.23.23-.23.54q0 .31.23.54q.23.23.54.23Zm3 0q.31 0 .54-.23q.23-.23.23-.54q0-.31-.23-.54q-.23-.23-.54-.23q-.31 0-.54.23q-.23.23-.23.54q0 .31.23.54q.23.23.54.23Zm3-1.54q-.31 0-.54.23q-.23.23-.23.54q0 .235.124.423q.123.189.338.283q.256-.156.515-.287q.258-.13.545-.256q.017-.192-.027-.343q-.044-.15-.15-.293t-.251-.22q-.145-.076-.324-.076ZM12.042 18H4.615q-.69 0-1.152-.462Q3 17.075 3 16.385v-8.77q0-.69.463-1.152Q3.925 6 4.615 6h14.77q.69 0 1.152.463q.463.462.463 1.152v5.275q-.496-.363-1.066-.6q-.57-.238-1.165-.363v-.023q-.038-.29-.258-.482q-.22-.191-.511-.191q-.271 0-.472.172q-.201.172-.259.424q-.019.006-.019.011q0 .006-.02.012q-1.255.073-2.351.72t-1.81 1.66H9q-.31 0-.54.221q-.23.22-.23.549q0 .31.23.54q.23.23.54.23h3.292q-.136.417-.202.85q-.065.432-.065.88q0 .14.003.253q.003.112.014.247Z"/></svg>