<svg xmlns="http://www.w3.org/2000/svg" width="200" height="200" viewBox="0 0 24 24"><path fill="currentColor" d="M4 17V7zm1.23-4.23h1.54v-1.54H5.23zm3 0h1.54v-1.54H8.23zm3 0h1.54v-1.54h-1.54zm3 0h1.54v-1.54h-1.54zm-9-3h1.54V8.23H5.23zm3 0h1.54V8.23H8.23zm3 0h1.54V8.23h-1.54zm3 0h1.54V8.23h-1.54zm3 0h1.54V8.23h-1.54zm0 2.232q.374-.085.761-.12t.778.003v-.654h-1.538zm-9 3.767h5.14q.105-.42.253-.806q.148-.384.377-.732H8.23zM4.616 18q-.69 0-1.152-.462T3 16.385v-8.77q0-.69.463-1.152T4.615 6h14.77q.69 0 1.152.463T21 7.615v5.058q-.233-.171-.473-.28T20 12.195v-4.58q0-.231-.192-.424T19.385 7H4.615q-.23 0-.423.192T4 7.615v8.77q0 .23.192.423t.423.192h8.635v1zm11.754 3q-.35 0-.619-.27t-.27-.618v-2.8q0-.35.27-.6t.62-.25h.11v-1q0-.749.511-1.26q.51-.51 1.259-.51t1.259.51t.51 1.26v1h.112q.35 0 .61.25q.259.25.259.6v2.8q0 .35-.26.619t-.61.269zm.881-4.538h2v-1q0-.425-.288-.713t-.712-.287t-.712.287t-.288.713z"/></svg>