<svg xmlns="http://www.w3.org/2000/svg" width="200" height="200" viewBox="0 0 24 24"><path fill="currentColor" d="M20.62 21.89L2.955 4.227l.713-.714l17.664 17.664l-.714.713ZM8.23 15.77v-1.54h6.157l1.538 1.54H8.231Zm-3-3v-1.54h1.54v1.54H5.23Zm3 0v-1.54h1.54v1.54H8.23Zm9 0v-1.54h1.54v1.54h-1.54Zm-12-3V8.23h1.54v1.54H5.23Zm9 0V8.23h1.54v1.54h-1.54Zm3 0V8.23h1.54v1.54h-1.54Zm3.285 7.77L20 17.02V7.614q0-.23-.192-.423Q19.615 7 19.385 7h-9.38l-1-1h10.38q.69 0 1.152.463q.463.462.463 1.152v8.775q0 .348-.134.64q-.133.293-.35.51Zm-15.9.46q-.69 0-1.152-.462Q3 17.075 3 16.385v-8.77q0-.69.463-1.152Q3.925 6 4.615 6h1.54l1 1h-2.54q-.23 0-.423.192Q4 7.385 4 7.615v8.77q0 .23.192.423q.193.192.423.192h12.54l1 1H4.616Zm6.622-9.77h1.532v1.533l-1.532-1.532Zm2.994 3h1.538v1.533l-1.538-1.532Zm-3.502.77ZM15 12Z"/></svg>