<svg xmlns="http://www.w3.org/2000/svg" width="200" height="200" viewBox="0 0 24 24"><path fill="currentColor" d="M9 15.77h3.854q.384 0 .577-.236t.192-.534q0-.329-.22-.549t-.55-.22H9q-.31 0-.54.22T8.23 15q0 .31.23.54t.54.23M4.615 18q-.69 0-1.152-.462T3 16.385v-8.77q0-.69.463-1.152T4.615 6h14.77q.69 0 1.152.463T21 7.615v4.277q0 .25-.159.366t-.341.115t-.341-.125t-.159-.375V7.615q0-.23-.192-.423T19.385 7H4.615q-.23 0-.423.192T4 7.615v8.77q0 .23.192.423t.423.192h8.135q.213 0 .357.143t.143.357t-.143.357q-.144.143-.357.143zm11.754 3q-.35 0-.619-.27t-.27-.618v-2.8q0-.35.27-.6t.62-.25h.11v-1q0-.749.511-1.26q.51-.51 1.259-.51t1.259.51t.51 1.26v1h.112q.35 0 .61.25q.259.25.259.6v2.8q0 .35-.26.619t-.61.269zm.881-4.538h2v-1q0-.425-.288-.713t-.712-.287t-.712.287t-.288.713zM6 9.769q.31 0 .54-.23T6.77 9t-.23-.54T6 8.23t-.54.23t-.23.54t.23.54t.54.23m0 3q.31 0 .54-.23t.23-.54t-.23-.54t-.54-.23t-.54.23t-.23.54t.23.54t.54.23m3-3q.31 0 .54-.23T9.77 9t-.23-.54T9 8.23t-.54.23t-.23.54t.23.54t.54.23m0 3q.31 0 .54-.23t.23-.54t-.23-.54t-.54-.23t-.54.23t-.23.54t.23.54t.54.23m3-3q.31 0 .54-.23t.23-.54t-.23-.54t-.54-.23t-.54.23t-.23.54t.23.54t.54.23m0 3q.31 0 .54-.23t.23-.54t-.23-.54t-.54-.23t-.54.23t-.23.54t.23.54t.54.23m3-3q.31 0 .54-.23t.23-.54t-.23-.54t-.54-.23t-.54.23t-.23.54t.23.54t.54.23m0 3q.31 0 .54-.23t.23-.54t-.23-.54t-.54-.23t-.54.23t-.23.54t.23.54t.54.23m3-3q.31 0 .54-.23t.23-.54t-.23-.54t-.54-.23t-.54.23t-.23.54t.23.54t.54.23m0 1.53q-.31 0-.54.23t-.23.54t.23.539t.54.23t.54-.23t.23-.54t-.23-.54T18 11.3m-6 .7"/></svg>