<svg xmlns="http://www.w3.org/2000/svg" width="200" height="200" viewBox="0 0 24 24"><path fill="currentColor" d="M4.615 18q-.69 0-1.152-.462Q3 17.075 3 16.385v-8.77q0-.69.463-1.152Q3.925 6 4.615 6h14.77q.69 0 1.152.463q.463.462.463 1.152v8.77q0 .69-.462 1.152q-.463.463-1.153.463H4.615Zm3.616-2.23h7.538v-1.54H8.231v1.54Zm-3-3h1.538v-1.54H5.231v1.54Zm3 0h1.538v-1.54H8.231v1.54Zm3 0h1.538v-1.54h-1.538v1.54Zm3 0h1.538v-1.54h-1.538v1.54Zm3 0h1.538v-1.54h-1.538v1.54Zm-12-3h1.538V8.23H5.231v1.54Zm3 0h1.538V8.23H8.231v1.54Zm3 0h1.538V8.23h-1.538v1.54Zm3 0h1.538V8.23h-1.538v1.54Zm3 0h1.538V8.23h-1.538v1.54Z"/></svg>