<svg xmlns="http://www.w3.org/2000/svg" width="200" height="200" viewBox="0 0 24 24"><path fill="currentColor" d="M3.615 20q-.69 0-1.152-.462Q2 19.075 2 18.385V6.615q0-.69.463-1.152Q2.925 5 3.615 5h16.77q.69 0 1.152.463q.463.462.463 1.152v11.77q0 .69-.462 1.152q-.463.463-1.153.463H3.615ZM8.5 16.885h7q.162 0 .273-.112q.112-.111.112-.273t-.112-.273q-.111-.112-.273-.112h-7q-.162 0-.273.112q-.112.111-.112.273t.112.273q.111.112.273.112ZM6 9.769q.31 0 .54-.23q.23-.23.23-.539q0-.31-.23-.54q-.23-.23-.54-.23q-.31 0-.54.23q-.23.23-.23.54q0 .31.23.54q.23.23.54.23Zm4 0q.31 0 .54-.23q.23-.23.23-.539q0-.31-.23-.54q-.23-.23-.54-.23q-.31 0-.54.23q-.23.23-.23.54q0 .31.23.54q.23.23.54.23Zm4 0q.31 0 .54-.23q.23-.23.23-.539q0-.31-.23-.54q-.23-.23-.54-.23q-.31 0-.54.23q-.23.23-.23.54q0 .31.23.54q.23.23.54.23Zm4 0q.31 0 .54-.23q.23-.23.23-.539q0-.31-.23-.54q-.23-.23-.54-.23q-.31 0-.54.23q-.23.23-.23.54q0 .31.23.54q.23.23.54.23Zm-12 4q.31 0 .54-.23q.23-.23.23-.539q0-.31-.23-.54q-.23-.23-.54-.23q-.31 0-.54.23q-.23.23-.23.54q0 .31.23.54q.23.23.54.23Zm4 0q.31 0 .54-.23q.23-.23.23-.539q0-.31-.23-.54q-.23-.23-.54-.23q-.31 0-.54.23q-.23.23-.23.54q0 .31.23.54q.23.23.54.23Zm4 0q.31 0 .54-.23q.23-.23.23-.539q0-.31-.23-.54q-.23-.23-.54-.23q-.31 0-.54.23q-.23.23-.23.54q0 .31.23.54q.23.23.54.23Zm4 0q.31 0 .54-.23q.23-.23.23-.539q0-.31-.23-.54q-.23-.23-.54-.23q-.31 0-.54.23q-.23.23-.23.54q0 .31.23.54q.23.23.54.23Z"/></svg>