<svg xmlns="http://www.w3.org/2000/svg" width="200" height="200" viewBox="0 0 24 24"><path fill="currentColor" d="M3.615 20q-.67 0-1.143-.472Q2 19.056 2 18.385v-3.77q0-.67.472-1.143Q2.944 13 3.615 13H4V8.321h-.192q-.354-.063-.581-.328Q3 7.73 3 7.346v-1.27q0-.44.299-.738q.3-.3.74-.3h4.923q.44 0 .739.3q.299.299.299.739v1.27q0 .382-.227.646q-.227.265-.58.328H9V13h6V8.321h-.192q-.354-.063-.581-.328Q14 7.73 14 7.346v-1.27q0-.44.299-.738q.3-.3.74-.3h4.923q.44 0 .739.3q.299.299.299.739v1.27q0 .382-.227.646q-.227.265-.58.328H20V13h.385q.67 0 1.143.472q.472.472.472 1.143v3.77q0 .67-.472 1.143q-.472.472-1.143.472H3.615ZM15 7.385h5V6.038h-5v1.347Zm-11 0h5V6.038H4v1.347ZM16 13h3V8.385h-3V13ZM5 13h3V8.385H5V13Zm-1.385 6h16.77q.269 0 .442-.173t.173-.442v-3.77q0-.269-.173-.442T20.385 14H3.615q-.269 0-.442.173T3 14.615v3.77q0 .269.173.442t.442.173ZM4 7.385V6.038v1.347Zm11 0V6.038v1.347ZM3 19v-5v5Z"/></svg>