<svg xmlns="http://www.w3.org/2000/svg" width="200" height="200" viewBox="0 0 24 24"><path fill="currentColor" d="M8 20.442q-1.74 0-2.966-1.226q-1.226-1.226-1.226-2.966V7.385q-.671 0-1.144-.475q-.472-.474-.472-1.14V4.422q0-.666.475-1.14q.474-.475 1.14-.475h8.385q.667 0 1.141.474t.475 1.141V5.77q0 .667-.475 1.141q-.474.475-1.14.475v4.736q-.397.329-.702.726q-.304.397-.49.903H8.5v-1h2.692v-2H8.5v-1h2.692V7.385H4.808v8.865q0 1.33.929 2.261q.928.931 2.255.931q.796 0 1.45-.344t1.098-.92q.09.274.203.52q.113.246.251.498q-.579.592-1.344.92q-.766.326-1.65.326Zm.5-3.692v-1h1.852q-.03.25-.032.49q0 .24.028.51H8.5ZM3.808 6.385h8.384q.27 0 .443-.173q.173-.174.173-.443V4.423q0-.27-.173-.442t-.443-.173H3.808q-.27 0-.443.173t-.173.442V5.77q0 .27.173.443t.443.173Zm-.616 0V3.808v2.577ZM16.5 19.308q1.165 0 1.987-.821q.82-.822.82-1.987t-.82-1.987q-.822-.82-1.987-.82t-1.987.82q-.82.822-.82 1.987t.82 1.987q.822.82 1.987.82Zm5.1 2.98l-2.777-2.776q-.511.388-1.099.592q-.588.204-1.224.204q-1.587 0-2.697-1.11t-1.11-2.698q0-1.587 1.11-2.697t2.697-1.11q1.587 0 2.697 1.11t1.11 2.697q0 .636-.203 1.224q-.204.588-.592 1.1l2.776 2.776l-.688.688Z"/></svg>