<svg xmlns="http://www.w3.org/2000/svg" width="200" height="200" viewBox="0 0 24 24"><path fill="currentColor" d="M7.846 12L5.033 7.594q-.343-.519-.046-1.056Q5.283 6 5.906 6h8.71q.538 0 1.014.244t.79.683l2.909 4.135q.298.428.298.938t-.298.938l-2.987 4.174q-.294.419-.75.653q-.457.235-.977.235h-8.71q-.622 0-.918-.537q-.297-.538.046-1.057L7.846 12Zm1.208 0l-3.25 5h8.811q.289 0 .539-.135q.25-.134.423-.365l2.954-4.135q.115-.153.115-.365t-.115-.365L15.577 7.5q-.173-.23-.404-.365Q14.943 7 14.615 7H5.804l3.25 5Zm0 0l-3.25-5l3.25 5l-3.25 5l3.25-5Z"/></svg>