<svg xmlns="http://www.w3.org/2000/svg" width="200" height="200" viewBox="0 0 24 24"><path fill="currentColor" d="m17.277 15.83l-.72-.718l1.974-2.747q.115-.153.115-.365t-.115-.365L15.577 7.5q-.173-.27-.404-.385Q14.943 7 14.615 7H8.427l-1-1h7.188q.52 0 1.012.27t.792.695l2.91 4.097q.298.428.298.938t-.298.938l-2.052 2.893ZM5.615 18q-.69 0-1.152-.462Q4 17.075 4 16.385v-8.77q0-.16.034-.336t.1-.344l-1.61-1.612q-.141-.14-.15-.344q-.01-.204.15-.364t.353-.16q.194 0 .354.16L19 20.385q.14.14.15.344q.01.204-.15.363q-.16.16-.354.16q-.194 0-.354-.16l-3.227-3.227q-.11.068-.305.101t-.375.034h-8.77Zm3.98-5.6Zm2.83-1.421ZM14.2 17L5 7.8v8.585q0 .23.192.423q.193.192.423.192H14.2Z"/></svg>