<svg xmlns="http://www.w3.org/2000/svg" width="200" height="200" viewBox="0 0 24 24"><path fill="currentColor" d="M12 20.442q-1.74 0-2.966-1.226q-1.226-1.226-1.226-2.966V7.385q-.671 0-1.144-.475q-.472-.474-.472-1.14V4.422q0-.666.475-1.14q.474-.475 1.14-.475h8.385q.667 0 1.141.474t.475 1.141V5.77q0 .667-.475 1.141q-.474.475-1.14.475v9.134q-.116 1.652-1.309 2.788q-1.192 1.135-2.884 1.135ZM7.808 6.385h8.384q.27 0 .443-.173q.173-.174.173-.443V4.423q0-.27-.173-.442t-.443-.173H7.808q-.27 0-.443.173t-.173.442V5.77q0 .27.173.443t.443.173ZM12 19.442q1.206 0 2.087-.774q.88-.774 1.046-1.918H13q-.213 0-.356-.144q-.144-.144-.144-.357q0-.212.144-.356q.144-.143.356-.143h2.192v-2H13q-.213 0-.356-.144q-.144-.144-.144-.357q0-.212.144-.356q.144-.143.356-.143h2.192v-2H13q-.213 0-.356-.144q-.144-.144-.144-.357q0-.212.144-.356q.144-.143.356-.143h2.192V7.385H8.808v8.865q0 1.33.93 2.261q.932.931 2.262.931ZM7.192 6.385V3.808v2.577Z"/></svg>