<svg xmlns="http://www.w3.org/2000/svg" width="200" height="200" viewBox="0 0 24 24"><path fill="currentColor" d="M3 21h17l-4.73-6.25l-4.962-2.115L7.5 9H3v12Zm1-1v-2.12l2 .65l8.679-2.884L18 20H4Zm2-2.53l-2-.657v-2.74l2 .65l3.738-1.242l3.574 1.556L6 17.469Zm11.885-4.24l3.346-1.5V9.193l-3.25-.73l-1.75 1.403v2.039l1.654 1.327ZM6 13.663l-2-.656V10h3l2.067 2.652L6 13.662Zm12.03-1.602l-.8-.625v-1.1l1-.8l2 .45v1.1l-2.2.975Zm-5.915-4.406L16 6.096v-3.5l-3.788-.77L10 3.309V6.23l2.115 1.423Zm.11-1.135L11 5.694v-1.85l1.425-.95L15 3.42v2l-2.775 1.1Z"/></svg>