<svg xmlns="http://www.w3.org/2000/svg" width="200" height="200" viewBox="0 0 24 24"><path fill="currentColor" d="M20.558 21.985L2.04 3.467l.714-.713L21.27 21.27zM6.135 9.904q-1.02 0-1.75-.728q-.731-.729-.731-1.734q0-.78.429-1.388T5.18 5.18l3.196 3.196q-.265.67-.873 1.098t-1.37.429m15.774 9.17l-1.635-1.624l-3.335-9.115q-.219-.672-.788-1.042t-1.26-.37t-1.262.383q-.572.382-.791 1.054l-.39 1.269l-.812-.817l.238-.739q.312-.988 1.155-1.57q.843-.58 1.87-.58q1.006 0 1.843.568q.838.569 1.155 1.526zM2.15 19l2.876-5.52q.209-.4.582-.632t.838-.233q.485 0 .89.253t.589.717l.521 1.227q.185.4.688.366t.647-.43l1.198-3.77l.798.799l-1.033 3.258q-.186.527-.63.852t-1.008.325q-.509 0-.942-.267t-.645-.743l-.56-1.342q-.153-.327-.528-.337t-.548.317L3.24 19z"/></svg>