<svg xmlns="http://www.w3.org/2000/svg" width="200" height="200" viewBox="0 0 24 24"><path fill="currentColor" d="M20.204 21.625L2.394 3.821q-.146-.146-.156-.347t.156-.366t.357-.166t.357.166l17.81 17.81q.145.145.155.344t-.156.363t-.356.165t-.357-.165M6.134 9.904q-1.019 0-1.75-.728q-.73-.729-.73-1.734q0-.78.429-1.388T5.18 5.18l3.196 3.196q-.265.67-.873 1.098t-1.37.429m11.762-1.887l3.279 9.02q.079.225-.021.389t-.277.232t-.365-.004t-.275-.314l-3.299-9.005q-.232-.64-.795-1.026t-1.253-.386t-1.265.386t-.788 1.05l-.147.472q-.067.188-.247.292t-.378.037t-.302-.248t-.036-.387l.146-.452q.312-.988 1.145-1.57q.834-.58 1.878-.58q1.002 0 1.833.568q.83.569 1.167 1.526M5.023 13.485q.212-.404.585-.637t.838-.233q.485 0 .89.253t.589.717l.521 1.227q.185.4.688.366t.647-.43l1.198-3.77l.798.799l-1.033 3.258q-.186.527-.63.852t-1.008.325q-.509 0-.942-.267t-.645-.743l-.56-1.342q-.153-.327-.528-.337t-.548.317l-2.521 4.898q-.068.116-.17.189T2.95 19q-.288 0-.432-.225t-.01-.475z"/></svg>