<svg xmlns="http://www.w3.org/2000/svg" width="200" height="200" viewBox="0 0 24 24"><path fill="currentColor" d="M20.558 21.985L2.04 3.467l.714-.713L21.27 21.27zM6.135 9.904q-1.02 0-1.75-.724q-.731-.724-.731-1.738q0-.78.429-1.388T5.18 5.18l3.196 3.196q-.265.67-.873 1.098t-1.37.429m15.774 9.17L11.635 8.811l.238-.739q.312-.988 1.155-1.57q.843-.58 1.862-.58q1.014 0 1.851.568q.838.569 1.155 1.526zM2.15 19l2.873-5.515q.212-.404.588-.637t.835-.233q.485 0 .889.255t.59.715l.521 1.227q.185.4.687.368t.648-.432l1.198-3.77L19 19z"/></svg>