<svg xmlns="http://www.w3.org/2000/svg" width="200" height="200" viewBox="0 0 24 24"><path fill="currentColor" d="M5.023 13.485q.212-.404.585-.637t.838-.233q.485 0 .89.253t.589.717l.521 1.227q.185.4.688.366t.647-.43l2.092-6.675q.312-.988 1.155-1.57q.843-.58 1.87-.58q1.006 0 1.843.568q.838.569 1.155 1.526l3.74 10.331q.08.25-.05.451T21.18 19q-.156 0-.287-.091q-.13-.092-.196-.238l-3.76-10.336q-.219-.672-.788-1.042t-1.26-.37t-1.262.383q-.572.382-.791 1.054l-2.093 6.675q-.186.527-.63.852t-1.008.325q-.509 0-.942-.267t-.645-.743l-.56-1.342q-.153-.327-.528-.337t-.548.317L3.38 18.738q-.062.12-.185.19T2.938 19q-.282 0-.423-.225T2.51 18.3zM6.48 9.923q-1.018 0-1.75-.727Q4 8.47 4 7.466q0-1.024.73-1.745Q5.463 5 6.48 5t1.73.72t.713 1.747q0 1.008-.713 1.732t-1.73.724m-.002-1q.614 0 1.03-.432q.415-.431.415-1.04q0-.607-.415-1.029Q7.092 6 6.478 6t-1.046.42T5 7.462q0 .598.432 1.03q.431.431 1.046.431m-.016-1.461"/></svg>