<svg xmlns="http://www.w3.org/2000/svg" width="200" height="200" viewBox="0 0 24 24"><path fill="currentColor" d="M20.912 21.63q-.166.166-.357.166t-.357-.165L2.394 3.82q-.146-.146-.156-.347t.156-.366t.357-.166t.357.166l17.81 17.81q.145.145.152.346t-.158.367M6.135 9.904q-1.02 0-1.75-.724q-.731-.724-.731-1.738q0-.78.429-1.388T5.18 5.18l3.196 3.196q-.265.67-.873 1.098t-1.37.429m14.212 6.725q-.217.136-.497.124t-.497-.23L11.977 9.16q-.162-.162-.205-.376t.013-.432l.088-.279q.312-.988 1.155-1.57q.843-.58 1.862-.58q1.014 0 1.851.568q.838.569 1.155 1.526l2.779 7.648q.125.298.007.563t-.336.4M3.486 19q-.46 0-.698-.388t-.028-.793l2.263-4.334q.212-.404.588-.637t.835-.233q.485 0 .889.255t.59.715l.521 1.227q.185.4.687.368t.648-.432l1.198-3.77L19 19z"/></svg>