<svg xmlns="http://www.w3.org/2000/svg" width="200" height="200" viewBox="0 0 24 24"><path fill="currentColor" d="M3.48 19q-.459 0-.695-.388t-.029-.788l2.27-4.345q.209-.398.582-.63t.838-.234q.485 0 .89.253t.589.717l.521 1.227q.185.4.688.366t.647-.43l2.092-6.675q.312-.988 1.155-1.57q.843-.58 1.87-.58q1.006 0 1.843.568q.838.569 1.155 1.526l3.606 9.908q.136.404-.109.74t-.668.335zm2.653-9.096q-1.018 0-1.748-.728q-.731-.729-.731-1.734q0-1.038.73-1.75q.731-.711 1.75-.711t1.73.711t.713 1.748q0 1.016-.713 1.74q-.712.724-1.73.724"/></svg>