<svg xmlns="http://www.w3.org/2000/svg" width="200" height="200" viewBox="0 0 24 24"><path fill="currentColor" d="M2.27 19.27q-.518 0-.894-.377Q1 18.517 1 18h3.615q-.69 0-1.152-.462Q3 17.075 3 16.385V5.615q0-.69.463-1.152Q3.925 4 4.615 4h14.77q.69 0 1.152.463q.463.462.463 1.152v10.77q0 .69-.462 1.152q-.463.463-1.153.463H23q0 .517-.376.893t-.893.376H2.269Zm9.73-.5q.252 0 .434-.182t.181-.434q0-.252-.181-.434q-.182-.182-.434-.182t-.434.182q-.181.182-.181.434t.181.434q.182.181.434.181ZM4.615 17h14.77q.23 0 .423-.192q.192-.193.192-.423V5.615q0-.23-.192-.423Q19.615 5 19.385 5H4.615q-.23 0-.423.192Q4 5.385 4 5.615v10.77q0 .23.192.423q.193.192.423.192ZM4 17V5v12Z"/></svg>