<svg xmlns="http://www.w3.org/2000/svg" width="200" height="200" viewBox="0 0 24 24"><path fill="currentColor" d="M12 21.154q-.69 0-1.201-.463q-.51-.462-.607-1.153h3.616q-.096.69-.607 1.153q-.51.463-1.201.463Zm4.604-7.092L7.427 4.858q.986-.912 2.116-1.385Q10.673 3 12 3q2.721 0 4.61 1.89T18.5 9.5q0 1.506-.538 2.605q-.539 1.099-1.358 1.957Zm3.558 6.369l-.714.713L13.304 15H8.558q-1.418-.929-2.238-2.356Q5.5 11.217 5.5 9.5q0-.52.091-1.08q.092-.562.236-.897l-3.158-3.17l.708-.707l16.785 16.785Zm-4.627-3.662v1H8.5v-1h7.035Z"/></svg>