<svg xmlns="http://www.w3.org/2000/svg" width="200" height="200" viewBox="0 0 24 24"><path fill="currentColor" d="M5.75 18.27q-.1 0-.175-.077t-.075-.177q0-.1.075-.174t.175-.073h12.5q.1 0 .175.076t.075.177q0 .101-.075.174q-.075.073-.175.073H5.75Zm.25-2.5q-.213 0-.356-.145T5.5 15.27q0-.213.144-.357q.143-.143.356-.143h12q.213 0 .356.144t.144.357q0 .213-.144.356T18 15.77H6Zm-.077-3q-.18 0-.301-.122q-.122-.122-.122-.302v-.23q0-.344.232-.576q.232-.232.576-.232h11.384q.344 0 .576.232q.232.232.232.575v.231q0 .18-.122.302q-.121.121-.301.121H5.923Zm.385-3.5q-.344 0-.576-.233q-.232-.232-.232-.575V6.538q0-.343.232-.575q.232-.232.576-.232h11.384q.344 0 .576.232q.232.232.232.575v1.924q0 .343-.232.575q-.232.232-.576.232H6.308Z"/></svg>