<svg xmlns="http://www.w3.org/2000/svg" width="200" height="200" viewBox="0 0 24 24"><path fill="currentColor" d="M4 21v-1h1.673v-3.488q-.798-.185-1.236-.755Q4 15.187 4 14.423V7.5h4.346v6.923q0 .725-.447 1.315q-.447.589-1.226.774V20h1.673v1H4Zm1-9.058h2.346V8.5H5v3.442Zm1.173 3.654q.483 0 .828-.345t.345-.828v-1.48H5v1.48q0 .483.345.828t.828.345ZM11.923 21V9.646l3.039-1.177V3h3v5.47L21 9.626V21h-9.077Zm4.039-15.904h1V4h-1v1.096Zm-3.039 7.5H20v-2.28l-3.038-1.158V6.096h-1v3.062l-3.039 1.157v2.281Zm0 7.404H20v-2.692h-7.077V20Zm0-3.692H20v-2.712h-7.077v2.712Zm-6.75-3.366Zm6.75 3.366v-2.712v2.712Z"/></svg>