<svg xmlns="http://www.w3.org/2000/svg" width="200" height="200" viewBox="0 0 24 24"><path fill="currentColor" d="M17.423 22.5v-3h-3v-1h3v-3h1v3h3v1h-3v3h-1Zm-9.306-5.962q.327 0 .547-.221q.22-.222.22-.55t-.22-.547q-.222-.22-.55-.22t-.548.222q-.22.221-.22.549q0 .327.222.547q.221.22.549.22Zm0-3.769q.327 0 .547-.221q.22-.222.22-.55t-.22-.547q-.222-.22-.55-.22t-.548.221q-.22.222-.22.55t.222.547q.221.22.549.22Zm0-3.769q.327 0 .547-.222q.22-.221.22-.549q0-.327-.22-.547q-.222-.22-.55-.22t-.548.221q-.22.222-.22.55t.222.547q.221.22.549.22Zm3.075 3.5h5.385v-1h-5.385v1Zm0-3.77h5.385v-1h-5.385v1ZM4 20V4h16v9.94q-.474-.207-1.01-.311q-.536-.104-1.067-.104q-1.193 0-2.229.464t-1.779 1.28h-2.723v1h2.004q-.367.61-.57 1.293q-.203.682-.203 1.438q0 .25.026.5t.088.5H4Z"/></svg>