<svg xmlns="http://www.w3.org/2000/svg" width="200" height="200" viewBox="0 0 24 24"><path fill="currentColor" d="M16.077 12.5q.212 0 .356-.144t.144-.357t-.144-.356q-.144-.143-.356-.143h-4.385q-.212 0-.356.144t-.144.357t.144.356q.144.143.356.143h4.385Zm0-3.77q.212 0 .356-.143t.144-.357q0-.213-.144-.356t-.356-.143h-4.385q-.212 0-.356.144t-.144.356q0 .213.144.357q.144.143.356.143h4.385Zm1.346 10.77h-2.5q-.212 0-.356-.144T14.423 19t.144-.356q.144-.143.356-.143h2.5V16q0-.213.144-.356t.357-.144q.213 0 .356.144t.143.356v2.5h2.5q.213 0 .356.144q.144.144.144.357t-.144.356q-.143.143-.356.143h-2.5V22q0 .213-.144.356q-.144.144-.357.144q-.212 0-.356-.144q-.143-.144-.143-.356v-2.5Zm-9.306-2.962q.327 0 .547-.221q.22-.222.22-.55t-.22-.547q-.222-.22-.55-.22t-.548.222q-.22.221-.22.549q0 .327.222.547q.221.22.549.22Zm0-3.769q.327 0 .547-.221q.22-.222.22-.55t-.22-.547q-.222-.22-.55-.22t-.548.221q-.22.222-.22.55t.222.547q.221.22.549.22Zm0-3.769q.327 0 .547-.222q.22-.221.22-.549q0-.327-.22-.547q-.222-.22-.55-.22t-.548.221q-.22.222-.22.55t.222.547q.221.22.549.22ZM5.615 20q-.666 0-1.14-.475Q4 19.051 4 18.385V5.615q0-.666.475-1.14Q4.949 4 5.615 4h12.77q.666 0 1.14.475q.475.474.475 1.14v8.325q-.474-.207-1.01-.311q-.536-.104-1.067-.104q-1.193 0-2.229.464t-1.779 1.28h-2.223q-.212 0-.356.144t-.144.357q0 .213.144.356t.356.143h1.504q-.367.61-.57 1.293q-.203.682-.203 1.438q0 .25.026.5t.088.5H5.615Z"/></svg>