<svg xmlns="http://www.w3.org/2000/svg" width="200" height="200" viewBox="0 0 24 24"><path fill="currentColor" d="M12 17.73q1.235 0 2.178-.692q.943-.694 1.34-1.786q-.208-.177-.416-.382q-.208-.205-.415-.399q-.17.989-.915 1.624q-.745.636-1.772.636q-1.165 0-1.948-.783T9.269 14q0-1.146.767-1.916q.766-.77 1.893-.815q-.166-.238-.306-.47q-.14-.232-.275-.476q-1.321.24-2.2 1.258Q8.27 12.598 8.27 14q0 1.567 1.082 2.65q1.082 1.08 2.649 1.08ZM4.615 21q-.69 0-1.152-.462Q3 20.075 3 19.385V8.615q0-.69.463-1.152Q3.925 7 4.615 7h2.958l1.365-1.485q.218-.242.528-.378q.31-.137.659-.137h.125q-.048.244-.072.485q-.024.24-.024.515h-.298L8.012 8H4.615q-.269 0-.442.173T4 8.615v10.77q0 .269.173.442t.442.173h14.77q.269 0 .442-.173t.173-.442V15.72q.25-.22.5-.457q.25-.237.5-.487v4.608q0 .69-.462 1.152q-.463.463-1.153.463H4.615ZM12 14ZM18 .538q-2.163 0-3.813 1.519q-1.649 1.518-1.649 4.093q0 2.412 1.655 4.258t3.247 3.352q.131.105.274.158t.286.053q.162 0 .298-.053q.137-.053.262-.158q1.592-1.506 3.247-3.352q1.655-1.846 1.655-4.258q0-2.575-1.65-4.093Q20.164.538 18 .538Zm0 12.422q-2.908-2.72-3.685-4.172q-.777-1.451-.777-2.619q0-2.275 1.407-3.443Q16.352 1.558 18 1.558t3.055 1.168q1.407 1.168 1.407 3.443q0 1.168-.777 2.62q-.777 1.451-3.685 4.17Zm0-5.668l-.975.752q-.13.087-.252.003t-.071-.22l.379-1.237l-1.05-.852q-.125-.086-.072-.22t.19-.133h1.26l.399-1.212q.05-.136.192-.136t.192.136l.398 1.212h1.262q.136 0 .19.133t-.054.22l-1.05.852l.38 1.237q.05.136-.062.22q-.112.084-.243-.003L18 7.292Zm0-.046Z"/></svg>