<svg xmlns="http://www.w3.org/2000/svg" width="200" height="200" viewBox="0 0 24 24"><path fill="currentColor" d="M6.027 21L4 3h16l-2.008 18H6.027Zm-.3-11.615L6.923 20h10.173l1.196-10.615H5.727Zm-.135-1h12.835L18.865 4H5.115l.477 4.385ZM12 17.115q-.562 0-.956-.394q-.394-.394-.394-.956q0-.51.28-1.083q.28-.574 1.07-1.66q.79 1.086 1.07 1.66q.28.574.28 1.083q0 .562-.394.956q-.394.394-.956.394Zm0 1q.988 0 1.67-.68q.68-.681.68-1.67q0-.794-.48-1.696q-.48-.902-1.87-2.684q-1.39 1.782-1.87 2.684q-.48.902-.48 1.696q0 .989.68 1.67q.682.68 1.67.68ZM6.923 20h10.173H6.923Z"/></svg>