<svg xmlns="http://www.w3.org/2000/svg" width="200" height="200" viewBox="0 0 24 24"><path fill="currentColor" d="M4.615 20q-.666 0-1.14-.475Q3 19.051 3 18.385v-8.077q0-.384.172-.727t.474-.566l5.385-4.077q.223-.161.466-.242t.507-.08t.504.08t.461.242l2.38 1.8q.207.166.21.357q.003.192-.11.358q-.111.166-.304.214t-.407-.117l-2.373-1.8q-.153-.135-.365-.135t-.365.135L4.25 9.808q-.115.096-.183.22t-.067.28v8.077q0 .269.173.442t.442.173h3q.213 0 .357.144t.143.357t-.143.356t-.357.143zM16 16.192q1.273 0 2.478.321q1.205.322 2.297.977q.315.198.52.507t.205.68v.346q0 .396-.271.687t-.706.29h-9.046q-.396 0-.687-.29t-.29-.687v-.346q0-.371.205-.68t.52-.507q1.092-.655 2.297-.977q1.205-.32 2.478-.32M11.535 19h8.93v-.538q-1.028-.597-2.148-.933T16 17.192t-2.317.337q-1.12.336-2.148.933zm4.467-4.904q-1.04 0-1.771-.728q-.731-.729-.731-1.77t.729-1.771t1.769-.73t1.771.728t.731 1.769t-.728 1.771t-1.77.731m-.002-1q.617 0 1.059-.441q.441-.442.441-1.059t-.441-1.058T16 10.096t-1.059.442t-.441 1.058t.441 1.059q.442.441 1.059.441M16 19"/></svg>