<svg xmlns="http://www.w3.org/2000/svg" width="200" height="200" viewBox="0 0 24 24"><path fill="currentColor" d="M15 18v2.23q0 .31-.23.54q-.23.23-.54.23H3.77q-.31 0-.54-.23q-.23-.23-.23-.54v-6.46q0-.31.23-.54q.23-.23.54-.23H7V8q0-2.077 1.462-3.538Q9.923 3 12 3h4q2.077 0 3.538 1.462Q21 5.923 21 8v13h-1v-3h-5Zm0-1h5V8q0-1.65-1.175-2.825T16 4h-4q-1.65 0-2.825 1.175T8 8v5h6.23q.31 0 .54.23q.23.23.23.54V17Zm-4.5-7.5v-1h7v1h-7ZM9 16.85L14 14H4l5 2.85Zm0 1.02l-5-2.85V20h10v-4.98l-5 2.85ZM4 14v6v-6Z"/></svg>