<svg xmlns="http://www.w3.org/2000/svg" width="200" height="200" viewBox="0 0 24 24"><path fill="currentColor" d="m12.97 4.958l5.384 4.057q.303.222.474.566q.172.343.172.727v8.077q0 .666-.475 1.14q-.474.475-1.14.475H6.615q-.666 0-1.14-.475Q5 19.051 5 18.385v-8.077q0-.384.172-.727q.171-.343.474-.566l5.385-4.057q.422-.323.966-.323q.543 0 .972.323Zm-.972 9.542q1.04 0 1.771-.729q.731-.728.731-1.769q0-1.04-.729-1.771q-.728-.731-1.769-.731t-1.771.729q-.731.728-.731 1.769t.729 1.771q.728.731 1.769.731Zm.002-1q-.617 0-1.059-.441Q10.5 12.617 10.5 12t.441-1.059Q11.383 10.5 12 10.5t1.059.441q.441.442.441 1.059t-.441 1.059q-.442.441-1.059.441Zm-.051 4q-1.282 0-2.487.385q-1.206.384-2.274 1.115h9.527q-1.048-.73-2.266-1.115q-1.22-.385-2.5-.385ZM6 10.308v8.384q1.262-1.052 2.78-1.622q1.52-.57 3.162-.57q1.677 0 3.227.56q1.55.561 2.831 1.613v-8.365q0-.154-.067-.28q-.068-.124-.183-.22l-5.385-4.039q-.153-.134-.365-.134t-.365.134L6.25 9.808q-.115.096-.183.22q-.067.126-.067.28ZM12 12Z"/></svg>