<svg xmlns="http://www.w3.org/2000/svg" width="200" height="200" viewBox="0 0 24 24"><path fill="currentColor" d="M12 20.192L3.346 7.231q1.875-1.473 4.066-2.352Q9.604 4 12 4t4.588.866q2.19.867 4.066 2.365L12 20.192Zm0-1.792l7.3-10.95q-1.625-1.125-3.475-1.787T12 5q-1.975 0-3.813.663T4.7 7.45L12 18.4ZM8.844 9.423q.416 0 .709-.29q.293-.292.293-.708q0-.415-.29-.709q-.292-.293-.708-.293q-.415 0-.709.291q-.293.291-.293.707t.291.709q.291.293.707.293Zm3.154 5.077q.415 0 .709-.291q.293-.291.293-.707q0-.415-.291-.709q-.291-.293-.707-.293q-.415 0-.709.291q-.293.291-.293.707q0 .415.291.709q.291.293.707.293ZM12 18.4Z"/></svg>