<svg xmlns="http://www.w3.org/2000/svg" width="200" height="200" viewBox="0 0 24 24"><path fill="currentColor" d="M5 21V3h14v18H5Zm1-1h12V4H6v16Zm6-1.77q1.756 0 2.993-1.237T16.231 14q0-1.756-1.238-2.993T12 9.769q-1.756 0-2.993 1.238T7.769 14q0 1.756 1.238 2.993T12 18.231Zm0-.93q-.65 0-1.253-.247q-.603-.247-1.059-.703l4.662-4.662q.456.456.703 1.062q.247.607.247 1.25q0 1.375-.963 2.337T12 17.3ZM8 7q.425 0 .713-.288T9 6q0-.425-.288-.713T8 5q-.425 0-.713.288T7 6q0 .425.288.713T8 7Zm3 0q.425 0 .713-.288T12 6q0-.425-.288-.713T11 5q-.425 0-.713.288T10 6q0 .425.288.713T11 7ZM6 20V4v16Z"/></svg>