<svg xmlns="http://www.w3.org/2000/svg" width="200" height="200" viewBox="0 0 24 24"><path fill="currentColor" d="M9.93 15L12 13.4l2.02 1.562l-.782-2.516l2.147-1.661H12.83L12 8.23l-.83 2.554H8.614l2.097 1.661L9.93 15ZM3 19v-4.192q.883-.327 1.441-1.088Q5 12.96 5 12t-.559-1.72Q3.883 9.52 3 9.192V5h18v4.192q-.883.327-1.441 1.088Q19 11.04 19 12t.559 1.72q.558.76 1.441 1.088V19H3Zm1-1h16v-2.55q-.925-.55-1.463-1.462T18 12q0-1.075.537-1.988T20 8.55V6H4v2.55q.925.55 1.463 1.463T6 12q0 1.075-.537 1.988T4 15.45V18Zm8-6Z"/></svg>