<svg xmlns="http://www.w3.org/2000/svg" width="200" height="200" viewBox="0 0 24 24"><path fill="currentColor" d="M17.615 17.615q.625 0 1.063-.437t.437-1.063t-.437-1.062t-1.063-.438t-1.062.438t-.438 1.062t.438 1.063t1.062.437m0 3q.75 0 1.4-.35t1.075-.975q-.575-.35-1.2-.512t-1.275-.163t-1.275.163t-1.2.512q.425.625 1.075.975t1.4.35M9 9h6V7q0-1.25-.875-2.125T12 4t-2.125.875T9 7zM6.615 21q-.666 0-1.14-.475Q5 20.051 5 19.385v-8.77q0-.666.475-1.14Q5.949 9 6.615 9H8V7q0-1.671 1.164-2.836T12 3t2.836 1.164T16 7v2h1.385q.666 0 1.14.475q.475.474.475 1.14v.285q0 .341-.27.562t-.624.184q-.117-.006-.248-.009q-.13-.002-.262-.002q-2.483 0-4.232 1.749t-1.749 4.231q0 .628.124 1.245t.38 1.19q.143.329-.028.64t-.518.31zm11 .615q-1.67 0-2.835-1.164t-1.165-2.836t1.165-2.835t2.835-1.165t2.836 1.165t1.164 2.835t-1.164 2.836q-1.164 1.164-2.836 1.164"/></svg>