<svg xmlns="http://www.w3.org/2000/svg" width="200" height="200" viewBox="0 0 24 24"><path fill="currentColor" d="M8.077 17.577q-1.16 0-1.862-.65q-.702-.648-.702-1.62q0-1.06.834-1.696t2.145-.636q.537 0 1.087.11t.97.303V12.8q0-.975-.494-1.483q-.493-.507-1.44-.507q-.413 0-.814.131t-.74.357q-.17.135-.333.079t-.26-.198t-.08-.302t.199-.283q.442-.304.97-.453q.53-.149 1.064-.149q1.437 0 2.133.736q.696.735.696 2.207v3.963q0 .19-.132.32t-.322.128t-.32-.132t-.128-.322v-.567h-.1q-.427.633-.998.942t-1.373.31m.07-.812q1.028 0 1.717-.734q.69-.735.69-1.843q-.35-.2-.886-.312t-1.049-.113q-.992 0-1.577.399t-.584 1.146q0 .615.467 1.036t1.221.421m8.392-1.103V9.115q0-.213.144-.356t.356-.144t.357.144t.143.356v6.547l1.747-1.747q.14-.14.344-.15t.363.15t.16.354t-.16.354l-2.388 2.389q-.242.242-.566.242t-.565-.242l-2.388-2.389q-.14-.14-.15-.344t.15-.364t.353-.16t.354.16z"/></svg>