<svg xmlns="http://www.w3.org/2000/svg" width="200" height="200" viewBox="0 0 24 24"><path fill="currentColor" d="M8.077 17.577q-1.16 0-1.862-.65q-.702-.648-.702-1.62q0-1.06.834-1.696t2.145-.636q.537 0 1.087.11t.97.303V12.8q0-.975-.494-1.483q-.493-.507-1.44-.507q-.517 0-.963.18t-.892.552l-.637-.567q.562-.513 1.16-.748q.6-.235 1.338-.235q1.437 0 2.133.736q.696.735.696 2.207v4.411h-.902v-1.021h-.1q-.427.633-.998.942t-1.373.31m.07-.812q1.028 0 1.717-.734q.69-.735.69-1.843q-.35-.2-.886-.312t-1.049-.113q-.992 0-1.577.399t-.584 1.146q0 .615.467 1.036t1.221.421m8.892.812l-3.307-3.308l.707-.707l2.1 2.1V8.615h1v7.047l2.1-2.1l.708.707z"/></svg>