<svg xmlns="http://www.w3.org/2000/svg" width="200" height="200" viewBox="0 0 24 24"><path fill="currentColor" d="M7.615 20q-.666 0-1.14-.475Q6 19.051 6 18.385V7.923q0-.633.434-1.066q.433-.434 1.066-.434h2v-2.5q0-.385.27-.654T10.422 3h3.154q.385 0 .654.27t.269.653v2.5h1.885q.666 0 1.14.475q.475.474.475 1.14v10.347q0 .666-.475 1.14q-.474.475-1.14.475v.23q0 .31-.23.54q-.23.23-.54.23q-.31 0-.539-.23q-.23-.23-.23-.54V20H9.154v.23q0 .31-.23.54q-.23.23-.54.23q-.309 0-.539-.23q-.23-.23-.23-.54V20Zm1.173-2.77q.19 0 .317-.125q.126-.125.126-.317V9.635q0-.192-.125-.317t-.317-.126q-.19 0-.317.126q-.126.125-.126.317v7.153q0 .192.125.317q.125.126.317.126Zm3.211 0q.191 0 .317-.125t.126-.317V9.635q0-.192-.125-.317q-.125-.126-.316-.126t-.317.126q-.126.125-.126.317v7.153q0 .192.125.317q.125.126.316.126Zm3.212 0q.19 0 .317-.125q.126-.125.126-.317V9.635q0-.192-.125-.317t-.317-.126q-.19 0-.317.126q-.126.125-.126.317v7.153q0 .192.125.317t.317.126ZM10.385 6.424h3.23V3.885h-3.23v2.538Z"/></svg>