<svg xmlns="http://www.w3.org/2000/svg" width="200" height="200" viewBox="0 0 24 24"><path fill="currentColor" d="M7.615 20q-.666 0-1.14-.475Q6 19.051 6 18.385V7.923q0-.633.434-1.066q.433-.434 1.066-.434h2v-2.5q0-.385.27-.654T10.422 3h3.154q.385 0 .654.27t.269.653v2.5h1.885q.666 0 1.14.475q.475.474.475 1.14v10.347q0 .666-.475 1.14q-.474.475-1.14.475v.23q0 .31-.23.54q-.23.23-.54.23q-.31 0-.539-.23q-.23-.23-.23-.54V20H9.154v.23q0 .31-.23.54q-.23.23-.54.23q-.309 0-.539-.23q-.23-.23-.23-.54V20Zm0-1h8.77q.269 0 .442-.173t.173-.442V8.038q0-.269-.173-.442t-.442-.173h-8.77q-.269 0-.442.173T7 8.038v10.347q0 .269.173.442t.442.173Zm.731-1.77h.885V9.193h-.885v8.039Zm3.212 0h.884V9.193h-.884v8.039Zm3.211 0h.885V9.193h-.885v8.039ZM12 13.213Zm-1.615-6.789h3.23V3.885h-3.23v2.538Z"/></svg>