<svg xmlns="http://www.w3.org/2000/svg" width="200" height="200" viewBox="0 0 24 24"><path fill="currentColor" d="M4.615 20q-.666 0-1.14-.475Q3 19.051 3 18.385v-2.77h18v2.77q0 .666-.475 1.14q-.474.475-1.14.475H4.615ZM12 12.615q-.88 0-1.358.5q-.477.5-1.646.5q-1.17 0-1.64-.5q-.471-.5-1.352-.5q-.88 0-1.358.5q-.477.5-1.646.5v-1q.88 0 1.358-.5q.477-.5 1.646-.5q1.17 0 1.64.5q.471.5 1.352.5q.88 0 1.358-.5q.477-.5 1.646-.5q1.17 0 1.646.5q.477.5 1.358.5q.88 0 1.333-.5q.451-.5 1.62-.5q1.17 0 1.678.5t1.365.5v1q-1.17 0-1.615-.5q-.447-.5-1.327-.5q-.881 0-1.383.5t-1.671.5q-1.17 0-1.646-.5q-.477-.5-1.358-.5Zm-9-3V9q0-2.356 2.087-3.678Q7.176 4 12 4t6.913 1.322Q21 6.644 21 9v.615H3Z"/></svg>