<svg xmlns="http://www.w3.org/2000/svg" width="200" height="200" viewBox="0 0 24 24"><path fill="currentColor" d="M7.577 13.5h2q.212 0 .356-.144t.144-.357t-.144-.356t-.356-.143h-2q-.213 0-.356.144q-.144.144-.144.357t.144.356t.356.143m11.04-2q-1.04 0-1.77-.728t-.732-1.77t.73-1.771t1.77-.731q.487 0 .823.137t.677.461v-4.79q0-.344.233-.576t.575-.232h1.692q.213 0 .357.144q.143.144.143.357t-.143.356t-.357.143h-1.5V9q0 1.042-.728 1.77q-.729.73-1.77.73m-11.04-1h5q.212 0 .356-.144t.144-.357t-.144-.356t-.356-.143h-5q-.213 0-.356.144q-.144.144-.144.357t.144.356t.356.143m0-3h5q.212 0 .356-.144t.144-.357t-.144-.356t-.356-.143h-5q-.213 0-.356.144q-.144.144-.144.357t.144.356t.356.143M6.154 17L4.95 18.204q-.379.379-.876.17q-.497-.207-.497-.741V4.615q0-.666.474-1.14Q4.526 3 5.192 3h9.77q.614 0 1.08.378q.466.379.466.976q0 .26-.115.465q-.114.204-.331.34q-.985.637-1.524 1.652Q14 7.825 14 8.998q0 1.217.586 2.262q.585 1.044 1.626 1.68q.47.29.748.768t.278 1.023q0 .942-.672 1.606q-.672.663-1.604.663z"/></svg>