<svg xmlns="http://www.w3.org/2000/svg" width="200" height="200" viewBox="0 0 24 24"><path fill="currentColor" d="M4.577 16V4zm10.385 1H6.154L4.95 18.204q-.379.379-.876.17q-.497-.207-.497-.741V4.615q0-.666.474-1.14Q4.526 3 5.192 3h9.77q.666 0 1.14.475q.475.474.475 1.14v1.039q0 .212-.144.356t-.357.144t-.356-.144t-.143-.356V4.615q0-.269-.173-.442T14.962 4h-9.77q-.269 0-.442.173t-.173.442V16h10.385q.269 0 .442-.173t.173-.442v-2.693q0-.212.144-.356t.357-.144t.356.144t.143.356v2.693q0 .666-.475 1.14q-.474.475-1.14.475m-7.385-3.5h2q.212 0 .356-.144t.144-.357t-.144-.356t-.356-.143h-2q-.213 0-.356.144q-.144.144-.144.357t.144.356t.356.143m11.04-2q-1.04 0-1.77-.728t-.732-1.77t.73-1.771t1.77-.731q.487 0 .823.137t.677.461v-4.79q0-.344.233-.576t.575-.232h1.692q.213 0 .357.144q.143.144.143.357t-.143.356t-.357.143h-1.5V9q0 1.042-.728 1.77q-.729.73-1.77.73m-11.04-1h5q.212 0 .356-.144t.144-.357t-.144-.356t-.356-.143h-5q-.213 0-.356.144q-.144.144-.144.357t.144.356t.356.143m0-3h5q.212 0 .356-.144t.144-.357t-.144-.356t-.356-.143h-5q-.213 0-.356.144q-.144.144-.144.357t.144.356t.356.143"/></svg>