<svg xmlns="http://www.w3.org/2000/svg" width="200" height="200" viewBox="0 0 24 24"><path fill="currentColor" d="M20.075 21.496L17.573 19H4.615q-.69 0-1.152-.462T3 17.385V6.615q0-.69.463-1.152T4.615 5H5l1 1H4.615q-.23 0-.423.192T4 6.615v10.77q0 .23.192.423t.423.192h11.958L2.96 4.387q-.147-.147-.156-.348t.156-.366t.356-.165t.357.165l17.115 17.115q.147.147.156.345t-.156.363t-.356.166t-.357-.166M21 6.616V16.98q0 .25-.159.375t-.341.125t-.341-.128t-.159-.378V6.885l-5.915 3.867q-.197.129-.368.074t-.269-.214t-.077-.334t.217-.303L19.692 6H9.025q-.25 0-.375-.159T8.525 5.5t.125-.341T9.025 5h10.36q.69 0 1.152.463T21 6.615"/></svg>