<svg xmlns="http://www.w3.org/2000/svg" width="200" height="200" viewBox="0 0 24 24"><path fill="currentColor" d="M4.615 19q-.69 0-1.152-.462Q3 18.075 3 17.385V6.615q0-.69.463-1.152Q3.925 5 4.615 5h14.77q.69 0 1.152.463q.463.462.463 1.152v2.616h-1V6.885l-7.552 4.944q-.106.056-.214.093T12 11.96q-.125 0-.234-.038t-.214-.093L4 6.885v10.5q0 .269.173.442t.442.173h11v1h-11ZM12 11l7.692-5H4.308L12 11Zm-8 7V6.885v.211v-.821v.025V6v.32v-.052v.828v-.211V18Zm14.5 1q-.367 0-.626-.259q-.259-.258-.259-.626v-3q0-.367.288-.626q.287-.258.712-.258v-1.116q0-.786.55-1.335q.548-.55 1.335-.55q.787 0 1.336.55q.549.549.549 1.335v1.116q.425 0 .712.258t.288.626v3q0 .368-.259.626q-.259.259-.626.259h-4Zm.885-4.77h2.23v-1.115q0-.463-.326-.789T20.5 12q-.463 0-.79.326q-.325.326-.325.79v1.115Z"/></svg>