<svg xmlns="http://www.w3.org/2000/svg" width="200" height="200" viewBox="0 0 24 24"><path fill="currentColor" d="M20.075 21.496L17.573 19H4.615q-.69 0-1.152-.462T3 17.385V6.615q0-.69.463-1.152T4.615 5H5l1 1H4.573L2.96 4.387q-.147-.147-.156-.348t.156-.366t.356-.165t.357.165l17.115 17.115q.147.147.156.345t-.156.363t-.356.166t-.357-.166m.415-4.52q-.217.087-.444.06q-.227-.028-.42-.22l-5.847-5.849l5.898-3.87q.196-.13.217-.304t-.077-.333t-.269-.212t-.367.077L13.11 10.3L9.186 6.373q-.193-.192-.22-.42t.058-.443t.273-.364t.46-.146h9.629q.69 0 1.152.463T21 6.615v9.63q0 .272-.146.459t-.364.273"/></svg>