<svg xmlns="http://www.w3.org/2000/svg" width="200" height="200" viewBox="0 0 24 24"><path fill="currentColor" d="M11.962 5q-1.552 0-2.918.656q-1.365.656-2.41 1.806h1.981q.214 0 .357.143t.143.357q0 .213-.143.356q-.143.144-.357.144H5.77q-.348 0-.578-.23q-.23-.23-.23-.578V4.808q0-.214.144-.357q.143-.143.357-.143q.213 0 .356.143q.144.143.144.357v1.888q1.16-1.273 2.718-1.984Q10.238 4 11.962 4q3.326 0 5.663 2.337Q19.962 8.673 19.962 12v.27h-1V12q0-2.925-2.038-4.963T11.962 5Zm-.272 15q-2.76-.096-4.867-1.856q-2.108-1.76-2.677-4.434q-.067-.233.058-.42q.125-.186.338-.217q.208-.03.37.092q.161.123.228.331q.487 2.187 2.108 3.671q1.621 1.485 3.82 1.771L11.69 20Zm2.237-5.385l-2.165-2.165q-.131-.13-.187-.27t-.056-.301V7.5q0-.213.144-.357T12.018 7q.214 0 .357.143q.143.144.143.357v4.292l1.939 1.939l-.531.884Zm5.367 8.885q-.157 0-.266-.1t-.145-.258l-.131-.854q-.473-.086-.9-.32q-.425-.233-.758-.606l-.86.282q-.132.043-.262-.006q-.13-.048-.209-.169l-.065-.138q-.079-.127-.058-.275q.022-.148.143-.239l.665-.532q-.185-.48-.185-.997t.185-1.034l-.685-.552q-.12-.09-.151-.245t.048-.301l.09-.144q.079-.122.215-.18q.137-.057.289.005l.86.32q.332-.353.739-.577q.407-.224.899-.33l.13-.86q.037-.157.146-.254q.109-.098.266-.098h.131q.158 0 .266.1t.146.258l.13.854q.512.106.94.355q.43.249.737.622l.868-.321q.157-.068.3-.01q.142.058.22.204l.085.138q.08.147.048.304q-.03.158-.152.248l-.723.552q.166.518.166.99t-.166.895l.762.59q.121.09.152.236q.03.145-.048.272l-.09.144q-.08.121-.206.17q-.127.048-.26.005l-.956-.32q-.313.372-.74.625q-.425.253-.937.34l-.13.86q-.037.157-.146.254q-.108.097-.266.097h-.13Zm.066-2.077q.882 0 1.518-.635q.635-.636.635-1.519q0-.882-.635-1.518q-.636-.636-1.518-.636q-.883 0-1.519.636q-.635.636-.635 1.518q0 .883.635 1.519q.636.635 1.519.635Z"/></svg>