<svg xmlns="http://www.w3.org/2000/svg" width="200" height="200" viewBox="0 0 24 24"><path fill="currentColor" d="M7 13.5h6q.213 0 .356-.144q.144-.144.144-.357t-.144-.356Q13.213 12.5 13 12.5H7q-.213 0-.356.144q-.144.144-.144.357t.144.356q.144.143.356.143Zm0-3h10q.213 0 .356-.144q.144-.144.144-.357t-.144-.356Q17.213 9.5 17 9.5H7q-.213 0-.356.144Q6.5 9.788 6.5 10t.144.356q.144.143.356.143Zm0-3h9.442v-.023q-.367-.18-.64-.418q-.271-.238-.494-.559H7q-.213 0-.356.144q-.144.144-.144.357t.144.356Q6.788 7.5 7 7.5ZM6.077 17l-1.704 1.704q-.379.379-.876.17Q3 18.668 3 18.134V4.615q0-.69.463-1.152Q3.925 3 4.615 3H14.6q-.062.25-.071.49q-.01.24-.006.51H4.615q-.23 0-.423.192Q4 4.385 4 4.615v13.03L5.65 16h13.735q.23 0 .423-.192q.192-.193.192-.423V8.342q.287-.067.527-.155q.24-.087.473-.225v7.432q0 .681-.462 1.144q-.463.462-1.153.462H6.077ZM19.002 6.462q-1.04 0-1.771-.729q-.731-.728-.731-1.77q0-1.04.729-1.77q.728-.731 1.769-.731q1.04 0 1.771.728q.731.729.731 1.77q0 1.04-.729 1.77q-.728.732-1.769.732ZM4 4.615v12.77V4v.615Z"/></svg>