<svg xmlns="http://www.w3.org/2000/svg" width="200" height="200" viewBox="0 0 24 24"><path fill="currentColor" d="m6.077 17l-1.704 1.704q-.379.379-.876.174Q3 18.673 3 18.133V4.615q0-.69.463-1.152Q3.925 3 4.615 3H14.6q-.062.25-.071.49q-.01.24-.006.51H4.615q-.23 0-.423.192Q4 4.385 4 4.615v13.03L5.65 16h13.735q.23 0 .423-.192q.192-.193.192-.423V8.342q.287-.067.527-.155q.24-.087.473-.225v7.423q0 .69-.462 1.153q-.463.462-1.153.462H6.077ZM19 6.462q-1.038 0-1.77-.731Q16.5 5 16.5 3.96q0-1.038.73-1.769q.732-.73 1.77-.73t1.77.73q.73.731.73 1.77q0 1.038-.73 1.769q-.732.73-1.77.73ZM4 4.615v12.77V4v.615Z"/></svg>