<svg xmlns="http://www.w3.org/2000/svg" width="200" height="200" viewBox="0 0 24 24"><path fill="currentColor" d="M4.615 19q-.69 0-1.152-.462Q3 18.075 3 17.385V6.615q0-.69.463-1.152Q3.925 5 4.615 5h9.947q-.043.25-.052.49q-.01.24.013.51H4v11.385q0 .269.173.442t.442.173h14.77q.269 0 .442-.173t.173-.442V10.15q.287-.067.527-.158q.24-.09.473-.223v7.616q0 .69-.462 1.152q-.463.463-1.153.463H4.615ZM4 6v12V6Zm8 5l3.573-2.333q.177.171.359.332q.181.16.381.297L12.43 11.83q-.212.13-.429.14q-.217.01-.429-.12L4 7.095V6l8 5Zm7-2.73q-1.038 0-1.77-.732q-.73-.73-.73-1.769q0-1.038.73-1.769q.732-.73 1.77-.73t1.77.73q.73.73.73 1.77q0 1.038-.73 1.768q-.732.731-1.77.731Z"/></svg>