<svg xmlns="http://www.w3.org/2000/svg" width="200" height="200" viewBox="0 0 24 24"><path fill="currentColor" d="M4.615 19q-.67 0-1.143-.472Q3 18.056 3 17.385V6.615q0-.67.472-1.143Q3.944 5 4.615 5h14.77q.67 0 1.143.472q.472.472.472 1.143v4.927l-5.506 5.487l-1.719-1.72q-.46-.459-1.137-.459q-.676 0-1.136.46l-1.298 1.298q-.46.46-.46 1.098q0 .638.46 1.098L10.4 19H4.615ZM12 11L4.82 6.32q-.195-.122-.402-.045q-.206.077-.264.288q-.077.149-.025.298t.194.235l7.229 4.733q.211.13.448.13q.237 0 .448-.13l7.229-4.733q.142-.086.194-.245t-.025-.307q-.058-.211-.264-.279q-.207-.067-.401.054L12 11Zm3.488 8.854l5.335-5.335q.14-.14.344-.15q.204-.01.364.15t.16.354t-.16.354l-5.477 5.477q-.242.242-.566.242q-.323 0-.565-.242l-2.638-2.639q-.14-.14-.15-.344q-.01-.204.15-.363q.16-.16.353-.16q.195 0 .354.16l2.496 2.496Z"/></svg>