<svg xmlns="http://www.w3.org/2000/svg" width="200" height="200" viewBox="0 0 24 24"><path fill="currentColor" d="M19 6.462q-1.038 0-1.77-.731Q16.5 5 16.5 3.96q0-1.038.73-1.769q.732-.73 1.77-.73t1.77.73q.73.731.73 1.77q0 1.038-.73 1.769q-.732.73-1.77.73ZM6.077 17l-1.704 1.704q-.379.379-.876.174Q3 18.673 3 18.133V4.615q0-.69.463-1.152Q3.925 3 4.615 3H14.6q-.062.25-.071.49q-.01.24-.006.51q.08 1.956 1.379 3.209Q17.2 8.462 19 8.462q.512 0 1.027-.125q.515-.125.973-.375v7.423q0 .69-.462 1.153q-.463.462-1.153.462H6.077Z"/></svg>