<svg xmlns="http://www.w3.org/2000/svg" width="200" height="200" viewBox="0 0 24 24"><path fill="currentColor" d="M6.5 13.5h7v-1h-7v1Zm0-3h11v-1h-11v1Zm0-3h9.942v-.023q-.367-.18-.64-.418q-.271-.238-.494-.559H6.5v1ZM3 20.077V3h11.6q-.062.25-.071.49q-.01.24-.006.51H4v13.644L5.65 16H20V8.342q.287-.067.527-.155q.24-.087.473-.225V17H6.077L3 20.077ZM4 4.615v12.77V4v.615Zm15.002 1.847q-1.04 0-1.771-.729q-.731-.728-.731-1.77q0-1.04.729-1.77q.728-.731 1.769-.731q1.04 0 1.771.728q.731.729.731 1.77q0 1.04-.729 1.77q-.728.732-1.769.732Z"/></svg>