<svg xmlns="http://www.w3.org/2000/svg" width="200" height="200" viewBox="0 0 24 24"><path fill="currentColor" d="m19.523 20.938l-3.454-3.453l-.925.925q-.117.117-.28.127q-.164.01-.3-.127q-.137-.137-.137-.29t.136-.291l.925-.925l-4.988-4.989v4.893q0 1.284-.887 2.142q-.886.858-2.113.858t-2.113-.848q-.887-.848-.887-2.152q0-1.246.877-2.123q.877-.877 2.123-.877q.69 0 1.188.243q.497.243.812.576v-3.712l-6.13-6.13q-.141-.14-.15-.345q-.01-.203.15-.363q.159-.16.353-.16t.354.16L20.23 20.23q.14.14.15.344q.01.204-.15.363q-.16.16-.354.16t-.354-.16Zm1.254-3.011l-6.53-6.48l.022-.024q.223-.223.546-.223q.323 0 .547.223l2.396 2.396v-3.211q0-.535.497-.743q.497-.207.876.172l1.644 1.644q.242.242.236.565q-.007.323-.25.566l-2.015 1.996l2.048 2.004q.223.223.223.549q0 .326-.223.549l-.017.017Zm-2.204-4.108l1.612-1.573l-1.612-1.6v3.173ZM10.5 7.65l-1-1V5q0-.348.23-.578q.23-.23.578-.23h3.269q.348 0 .578.23q.23.23.23.578v.923q0 .348-.23.578q-.23.23-.578.23H10.5v.919Z"/></svg>