<svg xmlns="http://www.w3.org/2000/svg" width="200" height="200" viewBox="0 0 24 24"><path fill="currentColor" d="M12 21q-1.863 0-3.506-.71t-2.857-1.927t-1.926-2.857T3 12V6.115q0-.51.444-.727t.848.081l4.066 3.056q.611-1.002 1.335-2.056t1.597-2.146q.287-.361.71-.352t.71.352q.853 1.092 1.587 2.134t1.345 2.068l4.066-3.056q.404-.298.848-.08t.444.726V12q0 1.863-.71 3.506t-1.927 2.857t-2.857 1.926T12 21m-6-6q0-1.137.463-2.553q.462-1.416 1.377-3.062L4 6.5V12q0 1.908.845 3.507t2.268 2.628q-.511-.635-.812-1.43T6 15m6 5q2.075 0 3.538-1.463T17 15q0-1.765-1.308-4.454Q14.385 7.858 12 5q-2.385 2.87-3.692 5.552T7 15q0 2.075 1.463 3.538T12 20m6-5q0 .91-.301 1.705t-.812 1.43q1.423-1.03 2.268-2.628Q20 13.907 20 12V6.5l-3.84 2.879q.915 1.646 1.378 3.062T18 15"/></svg>