<svg xmlns="http://www.w3.org/2000/svg" width="200" height="200" viewBox="0 0 24 24"><path fill="currentColor" d="M5.5 15q0 1.506.651 2.788t1.724 2.116q-2.171-1.087-3.523-3.185T3 12V6.115q0-.51.444-.727t.848.081l3.7 2.775q-1.236 2.054-1.864 3.75T5.5 15m6.5 5.5q-2.288 0-3.894-1.606T6.5 15q0-1.663 1.171-4.183t3.335-5.348q.379-.484.994-.494t.994.494q2.158 2.823 3.332 5.345Q17.5 13.337 17.5 15q0 2.288-1.606 3.894T12 20.5m6.5-5.5q0-1.312-.638-3.016t-1.854-3.74l3.7-2.775q.404-.298.848-.08t.444.726V12q0 2.621-1.352 4.72t-3.523 3.184q1.073-.835 1.724-2.116T18.5 15"/></svg>