<svg xmlns="http://www.w3.org/2000/svg" width="200" height="200" viewBox="0 0 24 24"><path fill="currentColor" d="M4.615 19q-.666 0-1.14-.475Q3 18.051 3 17.385V6.615q0-.666.475-1.14Q3.949 5 4.615 5h14.77q.666 0 1.14.475q.475.474.475 1.14v10.77q0 .666-.475 1.14q-.474.475-1.14.475zm2.077-2.885h6.612q.352 0 .582-.232t.23-.575V8.696q0-.352-.233-.582q-.232-.23-.575-.23H6.696q-.352 0-.582.233q-.23.232-.23.575v6.612q0 .352.233.582q.232.23.575.23m10.923 0q.31 0 .54-.23t.23-.54t-.23-.54t-.54-.23t-.539.23t-.23.54t.23.54t.54.23m-10.731-1V8.884h6.23v6.23zm10.73-2.347q.31 0 .54-.23t.23-.539t-.23-.54t-.54-.23t-.539.23t-.23.54t.23.54t.54.23m0-3.347q.309 0 .539-.23t.23-.54t-.23-.539t-.54-.23t-.539.23t-.23.54t.23.54t.54.23"/></svg>