<svg xmlns="http://www.w3.org/2000/svg" width="200" height="200" viewBox="0 0 24 24"><path fill="currentColor" d="M4.615 19q-.666 0-1.14-.475Q3 18.051 3 17.385V6.615q0-.666.475-1.14Q3.949 5 4.615 5h14.77q.666 0 1.14.475q.475.474.475 1.14v10.77q0 .666-.475 1.14q-.474.475-1.14.475H4.615Zm1.27-2.885h8.23v-8.23h-8.23v8.23Zm11.73 0q.31 0 .54-.23q.23-.23.23-.539q0-.31-.23-.54q-.23-.23-.54-.23q-.31 0-.539.23q-.23.23-.23.54q0 .31.23.54q.23.23.54.23Zm-10.73-1v-6.23h6.23v6.23h-6.23Zm10.73-2.346q.31 0 .54-.23q.23-.23.23-.539q0-.31-.23-.54q-.23-.23-.54-.23q-.31 0-.539.23q-.23.23-.23.54q0 .31.23.54q.23.23.54.23Zm0-3.346q.31 0 .54-.23q.23-.23.23-.54q0-.309-.23-.539q-.23-.23-.54-.23q-.31 0-.539.23q-.23.23-.23.54q0 .31.23.54q.23.23.54.23Z"/></svg>