<svg xmlns="http://www.w3.org/2000/svg" width="200" height="200" viewBox="0 0 24 24"><path fill="currentColor" d="M4.615 19q-.67 0-1.143-.472Q3 18.056 3 17.385V6.615q0-.67.472-1.143Q3.944 5 4.615 5h14.77q.67 0 1.143.472q.472.472.472 1.143v10.77q0 .67-.472 1.143q-.472.472-1.143.472zm0-1h14.77q.269 0 .442-.173t.173-.442V6.615q0-.269-.173-.442T19.385 6H4.615q-.269 0-.442.173T4 6.615v10.77q0 .269.173.442t.442.173m2.077-1.885h6.616q.348 0 .578-.23t.23-.577V8.692q0-.348-.23-.578t-.578-.23H6.692q-.348 0-.578.23t-.23.578v6.616q0 .348.23.578t.578.23m10.923 0q.31 0 .54-.23t.23-.54t-.23-.54t-.54-.23t-.539.23t-.23.54t.23.54t.54.23m-10.731-1V8.884h6.23v6.23zm10.73-2.347q.31 0 .54-.23t.23-.539t-.23-.54t-.54-.23t-.539.23t-.23.54t.23.54t.54.23m0-3.347q.309 0 .539-.23t.23-.54t-.23-.539t-.54-.23t-.539.23t-.23.54t.23.54t.54.23M4 18V6z"/></svg>