<svg xmlns="http://www.w3.org/2000/svg" width="200" height="200" viewBox="0 0 24 24"><path fill="currentColor" d="M3 19V5h18v14H3Zm1-1h11V6H4v12Zm13.308-9.308h1.384V7.308h-1.384v1.384ZM18 12.77q.31 0 .54-.23q.23-.23.23-.539q0-.31-.23-.54q-.23-.23-.54-.23q-.31 0-.54.23q-.23.23-.23.54q0 .31.23.54q.23.23.54.23Zm0 4q.31 0 .54-.23q.23-.23.23-.539q0-.31-.23-.54q-.23-.23-.54-.23q-.31 0-.54.23q-.23.23-.23.54q0 .31.23.54q.23.23.54.23Zm-7.25-1.27q-.485 0-.893-.215q-.409-.216-.695-.397q-.27-.175-.468-.281q-.198-.107-.444-.107q-.256 0-.502.129t-.429.279l-.732-.708q.275-.223.704-.462q.43-.238.959-.238q.485 0 .864.209q.38.208.667.39q.263.188.506.294q.242.107.463.107q.256 0 .502-.129t.429-.279l.732.708q-.275.223-.704.462q-.43.238-.959.238Zm0-5q-.485 0-.893-.215q-.409-.216-.695-.397q-.27-.175-.468-.281Q8.496 9.5 8.25 9.5q-.256 0-.502.129t-.429.279L6.587 9.2q.275-.223.704-.462q.43-.238.959-.238q.485 0 .864.209q.38.208.667.39q.263.188.506.294q.242.107.463.107q.256 0 .502-.129t.429-.279l.732.708q-.275.223-.704.462q-.43.238-.959.238Z"/></svg>