<svg xmlns="http://www.w3.org/2000/svg" width="200" height="200" viewBox="0 0 24 24"><path fill="currentColor" d="m4.425 4.04l.96.96h-.77q-.23 0-.423.192Q4 5.385 4 5.615v10.462q0 .27.173.442t.442.173H15.7L1.777 2.808l.708-.708l18.684 18.685l-.707.707l-3.724-3.8h-.7l.77.77V20H7.192v-1.538l.77-.77H4.615q-.69 0-1.153-.462Q3 16.767 3 16.077V5.615q0-.713.463-1.144q.462-.43.962-.43ZM20.45 17.235l-.83-.831h.265q.057-.077.086-.154t.029-.173V5.615q0-.269-.173-.442T19.385 5H8.158l-1-1h12.227q.69 0 1.152.463q.463.462.463 1.152v10.462q0 .323-.141.64q-.142.318-.409.518ZM13.715 10.5Zm-4.019.227Z"/></svg>