<svg xmlns="http://www.w3.org/2000/svg" width="200" height="200" viewBox="0 0 24 24"><path fill="currentColor" d="m4.425 4.04l.96.96h-.77q-.23 0-.423.192Q4 5.385 4 5.615v10.462q0 .27.173.442t.442.173H15.7L2.13 3.162q-.159-.14-.159-.345q0-.204.16-.363q.16-.16.354-.16q.194 0 .353.16L20.815 20.43q.14.14.14.354q0 .213-.14.353q-.16.16-.363.16t-.344-.16l-3.37-3.446h-.7l.527.527q.131.131.187.27t.056.301v.402q0 .348-.23.578q-.23.23-.578.23H8q-.348 0-.578-.23q-.23-.23-.23-.578v-.402q0-.161.056-.3t.187-.27l.527-.528H4.615q-.69 0-1.153-.462Q3 16.767 3 16.077V5.615q0-.713.463-1.144q.462-.43.962-.43ZM20.45 17.235l-.83-.831h.265q.057-.077.086-.154t.029-.173V5.615q0-.269-.173-.442T19.385 5H8.158l-1-1h12.227q.69 0 1.152.463q.463.462.463 1.152v10.462q0 .323-.141.64q-.142.318-.409.518ZM13.715 10.5Zm-4.019.227Z"/></svg>