<svg xmlns="http://www.w3.org/2000/svg" width="200" height="200" viewBox="0 0 24 24"><path fill="currentColor" d="m4.425 4.04l-.192 1.223L2.13 3.162q-.14-.14-.15-.345q-.01-.204.15-.363q.16-.16.354-.16q.194 0 .353.16L20.815 20.43q.14.14.15.344q.01.204-.15.363q-.16.16-.353.16q-.195 0-.354-.16l-3.446-3.446h-.624l.527.527q.131.131.187.27t.056.301v.402q0 .348-.23.578q-.23.23-.578.23H8q-.348 0-.578-.23q-.23-.23-.23-.578v-.402q0-.161.056-.3t.187-.27l.527-.528H4.615q-.69 0-1.153-.462Q3 16.767 3 16.077V5.615q0-.713.463-1.144q.462-.43.962-.43ZM20.45 17.235L7.158 4h12.227q.69 0 1.152.463q.463.462.463 1.152v10.462q0 .438-.16.708q-.161.269-.39.45Z"/></svg>