<svg xmlns="http://www.w3.org/2000/svg" width="200" height="200" viewBox="0 0 24 24"><path fill="currentColor" d="M12 13.5q.213 0 .357-.144q.143-.143.143-.356V8q0-.213-.144-.356Q12.212 7.5 12 7.5t-.356.144Q11.5 7.788 11.5 8v5q0 .213.144.356q.144.144.357.144Zm3-1.5q.213 0 .357-.144q.143-.143.143-.356V9q0-.213-.144-.356Q15.212 8.5 15 8.5t-.356.144Q14.5 8.787 14.5 9v2.5q0 .213.144.356q.144.144.357.144Zm-6-.5q.213 0 .357-.144q.143-.143.143-.356V9q0-.213-.144-.356Q9.212 8.5 9 8.5t-.356.144Q8.5 8.787 8.5 9v2q0 .213.144.356q.144.144.357.144ZM7 21v-3.762q-1.425-1.3-2.212-2.922T4 10.986Q4 7.66 6.333 5.33Q8.667 3 12 3q2.702 0 4.884 1.645q2.181 1.645 2.83 4.25l1.036 4.103q.1.38-.142.691t-.646.311H18v3.385q0 .666-.475 1.14q-.474.475-1.14.475H14v2h-1v-3h3.385q.269 0 .442-.173t.173-.442V13h2.7l-.95-3.875q-.575-2.294-2.47-3.71Q14.388 4 12 4Q9.1 4 7.05 6.03T5 10.97q0 1.494.613 2.84q.612 1.345 1.737 2.392L8 16.8V21H7Zm5.35-8.5Z"/></svg>