<svg xmlns="http://www.w3.org/2000/svg" width="200" height="200" viewBox="0 0 24 24"><path fill="currentColor" d="M8 6.265L5.712 3.977l.688-.689l2.288 2.289L8 6.265Zm8 0l-.688-.688L17.6 3.288l.688.689L16 6.265Zm-4.5-1.188v-4h1v4h-1ZM4 23v-7.846L6.162 9h11.676L20 15.154V23h-1.23v-2H5.23v2H4Zm1.415-8.846h13.17L17.112 10H6.888l-1.473 4.154Zm2.013 4.538q.466 0 .788-.326q.322-.327.322-.794t-.326-.788q-.327-.322-.793-.322t-.79.326q-.321.327-.321.793t.326.79q.327.321.794.321Zm9.153 0q.467 0 .79-.326q.321-.327.321-.794t-.326-.788q-.327-.322-.794-.322t-.788.326q-.322.327-.322.793t.326.79q.327.321.793.321Z"/></svg>