<svg xmlns="http://www.w3.org/2000/svg" width="200" height="200" viewBox="0 0 24 24"><path fill="currentColor" d="M11.22 14.96q.16 0 .297-.056q.137-.056.268-.187l2.888-2.913q.14-.14.153-.341t-.153-.367q-.16-.16-.354-.16t-.354.16l-2.746 2.785l-3.43-3.42h1.769q.213 0 .356-.143t.144-.356q0-.214-.144-.357t-.356-.143H6.865q-.348 0-.578.23q-.23.23-.23.577v2.693q0 .213.144.356t.357.144q.213 0 .356-.144t.144-.356v-1.816l3.596 3.596q.13.131.267.174q.137.044.298.044ZM5.095 19q-.69 0-1.153-.463t-.462-1.152V6.615q0-.69.462-1.153Q4.406 5 5.096 5h10.77q.69 0 1.152.463t.463 1.152v4.654l2.342-2.342q.192-.192.444-.096t.252.369v5.6q0 .273-.252.37q-.252.095-.444-.097l-2.342-2.342v4.654q0 .69-.463 1.152q-.462.463-1.153.463H5.096Zm0-1h10.77q.269 0 .442-.173t.173-.442V6.615q0-.269-.173-.442T15.865 6H5.096q-.27 0-.442.173t-.173.442v10.77q0 .269.173.442t.442.173Zm-.615 0V6v12Z"/></svg>