<svg xmlns="http://www.w3.org/2000/svg" width="200" height="200" viewBox="0 0 24 24"><path fill="currentColor" d="M13.77 13.077v-2.154q0-.44.298-.74q.3-.298.74-.298h1.077v-3.77h-1.077q-.44 0-.74-.299q-.299-.299-.299-.74V2.924q0-.44.3-.74q.298-.298.739-.298h3.154q.44 0 .739.299t.299.74v2.153q0 .44-.299.74q-.3.298-.74.298h-1.076v3.77h1.077q.44 0 .739.299t.299.74v2.153q0 .44-.299.74q-.3.298-.74.298h-3.153q-.44 0-.74-.299q-.299-.299-.299-.74Zm1 .038H18v-2.23h-3.23v2.23Zm0-8H18v-2.23h-3.23v2.23ZM5 21.077v-2.154q0-.44.299-.74q.3-.298.74-.298h1.076v-3.77H6.038q-.44 0-.739-.299T5 13.076v-2.153q0-.44.299-.74q.3-.298.74-.298h1.076v-3.77H6.038q-.44 0-.739-.299T5 5.076V2.924q0-.44.299-.74q.3-.298.74-.298h3.153q.44 0 .74.299q.299.299.299.74v2.153q0 .44-.3.74q-.298.298-.739.298H8.115v3.77h1.077q.44 0 .74.299q.299.299.299.74v2.153q0 .44-.3.74q-.298.298-.739.298H8.115v3.77h1.077q.44 0 .74.299q.299.299.299.74v2.153q0 .44-.3.74q-.298.298-.739.298H6.038q-.44 0-.739-.299T5 21.076Zm1 .038h3.23v-2.23H6v2.23Zm0-8h3.23v-2.23H6v2.23Zm0-8h3.23v-2.23H6v2.23ZM16.385 12Zm0-8Zm-8.77 16Zm0-8Zm0-8Z"/></svg>