<svg xmlns="http://www.w3.org/2000/svg" width="200" height="200" viewBox="0 0 24 24"><path fill="currentColor" d="M20.492 22.408L1.362 3.277q-.14-.14-.15-.344q-.01-.204.15-.364t.353-.16q.195 0 .354.16L21.2 21.7q.14.14.15.344q.01.204-.15.364t-.354.16t-.354-.16ZM6 7.213l1 1V18.5h9.927L18 19.573v.812q0 .67-.472 1.143q-.472.472-1.143.472h-8.77q-.67 0-1.143-.472Q6 21.056 6 20.385V7.213Zm12-3.598v12.073l-1-1V5.5H7.806L6.035 3.704v-.25q.057-.614.506-1.034Q6.991 2 7.615 2h8.77q.69 0 1.152.463q.463.462.463 1.152Z"/></svg>