<svg xmlns="http://www.w3.org/2000/svg" width="200" height="200" viewBox="0 0 24 24"><path fill="currentColor" d="m9.5 18.073l1.735-1.735q.146-.146.344-.152q.198-.007.363.152q.166.166.169.357q.002.192-.163.357l-2.383 2.383q-.13.13-.267.183q-.136.053-.298.053t-.298-.053q-.137-.053-.267-.183l-2.383-2.383q-.146-.146-.153-.347q-.007-.201.159-.367q.165-.16.354-.162q.188-.003.353.162L8.5 18.073V9.915L3.215 4.631q-.14-.14-.15-.344q-.01-.204.15-.364t.354-.16q.194 0 .354.16l16.115 16.115q.14.14.15.345q.01.204-.15.363q-.16.16-.353.16q-.195 0-.354-.16L9.5 10.916v7.157Zm6-5.423l-1-1V5.915l-1.746 1.747q-.14.14-.344.15q-.204.01-.364-.15t-.16-.354q0-.195.16-.354l2.389-2.389q.13-.13.267-.183q.136-.053.298-.053t.298.053q.137.053.267.183l2.389 2.389q.14.14.15.344q.01.204-.15.364t-.354.16t-.354-.16L15.5 5.915v6.735Z"/></svg>