<svg xmlns="http://www.w3.org/2000/svg" width="200" height="200" viewBox="0 0 24 24"><path fill="currentColor" d="M10.525 8.167q.37 0 .708-.13t.615-.349q.125-.117.302-.116t.32.126q.382.323.681.704t.534.833q.142.273.07.577t-.288.52L10.96 12.84l-.026-.026l-.026-.026l-1.343-1.33q-.242-.237-.565-.24t-.565.24l-1.37 1.369q-.442.442-.646 1.012t-.125 1.188q.027.346-.291.497t-.582-.09q-.234-.194-.447-.443t-.384-.506q-.398-.608-.619-1.32t-.221-1.473q0-2.252 1.088-3.564t2.645-2.709q.23-.196.499-.068q.268.128.268.426v.121q0 .952.659 1.61t1.616.66M9 12.312l1.213 1.183q.018.012.03.029t.022.029l-2.03 2.03q-.137.137-.307.134t-.313-.14t-.253-.337t-.112-.504q0-.368.143-.664t.38-.533zm4.154 2.549l-1.712 1.711v5.292q0 .214-.143.357t-.357.143t-.356-.143t-.144-.357v-4.292l-4.419 4.439q-.14.16-.344.16t-.364-.16t-.16-.354t.16-.354L20.304 6.315q.14-.14.344-.15t.364.15t.16.354t-.16.354l-4.439 4.439h4.292q.214 0 .357.143t.143.357t-.143.356t-.357.144h-5.311l-1.692 1.692l1.942 1.942h5.061q.214 0 .357.143t.143.357t-.143.357t-.357.143h-4.061l3.073 3.073q.14.14.15.344t-.15.364t-.354.16t-.354-.16l-3.073-3.073v4.061q0 .214-.143.357t-.357.143t-.357-.143t-.143-.357v-5.061z"/></svg>