<svg xmlns="http://www.w3.org/2000/svg" width="200" height="200" viewBox="0 0 24 24"><path fill="currentColor" d="M7.483 5.42q.23-.197.499-.07q.268.126.268.427v.121q0 .946.662 1.607q.661.662 1.613.662q.37 0 .708-.13t.615-.349q.125-.117.302-.116t.323.122q.473.41.8.894t.57 1.039q.084.183.001.356q-.082.173-.275.257q-.192.085-.387-.004t-.28-.273q-.144-.346-.334-.639t-.46-.59q-.35.22-.757.327t-.826.106q-1.12 0-1.997-.68q-.878-.68-1.163-1.781q-1.103 1.002-1.86 2.255t-.755 2.731q0 1.198.592 2.165q.593.966 1.568 1.472q-.077-.154-.116-.317t-.038-.356q.011-.423.191-.803t.472-.672l1.016-1.016q.236-.236.564-.236t.566.236l.758.733q.165.165.165.366t-.17.371q-.155.155-.346.158t-.357-.156L9 13.02l-.873.873q-.183.183-.28.387t-.097.456q0 .182.044.327t.133.284q.111.196.062.421t-.208.384q-.289.29-.697.283t-.742-.213q-.47-.275-.882-.654t-.745-.83q-.448-.649-.706-1.43t-.259-1.617q0-2.252 1.088-3.564t2.645-2.709m5.67 9.443l-1.71 1.711v5.292q0 .213-.145.357t-.356.143t-.356-.143t-.144-.357v-4.292l-4.419 4.439q-.134.16-.34.16t-.368-.16t-.16-.354t.16-.354L20.304 6.315q.14-.14.344-.15t.364.15t.16.354t-.16.354l-4.439 4.439h4.292q.213 0 .357.143q.143.144.143.357t-.143.356t-.357.144h-5.311l-1.692 1.692l1.942 1.942h5.061q.213 0 .357.144t.143.357t-.143.356t-.357.143h-4.061l3.073 3.073q.14.14.15.344t-.15.364t-.354.16t-.354-.16l-3.073-3.073v4.061q0 .213-.144.357q-.144.143-.357.143q-.212 0-.356-.143t-.143-.357v-5.061z"/></svg>