<svg xmlns="http://www.w3.org/2000/svg" width="200" height="200" viewBox="0 0 24 24"><path fill="currentColor" d="M20.808 12.63q0 1.218-.627 1.929q-.627.71-1.621.71q-.362 0-.858-.195t-.762-.418L8.792 6.585q-.136-1.716 1.346-2.554q1.481-.839 3.147-.839q.91 0 1.447.532t.537 1.309q0 .534-.23 1.005q-.23.472-.656.775q-.55.35-.936 1.006q-.385.656-.568 1.512q.304.113.53.236q.228.123.41.3l2.339-.869q.367-.13.687-.199q.32-.068.668-.068q1.506 0 2.4 1.127q.895 1.127.895 2.773Zm-10.016 8.178q-.91 0-1.485-.551q-.576-.551-.576-1.334q0-.535.23-1.003t.656-.753q.57-.369.945-1.025q.376-.655.56-1.473q-.285-.113-.512-.236q-.227-.123-.43-.3l-2.338.844q-.367.13-.7.211q-.332.081-.68.081q-1.518 0-2.394-1.096q-.876-1.096-.876-2.804q0-1.294.638-1.966q.637-.672 1.645-.672q.47 0 1.044.207q.575.208.89.508L1.607 3.662q-.146-.147-.156-.348q-.01-.2.156-.366q.165-.165.356-.165t.357.165l18.516 18.515q.146.147.146.354q0 .208-.146.354t-.347.146q-.201 0-.348-.146l-4.927-4.927q.039.096.039.193v.192q-.075 1.37-1.278 2.274q-1.203.905-3.182.905Z"/></svg>