<svg xmlns="http://www.w3.org/2000/svg" width="200" height="200" viewBox="0 0 24 24"><path fill="currentColor" d="M19.479 21.9L3.094 5.521q-.146-.146-.156-.347t.156-.366t.357-.166t.357.166l16.384 16.384q.146.146.156.345t-.156.363t-.356.165t-.357-.165m-5.46-12.6q-1.555 0-2.697-1.025t-1.297-2.563q-.256.211-.474.423q-.218.211-.43.423q-.171.16-.368.163t-.357-.161t-.17-.376t.162-.37q.374-.381.768-.701t.842-.651q.32-.235.66-.054t.342.58V5.3q0 1.275.878 2.138t2.147.862q.47 0 .914-.162t.842-.453q.2-.154.43-.147t.424.162q1.117.992 1.741 2.377T19 13q0 .67-.134 1.296t-.376 1.206q-.055.188-.245.276t-.378 0q-.104-.05-.167-.116t-.094-.153t-.04-.183t.013-.201q.223-.494.322-1.034T18 13q0-1.25-.462-2.363T16.2 8.65q-.5.325-1.052.488T14.02 9.3M12 20q-2.931 0-4.966-2.034T5 13q0-1.36.464-2.67t1.3-2.56l.732.732q-.738 1.115-1.117 2.236T6 13q0 1.723.92 3.164t2.47 2.163q-.198-.298-.294-.62Q9 17.388 9 17.05q0-.588.233-1.125q.232-.537.654-.938l2.055-2.02l.695.695l-2.062 2.038q-.275.275-.425.625t-.15.725q0 .8.588 1.375T12 19t1.413-.575T14 17.05q0-.4-.162-.732q-.163-.332-.438-.612l.65-.65l2.902 2.902q-.952.96-2.216 1.5T12 20"/></svg>