<svg xmlns="http://www.w3.org/2000/svg" width="200" height="200" viewBox="0 0 24 24"><path fill="currentColor" d="M4.615 19q-.69 0-1.152-.462T3 17.385v-4.077q0-.348.23-.578t.578-.23h3.875l1.86 3.72q.067.14.192.21t.265.07t.265-.07t.193-.21L14 9.134l1.542 3.084q.068.14.193.21T16 12.5h4.192q.348 0 .578.23t.23.578v4.077q0 .69-.462 1.152T19.385 19zM3 6.615q0-.69.463-1.152T4.615 5h14.77q.69 0 1.152.463T21 6.615v4.077q0 .348-.23.578t-.578.23h-3.875l-1.86-3.72q-.067-.12-.182-.175T14 7.55q-.14 0-.265.055t-.193.176L10 14.865l-1.542-3.084q-.068-.14-.193-.21T8 11.5H3.808q-.348 0-.578-.23T3 10.692z"/></svg>