<svg xmlns="http://www.w3.org/2000/svg" width="200" height="200" viewBox="0 0 24 24"><path fill="currentColor" d="M8.238 18L4 12l4.277-6H20v12H8.238Zm.55-1H19V7H8.788L5.22 12l3.57 5ZM19 17V7v10Zm-9.615-4.23q.31 0 .539-.23q.23-.23.23-.54q0-.31-.23-.54q-.23-.23-.54-.23q-.309 0-.539.23q-.23.23-.23.54q0 .31.23.54q.23.23.54.23Zm3.5 0q.31 0 .539-.23q.23-.23.23-.54q0-.31-.23-.54q-.23-.23-.54-.23q-.309 0-.539.23q-.23.23-.23.54q0 .31.23.54q.23.23.54.23Zm3.5 0q.31 0 .539-.23q.23-.23.23-.54q0-.31-.23-.54q-.23-.23-.54-.23q-.309 0-.539.23q-.23.23-.23.54q0 .31.23.54q.23.23.54.23Z"/></svg>