<svg xmlns="http://www.w3.org/2000/svg" width="200" height="200" viewBox="0 0 24 24"><path fill="currentColor" d="M10.808 4.363v1q-.258.05-.516.142q-.257.091-.515.205l-.75-.75q.41-.218.86-.357q.45-.14.92-.24Zm7.554 7.554q-.1.471-.24.921q-.14.45-.357.86l-.75-.75q.114-.258.205-.515q.092-.258.142-.516h1ZM3 19.7v-5h1v4h4v1H3Zm17-13v-4h-4v-1h5v5h-1Zm-13.233-4l-1-1H8v1H6.767ZM21 16.933l-1-1V14.7h1v2.233ZM5.638 11.917h1q.339 1.571 1.469 2.701q1.13 1.13 2.7 1.469v1q-1.972-.37-3.386-1.783q-1.413-1.414-1.783-3.387ZM7.421 6.14l.708.689q-.558.544-.93 1.233q-.372.688-.56 1.47h-1q.194-.995.648-1.851t1.134-1.54Zm8.475 8.456l.689.708q-.685.679-1.54 1.133q-.857.455-1.853.65v-1q.783-.189 1.471-.561q.689-.372 1.233-.93ZM13.192 4.363q1.973.37 3.39 1.783q1.416 1.414 1.78 3.387h-1q-.339-1.571-1.469-2.701q-1.13-1.13-2.7-1.469v-1ZM19.554 19.7H16v-1h2.554L4 4.146V6.7H3V3.146L1.887 2.033l.713-.714l19.223 19.223l-.713.714l-1.556-1.556Z"/></svg>