<svg xmlns="http://www.w3.org/2000/svg" width="200" height="200" viewBox="0 0 24 24"><path fill="currentColor" d="M10.808 4.363v1q-.258.05-.516.142q-.257.091-.515.205l-.75-.75q.41-.218.86-.357q.45-.14.92-.24Zm7.554 7.554q-.1.471-.24.921q-.14.45-.357.86l-.75-.75q.114-.258.205-.515q.092-.258.142-.516h1Zm2.748 9.339L1.887 2.033l.713-.714l19.223 19.223l-.713.714ZM4.615 19.7q-.69 0-1.152-.462Q3 18.774 3 18.085V14.7h1v3.385q0 .23.192.423q.193.192.423.192H8v1H4.615ZM20 6.7V3.315q0-.23-.192-.423q-.193-.192-.423-.192H16v-1h3.385q.69 0 1.152.463q.463.462.463 1.152V6.7h-1Zm-17 0V3.315q0-.348.121-.643q.121-.295.32-.512l.713.738q-.058.096-.106.202T4 3.321V6.7H3Zm13 13v-1h3.379q.115 0 .221-.048t.163-.144l.733.707q-.198.218-.48.351q-.283.134-.631.134H16Zm-9.233-17l-1-1H8v1H6.767ZM21 16.933l-1-1V14.7h1v2.233ZM5.638 11.917h1q.339 1.571 1.469 2.701q1.13 1.13 2.7 1.469v1q-1.972-.37-3.386-1.783q-1.413-1.414-1.783-3.387ZM7.421 6.14l.708.689q-.558.544-.93 1.233q-.372.688-.56 1.47h-1q.194-.995.648-1.851t1.134-1.54Zm8.475 8.456l.689.708q-.685.679-1.54 1.133q-.857.455-1.853.65v-1q.783-.189 1.471-.561q.689-.372 1.233-.93ZM13.192 4.363q1.973.37 3.39 1.783q1.416 1.414 1.78 3.387h-1q-.339-1.571-1.469-2.701q-1.13-1.13-2.7-1.469v-1Z"/></svg>