<svg xmlns="http://www.w3.org/2000/svg" width="200" height="200" viewBox="0 0 24 24"><path fill="currentColor" d="m12.737 20.923l4.898-8.525l4.878 8.525h-9.776Zm4.878-.615q.162 0 .273-.112q.112-.111.112-.273q0-.161-.112-.273q-.111-.112-.273-.112q-.161 0-.273.112q-.111.112-.111.273q0 .162.111.273q.112.112.273.112Zm-.384-2H18v-3.77h-.77v3.77ZM3 21v-5h1v4h4v1H3ZM3 8V3h5v1H4v4H3Zm7.808 10.362q-1.973-.37-3.387-1.783q-1.413-1.414-1.783-3.387h1q.339 1.571 1.469 2.701q1.13 1.13 2.7 1.469v1Zm-5.17-7.554q.37-1.973 1.783-3.39q1.414-1.416 3.387-1.78v1q-1.571.339-2.701 1.469q-1.13 1.13-1.469 2.7h-1ZM12 13.5q-.633 0-1.066-.434Q10.5 12.633 10.5 12q0-.638.434-1.07q.433-.43 1.066-.43q.638 0 1.07.43q.43.432.43 1.07q0 .633-.43 1.066q-.432.434-1.07.434Zm5.362-2.692q-.339-1.571-1.469-2.701q-1.13-1.13-2.7-1.469v-1q1.972.37 3.389 1.783q1.416 1.414 1.78 3.387h-1ZM20 8V4h-4V3h5v5h-1Z"/></svg>