<svg xmlns="http://www.w3.org/2000/svg" width="200" height="200" viewBox="0 0 24 24"><path fill="currentColor" d="M13.615 20.923q-.137 0-.243-.072t-.182-.19q-.062-.117-.068-.254q-.007-.138.06-.253l4-6.98q.074-.13.195-.203t.263-.073q.14 0 .253.067q.112.067.174.189l4 7q.073.11.067.248q-.006.139-.067.252q-.077.121-.193.195q-.117.074-.259.074h-8Zm4-.615q.154 0 .27-.116q.115-.115.115-.269t-.115-.27q-.116-.115-.27-.115q-.153 0-.269.116q-.115.115-.115.27t.115.268q.116.116.27.116Zm0-2q.154 0 .27-.116q.115-.115.115-.269v-3q0-.154-.115-.27q-.116-.115-.27-.115q-.153 0-.269.116q-.115.115-.115.27v3q0 .153.115.268q.116.116.27.116ZM4.615 21q-.69 0-1.152-.462Q3 20.075 3 19.385V16.5q0-.213.144-.356Q3.288 16 3.5 16t.356.144q.143.144.143.356v2.885q0 .23.192.423q.193.192.423.192H7.5q.213 0 .356.144T8 20.5q0 .212-.144.356Q7.713 21 7.5 21H4.615ZM3 7.5V4.615q0-.69.463-1.152Q3.925 3 4.615 3H7.5q.213 0 .356.144Q8 3.288 8 3.5t-.144.356Q7.713 4 7.5 4H4.615q-.23 0-.423.192Q4 4.385 4 4.615V7.5q0 .213-.144.356T3.5 8q-.212 0-.356-.144Q3 7.713 3 7.5Zm9 6q-.633 0-1.066-.434q-.434-.433-.434-1.06q0-.644.434-1.075q.433-.431 1.06-.431q.644 0 1.075.431q.431.432.431 1.069q0 .633-.431 1.066q-.431.434-1.069.434Zm8-6V4.615q0-.23-.192-.423Q19.615 4 19.385 4H16.5q-.213 0-.356-.144T16 3.5q0-.212.144-.356T16.5 3h2.885q.69 0 1.152.463q.463.462.463 1.152V7.5q0 .213-.144.356Q20.712 8 20.5 8t-.356-.144Q20 7.713 20 7.5ZM6.194 13.192q-.231 0-.36.196q-.128.195-.06.433q.436 1.575 1.591 2.735q1.156 1.16 2.731 1.646q.258.073.482-.051q.224-.124.224-.388q0-.175-.148-.319t-.325-.211q-1.283-.433-2.238-1.36t-1.343-2.235q-.067-.182-.216-.314q-.148-.132-.338-.132Zm.006-2.384q-.231 0-.36-.195q-.128-.196-.061-.434q.436-1.575 1.595-2.735t2.734-1.646q.257-.073.479.051q.22.124.22.388q0 .175-.138.319q-.138.144-.315.211q-1.283.433-2.247 1.36q-.965.927-1.353 2.235q-.067.182-.216.314q-.148.132-.338.132Zm11.612 0q.23 0 .36-.195q.128-.196.06-.434q-.436-1.575-1.594-2.735q-1.16-1.16-2.734-1.646q-.258-.073-.479.051q-.221.124-.221.388q0 .175.148.319t.325.211q1.283.433 2.237 1.36t1.344 2.235q.067.182.215.314q.149.132.339.132Z"/></svg>