<svg xmlns="http://www.w3.org/2000/svg" width="200" height="200" viewBox="0 0 24 24"><path fill="currentColor" d="M12 3.077q2.496 0 4.248 1.752T18 9.077v2.446q-.25-.042-.5-.052t-.5.014v-1.408h-4.34L11.5 8.912V4.1q-.948.073-1.764.496T8.298 5.704L7.59 4.99q.835-.898 1.962-1.405q1.127-.508 2.448-.508M6.487 6.742l3.34 3.335H7V15q0 2.075 1.463 3.538T12 20q.069 0 .128-.006t.122-.017v1.006q-.062.011-.122.014T12 21q-2.496 0-4.248-1.752T6 15V9.077q0-.63.123-1.207t.364-1.128M12.5 9.077H17q0-1.973-1.31-3.387T12.5 4.1zm7.86 12.954L2.027 3.692l.708-.707l18.338 18.338zM14.48 21v-4.538h1.732l3.769 3.769V21zm4.54-4.546l-.77-.763v-.23q0-.424-.288-.712t-.712-.287q-.05 0-.096.01q-.046.009-.096.015l-.596-.597q.186-.086.38-.142t.408-.056q.748 0 1.259.51q.51.511.51 1.26z"/></svg>