<svg xmlns="http://www.w3.org/2000/svg" width="200" height="200" viewBox="0 0 24 24"><path fill="currentColor" d="M20.36 22.03L2.027 3.693l.708-.707l18.338 18.338zM15.37 21q-.35 0-.62-.27t-.27-.618v-2.843q0-.348.23-.578t.578-.23h.924l3.769 3.77v.034q-.058.293-.308.514t-.542.221zm3.65-4.546l-.77-.77v-.222q0-.425-.288-.713t-.712-.287q-.05 0-.096.01q-.046.009-.096.015l-.596-.597q.186-.086.378-.142t.41-.056q.748 0 1.259.51q.51.511.51 1.26zM12.5 9.077V3.094q2.35.183 3.925 1.905T18 9.077zm2.22 3.065l-2.06-2.065H18v1.446q-.192-.03-.372-.046t-.378-.015q-.7 0-1.328.175t-1.203.505M12 21q-2.502 0-4.251-1.749T6 15v-4.923h3.827l3.404 3.404q-.475.625-.728 1.378t-.253 1.603v4.52q-.058.012-.122.015T12 21m-.5-12.088L7.59 4.99q.743-.8 1.746-1.299q1.002-.499 2.164-.597zM6 9.077q0-.625.123-1.207t.364-1.133l2.34 2.34z"/></svg>