<svg xmlns="http://www.w3.org/2000/svg" width="200" height="200" viewBox="0 0 24 24"><path fill="currentColor" d="M2.615 20.5v-17h18.77v17H2.615Zm1-1h3v-3h-3v3Zm13.77 0h3v-3h-3v3ZM11.5 15.923h1v-5.115h-1v5.115ZM3.615 15.5h3v-3h-3v3Zm13.77 0h3v-3h-3v3Zm-13.77-4h3v-3h-3v3Zm13.77 0h3v-3h-3v3ZM12 9q.262 0 .438-.177q.177-.177.177-.438q0-.262-.177-.439q-.176-.177-.438-.177t-.438.177q-.177.177-.177.439q0 .261.177.438Q11.738 9 12 9ZM3.615 7.5h3v-3h-3v3Zm13.77 0h3v-3h-3v3Zm-9.77 12h8.77v-15h-8.77v15Zm0-15h8.77h-8.77Z"/></svg>