<svg xmlns="http://www.w3.org/2000/svg" width="200" height="200" viewBox="0 0 24 24"><path fill="currentColor" d="M4.23 20.5q-.69 0-1.152-.463t-.463-1.152V5.115q0-.69.463-1.153Q3.54 3.5 4.23 3.5h15.538q.69 0 1.153.463t.463 1.152v13.77q0 .69-.463 1.152q-.462.463-1.153.463H4.231Zm.116-1h1.866q.18 0 .292-.121q.111-.121.111-.283v-2.192q0-.18-.111-.292q-.112-.112-.292-.112H4.019q-.161 0-.282.112q-.122.111-.122.292v1.865q0 .316.208.523q.208.208.523.208Zm13.442 0h1.866q.315 0 .523-.208q.208-.207.208-.523v-1.865q0-.18-.112-.292q-.111-.112-.292-.112h-2.193q-.161 0-.282.112q-.121.111-.121.292v2.192q0 .162.12.283t.283.121ZM12 15.923q.213 0 .357-.143q.143-.143.143-.357v-4.115q0-.214-.143-.357q-.144-.143-.357-.143t-.357.143q-.143.143-.143.357v4.115q0 .214.143.357q.144.143.357.143ZM4.02 15.5h2.192q.18 0 .292-.121q.111-.121.111-.283v-2.192q0-.18-.111-.292q-.112-.112-.292-.112H4.019q-.161 0-.282.112q-.122.111-.122.292v2.192q0 .162.122.283q.12.121.282.121Zm13.768 0h2.193q.18 0 .292-.121t.112-.283v-2.192q0-.18-.112-.292q-.111-.112-.292-.112h-2.193q-.161 0-.282.112q-.121.111-.121.292v2.192q0 .162.12.283t.283.121Zm-13.769-4h2.193q.18 0 .292-.121q.111-.121.111-.283V8.904q0-.18-.111-.292q-.112-.112-.292-.112H4.019q-.161 0-.282.112q-.122.111-.122.292v2.192q0 .162.122.283q.12.121.282.121Zm13.77 0h2.192q.18 0 .292-.121t.112-.283V8.904q0-.18-.112-.292q-.111-.112-.292-.112h-2.193q-.161 0-.282.112q-.121.111-.121.292v2.192q0 .162.12.283t.283.121ZM12 9q.252 0 .434-.182q.181-.181.181-.433t-.181-.434q-.182-.182-.434-.182t-.434.182q-.181.182-.181.434t.181.433Q11.748 9 12 9ZM4.02 7.5h2.192q.18 0 .292-.121q.111-.121.111-.283V4.904q0-.18-.111-.292q-.112-.112-.292-.112H4.346q-.315 0-.523.208q-.208.207-.208.523v1.865q0 .162.122.283q.12.121.282.121Zm13.768 0h2.193q.18 0 .292-.121t.112-.283V5.231q0-.316-.208-.523q-.208-.208-.523-.208h-1.866q-.161 0-.282.112q-.121.111-.121.292v2.192q0 .162.12.283t.283.121Z"/></svg>