<svg xmlns="http://www.w3.org/2000/svg" width="200" height="200" viewBox="0 0 24 24"><path fill="currentColor" d="M4.615 19q-.69 0-1.152-.462T3 17.385V6.615q0-.67.482-1.143Q3.963 5 4.635 5h.173l14 14zm15.795-.812L7.638 5h1.437l1.13 2.256q.176.35.5.547t.7.197q.75 0 1.148-.635q.397-.634.047-1.31L12.075 5h2.483l1.125 2.25q.175.35.5.55t.7.2q.75 0 1.15-.638t.05-1.312L17.558 5h1.827q.69 0 1.152.463T21 6.615V17q0 .385-.156.687t-.434.501m-.854 2.981L2.825 4.444q-.146-.146-.156-.347t.156-.366t.357-.166t.356.166L20.27 20.46q.146.147.156.345t-.156.363t-.356.166t-.357-.166"/></svg>