<svg xmlns="http://www.w3.org/2000/svg" width="200" height="200" viewBox="0 0 24 24"><path fill="currentColor" d="M4.615 5L5.74 7.25q.175.35.5.55t.7.2q.75 0 1.15-.638t.05-1.312L7.615 5h2l1.125 2.25q.175.35.5.55t.7.2q.75 0 1.15-.638t.05-1.312L12.615 5h2l1.125 2.25q.175.35.5.55t.7.2q.75 0 1.15-.638t.05-1.312L17.615 5h1.77q.69 0 1.152.463T21 6.615v10.77q0 .69-.462 1.152T19.385 19H4.615q-.69 0-1.152-.462T3 17.385V6.615q0-.69.463-1.152T4.615 5M4 9v8.385q0 .269.173.442t.442.173h14.77q.269 0 .442-.173t.173-.442V9zm0 0v9z"/></svg>