<svg xmlns="http://www.w3.org/2000/svg" width="200" height="200" viewBox="0 0 24 24"><path fill="currentColor" d="M7.308 19L4 15.692l3.308-3.307l.713.707l-2.1 2.1h6.29v1h-6.29l2.094 2.1l-.707.708Zm7.5-2.712q-.252 0-.424-.17q-.172-.172-.172-.425t.17-.425q.172-.172.425-.172t.425.171q.172.171.172.424t-.171.425q-.171.172-.424.172Zm3.193 0q-.253 0-.425-.17q-.172-.172-.172-.425t.171-.425q.171-.172.424-.172t.425.171q.172.171.172.424t-.17.425q-.172.172-.425.172Zm-1.309-4.673l-.713-.688l2.12-2.12h-6.31v-1h6.29l-2.094-2.1l.707-.707L20 8.308l-3.308 3.307ZM6.001 8.904q-.253 0-.425-.171t-.172-.424q0-.253.171-.425t.424-.172q.253 0 .425.17q.172.172.172.425t-.17.425q-.172.172-.425.172Zm3.192 0q-.253 0-.425-.171t-.172-.424q0-.253.171-.425t.424-.172t.425.17q.172.172.172.425t-.17.425q-.172.172-.425.172Z"/></svg>