<svg xmlns="http://www.w3.org/2000/svg" width="200" height="200" viewBox="0 0 24 24"><path fill="currentColor" d="m12.694 18.233l-1.99-4.975l-4.994-2.03q-.268-.105-.389-.32q-.121-.214-.121-.431t.124-.432q.124-.214.391-.32L9.663 8.24L4.52 3.096q-.146-.146-.156-.347q-.01-.2.156-.366q.166-.166.357-.166t.357.166l16.384 16.384q.146.146.156.345q.01.198-.156.363q-.165.165-.356.165t-.357-.165l-5.202-5.196l-1.504 3.948q-.106.267-.32.391q-.215.124-.432.124t-.432-.12q-.214-.122-.32-.39Zm4.193-7.027l-.787-.768l1.615-4.192l-4.211 1.596l-.767-.767l5.001-1.902q.243-.106.473-.04q.23.065.39.227q.162.161.228.39q.065.23-.04.473l-1.902 4.983Zm-3.452 6.17l1.486-3.878l-4.496-4.496l-3.879 1.486l4.9 1.989l1.989 4.9Zm1.377-8.226Zm-2.139 2.1Z"/></svg>