<svg xmlns="http://www.w3.org/2000/svg" width="200" height="200" viewBox="0 0 24 24"><path fill="currentColor" d="M20.384 18q-.213 0-.356-.144t-.143-.356V11q0-.213.144-.356q.143-.144.356-.144t.356.144q.144.144.144.356v6.5q0 .213-.144.356t-.357.144Zm-.006 2.654q-.265 0-.437-.175t-.172-.434q0-.258.175-.44t.434-.182q.259 0 .44.179q.182.179.182.443q0 .265-.179.437t-.443.172Zm-8.995-.289q-.296 0-.582-.12q-.286-.122-.547-.383l-6.73-6.731q-.262-.262-.384-.549q-.12-.287-.12-.583t.12-.583q.122-.285.383-.547l6.73-6.73q.262-.262.55-.383q.286-.121.583-.121t.582.13q.286.131.547.373l4.6 4.562v1.83l-5.423-5.422q-.154-.154-.307-.154q-.154 0-.308.154l-6.585 6.584q-.154.154-.154.308t.154.308l6.585 6.584q.154.154.308.154t.307-.154l5.423-5.423V15.3l-4.6 4.562q-.261.242-.548.373q-.287.13-.584.13Zm-.564-5.415l-2.388-2.388q-.239-.239-.239-.562q0-.323.243-.565l2.388-2.388q.239-.24.562-.24q.323 0 .565.243l2.388 2.388q.239.239.239.562q0 .323-.242.565l-2.389 2.389q-.238.238-.561.238q-.323 0-.566-.242Z"/></svg>