<svg xmlns="http://www.w3.org/2000/svg" width="200" height="200" viewBox="0 0 24 24"><path fill="currentColor" d="m17.665 15.327l-.915-.915l2.104-2.104q.154-.154.154-.318q0-.163-.154-.317l-6.546-6.546q-.154-.154-.337-.154q-.183 0-.336.154L9.53 7.23l-.916-.916l2.204-2.203q.243-.243.55-.376t.612-.134q.304 0 .599.121t.537.364l6.764 6.763q.484.479.494 1.118q.01.64-.475 1.124l-2.235 2.235Zm-2.096 2.108l-2.438 2.427q-.243.236-.538.357q-.295.121-.612.121q-.298 0-.603-.118t-.547-.36l-6.725-6.725q-.243-.243-.364-.548q-.12-.304-.12-.602q0-.318.12-.613q.121-.295.364-.537l2.42-2.427l-3.522-3.53q-.14-.14-.153-.34q-.013-.202.153-.367q.16-.16.354-.16q.194 0 .354.16l16.044 16.044q.14.14.15.339q.01.198-.15.357q-.16.16-.351.16q-.192 0-.351-.16l-3.485-3.478ZM5.113 12.313l6.54 6.54q.155.155.328.155t.327-.154l2.346-2.335l-1.848-1.848l-.26.26q-.242.242-.565.242q-.323 0-.566-.242l-2.378-2.38q-.243-.241-.243-.564q0-.324.243-.566l.26-.26L7.453 9.32l-2.34 2.34q-.154.154-.154.328t.153.326Zm9.795.256l-3.516-3.515l.023-.023q.223-.223.547-.223q.323 0 .546.223l2.423 2.423q.223.223.223.546t-.223.546l-.023.023Z"/></svg>