<svg xmlns="http://www.w3.org/2000/svg" width="200" height="200" viewBox="0 0 24 24"><path fill="currentColor" d="M4.665 19.258q-.14-.14-.14-.348t.14-.34l2.048-2.049q-.8-.929-1.256-2.105Q5 13.24 5 11.923q0-2.931 2.034-4.966T12 4.923h5.962q.44 0 .739.3q.299.298.299.739v5.961q0 2.931-2.034 4.966T12 18.923q-1.317 0-2.48-.457T7.427 17.21l-2.073 2.048q-.134.14-.341.14t-.348-.14m4.07-4.073q.14.155.345.15t.349-.147l3.925-3.905q.165-.166.165-.357t-.16-.35q-.146-.147-.353-.147t-.34.14L8.734 14.5q-.14.136-.14.339t.14.346"/></svg>