<svg xmlns="http://www.w3.org/2000/svg" width="200" height="200" viewBox="0 0 24 24"><path fill="currentColor" d="M2.5 7.038V4.5h1v2.538h-1Zm0 12.462v-2.538h1V19.5h-1ZM6.865 8.848l-.713-.713L7.95 6.337l.713.713l-1.798 1.798Zm1.085 8.815l-1.798-1.798l.713-.713l1.798 1.798l-.713.713Zm.07-5.163v-1H15l-2.108-2.804l.812-.604l2.327 3.116q.298.404.077.848q-.221.444-.723.444H8.019Zm12.002 6q-.416 0-.71-.292q-.293-.291-.293-.708v-11q0-.417.291-.708q.291-.292.707-.292t.709.292q.293.291.293.708v11q0 .417-.29.708q-.292.292-.707.292Zm-17.464-3v-1q1.031 0 1.765-.735q.735-.736.735-1.769t-.735-1.764Q3.59 9.5 2.558 9.5v-1q1.457 0 2.479 1.021q1.02 1.021 1.02 2.479t-1.02 2.479Q4.015 15.5 2.557 15.5Z"/></svg>