<svg xmlns="http://www.w3.org/2000/svg" width="200" height="200" viewBox="0 0 24 24"><path fill="currentColor" d="M12 18.423q-1.188 0-2.017-.829t-.83-2.017t.83-2.017q.829-.83 2.017-.83t2.017.83t.83 2.017t-.83 2.017q-.829.83-2.017.83m.004-1q.763 0 1.303-.544t.54-1.307t-.544-1.303t-1.307-.54t-1.303.544t-.54 1.307t.544 1.303t1.307.54M12 5.73q-1.888 0-3.605.679q-1.716.678-3.07 1.88q-.177.14-.371.15t-.37-.15q-.16-.16-.151-.363t.18-.344q1.47-1.304 3.33-2.078T12 4.73t4.058.774t3.329 2.083q.17.14.177.342t-.154.36q-.175.16-.367.15t-.368-.15q-1.354-1.202-3.07-1.88q-1.717-.68-3.605-.68m0 4q-1.102 0-2.037.337t-1.77 1.025q-.178.135-.381.142t-.37-.153q-.152-.146-.152-.349t.172-.328q1.025-.835 2.133-1.254T12 8.73t2.402.42t2.13 1.254q.172.134.175.333t-.144.338q-.165.165-.369.159t-.38-.142q-.835-.688-1.774-1.025q-.938-.336-2.04-.336m0 5.846"/></svg>