<svg xmlns="http://www.w3.org/2000/svg" width="200" height="200" viewBox="0 0 24 24"><path fill="currentColor" d="M12 19.577L1.423 9q2.15-1.93 4.837-2.965Q8.946 5 11.992 5q3.068 0 5.754 1.035Q20.433 7.069 22.576 9l-1.563 1.563q-.261-.134-.519-.22q-.257-.087-.536-.15L21.1 9.05q-1.95-1.475-4.263-2.263T12 6q-2.525 0-4.838.788T2.9 9.05l6.05 6.05q.723-.49 1.652-.726q.929-.236 1.829-.155q-.139.394-.208.81q-.07.417-.07.842q0 .764.184 1.483q.182.72.534 1.352l-.871.87Zm4.39 0q-.392 0-.66-.265q-.268-.266-.268-.658v-2.697q0-.382.265-.65q.265-.269.658-.269h.096v-1q0-.748.51-1.258t1.259-.51t1.259.51q.51.51.51 1.258v1h.096q.376 0 .63.266q.255.265.255.658v2.696q0 .382-.265.65q-.265.269-.657.269H16.39Zm.86-4.539h2v-1q0-.425-.288-.712t-.712-.288q-.425 0-.713.288t-.287.712v1Z"/></svg>