<svg xmlns="http://www.w3.org/2000/svg" width="200" height="200" viewBox="0 0 24 24"><path fill="currentColor" d="M12 6q-2.475 0-4.8.775T2.9 9.05l1.45 1.45q1.675-1.2 3.625-1.85T12 8t4.025.65t3.625 1.85l1.45-1.45q-1.975-1.5-4.3-2.275T12 6m-.071 13.123q-.177 0-.342-.061q-.166-.062-.32-.218L2.256 9.833q-.16-.16-.236-.353t-.076-.4q0-.224.101-.436t.292-.37q2.092-1.607 4.558-2.44Q9.362 5 12 5t5.105.834t4.558 2.44q.19.159.292.37t.1.434q0 .21-.075.403q-.076.192-.236.352l-.836.836q-.144.139-.34.178t-.381-.041q-.48-.196-.985-.28t-1.01-.084q-2.288 0-3.952 1.635q-1.663 1.635-2.086 4.179q0 .295.04.564t.148.543t.216.544t.107.564q0 .303-.216.478q-.217.174-.52.174m4.46.454q-.39 0-.66-.265q-.267-.266-.267-.658v-2.697q0-.382.265-.65q.265-.269.658-.269h.096v-1q0-.748.51-1.258t1.259-.51t1.259.51t.51 1.258v1h.096q.376 0 .63.266t.255.658v2.696q0 .382-.265.65t-.657.269zm.861-4.539h2v-1q0-.425-.288-.712t-.712-.288t-.712.288t-.288.712z"/></svg>