<svg xmlns="http://www.w3.org/2000/svg" width="200" height="200" viewBox="0 0 24 24"><path fill="currentColor" d="M12 6q-2.475 0-4.8.775T2.9 9.05l4.512 4.512q1.023-.708 2.191-1.077t2.397-.37q.104 0 .208.012q.104.011.202.035q.328.023.47.339t-.038.609q-.344.654-.516 1.425t-.172 1.72q0 .296.04.565t.148.543t.216.544t.107.564q0 .303-.216.478q-.217.174-.52.174q-.177 0-.342-.061q-.166-.062-.32-.218L2.256 9.833q-.16-.16-.236-.353t-.076-.4q0-.224.101-.436t.292-.37q2.092-1.607 4.558-2.44Q9.362 5 12 5t5.105.834t4.558 2.44q.19.159.292.37t.1.434q0 .21-.075.403q-.076.192-.236.352l-.982.977q-.147.151-.348.158t-.366-.158q-.165-.166-.156-.36t.156-.354L21.1 9.05q-1.975-1.5-4.3-2.275T12 6m4.39 13.577q-.392 0-.66-.265q-.268-.266-.268-.658v-2.697q0-.382.265-.65q.265-.269.658-.269h.096v-1q0-.748.51-1.258t1.259-.51t1.259.51t.51 1.258v1h.096q.376 0 .63.266t.255.658v2.696q0 .382-.265.65t-.657.269zm.86-4.539h2v-1q0-.425-.288-.712t-.712-.288t-.712.288t-.288.712z"/></svg>