<svg xmlns="http://www.w3.org/2000/svg" width="200" height="200" viewBox="0 0 24 24"><path fill="currentColor" d="M4.115 20.5q-.67 0-1.143-.472q-.472-.472-.472-1.143V4.696q0-.136.121-.19t.227.054l.535.534q.13.131.292.131t.292-.13l1.066-1.091q.13-.13.292-.13t.292.13l1.09 1.09q.131.131.293.131t.292-.13l1.09-1.091q.131-.13.293-.13t.292.13l1.066 1.09q.13.131.292.131t.292-.13l1.09-1.091q.131-.13.293-.13t.292.13l1.09 1.09q.131.131.293.131t.292-.13l1.066-1.091q.13-.13.292-.13t.292.13l1.09 1.09q.131.131.293.131t.292-.13l1.09-1.091q.131-.13.293-.13t.292.13l1.066 1.09q.13.131.292.131t.292-.13l.535-.535q.106-.106.227-.053t.121.19v14.188q0 .67-.472 1.143q-.472.472-1.143.472H4.115Zm0-1H11.5v-7h-8v6.385q0 .269.173.442t.442.173Zm8.385 0h7.385q.269 0 .442-.173t.173-.442V16.5h-8v3Zm0-4h8v-3h-8v3Zm-9-4h17V7.308h-17V11.5Z"/></svg>