<svg xmlns="http://www.w3.org/2000/svg" width="200" height="200" viewBox="0 0 24 24"><path fill="currentColor" d="m19 17.535l-1-1V10h-6.535l-1-1H15V7q0-1.27-.9-2.135Q13.197 4 11.928 4q-1.27 0-2.167.872q-.899.872-.899 2.128v.283l-.92-.921q.222-1.449 1.345-2.405Q10.412 3 11.928 3q1.691 0 2.882 1.164Q16 5.33 16 7v2h3v8.535Zm1.5 5.765L18.2 21H5V9.062h1.262L.7 3.5l.708-.708l19.8 19.8l-.708.708ZM17.15 20l-4.021-4.071q-.217.217-.493.329q-.276.111-.586.111q-.633 0-1.066-.433q-.434-.434-.434-1.067q0-.31.112-.585q.111-.276.328-.494L7.15 10H6v10h11.15Zm-5-5Zm2.583-1.733Z"/></svg>