<svg xmlns="http://www.w3.org/2000/svg" width="200" height="200" viewBox="0 0 24 24"><path fill="currentColor" d="m20.317 18.52l-.902-.903l1.058-10.232h-9.011l-.135-1h4.615v-4h1v4h4.616l-1.24 12.134Zm-4.692-4.707Zm4.465 8.718L.867 3.308l.714-.714l19.223 19.223l-.714.714ZM2.442 18.692v-1h13.231v1H2.443Zm0 3.308v-1h13.231v1H2.443Zm7.762-10.783v1q-.279-.038-.564-.05q-.284-.013-.582-.013q-2.13 0-3.5.644t-1.825 1.587h9.638l1 1H2.442q0-1.737 1.79-2.984q1.79-1.247 4.826-1.247q.298 0 .582.012q.285.013.564.051Zm-1.146 3.168Z"/></svg>