<svg xmlns="http://www.w3.org/2000/svg" width="200" height="200" viewBox="0 0 24 24"><path fill="currentColor" d="M10.548 6.423h3.067V3.885h-3.067v2.538ZM8.383 21q-.327 0-.547-.221q-.22-.221-.22-.548V20q-.667 0-1.141-.475Q6 19.051 6 18.385V8q0-.415.168-.77q.169-.355.513-.555L18.006 18l-.006.385q0 .666-.475 1.14q-.474.475-1.14.475v.23q0 .328-.222.549q-.221.221-.549.221q-.327 0-.548-.221q-.22-.221-.22-.548V20H9.154v.23q0 .328-.222.549q-.221.221-.549.221Zm12.373 1.171L2.24 3.661q-.146-.146-.155-.347q-.01-.2.155-.366q.166-.165.357-.165q.191 0 .357.165l18.515 18.515q.146.147.156.345q.01.198-.156.363q-.165.166-.356.166t-.357-.166ZM18 14.606l-2.346-2.346V9.365q0-.191-.125-.317t-.317-.125q-.19 0-.317.125q-.126.126-.126.317v2.01L9.663 6.269V3.923q0-.385.27-.654q.269-.269.654-.269h2.99q.385 0 .654.27t.269.653v2.5h1.885q.666 0 1.14.475q.475.475.475 1.141v6.567ZM8.788 17.23q.19 0 .317-.126q.126-.125.126-.317V9.302h-.885v7.486q0 .192.125.317q.125.126.317.126Zm3.211 0q.191 0 .317-.126q.126-.125.126-.317v-4.346l-.884-.89v5.236q0 .192.125.317q.125.126.316.126Zm3.212 0q.19 0 .317-.126q.126-.125.126-.317v-1.134l-.885-.885v2.02q0 .191.125.316t.317.126Z"/></svg>