<svg xmlns="http://www.w3.org/2000/svg" width="200" height="200" viewBox="0 0 24 24"><path fill="currentColor" d="m18 14.606l-1-1V8.038q0-.269-.173-.442t-.442-.173h-5.568L9.663 6.27V3.923q0-.385.27-.654q.269-.269.654-.269h2.99q.385 0 .654.27t.269.653v2.5h1.885q.666 0 1.14.475q.475.475.475 1.141v6.567Zm-2.346-2.346l-.885-.885v-2.01q0-.191.125-.317t.317-.125q.19 0 .317.125q.126.126.126.317v2.895Zm-5.106-5.837h3.067V3.885h-3.067v2.538ZM8.383 21q-.327 0-.547-.221q-.22-.221-.22-.548V20q-.667 0-1.141-.475Q6 19.051 6 18.385V8q0-.415.168-.77q.169-.355.513-.555l.844.844H7v10.866q0 .269.173.442t.442.173h8.77q.269 0 .442-.173t.173-.442v-1.39l1 1v.39q0 .666-.475 1.14q-.474.475-1.14.475v.23q0 .328-.222.549q-.221.221-.549.221q-.327 0-.548-.221q-.22-.221-.22-.548V20H9.154v.23q0 .328-.222.549q-.221.221-.549.221Zm.406-3.77q-.19 0-.317-.125q-.126-.125-.126-.317V9.302h.885v7.486q0 .192-.125.317t-.317.126Zm3.212 0q-.191 0-.317-.125t-.126-.317v-5.236l.884.89v4.346q0 .192-.125.317q-.125.126-.316.126Zm3.211 0q-.19 0-.317-.125q-.126-.125-.126-.317V14.77l.885.885v1.134q0 .192-.125.317t-.317.126Zm-1.3-6.718Zm-2.004 2.811Zm8.848 8.848L2.24 3.661q-.146-.146-.155-.347q-.01-.2.155-.366q.166-.165.357-.165q.191 0 .357.165l18.515 18.515q.146.147.156.345q.01.198-.156.363q-.165.166-.356.166t-.357-.166Z"/></svg>