<svg xmlns="http://www.w3.org/2000/svg" width="200" height="200" viewBox="0 0 24 24"><path fill="currentColor" d="m18 14.606l-1-1V8.038q0-.269-.173-.442t-.442-.173h-5.568L9.663 6.27V3.923q0-.385.27-.654q.269-.269.654-.269h2.99q.385 0 .654.27t.269.653v2.5h1.885q.666 0 1.14.475q.475.475.475 1.141v6.567Zm-2.346-2.346l-.885-.885V8.923h.885v3.337Zm-3.212-3.135l-.202-.202h.202v.202Zm-1.894-2.702h3.067V3.885h-3.067v2.538ZM8.383 21q-.327 0-.547-.221q-.22-.221-.22-.548V20q-.667 0-1.141-.475Q6 19.051 6 18.385V8q0-.415.168-.77q.169-.355.513-.555l.844.844H7v10.866q0 .269.173.442t.442.173h8.77q.269 0 .442-.173t.173-.442V17l1 1v.385q0 .666-.475 1.14q-.474.475-1.14.475v.23q0 .328-.222.549q-.221.221-.549.221q-.327 0-.548-.221q-.22-.221-.22-.548V20H9.154v.23q0 .328-.222.549q-.221.221-.549.221Zm-.037-3.77V9.303h.885v7.929h-.885Zm3.212-5.678l.884.89v4.789h-.884v-5.68Zm3.211 3.217l.885.885v1.577h-.885v-2.462Zm-.857-4.257Zm-2.004 2.811Zm9.202 9.208L1.887 3.308l.713-.714l19.223 19.223l-.713.714Z"/></svg>