<svg xmlns="http://www.w3.org/2000/svg" width="200" height="200" viewBox="0 0 24 24"><path fill="currentColor" d="M10.548 6.423h3.067V3.885h-3.067v2.538ZM7.615 21v-1H6V6.675h.68L18 17.995v2.011h-1.615V21h-1.539v-1H9.154v1H7.615Zm.731-3.77h.885V9.303h-.885v7.929Zm3.212 0h.884v-4.788l-.884-.89v5.679Zm3.211 0h.885v-1.576l-.885-.885v2.462Zm6.34 5.3L1.888 3.309l.713-.714l19.223 19.223l-.713.714ZM18 14.607l-2.346-2.346V8.923h-.885v2.452l-2.25-2.25v-.202h-.202L9.663 6.27V3H14.5v3.423H18v8.183Z"/></svg>