<svg xmlns="http://www.w3.org/2000/svg" width="200" height="200" viewBox="0 0 24 24"><path fill="currentColor" d="m18 14.606l-1-1V7.423h-6.183L9.663 6.27V3H14.5v3.423H18v8.183Zm-2.346-2.346l-.885-.885V8.923h.885v3.337Zm-3.212-3.135l-.202-.202h.202v.202Zm-1.894-2.702h3.067V3.885h-3.067v2.538ZM9.154 21H7.615v-1H6V6.675h.68l.845.844H7V19h10v-2.006l1 1v2.012h-1.615V21h-1.539v-1H9.154v1Zm-.808-3.77V9.303h.885v7.929h-.885Zm3.212 0v-5.678l.884.89v4.789h-.884Zm3.211 0v-2.46l.885.884v1.577h-.885Zm-.857-6.718Zm-2.004 2.811Zm9.202 9.208L1.887 3.308l.713-.714l19.223 19.223l-.713.714Z"/></svg>