<svg xmlns="http://www.w3.org/2000/svg" width="200" height="200" viewBox="0 0 24 24"><path fill="currentColor" d="M10.548 6.423h3.067V3.885h-3.067v2.538ZM8.383 21q-.327 0-.547-.221q-.22-.221-.22-.548V20q-.667 0-1.141-.475Q6 19.051 6 18.385V8q0-.415.168-.77q.169-.355.513-.555L18 18v.385q0 .666-.475 1.14q-.474.475-1.14.475v.23q0 .328-.222.549q-.221.221-.549.221q-.327 0-.548-.221q-.22-.221-.22-.548V20H9.154v.23q0 .328-.222.549q-.221.221-.549.221Zm-.037-3.77h.885V9.303h-.885v7.929Zm3.212 0h.884v-4.788l-.884-.89v5.679Zm3.211 0h.885v-1.576l-.885-.885v2.462Zm6.34 5.3L1.888 3.309l.713-.714l19.223 19.223l-.713.714ZM18 14.607l-2.346-2.346V8.923h-.885v2.452l-2.25-2.25v-.202h-.202L9.663 6.27V3.923q0-.385.27-.654q.269-.269.654-.269h2.99q.385 0 .654.27t.269.653v2.5h1.885q.666 0 1.14.475q.475.475.475 1.141v6.567Z"/></svg>