<svg xmlns="http://www.w3.org/2000/svg" width="200" height="200" viewBox="0 0 24 24"><path fill="currentColor" d="m21.11 22.53l-3.38-3.378V21.5h-1v-3.348L1.888 3.308l.713-.714l19.223 19.223l-.713.714Zm-3.38-7.617l-1.017-1.017v-.384h-.384l-2.06-2.06V7q0-1.671.944-3.066q.943-1.396 2.518-1.396v12.375Zm-6.46-6.461l-1-1V2.5h1v5.952ZM8.5 5.682l-1-1V2.5h1v3.183ZM5.73 2.914L5.318 2.5h.414v.413ZM7.5 21.5v-9.035q-1.16-.177-1.964-1.063q-.805-.887-.805-2.171V4.725l1 1v3.506H7.5V7.494l1.006 1v.731h.73l1.616 1.621q-.362.652-.978 1.084q-.616.432-1.374.535V21.5h-1Z"/></svg>