<svg xmlns="http://www.w3.org/2000/svg" width="200" height="200" viewBox="0 0 24 24"><path fill="currentColor" d="m21 18.183l-1-1V7.615q0-.269-.173-.442T19.385 7h-3.397l-1.844-2H9.856l-.97 1.07l-.713-.714l.765-.84q.218-.243.528-.38q.31-.136.659-.136h3.75q.348 0 .659.137q.31.136.528.378L16.427 6h2.958q.69 0 1.152.463q.463.462.463 1.152v10.568ZM4.615 20q-.69 0-1.152-.462Q3 19.075 3 18.385V7.615q0-.69.463-1.152Q3.925 6 4.615 6h1.39l1 1h-2.39q-.269 0-.442.173T4 7.615v10.77q0 .269.173.442t.442.173h14.39l1 1H4.616Zm10.477-4.913q-.51.753-1.312 1.199q-.803.445-1.78.445q-1.567 0-2.649-1.082T8.269 13q0-.977.445-1.78q.446-.803 1.2-1.312l.719.719q-.62.344-.992.967T9.27 13q0 1.165.783 1.948t1.948.783q.783 0 1.406-.372q.623-.372.967-.992l.72.72Zm-.45-4.73q.471.466.751 1.07t.319 1.323v.07q0 .034-.006.068l-3.594-3.594q.034-.006.069-.006h.069q.72.039 1.323.319q.604.28 1.07.75Zm6.114 11.814L2.24 3.661q-.146-.146-.155-.347q-.01-.2.155-.366q.166-.165.357-.165q.191 0 .357.165l18.515 18.515q.146.147.156.345q.01.198-.156.363q-.165.166-.356.166t-.357-.166ZM11.579 13Zm2.852-1.387Z"/></svg>