<svg xmlns="http://www.w3.org/2000/svg" width="200" height="200" viewBox="0 0 24 24"><path fill="currentColor" d="M19 16.425L7.977 5.446L9.944 3.48q.218-.217.522-.348q.305-.131.628-.131h6.29q.691 0 1.154.463q.462.462.462 1.152v11.81ZM6.615 21q-.69 0-1.152-.462Q5 20.075 5 19.385V9.095q0-.324.13-.629q.132-.304.349-.522l.39-.39L2.4 4.084q-.146-.146-.153-.344q-.007-.198.159-.363q.165-.16.354-.163q.188-.002.353.163L20.777 21.04q.14.14.15.342q.01.2-.15.366q-.165.165-.357.165t-.357-.165l-3.478-3.479l.713-.707L19 19.263v.122q0 .69-.462 1.152q-.463.463-1.153.463H6.615Z"/></svg>