<svg xmlns="http://www.w3.org/2000/svg" width="200" height="200" viewBox="0 0 24 24"><path fill="currentColor" d="m19 16.425l-1-1V4.615q0-.23-.192-.423Q17.615 4 17.385 4H10.85L8.696 6.154l-.72-.708L10.424 3h6.962q.69 0 1.152.463q.463.462.463 1.152v11.81ZM6.615 21q-.69 0-1.152-.462Q5 20.075 5 19.385V9.095q0-.324.13-.629q.132-.304.349-.522l.39-.39L2.4 4.084q-.146-.146-.153-.344q-.007-.198.159-.363q.165-.16.354-.163q.188-.002.353.163L20.777 21.04q.14.14.15.342q.01.2-.15.366q-.165.165-.357.165t-.357-.165L6.577 8.262L6 8.838v10.547q0 .23.192.423q.193.192.423.192h10.77q.23 0 .423-.192q.192-.193.192-.423v-1.122l1 1v.122q0 .69-.462 1.152q-.463.463-1.153.463H6.615Zm6.833-10.113Zm-1.163 3.05Z"/></svg>