<svg xmlns="http://www.w3.org/2000/svg" width="200" height="200" viewBox="0 0 24 24"><path fill="currentColor" d="M7.77 18v1.385q0 .256-.18.436q-.181.179-.438.179t-.436-.18q-.178-.179-.178-.435v-1.781q-.488-.212-1.013-.901Q5 16.013 5 15.115V6.421l-2.76-2.76q-.146-.146-.155-.347q-.01-.2.155-.366q.166-.165.357-.165q.191 0 .357.165l18.515 18.515q.146.147.156.345q.01.198-.156.363q-.165.166-.356.166t-.357-.166l-4.687-4.68h1.427v1.876q0 .261-.187.447q-.186.186-.449.186q-.262 0-.446-.186q-.183-.186-.183-.447V18H7.769ZM8 17h7.579l-5-5H6v3q0 .825.588 1.413T8 17Zm10.84-.977l-.84-.84V12h-3.183l-1-1H18V6.538H9.356l-1-1h9.563q-.26-.77-1.603-1.154Q14.973 4 12.012 4q-1.699 0-2.83.13q-1.132.132-1.84.395l-.755-.756q.861-.384 2.198-.577Q10.122 3 12 3q3.763 0 5.381.694T19 6v9.115q0 .232-.046.456q-.046.223-.114.452Zm-10.335-.408q.466 0 .788-.326q.322-.327.322-.794t-.326-.788q-.327-.322-.794-.322t-.788.326q-.322.327-.322.794t.326.788q.327.322.794.322ZM6 11h3.579L6 7.421V11Zm2.356-5.462h9.563h-9.563ZM10.579 12Zm4.238 0Z"/></svg>