<svg xmlns="http://www.w3.org/2000/svg" width="200" height="200" viewBox="0 0 24 24"><path fill="currentColor" d="M5.615 20q-.666 0-1.14-.475Q4 19.051 4 18.385V5.615q0-.666.475-1.14Q4.949 4 5.615 4h4.7q-.136-.765.367-1.383Q11.185 2 12.01 2t1.328.617q.502.618.347 1.383h4.7q.666 0 1.14.475q.475.474.475 1.14v12.77q0 .666-.475 1.14q-.474.475-1.14.475H5.615ZM12 4.442q.325 0 .537-.212t.213-.538q0-.325-.213-.537T12 2.942q-.325 0-.537.213t-.213.537q0 .325.213.538t.537.212ZM8.173 16.231h.296q.153 0 .297-.059t.268-.183l5.681-5.631l-1.073-1.073l-5.63 5.63q-.131.131-.187.275t-.056.297v.34q0 .161.121.283t.283.12Zm7.089-6.42l.819-.83q.15-.15.15-.35t-.15-.35l-.362-.362q-.15-.15-.35-.15t-.35.15l-.83.82l1.073 1.073Z"/></svg>