<svg xmlns="http://www.w3.org/2000/svg" width="200" height="200" viewBox="0 0 24 24"><path fill="currentColor" d="M11.997 21.385q-.668 0-1.14-.475q-.472-.474-.472-1.14h3.23q0 .67-.475 1.142q-.476.473-1.143.473Zm-5.382-3.616V9.846q0-1.96 1.24-3.447Q9.097 4.912 11 4.546V4q0-.417.291-.708q.291-.292.707-.292q.415 0 .709.292Q13 3.583 13 4v.537q.43.096.83.231q.397.135.749.344q-.662.817-1.015 1.819q-.352 1.002-.352 2.077q0 1.96 1.143 3.56q1.143 1.601 3.03 2.23v2.971H18.5q.213 0 .356.144t.144.357q0 .213-.144.356t-.356.143h-13q-.213 0-.356-.144Q5 18.481 5 18.27q0-.213.144-.356q.143-.144.356-.144h1.115ZM18.77 9.5h-2.5q-.212 0-.356-.144T15.769 9t.144-.356q.144-.143.356-.143h2.5V6q0-.213.144-.356t.357-.144q.213 0 .356.144t.143.356v2.5h2.5q.213 0 .357.144q.143.144.143.357t-.143.356q-.144.143-.357.143h-2.5V12q0 .213-.144.356t-.356.144q-.213 0-.357-.144q-.143-.144-.143-.356V9.5Z"/></svg>