<svg xmlns="http://www.w3.org/2000/svg" width="200" height="200" viewBox="0 0 24 24"><path fill="currentColor" d="M4.115 20.115q-.69 0-1.153-.462Q2.5 19.19 2.5 18.5V7.27h1V18.5q0 .27.173.442t.442.173H17v1H4.115ZM13.5 12.65l-7-4.1v6.95q0 .27.173.442t.442.173h12.77q.269 0 .442-.173t.173-.442V8.55l-7 4.1Zm-6.385 4.465q-.69 0-1.153-.462Q5.5 16.19 5.5 15.5V7.808q0-.39.151-.673q.15-.283.53-.5L13.5 2.346l1.815 1.066l-.73.719l-1.085-.627l-6.8 4l6.8 4l6.8-4l-1.446-.877l.72-.72l1.245.728q.38.217.53.5q.151.282.151.673V15.5q0 .69-.463 1.153q-.462.462-1.152.462H7.115Zm6.158-7.577l-2.108-2.107l.708-.708l1.4 1.4l4.65-4.65l.708.708l-5.358 5.357Zm.227 6.577h7h-14h7Z"/></svg>