<svg xmlns="http://www.w3.org/2000/svg" width="200" height="200" viewBox="0 0 24 24"><path fill="currentColor" d="M11.997 21.385q-.668 0-1.14-.475q-.472-.474-.472-1.14h3.23q0 .67-.475 1.142q-.476.473-1.143.473ZM5 18.769v-1h1.615V9.846q0-1.96 1.24-3.447Q9.097 4.912 11 4.546V3h2v1.545q.43.088.83.223q.397.135.749.344q-.169.194-.292.408q-.124.213-.247.438q-.455-.243-.968-.37T12 5.462q-1.823 0-3.104 1.28q-1.28 1.281-1.28 3.104v7.923h8.769v-3.46q.232.145.476.275q.244.13.524.214v2.971H19v1H5Zm7-7.154Zm6.77.885v-3h-3v-1h3v-3h1v3h3v1h-3v3h-1Z"/></svg>