<svg xmlns="http://www.w3.org/2000/svg" width="200" height="200" viewBox="0 0 24 24"><path fill="currentColor" d="M5 18.77v-1h1.615V9.845q0-1.96 1.24-3.447Q9.097 4.912 11 4.546V3h2v1.546q1.904.366 3.144 1.853q1.24 1.488 1.24 3.447v7.923H19v1H5Zm7-7.155Zm0 9.77q-.671 0-1.143-.473q-.472-.472-.472-1.143h3.23q0 .671-.472 1.144q-.472.472-1.143.472Zm-4.385-3.616h8.77V9.846q0-1.823-1.281-3.104q-1.28-1.28-3.104-1.28t-3.104 1.28q-1.28 1.281-1.28 3.104v7.923ZM3.231 9.827q0-1.923.766-3.578q.766-1.655 2.084-2.857l.675.735q-1.173 1.061-1.85 2.525q-.675 1.463-.675 3.175h-1Zm16.538 0q0-1.712-.676-3.185t-1.849-2.534l.675-.716q1.318 1.202 2.084 2.857q.766 1.655.766 3.578h-1Z"/></svg>