<svg xmlns="http://www.w3.org/2000/svg" width="200" height="200" viewBox="0 0 24 24"><path fill="currentColor" d="M4.115 20.115q-.69 0-1.153-.462Q2.5 19.19 2.5 18.5V7.77q0-.214.143-.357q.144-.144.357-.144t.357.144t.143.356V18.5q0 .27.173.442t.442.173H16.5q.213 0 .357.144q.143.143.143.356q0 .214-.143.357q-.144.143-.357.143H4.115Zm8.981-7.707L6.5 8.55v6.95q0 .27.173.442t.442.173h12.77q.269 0 .442-.173t.173-.442V8.55l-6.596 3.858q-.187.105-.404.105t-.404-.105Zm-5.98 4.707q-.691 0-1.153-.462Q5.5 16.19 5.5 15.5V7.808q0-.39.151-.673q.15-.283.53-.5L13.5 2.346l1.815 1.066l-.73.719l-1.085-.627l-6.8 4l6.8 4l6.8-4l-1.446-.877l.72-.72l1.245.728q.38.217.53.5q.151.282.151.673V15.5q0 .69-.463 1.153q-.462.462-1.152.462H7.115Zm6.157-8.992l4.296-4.296q.14-.14.344-.15q.204-.01.364.15t.16.354q0 .194-.16.354l-4.439 4.438q-.242.242-.565.242t-.565-.242l-1.189-1.188q-.14-.14-.15-.345q-.01-.203.15-.363q.16-.16.354-.16q.194 0 .354.16l1.046 1.046Zm.227 7.992h7h-14h7Z"/></svg>