<svg xmlns="http://www.w3.org/2000/svg" width="200" height="200" viewBox="0 0 24 24"><path fill="currentColor" d="m19.833 21.26l-2.237-2.237q-1.206.973-2.634 1.475Q13.532 21 12 21q-1.863 0-3.506-.71t-2.857-1.927t-1.926-2.857T3 12q0-1.533.502-2.962q.502-1.428 1.475-2.634L2.74 4.167l.714-.713l17.092 17.092zM8.5 16.5h6.573l-1-1H8.5zm11.12.308l-6.085-6.085l2.373-2.373l-.714-.702l-2.367 2.367l-5.635-5.634q1.09-.685 2.308-1.033T12 3q1.863 0 3.506.71t2.857 1.927t1.926 2.857T21 12q0 1.283-.348 2.5t-1.033 2.308"/></svg>