<svg xmlns="http://www.w3.org/2000/svg" width="200" height="200" viewBox="0 0 24 24"><path fill="currentColor" d="M12 21q-1.868 0-3.51-.709t-2.857-1.923t-1.924-2.858T3 12q0-1.533.502-2.962q.502-1.428 1.475-2.634L3.094 4.52q-.146-.146-.153-.347t.159-.366t.357-.166t.356.166l16.38 16.384q.145.146.155.345t-.156.363t-.356.165t-.357-.165l-1.883-1.877q-1.206.973-2.634 1.475Q13.532 21 12 21m-3-4.5h6.073l-1-1H9q-.213 0-.356.144q-.144.144-.144.357t.144.356T9 16.5M12 3q1.868 0 3.51.709t2.858 1.924T20.29 8.49T21 12q0 .935-.184 1.836t-.55 1.747q-.124.29-.362.425t-.526.134q-.207 0-.385-.07t-.337-.228l-4.83-4.829q-.13-.123-.13-.288t.13-.296l1.728-1.727q.165-.166.162-.357t-.168-.35t-.357-.158t-.35.163l-1.722 1.721q-.124.13-.289.13t-.295-.13l-4.38-4.379q-.158-.16-.228-.34t-.07-.38q0-.28.144-.52t.416-.37q.846-.367 1.747-.55T12 3"/></svg>