<svg xmlns="http://www.w3.org/2000/svg" width="200" height="200" viewBox="0 0 24 24"><path fill="currentColor" d="m19.479 20.9l-.944-.938q-.097.019-.173.028q-.077.01-.174.01H5.615q-.69 0-1.152-.462Q4 19.075 4 18.385V5.812q0-.097.01-.174q.01-.076.028-.173l-.944-.944q-.146-.146-.156-.347q-.01-.2.156-.366q.166-.166.357-.166t.357.166l16.384 16.384q.146.146.156.345q.01.198-.156.363q-.165.165-.356.165t-.357-.165ZM5.615 19h11.958l-5.933-5.933l-1.548 1.548q-.14.14-.344.15q-.204.01-.363-.15q-.16-.16-.16-.353q0-.195.16-.354l1.548-1.548L5 6.427v11.958q0 .23.192.423q.193.192.423.192ZM7.812 5l-1-1h3.919q.213 0 .357.143q.143.144.143.357t-.143.357T10.73 5H7.81Zm5.948 5.948l-.708-.708L18.292 5H14.5q-.213 0-.357-.143T14 4.5q0-.213.143-.357Q14.287 4 14.5 4h4.692q.348 0 .578.23q.23.23.23.578V9.5q0 .213-.143.357q-.144.143-.357.143t-.357-.143T19 9.5V5.708l-5.24 5.24Zm6.24 6.24l-1-1V13.27q0-.213.143-.356t.357-.144q.213 0 .357.144q.143.143.143.356v3.92Z"/></svg>