<svg xmlns="http://www.w3.org/2000/svg" width="200" height="200" viewBox="0 0 24 24"><path fill="currentColor" d="m12 19.579l1.713-1.694q.147-.147.354-.156q.208-.01.354.156q.146.146.137.356t-.156.357l-1.837 1.837q-.13.13-.267.183t-.298.053t-.298-.053t-.267-.183l-1.837-1.837q-.146-.146-.156-.347t.156-.366t.354-.166t.354.166zM4.421 12l1.694 1.694q.147.146.156.344q.01.199-.156.364t-.356.165t-.357-.165l-1.837-1.837q-.13-.13-.183-.267T3.329 12t.053-.298t.183-.267l1.856-1.856q.146-.146.338-.146t.356.146t.156.354t-.156.354zm15.177 0l-1.713-1.733q-.147-.146-.137-.344t.156-.344t.347-.146t.347.146l1.837 1.856q.13.13.183.267t.053.298t-.053.298t-.183.267l-1.837 1.837q-.146.146-.357.156t-.356-.156q-.147-.146-.137-.354t.156-.354zM12 4.402l-1.713 1.713q-.147.147-.345.147t-.344-.147q-.165-.146-.156-.356t.156-.357l1.837-1.837q.13-.13.267-.183T12 3.329t.298.053t.267.183l1.856 1.856q.146.146.137.347t-.156.347q-.146.147-.335.147t-.334-.147z"/></svg>