<svg xmlns="http://www.w3.org/2000/svg" width="200" height="200" viewBox="0 0 24 24"><path fill="currentColor" d="M6.385 20.615V13H8V9.092L4.792 5.885L8.1 2.596l.688.689l-2.58 2.6L9 8.677V13h1.615v7.615h-4.23Zm7 0V13H15V9.952q-1.108-.177-1.862-1.038q-.753-.86-.753-2.03q0-1.303.905-2.209q.906-.906 2.21-.906t2.21.906q.905.906.905 2.21q0 1.168-.753 2.029q-.754.861-1.862 1.038V13h1.615v7.615h-4.23ZM15.507 9q.876 0 1.492-.624q.616-.623.616-1.499q0-.875-.62-1.491q-.619-.617-1.489-.617t-1.495.62q-.626.62-.626 1.49t.623 1.495q.624.626 1.5.626ZM7.385 19.615h2.23V14h-2.23v5.615Zm7 0h2.23V14h-2.23v5.615Zm-7 0h2.23h-2.23Zm7 0h2.23h-2.23Z"/></svg>