<svg xmlns="http://www.w3.org/2000/svg" width="200" height="200" viewBox="0 0 24 24"><path fill="currentColor" d="M15.154 18.788H16.5v-1.346h-1.346v1.346Zm2.173 0h1.346v-1.346h-1.346v1.346Zm2.173 0h1.346v-1.346H19.5v1.346ZM4 20V4h16v7.565q-.263-.09-.504-.147q-.24-.056-.496-.112V5H5v14h6.28q.037.28.094.521q.057.24.147.479H4Zm1-2v1V5v6.306v-.075V18Zm2.5-1.73h3.96q.055-.257.15-.497l.2-.504H7.5v1Zm0-3.77h6.58q.493-.346.97-.587q.479-.24 1.027-.376V11.5H7.5v1Zm0-3.77h9v-1h-9v1ZM18 22.116q-1.671 0-2.836-1.164T14 18.115q0-1.67 1.164-2.835T18 14.115q1.671 0 2.836 1.165T22 18.115q0 1.672-1.164 2.836Q19.67 22.115 18 22.115Z"/></svg>