<svg xmlns="http://www.w3.org/2000/svg" width="200" height="200" viewBox="0 0 24 24"><path fill="currentColor" d="M15.827 18.788q.28 0 .477-.196q.196-.196.196-.477q0-.28-.196-.477q-.196-.196-.477-.196q-.28 0-.477.196q-.196.197-.196.477q0 .281.196.477q.196.196.477.196Zm2.173 0q.28 0 .477-.196q.196-.196.196-.477q0-.28-.196-.477q-.196-.196-.477-.196q-.28 0-.477.196q-.196.197-.196.477q0 .281.196.477q.196.196.477.196Zm2.173 0q.28 0 .477-.196q.196-.196.196-.477q0-.28-.196-.477q-.196-.196-.477-.196q-.28 0-.477.196q-.196.197-.196.477q0 .281.196.477q.196.196.477.196ZM5.615 20q-.67 0-1.143-.472Q4 19.056 4 18.385V5.615q0-.67.472-1.143Q4.944 4 5.615 4h12.77q.67 0 1.143.472q.472.472.472 1.143v5.95q-.263-.09-.504-.147q-.24-.056-.496-.112v-5.69q0-.231-.192-.424Q18.615 5 18.385 5H5.615q-.23 0-.423.192Q5 5.385 5 5.615v12.77q0 .23.192.423q.193.192.423.192h5.666q.036.28.093.521q.057.24.147.479H5.615ZM5 18v1V5v6.306v-.075V18Zm2.5-2.23q0 .213.143.356q.144.143.357.143h3.46q.055-.256.15-.496l.2-.504H8q-.213 0-.357.144q-.143.143-.143.356Zm0-3.77q0 .213.143.357q.144.143.357.143h6.08q.493-.346.97-.587q.479-.24 1.027-.376q-.11-.031-.25-.034q-.14-.003-.25-.003H8q-.213 0-.357.143q-.143.144-.143.357Zm0-3.77q0 .214.143.357q.144.144.357.144h8q.213 0 .357-.144q.143-.143.143-.356q0-.214-.143-.357q-.144-.143-.357-.143H8q-.213 0-.357.143q-.143.143-.143.357ZM18 22.116q-1.671 0-2.836-1.164T14 18.115q0-1.67 1.164-2.835T18 14.115q1.671 0 2.836 1.165T22 18.115q0 1.672-1.164 2.836Q19.67 22.115 18 22.115Z"/></svg>