<svg xmlns="http://www.w3.org/2000/svg" width="200" height="200" viewBox="0 0 24 24"><path fill="currentColor" d="M4 8.846V4h16v4.846H4ZM4 20V9.615h16V20H4ZM8 7.385q.425 0 .713-.288T9 6.385q0-.425-.288-.713T8 5.385q-.425 0-.713.287T7 6.385q0 .425.288.712T8 7.385Zm2.385 5.846h3.23V12h-3.23v1.23ZM12 7.385q.425 0 .713-.288T13 6.385q0-.425-.288-.713T12 5.385q-.425 0-.713.287T11 6.385q0 .425.288.712t.712.288Zm4 0q.425 0 .713-.288T17 6.385q0-.425-.288-.713T16 5.385q-.425 0-.713.287T15 6.385q0 .425.287.712t.713.288Z"/></svg>