<svg xmlns="http://www.w3.org/2000/svg" width="200" height="200" viewBox="0 0 24 24"><path fill="currentColor" d="M3.385 18q-.69 0-1.153-.463t-.463-1.152v-8.77q0-.69.463-1.153Q2.694 6 3.385 6h8.769q.69 0 1.153.463q.462.462.462 1.152v8.77q0 .69-.462 1.152q-.463.463-1.153.463h-8.77Zm0-1h8.769q.23 0 .423-.192q.192-.193.192-.423v-8.77q0-.23-.192-.423Q12.385 7 12.154 7h-8.77q-.23 0-.422.192q-.193.193-.193.423v8.77q0 .23.193.423q.192.192.423.192ZM17 18V6h1v12h-1Zm4.23 0V6h1v12h-1ZM2.77 17V7v10Z"/></svg>