<svg xmlns="http://www.w3.org/2000/svg" width="200" height="200" viewBox="0 0 24 24"><path fill="currentColor" d="M4.615 19q-.666 0-1.14-.475Q3 18.051 3 17.385V4.615q0-.666.475-1.14Q3.949 3 4.615 3h4.577q.667 0 1.141.475q.475.474.475 1.14v4.231h-1v-2.02H4v8.347h6.808v2.212q0 .666-.475 1.14Q9.86 19 9.193 19H4.614Zm10.02 2q-.595 0-1.019-.424q-.424-.423-.424-1.018v-4.385h1v2H20V8.846h-6.808v-2.23q0-.667.475-1.141Q14.14 5 14.807 5h4.578q.666 0 1.14.475q.475.474.475 1.14v12.77q0 .666-.475 1.14q-.474.475-1.14.475h-4.75ZM4 16.173v1.212q0 .269.173.442t.442.173h4.577q.27 0 .443-.173t.173-.442v-1.212H4Zm10.192 2v1.212q0 .269.173.442t.443.173h4.577q.269 0 .442-.173t.173-.442v-1.212h-5.808ZM4 5.827h5.808V4.615q0-.269-.173-.442T9.192 4H4.615q-.269 0-.442.173T4 4.615v1.212Zm10.192 2.02H20V6.614q0-.269-.173-.442T19.385 6h-4.577q-.27 0-.443.173t-.173.442v1.231ZM8.155 12.73q-.31 0-.521-.21t-.21-.52q0-.31.209-.521t.52-.21q.31 0 .521.21q.21.209.21.52q0 .31-.21.52q-.21.21-.52.21Zm3.846 0q-.31 0-.521-.21t-.21-.52q0-.31.21-.521t.52-.21q.31 0 .52.21t.21.52q0 .31-.21.52t-.52.21Zm3.827 0q-.31 0-.521-.21t-.21-.52q0-.31.21-.521t.52-.21q.31 0 .52.21t.21.52q0 .31-.21.52t-.52.21ZM4 16.173V18v-1.827Zm10.192 2V20v-1.827ZM4 5.827V4v1.827Zm10.192 2.02V6v1.846Z"/></svg>