<svg xmlns="http://www.w3.org/2000/svg" width="200" height="200" viewBox="0 0 24 24"><path fill="currentColor" d="M3 19V3h7.808v5.846h-1v-2.02H4v8.347h6.808V19H3Zm10.192 2v-5.827h1v2H20V8.846h-6.808V5H21v16h-7.808ZM4 18h5.808v-1.827H4V18Zm10.192 2H20v-1.827h-5.808V20ZM4 5.827h5.808V4H4v1.827Zm10.192 2.02H20V6h-5.808v1.846ZM4 18v-1.827V18Zm10.192 2v-1.827V20ZM4 5.827V4v1.827Zm10.192 2.02V6v1.846ZM7.423 12.73v-1.462h1.462v1.462H7.423Zm3.846 0v-1.462h1.462v1.462h-1.462Zm3.827 0v-1.462h1.462v1.462h-1.462Z"/></svg>