<svg xmlns="http://www.w3.org/2000/svg" width="200" height="200" viewBox="0 0 24 24"><path fill="currentColor" d="M4.615 19q-.69 0-1.152-.462T3 17.385V6.615q0-.69.463-1.152T4.615 5h14.77q.69 0 1.152.463T21 6.615v10.77q0 .69-.462 1.152T19.385 19h-.035q-.4 0-.733-.138t-.604-.41l-4.267-4.267q-.467.407-1.032.611Q12.15 15 11.5 15q-1.452 0-2.476-1.024T8 11.5t1.024-2.476T11.5 8t2.476 1.024T15 11.5q0 .54-.117.987t-.468.951L18.977 18h.408q.23 0 .423-.192t.192-.423V6.615q0-.23-.192-.423T19.385 6H4.615q-.23 0-.423.192T4 6.615v10.77q0 .23.192.423t.423.192h9.883q.25 0 .375.159t.125.341t-.125.341t-.375.159zm6.885-5q1.05 0 1.775-.725T14 11.5t-.725-1.775T11.5 9t-1.775.725T9 11.5t.725 1.775T11.5 14M4 18V6z"/></svg>