<svg xmlns="http://www.w3.org/2000/svg" width="200" height="200" viewBox="0 0 24 24"><path fill="currentColor" d="M17.558 19.058q-1.236 0-2.09-.854t-.853-2.089q0-1.235.854-2.089q.853-.853 2.089-.853t2.089.853q.853.854.853 2.09q0 1.235-.853 2.088q-.854.854-2.09.854Zm-.002-1q.804 0 1.374-.569q.57-.568.57-1.372q0-.804-.568-1.374t-1.372-.57q-.804 0-1.374.568t-.57 1.372q0 .804.568 1.375t1.372.57ZM5 16.615v-1h7.23v1H5Zm1.442-5.788q-1.235 0-2.089-.853Q3.5 9.12 3.5 7.884q0-1.235.853-2.088q.854-.854 2.09-.854q1.235 0 2.088.854t.854 2.089q0 1.235-.854 2.089q-.853.853-2.089.853Zm-.002-1q.804 0 1.374-.568t.57-1.372q0-.804-.568-1.375t-1.372-.57q-.804 0-1.374.569q-.57.568-.57 1.372q0 .804.568 1.374t1.372.57Zm5.33-1.442v-1H19v1h-7.23Zm5.788 7.73ZM6.442 7.885Z"/></svg>