<svg xmlns="http://www.w3.org/2000/svg" width="200" height="200" viewBox="0 0 24 24"><path fill="currentColor" d="M3.998 13.808q-.746 0-1.276-.532q-.53-.531-.53-1.278t.532-1.276q.531-.53 1.278-.53t1.276.532q.53.531.53 1.278t-.532 1.276q-.531.53-1.278.53Zm.002-.85q.39 0 .674-.284q.284-.284.284-.674q0-.39-.284-.674q-.284-.284-.674-.284q-.39 0-.674.284q-.284.284-.284.674q0 .39.284.674q.284.284.674.284Zm5.31.85q-.747 0-1.276-.532q-.53-.531-.53-1.278t.531-1.276q.532-.53 1.278-.53t1.276.532q.53.531.53 1.278t-.531 1.276q-.532.53-1.278.53Zm.002-.85q.39 0 .674-.284q.283-.284.283-.674q0-.39-.283-.674q-.284-.284-.674-.284q-.39 0-.674.284q-.284.284-.284.674q0 .39.284.674q.283.284.674.284Zm5.336.85q-.746 0-1.276-.532q-.53-.531-.53-1.278t.532-1.276q.531-.53 1.278-.53t1.276.532q.53.531.53 1.278t-.532 1.276q-.531.53-1.278.53Zm.002-.85q.39 0 .674-.284q.284-.284.284-.674q0-.39-.284-.674q-.284-.284-.674-.284q-.39 0-.674.284q-.284.284-.284.674q0 .39.284.674q.284.284.674.284Zm5.348.85q-.746 0-1.276-.532q-.53-.531-.53-1.278t.532-1.276q.531-.53 1.278-.53t1.276.532q.53.531.53 1.278t-.532 1.276q-.531.53-1.278.53Z"/></svg>