<svg xmlns="http://www.w3.org/2000/svg" width="200" height="200" viewBox="0 0 24 24"><path fill="currentColor" d="M4.405 12.635q-1.001 0-1.703-.705T2 10.218t.7-1.699t1.703-.692t1.703.695t.702 1.69q0 1.01-.701 1.716q-.7.707-1.702.707m15.192-.02q-1 0-1.703-.7q-.702-.701-.702-1.702t.701-1.703t1.702-.702t1.703.7T22 10.21t-.7 1.703q-.702.702-1.703.702m-5.462-1.292l-3.208-3.246q.228-.135.504-.202T12 7.808q1.002 0 1.703.7t.7 1.704q0 .303-.066.589q-.068.286-.202.522m6.357 10.585l-3.677-3.677H3V17h12.585L2.092 3.508L2.8 2.8l18.4 18.4z"/></svg>