<svg xmlns="http://www.w3.org/2000/svg" width="200" height="200" viewBox="0 0 24 24"><path fill="currentColor" d="M4.405 12.635q-1.001 0-1.703-.705T2 10.218t.7-1.699t1.703-.692t1.703.695t.702 1.69q0 1.01-.701 1.716q-.7.707-1.702.707m-.79 5.596q-.261 0-.438-.177T3 17.615t.177-.438t.438-.177h16.77q.261 0 .438.177t.177.438t-.177.439t-.438.177zm8.386-5.616q-1.001 0-1.703-.7q-.702-.701-.702-1.702t.701-1.703t1.702-.702t1.703.7t.702 1.702t-.7 1.703q-.702.702-1.703.702m7.596 0q-1 0-1.703-.7q-.702-.701-.702-1.702t.701-1.703t1.702-.702t1.703.7T22 10.21t-.7 1.703t-1.703.702"/></svg>