<svg xmlns="http://www.w3.org/2000/svg" width="200" height="200" viewBox="0 0 24 24"><path fill="currentColor" d="M4.405 12.635q-1.001 0-1.703-.705T2 10.218t.7-1.699t1.703-.692t1.703.695t.702 1.69q0 1.01-.701 1.716q-.7.707-1.702.707m15.192-.02q-1 0-1.703-.7q-.702-.701-.702-1.702t.701-1.703t1.702-.702t1.703.7T22 10.21t-.7 1.703q-.702.702-1.703.702m-5.193-2.403q0 .103-.016.206l-.032.213q-.062.236-.297.308t-.447-.139L11.43 8.58q-.187-.186-.127-.421t.296-.303q.09-.018.2-.033t.2-.015q1.002 0 1.703.7t.7 1.704M3.616 18.23q-.261 0-.438-.177T3 17.615t.177-.438t.438-.177h11.97L2.446 3.862q-.14-.14-.15-.345t.15-.363t.354-.16t.354.16l17.692 17.692q.14.14.15.344t-.15.364t-.354.16t-.354-.16l-3.323-3.323z"/></svg>