<svg xmlns="http://www.w3.org/2000/svg" width="200" height="200" viewBox="0 0 24 24"><path fill="currentColor" d="M4.308 18.615q-.667 0-1.141-.474q-.475-.475-.475-1.141V8.192h1V17q0 .23.193.423q.192.192.423.192h14.038v1H4.308Zm3-3q-.667 0-1.141-.474q-.475-.475-.475-1.141V6.846q0-.666.475-1.14q.474-.475 1.14-.475h12.385q.667 0 1.141.474t.475 1.141V14q0 .666-.475 1.14q-.474.475-1.14.475H7.307Zm1-1q0-.67-.475-1.143Q7.36 13 6.693 13v1q0 .25.182.433q.183.182.433.182h1Zm10.384 0h1q.25 0 .433-.182q.183-.183.183-.433v-1q-.671 0-1.144.475q-.472.474-.472 1.14ZM13.5 12.423q.846 0 1.423-.577q.577-.577.577-1.423q0-.846-.577-1.423q-.577-.577-1.423-.577q-.846 0-1.423.577q-.577.577-.577 1.423q0 .846.577 1.423q.577.577 1.423.577ZM6.692 7.846q.671 0 1.144-.474q.472-.475.472-1.141h-1q-.25 0-.433.182q-.183.183-.183.433v1Zm13.616 0v-1q0-.25-.183-.433q-.183-.182-.433-.182h-1q0 .67.475 1.143q.474.472 1.14.472Z"/></svg>