<svg xmlns="http://www.w3.org/2000/svg" width="200" height="200" viewBox="0 0 24 24"><path fill="currentColor" d="M17.385 21q-1.672 0-2.836-1.164Q13.385 18.67 13.385 17t1.164-2.836Q15.713 13 17.385 13q1.67 0 2.835 1.164T21.385 17q0 1.671-1.165 2.836T17.385 21Zm.384-4.165V14.5q0-.154-.115-.27q-.116-.115-.27-.115q-.153 0-.269.116q-.115.115-.115.269v2.333q0 .153.056.296q.056.144.186.275l1.525 1.525q.112.111.264.121q.152.01.282-.121q.131-.13.131-.273q0-.143-.13-.273l-1.545-1.548ZM5.615 20q-.666 0-1.14-.475Q4 19.051 4 18.385V5.615q0-.666.475-1.14Q4.949 4 5.615 4h4.637q.14-.587.623-.986T12 2.615q.654 0 1.134.4q.48.398.62.985h4.63q.667 0 1.141.475q.475.474.475 1.14v6.02q-.258-.133-.488-.233T19 11.223V5.615q0-.23-.192-.423Q18.615 5 18.385 5H16v1.423q0 .343-.23.576q-.23.232-.57.232H8.8q-.34 0-.57-.232Q8 6.766 8 6.423V5H5.615q-.23 0-.423.192Q5 5.385 5 5.615v12.77q0 .269.173.442t.442.173h6.127q.08.28.189.521q.11.24.28.479H5.616Zm6.388-14.77q.345 0 .575-.232q.23-.234.23-.578q0-.345-.233-.575q-.234-.23-.578-.23q-.345 0-.575.234q-.23.233-.23.577q0 .345.234.575q.233.23.577.23Z"/></svg>