<svg xmlns="http://www.w3.org/2000/svg" width="200" height="200" viewBox="0 0 24 24"><path fill="currentColor" d="M12 17.27q-1.708 0-3.31.63q-1.602.629-2.978 1.927V20H18.23v-.173q-1.339-1.298-2.918-1.928q-1.579-.63-3.313-.63Zm-7 1.85q1.35-1.326 3.138-2.088T12 16.269q2.075 0 3.863.763T19 19.119V6H5v13.12Zm7-5.62q-1.258 0-2.129-.871T9 10.5q0-1.258.871-2.129T12 7.5q1.258 0 2.129.871T15 10.5q0 1.258-.871 2.129T12 13.5Zm0-1q.817 0 1.409-.591Q14 11.317 14 10.5q0-.817-.591-1.409Q12.817 8.5 12 8.5q-.817 0-1.409.591Q10 9.683 10 10.5q0 .817.591 1.409q.592.591 1.409.591ZM4 21V5h3.385V2.77h1.077V5h7.153V2.77h1V5H20v16H4Zm8-10.5Zm.01 9.5h6.22H5.713h6.298Z"/></svg>