<svg xmlns="http://www.w3.org/2000/svg" width="200" height="200" viewBox="0 0 24 24"><path fill="currentColor" d="M5.77 11.977L2.83 9.038L5.77 6.12l2.918 2.92l-2.919 2.938ZM9.807 21v-4.596q-1.468-.125-2.92-.324q-1.451-.2-2.888-.56l.23-1q1.928.478 3.855.681q1.928.203 3.913.203t3.915-.203q1.93-.203 3.856-.682l.231 1q-1.437.362-2.888.56q-1.452.2-2.92.325V21H9.808ZM5.769 10.58l1.523-1.542L5.77 7.515L4.227 9.038l1.542 1.543ZM12 7.386q-.962 0-1.635-.673q-.673-.674-.673-1.635q0-.962.673-1.635T12 2.77t1.635.673q.673.673.673 1.635q0 .961-.673 1.635q-.673.673-1.635.673Zm0 6.403q-.698 0-1.195-.497q-.497-.497-.497-1.195t.497-1.195q.497-.497 1.195-.497t1.195.497q.497.497.497 1.195t-.497 1.195q-.497.497-1.195.497Zm0-7.403q.54 0 .924-.384t.384-.924q0-.54-.384-.924T12 3.769t-.924.384q-.384.384-.384.924t.384.924q.384.384.924.384Zm4.992 5.461l-1.315-2.308l1.315-2.307h2.573l1.316 2.307l-1.316 2.308h-2.573Zm.56-1h1.46l.723-1.308l-.73-1.307h-1.459l-.723 1.307l.73 1.308ZM5.77 9.038ZM12 5.077Zm6.288 4.461Z"/></svg>