<svg xmlns="http://www.w3.org/2000/svg" width="200" height="200" viewBox="0 0 24 24"><path fill="currentColor" d="M12 21.577L9.423 19H4V3h16v16h-5.423L12 21.577Zm-7-4.342q1.35-1.325 3.138-2.088T12 14.385q2.075 0 3.863.762T19 17.235V4H5v13.235Zm7-5.158q1.258 0 2.129-.871T15 9.076q0-1.257-.871-2.128T12 6.077q-1.258 0-2.129.871T9 9.077q0 1.258.871 2.129t2.129.87ZM5.885 18h12.23v-.173q-1.319-1.24-2.873-1.841q-1.554-.601-3.242-.601q-1.65 0-3.213.591q-1.564.591-2.902 1.812V18ZM12 11.077q-.817 0-1.409-.591Q10 9.894 10 9.076q0-.816.591-1.408q.592-.591 1.409-.591q.817 0 1.409.591Q14 8.26 14 9.077q0 .817-.591 1.409q-.592.59-1.409.59Zm0-.46Z"/></svg>