<svg xmlns="http://www.w3.org/2000/svg" width="200" height="200" viewBox="0 0 24 24"><path fill="currentColor" d="M12 11.385q-1.238 0-2.119-.882T9 8.385q0-1.238.881-2.12q.881-.88 2.119-.88t2.119.88q.881.882.881 2.12q0 1.237-.881 2.118T12 11.385Zm-7 7.23V16.97q0-.634.367-1.166q.368-.532.964-.83q1.346-.635 2.77-.996q1.424-.362 2.903-.362t2.899.362q1.42.361 2.766.996q.596.298.964.83q.367.532.367 1.166v1.646H5Zm7-8.23q.825 0 1.413-.588T14 8.385q0-.825-.588-1.413T12 6.385q-.825 0-1.413.587T10 8.385q0 .825.588 1.412t1.412.588Zm3.423 4.757v2.473H18v-.646q0-.37-.24-.654q-.24-.282-.568-.465q-.427-.22-.872-.391q-.445-.172-.897-.317Zm-5.846-.255v1.228h4.846v-1.228q-.596-.139-1.207-.205t-1.22-.067q-.611 0-1.217.067q-.606.066-1.202.205ZM6 17.615h2.577v-2.473q-.452.145-.897.317q-.445.172-.872.391q-.327.183-.568.465q-.24.283-.24.654v.646Zm9.423 0H8.577h6.846ZM12 8.385Z"/></svg>