<svg xmlns="http://www.w3.org/2000/svg" width="200" height="200" viewBox="0 0 24 24"><path fill="currentColor" d="m19.833 21.26l-2.645-2.645H5V16.97q0-.619.36-1.158q.361-.54.97-.838q1.318-.633 2.634-.963q1.317-.331 2.632-.372h.317q.164 0 .318.02l-9.49-9.49l.713-.714l17.092 17.092l-.713.714ZM6 17.615h10.188l-2.903-2.903q-.339-.039-.643-.068q-.304-.029-.642-.029q-1.342 0-2.65.319t-2.542.916q-.38.202-.594.494Q6 16.637 6 16.97v.646Zm12.092-2.43q.168.08.266.245t.104.355l-.774-.773l.205.08q.101.04.2.093Zm-4.411-4.316l-.725-.725q.479-.263.761-.737Q14 8.933 14 8.385q0-.825-.588-1.413T12 6.385q-.548 0-1.022.282q-.474.283-.738.762l-.725-.725q.422-.639 1.075-.979q.654-.34 1.41-.34q1.246 0 2.123.877q.877.876.877 2.123q0 .755-.34 1.41q-.34.653-.98 1.074Zm2.507 6.746H6h10.188Zm-4.59-8.828Z"/></svg>