<svg xmlns="http://www.w3.org/2000/svg" width="200" height="200" viewBox="0 0 24 24"><path fill="currentColor" d="M12 3.846q.91 0 1.532.64q.622.639.622 1.549v.396q1.66.652 2.753 2.115Q18 10.01 18 12v3.573L9.2 6.735q.113-.07.313-.162t.333-.142V6q0-.904.625-1.529T12 3.846Zm0 1q-.483 0-.818.336q-.336.335-.336.818v.138q.294-.069.577-.103Q11.706 6 12 6t.577.035q.283.034.577.103V6q0-.483-.336-.818q-.335-.336-.818-.336Zm8.138 17.092l-3.56-3.553H18v1q0 .69-.462 1.152q-.463.463-1.153.463h-8.77q-.69 0-1.152-.462Q6 20.075 6 19.385V12q0-.9.241-1.718q.242-.819.724-1.505l-3.75-3.762q-.14-.14-.152-.341q-.013-.2.152-.366q.16-.16.354-.16t.354.16L20.846 21.23q.14.14.153.341q.013.201-.153.366q-.16.16-.354.16t-.354-.16Zm-9.45-9.438H9q-.213 0-.357.143q-.143.144-.143.357t.143.357q.144.143.357.143h2.688l-1-1Z"/></svg>