<svg xmlns="http://www.w3.org/2000/svg" width="200" height="200" viewBox="0 0 24 24"><path fill="currentColor" d="M15.62 15.654q-.35 0-.62-.27t-.27-.619v-2.761q0-.35.27-.62q.27-.269.62-.269h.13v-1q0-.748.51-1.258t1.26-.51t1.258.51t.51 1.258v1h.131q.35 0 .6.27t.25.619v2.761q0 .35-.269.62t-.62.269zm.9-4.539h2v-1q0-.425-.288-.712t-.713-.288t-.712.288t-.288.712zM7.614 22q-.67 0-1.143-.472Q6 21.056 6 20.385V3.615q0-.67.472-1.143Q6.944 2 7.615 2h8.77q.67 0 1.143.472q.472.472.472 1.143v2.808q0 .214-.143.357t-.357.143t-.357-.143T17 6.423V5.5H7v13h10v-.923q0-.214.143-.357t.357-.143t.357.143t.143.357v2.808q0 .67-.472 1.143q-.472.472-1.143.472zM7 19.5v.885q0 .23.192.423t.423.192h8.77q.23 0 .423-.192t.192-.423V19.5zm0-15h10v-.885q0-.23-.192-.423T16.385 3h-8.77q-.23 0-.423.192T7 3.615zm0 0V3zm0 15V21z"/></svg>