<svg xmlns="http://www.w3.org/2000/svg" width="200" height="200" viewBox="0 0 24 24"><path fill="currentColor" d="M15.62 15.654q-.35 0-.62-.27t-.27-.619v-2.761q0-.35.27-.62q.27-.269.62-.269h.13v-1q0-.748.51-1.258t1.26-.51t1.258.51t.51 1.258v1h.131q.35 0 .6.27t.25.619v2.761q0 .35-.269.62t-.62.269zm.9-4.539h2v-1q0-.425-.288-.712t-.713-.288t-.712.288t-.288.712zM7.614 22q-.666 0-1.14-.475Q6 21.052 6 20.386V3.615q0-.666.475-1.14Q6.949 2 7.615 2h8.77q.666 0 1.14.475q.475.474.475 1.14v2.808q0 .213-.144.356q-.144.144-.357.144q-.212 0-.356-.144T17 6.423V5.5H7v13h10v-.923q0-.213.144-.356t.357-.144t.356.144t.143.356v2.808q0 .666-.475 1.14q-.474.475-1.14.475z"/></svg>