<svg xmlns="http://www.w3.org/2000/svg" width="200" height="200" viewBox="0 0 24 24"><path fill="currentColor" d="M14.121 11.077q.425 0 .713-.288t.287-.712v-.25l.25.1q.375.15.763.075t.587-.425q.225-.375.15-.8t-.5-.598l-.25-.098l.25-.099q.425-.173.497-.604q.072-.432-.147-.801q-.206-.356-.571-.438t-.779.088l-.25.1v-.25q0-.425-.287-.713t-.713-.287t-.712.287t-.288.713v.25l-.25-.1q-.413-.17-.779-.088t-.57.438q-.22.37-.148.8t.497.605l.25.099l-.25.098q-.425.173-.5.598t.15.8q.2.35.588.425t.762-.075l.25-.1v.25q0 .425.288.712t.712.288m0-2q-.425 0-.712-.288t-.288-.712t.288-.713t.712-.287t.713.287t.287.713t-.287.712t-.713.288m-5.27 7.385q-.69 0-1.152-.463t-.462-1.153V4.308q0-.69.462-1.153q.463-.463 1.153-.463H19.39q.69 0 1.153.463t.463 1.153v10.538q0 .69-.463 1.153t-1.153.463zm-2.664 4.355q-.672.087-1.197-.323t-.605-1.08L3.15 9.7q-.08-.671.336-1.205t1.087-.616l.664-.067v7.88q0 1.154.807 1.962t1.962.808h10.332q.004.35-.244.614t-.61.32zm7.934-6.74q.85 0 1.581-.313q.731-.312 1.313-.862q.489-.464.806-1.05t.439-1.265q.05-.204-.094-.357t-.354-.122q-.689.08-1.296.38t-1.095.764q-.575.55-.912 1.275t-.388 1.55m0 0q-.05-.825-.387-1.55t-.913-1.275q-.488-.464-1.095-.764t-1.295-.38q-.212-.031-.355.122t-.093.357q.125.678.45 1.265t.813 1.05q.575.55 1.3.862t1.575.313"/></svg>