<svg xmlns="http://www.w3.org/2000/svg" width="200" height="200" viewBox="0 0 24 24"><path fill="currentColor" d="M12.615 20h-7q-.666 0-1.14-.475Q4 19.051 4 18.385v-7h8.615V20ZM5 18h7l-2.254-3.077l-1.67 2.192l-1.245-1.619L5 18Zm.23-12.77H4q0-.507.362-.868Q4.723 4 5.23 4v1.23Zm2.462 0V4h1.231v1.23h-1.23Zm3.693 0V4h1.23v1.23h-1.23Zm3.692 0V4h1.23v1.23h-1.23Zm0 14.77v-1.23h1.23V20h-1.23Zm3.692-14.77V4q.508 0 .87.362q.361.361.361.869h-1.23ZM4 8.924v-1.23h1.23v1.23H4Zm14.77 9.846H20q0 .508-.362.87q-.361.361-.869.361v-1.23Zm0-2.461v-1.231H20v1.23h-1.23Zm0-3.693v-1.23H20v1.23h-1.23Zm0-3.692v-1.23H20v1.23h-1.23Z"/></svg>