<svg xmlns="http://www.w3.org/2000/svg" width="200" height="200" viewBox="0 0 24 24"><path fill="currentColor" d="M11.929 16.12Zm2.05 3.802l-3.89-1.537H4.807q-.344 0-.576-.233Q4 17.92 4 17.577v-2.192q0-1.672 1.164-2.836T8 11.385h10.725q.532 0 .904.36q.371.362.371.89q0 .448-.263.781q-.264.334-.681.457l-2.864.771v3.78q0 .426-.19.772q-.19.346-.512.57q-.326.222-.713.272q-.387.05-.798-.116ZM12.2 15.385H9.183q-.31 0-.503.196t-.238.436q-.044.24.067.488q.11.247.414.355L14.346 19q.308.115.577-.067q.27-.183.27-.51v-3.038H12.2Zm-7.201 2h3.196q-.338-.208-.556-.534q-.217-.326-.217-.707q0-.722.519-1.24t1.24-.52h3.96L18.8 12.91q.125-.05.175-.125T19 12.61q-.025-.1-.087-.163t-.188-.062H8q-1.25 0-2.125.875T5 15.385v2Zm6.929-1.266ZM10 10q-1.238 0-2.119-.881T7 7q0-1.238.881-2.119T10 4q1.238 0 2.119.881T13 7q0 1.238-.881 2.119T10 10Zm0-1q.825 0 1.413-.588T12 7q0-.825-.588-1.413T10 5q-.825 0-1.413.588T8 7q0 .825.588 1.413T10 9Zm0-2Z"/></svg>