<svg xmlns="http://www.w3.org/2000/svg" width="200" height="200" viewBox="0 0 24 24"><path fill="currentColor" d="M8.654 12.385h.77v-2h1.23q.329 0 .549-.22q.22-.22.22-.55v-1.23q0-.33-.22-.55q-.22-.22-.55-.22h-2v4.77Zm.77-2.77v-1.23h1.23v1.23h-1.23Zm3.038 2.77h1.923q.328 0 .549-.22q.22-.22.22-.55v-3.23q0-.33-.22-.55q-.22-.22-.55-.22h-1.922v4.77Zm.769-.77v-3.23h1.154v3.23H13.23Zm3.154.77h.769v-2h1.384v-.77h-1.384v-1.23h1.384v-.77h-2.153v4.77ZM8.115 17q-.69 0-1.152-.462q-.463-.463-.463-1.153V4.615q0-.69.463-1.152Q7.425 3 8.114 3h10.77q.69 0 1.152.463q.463.462.463 1.152v10.77q0 .69-.462 1.153q-.463.462-1.153.462H8.115Zm0-1h10.77q.23 0 .423-.192q.192-.193.192-.423V4.615q0-.23-.192-.423Q19.115 4 18.885 4H8.115q-.23 0-.423.192q-.192.193-.192.423v10.77q0 .23.192.423q.193.192.423.192Zm-3 4q-.69 0-1.152-.462q-.463-.463-.463-1.153V6.615h1v11.77q0 .23.192.423q.193.192.423.192h11.77v1H5.115ZM7.5 4v12V4Z"/></svg>