<svg xmlns="http://www.w3.org/2000/svg" width="200" height="200" viewBox="0 0 24 24"><path fill="currentColor" d="M15.504 12.692h2.688q.348 0 .578-.23q.23-.23.23-.577V7.808q0-.348-.23-.578q-.23-.23-.578-.23h-6.077q-.348 0-.578.23q-.23.23-.23.578v.688l1 1V8H18v3.692h-3.496l1 1Zm5.348 5.348L20 17.188V6.615q0-.269-.173-.442T19.385 6H8.812l-1-1h11.573q.69 0 1.152.463q.463.462.463 1.152v10.77q0 .173-.04.343q-.04.17-.108.312Zm-10.565-5.942Zm4.119-.504Zm6.344 10.577L17.573 19H4.615q-.69 0-1.152-.462Q3 18.075 3 17.385V6.615q0-.69.463-1.152Q3.925 5 4.615 5H5l1 1H4.615q-.23 0-.423.192Q4 6.385 4 6.615v10.77q0 .23.192.423q.193.192.423.192h11.958L2.235 3.662q-.147-.147-.156-.348q-.01-.2.156-.366q.165-.165.356-.165t.357.165l18.515 18.515q.147.147.156.345q.01.198-.156.363q-.165.166-.356.166t-.357-.166Z"/></svg>