<svg xmlns="http://www.w3.org/2000/svg" width="200" height="200" viewBox="0 0 24 24"><path fill="currentColor" d="m16.638 13.888l-.688-.688l2-2q.5-.5.775-1.175t.275-1.4q0-1.5-1.063-2.563T15.376 5q-.725 0-1.4.275T12.8 6.05l-2 2l-.688-.688l1.98-2q.666-.647 1.509-1.004Q14.444 4 15.369 4q1.933 0 3.282 1.348Q20 6.697 20 8.631q0 .927-.358 1.769q-.357.842-1.004 1.508l-2 1.98ZM8.625 19q.725 0 1.4-.275t1.175-.775l2.617-2.617l-5.15-5.15L6.05 12.8q-.5.5-.775 1.175T5 15.375q0 1.5 1.063 2.563T8.624 19Zm5.88-2.979l-2.597 2.617q-.646.647-1.498 1.004Q9.56 20 8.625 20q-1.932 0-3.279-1.348Q4 17.303 4 15.369q0-.927.358-1.779q.357-.852 1.004-1.498l2.617-2.598l-4.764-4.763q-.14-.14-.15-.344q-.01-.204.15-.364t.354-.16q.194 0 .354.16l16.154 16.154q.14.14.15.344q.01.204-.15.364t-.354.16q-.194 0-.354-.16l-4.863-4.864Zm-3.263-3.263Zm2.133-2.133Z"/></svg>