<svg xmlns="http://www.w3.org/2000/svg" width="200" height="200" viewBox="0 0 24 24"><path fill="currentColor" d="m16.638 13.888l-6.526-6.526l1.98-2q.666-.647 1.508-1.004Q14.442 4 15.375 4q1.927 0 3.276 1.349Q20 6.699 20 8.625q0 .933-.358 1.775q-.357.842-1.004 1.508l-2 1.98Zm-2.132 2.133l-2.598 2.617q-.646.647-1.498 1.004Q9.558 20 8.625 20q-1.927 0-3.276-1.349Q4 17.301 4 15.375q0-.933.358-1.785q.357-.852 1.004-1.498l2.617-2.598l-4.764-4.763q-.14-.14-.15-.344q-.01-.204.15-.364t.354-.16q.194 0 .354.16l16.154 16.154q.14.14.15.344q.01.204-.15.364t-.354.16q-.194 0-.354-.16l-4.863-4.864Z"/></svg>