<svg xmlns="http://www.w3.org/2000/svg" width="200" height="200" viewBox="0 0 24 24"><path fill="currentColor" d="m1.858 12.385l-.627-.627L4.483 8.5H1.615v-.885H6V12h-.885V9.133l-3.257 3.252ZM7.615 6V1.615H8.5v2.873l3.252-3.257l.633.632l-3.258 3.252H12V6H7.615Zm6.44 15.77q-.503 0-.947-.187q-.445-.187-.812-.554L7.37 16.115l.481-.467q.227-.208.514-.268q.288-.06.582.012l2.785.687v-8.31q0-.212.144-.356t.356-.144q.213 0 .357.144q.143.144.143.356v9.652l-3.637-.983l3.916 3.897q.202.202.477.318q.275.116.569.116h3.675q1.056 0 1.778-.722t.722-1.778v-4q0-.212.144-.356t.356-.144q.213 0 .357.144q.143.144.143.356v4q0 1.458-1.021 2.48t-2.475 1.02h-3.68Zm.503-6.5v-4q0-.214.144-.358q.144-.143.356-.143q.213 0 .356.144q.144.144.144.356v4h-1Zm2.846 0v-3q0-.214.144-.358t.357-.143q.212 0 .356.144q.143.144.143.356v3h-1Zm-1.154 2.634Z"/></svg>