<svg xmlns="http://www.w3.org/2000/svg" width="200" height="200" viewBox="0 0 24 24"><path fill="currentColor" d="M7.5 4v5.49q0 .25.202.365t.413-.017L9.5 9l1.385.838q.211.131.413.017t.202-.365V4h-4Zm10 17.692q-1.671 0-2.836-1.164T13.5 17.692q0-1.67 1.174-2.835t2.922-1.165q1.594 0 2.75 1.165t1.154 2.835q0 1.671-1.164 2.836q-1.165 1.164-2.836 1.164Zm-.225-2.57l1.627-1.14q.173-.13.173-.328t-.173-.329l-1.627-1.138q-.212-.131-.426-.021t-.214.35v2.276q0 .24.214.35q.214.11.426-.02ZM11.5 17.69q0 .89.25 1.726q.252.837.73 1.583H5.616q-.666 0-1.14-.475Q4 20.051 4 19.385V4.615q0-.666.475-1.14Q4.949 3 5.615 3h10.77q.666 0 1.14.475q.475.474.475 1.14v7.108q-.101-.006-.203-.009l-.202-.002q-2.53 0-4.313 1.742Q11.5 15.196 11.5 17.69Z"/></svg>