<svg xmlns="http://www.w3.org/2000/svg" width="200" height="200" viewBox="0 0 24 24"><path fill="currentColor" d="M11.992 20q.073.27.201.528q.128.259.288.472H5.615q-.69 0-1.152-.462Q4 20.075 4 19.385V4.615q0-.69.463-1.152Q4.925 3 5.615 3h10.77q.69 0 1.152.463q.463.462.463 1.152v7.12q-.22-.031-.5-.031t-.5.03V4.616q0-.23-.192-.423Q16.615 4 16.385 4H11.5v5.49q0 .243-.202.361t-.413-.013L9.5 9l-1.385.838q-.211.131-.413.013q-.202-.118-.202-.36V4H5.615q-.23 0-.423.192Q5 4.385 5 4.615v14.77q0 .23.192.423q.193.192.423.192h6.377Zm5.508 1.692q-1.671 0-2.836-1.164T13.5 17.692q0-1.67 1.164-2.835t2.836-1.165q1.671 0 2.836 1.165t1.164 2.835q0 1.671-1.164 2.836q-1.165 1.164-2.836 1.164Zm-.225-2.57l1.627-1.14q.173-.13.173-.328t-.173-.329l-1.627-1.138q-.212-.131-.426-.023t-.214.351v2.277q0 .243.214.351t.426-.022ZM7.5 4h4h-4Zm4.492 0H5h12h-5.5h.492Z"/></svg>