<svg xmlns="http://www.w3.org/2000/svg" width="200" height="200" viewBox="0 0 24 24"><path fill="currentColor" d="m14.93 14.03l.862-3.13l-2.684-1.854l-.862 3.13l2.685 1.855ZM4.616 19.288l-.42-.189q-.795-.344-1.07-1.141t.075-1.553l1.415-3.035v5.918ZM9 20.769q-.825 0-1.413-.59T7 18.763v-4.725l2.213 6.081q.075.194.145.347q.069.153.194.303H9Zm4.362-.97q-.64.236-1.243-.037t-.838-.914L7.22 7.7q-.236-.64.046-1.24t.923-.835l6.41-2.346q.64-.237 1.24.046q.598.283.835.923l4.065 11.148q.237.64-.036 1.24q-.273.599-.914.835l-6.428 2.327Z"/></svg>