<svg xmlns="http://www.w3.org/2000/svg" width="200" height="200" viewBox="0 0 24 24"><path fill="currentColor" d="M7.892 8.308q-.679 0-1.15-.475q-.473-.474-.473-1.14V5.384q0-.667.475-1.141q.474-.475 1.14-.475h8.224q.679 0 1.15.475q.473.474.473 1.14v1.308q0 .667-.475 1.141q-.474.475-1.14.475H7.891Zm.223-1h7.77q.361 0 .572-.257t.274-.59v-.846q0-.36-.244-.603q-.243-.243-.602-.243h-7.77q-.36 0-.603.244q-.243.243-.243.602v.847q.064.332.274.589q.21.257.572.257ZM5.385 20.23q-.667 0-1.141-.475q-.475-.474-.475-1.14v-1h16.462v1q0 .67-.475 1.143q-.474.472-1.14.472H5.384Zm-1.616-3.385l2.722-6.567q.196-.462.604-.716t.878-.255h8.054q.47 0 .878.255t.604.716l2.722 6.567H3.769Zm4.962-1.615h1q.154 0 .269-.116q.115-.115.115-.269t-.115-.27q-.115-.114-.27-.114h-1q-.153 0-.268.115q-.116.115-.116.27t.116.268q.115.116.269.116Zm0-1.77h1q.154 0 .269-.115q.115-.115.115-.27T10 12.809q-.115-.116-.27-.116h-1q-.153 0-.268.116q-.116.115-.116.269t.116.27q.115.115.269.115Zm0-1.769h1q.154 0 .269-.115t.115-.27q0-.153-.115-.269q-.115-.115-.27-.115h-1q-.153 0-.268.115q-.116.116-.116.27t.116.269q.115.115.269.115ZM11.5 15.23h1q.154 0 .27-.116q.115-.115.115-.269t-.116-.27q-.115-.114-.269-.114h-1q-.154 0-.27.115q-.115.115-.115.27t.116.268q.115.116.269.116Zm0-1.77h1q.154 0 .27-.115q.115-.115.115-.27t-.116-.268q-.115-.116-.269-.116h-1q-.154 0-.27.116q-.115.115-.115.269t.116.27q.115.115.269.115Zm0-1.769h1q.154 0 .27-.115q.115-.115.115-.27t-.116-.269q-.115-.115-.269-.115h-1q-.154 0-.27.115q-.115.116-.115.27t.116.269q.115.115.269.115Zm2.77 3.539h1q.153 0 .268-.116q.116-.115.116-.269t-.116-.27q-.115-.114-.269-.114h-1q-.154 0-.269.115t-.115.27q0 .153.115.268q.115.116.27.116Zm0-1.77h1q.153 0 .268-.115q.116-.115.116-.27t-.116-.268q-.115-.116-.269-.116h-1q-.154 0-.269.116q-.115.115-.115.269t.115.27q.115.115.27.115Zm0-1.769h1q.153 0 .268-.115q.116-.115.116-.27t-.116-.269q-.115-.115-.269-.115h-1q-.154 0-.269.115q-.115.116-.115.27t.115.269q.115.115.27.115Z"/></svg>