<svg xmlns="http://www.w3.org/2000/svg" width="200" height="200" viewBox="0 0 24 24"><path fill="currentColor" d="M6.27 8.308V3.769h11.46v4.539H6.27Zm1-1h9.46V4.769H7.27v2.539ZM3.77 20.23v-2.616h16.46v2.616H3.77Zm0-3.385l3.134-7.538h10.192l3.135 7.538H3.769Zm4.576-1.615h1.77v-.77h-1.77v.77Zm0-1.77h1.77v-.769h-1.77v.77Zm0-1.769h1.77v-.769h-1.77v.77Zm2.77 3.539h1.769v-.77h-1.77v.77Zm0-1.77h1.769v-.769h-1.77v.77Zm0-1.769h1.769v-.769h-1.77v.77Zm2.769 3.539h1.769v-.77h-1.77v.77Zm0-1.77h1.769v-.769h-1.77v.77Zm0-1.769h1.769v-.769h-1.77v.77Z"/></svg>