<svg xmlns="http://www.w3.org/2000/svg" width="200" height="200" viewBox="0 0 24 24"><path fill="currentColor" d="M12 21q-1.863 0-3.506-.71t-2.857-1.927t-1.926-2.857T3 12t.71-3.506t1.927-2.857T8.494 3.71T12 3t3.506.71t2.857 1.927t1.926 2.857T21 12t-.71 3.506t-1.927 2.857t-2.857 1.926T12 21m-.5-1.017v-1.846q-1.01-.068-1.89-.447t-1.598-.994l-1.316 1.302q.979.862 2.197 1.39q1.219.527 2.607.595m1 0q1.388-.068 2.597-.595t2.188-1.39l-1.297-1.302q-.719.616-1.599.994q-.88.38-1.889.447zm-.5-2.81q2.152 0 3.663-1.51T17.173 12t-1.51-3.662T12 6.827t-3.662 1.51T6.827 12t1.51 3.663T12 17.173m5.998.13q.862-.978 1.39-2.196t.595-2.607h-1.846q-.068 1.01-.447 1.89t-.994 1.598zm-11.996 0l1.302-1.32q-.616-.72-.994-1.596q-.38-.877-.447-1.887H4.017q.068 1.388.595 2.607t1.39 2.197m5.675-2.31l-1.88-2.51q-.162-.217-.162-.484t.161-.485l1.88-2.51q.132-.16.324-.16t.323.16l1.88 2.51q.162.218.162.485t-.161.485l-1.88 2.51q-.132.16-.324.16t-.323-.16M4.017 11.5h1.846q.068-1.01.447-1.887t.994-1.596L6.002 6.715q-.862.98-1.39 2.188T4.018 11.5m14.12 0h1.846q-.068-1.388-.598-2.597q-.531-1.209-1.393-2.188l-1.296 1.297q.616.719.994 1.599q.38.88.447 1.889M8.017 7.304q.72-.616 1.596-.994q.877-.38 1.887-.447V4.017q-1.388.068-2.607.595t-2.197 1.39zm7.971 0l1.297-1.296q-.98-.862-2.188-1.393T12.5 4.017v1.846q1.01.068 1.89.447t1.598.994"/></svg>