<svg xmlns="http://www.w3.org/2000/svg" width="200" height="200" viewBox="0 0 24 24"><path fill="currentColor" d="M3.5 14.5q-.213 0-.356-.144Q3 14.212 3 14t.144-.356q.143-.143.356-.143h3.058q.212 0 .356.144t.144.357t-.144.356q-.144.143-.356.143H3.5Zm6.442 0q-.212 0-.356-.144T9.442 14t.144-.356q.144-.143.356-.143h3.116q.212 0 .356.144t.144.357t-.144.356q-.144.143-.356.143H9.942Zm6.5 0q-.212 0-.356-.144T15.942 14t.144-.356q.144-.143.356-.143H19.5q.213 0 .356.144q.144.144.144.357t-.144.356q-.143.143-.356.143h-3.058ZM3.5 10.5q-.213 0-.356-.144Q3 10.212 3 10t.144-.356Q3.287 9.5 3.5 9.5h16q.213 0 .356.144Q20 9.788 20 10t-.144.356q-.143.143-.356.143h-16Z"/></svg>