<svg xmlns="http://www.w3.org/2000/svg" width="200" height="200" viewBox="0 0 24 24"><path fill="currentColor" d="M7 19.192V16H4.385q-.344 0-.576-.232q-.232-.232-.232-.576v-4.577q0-.85.577-1.425t1.423-.575h12.846q.558 0 1.013.274q.454.274.697.726H5.577q-.425 0-.713.288t-.287.712V15H7v-.73q0-.344.232-.576q.232-.232.576-.232h8.307v1H8V19h8.115v1H7.808q-.344 0-.576-.232Q7 19.536 7 19.192ZM7 8.615V6.231q0-.667.475-1.141q.474-.475 1.14-.475h6.77q.666 0 1.14.475q.475.474.475 1.14v2.385h-1V6.231q0-.27-.173-.443t-.442-.173h-6.77q-.269 0-.442.173T8 6.231v2.384H7ZM19 20q-.31 0-.52-.21t-.21-.52q0-.31.21-.52t.52-.212q.31 0 .52.21t.21.52q0 .31-.21.521T19 20Zm-.5-4.73v-3q0-.213.144-.357t.357-.144t.356.144q.143.144.143.356v3q0 .213-.144.357q-.144.143-.357.143t-.356-.143q-.143-.144-.143-.357ZM4.577 9.614h15.556H4.577Z"/></svg>