<svg xmlns="http://www.w3.org/2000/svg" width="200" height="200" viewBox="0 0 24 24"><path fill="currentColor" d="M7.808 20q-.344 0-.576-.232Q7 19.536 7 19.192V16H4.385q-.344 0-.576-.232q-.232-.232-.232-.576v-4.577q0-.85.577-1.425t1.423-.575h12.846q.85 0 1.425.575t.575 1.425v.808q-.307-.108-.642-.17q-.335-.06-.668-.06q-1.7 0-3.114.878t-2.172 2.39H8V19h5.465q.08.28.204.521q.125.24.264.479H7.808ZM7 7.846V6.227q0-.667.475-1.14q.474-.472 1.14-.472h6.77q.666 0 1.14.475q.475.474.475 1.14v1.616H7Zm11.596 9.75h-2.5q-.212 0-.356-.144t-.144-.357q0-.212.144-.356q.144-.143.356-.143h2.5v-2.5q0-.212.144-.356t.357-.144q.213 0 .356.144t.143.356v2.5h2.5q.213 0 .356.144t.144.357q0 .213-.144.356q-.143.143-.356.143h-2.5v2.5q0 .213-.144.356q-.144.144-.357.144q-.212 0-.356-.144q-.143-.143-.143-.356v-2.5Z"/></svg>