<svg xmlns="http://www.w3.org/2000/svg" width="200" height="200" viewBox="0 0 24 24"><path fill="currentColor" d="M19 20q-.31 0-.52-.21t-.21-.52q0-.31.21-.52t.52-.212q.31 0 .52.21t.21.52q0 .31-.21.521T19 20Zm0-4.23q-.213 0-.357-.145q-.143-.143-.143-.356v-3q0-.212.144-.356t.357-.144t.356.144q.143.144.143.356v3q0 .213-.144.357q-.144.143-.357.143ZM7.807 20q-.344 0-.576-.232Q7 19.536 7 19.192V16H4.385q-.344 0-.576-.232q-.232-.232-.232-.576v-4.577q0-.85.577-1.425t1.423-.575h12.846q.558 0 1.013.274q.454.274.697.726H17.73q-.667 0-1.141.475q-.475.474-.475 1.14v3.232H8V19h8.115v1H7.808ZM7 7.846V6.227q0-.667.475-1.14q.474-.472 1.14-.472h6.77q.666 0 1.14.475q.475.474.475 1.14v1.616H7Z"/></svg>