<svg xmlns="http://www.w3.org/2000/svg" width="200" height="200" viewBox="0 0 24 24"><path fill="currentColor" d="M16.596 20.02q-.343 0-.575-.233q-.233-.232-.233-.575V16.5q0-.348.269-.568q.268-.22.635-.22v-1q0-.706.504-1.21q.503-.502 1.21-.502t1.199.503q.491.503.491 1.209v1q.367 0 .636.22q.268.22.268.568v2.712q0 .343-.232.575q-.232.232-.576.232h-3.596Zm.866-4.308h1.865v-1q0-.425-.25-.684q-.248-.259-.673-.259t-.684.259q-.258.259-.258.684v1ZM4.577 9.615h14.846H4.577ZM7 19.192V16H4.385q-.344 0-.576-.232q-.232-.232-.232-.576v-4.577q0-.85.577-1.425t1.423-.575h12.846q.85 0 1.425.575t.575 1.425v.808q-.238-.077-.488-.136q-.25-.06-.512-.077v-.595q0-.425-.287-.712t-.713-.288H5.577q-.425 0-.713.288t-.287.712V15H7v-.73q0-.344.232-.576q.232-.232.576-.232h6.654q-.189.232-.35.473q-.162.24-.285.527H8V19h5.465q.08.28.204.521q.125.24.264.479H7.808q-.344 0-.576-.232Q7 19.536 7 19.192ZM7 8.615V6.231q0-.667.475-1.141q.474-.475 1.14-.475h6.77q.666 0 1.14.475q.475.474.475 1.14v2.385h-1V6.231q0-.27-.173-.443t-.442-.173h-6.77q-.269 0-.442.173T8 6.231v2.384H7Z"/></svg>