<svg xmlns="http://www.w3.org/2000/svg" width="200" height="200" viewBox="0 0 24 24"><path fill="currentColor" d="M4.577 9.615h14.846H4.577ZM7 19.192V16H4.385q-.344 0-.576-.232q-.232-.232-.232-.576v-4.577q0-.85.577-1.425t1.423-.575h12.846q.85 0 1.425.575t.575 1.425v.808q-.238-.077-.488-.136q-.25-.06-.512-.077v-.595q0-.425-.287-.712t-.713-.288H5.577q-.425 0-.713.288t-.287.712V15H7v-.73q0-.344.232-.576q.232-.232.576-.232h6.654q-.189.232-.35.473q-.162.24-.285.527H8V19h5.465q.08.28.204.521q.125.24.264.479H7.808q-.344 0-.576-.232Q7 19.536 7 19.192Zm10.95-1.13l3.19-3.19q.136-.141.34-.141t.349.14q.165.146.156.357q-.01.21-.156.357l-3.314 3.313q-.242.242-.565.242q-.323 0-.565-.242l-1.214-1.194q-.165-.148-.165-.345q0-.197.165-.367q.166-.155.354-.155t.354.16l1.071 1.065ZM7 8.615V6.231q0-.667.475-1.141q.474-.475 1.14-.475h6.77q.666 0 1.14.475q.475.474.475 1.14v2.385h-1V6.231q0-.27-.173-.443t-.442-.173h-6.77q-.269 0-.442.173T8 6.231v2.384H7Z"/></svg>