<svg xmlns="http://www.w3.org/2000/svg" width="200" height="200" viewBox="0 0 24 24"><path fill="currentColor" d="m17.95 18.062l3.19-3.19q.136-.141.34-.141t.349.14q.165.146.156.357q-.01.21-.156.357l-3.314 3.313q-.242.242-.565.242q-.323 0-.565-.242l-1.214-1.194q-.165-.148-.165-.345q0-.197.165-.367q.166-.155.354-.155t.354.16l1.071 1.065ZM7.808 20q-.344 0-.576-.232Q7 19.536 7 19.192V16H4.385q-.344 0-.576-.232q-.232-.232-.232-.576v-4.577q0-.85.577-1.425t1.423-.575h12.846q.85 0 1.425.575t.575 1.425v.808q-.307-.108-.642-.17q-.335-.06-.668-.06q-1.7 0-3.114.878t-2.172 2.39H8V19h5.465q.08.28.204.521q.125.24.264.479H7.808ZM7 7.846V6.227q0-.667.475-1.14q.474-.472 1.14-.472h6.77q.666 0 1.14.475q.475.474.475 1.14v1.616H7Z"/></svg>