<svg xmlns="http://www.w3.org/2000/svg" width="200" height="200" viewBox="0 0 24 24"><path fill="currentColor" d="M4.577 9.615h14.846H4.577ZM7 19.192V16H4.385q-.344 0-.576-.232q-.232-.232-.232-.576v-4.577q0-.85.577-1.425t1.423-.575h12.846q.85 0 1.425.575t.575 1.425v.808q-.238-.077-.488-.136q-.25-.06-.512-.077v-.595q0-.425-.287-.712t-.713-.288H5.577q-.425 0-.713.288t-.287.712V15H7v-.73q0-.344.232-.576q.232-.232.576-.232h6.654q-.189.232-.35.473q-.162.24-.285.527H8V19h5.465q.08.28.204.521q.125.24.264.479H7.808q-.344 0-.576-.232Q7 19.536 7 19.192ZM7 8.615V6.231q0-.667.475-1.141q.474-.475 1.14-.475h6.77q.666 0 1.14.475q.475.474.475 1.14v2.385h-1V6.231q0-.27-.173-.443t-.442-.173h-6.77q-.269 0-.442.173T8 6.231v2.384H7Zm11.596 8.981h-2.5q-.212 0-.356-.144t-.144-.357q0-.212.144-.356q.144-.143.356-.143h2.5v-2.5q0-.212.144-.356t.357-.144q.213 0 .356.144t.143.356v2.5h2.5q.213 0 .356.144t.144.357q0 .213-.144.356q-.143.143-.356.143h-2.5v2.5q0 .213-.144.356q-.144.144-.357.144q-.212 0-.356-.144q-.143-.143-.143-.356v-2.5Z"/></svg>