<svg xmlns="http://www.w3.org/2000/svg" width="200" height="200" viewBox="0 0 24 24"><path fill="currentColor" d="M19.833 21.26L17 18.427V20H7v-4H3.577V8.615h3.611L2.74 4.167l.714-.713l17.092 17.092l-.713.714ZM8 19h8v-1.573l-2.965-2.965H8V19Zm10.812-3l-1-1h1.611V9.615h-6.996l-1-1h8.996V16h-1.611ZM4.577 15h2.425v-1.538h5.033L8.188 9.615H4.577V15ZM16 8.615v-3H8.427l-1-1H17v4h-1Zm1.615 3.5q.425 0 .713-.287t.287-.713q0-.425-.287-.712t-.713-.288q-.425 0-.712.288t-.288.712q0 .425.288.713t.712.287Zm-13.038-2.5h3.611h-3.611Zm14.846 0h-6.996h6.996Z"/></svg>