<svg xmlns="http://www.w3.org/2000/svg" width="200" height="200" viewBox="0 0 24 24"><path fill="currentColor" d="M12 18q-2.362 0-4.084-1.588q-1.722-1.587-1.899-3.912H2.385v-1h3.632q.177-2.325 1.9-3.913Q9.637 6 12 6t4.084 1.588q1.722 1.587 1.899 3.912h3.632v1h-3.632q-.177 2.325-1.9 3.913Q14.363 18 12 18Zm0-1q2.075 0 3.538-1.463T17 12q0-2.075-1.463-3.538T12 7Q9.925 7 8.462 8.463T7 12q0 2.075 1.463 3.538T12 17Zm-2-1.73h4q.376 0 .63-.255q.255-.254.255-.63v-3q0-.376-.255-.63q-.254-.255-.63-.255h-.115v-.785q0-.827-.537-1.405q-.536-.58-1.347-.58q-.788 0-1.337.554q-.549.554-.549 1.331v.885H10q-.376 0-.63.254q-.255.255-.255.63v3q0 .377.255.63q.254.255.63.255Zm2-1.674q-.287 0-.499-.212t-.213-.5q0-.286.213-.498t.499-.213q.287 0 .499.213t.213.499q0 .286-.213.499q-.212.212-.499.212ZM10.885 10.5v-.885q0-.463.326-.789T12 8.5q.463 0 .79.326q.325.326.325.79v.884h-2.23ZM12 12.885Z"/></svg>