<svg xmlns="http://www.w3.org/2000/svg" width="200" height="200" viewBox="0 0 24 24"><path fill="currentColor" d="M10.5 20.873q-1.63-.296-3.009-1.095q-1.378-.8-2.378-1.973q-1.001-1.174-1.557-2.659Q3 13.662 3 12q0-2.16.932-4.017q.931-1.858 2.795-3.252H3.75v-1H8.5v4.75h-1V5.41Q5.74 6.625 4.87 8.343Q4 10.062 4 12q0 2.863 1.791 5.063q1.792 2.199 4.709 2.785v1.025Zm.075-4.965l-3.533-3.539l.708-.707l2.825 2.825l5.675-5.675l.708.713l-6.383 6.383Zm4.925 4.38v-4.75h1v3.072q1.74-1.24 2.62-2.956Q20 13.938 20 12q0-2.863-1.791-5.063q-1.792-2.199-4.709-2.785V3.127q3.28.586 5.39 3.056Q21 8.652 21 12q0 2.16-.932 4.027t-2.795 3.261h2.977v1H15.5Z"/></svg>