<svg xmlns="http://www.w3.org/2000/svg" width="200" height="200" viewBox="0 0 24 24"><path fill="currentColor" d="M13 20.038v-1.807h1.808v1.807H13Zm-1.808-1.807v-4.423H13v4.423h-1.808Zm7.039-3.385V12h1.807v2.846h-1.807ZM16.423 12v-1.808h1.808V12h-1.808ZM5.77 13.808V12h1.808v1.808H5.769ZM3.962 12v-1.808h1.807V12H3.962ZM12 5.77V3.961h1.808v1.807H12ZM4.846 8.5H8.5V4.846H4.846V8.5Zm-.884.077V4.769q0-.343.232-.575q.232-.232.575-.232h3.808q.343 0 .575.232q.233.232.233.575v3.808q0 .343-.233.575q-.232.233-.575.233H4.769q-.343 0-.575-.233q-.232-.232-.232-.575Zm.884 10.577h3.808V15.5H4.846v3.654Zm-.884.077v-3.808q0-.343.232-.575q.232-.233.575-.233h3.962q.343 0 .575.233q.232.232.232.575v3.808q0 .343-.232.575q-.232.232-.575.232H4.769q-.343 0-.575-.232q-.232-.232-.232-.575ZM15.5 8.5h3.654V4.846H15.5V8.5Zm-.885.077V4.769q0-.343.233-.575q.232-.232.575-.232h3.808q.343 0 .575.232q.232.232.232.575v3.808q0 .343-.232.575q-.232.233-.575.233h-3.808q-.343 0-.575-.233q-.233-.232-.233-.575Zm1.808 11.461v-3.384h-1.808v-1.808h3.616v3.385h1.807v1.807h-3.615ZM13 13.808V12h3.423v1.808H13Zm-3.615 0V12H7.577v-1.808H13V12h-1.808v1.808H9.385Zm.807-4.423V5.769H12v1.808h1.808v1.808h-3.616ZM6.038 7.308v-1.27h1.27v1.27h-1.27Zm.135 10.519v-1.27h1.27v1.27h-1.27Zm10.52-10.52V6.039h1.269v1.27h-1.27Z"/></svg>