<svg xmlns="http://www.w3.org/2000/svg" width="200" height="200" viewBox="0 0 24 24"><path fill="currentColor" d="M4 10.192V4.808q0-.344.232-.576Q4.464 4 4.808 4h5.384q.344 0 .576.232q.232.232.232.576v5.384q0 .344-.232.576q-.232.232-.576.232H4.808q-.344 0-.576-.232Q4 10.536 4 10.192ZM5 10h5V5H5v5Zm-1 9.192v-5.384q0-.344.232-.576q.232-.232.576-.232h5.384q.344 0 .576.232q.232.232.232.576v5.384q0 .344-.232.576q-.232.232-.576.232H4.808q-.344 0-.576-.232Q4 19.536 4 19.192ZM5 19h5v-5H5v5Zm8-8.808V4.808q0-.344.232-.576q.232-.232.576-.232h5.384q.344 0 .576.232q.232.232.232.576v5.384q0 .344-.232.576q-.232.232-.576.232h-5.384q-.344 0-.576-.232q-.232-.232-.232-.576ZM14 10h5V5h-5v5Zm4.25 10v-1.75H20V20h-1.75ZM13 14.75V13h1.75v1.75H13Zm1.75 1.75v-1.75h1.75v1.75h-1.75ZM13 18.25V16.5h1.75v1.75H13ZM14.75 20v-1.75h1.75V20h-1.75Zm1.75-1.75V16.5h1.75v1.75H16.5Zm0-3.5V13h1.75v1.75H16.5Zm1.75 1.75v-1.75H20v1.75h-1.75Z"/></svg>