<svg xmlns="http://www.w3.org/2000/svg" width="200" height="200" viewBox="0 0 24 24"><path fill="currentColor" d="M5.77 13.808V12h1.807v1.808H5.769ZM3.961 12v-1.808h1.807V12H3.962ZM12 5.77V3.961h1.808v1.807H12ZM4.846 8.5H8.5V4.846H4.846V8.5Zm-.884.885V3.962h5.423v5.423H3.962Zm.884 9.769h3.808V15.5H4.846v3.654Zm-.884.884v-5.423h5.576v5.423H3.962ZM15.5 8.5h3.654V4.846H15.5V8.5Zm-.885.885V3.962h5.423v5.423h-5.423Zm-5.23 4.423V12H7.577v-1.808h3.615v3.616H9.385Zm.807-4.423V5.769H12v1.808h1.808v1.808h-3.616ZM6.038 7.308v-1.27h1.27v1.27h-1.27Zm.135 10.519v-1.27h1.27v1.27h-1.27Zm10.52-10.52V6.039h1.269v1.27h-1.27Zm-.655 12.731v-3h-3v-1h3v-3h1v3h3v1h-3v3h-1Z"/></svg>