<svg xmlns="http://www.w3.org/2000/svg" width="200" height="200" viewBox="0 0 24 24"><path fill="currentColor" d="M3 7.038V3h4.038v1H4v3.038H3ZM3 21v-4.038h1V20h3.038v1H3Zm13.962 0v-1H20v-3.038h1V21h-4.038ZM20 7.038V4h-3.038V3H21v4.038h-1Zm-3.058 9.904h1.212v1.212h-1.212v-1.212Zm0-2.423h1.212v1.212h-1.212v-1.212Zm-1.211 1.212h1.211v1.211h-1.211v-1.211Zm-1.212 1.211h1.212v1.212h-1.212v-1.212Zm-1.211-1.211h1.211v1.211h-1.211v-1.211Zm2.423-2.423h1.211v1.211h-1.211v-1.211Zm-1.212 1.211h1.212v1.212h-1.212v-1.212Zm-1.211-1.211h1.211v1.211h-1.211v-1.211Zm4.846-7.462v4.846h-4.846V5.846h4.846Zm-7.462 7.462v4.846H5.846v-4.846h4.846Zm0-7.462v4.846H5.846V5.846h4.846ZM9.808 17.27v-3.077H6.73v3.077h3.077Zm0-7.461V6.73H6.73v3.077h3.077Zm7.461 0V6.73h-3.077v3.077h3.077Z"/></svg>