<svg xmlns="http://www.w3.org/2000/svg" width="200" height="200" viewBox="0 0 24 24"><path fill="currentColor" d="M3.5 7.038q-.213 0-.357-.143Q3 6.75 3 6.538v-2.73q0-.344.232-.576Q3.464 3 3.808 3h2.73q.213 0 .357.144q.143.144.143.357q0 .212-.143.356Q6.75 4 6.538 4H4v2.538q0 .213-.144.357t-.357.143ZM3.807 21q-.344 0-.576-.232Q3 20.536 3 20.192v-2.73q0-.213.144-.357q.144-.143.357-.143q.212 0 .356.143q.143.144.143.357V20h2.538q.213 0 .357.144t.143.357q0 .212-.143.356Q6.75 21 6.538 21h-2.73Zm13.654 0q-.213 0-.357-.144q-.143-.144-.143-.357q0-.212.143-.356q.144-.143.357-.143H20v-2.538q0-.213.144-.357t.357-.143q.212 0 .356.143q.143.144.143.357v2.73q0 .344-.232.576q-.232.232-.576.232h-2.73Zm3.037-13.962q-.212 0-.356-.143Q20 6.75 20 6.538V4h-2.538q-.213 0-.357-.144t-.143-.357q0-.212.143-.356Q17.25 3 17.462 3h2.73q.344 0 .576.232q.232.232.232.576v2.73q0 .213-.144.357q-.144.143-.357.143Zm-3.557 11.116v-1.212h1.212v1.212h-1.212Zm0-2.423v-1.212h1.212v1.212h-1.212Zm-1.211 1.211v-1.211h1.211v1.211H15.73Zm-1.212 1.212v-1.212h1.212v1.212h-1.212Zm-1.211-1.212v-1.211h1.211v1.211h-1.211Zm2.423-2.423v-1.211h1.211v1.211H15.73Zm-1.212 1.212v-1.212h1.212v1.212h-1.212Zm-1.211-1.212v-1.211h1.211v1.211h-1.211Zm.803-3.827q-.344 0-.574-.232q-.23-.233-.23-.576V6.649q0-.343.233-.573q.233-.23.576-.23h3.235q.343 0 .573.233q.23.232.23.576v3.234q0 .344-.233.574q-.232.23-.576.23H14.11Zm-7.462 7.462q-.343 0-.573-.233q-.23-.232-.23-.576v-3.234q0-.344.233-.573q.232-.23.576-.23h3.234q.344 0 .574.232q.23.233.23.576v3.235q0 .343-.233.573q-.233.23-.576.23H6.649Zm0-7.462q-.343 0-.573-.232q-.23-.233-.23-.576V6.649q0-.343.233-.573q.232-.23.576-.23h3.234q.344 0 .574.233q.23.232.23.576v3.234q0 .344-.233.574q-.233.23-.576.23H6.649Zm.082 6.577h3.077v-3.077H6.73v3.077Zm0-7.461h3.077V6.73H6.73v3.077Zm7.461 0h3.077V6.73h-3.077v3.077Z"/></svg>