<svg xmlns="http://www.w3.org/2000/svg" width="200" height="200" viewBox="0 0 24 24"><path fill="currentColor" d="M5.77 13.808V12h1.807v1.808H5.769ZM3.961 12v-1.808h1.807V12H3.962ZM12 5.77V3.961h1.808v1.807H12ZM4.846 8.5H8.5V4.846H4.846V8.5Zm0 10.654h3.808V15.5H4.846v3.654ZM15.5 8.5h3.654V4.846H15.5V8.5Zm-6.115 5.308V12H7.577v-1.808h3.615v3.616H9.385Zm.807-4.423V5.769H12v1.808h1.808v1.808h-3.616ZM6.038 7.308v-1.27h1.27v1.27h-1.27Zm.135 10.519v-1.27h1.27v1.27h-1.27Zm10.52-10.52V6.039h1.269v1.27h-1.27Zm-.655 9.731h-2.5q-.212 0-.356-.143q-.144-.144-.144-.357t.144-.356q.144-.144.356-.144h2.5v-2.5q0-.212.144-.356t.357-.144q.213 0 .356.144t.143.356v2.5h2.5q.213 0 .357.144t.143.357q0 .213-.143.356q-.144.143-.357.143h-2.5v2.5q0 .213-.143.357t-.357.143q-.213 0-.356-.143t-.144-.357v-2.5ZM3.962 8.577V4.769q0-.343.232-.575q.232-.232.575-.232h3.808q.343 0 .575.232q.233.232.233.575v3.808q0 .343-.233.575q-.232.233-.575.233H4.769q-.343 0-.575-.233q-.232-.232-.232-.575Zm0 10.654v-3.808q0-.343.232-.575q.232-.233.575-.233h3.962q.343 0 .575.233q.232.232.232.575v3.808q0 .343-.232.575q-.232.232-.575.232H4.769q-.343 0-.575-.232q-.232-.232-.232-.575ZM14.615 8.577V4.769q0-.343.233-.575q.232-.232.575-.232h3.808q.343 0 .575.232q.232.232.232.575v3.808q0 .343-.232.575q-.232.233-.575.233h-3.808q-.343 0-.575-.233q-.233-.232-.233-.575Z"/></svg>