<svg xmlns="http://www.w3.org/2000/svg" width="200" height="200" viewBox="0 0 24 24"><path fill="currentColor" d="M16.504 19.308q1.18 0 1.992-.816q.812-.815.812-1.996q0-1.18-.816-1.992q-.815-.812-1.996-.812q-1.18 0-1.992.816q-.812.815-.812 1.996q0 1.18.816 1.992q.815.812 1.996.812Zm5.451 2.646q-.139.14-.354.14q-.214 0-.355-.14l-2.423-2.442q-.486.388-1.08.592t-1.243.204q-1.587 0-2.697-1.11t-1.11-2.698q0-1.587 1.11-2.697t2.697-1.11q1.587 0 2.697 1.11t1.11 2.697q0 .65-.203 1.243t-.592 1.08l2.442 2.423q.14.139.14.353t-.139.355ZM5.612 21q-.687 0-1.15-.462T4 19.385V4.615q0-.69.463-1.152Q4.925 3 5.615 3h7.214q.331 0 .632.13q.3.132.518.349L17.52 7.02q.217.217.348.518q.131.3.131.632v2.348q-.37-.096-.741-.154q-.372-.057-.759-.057q-1.438 0-2.66.592q-1.223.592-2.087 1.6H8q-.213 0-.356.144q-.144.144-.144.357t.144.356q.144.143.356.143h3.096q-.392.687-.591 1.446q-.2.76-.192 1.554H8q-.213 0-.356.144q-.144.144-.144.357t.144.356q.144.143.356.143h2.387q.16 1.02.653 1.913q.495.893 1.254 1.587H5.612ZM13 4v3.2q0 .34.23.57q.23.23.57.23H17l-4-4l4 4l-4-4Z"/></svg>