<svg xmlns="http://www.w3.org/2000/svg" width="200" height="200" viewBox="0 0 24 24"><path fill="currentColor" d="M2.827 19q-.213 0-.356-.144q-.144-.144-.144-.357q0-.212.144-.356q.143-.143.356-.143h3.846v-2.5H3.827q-.213 0-.356-.144q-.144-.144-.144-.357t.144-.356q.143-.143.356-.143h2.846V12H4.877q-.213 0-.356-.144t-.144-.357q0-.212.144-.356q.143-.143.356-.143h1.796V8.088L5.13 4.692q-.079-.182-.009-.387q.07-.205.253-.284t.388-.009q.204.07.283.253L7.758 8h11.83l-1.66-3.5q-.078-.183-.008-.388q.07-.204.253-.283q.183-.079.388-.009q.204.07.283.253l1.668 3.604q.08.16.12.328q.041.17.041.349v9.608q0 .44-.299.739t-.74.299H2.828Zm8.846-6.5h4q.213 0 .356-.144q.144-.144.144-.357t-.144-.356q-.143-.143-.356-.143h-4q-.212 0-.356.144t-.144.357t.144.356q.144.143.356.143Zm-4 5.5h12V9h-12v9Zm0 0V9v9Z"/></svg>