<svg xmlns="http://www.w3.org/2000/svg" width="200" height="200" viewBox="0 0 24 24"><path fill="currentColor" d="M5 4v6.333v-.025V20V4v4v-4Zm3 9.5h3.096q.148-.287.32-.527q.17-.24.365-.473H8q-.213 0-.356.144q-.144.144-.144.357t.144.356q.144.143.356.143Zm0 4h2.387q-.053-.25-.07-.5q-.015-.25-.004-.5H8q-.213 0-.356.144q-.144.144-.144.357t.144.356q.144.143.356.143ZM5.612 21q-.687 0-1.15-.462T4 19.385V4.615q0-.69.463-1.152Q4.925 3 5.615 3h7.214q.331 0 .632.13q.3.132.518.349L17.52 7.02q.217.217.348.518q.131.3.131.632v2.348q-.244-.084-.494-.12q-.25-.036-.506-.066V8h-3.2q-.34 0-.57-.23T13 7.2V4H5.615q-.23 0-.423.192Q5 4.385 5 4.615v14.77q0 .23.192.423q.193.192.423.192h5.775q.186.288.418.533q.232.246.486.467H5.612Zm10.892-1.692q1.18 0 1.992-.816q.812-.815.812-1.996q0-1.18-.816-1.992q-.815-.812-1.996-.812q-1.18 0-1.992.816q-.812.815-.812 1.996q0 1.18.816 1.992q.815.812 1.996.812Zm5.451 2.646q-.139.14-.354.14q-.214 0-.355-.14l-2.423-2.442q-.486.388-1.08.592t-1.243.204q-1.587 0-2.697-1.11t-1.11-2.698q0-1.587 1.11-2.697t2.697-1.11q1.587 0 2.697 1.11t1.11 2.697q0 .65-.203 1.243t-.592 1.08l2.442 2.423q.14.139.14.353t-.139.355Z"/></svg>