<svg xmlns="http://www.w3.org/2000/svg" width="200" height="200" viewBox="0 0 24 24"><path fill="currentColor" d="M5.615 21q-.69 0-1.152-.462T4 19.385V6.615q0-.69.463-1.152T5.615 5h1.77V3.308q0-.23.155-.384q.156-.155.386-.155t.383.155t.153.384V5h7.153V3.27q0-.213.144-.357t.357-.144t.356.144t.143.356V5h1.77q.69 0 1.152.463T20 6.615v12.77q0 .69-.462 1.152T18.385 21zm4.442-1q.191 0 .317-.125t.126-.317v-1.825q0-.15-.175-.475l-2-2.35q-.213-.258-.288-.57t.02-.613q.237.163.506.245t.568.082q.389 0 .768-.152t.659-.456q.277-.296.664-.444t.773-.148q.42 0 .798.148t.65.444q.297.304.676.456t.756.152q.293 0 .562-.082t.505-.245q.096.302.021.613q-.075.312-.288.57l-2 2.35q-.075.125-.125.237t-.05.238v1.825q0 .191.125.317q.125.125.316.125q.192 0 .318-.125t.126-.317v-1.762l1.953-2.311q.218-.237.382-.596t.165-.831q0-.28-.066-.547t-.196-.508q.125-.22.193-.489t.069-.547q0-.392-.134-.754q-.134-.363-.407-.667l-1.96-2.323v-1.78q0-.192-.124-.318T13.943 6t-.317.125t-.126.317v1.825q0 .125.038.25t.137.225l2 2.375q.15.2.237.413t.088.437q0 .475-.325.838t-.825.362q-.2 0-.4-.075t-.375-.25q-.425-.425-.962-.65T12 11.967t-1.112.225t-.963.65q-.17.175-.363.25t-.412.075q-.5 0-.825-.362T8 11.942q0-.225.075-.437t.25-.413l2-2.35q.075-.125.125-.237t.05-.238V6.442q0-.191-.125-.317Q10.25 6 10.059 6q-.192 0-.318.125t-.126.317v1.762l-1.953 2.311q-.218.237-.382.596t-.165.831q0 .296.07.56t.186.498q-.13.242-.193.51t-.063.548q0 .472.165.831t.382.596l1.953 2.311v1.762q0 .191.125.317t.317.125"/></svg>