<svg xmlns="http://www.w3.org/2000/svg" width="200" height="200" viewBox="0 0 24 24"><path fill="currentColor" d="M5.615 21q-.69 0-1.152-.462T4 19.385V6.615q0-.69.463-1.152T5.615 5h1.77V3.308q0-.233.153-.386t.385-.153t.386.153t.153.386V5h7.153V3.27q0-.214.144-.357t.356-.144t.357.143t.143.357V5h1.77q.69 0 1.152.463T20 6.615v12.77q0 .69-.462 1.152T18.385 21zM5 19.385q0 .23.192.423t.423.192h12.77q.23 0 .423-.192t.192-.423V6.615q0-.23-.192-.423T18.385 6H5.615q-.23 0-.423.192T5 6.615zM9.615 20v-2.204l-1.953-2.311q-.218-.237-.382-.597t-.165-.83q0-.287.063-.551T7.37 13q-.125-.237-.19-.501t-.066-.557q0-.47.165-.83q.164-.36.382-.597l1.953-2.311V6h.885v2.267q0 .125-.175.475l-2 2.35q-.175.2-.25.413T8 11.942q0 .5.325.863t.825.362q.225 0 .415-.075t.36-.25q.425-.425.962-.65T12 11.967t1.112.225t.963.65q.175.175.375.25t.4.075q.5 0 .825-.362t.325-.838q0-.225-.088-.437t-.237-.413l-2-2.375q-.1-.1-.138-.225t-.037-.25V6h.885v2.223l1.96 2.323q.272.304.406.67t.134.751q0 .287-.069.551t-.193.482q.13.242.196.507t.066.55q0 .472-.165.831q-.164.36-.382.597l-1.953 2.311V20H13.5v-2.267q0-.15.175-.475l2-2.35q.213-.258.288-.57t-.02-.613q-.237.163-.503.245q-.265.082-.565.082q-.385 0-.76-.152t-.673-.456q-.27-.296-.649-.444q-.378-.148-.793-.148q-.39 0-.778.148t-.664.444q-.28.304-.66.456q-.383.152-.767.152q-.3 0-.569-.082t-.504-.245q-.096.302-.021.613q.075.312.288.57l2 2.35q.075.125.125.237t.05.238V20zM5 19.385V20V6z"/></svg>