<svg xmlns="http://www.w3.org/2000/svg" width="200" height="200" viewBox="0 0 24 24"><path fill="currentColor" d="M10.385 16.615q.47 0 .793-.322q.322-.322.322-.793q0-.471-.322-.793q-.322-.322-.793-.322q-.472 0-.794.322q-.322.322-.322.793q0 .471.322.793q.322.322.794.322Zm-7-.5V7q0-1.583 1.635-2.301q1.636-.718 5.268-.718h1.824q-.327.777-.44 1.741q-.112.965.07 1.816H4.385V12h11.33q.231.058.712.221q.48.164.958.164v3.769q0 1.071-.763 1.958Q15.86 19 14.5 19l1.087.729q.242.161.151.447q-.09.286-.388.286H5.42q-.299 0-.39-.286q-.09-.286.153-.447L6.269 19q-1.36 0-2.122-.907q-.762-.906-.762-1.978Zm14.23-5.73q-1.67 0-2.835-1.165t-1.165-2.835q0-1.672 1.165-2.836q1.164-1.164 2.835-1.164q1.672 0 2.836 1.164t1.164 2.836q0 1.67-1.164 2.835t-2.836 1.165Zm0-3.385q.162 0 .273-.112q.112-.111.112-.273v-2.23q0-.162-.112-.273Q17.777 4 17.615 4q-.161 0-.273.112q-.111.111-.111.273v2.23q0 .162.111.273q.112.112.273.112Zm0 1.846q.2 0 .331-.13q.13-.131.13-.331t-.13-.331q-.13-.13-.33-.13t-.331.13q-.131.13-.131.33t.13.331q.131.131.331.131Z"/></svg>