<svg xmlns="http://www.w3.org/2000/svg" width="200" height="200" viewBox="0 0 24 24"><path fill="currentColor" d="M10.385 16.615q.47 0 .793-.322q.322-.322.322-.793q0-.471-.322-.793q-.322-.322-.793-.322q-.472 0-.794.322q-.322.322-.322.793q0 .471.322.793q.322.322.794.322Zm-7-.5V7q0-1.583 1.635-2.301q1.636-.718 5.268-.718h1.804q-.104.238-.174.5q-.07.263-.126.384h-1.761q-2.431 0-3.824.423q-1.394.424-1.719 1.25h7.127q0 .237.027.474t.1.526H4.385V12h11.33q.122.121.283.225q.162.104.387.173V13h-12v3.115q0 .78.552 1.332Q5.49 18 6.27 18h8.23q.779 0 1.332-.553t.553-1.332v-3.852q.238.068.494.095q.256.027.506.027v3.769q0 1.071-.763 1.958Q15.86 19 14.5 19l1.087.729q.242.161.151.447q-.09.286-.388.286H5.42q-.299 0-.39-.286q-.09-.286.153-.447L6.269 19q-1.36 0-2.122-.907q-.762-.906-.762-1.978Zm14.23-5.73q-1.67 0-2.835-1.165t-1.165-2.835q0-1.672 1.165-2.836q1.164-1.164 2.835-1.164q1.672 0 2.836 1.164t1.164 2.836q0 1.67-1.164 2.835t-2.836 1.165ZM14.5 13H4.385h12H14.5ZM4.488 6.538h7.127h-7.127ZM17.615 7q.162 0 .273-.112q.112-.111.112-.273v-2.23q0-.162-.112-.273Q17.777 4 17.615 4q-.161 0-.273.112q-.111.111-.111.273v2.23q0 .162.111.273q.112.112.273.112Zm0 1.846q.2 0 .331-.13q.13-.131.13-.331t-.13-.331q-.13-.13-.33-.13t-.331.13q-.131.13-.131.33t.13.331q.131.131.331.131Z"/></svg>