<svg xmlns="http://www.w3.org/2000/svg" width="200" height="200" viewBox="0 0 24 24"><path fill="currentColor" d="M17.615 10.385q-1.67 0-2.835-1.165t-1.165-2.835q0-1.672 1.165-2.836q1.164-1.164 2.835-1.164q1.672 0 2.836 1.164t1.164 2.836q0 1.67-1.164 2.835t-2.836 1.165ZM17.231 7H18V4h-.77v3Zm.384 1.846q.2 0 .331-.13q.13-.131.13-.331t-.13-.331q-.13-.13-.33-.13t-.331.13q-.131.13-.131.33t.13.331q.131.131.331.131Zm-7.23 7.77q.47 0 .793-.323q.322-.322.322-.793q0-.471-.322-.793q-.322-.322-.793-.322q-.472 0-.794.322q-.322.322-.322.793q0 .471.322.793q.322.322.794.322Zm-5.616 3.846V20l1.5-1q-1.36 0-2.122-.907q-.762-.906-.762-1.978V7q0-1.583 1.635-2.301q1.636-.718 5.268-.718h1.824q-.243.59-.36 1.196q-.117.606-.137 1.227q0 .294.027.57q.027.276.1.564H4.385V12h11.33v-.135q.366.27.789.395q.423.125.88.125v3.769q0 1.071-.762 1.958Q15.86 19 14.5 19l1.5 1v.462H4.77Z"/></svg>