<svg xmlns="http://www.w3.org/2000/svg" width="200" height="200" viewBox="0 0 24 24"><path fill="currentColor" d="M7.78 18.677L5.824 14.78l.896-.458l1.958 3.89l-.896.464Zm9 0L11.824 8.78l.896-.458l4.958 9.89l-.896.464Zm-4.03.054q-.31 0-.52-.21t-.21-.52q0-.31.21-.521t.52-.21q.31 0 .52.21t.21.52q0 .31-.21.52t-.52.21Zm9.03-.054l-.957-1.896l.896-.458l.952 1.896l-.89.458Zm-11-3L5.824 5.78l.896-.452l4.952 9.89l-.89.458ZM20 14.73q-.31 0-.52-.21t-.21-.52q0-.31.21-.521t.52-.21q.31 0 .52.21t.21.52q0 .31-.21.52t-.52.21Zm-15-2q-.31 0-.52-.21T4.27 12q0-.31.21-.521t.52-.21q.31 0 .52.21t.21.52q0 .31-.21.52t-.52.21Zm13.28-1.054L15.324 5.78l.896-.458l2.952 5.896l-.89.458Zm-15-2L1.324 5.78l.896-.452l1.952 3.89l-.89.458Zm7.97-2.946q-.31 0-.52-.21T10.52 6q0-.31.21-.521t.52-.21q.31 0 .52.21t.21.52q0 .31-.21.52t-.52.21Z"/></svg>