<svg xmlns="http://www.w3.org/2000/svg" width="200" height="200" viewBox="0 0 24 24"><path fill="currentColor" d="M8.22 18.458q-.183.104-.388.024q-.205-.08-.29-.263l-1.5-3q-.084-.182-.024-.387q.06-.205.244-.29q.182-.084.387-.014q.205.07.29.253l1.519 2.98q.104.183.024.388q-.08.205-.263.309Zm9 0q-.183.104-.388.024q-.205-.08-.29-.263l-4.5-9q-.084-.182-.024-.387q.06-.205.244-.29q.182-.084.387-.014q.205.07.29.253l4.519 8.98q.104.183.024.388q-.08.205-.263.309Zm-4.47.273q-.31 0-.52-.21t-.21-.52q0-.31.21-.521t.52-.21q.31 0 .52.21t.21.52q0 .31-.21.52t-.52.21Zm9.47-.273q-.183.084-.388.014q-.205-.07-.29-.253l-.5-1q-.084-.182-.024-.387q.06-.205.244-.29q.182-.084.387-.014q.205.07.29.253l.5 1q.103.182.035.379q-.068.196-.255.298Zm-11-3q-.183.084-.379.014q-.195-.07-.28-.253l-4.5-9q-.084-.182-.023-.378t.243-.28q.182-.084.378-.024t.28.244l4.5 9q.103.182.035.379q-.068.196-.255.298ZM20 14.73q-.31 0-.52-.21t-.21-.52q0-.31.21-.521t.52-.21q.31 0 .52.21t.21.52q0 .31-.21.52t-.52.21Zm-15-2q-.31 0-.52-.21T4.27 12q0-.31.21-.521t.52-.21q.31 0 .52.21t.21.52q0 .31-.21.52t-.52.21Zm13.72-1.273q-.183.084-.388.014q-.205-.07-.29-.253l-2.5-5q-.084-.182-.024-.387q.06-.205.244-.29q.182-.084.387-.014q.205.07.29.253l2.5 5q.103.182.035.379q-.068.196-.255.298Zm-15-2q-.183.084-.379.014q-.195-.07-.28-.253l-1.5-3q-.084-.182-.023-.378t.243-.28q.182-.084.378-.024t.28.244l1.5 3q.103.182.035.379q-.068.196-.255.298Zm7.53-2.727q-.31 0-.52-.21T10.52 6q0-.31.21-.521t.52-.21q.31 0 .52.21t.21.52q0 .31-.21.52t-.52.21Z"/></svg>