<svg xmlns="http://www.w3.org/2000/svg" width="200" height="200" viewBox="0 0 24 24"><path fill="currentColor" d="M4.28 11.683L1.324 5.78l.896-.458l2.958 5.896l-.896.464Zm3.5 7L5.33 13.78l.884-.458l2.458 4.896l-.89.464Zm2.032-5L5.873 5.78l.89-.458l3.958 7.896l-.91.464Zm2.175-5.006L10.548 5.78l.89-.452l1.439 2.89l-.89.458Zm.6 10l-1.458-2.896l.89-.452l1.452 2.865l-.884.483Zm4.65 0l-3.958-7.896l.89-.458l3.958 7.871l-.89.483Zm1.544-5.994L15.329 5.78l.89-.452l3.458 6.89l-.896.464Zm3 6l-1.952-3.902l.89-.452l1.958 3.89l-.896.464Z"/></svg>