<svg xmlns="http://www.w3.org/2000/svg" width="200" height="200" viewBox="0 0 24 24"><path fill="currentColor" d="M8.885 19.558q-2.085-.7-3.677-2.169q-1.593-1.468-2.035-3.581q-.058-.31.134-.559q.191-.249.5-.249H5V5.477q0-.298.202-.525t.5-.258l14.8-1.632q.215-.031.357.107q.141.139.141.354q0 .16-.123.286q-.123.126-.283.15l-10.17 1.11v2.104h10.134q.19 0 .316.126t.126.316q0 .19-.126.317q-.126.126-.316.126H10.423V13h9.77q.309 0 .51.249q.2.25.143.559q-.442 2.132-2.044 3.61q-1.602 1.478-3.725 2.14v.634q0 .348-.23.578q-.23.23-.578.23H9.692q-.348 0-.578-.23q-.23-.23-.23-.578v-.634ZM8.154 7.173h1.384V5.167l-1.384.158v1.848Zm-2.27 0H7.27v-1.75l-1.384.139v1.611ZM8.155 13h1.384V8.058H8.154V13Zm-2.27 0H7.27V8.058H5.885V13Zm4 7h4.193v-1.138l.558-.193q1.755-.523 3.123-1.725q1.367-1.202 1.969-2.944H4.273q.583 1.742 1.95 2.947t3.104 1.722l.558.193V20ZM12 14Z"/></svg>