<svg xmlns="http://www.w3.org/2000/svg" width="200" height="200" viewBox="0 0 24 24"><path fill="currentColor" d="M4 20.77V3.23l1.27.962l1.345-.961l1.347.961l1.346-.961l1.346.961L12 3.231l1.346.961l1.346-.961l1.346.961l1.347-.961l1.346.961L20 3.231v17.538l-1.27-.961l-1.345.961l-1.347-.961l-1.346.961l-1.346-.961l-1.346.961l-1.346-.961l-1.346.961l-1.346-.961l-1.347.961l-1.346-.961L4 20.769Zm2.5-4.885h11v-1h-11v1Zm0-3.385h11v-1h-11v1Zm0-3.385h11v-1h-11v1ZM5 19.1h14V4.9H5v14.2ZM5 4.9v14.2V4.9Z"/></svg>