<svg xmlns="http://www.w3.org/2000/svg" width="200" height="200" viewBox="0 0 24 24"><path fill="currentColor" d="M12 20.02q-.238 0-.478-.096q-.24-.095-.41-.286l-6.316-6.34q-.408-.408-.724-.859t-.535-.939h8.357q.618 0 1.05.441q.431.442.431 1.059t-.441 1.059t-1.059.441q-.194 0-.366-.05t-.336-.13q-.171-.135-.37-.102t-.332.205t-.104.37t.202.332q.304.179.632.277t.674.098q1.038 0 1.77-.73q.73-.732.73-1.77q0-.448-.146-.82t-.414-.68h2.06q1.038 0 1.77-.73q.73-.732.73-1.77t-.73-1.77t-1.77-.73q-.346 0-.674.092t-.632.277q-.17.135-.202.336t.104.372t.333.195t.37-.11q.163-.081.335-.122t.366-.04q.617 0 1.059.441T17.375 9t-.441 1.059t-1.059.441H3.204q-.102-.354-.153-.7T3 9.084Q3 6.93 4.348 5.427t3.31-1.504q1.027 0 1.974.417t1.695 1.21l.673.712l.635-.674q.761-.811 1.718-1.238t1.964-.427q1.962 0 3.322 1.504T21 9.057q0 1.168-.463 2.264q-.464 1.096-1.333 1.971l-6.34 6.346q-.19.19-.408.286T12 20.02"/></svg>