<svg xmlns="http://www.w3.org/2000/svg" width="200" height="200" viewBox="0 0 24 24"><path fill="currentColor" d="M12.003 20.02q-.241 0-.48-.096t-.411-.286l-5.539-5.563q-.14-.152-.132-.36t.16-.348t.363-.134t.351.157l5.502 5.535q.05.05.09.063t.089.012t.09-.012t.089-.063l6.29-6.296q.748-.748 1.154-1.68t.387-1.891q-.031-1.725-1.093-2.924q-1.061-1.2-2.596-1.2q-.813 0-1.582.33t-1.335.961l-.906.975q-.106.13-.229.18t-.262.049t-.278-.062t-.244-.167l-.906-.975q-.563-.633-1.33-.967q-.768-.335-1.587-.335q-1.312 0-2.29.91q-.978.911-1.27 2.282q-.048.189-.225.305t-.365.068t-.305-.225t-.068-.365q.357-1.63 1.572-2.803q1.214-1.172 2.95-1.172q1.028 0 1.975.417t1.695 1.21l.673.712l.635-.674q.761-.811 1.718-1.238t1.964-.427q1.962 0 3.322 1.504T21 9.057q0 1.168-.463 2.264q-.464 1.096-1.333 1.971l-6.34 6.346q-.19.19-.405.286t-.456.095m-.109-8.519H3.558q-.213 0-.357-.144q-.143-.144-.143-.357t.143-.356t.357-.143h12.317q.617 0 1.059-.441T17.375 9t-.441-1.059t-1.059-.441q-.188 0-.363.05t-.339.13q-.171.135-.373.102t-.329-.205q-.134-.171-.104-.372t.202-.336q.304-.184.63-.277t.676-.092q1.042 0 1.77.729q.73.728.73 1.769t-.73 1.771t-1.77.731h-2.06q.268.308.414.68t.146.82q0 1.042-.73 1.77q-.728.73-1.77.73q-.352 0-.677-.098t-.629-.277q-.17-.135-.202-.333t.104-.369t.333-.205t.37.101q.163.081.338.131t.363.05q.617 0 1.059-.441T13.375 13t-.432-1.059t-1.049-.441m.168.462"/></svg>