<svg xmlns="http://www.w3.org/2000/svg" width="200" height="200" viewBox="0 0 24 24"><path fill="currentColor" d="M7.615 22q-.666 0-1.14-.475Q6 21.052 6 20.386V3.615q0-.666.475-1.14Q6.949 2 7.615 2h8.77q.666 0 1.14.475q.475.474.475 1.14v16.77q0 .666-.475 1.14q-.474.475-1.14.475h-8.77ZM12 14q1.35 0 2.613.343t2.387.972V5.5H7v9.815q1.125-.63 2.388-.972Q10.65 14 12 14Zm.002-1.5q-1.04 0-1.771-.729q-.731-.728-.731-1.769q0-1.04.729-1.771q.728-.731 1.769-.731q1.04 0 1.771.729q.731.728.731 1.769q0 1.04-.729 1.771q-.728.731-1.769.731Z"/></svg>