<svg xmlns="http://www.w3.org/2000/svg" width="200" height="200" viewBox="0 0 24 24"><path fill="currentColor" d="m12.192 20l-.707-.708l3.55-3.55l-3.55-3.55l.707-.707l3.55 3.55l3.55-3.55l.708.707l-3.55 3.55l3.55 3.55l-.708.708l-3.55-3.55l-3.55 3.55Zm-4.5 0v-1.23h1.231V20h-1.23ZM5.231 5.23H4q0-.507.362-.868Q4.723 4 5.23 4v1.23Zm2.461 0V4h1.231v1.23h-1.23Zm3.693 0V4h1.23v1.23h-1.23Zm3.692 0V4h1.23v1.23h-1.23Zm3.692 0V4q.508 0 .87.362q.361.361.361.869h-1.23ZM5.231 18.77V20q-.508 0-.87-.362Q4 19.277 4 18.77h1.23ZM4 16.307v-1.231h1.23v1.23H4Zm0-3.693v-1.23h1.23v1.23H4Zm0-3.692v-1.23h1.23v1.23H4Zm14.77 0v-1.23H20v1.23h-1.23Z"/></svg>