<svg xmlns="http://www.w3.org/2000/svg" width="200" height="200" viewBox="0 0 24 24"><path fill="currentColor" d="M18.042 15.473L7.377 4.796l4.058-1.502q.273-.106.565-.106q.292 0 .565.106l5.385 2q.46.187.755.6q.295.414.295.923V11.1q0 1.025-.22 2.102t-.738 2.271Zm-1.53 2.454q-.806.971-1.784 1.677q-.978.706-2.16 1.158q-.131.05-.281.075t-.287.025q-.042 0-.567-.1q-2.99-1.125-4.712-3.817Q5 14.254 5 11.1V6.415L3.215 4.631q-.14-.14-.15-.344q-.01-.204.15-.364t.354-.16q.194 0 .354.16l16.23 16.23q.141.141.15.345q.01.204-.15.364q-.159.16-.353.16t-.354-.16l-2.934-2.935Z"/></svg>