<svg xmlns="http://www.w3.org/2000/svg" width="200" height="200" viewBox="0 0 24 24"><path fill="currentColor" d="m18.042 15.473l-.769-.78q.339-.8.533-1.75Q18 11.994 18 11.1V6.798q0-.192-.106-.346q-.106-.154-.298-.23l-5.384-2q-.097-.04-.212-.04t-.212.04l-3.63 1.355l-.781-.78l4.058-1.503q.273-.106.565-.106q.292 0 .565.106l5.385 2q.46.187.755.6q.295.414.295.923V11.1q0 1.025-.22 2.102t-.738 2.271ZM12 20.862q-.1 0-.567-.12q-2.99-1.125-4.712-3.806Q5 14.254 5 11.1V6.415L3.215 4.631q-.14-.14-.15-.344q-.01-.204.15-.364t.354-.16q.194 0 .354.16l16.23 16.23q.141.141.15.345q.01.204-.15.364q-.159.16-.353.16t-.354-.16l-2.934-2.935q-.806.971-1.784 1.667q-.978.696-2.16 1.148q-.131.05-.281.085q-.15.035-.287.035Zm-1.098-8.545Zm1.813-2.182ZM12 19.9q1.067-.333 2.127-1.112q1.06-.778 1.677-1.569L6 7.415V11.1q0 3.025 1.7 5.5t4.3 3.3Z"/></svg>