<svg xmlns="http://www.w3.org/2000/svg" width="200" height="200" viewBox="0 0 24 24"><path fill="currentColor" d="M8.5 22.115q-.666 0-1.14-.474q-.475-.475-.475-1.141v-17q0-.666.474-1.14q.475-.475 1.141-.475h7q.666 0 1.14.474q.475.475.475 1.141v17q0 .666-.474 1.14q-.475.475-1.141.475h-7Zm0-1h7q.27 0 .442-.173t.173-.442v-17q0-.27-.173-.442t-.442-.173h-7q-.27 0-.442.173t-.173.442v17q0 .27.173.442t.442.173ZM11.998 9.5q1.04 0 1.771-.729q.731-.728.731-1.769q0-1.04-.729-1.771q-.728-.731-1.769-.731t-1.771.729Q9.5 5.957 9.5 6.998q0 1.04.729 1.771q.728.731 1.769.731Zm.002-1q-.617 0-1.059-.441Q10.5 7.617 10.5 7t.441-1.059Q11.383 5.5 12 5.5t1.059.441Q13.5 6.383 13.5 7t-.441 1.059Q12.617 8.5 12 8.5Zm-1.804 5.115q.344 0 .574-.233q.23-.233.23-.578q0-.344-.233-.574q-.233-.23-.578-.23t-.575.233q-.23.233-.23.578t.234.575q.233.23.578.23Zm3.615 0q.345 0 .575-.233t.23-.578q0-.344-.234-.574q-.233-.23-.578-.23q-.344 0-.574.233q-.23.233-.23.578t.233.575q.233.23.578.23Zm-3.615 3q.344 0 .574-.233q.23-.233.23-.578q0-.344-.233-.574q-.233-.23-.578-.23t-.575.233q-.23.233-.23.578t.234.575q.233.23.578.23Zm3.615 0q.345 0 .575-.233t.23-.578q0-.344-.234-.574q-.233-.23-.578-.23q-.344 0-.574.233q-.23.233-.23.578t.233.575q.233.23.578.23Zm-3.615 3q.344 0 .574-.233q.23-.233.23-.578q0-.344-.233-.574q-.233-.23-.578-.23t-.575.233q-.23.233-.23.578t.234.575q.233.23.578.23Zm3.615 0q.345 0 .575-.233t.23-.578q0-.344-.234-.574q-.233-.23-.578-.23q-.344 0-.574.233q-.23.233-.23.578t.233.575q.233.23.578.23Zm-5.926 1.5V2.885v18.23Z"/></svg>