<svg xmlns="http://www.w3.org/2000/svg" width="200" height="200" viewBox="0 0 24 24"><path fill="currentColor" d="M9.344 20q-.323 0-.628-.134q-.304-.133-.522-.35L4.48 15.793q-.217-.217-.348-.522Q4 14.967 4 14.644v-5.3q0-.323.13-.628q.132-.304.349-.522L5.623 7.05L2.515 3.93q-.14-.14-.152-.34q-.013-.202.152-.367q.16-.16.354-.16t.354.16l17.554 17.554q.14.14.15.344q.01.204-.15.364t-.354.16t-.354-.16l-3.119-3.12l-1.138 1.145q-.218.223-.525.356q-.308.134-.637.134H9.344ZM12 16.423q.252 0 .434-.182t.181-.433q0-.252-.181-.434q-.182-.182-.434-.182t-.434.182q-.181.182-.181.434t.181.433q.182.182.434.182Zm7.108-.127L12.5 9.688V7.885q0-.214-.143-.357q-.144-.143-.357-.143t-.357.143q-.143.143-.143.357v.803L7.742 4.931l.452-.452q.218-.217.522-.348Q9.021 4 9.344 4h5.312q.323 0 .628.13q.304.132.522.349l3.715 3.715q.217.218.348.522q.131.305.131.628v5.344q0 .304-.099.587q-.1.283-.316.5l-.477.521Z"/></svg>