<svg xmlns="http://www.w3.org/2000/svg" width="200" height="200" viewBox="0 0 24 24"><path fill="currentColor" d="M4.615 5.23q-.261 0-.438-.176T4 4.615q0-.261.177-.438T4.615 4q.262 0 .439.177t.177.438q0 .262-.177.439t-.439.177Zm3.693 0q-.262 0-.439-.176q-.177-.177-.177-.439q0-.261.177-.438T8.308 4q.261 0 .438.177t.177.438q0 .262-.177.439t-.438.177Zm3.692 0q-.262 0-.438-.176q-.177-.177-.177-.439q0-.261.177-.438Q11.738 4 12 4t.438.177q.177.177.177.438q0 .262-.177.439q-.176.177-.438.177ZM4.615 8.924q-.261 0-.438-.177T4 8.308q0-.262.177-.439t.438-.177q.262 0 .439.177t.177.439q0 .261-.177.438t-.439.177Zm0 3.692q-.261 0-.438-.177T4 12t.177-.438q.177-.177.438-.177q.262 0 .439.177q.177.176.177.438t-.177.438q-.177.177-.439.177Zm14.77 0q-.262 0-.439-.177q-.177-.176-.177-.438t.177-.438q.177-.177.439-.177q.261 0 .438.177q.177.176.177.438t-.177.438q-.177.177-.438.177Zm0 3.693q-.262 0-.439-.177t-.177-.439q0-.261.177-.438t.439-.177q.261 0 .438.177t.177.438q0 .262-.177.439t-.438.177ZM12 20q-.262 0-.438-.177q-.177-.177-.177-.438q0-.262.177-.439q.176-.177.438-.177t.438.177q.177.177.177.439q0 .261-.177.438Q12.262 20 12 20Zm3.692 0q-.261 0-.438-.177t-.177-.438q0-.262.177-.439t.438-.177q.262 0 .439.177t.177.439q0 .261-.177.438t-.439.177Zm3.693 0q-.262 0-.439-.177t-.177-.438q0-.262.177-.439t.439-.177q.261 0 .438.177t.177.439q0 .261-.177.438t-.438.177ZM19 8.423V5.615q0-.269-.173-.442T18.385 5h-2.808q-.213 0-.356-.144t-.144-.357q0-.212.144-.356q.143-.143.356-.143h2.808q.666 0 1.14.475q.475.474.475 1.14v2.808q0 .213-.144.356q-.144.144-.357.144q-.212 0-.356-.144Q19 8.636 19 8.423ZM4 18.385v-2.808q0-.213.144-.356q.144-.144.357-.144q.212 0 .356.144q.143.143.143.356v2.808q0 .269.173.442t.442.173h2.808q.213 0 .356.144t.144.357q0 .212-.144.356q-.143.143-.356.143H5.615q-.666 0-1.14-.475Q4 19.051 4 18.385Z"/></svg>