<svg xmlns="http://www.w3.org/2000/svg" width="200" height="200" viewBox="0 0 24 24"><path fill="currentColor" d="M12 11q.825 0 1.413-.588T14 9q0-.825-.588-1.413T12 7q-.825 0-1.413.588T10 9q0 .825.588 1.413T12 11Zm-3.615 9v-1H11.5v-3.754q-1.283-.102-2.36-1.047q-1.078-.945-1.317-2.21q-1.586-.187-2.705-1.302Q4 9.573 4 8V6h3.654V4h8.692v2H20v2q0 1.573-1.118 2.688q-1.119 1.114-2.705 1.3q-.239 1.266-1.316 2.211q-1.078.945-2.361 1.047V19h3.115v1h-7.23Zm-.731-9.085V7H5v1q0 1.142.762 1.963q.761.82 1.892.952Zm4.35 3.354q1.38 0 2.342-.965q.962-.964.962-2.342V5H8.692v5.962q0 1.378.966 2.342q.966.965 2.347.965Zm4.342-3.354q1.13-.132 1.892-.953Q19 9.142 19 8V7h-2.654v3.915ZM12 9.635Z"/></svg>