<svg xmlns="http://www.w3.org/2000/svg" width="200" height="200" viewBox="0 0 24 24"><path fill="currentColor" d="M9.808 21q-.344 0-.576-.234T9 20.186v-.61q-2.51-.991-4.255-2.97T3 12q0-1.868.708-3.51q.709-1.642 1.924-2.857t2.856-1.924T11.997 3t3.51.709t2.859 1.924t1.925 2.857T21 12q0 2.627-1.745 4.606T15 19.576v.61q0 .346-.232.58t-.576.234zM9.5 12h5V4.404q-.625-.202-1.25-.303T12 4t-1.25.101q-.625.1-1.25.303zM4 12h4.5V4.806Q6.433 5.823 5.216 7.76T4 12m11.5 0H20q0-2.304-1.216-4.24T15.5 4.806zM10 20h4v-1.1q2.108-.84 3.787-2.287T19.869 13H4.131q.404 2.165 2.082 3.613Q7.893 18.06 10 18.9zm0 0h4z"/></svg>