<svg xmlns="http://www.w3.org/2000/svg" width="200" height="200" viewBox="0 0 24 24"><path fill="currentColor" d="M11.52 6.885v-4h1v4h-1Zm6.1 2.619l-.708-.72l2.857-2.819l.708.72l-2.858 2.819Zm-11.2 0l-2.897-2.78l.746-.759l2.858 2.82l-.708.719ZM4.062 19.865l-2.97-2.91l.634-.659q2.106-2.179 4.841-3.237Q9.304 12 12 12t5.407 1.071q2.71 1.071 4.847 3.225l.654.66l-2.971 2.91l-3.437-2.597v-3.465q-1.142-.396-2.277-.6T12 13q-1.088 0-2.223.204q-1.135.204-2.277.6v3.465l-3.437 2.596ZM6.5 14.181q-1.129.529-2.17 1.237T2.509 16.9l1.654 1.654L6.5 16.769v-2.588Zm11 .011v2.539l2.338 1.823l1.693-1.604q-.918-.842-1.9-1.529q-.983-.686-2.131-1.229Zm-11-.011Zm11 .011Z"/></svg>