<svg xmlns="http://www.w3.org/2000/svg" width="200" height="200" viewBox="0 0 24 24"><path fill="currentColor" d="M4.5 15.5v-14h8v4q0 .836.499 1.517q.5.681 1.341.914L19.5 9.36v6.14h-15Zm1-1h13v-4.36l-4.465-1.265q-.785-.23-1.373-.734q-.589-.503-.881-1.256H9.115v-.77h2.466q-.05-.28-.063-.567q-.012-.286-.018-.663H9.115v-.77H11.5V2.5h-6v12Zm0 0Zm-.498 8q-1.04 0-1.771-.729q-.731-.728-.731-1.769q0-1.04.729-1.771q.728-.731 1.769-.731q1.04 0 1.771.729q.731.728.731 1.769q0 1.04-.729 1.771q-.728.731-1.769.731ZM5 21.5q.617 0 1.059-.441Q6.5 20.617 6.5 20t-.441-1.059Q5.617 18.5 5 18.5t-1.059.441Q3.5 19.383 3.5 20t.441 1.059Q4.383 21.5 5 21.5Zm14.002 1q-1.04 0-1.771-.729q-.731-.728-.731-1.769q0-1.04.729-1.771q.728-.731 1.769-.731q1.04 0 1.771.729q.731.728.731 1.769q0 1.04-.729 1.771q-.728.731-1.769.731Zm-.002-1q.617 0 1.059-.441q.441-.442.441-1.059t-.441-1.059Q19.617 18.5 19 18.5t-1.059.441Q17.5 19.383 17.5 20t.441 1.059q.442.441 1.059.441Zm-6.998 1q-1.04 0-1.771-.729q-.731-.728-.731-1.769q0-1.04.729-1.771q.728-.731 1.769-.731q1.04 0 1.771.729q.731.728.731 1.769q0 1.04-.729 1.771q-.728.731-1.769.731Zm-.002-1q.617 0 1.059-.441q.441-.442.441-1.059t-.441-1.059Q12.617 18.5 12 18.5t-1.059.441Q10.5 19.383 10.5 20t.441 1.059q.442.441 1.059.441ZM5 20Zm7 0Zm7 0Z"/></svg>