<svg xmlns="http://www.w3.org/2000/svg" width="200" height="200" viewBox="0 0 24 24"><path fill="currentColor" d="M4.5 15.5v-14h7.308v2.615H9.115v.77h2.693v.62q0 .156.012.31q.013.156.057.3H9.115v.77h3.034q.313.575.83.975q.52.4 1.17.6l5.159 1.428V15.5H4.5Zm.502 7q-1.04 0-1.771-.729q-.731-.728-.731-1.769q0-1.04.729-1.771q.728-.731 1.769-.731q1.04 0 1.771.729q.731.728.731 1.769q0 1.04-.729 1.771q-.728.731-1.769.731Zm14 0q-1.04 0-1.771-.729q-.731-.728-.731-1.769q0-1.04.729-1.771q.728-.731 1.769-.731q1.04 0 1.771.729q.731.728.731 1.769q0 1.04-.729 1.771q-.728.731-1.769.731Zm-7 0q-1.04 0-1.771-.729q-.731-.728-.731-1.769q0-1.04.729-1.771q.728-.731 1.769-.731q1.04 0 1.771.729q.731.728.731 1.769q0 1.04-.729 1.771q-.728.731-1.769.731Z"/></svg>