<svg xmlns="http://www.w3.org/2000/svg" width="200" height="200" viewBox="0 0 24 24"><path fill="currentColor" d="M5.28 11q-.181 0-.246-.171t.076-.28l5.81-5.234q.216-.222.502-.313q.286-.09.578-.09t.578.09q.286.091.503.313l2.765 2.516V6.346q0-.343.232-.575q.233-.233.576-.233h.23q.246 0 .412.166q.166.166.166.411v3.147l1.428 1.286q.14.11.076.28t-.247.172h-.213q-.301 0-.583-.099q-.28-.1-.498-.31L12 5.7l-5.425 4.89q-.217.212-.498.311q-.282.099-.583.099h-.213Zm4.412 7.199v-3.206q0-.341.233-.57q.232-.23.575-.23h3q.343 0 .575.23q.233.23.233.57V18.2q0 .34-.233.57q-.232.23-.575.23h-3q-.343 0-.575-.23q-.233-.23-.233-.571Z"/></svg>