<svg xmlns="http://www.w3.org/2000/svg" width="200" height="200" viewBox="0 0 24 24"><path fill="currentColor" d="M12.025 18.5q-1.304 0-2.483-.496t-2.102-1.42t-1.419-2.101T5.525 12q0-1.006.3-1.957T6.7 8.277q.229-.312.627-.238t.56.46q.544 1.297 1.312 2.436q.768 1.138 1.76 2.13t2.131 1.761t2.437 1.312q.385.162.459.56t-.238.627q-.815.575-1.766.875t-1.957.3m5.517-4.165q-.207-.068-.296-.263t-.033-.409q.475-1.469.139-2.949T15.89 8.11q-1.086-1.087-2.58-1.45t-2.937.088q-.194.056-.386-.033t-.266-.277t.018-.37t.28-.245q1.725-.567 3.508-.157t3.102 1.73q1.313 1.314 1.717 3.087t-.144 3.498q-.062.213-.254.317t-.406.037M12 3.269q-.213 0-.357-.143t-.143-.357V1.385q0-.214.143-.357T12 .885t.357.143t.143.357v1.384q0 .214-.143.357T12 3.269m0 19.846q-.213 0-.357-.143t-.143-.357v-1.384q0-.214.143-.357t.357-.143t.357.143t.143.357v1.384q0 .214-.143.357t-.357.143m6.183-17.292q-.166-.165-.166-.357t.166-.356l.93-.931q.14-.14.342-.15t.366.15q.166.165.166.357t-.166.356l-.93.931q-.147.146-.345.156t-.363-.156M4.179 19.821q-.166-.165-.166-.357t.166-.356l.93-.931q.147-.146.345-.156t.363.156t.166.357t-.166.356l-.93.931q-.14.14-.342.15t-.366-.15M21.23 12.5q-.214 0-.357-.143T20.731 12t.143-.357t.357-.143h1.384q.214 0 .357.143t.143.357t-.143.357t-.357.143zm-19.846 0q-.214 0-.357-.143T.885 12t.143-.357t.357-.143h1.384q.214 0 .357.143t.143.357t-.143.357t-.357.143zm18.436 7.321q-.165.166-.357.166t-.356-.166l-.931-.93q-.146-.147-.156-.345t.156-.363t.357-.166t.356.166l.931.93q.14.14.15.342t-.15.366M5.823 5.817q-.165.166-.357.166t-.356-.166l-.931-.93q-.14-.14-.15-.342t.15-.366q.165-.166.357-.166t.356.166l.931.93q.146.147.156.345t-.156.363"/></svg>