<svg xmlns="http://www.w3.org/2000/svg" width="200" height="200" viewBox="0 0 24 24"><path fill="currentColor" d="m13.115 14.387l-1.317-1.437l-.383 1.958q-.055.329-.345.515q-.29.187-.618.13l-2.339-.493q-.142-.05-.245-.177t-.053-.283q.05-.142.176-.238t.27-.047l2.41.495l1.033-5.208l-1.82.671V11.5q0 .154-.115.27t-.269.115t-.27-.116t-.115-.269v-1.208q0-.264.147-.467q.146-.204.388-.29l2.663-.97q.336-.125.66.006t.48.462q.47.982 1.046 1.427q.576.444 1.001.575q.154.058.27.186q.115.127.115.284t-.122.265q-.12.109-.263.059q-.53-.144-1.2-.605t-1.258-1.262l-.482 2.676l1.107 1.183q.106.125.162.269t.056.297V17.5q0 .154-.116.27t-.269.115t-.27-.116t-.115-.269zm.385-6.502q-.376 0-.63-.255T12.615 7t.255-.63t.63-.255t.63.255t.255.63t-.255.63t-.63.255M12.003 21q-1.866 0-3.51-.708q-1.643-.709-2.859-1.924t-1.925-2.856T3 12.003t.708-3.51t1.924-2.859t2.856-1.925T11.997 3t3.51.708t2.859 1.924t1.925 2.856t.709 3.509t-.708 3.51t-1.924 2.859t-2.856 1.925t-3.509.709M12 20q3.35 0 5.675-2.325T20 12t-2.325-5.675T12 4T6.325 6.325T4 12t2.325 5.675T12 20"/></svg>