<svg xmlns="http://www.w3.org/2000/svg" width="200" height="200" viewBox="0 0 24 24"><path fill="currentColor" d="M11.692 21q-1.867 0-3.51-.708q-1.642-.709-2.857-1.924Q4.11 17.154 3.4 15.512q-.709-1.642-.709-3.509q0-1.866.71-3.51t1.923-2.859Q6.54 4.418 8.182 3.709Q9.825 3 11.692 3q1.645 0 3.217.585q1.572.584 2.764 1.701q.265.248.265.58q0 .33-.242.572l-4.63 4.612q-.38.379-.877.171t-.497-.742V4q-3.35 0-5.675 2.325T3.692 12q0 3.35 2.325 5.675T11.692 20q1.937 0 3.627-.905q1.69-.905 2.873-2.46v1.519q-1.286 1.334-2.965 2.09q-1.679.756-3.535.756Zm9-3q-.213 0-.356-.144q-.144-.144-.144-.356V11q0-.213.144-.356t.357-.144q.213 0 .356.144t.143.356v6.5q0 .213-.144.356t-.356.144Zm0 2.654q-.261 0-.438-.177t-.177-.439q0-.261.177-.438t.438-.177q.262 0 .439.177t.177.438q0 .262-.177.439t-.439.177Z"/></svg>