<svg xmlns="http://www.w3.org/2000/svg" width="200" height="200" viewBox="0 0 24 24"><path fill="currentColor" d="M12 21q-2.873 0-4.842-1.9t-2.146-4.775q-.012-.244.116-.385t.372-.14q.225 0 .365.156t.152.369q.171 2.487 1.845 4.08T12 20t4.138-1.594t1.845-4.081q.011-.213.152-.37t.365-.155q.244 0 .372.14t.116.385q-.176 2.875-2.146 4.775T12 21m-6.23-8.654q-.31 0-.54-.23t-.23-.54t.23-.538t.54-.23t.539.23t.23.539t-.23.54t-.54.23m4.116 0q-.31 0-.54-.23t-.23-.54t.23-.54t.54-.23t.539.23t.23.54t-.23.54t-.54.23m4.231 0q-.31 0-.539-.23t-.23-.54t.23-.54t.54-.23t.539.23t.23.54t-.23.54t-.54.23m4.116 0q-.31 0-.54-.23t-.23-.54t.23-.54t.54-.23t.54.23q.229.23.229.54t-.23.54t-.54.23M7.828 9.787q-.31 0-.54-.23t-.23-.539t.23-.54t.54-.229t.54.23t.23.54t-.23.539t-.54.23m8.346 0q-.31 0-.54-.23t-.23-.54t.23-.54t.54-.229t.54.23t.23.54t-.23.539t-.54.23M12 9.73q-.31 0-.54-.23t-.23-.54t.23-.539t.54-.23t.54.23t.23.54t-.23.539t-.54.23m-2.115-2.5q-.31 0-.54-.23t-.23-.54t.23-.539t.54-.23t.539.23t.23.54t-.23.539t-.54.23m4.231 0q-.31 0-.539-.23t-.23-.54t.23-.539t.54-.23t.539.23t.23.54t-.23.539t-.54.23M12 4.923q-.31 0-.54-.23t-.23-.54t.23-.539t.54-.23t.54.23t.23.54t-.23.54t-.54.23m0 8.876"/></svg>