<svg xmlns="http://www.w3.org/2000/svg" width="200" height="200" viewBox="0 0 24 24"><path fill="currentColor" d="M5.77 12.346q-.31 0-.54-.23t-.23-.54t.23-.538t.54-.23t.539.23t.23.539t-.23.54t-.54.23m4.116 0q-.31 0-.54-.23t-.23-.54t.23-.54t.54-.23t.539.23t.23.54t-.23.54t-.54.23m4.231 0q-.31 0-.539-.23t-.23-.54t.23-.54t.54-.23t.539.23t.23.54t-.23.54t-.54.23m4.116 0q-.31 0-.54-.23t-.23-.54t.23-.54t.54-.23t.54.23q.229.23.229.54t-.23.54t-.54.23M7.828 9.787q-.31 0-.54-.23t-.23-.539t.23-.54t.54-.229t.54.23t.23.54t-.23.539t-.54.23m8.346 0q-.31 0-.54-.23t-.23-.54t.23-.54t.54-.229t.54.23t.23.54t-.23.539t-.54.23M12 9.73q-.31 0-.54-.23t-.23-.54t.23-.539t.54-.23t.54.23t.23.54t-.23.539t-.54.23m-2.115-2.5q-.31 0-.54-.23t-.23-.54t.23-.539t.54-.23t.539.23t.23.54t-.23.539t-.54.23m4.231 0q-.31 0-.539-.23t-.23-.54t.23-.539t.54-.23t.539.23t.23.54t-.23.539t-.54.23M12 4.923q-.31 0-.54-.23t-.23-.54t.23-.539t.54-.23t.54.23t.23.54t-.23.54t-.54.23M12 21q-2.765 0-4.706-1.788q-1.94-1.789-2.238-4.524q-.05-.363.198-.626t.634-.262h12.224q.365 0 .624.262t.208.626q-.292 2.735-2.235 4.524Q14.766 21 12.001 21"/></svg>