<svg xmlns="http://www.w3.org/2000/svg" width="200" height="200" viewBox="0 0 24 24"><path fill="currentColor" d="M11.996 21Q8.998 21 7 18.937Q5 16.873 5 13.8h1q0 2.675 1.7 4.438T12 20q2.6 0 4.3-1.763T18 13.8h1q0 3.077-2.003 5.138q-2.002 2.062-5 2.062ZM5.77 12.346q-.31 0-.54-.23q-.229-.23-.229-.54q0-.309.23-.538q.23-.23.54-.23q.309 0 .539.23q.23.23.23.539q0 .31-.23.54q-.23.23-.54.23Zm4.116 0q-.31 0-.54-.23q-.23-.23-.23-.54q0-.309.23-.538q.23-.23.54-.23q.31 0 .539.23q.23.23.23.539q0 .31-.23.54q-.23.23-.54.23Zm4.23 0q-.31 0-.539-.23q-.23-.23-.23-.54q0-.309.23-.538q.23-.23.54-.23q.309 0 .539.23q.23.23.23.539q0 .31-.23.54q-.23.23-.54.23Zm4.116 0q-.31 0-.54-.23q-.23-.23-.23-.54q0-.309.23-.538q.23-.23.54-.23q.31 0 .54.23q.229.23.229.539q0 .31-.23.54q-.23.23-.54.23ZM7.827 9.788q-.31 0-.54-.23q-.23-.23-.23-.539q0-.31.23-.54q.23-.229.54-.229q.31 0 .54.23q.23.23.23.54q0 .309-.23.539q-.23.23-.54.23Zm8.346 0q-.31 0-.54-.23q-.23-.23-.23-.539q0-.31.23-.54q.23-.229.54-.229q.31 0 .54.23q.23.23.23.54q0 .309-.23.539q-.23.23-.54.23ZM12 9.731q-.31 0-.54-.23q-.23-.23-.23-.54q0-.31.23-.539q.23-.23.54-.23q.31 0 .54.23q.23.23.23.54q0 .31-.23.539q-.23.23-.54.23Zm-2.115-2.5q-.31 0-.54-.23q-.23-.23-.23-.54q0-.31.23-.539q.23-.23.54-.23q.31 0 .539.23q.23.23.23.54q0 .31-.23.539q-.23.23-.54.23Zm4.23 0q-.31 0-.539-.23q-.23-.23-.23-.54q0-.31.23-.539q.23-.23.54-.23q.309 0 .539.23q.23.23.23.54q0 .31-.23.539q-.23.23-.54.23ZM12 4.923q-.31 0-.54-.23q-.23-.23-.23-.54q0-.309.23-.539q.23-.23.54-.23q.31 0 .54.23q.23.23.23.54q0 .31-.23.54q-.23.23-.54.23Zm0 8.877Z"/></svg>