<svg xmlns="http://www.w3.org/2000/svg" width="200" height="200" viewBox="0 0 24 24"><path fill="currentColor" d="M3 21V3h18v18H3Zm1-5.5V20h2.5v-2.423h-.885V15.5H4Zm0-1h1.615v-1.115h.693V11q0-.497.347-.845q.348-.347.845-.347h2q.497 0 .845.347q.347.348.347.845v2.385h.693V14.5H20V4H4v10.5Zm2.5 2.192h4V14.27h-4v2.423Zm2.005-7.884q-.495 0-.846-.347q-.351-.346-.351-.841t.346-.846q.347-.35.841-.35q.495 0 .846.345q.351.347.351.842t-.346.846q-.347.35-.841.35ZM8.038 20h.924v-2.423h-.924V20Zm2.462 0H20v-4.5h-8.615v2.077H10.5V20Zm2.096-10.308q.012-.075.024-.218q.013-.144.013-.299q0-.33-.142-.63q-.141-.299-.51-.762q-.337-.428-.505-.855q-.168-.428-.168-.878q0-.162.005-.316q.006-.155.056-.426h.866q-.031.179-.037.351q-.006.173-.006.391q0 .328.142.64q.141.314.435.652q.41.502.591.946q.182.445.182.887q0 .16-.005.277q-.006.117-.036.24h-.905Zm2.5 0q.012-.075.024-.218q.013-.144.013-.299q0-.33-.142-.63q-.141-.299-.51-.762q-.337-.428-.505-.855q-.168-.428-.168-.878q0-.162.005-.316q.006-.155.056-.426h.866q-.031.179-.037.351q-.006.173-.006.391q0 .328.142.64q.141.314.435.652q.41.502.591.946q.182.445.182.887q0 .16-.005.277q-.006.117-.036.24h-.905Zm2.55 0q.012-.094.024-.231q.013-.138.013-.286q0-.33-.142-.63q-.141-.299-.51-.762q-.337-.428-.505-.855q-.168-.428-.168-.878q0-.162.005-.316q.006-.155.056-.426h.866q-.031.179-.037.351q-.006.173-.006.391q0 .328.142.64q.141.314.435.652q.41.502.591.946q.182.445.182.887q0 .16-.005.277q-.006.117-.036.24h-.905Zm-11.146 7V14.27v2.423Z"/></svg>