<svg xmlns="http://www.w3.org/2000/svg" width="200" height="200" viewBox="0 0 24 24"><path fill="currentColor" d="M6.77 9.77h7.422v-3H6.77v3ZM10.461 20H5.615q-.67 0-1.143-.472Q4 19.056 4 18.385V5.615q0-.67.472-1.143Q4.944 4 5.615 4h10.29q.324 0 .629.13q.304.132.522.349l2.465 2.465q.217.218.348.522q.131.305.131.628v3.475q-.244-.084-.468-.099q-.224-.014-.474.003q-.635.017-1.264.264q-.629.248-1.106.719l-2.823 2.804q.097-.166.135-.323q.038-.156.038-.36q0-.846-.576-1.423q-.577-.577-1.424-.577q-.846 0-1.423.577q-.577.577-.577 1.423q0 .846.577 1.423q.577.577 1.423.577q.18 0 .349-.039q.169-.038.328-.134l-1.769 1.75q-.217.217-.35.525t-.134.63V20Zm2.769 1.192V20.12q0-.161.056-.3q.055-.14.186-.27l5.09-5.066q.149-.13.308-.19q.16-.062.32-.062q.165 0 .334.064t.298.193l.925.945q.123.148.188.307q.064.16.064.32t-.052.322t-.2.31l-5.065 5.066q-.131.13-.27.186t-.301.056h-1.074q-.348 0-.577-.23q-.23-.23-.23-.578Zm5.96-4.177l.924-.955l-.925-.945l-.95.95l.95.95Z"/></svg>