<svg xmlns="http://www.w3.org/2000/svg" width="200" height="200" viewBox="0 0 24 24"><path fill="currentColor" d="M5.615 20q-.67 0-1.143-.472Q4 19.056 4 18.385V5.615q0-.67.472-1.143Q4.944 4 5.615 4h10.29q.324 0 .629.13q.304.132.522.349l2.465 2.465q.217.218.348.522q.131.305.131.628v3.86q-.244-.085-.497-.1q-.253-.014-.503.004V7.844L16.156 5H5.616q-.27 0-.443.173T5 5.615v12.77q0 .269.173.442t.442.173h5.231v1h-5.23ZM5 5v14V5Zm8.23 16.192V20.12q0-.161.057-.3q.055-.14.186-.27l5.09-5.066q.149-.148.308-.2q.16-.052.32-.052q.165 0 .334.064t.298.193l.925.945q.123.148.188.307q.064.16.064.32t-.062.322q-.061.162-.19.31l-5.065 5.066q-.131.13-.27.186t-.301.056h-1.074q-.348 0-.577-.23q-.23-.23-.23-.578Zm6.885-5.132l-.925-.945l.925.945Zm-6 5.055h.95l3.468-3.473l-.47-.475l-.455-.488l-3.493 3.486v.95Zm3.948-3.948l-.455-.488l.925.963l-.47-.475ZM7.577 9.77h5.808q.348 0 .578-.23q.23-.23.23-.577V7.577q0-.348-.23-.578q-.23-.23-.578-.23H7.577q-.348 0-.578.23q-.23.23-.23.578v1.385q0 .348.23.577q.23.23.578.23ZM12 16.54q.179 0 .338-.039q.16-.038.32-.135l1.169-1.144q.096-.165.135-.332q.038-.166.038-.35q0-.827-.587-1.414q-.586-.587-1.413-.587t-1.413.587Q10 13.712 10 14.538t.587 1.414q.586.586 1.413.586Z"/></svg>