<svg xmlns="http://www.w3.org/2000/svg" width="200" height="200" viewBox="0 0 24 24"><path fill="currentColor" d="M16 10.77q.31 0 .54-.23q.23-.23.23-.54q0-.31-.23-.54q-.23-.23-.54-.23q-.31 0-.54.23q-.23.23-.23.54q0 .31.23.54q.23.23.54.23ZM8 8.5h5v-1H8v1ZM5.25 20q-.735-2.62-1.492-5.197Q3 12.225 3 9.5q0-1.877 1.312-3.188Q5.623 5 7.5 5H13q.648-.854 1.532-1.427Q15.415 3 16.5 3q.202 0 .351.149q.149.15.149.351q0 .054-.018.108q-.019.054-.03.102q-.177.448-.284.918q-.106.47-.195.943L19.402 8.5H21v5.244l-2.633.868L16.75 20H13v-2H9v2H5.25ZM6 19h2v-2h6v2h2l1.55-5.15l2.45-.825V9.5h-1L15.5 6q0-.5.063-.963t.225-.918q-.725.2-1.255.707q-.531.507-.858 1.174H7.5Q6.05 6 5.025 7.025T4 9.5q0 2.45.675 4.788T6 19Zm6-7.45Z"/></svg>