<svg xmlns="http://www.w3.org/2000/svg" width="200" height="200" viewBox="0 0 24 24"><path fill="currentColor" d="M21.923 14.5H2.077q-.213 0-.356-.144q-.144-.144-.144-.357t.144-.356q.143-.143.356-.143h19.846q.213 0 .356.144q.144.144.144.357t-.144.356q-.143.143-.356.143ZM18 8l-4-4v3.2q0 .34.23.57q.23.23.57.23H18ZM6.615 21q-.666 0-1.14-.475Q5 20.051 5 19.385V16.5h14v2.885q0 .666-.475 1.14q-.474.475-1.14.475H6.615ZM5 11.5V4.615q0-.666.475-1.14Q5.949 3 6.615 3h7.214q.331 0 .632.13q.3.132.518.349L18.52 7.02q.217.217.348.518q.131.3.131.632v3.33H5Z"/></svg>