<svg xmlns="http://www.w3.org/2000/svg" width="200" height="200" viewBox="0 0 24 24"><path fill="currentColor" d="M6 4v4v-4v16V4Zm.615 17q-.69 0-1.152-.462Q5 20.075 5 19.385V4.615q0-.69.463-1.152Q5.925 3 6.615 3h7.214q.323 0 .628.13q.305.132.522.349L18.52 7.02q.217.217.348.522q.131.305.131.628v4.14q-.244-.06-.494-.089q-.25-.03-.506-.03V8h-2.962q-.44 0-.739-.299q-.299-.3-.299-.74V4H6.615q-.23 0-.423.192Q6 4.385 6 4.615v14.77q0 .23.192.423q.193.192.423.192h5.831q.085.287.212.527q.127.24.296.473H6.615ZM18 18.79l-1.765 1.74q-.14.141-.332.134q-.191-.006-.338-.152q-.14-.14-.14-.345t.14-.344l1.747-1.746l-1.766-1.765q-.14-.14-.13-.345q.009-.204.15-.344q.14-.14.344-.14t.344.14L18 17.388l1.765-1.765q.14-.14.342-.134q.2.007.347.153q.14.14.14.335t-.14.335l-1.74 1.765l1.74 1.765q.14.14.133.342q-.006.2-.152.347q-.14.14-.335.14t-.335-.14L18 18.79Z"/></svg>