<svg xmlns="http://www.w3.org/2000/svg" width="200" height="200" viewBox="0 0 24 24"><path fill="currentColor" d="m18 8l-4-4v2.962q0 .44.299.739q.3.299.74.299H18Zm0 10.79l-1.765 1.74q-.14.141-.332.134q-.191-.006-.338-.152q-.14-.14-.14-.345t.14-.344l1.747-1.746l-1.766-1.765q-.14-.14-.13-.345q.009-.204.15-.344q.14-.14.344-.14t.344.14L18 17.388l1.765-1.765q.14-.14.342-.134q.2.007.347.153q.14.14.14.335t-.14.335l-1.74 1.765l1.74 1.765q.14.14.133.342q-.006.2-.152.347q-.14.14-.335.14t-.335-.14L18 18.79ZM6.615 21q-.69 0-1.152-.462Q5 20.075 5 19.385V4.615q0-.69.463-1.152Q5.925 3 6.615 3h7.214q.323 0 .628.13q.305.132.522.349L18.52 7.02q.217.217.348.522q.131.305.131.628v4.14q-.263-.06-.507-.089q-.243-.03-.518-.03q-2.442 0-4.151 1.709q-1.709 1.709-1.709 4.15q0 .741.208 1.529q.208.787.63 1.42H6.616Z"/></svg>