<svg xmlns="http://www.w3.org/2000/svg" width="200" height="200" viewBox="0 0 24 24"><path fill="currentColor" d="M16.77 19.77q-1.238 0-2.12-.882q-.88-.881-.88-2.119t.88-2.119q.882-.88 2.12-.88t2.118.88q.881.882.881 2.12t-.881 2.118q-.881.881-2.119.881Zm0-1q.824 0 1.412-.588t.587-1.413q0-.825-.587-1.412t-1.413-.588q-.825 0-1.412.588t-.588 1.412q0 .825.588 1.413t1.412.587Zm-9.54-2q-1.237 0-2.118-.882q-.881-.881-.881-2.119t.881-2.119q.881-.88 2.119-.88t2.119.88q.88.882.88 2.12t-.88 2.118q-.882.881-2.12.881Zm0-1q.826 0 1.413-.588t.588-1.413q0-.825-.588-1.412t-1.412-.588q-.825 0-1.413.588t-.587 1.412q0 .825.587 1.413t1.413.587ZM11 9.384q-1.238 0-2.119-.882T8 6.385q0-1.238.881-2.12q.881-.88 2.119-.88t2.119.88q.881.882.881 2.12q0 1.237-.881 2.118T11 9.385Zm0-1q.825 0 1.413-.588T13 6.385q0-.825-.588-1.413T11 4.385q-.825 0-1.413.587T9 6.385q0 .825.588 1.412T11 8.385Zm5.77 8.384Zm-9.54-3ZM11 6.385Z"/></svg>