<svg xmlns="http://www.w3.org/2000/svg" width="200" height="200" viewBox="0 0 24 24"><path fill="currentColor" d="M4.885 21.077v-2.154q0-.44.299-.74q.299-.298.74-.298H7v-3.77H5.923q-.44 0-.74-.299q-.298-.299-.298-.74v-2.153q0-.44.299-.74q.299-.298.74-.298H7v-3.77H5.923q-.44 0-.74-.299q-.298-.299-.298-.74V2.924q0-.44.299-.74q.299-.298.74-.298h3.153q.44 0 .74.299q.298.299.298.74v2.153q0 .44-.299.74q-.299.298-.74.298H8v3.77h1.077q.44 0 .74.299q.298.299.298.74v.576h4.77v-.577q0-.44.299-.74q.299-.298.74-.298h3.153q.44 0 .74.299q.298.299.298.74v2.153q0 .44-.299.74q-.299.298-.74.298h-3.153q-.44 0-.74-.299q-.298-.299-.298-.74V12.5h-4.77v.577q0 .44-.299.74q-.299.298-.74.298H8v3.77h1.077q.44 0 .74.299q.298.299.298.74v2.153q0 .44-.299.74q-.299.298-.74.298H5.924q-.44 0-.74-.299q-.298-.299-.298-.74Zm1 .038h3.23v-2.23h-3.23v2.23Zm0-8h3.23v-2.23h-3.23v2.23Zm10 0h3.23v-2.23h-3.23v2.23Zm-10-8h3.23v-2.23h-3.23v2.23ZM7.5 4Zm0 8Zm10 0Zm-10 8Z"/></svg>