<svg xmlns="http://www.w3.org/2000/svg" width="200" height="200" viewBox="0 0 24 24"><path fill="currentColor" d="M4.577 18.788q-.69 0-1.153-.462t-.462-1.153V6.943q0-.691.462-1.154q.463-.462 1.153-.462H7.5v-2h1v2h7v-2h1v2h2.923q.69 0 1.153.462t.462 1.153v10.231q0 .69-.462 1.153t-1.153.462H4.577Zm6.98-1h.885V16.52h-.884v1.27Zm3.52-3.096h2.5q.294 0 .493-.199q.2-.199.2-.493v-4q0-.294-.2-.493q-.199-.2-.493-.2h-2.5q-.294 0-.493.2q-.2.199-.2.493v4q0 .294.2.493q.199.2.493.2Zm-9.346 0h3.884v-.884h-3v-1.423h2.231q.29 0 .53-.24t.24-.53V10q0-.294-.2-.493q-.199-.2-.493-.2H5.731v.885h3v1.423H6.5q-.29 0-.53.24q-.24.24-.24.53v2.307Zm5.827-.557h.884v-.885h-.884v.885Zm3.711-.327v-3.616h2.116v3.616h-2.116Zm-3.711-2.943h.884v-.884h-.884v.884Zm0-3.269h.884v-1.27h-.884v1.27Z"/></svg>