<svg xmlns="http://www.w3.org/2000/svg" width="200" height="200" viewBox="0 0 24 24"><path fill="currentColor" d="M14.887 19H8.5q-.633 0-1.066-.434Q7 18.133 7 17.5V8.69l1 1v7.695q0 .269.173.442t.442.173h6.252l-1.97-1.99q-.141-.14-.141-.342q0-.2.14-.347q.146-.165.357-.156q.21.01.357.156l2.613 2.614q.242.242.242.565q0 .323-.242.565l-2.62 2.62q-.145.146-.343.153q-.198.006-.364-.16q-.16-.165-.162-.353q-.003-.188.162-.354L14.886 19ZM17 15.329l-1-1V6.615q0-.269-.173-.442T15.385 6H9.133l1.97 1.99q.141.14.141.342q0 .2-.14.347q-.146.165-.357.156q-.21-.01-.357-.156L7.777 6.065q-.242-.242-.242-.565q0-.323.242-.565l2.62-2.62q.145-.146.343-.152q.198-.007.364.158q.16.166.162.354q.003.188-.162.354L9.114 5H15.5q.633 0 1.066.434Q17 5.867 17 6.5v8.829Z"/></svg>