<svg xmlns="http://www.w3.org/2000/svg" width="200" height="200" viewBox="0 0 24 24"><path fill="currentColor" d="M14.73 16.23v-2.057q0-.19.127-.316q.126-.126.316-.126t.316.126q.126.126.126.316v2.135q0 .348-.23.578q-.23.23-.577.23h-2.135q-.19 0-.316-.127q-.126-.126-.126-.316t.126-.316q.126-.126.316-.126h2.058ZM9.27 7.77v2.057q0 .19-.127.316q-.126.126-.316.126t-.316-.126q-.126-.126-.126-.316V7.692q0-.348.23-.578q.23-.23.577-.23h2.135q.19 0 .316.127q.126.126.126.316t-.126.316q-.126.126-.316.126H9.269ZM7.614 22q-.69 0-1.152-.462Q6 21.075 6 20.385V3.615q0-.69.463-1.152Q6.925 2 7.615 2h8.77q.69 0 1.152.463q.463.462.463 1.152v16.77q0 .69-.462 1.152q-.463.463-1.153.463h-8.77ZM7 19.5v.885q0 .23.192.423q.193.192.423.192h8.77q.23 0 .423-.192q.192-.193.192-.423V19.5H7Zm0-1h10v-13H7v13Zm0-14h10v-.885q0-.23-.192-.423Q16.615 3 16.385 3h-8.77q-.23 0-.423.192Q7 3.385 7 3.615V4.5Zm0 0V3v1.5Zm0 15V21v-1.5Z"/></svg>