<svg xmlns="http://www.w3.org/2000/svg" width="200" height="200" viewBox="0 0 24 24"><path fill="currentColor" d="M6.5 7q-.213 0-.357-.143T6 6.5V4.615q0-.69.463-1.152T7.615 3H9.5q.213 0 .357.143T10 3.5t-.143.357T9.5 4H7.615q-.23 0-.423.192T7 4.615V6.5q0 .213-.143.357T6.5 7m1.115 14q-.69 0-1.152-.462T6 19.385V17.5q0-.213.143-.357T6.5 17t.357.143T7 17.5v1.885q0 .23.192.423t.423.192H9.5q.213 0 .357.143T10 20.5t-.143.357T9.5 21zM17.5 7q-.213 0-.357-.143T17 6.5V4.615q0-.23-.192-.423T16.385 4H14.5q-.213 0-.357-.143T14 3.5t.143-.357T14.5 3h1.885q.69 0 1.152.463T18 4.615V6.5q0 .213-.143.357T17.5 7m-3 14q-.213 0-.357-.143T14 20.5t.143-.357T14.5 20h1.885q.23 0 .423-.192t.192-.423V17.5q0-.213.143-.357T17.5 17t.357.143t.143.357v1.885q0 .69-.462 1.152T16.385 21z"/></svg>