<svg xmlns="http://www.w3.org/2000/svg" width="200" height="200" viewBox="0 0 24 24"><path fill="currentColor" d="M3.615 19q-.67 0-1.143-.472Q2 18.056 2 17.385V6.615q0-.67.472-1.143Q2.944 5 3.615 5h16.77q.67 0 1.143.472q.472.472.472 1.143v10.77q0 .67-.472 1.143q-.472.472-1.143.472H3.615ZM4.5 6h-.885q-.269 0-.442.173T3 6.615v10.77q0 .269.173.442t.442.173H4.5V6Zm1 12h13V6h-13v12Zm14-12v12h.885q.269 0 .442-.173t.173-.442V6.615q0-.269-.173-.442T20.385 6H19.5Zm0 0H21h-1.5Zm-15 0H3h1.5Zm9.423 10.615h3.192v-3.192h-.884v2.308h-2.308v.884Zm-7.038-6.038h.884V8.269h2.308v-.884H6.885v3.192Z"/></svg>