<svg xmlns="http://www.w3.org/2000/svg" width="200" height="200" viewBox="0 0 24 24"><path fill="currentColor" d="M12.442 20.244L5.673 13.5H7.1l6.058 6.058q.173.192.442.182q.27-.01.442-.182l5.308-5.308h-2.812q-.212 0-.356-.144t-.144-.357q0-.212.144-.356q.144-.143.356-.143h3.693q.343 0 .575.232q.232.232.232.576v3.692q0 .213-.143.356t-.357.144q-.213 0-.356-.144t-.144-.356v-2.812l-5.307 5.308q-.467.46-1.147.46q-.68 0-1.142-.462Zm-8.673-9.513q-.343 0-.575-.232q-.232-.233-.232-.576V6.231q0-.213.143-.356t.357-.144q.213 0 .356.144t.144.356v2.811l5.307-5.307q.467-.46 1.147-.46q.68 0 1.142.462l6.769 6.744H16.9l-6.058-6.058q-.173-.192-.442-.183q-.27.01-.442.183L4.65 9.731h2.812q.212 0 .356.144t.144.356q0 .213-.144.357q-.144.143-.356.143H3.769Z"/></svg>