<svg xmlns="http://www.w3.org/2000/svg" width="200" height="200" viewBox="0 0 24 24"><path fill="currentColor" d="m15.68 15.05l.64-.627l-2.447-2.446q.275-.425.393-.804q.119-.379.119-.904q0-1.206-.846-2.045q-.845-.84-2.039-.84t-2.04.84q-.845.84-.845 2.045q0 1.206.846 2.045q.845.84 2.039.84q.525 0 .91-.138q.386-.137.836-.412l2.435 2.446Zm-4.18-2.78q-.825 0-1.413-.588T9.5 10.269q0-.825.588-1.412t1.412-.588q.82 0 1.41.588q.59.587.59 1.412t-.588 1.413q-.587.587-1.412.587Zm-6.885 5.192q-.69 0-1.153-.463Q3 16.537 3 15.846v-9.77q0-.69.463-1.152t1.152-.462h14.77q.69 0 1.152.462q.463.463.463 1.153v9.77q0 .69-.463 1.152t-1.152.463H4.615Zm-2.846 2v-1h20.462v1H1.769Z"/></svg>