<svg xmlns="http://www.w3.org/2000/svg" width="200" height="200" viewBox="0 0 24 24"><path fill="currentColor" d="M10.12 15.654q-.37 0-.63-.26t-.26-.629v-2.761q0-.37.26-.629q.26-.26.63-.26h.13v-1q0-.748.51-1.258t1.26-.51q.747 0 1.258.51q.51.51.51 1.258v1h.131q.35 0 .6.26t.25.629v2.761q0 .37-.26.63q-.259.259-.628.259h-3.762Zm.9-4.539h2v-1q0-.425-.288-.712t-.713-.288q-.425 0-.712.288t-.288.712v1ZM3.614 18q-.69 0-1.152-.462Q2 17.075 2 16.385v-8.77q0-.69.463-1.152Q2.925 6 3.615 6h16.77q.69 0 1.152.463q.463.462.463 1.152v8.77q0 .69-.462 1.152q-.463.463-1.153.463H3.615Zm.885-1V7h-.885q-.23 0-.423.192Q3 7.385 3 7.615v8.77q0 .23.192.423q.193.192.423.192H4.5Zm1 0h13V7h-13v10Zm14 0h.885q.23 0 .423-.192q.192-.193.192-.423v-8.77q0-.23-.192-.423Q20.615 7 20.385 7H19.5v10ZM4.5 7H3h1.5Zm15 0H21h-1.5Z"/></svg>