<svg xmlns="http://www.w3.org/2000/svg" width="200" height="200" viewBox="0 0 24 24"><path fill="currentColor" d="M3.615 19q-.666 0-1.14-.475Q2 18.051 2 17.385V6.615q0-.666.475-1.14Q2.949 5 3.614 5h16.77q.666 0 1.14.475q.475.474.475 1.14v10.77q0 .666-.475 1.14q-.474.475-1.14.475H3.615ZM4.5 6h-.885q-.269 0-.442.173T3 6.615v10.77q0 .269.173.442t.442.173H4.5V6Zm1 12h13V6h-13v12Zm14-12v12h.885q.269 0 .442-.173t.173-.442V6.615q0-.269-.173-.442T20.385 6H19.5Zm0 0H21h-1.5Zm-15 0H3h1.5Zm11.73 9.73h-1.865q-.191 0-.317.126q-.125.125-.125.316t.125.317q.126.126.317.126h2.154q.248 0 .422-.183q.174-.184.174-.432v-2.135q0-.191-.125-.317q-.125-.125-.316-.125t-.317.125q-.126.126-.126.317v1.866ZM7.77 8.27h1.865q.191 0 .317-.126q.125-.125.125-.316t-.125-.317q-.126-.126-.317-.126H7.5q-.248 0-.432.174q-.183.174-.183.422v2.154q0 .191.125.317q.125.125.316.125t.317-.125q.126-.126.126-.317V8.269Z"/></svg>