<svg xmlns="http://www.w3.org/2000/svg" width="200" height="200" viewBox="0 0 24 24"><path fill="currentColor" d="m15.68 15.05l.64-.627l-2.447-2.446q.275-.425.393-.804q.119-.379.119-.904q0-1.206-.846-2.045q-.845-.84-2.039-.84t-2.04.84q-.845.84-.845 2.045q0 1.206.846 2.045q.845.84 2.039.84q.525 0 .91-.138q.386-.137.836-.412l2.435 2.446Zm-4.18-2.78q-.825 0-1.413-.588T9.5 10.269q0-.825.588-1.412t1.412-.588q.82 0 1.41.588q.59.587.59 1.412t-.588 1.413q-.587.587-1.412.587Zm-9.73 7.192v-1h20.46v1H1.77Zm1.23-2v-13h18v13H3Zm1-1h16v-11H4v11Zm0 0v-11v11Z"/></svg>