<svg xmlns="http://www.w3.org/2000/svg" width="200" height="200" viewBox="0 0 24 24"><path fill="currentColor" d="m3.904 22.308l-.812-.604l2.62-3.492l.813-4.585q.056-.465.36-.813q.303-.347.775-.458l9.686-2.933l1.962-4.23l2.596-2.578l.634.597l-2.384 2.573l-1.692 4.407l-4.693 3.346l-6.004 1.908l-1.207 3.304l-2.654 3.558ZM3 14.885q-.69 0-1.191-.501q-.501-.501-.501-1.192q0-.69.5-1.191Q2.31 11.5 3 11.5t1.191.501q.501.5.501 1.191q0 .69-.5 1.192q-.502.5-1.192.5Zm5.823-4.804q-.465.136-.907-.109q-.441-.245-.578-.73q-.136-.465.119-.91q.255-.444.72-.574l4.261-1.239l.602 2.323l-4.217 1.239Z"/></svg>