<svg xmlns="http://www.w3.org/2000/svg" width="200" height="200" viewBox="0 0 24 24"><path fill="currentColor" d="M9.577 10.77h1V7.345h-1v3.423Zm2.808 0h1V7.345h-1v3.423Zm2.807 0h1V7.345h-1v3.423ZM6.615 21q-.69 0-1.152-.462Q5 20.075 5 19.385V8.423L10.423 3h6.962q.69 0 1.152.463q.463.462.463 1.152v14.77q0 .69-.462 1.152q-.463.463-1.153.463H6.615Zm0-1h10.77q.23 0 .423-.192q.192-.193.192-.423V4.615q0-.23-.192-.423Q17.615 4 17.385 4H10.85L6 8.85v10.535q0 .23.192.423q.193.192.423.192Zm0 0H6h12H6.615Z"/></svg>