<svg xmlns="http://www.w3.org/2000/svg" width="200" height="200" viewBox="0 0 24 24"><path fill="currentColor" d="M5.615 20q-.67 0-1.143-.472Q4 19.056 4 18.385V5.615q0-.67.472-1.143Q4.944 4 5.615 4h12.77q.257 0 .49.076q.233.076.427.228l-.83.83q-.059-.057-.145-.096Q18.24 5 18.125 5H5.615q-.269 0-.442.173T5 5.615v12.77q0 .269.173.442t.442.173h12.77q.269 0 .442-.173t.173-.442v-6.747l1-1v7.747q0 .67-.472 1.143q-.472.472-1.143.472H5.615Zm5.93-5.108l8.46-8.461q.141-.14.34-.14t.343.14q.147.14.147.344t-.147.35l-8.598 8.598q-.242.242-.565.242q-.323 0-.565-.242l-3.635-3.635q-.14-.14-.15-.344q-.01-.204.15-.363q.16-.16.354-.16q.194 0 .354.16l3.511 3.511Z"/></svg>