<svg xmlns="http://www.w3.org/2000/svg" width="200" height="200" viewBox="0 0 24 24"><path fill="currentColor" d="M15.615 20q.27 0 .443-.173t.173-.442V11.23q0-.27-.173-.443t-.443-.173h-11q-.269 0-.442.173Q4 10.961 4 11.23v8.154q0 .269.173.442t.442.173zm1.616-5.615v-1h2.154q.269 0 .442-.173q.173-.174.173-.443V4.615q0-.269-.173-.442T19.385 4h-11q-.27 0-.443.173t-.173.442v5h-1v-5q0-.69.463-1.152T8.385 3h11q.69 0 1.152.463T21 4.615v8.154q0 .69-.462 1.153t-1.153.463zM4.615 21q-.69 0-1.152-.462T3 19.385V11.23q0-.69.463-1.153t1.152-.463H15.77q.614 0 1.038.424t.424 1.019v8.327q0 .69-.463 1.152T15.615 21zm5.5-5.692"/></svg>