<svg xmlns="http://www.w3.org/2000/svg" width="200" height="200" viewBox="0 0 24 24"><path fill="currentColor" d="M7.692 20v-1.23h1.231V20h-1.23ZM4 5.23V4h1.23v1.23H4Zm3.692 0V4h1.231v1.23h-1.23ZM11.385 20v-1.23h1.23V20h-1.23Zm0-14.77V4h1.23v1.23h-1.23Zm3.692 0V4h1.23v1.23h-1.23Zm0 14.77v-1.23h1.23V20h-1.23Zm3.692-14.77V4H20v1.23h-1.23ZM4 20v-1.23h1.23V20H4Zm0-3.692v-1.231h1.23v1.23H4Zm0-3.693v-1.23h1.23v1.23H4Zm0-3.692v-1.23h1.23v1.23H4ZM18.77 20v-1.23H20V20h-1.23Zm0-3.692v-1.231H20v1.23h-1.23Zm0-3.693v-1.23H20v1.23h-1.23Zm0-3.692v-1.23H20v1.23h-1.23Z"/></svg>