<svg xmlns="http://www.w3.org/2000/svg" width="200" height="200" viewBox="0 0 24 24"><path fill="currentColor" d="M7.692 16.308V7.692h8.616v8.616H7.692Zm1-1h6.616V8.692H8.692v6.616Zm-3.461 3.461V20q-.508 0-.87-.362Q4 19.277 4 18.77h1.23ZM4 16.308v-1.231h1.23v1.23H4Zm0-3.693v-1.23h1.23v1.23H4Zm0-3.692v-1.23h1.23v1.23H4Zm1.23-3.692H4q0-.508.362-.87Q4.723 4 5.23 4v1.23ZM7.693 20v-1.23h1.231V20h-1.23Zm0-14.77V4h1.231v1.23h-1.23ZM11.385 20v-1.23h1.23V20h-1.23Zm0-14.77V4h1.23v1.23h-1.23ZM15.077 20v-1.23h1.23V20h-1.23Zm0-14.77V4h1.23v1.23h-1.23ZM18.769 20v-1.23H20q0 .517-.362.873q-.361.357-.869.357Zm0-3.692v-1.231H20v1.23h-1.23Zm0-3.693v-1.23H20v1.23h-1.23Zm0-3.692v-1.23H20v1.23h-1.23Zm0-3.692V4q.508 0 .87.362q.361.361.361.869h-1.23Z"/></svg>