<svg xmlns="http://www.w3.org/2000/svg" width="200" height="200" viewBox="0 0 24 24"><path fill="currentColor" d="M4.615 5.23q-.261 0-.438-.176T4 4.615q0-.261.177-.438T4.615 4q.262 0 .439.177t.177.438q0 .262-.177.439t-.439.177Zm3.693 0q-.262 0-.439-.176q-.177-.177-.177-.439q0-.261.177-.438T8.308 4q.261 0 .438.177t.177.438q0 .262-.177.439t-.438.177Zm3.692 0q-.262 0-.438-.176q-.177-.177-.177-.439q0-.261.177-.438Q11.738 4 12 4t.438.177q.177.177.177.438q0 .262-.177.439q-.176.177-.438.177Zm3.692 0q-.261 0-.438-.176t-.177-.439q0-.261.177-.438T15.692 4q.262 0 .439.177t.177.438q0 .262-.177.439t-.439.177Zm3.693 0q-.262 0-.439-.176q-.177-.177-.177-.439q0-.261.177-.438T19.385 4q.261 0 .438.177t.177.438q0 .262-.177.439t-.438.177ZM4.615 8.924q-.261 0-.438-.177T4 8.308q0-.262.177-.439t.438-.177q.262 0 .439.177t.177.439q0 .261-.177.438t-.439.177Zm14.77 0q-.262 0-.439-.177t-.177-.438q0-.262.177-.439t.439-.177q.261 0 .438.177t.177.439q0 .261-.177.438t-.438.177Zm-14.77 3.692q-.261 0-.438-.177T4 12t.177-.438q.177-.177.438-.177q.262 0 .439.177q.177.176.177.438t-.177.438q-.177.177-.439.177Zm14.77 0q-.262 0-.439-.177q-.177-.176-.177-.438t.177-.438q.177-.177.439-.177q.261 0 .438.177q.177.176.177.438t-.177.438q-.177.177-.438.177Zm-14.77 3.693q-.261 0-.438-.177T4 15.692q0-.261.177-.438t.438-.177q.262 0 .439.177t.177.438q0 .262-.177.439t-.439.177Zm14.77 0q-.262 0-.439-.177t-.177-.439q0-.261.177-.438t.439-.177q.261 0 .438.177t.177.438q0 .262-.177.439t-.438.177ZM4.615 20q-.261 0-.438-.177T4 19.385q0-.262.177-.439t.438-.177q.262 0 .439.177t.177.439q0 .261-.177.438T4.615 20Zm3.693 0q-.262 0-.439-.177t-.177-.438q0-.262.177-.439t.439-.177q.261 0 .438.177t.177.439q0 .261-.177.438T8.308 20ZM12 20q-.262 0-.438-.177q-.177-.177-.177-.438q0-.262.177-.439q.176-.177.438-.177t.438.177q.177.177.177.439q0 .261-.177.438Q12.262 20 12 20Zm3.692 0q-.261 0-.438-.177t-.177-.438q0-.262.177-.439t.438-.177q.262 0 .439.177t.177.439q0 .261-.177.438t-.439.177Zm3.693 0q-.262 0-.439-.177t-.177-.438q0-.262.177-.439t.439-.177q.261 0 .438.177t.177.439q0 .261-.177.438t-.438.177ZM9.308 16.308q-.667 0-1.141-.475q-.475-.474-.475-1.14V9.307q0-.667.475-1.141q.474-.475 1.14-.475h5.385q.667 0 1.141.475q.475.474.475 1.14v5.385q0 .667-.475 1.141q-.474.475-1.14.475H9.307Zm0-1h5.384q.27 0 .443-.173t.173-.443V9.308q0-.27-.173-.443t-.443-.173H9.308q-.27 0-.443.173t-.173.443v5.384q0 .27.173.443t.443.173Z"/></svg>