<svg xmlns="http://www.w3.org/2000/svg" width="200" height="200" viewBox="0 0 24 24"><path fill="currentColor" d="M13.5 19.875v-1.408q0-.292.171-.519q.171-.227.464-.283L17.346 17l-3.211-.665q-.293-.056-.464-.283q-.171-.227-.171-.52v-1.407q0-.46.379-.7q.379-.238.783-.027l5.769 2.875q.454.217.454.727t-.454.727l-5.77 2.875q-.403.211-.782-.028t-.379-.699ZM5 20q-.421 0-.71-.29Q4 19.422 4 19v-3.954q.854-.25 1.427-.945Q6 13.406 6 12.5t-.573-1.601Q4.854 10.204 4 9.954V6q0-.421.29-.71Q4.578 5 5 5h4q.27-.858.946-1.371q.677-.514 1.554-.514t1.554.514Q13.73 4.142 14 5h4q.421 0 .71.29q.29.289.29.71v7.327l-1-.5V6h-4.885v-.462q-.115-.719-.592-1.07q-.477-.353-1.023-.353t-1.023.352Q10 4.82 9.885 5.538V6H5v3.277q.927.442 1.463 1.32Q7 11.472 7 12.5q0 1.021-.537 1.898q-.536.877-1.463 1.325V19h3.298q.367-.913 1.335-1.482q.967-.568 2.06-.487v1q-.962-.05-1.706.476q-.745.526-1.033 1.493H5Zm6.692-2.97q-1.092-.08-2.06.488q-.967.569-1.334 1.482H5v-3.277q.927-.448 1.463-1.325Q7 13.521 7 12.5q0-1.027-.537-1.904Q5.927 9.72 5 9.276V6h4.885v-.462q.115-.719.592-1.07q.477-.353 1.023-.353t1.023.352q.477.352.592 1.071V6H18v6.827l-3.965-1.992q-.808-.404-1.575.065q-.768.47-.768 1.383v4.748Z"/></svg>