<svg xmlns="http://www.w3.org/2000/svg" width="200" height="200" viewBox="0 0 24 24"><path fill="currentColor" d="M7 17.675h-.65l-.15.175q0 .05.15.15h2.492l.15-.15q0-.075-.037-.125t-.113-.05H7.525L8.869 14h4.023l1.308 3.675h-1.242l-.15.175q0 .05.15.15h3.769l.15-.15q0-.075-.038-.125t-.112-.05h-.625l-4.246-11.52q-.037-.084-.084-.12T11.64 6h-.186q-.085 0-.144.036t-.097.12zm2-4.05l1.908-5.258l1.86 5.258zM4.615 21q-.69 0-1.152-.462T3 19.385V4.615q0-.69.463-1.152T4.615 3h14.77q.69 0 1.152.463T21 4.615v14.77q0 .69-.462 1.152T19.385 21z"/></svg>