<svg xmlns="http://www.w3.org/2000/svg" width="200" height="200" viewBox="0 0 24 24"><path fill="currentColor" d="M16.065 20.9q-1.33-.23-2.276-1.179t-1.156-2.279h.82q.207.981.92 1.694q.712.712 1.692.918v.846Zm1.347.025v-.871q1.142-.237 1.907-1.152q.766-.915.766-2.133q0-1.217-.766-2.132q-.765-.916-1.907-1.152v-.872q1.511.237 2.534 1.403q1.023 1.167 1.023 2.753q0 1.587-1.023 2.753q-1.023 1.166-2.534 1.403Zm-4.78-4.829q.212-1.33 1.157-2.279q.946-.948 2.276-1.179v.847q-.98.205-1.693.918q-.712.712-.918 1.693h-.821Zm5.612.835l-2.048 1.319q-.106.056-.205.013q-.099-.044-.099-.175V15.45q0-.13.1-.174q.098-.043.204.012l2.048 1.32q.106.055.106.161q0 .106-.106.162ZM11.696 21h-.86q-.298 0-.515-.202q-.217-.202-.267-.5l-.28-2.19q-.557-.164-1.056-.454q-.499-.29-.928-.664l-2.002.862q-.292.13-.575.028q-.282-.103-.444-.37l-1.157-2.014q-.143-.267-.087-.565q.056-.298.298-.485l1.74-1.31q-.044-.27-.073-.548q-.028-.278-.028-.569q0-.29.028-.578q.03-.287.073-.578l-1.74-1.31q-.242-.186-.308-.484q-.065-.298.097-.565l1.157-1.975q.162-.267.435-.37q.273-.103.565.028l2.002.842q.448-.373.938-.664q.49-.29 1.045-.473l.3-2.19q.05-.298.267-.5T10.837 3h2.307q.298 0 .525.202q.227.202.277.5l.28 2.21q.537.182 1.017.463q.48.28.909.654l2.079-.842q.292-.131.565-.038q.273.093.435.36l1.157 1.995q.162.267.097.565q-.066.298-.308.485l-1.285.971q-.519-.183-1.05-.277q-.53-.094-1.073-.094q-.692 0-1.347.164t-1.284.444q-.32-.575-.912-.919q-.591-.343-1.253-.343q-1.046 0-1.773.727q-.727.727-.727 1.773q0 .662.328 1.24q.328.58.897.92q-.304.711-.414 1.47q-.11.758-.11 1.533q.063 1.054.446 2.048q.384.993 1.076 1.789Z"/></svg>