<svg xmlns="http://www.w3.org/2000/svg" width="200" height="200" viewBox="0 0 24 24"><path fill="currentColor" d="M11.577 16.23h.846l.185-1.23q.569-.125.937-.33q.368-.205.701-.578l1.18.45l.443-.738l-.938-.77q.165-.542.165-1.034t-.165-1.035l.938-.769l-.442-.738l-1.18.45q-.334-.373-.702-.578q-.368-.205-.937-.33l-.185-1.23h-.846L11.392 9q-.569.125-.937.33q-.368.205-.701.578l-1.18-.45l-.443.738l.938.77q-.165.542-.165 1.034t.165 1.035l-.938.769l.442.738l1.18-.45q.334.373.702.578q.368.205.937.33l.185 1.23ZM12 14q-.825 0-1.413-.588T10 12q0-.825.588-1.413T12 10q.825 0 1.413.588T14 12q0 .825-.588 1.413T12 14Zm-8 6V4h16v16H4Z"/></svg>