<svg xmlns="http://www.w3.org/2000/svg" width="200" height="200" viewBox="0 0 24 24"><path fill="currentColor" d="M14.538 21q-.528 0-.899-.37q-.37-.37-.37-.9V15.5q0-.373.196-.675t.514-.463l.56 1.138h1.269l-.635-1.27h1.27l.634 1.27h1.27l-.635-1.27h1.269l.634 1.27h1.27l-.635-1.27h.212q.528 0 .899.371q.37.37.37.899v4.23q0 .53-.37.9t-.9.37h-5.923Zm0-1.27h5.924v-2.96h-5.924v2.96ZM12 12Zm-.027-2.5q-1.046 0-1.773.727q-.727.727-.727 1.773q0 .796.415 1.408q.416.611 1.112.904v-1.135q-.238-.2-.383-.532q-.144-.332-.144-.645q0-.625.438-1.063t1.062-.437q.625 0 1.06.438q.434.437.434 1.062h1.006q0-1.046-.727-1.773q-.727-.727-1.773-.727ZM11 21h-.202q-.298 0-.496-.183q-.198-.182-.248-.48l-.28-2.23q-.48-.144-1.036-.453q-.557-.31-.948-.664l-2.002.862q-.292.13-.575.028q-.282-.103-.444-.37l-1.157-2.014q-.143-.267-.087-.565q.056-.298.298-.485l1.74-1.31q-.044-.27-.073-.558q-.028-.288-.028-.559q0-.252.028-.53t.073-.626l-1.74-1.31q-.242-.186-.308-.484q-.065-.298.097-.565l1.157-1.975q.162-.267.435-.37q.273-.103.565.028l2.002.842q.448-.373.97-.673q.52-.3 1.013-.464l.3-2.19q.05-.298.267-.5T10.837 3h2.307q.298 0 .525.202q.227.202.277.5l.28 2.21q.576.201 1.017.463q.442.262.909.654l2.079-.842q.292-.131.565-.038q.273.093.435.36l1.157 1.995q.162.267.097.565q-.066.298-.308.485L18.36 10.92q.082.31.092.568q.01.26.01.511h-1.039q-.006-.437-.056-.77q-.05-.334-.15-.697l2.227-1.683l-.994-1.7l-2.552 1.07q-.454-.499-1.193-.934t-1.4-.578L13 4h-1.994l-.312 2.688q-.756.162-1.39.52q-.633.36-1.26.986L5.55 7.15l-.994 1.7l2.169 1.62q-.125.336-.175.73q-.05.394-.05.82q0 .38.05.755t.156.73l-2.15 1.645l.994 1.7l2.475-1.05q.6.606 1.36 1.002q.76.396 1.615.579V21Z"/></svg>