<svg xmlns="http://www.w3.org/2000/svg" width="200" height="200" viewBox="0 0 24 24"><path fill="currentColor" d="M2 12q0-2.07.786-3.896t2.14-3.18Q6.284 3.571 8.1 2.786Q9.917 2 12 2t3.91.776q1.827.776 3.182 2.129q1.356 1.353 2.132 3.18Q22 9.912 22 12h-1q0-1.875-.713-3.513T18.35 5.626Q17.125 4.4 15.487 3.7T12 3q-1.85 0-3.488.7T5.65 5.625Q4.425 6.85 3.712 8.488T3 12H2Zm4 0q0-2.546 1.752-4.273T12 6q2.496 0 4.248 1.727T18 12h-1q0-2.075-1.463-3.538T12 7Q9.925 7 8.462 8.463T7 12H6Zm3 9.708L8.292 21l3.208-3.208v-3.819q-.675-.204-1.097-.733q-.422-.528-.422-1.22q0-.858.58-1.44Q11.143 10 12 10t1.438.58q.581.582.581 1.44q0 .692-.422 1.22q-.422.53-1.097.733v3.82L15.708 21l-.708.708l-3-3l-3 3Z"/></svg>