<svg xmlns="http://www.w3.org/2000/svg" width="200" height="200" viewBox="0 0 24 24"><path fill="currentColor" d="M14.654 21q-.529 0-.9-.37q-.37-.37-.37-.9V15.5q0-.529.37-.9q.371-.37.9-.37h1.27l.845-.845h1.693l.846.846h1.269q.529 0 .899.37t.37.899v4.23q0 .53-.37.9t-.9.37h-5.922Zm2.961-1.692q.69 0 1.192-.501q.5-.501.5-1.192q0-.69-.5-1.19q-.501-.502-1.192-.502q-.69 0-1.19.501q-.502.501-.502 1.191q0 .69.501 1.192q.501.5 1.191.5ZM11 21h-.202q-.298 0-.496-.183q-.198-.182-.248-.48l-.28-2.23q-.48-.144-1.036-.453q-.557-.31-.948-.664l-2.002.862q-.292.13-.575.028q-.282-.103-.444-.37l-1.157-2.014q-.143-.267-.087-.565q.056-.298.298-.485l1.74-1.31q-.044-.27-.073-.558q-.028-.288-.028-.559q0-.252.028-.53t.073-.626l-1.74-1.31q-.242-.186-.308-.484q-.065-.298.097-.565l1.157-1.975q.162-.267.435-.37q.273-.103.565.028l2.002.842q.448-.373.97-.673q.52-.3 1.013-.464l.3-2.19q.05-.298.267-.5T10.837 3h2.307q.298 0 .525.202q.227.202.277.5l.28 2.21q.576.201 1.017.463q.442.262.909.654l2.079-.842q.292-.131.565-.038q.273.093.435.36l1.157 2q.162.268.097.563q-.066.295-.308.482l-1.714 1.292q0 .039.01.077q.01.039.01.077h-4.237q-.292-.652-.894-1.076q-.602-.424-1.379-.424q-1.046 0-1.773.727q-.727.727-.727 1.773q0 .796.415 1.408q.416.611 1.112.904V21Z"/></svg>