<svg xmlns="http://www.w3.org/2000/svg" width="200" height="200" viewBox="0 0 24 24"><path fill="currentColor" d="M8 23.77q-.31 0-.54-.23q-.23-.23-.23-.54q0-.31.23-.54q.23-.23.54-.23q.31 0 .54.23q.23.23.23.54q0 .31-.23.54q-.23.23-.54.23Zm4 0q-.31 0-.54-.23q-.23-.23-.23-.54q0-.31.23-.54q.23-.23.54-.23q.31 0 .54.23q.23.23.23.54q0 .31-.23.54q-.23.23-.54.23Zm4 0q-.31 0-.54-.23q-.23-.23-.23-.54q0-.31.23-.54q.23-.23.54-.23q.31 0 .54.23q.23.23.23.54q0 .31-.23.54q-.23.23-.54.23ZM8.423 19q-.69 0-1.153-.463q-.462-.462-.462-1.152V2.615q0-.69.462-1.153Q7.733 1 8.423 1h7.154q.69 0 1.153.463q.462.462.462 1.152v14.77q0 .69-.462 1.152q-.463.463-1.153.463H8.423Zm0-1h7.154q.27 0 .442-.173t.173-.442V16.5H7.808v.885q0 .269.173.442t.442.173Zm-.615-2.5h8.384v-11H7.808v11Zm0-12h8.384v-.885q0-.269-.173-.442T15.577 2H8.423q-.27 0-.442.173t-.173.442V3.5Zm0 0V2v1.5Zm0 14.5v-1.5V18Z"/></svg>