<svg xmlns="http://www.w3.org/2000/svg" width="200" height="200" viewBox="0 0 24 24"><path fill="currentColor" d="M17.913 19.775q-.105.056-.201.01q-.097-.047-.097-.177v-4.37q0-.13.097-.176q.096-.047.201.01l3.64 2.184q.107.056.107.167q0 .112-.106.167l-3.64 2.185Zm-4.23 0q-.106.056-.202.01q-.096-.047-.096-.177v-4.37q0-.13.096-.176q.096-.047.202.01l3.64 2.184q.106.056.106.167q0 .112-.106.167l-3.64 2.185ZM11 21h-.202q-.298 0-.496-.183q-.198-.182-.248-.48l-.28-2.23q-.48-.144-1.036-.453q-.557-.31-.948-.664l-2.002.862q-.292.13-.575.028q-.282-.103-.444-.37l-1.157-2.014q-.143-.267-.087-.565q.056-.298.298-.485l1.74-1.31q-.044-.27-.073-.558q-.028-.288-.028-.559q0-.252.028-.53t.073-.626l-1.74-1.31q-.242-.186-.308-.484q-.065-.298.097-.565l1.157-1.975q.162-.267.435-.37q.273-.103.565.028l2.002.842q.448-.373.97-.673q.52-.3 1.013-.464l.3-2.19q.05-.298.267-.5T10.837 3h2.307q.298 0 .525.202q.227.202.277.5l.28 2.21q.576.201 1.017.463q.442.262.909.654l2.079-.842q.292-.131.565-.038q.273.093.435.36l1.157 1.995q.162.267.097.565q-.066.298-.308.485L18.36 10.92q.082.31.092.568q.01.26.01.511v.25q0 .115-.012.25h-4.03q.036-.135.044-.247q.01-.113.01-.253q0-1.046-.728-1.773q-.727-.727-1.773-.727q-1.052 0-1.776.727T9.473 12q0 .777.418 1.398t1.109.914V21Z"/></svg>