<svg xmlns="http://www.w3.org/2000/svg" width="200" height="200" viewBox="0 0 24 24"><path fill="currentColor" d="M14.538 21q-.528 0-.899-.37q-.37-.37-.37-.9V15.5q0-.38.194-.675q.193-.295.516-.463l.56 1.138h1.269l-.635-1.27h1.27l.634 1.27h1.27l-.635-1.27h1.269l.634 1.27h1.27l-.635-1.27h.212q.528 0 .899.371q.37.37.37.899v4.23q0 .53-.37.9t-.9.37h-5.923Zm0-1.27h5.924v-2.96h-5.924v2.96ZM11 21h-.202q-.298 0-.496-.183q-.198-.182-.248-.48l-.28-2.23q-.48-.144-1.036-.453q-.557-.31-.948-.664l-2.002.862q-.292.13-.575.028q-.282-.103-.444-.37l-1.157-2.014q-.143-.267-.084-.568q.06-.301.295-.482l1.74-1.31q-.044-.27-.073-.558q-.028-.288-.028-.55q0-.26.028-.539q.03-.277.073-.626l-1.74-1.31q-.249-.18-.31-.48q-.063-.302.099-.57L4.769 6.53q.162-.267.435-.37q.273-.103.565.028l2.002.842q.448-.373.97-.673q.52-.3 1.013-.464l.3-2.19q.05-.298.268-.5T10.837 3h2.307q.305 0 .529.202q.223.202.273.5l.28 2.21q.576.201 1.017.463q.442.262.909.654l2.079-.842q.292-.131.567-.038q.276.092.433.36l1.157 1.995q.162.267.1.568q-.062.301-.311.482L18.36 10.92q.082.31.092.568q.01.26.01.511h-3.989q0-1.046-.727-1.773q-.727-.727-1.773-.727q-1.046 0-1.773.727q-.727.727-.727 1.773q0 .796.415 1.408q.416.611 1.112.904V21Z"/></svg>