<svg xmlns="http://www.w3.org/2000/svg" width="200" height="200" viewBox="0 0 24 24"><path fill="currentColor" d="M12 14.98q.213 0 .357-.142t.143-.357t-.143-.357q-.144-.143-.357-.143t-.357.143t-.143.357t.143.357q.144.143.357.143M12 13q.213 0 .357-.143t.143-.357V9q0-.213-.143-.357T12 8.5t-.357.143Q11.5 8.787 11.5 9v3.5q0 .213.143.357T12 13m-1.04 8q-.348 0-.605-.229t-.318-.571l-.264-2.092q-.479-.145-1.035-.454t-.948-.664l-1.915.823q-.317.14-.644.031t-.504-.415L3.648 15.57q-.177-.306-.104-.638t.348-.546l1.671-1.25q-.044-.272-.073-.56t-.028-.558q0-.252.028-.53t.073-.626l-1.67-1.25q-.276-.213-.34-.555t.114-.648l1.06-1.8q.177-.287.504-.406t.644.021l1.896.804q.448-.373.97-.673t1.013-.464l.283-2.092q.061-.342.318-.571T10.96 3h2.08q.348 0 .605.229t.318.571l.264 2.112q.575.201 1.016.463t.909.654l1.992-.804q.318-.14.644-.021t.504.406l1.06 1.819q.177.306.104.638t-.348.546l-1.748 1.308q.082.31.092.568t.01.511q0 .233-.02.491q-.019.259-.088.626l1.69 1.27q.275.213.358.546q.083.332-.094.638l-1.066 1.839q-.177.305-.513.415q-.337.11-.654-.03l-1.923-.824q-.467.392-.94.673q-.474.281-.985.444l-.264 2.112q-.061.342-.318.571T13.04 21z"/></svg>