<svg xmlns="http://www.w3.org/2000/svg" width="200" height="200" viewBox="0 0 24 24"><path fill="currentColor" d="M3.904 22v-4.458L2 15.638V6.173h1.904V2h1v4.173h1.904v9.465l-1.904 1.904V22h-1Zm7.596 0v-4.458l-1.904-1.904V6.173H11.5V2h1v4.173h1.904v9.465L12.5 17.542V22h-1Zm7.596 0v-4.458l-1.904-1.904V6.173h1.904V2h1v4.173H22v9.465l-1.904 1.904V22h-1ZM3 7.173v4.692h2.808V7.173H3Zm7.596 0v4.692h2.808V7.173h-2.808Zm7.596 0v4.692H21V7.173h-2.808ZM4.404 16.615l1.404-1.403v-2.347H3v2.347l1.404 1.403Zm7.596 0l1.404-1.403v-2.347h-2.808v2.347L12 16.615Zm7.596 0L21 15.212v-2.347h-2.808v2.347l1.404 1.403Zm-15.192-4.25Zm7.596 0Zm7.596 0Z"/></svg>