<svg xmlns="http://www.w3.org/2000/svg" width="200" height="200" viewBox="0 0 24 24"><path fill="currentColor" d="M8 23.77q-.31 0-.54-.23q-.23-.23-.23-.54q0-.31.23-.54q.23-.23.54-.23q.31 0 .54.23q.23.23.23.54q0 .31-.23.54q-.23.23-.54.23Zm4 0q-.31 0-.54-.23q-.23-.23-.23-.54q0-.31.23-.54q.23-.23.54-.23q.31 0 .54.23q.23.23.23.54q0 .31-.23.54q-.23.23-.54.23Zm4 0q-.31 0-.54-.23q-.23-.23-.23-.54q0-.31.23-.54q.23-.23.54-.23q.31 0 .54.23q.23.23.23.54q0 .31-.23.54q-.23.23-.54.23ZM6.808 19V1h10.384v18H6.808Zm1-3.5h8.384v-11H7.808v11Z"/></svg>