<svg xmlns="http://www.w3.org/2000/svg" width="200" height="200" viewBox="0 0 24 24"><path fill="currentColor" d="m17.767 17.154l-1.27 1.277q-.112.111-.122.263q-.01.152.121.283t.273.13q.143 0 .273-.13l1.643-1.642q.242-.243.242-.566t-.242-.565l-1.643-1.642q-.111-.112-.263-.122q-.152-.01-.283.122q-.13.13-.13.273q0 .142.13.273l1.296 1.277h-3.138q-.162 0-.273.111q-.112.112-.112.273q0 .162.112.273q.111.112.273.112h3.113ZM16.77 21q-1.748 0-2.99-1.241q-1.24-1.242-1.24-2.99t1.24-2.99q1.242-1.24 2.99-1.24t2.99 1.24Q21 15.022 21 16.77t-1.241 2.99Q18.517 21 16.769 21ZM12 12Zm-.304 9h-.86q-.298 0-.515-.202q-.217-.202-.267-.5l-.28-2.19q-.48-.145-1.037-.454q-.556-.31-.947-.664l-2.002.862q-.292.13-.575.028q-.282-.103-.444-.37l-1.157-2.014q-.143-.267-.087-.565q.056-.298.298-.485l1.74-1.31q-.044-.27-.073-.558q-.028-.288-.028-.559q0-.252.028-.53t.073-.626l-1.74-1.31q-.242-.186-.308-.484q-.065-.298.097-.565l1.157-1.975q.162-.267.435-.37q.273-.103.565.028l2.002.842q.448-.373.97-.673q.52-.3 1.013-.464l.3-2.19q.05-.298.267-.5T10.837 3h2.307q.298 0 .525.202q.227.202.277.5l.28 2.21q.576.201 1.017.463q.442.262.909.654l2.079-.842q.292-.131.565-.038q.273.093.435.36l1.157 1.995q.162.267.097.565q-.066.298-.308.485l-1.285.971q-.3-.102-.615-.184q-.315-.081-.639-.137l1.806-1.354l-.994-1.7l-2.552 1.07q-.454-.499-1.193-.934t-1.4-.578L13 4h-1.994l-.312 2.688q-.756.162-1.39.52q-.633.36-1.26.986L5.55 7.15l-.994 1.7l2.169 1.62q-.125.336-.175.73q-.05.394-.05.82q0 .38.05.755t.156.73l-2.15 1.645l.994 1.7l2.475-1.05q.483.483 1.009.82q.526.338 1.14.543q.063 1.099.462 2.08q.399.98 1.06 1.757Zm-.998-6.84q.092-.25.209-.473q.116-.222.256-.435q-.313-.2-.501-.522q-.189-.322-.189-.73q0-.625.438-1.063t1.062-.437q.389 0 .723.182q.335.181.535.495q.213-.14.442-.247t.46-.193q-.316-.57-.895-.903q-.578-.334-1.265-.334q-1.052 0-1.776.727T9.473 12q0 .7.328 1.272q.328.572.897.888Z"/></svg>