<svg xmlns="http://www.w3.org/2000/svg" width="200" height="200" viewBox="0 0 24 24"><path fill="currentColor" d="M16.77 21q-1.749 0-2.99-1.241q-1.242-1.242-1.242-2.99t1.242-2.99q1.241-1.24 2.99-1.24t2.989 1.24Q21 15.022 21 16.77t-1.241 2.99Q18.517 21 16.769 21Zm1.853-2.408q.106-.125.053-.261q-.053-.137-.19-.162q-.553-.086-1.03-.4q-.475-.315-.768-.838q-.292-.523-.339-1.083q-.047-.56.159-1.088q.05-.137-.053-.255q-.103-.118-.24-.088q-1.425.262-1.931 1.612q-.507 1.35.42 2.513q.74.927 1.944.952q1.204.025 1.975-.902ZM11.696 21h-.86q-.298 0-.515-.202q-.217-.202-.267-.5l-.28-2.19q-.557-.164-1.056-.454q-.499-.29-.928-.664l-2.002.862q-.292.13-.575.028q-.282-.103-.444-.37l-1.157-2.014q-.143-.267-.087-.565q.056-.298.298-.485l1.74-1.31q-.044-.27-.073-.548q-.028-.278-.028-.569q0-.29.028-.578q.03-.287.073-.578l-1.74-1.31q-.242-.186-.308-.484q-.065-.298.097-.565l1.157-1.975q.162-.267.435-.37q.273-.103.565.028l2.002.842q.448-.373.938-.664q.49-.29 1.045-.473l.3-2.19q.05-.298.267-.5T10.837 3h2.307q.298 0 .525.202q.227.202.277.5l.28 2.21q.537.182 1.017.463q.48.28.909.654l2.079-.842q.292-.131.565-.038q.273.093.435.36l1.157 1.995q.162.267.097.565q-.066.298-.308.485l-1.285.971q-.519-.183-1.05-.277q-.53-.094-1.073-.094q-.692 0-1.347.164t-1.284.444q-.32-.575-.912-.919q-.591-.343-1.253-.343q-1.046 0-1.773.727q-.727.727-.727 1.773q0 .662.328 1.24q.328.58.897.92q-.304.711-.414 1.47q-.11.758-.11 1.533q.063 1.054.446 2.048q.384.993 1.076 1.789Z"/></svg>