<svg xmlns="http://www.w3.org/2000/svg" width="200" height="200" viewBox="0 0 24 24"><path fill="currentColor" d="M10.385 20.77q-.667 0-1.141-.475t-.475-1.141V18.5q0-.213.144-.356T9.27 18t.356.144t.143.356v.654q0 .27.173.442t.443.173h8.769q.27 0 .442-.173t.173-.442v-8.77q0-.269-.173-.442t-.442-.173H18.5q-.213 0-.356-.144Q18 9.481 18 9.27q0-.213.144-.357t.356-.143h.654q.666 0 1.14.475t.475 1.14v8.77q0 .666-.474 1.14t-1.141.475zm-1.15-5.54q-2.506 0-4.255-1.745t-1.75-4.25T4.977 4.98t4.251-1.75t4.255 1.746t1.749 4.251t-1.746 4.255t-4.25 1.749m-.004-1q2.075 0 3.537-1.463t1.463-3.537t-1.463-3.538t-3.537-1.462t-3.538 1.462t-1.462 3.538t1.462 3.537t3.538 1.463m0-5"/></svg>