<svg xmlns="http://www.w3.org/2000/svg" width="200" height="200" viewBox="0 0 24 24"><path fill="currentColor" d="M5.212 13q-.51 0-.861-.351Q4 12.3 4 11.79V2.211q0-.51.351-.861Q4.7 1 5.211 1h13.577q.51 0 .861.351q.351.35.351.86v9.577q0 .51-.351.861q-.35.351-.86.351H5.211ZM6 6h5V3H6.462q-.193 0-.327.135Q6 3.269 6 3.462V6Zm7 0h5V3.462q0-.193-.135-.327Q17.731 3 17.538 3H13v3Zm-2 5V8H6v2.538q0 .193.135.327q.134.135.327.135H11Zm2 0h4.538q.193 0 .327-.135q.135-.134.135-.327V8h-5v3ZM7 22l-4-4l4-4l1.4 1.4L6.825 17H20v2H6.825L8.4 20.6L7 22Z"/></svg>