<svg xmlns="http://www.w3.org/2000/svg" width="200" height="200" viewBox="0 0 24 24"><path fill="currentColor" d="M5.615 20q-.69 0-1.152-.462Q4 19.075 4 18.385V5.615q0-.69.463-1.152Q4.925 4 5.615 4h13.77q.69 0 1.152.463q.463.462.463 1.152v12.77q0 .69-.462 1.152q-.463.463-1.153.463H5.615ZM5 15.5v2.885q0 .23.192.423q.193.192.423.192h13.77q.23 0 .423-.192q.192-.193.192-.423V15.5H5Zm11.615-1H20V5.615q0-.23-.192-.423Q19.615 5 19.385 5h-2.77v9.5ZM5 14.5h3.385V5h-2.77q-.23 0-.423.192Q5 5.385 5 5.615V14.5Zm4.385 0h6.23V5h-6.23v9.5Z"/></svg>