<svg xmlns="http://www.w3.org/2000/svg" width="200" height="200" viewBox="0 0 24 24"><path fill="currentColor" d="M12 12.02Zm0 8.942q-3.013-.895-5.007-3.651Q5 14.554 5 11.1V5.692l7-2.615l7 2.615V11.1q0 .106-.003.212q-.003.105-.009.211q-.186-.03-.367-.046q-.18-.015-.371-.015q-.069 0-.13.005q-.063.006-.132.018l.01-.188Q18 11.206 18 11.1V6.375l-6-2.23l-6 2.23V11.1q0 3.025 1.7 5.5t4.3 3.3q.326-.1.637-.243q.311-.144.613-.315v1.139q-.297.16-.61.28t-.64.2Zm4.37.038q-.35 0-.62-.27q-.27-.268-.27-.618v-2.8q0-.35.27-.6t.62-.25h.11v-1q0-.749.511-1.26q.51-.51 1.259-.51t1.259.51q.51.511.51 1.26v1h.112q.358 0 .613.25q.256.25.256.6v2.8q0 .35-.256.619q-.255.269-.613.269h-3.762Zm.88-4.538h2v-1q0-.425-.288-.713t-.712-.287q-.425 0-.713.287t-.287.713v1Z"/></svg>