<svg xmlns="http://www.w3.org/2000/svg" width="200" height="200" viewBox="0 0 24 24"><path fill="currentColor" d="m12 14.27l4.077-2.578L12 9.115v5.154Zm-8.385 5.922q-.69 0-1.153-.462Q2 19.267 2 18.577V9.423h1v9.154q0 .23.192.423q.193.192.423.192H18.5v1H3.615Zm3-3q-.69 0-1.153-.462Q5 16.267 5 15.577V6.192h5.308V4.615q0-.69.462-1.152Q11.233 3 11.923 3h3.154q.69 0 1.153.463t.462 1.152v1.577H22v9.385q0 .69-.463 1.153q-.462.462-1.152.462H6.615Zm0-1h13.77q.23 0 .423-.192q.192-.192.192-.423V7.192H6v8.385q0 .23.192.423q.193.192.423.192Zm4.693-10h4.384V4.615q0-.23-.192-.423Q15.308 4 15.077 4h-3.154q-.23 0-.423.192q-.192.193-.192.423v1.577ZM6 16.192v-9v9Z"/></svg>