<svg xmlns="http://www.w3.org/2000/svg" width="200" height="200" viewBox="0 0 24 24"><path fill="currentColor" d="M17.385 16.846V14.5q0-.154-.116-.27q-.115-.115-.269-.115t-.27.116q-.115.115-.115.269v2.48q0 .032.112.293l1.675 1.675q.118.112.277.112q.158 0 .27-.112q.11-.111.11-.27q0-.158-.11-.276l-1.564-1.556ZM9.73 9q-.633 0-1.067-.434Q8.23 8.133 8.23 7.5t.433-1.066Q9.098 6 9.731 6q.632 0 1.066.434q.434.433.434 1.066t-.434 1.066Q10.363 9 9.731 9Zm7.272 12.5q-1.866 0-3.185-1.315q-1.318-1.316-1.318-3.182t1.315-3.185Q15.13 12.5 16.996 12.5t3.185 1.315q1.318 1.316 1.318 3.182t-1.315 3.185Q18.869 21.5 17.003 21.5ZM5.846 21q-.666 0-1.14-.475q-.475-.474-.475-1.14V4.615q0-.666.474-1.14Q5.18 3 5.846 3h7.77q.666 0 1.14.475q.475.474.475 1.14v5.748q-.281.056-.521.142q-.24.085-.48.19v-6.08q0-.269-.172-.442T13.615 4H5.846q-.27 0-.442.173t-.173.442v7.18q.392-.391.902-.593Q6.643 11 7.23 11h5q.28 0 .542.057q.262.056.53.158q-1.159.748-1.914 1.8t-1.062 2.347h-.096V14q0-.213-.144-.356T9.73 13.5q-.213 0-.356.144T9.231 14v1.5h-1.5q-.213 0-.356.144q-.144.144-.144.357t.144.356q.143.143.356.143h1.5V18q0 .213.144.356t.356.144q.161 0 .284-.094t.152-.244v-.77q.058.989.386 1.906q.328.917.893 1.702h-5.6Z"/></svg>