<svg xmlns="http://www.w3.org/2000/svg" width="200" height="200" viewBox="0 0 24 24"><path fill="currentColor" d="M9.73 9q-.632 0-1.066-.434q-.433-.433-.433-1.066t.433-1.066Q9.098 6 9.731 6q.632 0 1.066.434q.434.433.434 1.066t-.434 1.066Q10.363 9 9.731 9ZM17 21.5q-1.863 0-3.182-1.318Q12.5 18.863 12.5 17t1.318-3.182Q15.137 12.5 17 12.5t3.182 1.318Q21.5 15.137 21.5 17t-1.318 3.182Q18.863 21.5 17 21.5Zm1.675-2.279l.546-.546l-1.836-1.837v-2.723h-.77v3.047l2.06 2.06ZM5.846 21q-.671 0-1.143-.472t-.472-1.143V4.615q0-.67.472-1.143Q5.175 3 5.846 3h7.77q.67 0 1.143.472q.472.472.472 1.143v5.748q-.281.056-.521.142q-.24.085-.48.19v-6.08q0-.269-.172-.442T13.615 4H5.846q-.27 0-.442.173t-.173.442v7.18q.392-.391.902-.593Q6.643 11 7.23 11h5q.286 0 .545.057q.259.056.528.158q-1.16.748-1.915 1.8t-1.062 2.347h-.096V13.5h-1v2h-2v1h2v2h.954v-1.038q.057.97.382 1.87q.325.9.88 1.668h-5.6Z"/></svg>