<svg xmlns="http://www.w3.org/2000/svg" width="200" height="200" viewBox="0 0 24 24"><path fill="currentColor" d="M7.23 20h3.58h-5.58h2Zm-3 1V3h11v7.363q-.28.056-.52.142q-.24.085-.48.19V4h-9v7.794q.393-.39.903-.592Q6.643 11 7.23 11h5q.28 0 .542.057q.262.056.53.158q-.282.156-.54.354q-.257.198-.5.437q-.015 0-.02-.003Q12.236 12 12.23 12h-5q-.825 0-1.413.588T5.231 14v6h5.579q.14.287.288.527q.148.24.348.473H4.231Zm5.5-12q-.632 0-1.066-.434q-.433-.433-.433-1.066t.433-1.066Q9.098 6 9.731 6q.632 0 1.066.434q.434.433.434 1.066t-.434 1.066Q10.363 9 9.731 9Zm-.5 9.5h.949v-1.538q-.029-.174-.046-.357q-.018-.182-.018-.374q0-.226.03-.443q.028-.218.086-.426V13.5h-1v2h-2v1h2v2Zm7.773 3q-1.866 0-3.185-1.315q-1.318-1.316-1.318-3.182t1.315-3.185q1.316-1.318 3.182-1.318t3.185 1.315q1.318 1.316 1.318 3.182t-1.315 3.185Q18.869 21.5 17.003 21.5Zm1.672-2.279l.546-.546l-1.836-1.829v-2.73h-.77v3.046l2.06 2.06Z"/></svg>