<svg xmlns="http://www.w3.org/2000/svg" width="200" height="200" viewBox="0 0 24 24"><path fill="currentColor" d="M18 19h-2.115q-.214 0-.357-.143q-.143-.144-.143-.357t.143-.357q.143-.143.357-.143H18v-2.115q0-.214.143-.357q.144-.143.357-.143t.357.143q.143.143.143.357V18h2.115q.214 0 .357.143t.143.357q0 .213-.143.357q-.143.143-.357.143H19v2.115q0 .214-.143.357q-.144.143-.357.143t-.357-.143Q18 21.33 18 21.115V19ZM9.475 3q-.194 0-.335-.143Q9 2.713 9 2.5q0-.194.143-.347Q9.287 2 9.5 2h5q.194 0 .347.153q.153.153.153.347q0 .213-.153.357Q14.694 3 14.5 3H9.475Zm4.656 11.67l-.193-.324q-.13-.211-.348-.211q-.217 0-.348.211l-2.39 4.187q-.106.192-.02.379q.087.186.305.236q.407.07.79.083q.383.013.804-.037q-.039-.173-.039-.356v-.355q.006-1.114.388-2.076q.382-.963 1.05-1.738Zm.57-.572q.716-.615 1.617-.975t1.913-.413l-.031-.356q-.025-.142-.134-.248t-.27-.106h-3.62q-.236 0-.36.202t.007.413l.879 1.483ZM12 21q-1.663 0-3.118-.626q-1.455-.626-2.545-1.716q-1.09-1.09-1.714-2.545Q4 14.658 4 13t.626-3.113q.626-1.454 1.716-2.545q1.09-1.09 2.546-1.716Q10.341 5 12 5q1.575 0 2.865.525q1.29.525 2.427 1.475l.981-.98q.14-.141.341-.154q.201-.012.367.153q.16.16.162.351q.003.192-.156.357l-.975.98q.911 1.13 1.436 2.382q.525 1.253.552 2.794q-.215-.068-.474-.11q-.259-.042-.526-.061q-.115-2.824-2.137-4.768Q14.843 6 12 6Q9.075 6 7.037 8.038T5 13q0 2.925 2.038 4.963T12 20q.217 0 .438-.013q.222-.012.439-.043q.056.25.132.488q.076.237.191.476q-.31.055-.6.074q-.29.018-.6.018Zm.548-9.77h4.858q.217 0 .326-.164t.047-.37q-.43-1.156-1.273-2.028q-.843-.872-1.968-1.374q-.136-.056-.282-.003q-.146.053-.227.19l-1.835 3.134q-.13.212-.006.414q.124.202.36.202Zm-1.829.405l2.454-4.185q.106-.18.022-.367q-.083-.187-.295-.237q-1.212-.19-2.394.1q-1.183.29-2.173 1.02q-.131.105-.159.242q-.028.136.053.273l1.796 3.154q.13.211.348.211t.348-.211ZM9.785 14q.236 0 .36-.192q.124-.193-.007-.404L7.762 9.219q-.106-.186-.318-.199q-.211-.012-.342.15q-.748.92-1.078 2.112q-.33 1.191-.205 2.364q.025.162.124.258q.1.096.26.096h3.582Zm1.982 1.365q.131-.211.007-.403q-.124-.193-.36-.193H6.587q-.211 0-.32.165t-.047.37q.412 1.111 1.292 2.003q.881.891 1.949 1.374q.136.056.282.006t.227-.187l1.796-3.135Z"/></svg>