<svg xmlns="http://www.w3.org/2000/svg" width="200" height="200" viewBox="0 0 24 24"><path fill="currentColor" d="M15.86 19q-.195 0-.335-.143q-.14-.144-.14-.357q0-.194.143-.347q.143-.153.357-.153h5.23q.195 0 .348.153q.152.153.152.347q0 .213-.152.357q-.153.143-.348.143H15.86Zm-3.88-6Zm1.849-.379l.854 1.49l-.292.277q-.149.139-.28.281l-.167-.323q-.13-.211-.36-.211q-.23 0-.342.211l-2.819 4.912q-.163.302.052.453q.215.15.433.2q.519.095 1.006.101q.488.007.944-.043q.055.25.141.488t.195.47q-.31.036-.597.055Q12.31 21 12 21q-1.663 0-3.118-.626q-1.455-.626-2.545-1.716q-1.09-1.09-1.714-2.546Q4 14.658 4 13q0-1.658.626-3.113q.626-1.454 1.716-2.545q1.09-1.09 2.546-1.716Q10.341 5 12 5q1.575 0 2.865.525q1.29.525 2.427 1.475l.981-.98q.14-.141.341-.141t.367.146q.14.16.14.36q0 .202-.14.342l-.97.98q.893 1.135 1.415 2.385q.522 1.25.549 2.79q-.25-.067-.515-.109q-.266-.042-.56-.061v-.308q0-.162-.121-.283T18.496 12h-4.32q-.236 0-.357.202t.01.42ZM9.475 3q-.194 0-.335-.143Q9 2.713 9 2.5q0-.194.143-.347Q9.287 2 9.5 2h5q.194 0 .347.153q.153.153.153.347q0 .213-.153.357Q14.694 3 14.5 3H9.475Zm3.112 8.23h5.594q.248 0 .379-.173q.13-.174.044-.392q-.5-1.342-1.424-2.35q-.924-1.01-2.165-1.623q-.161-.086-.356-.028t-.282.226l-2.164 3.706q-.13.212.003.423q.134.212.37.212Zm-2.589.366q.13.212.367.212t.368-.212l2.838-4.842q.13-.217.05-.407q-.08-.19-.323-.24q-1.43-.27-2.794.062q-1.364.333-2.489 1.077q-.142.106-.185.291q-.043.186.043.353l2.125 3.706ZM5.546 14H9.74q.237 0 .37-.212q.134-.211.003-.423L7.352 8.523q-.13-.217-.333-.242t-.363.167q-.86 1.058-1.295 2.358q-.436 1.3-.317 2.748q.025.192.165.32t.337.126Zm3.439 5.308q.161.086.356.028t.282-.226l2.125-3.706q.13-.212-.003-.423q-.133-.212-.37-.212H5.819q-.248 0-.379.174q-.13.174-.044.392q.48 1.323 1.415 2.34q.933 1.02 2.174 1.633Z"/></svg>