<svg xmlns="http://www.w3.org/2000/svg" width="200" height="200" viewBox="0 0 24 24"><path fill="currentColor" d="M9 3V2h6v1H9Zm3 18q-1.663 0-3.118-.626q-1.455-.626-2.545-1.716q-1.09-1.09-1.714-2.545Q4 14.658 4 13t.626-3.113q.626-1.454 1.716-2.545q1.09-1.09 2.546-1.716Q10.341 5 12 5q1.575 0 2.865.525q1.29.525 2.427 1.475l1.335-1.335l.708.708l-1.323 1.335q.938 1.136 1.463 2.427Q20 11.425 20 13q0 1.658-.633 3.113q-.632 1.454-1.723 2.545q-1.09 1.09-2.545 1.716Q13.644 21 12 21Zm0-1q2.925 0 4.963-2.038T19 13q0-2.925-2.038-4.963T12 6Q9.075 6 7.037 8.038T5 13q0 2.925 2.038 4.963T12 20Zm-.154-8.77h6.13q-.43-1.447-1.39-2.487t-2.37-1.58l-2.37 4.068Zm-1.475 1l3.094-5.284q-1.525-.365-2.928-.011q-1.402.353-2.497 1.248l2.331 4.048ZM5.85 14h4.637L7.469 8.715q-.952 1.033-1.407 2.426Q5.606 12.535 5.85 14Zm3.935 4.817l2.33-4.048H6.023q.367 1.346 1.388 2.446q1.02 1.1 2.374 1.602Zm.769.237q1.79.429 3.186-.065q1.397-.493 2.22-1.172l-2.37-4.086l-3.036 5.323Zm5.977-1.77q.688-.678 1.314-2.123q.626-1.446.305-3.161h-4.675l3.056 5.285Z"/></svg>