<svg xmlns="http://www.w3.org/2000/svg" width="200" height="200" viewBox="0 0 24 24"><path fill="currentColor" d="M18 19h-2.115q-.214 0-.357-.143q-.143-.144-.143-.357t.143-.357q.143-.143.357-.143H18v-2.115q0-.214.143-.357q.144-.143.357-.143t.357.143q.143.143.143.357V18h2.115q.214 0 .357.143t.143.357q0 .213-.143.357q-.143.143-.357.143H19v2.115q0 .214-.143.357q-.144.143-.357.143t-.357-.143Q18 21.33 18 21.115V19Zm-6.02-6Zm1.849-.379l.854 1.49l-.292.277q-.149.139-.28.281l-.167-.323q-.13-.211-.36-.211q-.23 0-.342.211l-2.819 4.912q-.163.302.052.453q.215.15.433.2q.519.095 1.006.101q.488.007.944-.043q.055.25.141.488t.195.47q-.31.036-.597.055Q12.31 21 12 21q-1.663 0-3.118-.626q-1.455-.626-2.545-1.716q-1.09-1.09-1.714-2.546Q4 14.658 4 13q0-1.658.626-3.113q.626-1.454 1.716-2.545q1.09-1.09 2.546-1.716Q10.341 5 12 5q1.575 0 2.865.525q1.29.525 2.427 1.475l.981-.98q.14-.141.341-.141t.367.146q.14.16.14.36q0 .202-.14.342l-.97.98q.893 1.135 1.415 2.385q.522 1.25.549 2.79q-.25-.067-.515-.109q-.266-.042-.56-.061v-.308q0-.162-.121-.283T18.496 12h-4.32q-.236 0-.357.202t.01.42ZM9.475 3q-.194 0-.335-.143Q9 2.713 9 2.5q0-.194.143-.347Q9.287 2 9.5 2h5q.194 0 .347.153q.153.153.153.347q0 .213-.153.357Q14.694 3 14.5 3H9.475Zm3.073 8.23h5.658q.217 0 .329-.164q.111-.164.05-.376q-.464-1.342-1.414-2.387T14.93 6.662q-.137-.056-.286-.016q-.149.04-.23.177l-2.219 3.792q-.13.212-.006.414q.124.202.36.202Zm-1.835.405l2.864-4.912q.106-.186.025-.363t-.298-.227q-1.41-.266-2.8.031q-1.39.298-2.556 1.119q-.13.086-.161.245t.05.295l2.18 3.812q.131.211.348.211q.218 0 .348-.211ZM9.78 14q.236 0 .36-.192q.124-.193-.006-.404L7.352 8.498q-.106-.186-.32-.199t-.351.15q-.898 1.101-1.327 2.425q-.429 1.324-.285 2.753q.025.161.134.267q.109.106.27.106H9.78Zm1.988 1.365q.131-.211.007-.403q-.124-.193-.36-.193h-5.62q-.217 0-.338.165t-.06.376q.444 1.342 1.414 2.387q.969 1.045 2.242 1.641q.136.056.295.016q.159-.04.24-.177l2.18-3.812Z"/></svg>