<svg xmlns="http://www.w3.org/2000/svg" width="200" height="200" viewBox="0 0 24 24"><path fill="currentColor" d="M21.615 19h-6.23v-1h6.23v1ZM12 13Zm1.48-1l1.203 2.092q-.143.137-.28.283q-.136.146-.272.288l-.535-.932l-3.427 5.992q.733.214 1.415.258q.681.044 1.293-.018q.056.25.132.481q.076.231.191.464q-.31.055-.6.074q-.29.018-.6.018q-1.663 0-3.118-.626q-1.455-.626-2.545-1.716q-1.09-1.09-1.714-2.545Q4 14.658 4 13t.626-3.113q.626-1.454 1.716-2.545q1.09-1.09 2.546-1.716Q10.341 5 12 5q1.575 0 2.865.525q1.29.525 2.427 1.475l1.335-1.335l.708.708l-1.323 1.335q.911 1.129 1.436 2.381q.525 1.253.552 2.794q-.27-.073-.51-.116q-.24-.042-.51-.061q-.018-.173-.034-.353q-.015-.18-.046-.353h-5.42ZM9 3V2h6v1H9Zm2.846 8.23h6.93q-.45-1.665-1.546-2.878Q16.133 7.138 14.6 6.5l-2.754 4.73Zm-1.48 1l3.503-5.992q-1.706-.47-3.326-.09q-1.62.379-2.893 1.352l2.715 4.73ZM5.1 14h5.38L7.055 8.008q-1.108 1.175-1.668 2.71Q4.825 12.254 5.1 14Zm4.3 5.5l2.715-4.73H5.223q.43 1.626 1.538 2.859Q7.867 18.862 9.4 19.5Z"/></svg>