<svg xmlns="http://www.w3.org/2000/svg" width="200" height="200" viewBox="0 0 24 24"><path fill="currentColor" d="M3.425 9.33q.842-2.768 3.186-4.55T12 3q1.715 0 3.228.59q1.512.59 2.716 1.652q-.138.304-.226.555q-.087.251-.143.478q-1.1-1.05-2.525-1.663T12 4Q9.475 4 7.475 5.413t-2.9 3.612q-.31-.006-.601.067q-.291.073-.549.239ZM12 21q-3.046 0-5.39-1.771t-3.185-4.54q.252.165.543.24q.292.077.607.071q.9 2.2 2.9 3.6T12 20q3.325 0 5.663-2.337T20 12q0-.425-.038-.85t-.137-.85q.217.062.418.112q.201.05.43.069q.052 0 .104-.006t.098-.017q.07.38.097.758q.028.378.028.784q0 1.863-.71 3.506t-1.927 2.857q-1.215 1.216-2.857 1.926Q13.863 21 12 21ZM8.842 9.475l-.761.762q-.13.128-.136.303q-.007.175.142.323q.148.149.313.149t.313-.149l.78-.798q.242-.242.242-.565q0-.323-.243-.565l-.823-.823q-.123-.124-.294-.124t-.294.124q-.13.128-.13.303t.13.304l.761.756ZM21 8.692q-.69 0-1.191-.5q-.501-.502-.501-1.192q0-.804.454-1.554q.453-.75.89-1.398q.056-.086.149-.136q.093-.05.199-.05t.19.05q.083.05.139.136q.436.648.9 1.398q.463.75.463 1.554q0 .69-.5 1.191q-.502.501-1.192.501Zm-5.817.783l.755-.756q.13-.129.12-.304q-.01-.175-.139-.303q-.129-.13-.304-.13t-.303.13l-.804.823q-.243.242-.243.565q0 .323.243.565l.804.804q.128.13.306.136q.178.007.326-.142q.148-.148.148-.316t-.148-.316l-.761-.756ZM12 12Zm-3.663 4.385q.098 0 .18-.052q.081-.052.143-.125q.55-.827 1.403-1.325q.854-.498 1.937-.498t1.937.498q.853.498 1.403 1.325q.062.073.15.125q.089.052.168.052q.296 0 .422-.237q.126-.236-.04-.475q-.707-1.09-1.796-1.632Q13.156 13.5 12 13.5q-.688 0-1.371.195t-1.29.605l-2.781-1.608q0-.361-.143-.702q-.142-.34-.453-.52q-.435-.243-.907-.12q-.472.125-.72.554q-.243.434-.119.916q.124.482.553.73q.312.18.673.133q.362-.048.673-.23l2.489 1.432q-.18.18-.34.38q-.16.2-.31.42q-.16.252-.024.476q.135.224.407.224Z"/></svg>