<svg xmlns="http://www.w3.org/2000/svg" width="200" height="200" viewBox="0 0 24 24"><path fill="currentColor" d="M12 12.075Zm6.212 6.85l-1.766 1.74q-.14.14-.332.134q-.19-.007-.337-.153q-.14-.14-.14-.344t.14-.344l1.746-1.746l-1.765-1.766q-.14-.14-.131-.344q.01-.204.15-.344q.14-.14.344-.14t.344.14l1.747 1.765l1.765-1.765q.14-.14.341-.134q.201.007.347.153q.14.14.14.335q0 .194-.14.334l-1.74 1.766l1.74 1.765q.14.14.134.341q-.007.201-.153.347q-.14.14-.334.14q-.195 0-.335-.14l-1.765-1.74Zm-6.624.24L2.256 9.833q-.166-.166-.239-.358t-.073-.394q0-.233.098-.438t.295-.37q2.107-1.621 4.557-2.447Q9.344 5 12 5t5.106.826q2.45.826 4.557 2.447q.197.165.295.37q.098.205.098.438q0 .202-.073.394t-.239.358l-2.598 2.598q-.233-.048-.461-.075q-.23-.027-.473-.027q-.104 0-.201.003l-.201.008l3.29-3.29q-1.975-1.5-4.3-2.275T12 6q-2.475 0-4.8.775T2.9 9.05l9.1 9.1l.34-.34l-.008.2q-.003.098-.003.202q0 .244.027.473q.027.228.075.461l-.02.02q-.16.159-.411.159t-.412-.16Z"/></svg>