<svg xmlns="http://www.w3.org/2000/svg" width="200" height="200" viewBox="0 0 24 24"><path fill="currentColor" d="m17.213 14.363l-.713-.713l4.6-4.6q-1.975-1.5-4.3-2.275T12 6q-.725 0-1.45.075t-1.45.2l-.842-.842q.932-.223 1.865-.328T12 5q2.938 0 5.666 1.018Q20.394 7.037 22.576 9l-5.363 5.363ZM12 18.15l2.367-2.362l-8.48-8.48q-.795.332-1.535.776q-.74.443-1.452.966l9.1 9.1Zm8.283 3.554l-5.202-5.208L12 19.576L1.423 9q.858-.742 1.778-1.36q.92-.617 1.928-1.09L2.27 3.692l.714-.713L20.996 20.99l-.713.714ZM12.8 9.95Zm-2.673 1.598Z"/></svg>