<svg xmlns="http://www.w3.org/2000/svg" width="200" height="200" viewBox="0 0 24 24"><path fill="currentColor" d="M12 12.075ZM16.112 21l-.689-.688l2.1-2.1l-2.1-2.1l.689-.689l2.1 2.1l2.1-2.1l.688.689l-2.075 2.1l2.075 2.1l-.688.688l-2.1-2.075l-2.1 2.075Zm-3.681-1.854l-.431.43L1.423 9q2.183-1.963 4.91-2.982Q9.063 5 12 5t5.666 1.018Q20.394 7.037 22.576 9l-3.43 3.43q-.233-.047-.461-.074q-.23-.027-.473-.027q-.104 0-.201.003l-.201.008l3.29-3.29q-1.975-1.5-4.3-2.275T12 6q-2.475 0-4.8.775T2.9 9.05l9.1 9.1l.34-.34l-.008.2q-.003.098-.003.202q0 .244.027.473q.027.228.075.461Z"/></svg>