<svg xmlns="http://www.w3.org/2000/svg" width="200" height="200" viewBox="0 0 24 24"><path fill="currentColor" d="M12.963 7.635L7.352 3.448l.617-.785l5.598 4.18l-.604.792ZM9.12 6.977l-.765.7l-1.867-1.402l.611-.798l2.021 1.5Zm8.687.798l-7.194-5.346l.611-.792l5.808 4.32l.457-3.459l1.39-.158l2.487 8.447l-1.51 2.023l-.792-.585l1.231-1.66l-1.979-6.67l-.51 3.88ZM7.385 10.367l-.945-.69L7 8.96l.598.453l.487.954h-.7ZM9 15.981H2v-1h7v1Zm0 2.769H3v-1h6v1Zm-4 2.77v-1h11.615v-6.558l-5.569-4.177l1.916 3.427H4v-1h7.254l-1.742-3.04l1.073-.959l7.03 5.268v8.038H5ZM15.917 9.803Zm-3.11 6.983Z"/></svg>