<svg xmlns="http://www.w3.org/2000/svg" width="200" height="200" viewBox="0 0 24 24"><path fill="currentColor" d="M12 21q-.971 0-1.693-.199t-1.619-.772l-2.725-1.73q-.494-.316-.728-.856Q5 16.903 5 16.38q0-1.225.883-1.898t1.917-.673q.552 0 1.076.17t.92.53q.356.336.792.527t.912.246V12.52q-1.237-.036-2.346-.252t-1.948-.59t-1.33-.916t-.491-1.236q0-.5.35-.928t.975-.803q-.15-.225-.238-.497t-.087-.572q0-.544.412-1.022q.413-.478 1.138-.853q-.05-.125-.05-.225V4.4q0-.613.62-1.086q.62-.472 1.641-.747q.166-.061.322.028t.219.255q.061.165-.038.322t-.264.218q-.889.24-1.232.546q-.343.304-.372.487q.029.702 1.005.941t1.714.296V2.5q0-.213.143-.357T12 2t.357.143t.143.357v3.16q.835-.037 1.763-.276t.956-.96q-.029-.178-.369-.473t-1.21-.536q-.184-.061-.277-.211t-.03-.335t.211-.274t.335-.028q.613.181 1.425.616q.811.434.811 1.217q0 .038-.05.45q.725.375 1.138.85t.412 1.025q0 .3-.077.563t-.228.487q.625.375.965.813t.34.937q0 .694-.49 1.236q-.492.54-1.33.916q-.84.375-1.949.59q-1.11.216-2.346.252v2.762q.477-.056.913-.246t.79-.527q.397-.36.921-.53t1.076-.17q1.035 0 1.917.685q.883.686.883 1.91q0 .526-.235 1.056t-.728.845l-2.725 1.725q-.897.573-1.619.772T12 21m-.5-9.365V9.519q-1.244-.05-2.337-.302t-1.801-.782q-.633.327-.857.626t-.236.476q.012.794 1.472 1.412t3.759.686m-3.25 5.788q.3 0 .525-.225T9 16.673t-.225-.525t-.525-.225t-.525.225t-.225.525t.225.525t.525.225m3.25-8.788v-2.09q-.925-.05-1.746-.265t-1.29-.684q-.652.321-.918.62t-.277.515q.006.888 1.285 1.362t2.946.542m1 3q2.298-.068 3.759-.686t1.472-1.412q-.012-.177-.243-.476q-.23-.3-.863-.626q-.708.511-1.791.773t-2.334.311zm0-3q1.667-.068 2.946-.542t1.285-1.362q-.012-.21-.269-.509t-.92-.626q-.469.475-1.29.687t-1.752.261zm3.25 8.788q.3 0 .525-.225t.225-.525t-.225-.525t-.525-.225t-.525.225t-.225.525t.225.525t.525.225"/></svg>