<svg xmlns="http://www.w3.org/2000/svg" width="200" height="200" viewBox="0 0 24 24"><path fill="currentColor" d="M4.615 19q-.67 0-1.143-.472Q3 18.056 3 17.385v-9.5q0-.214.143-.357q.144-.143.357-.143t.357.143Q4 7.67 4 7.885v9.5q0 .269.173.442t.442.173H17.5q.213 0 .357.143T18 18.5q0 .213-.143.357q-.144.143-.357.143H4.615Zm3-3q-.67 0-1.143-.472Q6 15.056 6 14.385v-7.77q0-.67.472-1.143Q6.944 5 7.615 5h6.939l-1 1H7.615q-.269 0-.442.173T7 6.615v7.77q0 .269.173.442t.442.173h11.77q.269 0 .442-.173t.173-.442V8.446l1-1v6.939q0 .67-.472 1.143q-.472.472-1.143.472H7.615Zm5.366-4.327q-.302 0-.586-.095q-.283-.095-.499-.286q-.067-.067-.036-.166q.03-.1.136-.11q.217-.018.37-.158t.153-.377q0-.375.265-.63q.264-.255.64-.255q.355 0 .62.265t.264.62q0 .517-.395.855q-.396.337-.932.337Zm2.37-1.98l-1.063-1.064l4.37-4.344q.13-.131.292-.131q.162 0 .292.13l.473.474q.131.13.131.292q0 .162-.13.292l-4.364 4.35Z"/></svg>