<svg xmlns="http://www.w3.org/2000/svg" width="200" height="200" viewBox="0 0 24 24"><path fill="currentColor" d="M8.827 12.198q.673 0 1.029-.565q.356-.566.51-1.114L8.211 8.365v3.218q0 .267.174.441t.44.174m-5.018 7.54q-.348 0-.578-.23T3 18.932v-.962q0-.67.472-1.143q.472-.472 1.143-.472h11.58L14.31 14.47H6.635q-.348 0-.578-.23t-.23-.577V5.98L2.247 2.4q-.141-.14-.154-.341t.153-.367q.16-.16.354-.16t.354.16l18.515 18.51q.146.146.156.344t-.156.364t-.357.165t-.356-.165l-1.177-1.172zM16.8 12.752l-2.51-2.529q.46-.142.748-.51t.289-.865q0-.594-.424-1.015t-1.018-.421q-.477 0-.855.288t-.52.729L7.256 3.112q-.38-.38-.177-.876q.202-.498.742-.498h8.737q.69 0 1.153.463t.462 1.153v8.833q0 .54-.497.742t-.876-.177"/></svg>