<svg xmlns="http://www.w3.org/2000/svg" width="200" height="200" viewBox="0 0 24 24"><path fill="currentColor" d="m21.11 21.27l-1.531-1.532H3V17.97q0-.67.472-1.143q.472-.472 1.143-.472h11.58L14.31 14.47H5.827V5.981L1.892 2.046l.708-.708l19.223 19.218zM7.442 1.737h9.116q.69 0 1.153.463t.462 1.153v10.634h-.161l-3.722-3.765q.46-.142.748-.51t.289-.865q0-.594-.424-1.015t-1.018-.421q-.477 0-.855.288t-.52.729L6.327 2.183q.217-.21.499-.327t.616-.118m.77 10.454h.555q.577 0 .983-.435t.615-1.238L8.212 8.365z"/></svg>