<svg xmlns="http://www.w3.org/2000/svg" width="200" height="200" viewBox="0 0 24 24"><path fill="currentColor" d="M2 18V6h20v12H2Zm2.5-1V7H3v10h1.5Zm1 0h13V7h-13v10Zm14 0H21V7h-1.5v10ZM4.5 7H3h1.5Zm15 0H21h-1.5Zm-6.25 5.635q-.275 0-.455-.18t-.18-.455t.18-.455q.18-.18.455-.18t.455.18q.18.18.18.455t-.18.455q-.18.18-.455.18Zm-5 0q-.275 0-.455-.18T7.615 12t.18-.455q.18-.18.455-.18t.455.18q.18.18.18.455t-.18.455q-.18.18-.455.18Zm7.5 0q-.275 0-.455-.18t-.18-.455t.18-.455q.18-.18.455-.18t.455.18q.18.18.18.455t-.18.455q-.18.18-.455.18Zm-5 0q-.275 0-.455-.18t-.18-.455t.18-.455q.18-.18.455-.18t.455.18q.18.18.18.455t-.18.455q-.18.18-.455.18Z"/></svg>