<svg xmlns="http://www.w3.org/2000/svg" width="200" height="200" viewBox="0 0 24 24"><path fill="currentColor" d="M3 21v-1.77q0-.666.475-1.14q.474-.475 1.14-.475h14.77q.666 0 1.14.475q.475.474.475 1.14V21zm1-1h16v-.77q0-.268-.173-.442q-.173-.173-.442-.173H4.615q-.269 0-.442.173q-.173.174-.173.443zm1.827-4.27V4.616q0-.69.462-1.152T7.442 3h9.116q.69 0 1.153.463t.462 1.152v11.116h-1V4.615q0-.269-.173-.442T16.558 4H7.442Q7.173 4 7 4.173t-.173.442v11.116zm2.385-2.288h.555q.87 0 1.359-.879q.49-.878.49-2.448t-.49-2.457q-.49-.889-1.359-.889h-.555zm5.672-1.884q.595 0 1.019-.424q.424-.423.424-1.018t-.424-1.019t-1.018-.424t-1.019.424t-.424 1.018t.424 1.019t1.018.424M12 9.865"/></svg>