<svg xmlns="http://www.w3.org/2000/svg" width="200" height="200" viewBox="0 0 24 24"><path fill="currentColor" d="M3 20.192v-.961q0-.667.475-1.141q.474-.475 1.14-.475h14.77q.666 0 1.14.475q.475.474.475 1.14v.962q0 .344-.232.576t-.576.232H3.808q-.344 0-.576-.232T3 20.192M4 20h16v-.77q0-.268-.173-.442q-.173-.173-.442-.173H4.615q-.269 0-.442.173q-.173.174-.173.443zm1.827-4.77V4.616q0-.69.462-1.152T7.442 3h9.116q.69 0 1.153.463t.462 1.152v10.616q0 .212-.144.356t-.357.144t-.356-.144t-.143-.356V4.615q0-.269-.173-.442T16.558 4H7.442Q7.173 4 7 4.173t-.173.442v10.616q0 .212-.144.356t-.357.144t-.356-.144t-.143-.356m4.788-5.119q0-.631-.102-1.267t-.4-1.187q-.222-.37-.557-.626t-.76-.257q-.242 0-.413.18t-.171.441v5.412q0 .275.176.452t.447.177q.415 0 .736-.257t.542-.626q.298-.547.4-1.179t.102-1.263m3.27 1.446q.594 0 1.018-.424q.424-.423.424-1.018t-.424-1.019t-1.018-.424t-1.019.424t-.424 1.018t.424 1.019t1.018.424M12 9.865"/></svg>