<svg xmlns="http://www.w3.org/2000/svg" width="200" height="200" viewBox="0 0 24 24"><path fill="currentColor" d="M3.808 21q-.344 0-.576-.232T3 20.192v-.961q0-.667.475-1.141q.474-.475 1.14-.475h14.77q.666 0 1.14.475q.475.474.475 1.14v.962q0 .344-.232.576t-.576.232zm2.519-5.27q-.213 0-.356-.143t-.144-.356V4.615q0-.69.462-1.152T7.442 3h9.116q.69 0 1.153.463t.462 1.152v10.616q0 .212-.144.356t-.356.144zm2.508-2.293q.415 0 .736-.257t.542-.626q.298-.547.4-1.179t.102-1.263t-.102-1.267t-.4-1.187q-.222-.37-.557-.626t-.76-.257q-.242 0-.413.18t-.171.441v5.412q0 .275.176.452t.447.177m5.05-1.88q.594 0 1.018-.423t.424-1.018t-.424-1.019t-1.018-.424t-1.019.424t-.424 1.018t.424 1.019t1.018.424"/></svg>