<svg xmlns="http://www.w3.org/2000/svg" width="200" height="200" viewBox="0 0 24 24"><path fill="currentColor" d="M6.003 14.827q-.33 0-.58-.25q-.25-.248-.25-.58q0-.349.25-.586t.58-.238q.349 0 .586.24q.238.238.238.584q0 .33-.24.58q-.238.25-.584.25Zm0-8q-.33 0-.58-.25q-.25-.248-.25-.58q0-.349.25-.586t.58-.238q.349 0 .586.24q.238.238.238.584q0 .33-.24.58q-.238.25-.584.25Zm3 12q-.33 0-.58-.25q-.25-.248-.25-.58q0-.349.25-.586t.58-.238q.349 0 .586.24q.238.238.238.584q0 .33-.24.58q-.238.25-.584.25Zm0-8q-.33 0-.58-.25q-.25-.248-.25-.58q0-.349.25-.586t.58-.238q.349 0 .586.24q.238.238.238.584q0 .33-.24.58q-.238.25-.584.25Zm3 4q-.33 0-.58-.25q-.25-.248-.25-.58q0-.349.25-.586t.58-.238q.349 0 .586.24q.238.238.238.584q0 .33-.24.58q-.238.25-.584.25Zm0-8q-.33 0-.58-.25q-.25-.248-.25-.58q0-.349.25-.586t.58-.238q.349 0 .586.24q.238.238.238.584q0 .33-.24.58q-.238.25-.584.25Zm3 12q-.33 0-.58-.25q-.25-.248-.25-.58q0-.349.25-.586t.58-.238q.349 0 .586.24q.238.238.238.584q0 .33-.24.58q-.238.25-.584.25Zm0-8q-.33 0-.58-.25q-.25-.248-.25-.58q0-.349.25-.586t.58-.238q.349 0 .586.24q.238.238.238.584q0 .33-.24.58q-.238.25-.584.25Zm3 4q-.33 0-.58-.25q-.25-.248-.25-.58q0-.349.25-.586t.58-.238q.349 0 .586.24q.238.238.238.584q0 .33-.24.58q-.238.25-.584.25Zm0-8q-.33 0-.58-.25q-.25-.248-.25-.58q0-.349.25-.586t.58-.238q.349 0 .586.24q.238.238.238.584q0 .33-.24.58q-.238.25-.584.25Z"/></svg>