<svg xmlns="http://www.w3.org/2000/svg" width="200" height="200" viewBox="0 0 24 24"><path fill="currentColor" d="M5 18.73q-.31 0-.52-.21T4.27 18q0-.31.21-.52t.52-.21q.31 0 .52.21t.21.52q0 .31-.21.52t-.52.21Zm4.5 0q-.31 0-.52-.21T8.77 18q0-.31.21-.52t.52-.21q.31 0 .52.21t.21.52q0 .31-.21.52t-.52.21Zm4.5 0q-.31 0-.52-.21t-.21-.52q0-.31.21-.52t.52-.21q.31 0 .52.21t.21.52q0 .31-.21.52t-.52.21Zm4.5 0q-.31 0-.52-.21t-.21-.52q0-.31.21-.52t.52-.21q.31 0 .52.21t.21.52q0 .31-.21.52t-.52.21Zm-15.5-4q-.31 0-.52-.21T2.27 14q0-.31.21-.52t.52-.21q.31 0 .52.21t.21.52q0 .31-.21.52t-.52.21Zm4.5 0q-.31 0-.52-.21T6.77 14q0-.31.21-.52t.52-.21q.31 0 .52.21t.21.52q0 .31-.21.52t-.52.21Zm4.5 0q-.31 0-.52-.21t-.21-.52q0-.31.21-.52t.52-.21q.31 0 .52.21t.21.52q0 .31-.21.52t-.52.21Zm4.5 0q-.31 0-.52-.21t-.21-.52q0-.31.21-.52t.52-.21q.31 0 .52.21t.21.52q0 .31-.21.52t-.52.21Zm4.5 0q-.31 0-.52-.21t-.21-.52q0-.31.21-.52t.52-.21q.31 0 .52.21t.21.52q0 .31-.21.52t-.52.21Zm-16-4q-.31 0-.52-.21T4.27 10q0-.31.21-.52T5 9.27q.31 0 .52.21t.21.52q0 .31-.21.52t-.52.21Zm4.5 0q-.31 0-.52-.21T8.77 10q0-.31.21-.52t.52-.21q.31 0 .52.21t.21.52q0 .31-.21.52t-.52.21Zm4.5 0q-.31 0-.52-.21t-.21-.52q0-.31.21-.52t.52-.21q.31 0 .52.21t.21.52q0 .31-.21.52t-.52.21Zm4.5 0q-.31 0-.52-.21t-.21-.52q0-.31.21-.52t.52-.21q.31 0 .52.21t.21.52q0 .31-.21.52t-.52.21ZM3 6.73q-.31 0-.52-.21T2.27 6q0-.31.21-.52T3 5.27q.31 0 .52.21t.21.52q0 .31-.21.52T3 6.73Zm4.5 0q-.31 0-.52-.21T6.77 6q0-.31.21-.52t.52-.21q.31 0 .52.21t.21.52q0 .31-.21.52t-.52.21Zm4.5 0q-.31 0-.52-.21T11.27 6q0-.31.21-.52t.52-.21q.31 0 .52.21t.21.52q0 .31-.21.52t-.52.21Zm4.5 0q-.31 0-.52-.21T15.77 6q0-.31.21-.52t.52-.21q.31 0 .52.21t.21.52q0 .31-.21.52t-.52.21Zm4.5 0q-.31 0-.52-.21T20.27 6q0-.31.21-.52t.52-.21q.31 0 .52.21t.21.52q0 .31-.21.52t-.52.21Z"/></svg>