<svg xmlns="http://www.w3.org/2000/svg" width="200" height="200" viewBox="0 0 24 24"><path fill="currentColor" d="M3.692 4V3h2.712v1H3.692Zm-.48 16.962H11.5V17.5H3.896l-.684 3.462ZM6.01 9.229l-.714-.689L7.21 6.627l.713.688L6.01 9.23ZM4.104 16.5H11.5v-3.52H4.808l-.704 3.52ZM12 7.02q-1.69 0-2.864-1.175q-1.174-1.174-1.174-2.864h8.076q0 1.69-1.174 2.864T12 7.02Zm-.5 4.172V8.481h1v2.711h-1Zm1 9.77h8.27l-.685-3.462H12.5v3.462Zm0-4.462h7.377l-.704-3.52H12.5v3.52Zm5.529-7.252l-1.927-1.933l.688-.688l1.952 1.908l-.713.713ZM17.596 4V3h2.712v1h-2.712Z"/></svg>