<svg xmlns="http://www.w3.org/2000/svg" width="200" height="200" viewBox="0 0 24 24"><path fill="currentColor" d="m3.212 20.962l1.596-7.981h14.365l1.596 7.98H3.212ZM3.692 4V3h2.712v1H3.692Zm.758 15.962h7.05V17.5H4.946l-.496 2.462ZM6.01 9.229l-.714-.689L7.21 6.627l.713.688L6.01 9.23ZM5.154 16.5H11.5v-2.52H5.65l-.496 2.52ZM12 7.02q-1.69 0-2.864-1.175q-1.174-1.174-1.174-2.864h1q0 1.266.886 2.152q.887.886 2.154.886t2.152-.886q.884-.886.884-2.152h1q0 1.69-1.174 2.864T12 7.02Zm0-4.04Zm-.5 8.212V8.481h1v2.711h-1Zm1 8.77h7.03l-.495-2.462H12.5v2.462Zm0-3.462h6.327l-.496-2.52H12.5v2.52Zm5.529-7.252l-1.927-1.933l.688-.688l1.952 1.908l-.713.713ZM17.596 4V3h2.712v1h-2.712Z"/></svg>