<svg xmlns="http://www.w3.org/2000/svg" width="200" height="200" viewBox="0 0 24 24"><path fill="currentColor" d="M5.615 20q-.67 0-1.143-.472Q4 19.056 4 18.385V5.615q0-.67.472-1.143Q4.944 4 5.615 4h12.77q.67 0 1.143.472q.472.472.472 1.143v12.77q0 .67-.472 1.143q-.472.472-1.143.472zM9.5 10.858q.298 0 .606.12t.55.364l2.402 2.402q.192.193.461.193t.443-.212L19 8.05V5.615q0-.269-.173-.442T18.385 5H5.615q-.269 0-.442.173T5 5.615v9.097l3.363-3.37q.243-.242.538-.363t.599-.121m3.906 4.154q-.298 0-.596-.119t-.54-.36l-2.328-2.327q-.192-.193-.452-.193t-.432.193L5 16.288v2.097q0 .269.173.442t.442.173h12.77q.269 0 .442-.173t.173-.442V9.55l-4.388 4.927q-.243.273-.56.404t-.646.13"/></svg>