<svg xmlns="http://www.w3.org/2000/svg" width="200" height="200" viewBox="0 0 24 24"><path fill="currentColor" d="M4 15.712V5.615q0-.67.472-1.143Q4.944 4 5.615 4h12.77q.67 0 1.143.472q.472.472.472 1.143v1.32l-6.038 6.79q-.174.212-.443.212t-.461-.193l-2.402-2.402q-.243-.242-.55-.363t-.606-.121q-.304 0-.599.12t-.538.364zM5.615 20q-.67 0-1.143-.472Q4 19.056 4 18.385v-1.097l5.058-5.082q.173-.193.432-.193q.26 0 .452.193l2.327 2.327q.243.242.55.36t.606.119q.329 0 .637-.131t.55-.404L20 8.435v9.95q0 .67-.472 1.143q-.472.472-1.143.472z"/></svg>