<svg xmlns="http://www.w3.org/2000/svg" width="200" height="200" viewBox="0 0 24 24"><path fill="currentColor" d="M17.99 22.692q-1.363 0-2.47-.728q-1.108-.727-1.695-1.87q-.092-.16-.027-.34q.065-.18.223-.256q.16-.067.332.001q.172.068.264.228q.467.928 1.359 1.504q.892.577 2.017.577q1.592 0 2.703-1.115q1.112-1.116 1.112-2.693t-1.115-2.693Q19.577 14.192 18 14.192q-.917 0-1.754.446q-.836.445-1.446 1.17h1.45q.192 0 .317.125t.125.316t-.125.317q-.125.126-.317.126h-2.135q-.343 0-.575-.232q-.232-.232-.232-.575V13.75q0-.192.125-.317t.316-.125t.317.125q.126.125.126.317v1.406q.714-.823 1.71-1.336q.996-.512 2.098-.512q1.947 0 3.32 1.372q1.372 1.373 1.372 3.32t-1.375 3.32q-1.375 1.372-3.327 1.372ZM5 19V5v14ZM16 8.73q.213 0 .356-.143t.144-.357q0-.213-.144-.356T16 7.731H8q-.213 0-.356.144q-.144.144-.144.356q0 .213.144.357q.143.143.356.143h8Zm-2.106 2.77H8q-.213 0-.356.144q-.144.144-.144.357t.144.356q.144.143.356.143h4.654q.264-.295.575-.546q.311-.252.665-.454Zm-3.088 3.77H8q-.213 0-.356.143t-.144.357q0 .213.144.356q.143.143.356.143h2.512q.05-.275.13-.515t.164-.485ZM5.616 20q-.667 0-1.141-.475Q4 19.051 4 18.385V5.615q0-.666.475-1.14Q4.949 4 5.615 4h12.77q.666 0 1.14.475q.475.474.475 1.14v4.98q-.24-.08-.492-.133q-.252-.054-.508-.085V5.615q0-.23-.192-.423Q18.615 5 18.385 5H5.615q-.23 0-.423.192Q5 5.385 5 5.615v12.77q0 .23.192.423q.193.192.423.192h4.762q.03.256.085.508t.132.492H5.615Z"/></svg>