<svg xmlns="http://www.w3.org/2000/svg" width="200" height="200" viewBox="0 0 24 24"><path fill="currentColor" d="M2.73 19.346V4.326q0-.205.091-.37q.09-.164.252-.294l3.692-2.577q.213-.143.463-.143t.468.143l3.692 2.577q.162.13.252.295q.09.164.09.37v2.827h8.732q.343 0 .575.232q.232.232.232.576v11.384q0 .343-.232.576q-.232.232-.575.232H3.538q-.343 0-.575-.232q-.232-.233-.232-.576Zm1-.192h3v-3h-3v3Zm0-4h3v-3h-3v3Zm0-4h3v-3h-3v3Zm0-4h3v-3h-3v3Zm4 0h3v-3h-3v3Zm0 12h12.54v-11H7.73v11Zm6.885-8H17q.213 0 .356.144q.144.144.144.357q0 .212-.144.356q-.144.143-.356.143h-2.385q-.212 0-.356-.144t-.144-.357q0-.213.144-.356t.356-.143Zm0 4H17q.213 0 .356.144q.144.144.144.357q0 .212-.144.356q-.144.143-.356.143h-2.385q-.212 0-.356-.144t-.144-.357q0-.213.144-.356t.356-.143Zm-2.884-3.5q0 .213-.144.357q-.144.143-.357.143t-.356-.144q-.143-.144-.143-.357t.144-.356q.144-.143.356-.143q.213 0 .356.144q.144.144.144.357Zm-.5 4.5q-.214 0-.357-.144t-.143-.357q0-.213.144-.356t.356-.143q.213 0 .357.144q.143.144.143.357q0 .212-.144.356q-.144.143-.357.143Z"/></svg>