<svg xmlns="http://www.w3.org/2000/svg" width="200" height="200" viewBox="0 0 24 24"><path fill="currentColor" d="M8.885 21q-2.85 0-4.868-1.95Q2 17.1 2 14.27h1q0 2.403 1.721 4.067Q6.442 20 8.885 20zm0-3.27q-1.49 0-2.553-.994t-1.063-2.467h1q0 1.05.773 1.756t1.843.706zm1.23-3.038q-.69 0-1.152-.462T8.5 13.077V5.615q0-.69.463-1.152T10.115 4h3.77q.69 0 1.153.463t.462 1.152v7.462q0 .69-.462 1.153t-1.153.462zm5 3.039v-1q1.07 0 1.843-.706t.773-1.756h1q0 1.471-1.063 2.467t-2.553.995m0 3.269v-1q2.443 0 4.164-1.663T21 14.269h1q0 2.831-2.017 4.781T15.115 21"/></svg>