<svg xmlns="http://www.w3.org/2000/svg" width="200" height="200" viewBox="0 0 24 24"><path fill="currentColor" d="M8.379 21q-2.65-.006-4.512-1.81T2 14.775q0-.21.144-.358t.357-.148t.356.144t.143.356q0 2.21 1.575 3.72T8.385 20q.212 0 .356.144t.144.357t-.148.356t-.358.143m7.242 0q-.21 0-.358-.144t-.148-.357t.144-.356t.356-.143q2.235 0 3.81-1.51T21 14.77q0-.213.144-.357t.357-.144t.356.144t.143.356q-.006 2.612-1.867 4.419Q18.27 20.994 15.62 21m-7.24-3.27q-1.271-.005-2.188-.854q-.916-.85-.922-2.101q0-.21.144-.358t.357-.148t.356.144t.143.356q0 .416.17.777t.46.622t.676.412t.81.15q.212 0 .356.145q.144.144.144.356q0 .213-.148.357t-.358.143m7.242 0q-.21 0-.358-.144t-.148-.357t.144-.356t.356-.143q.423 0 .81-.151t.676-.412t.46-.622t.17-.777q0-.212.144-.356t.356-.144t.357.144t.143.356q-.006 1.258-.92 2.107q-.913.849-2.19.855m-5.506-3.039q-.666 0-1.14-.474q-.475-.475-.475-1.141V5.615q0-.666.475-1.14Q9.449 4 10.115 4h3.77q.666 0 1.14.475q.475.474.475 1.14v7.462q0 .666-.475 1.14q-.474.475-1.14.475zm0-1h3.77q.269 0 .442-.173t.173-.442V5.615q0-.269-.173-.442T13.885 5h-3.77q-.269 0-.442.173t-.173.442v7.462q0 .27.173.442t.442.173m0 0H9.5h5z"/></svg>