<svg xmlns="http://www.w3.org/2000/svg" width="200" height="200" viewBox="0 0 24 24"><path fill="currentColor" d="M7.154 13.77q-.31 0-.54-.222q-.23-.222-.23-.55t.23-.547q.23-.22.54-.22q.31 0 .54.221q.23.222.23.55t-.23.547q-.23.22-.54.22ZM19.7 16.964L18.85 16H20V4H6.85l-1-1H21v13.965h-1.3ZM13.35 10.5l-1-1h5.15v1h-4.15Zm6.92 11.185L15.572 17H6.077L3 20.077V4.415L1.008 2.423l.707-.708l19.262 19.262l-.708.708ZM12.85 10Zm-5.696.77q-.31 0-.54-.222q-.23-.222-.23-.55t.23-.547q.23-.22.54-.22q.31 0 .54.221q.23.222.23.55t-.23.547q-.23.22-.54.22ZM10.35 7.5l-.408-.408V6.5H17.5v1h-7.15Zm-1.058 3.208ZM4 5.415v12.23L5.65 16h8.935L4 5.415Z"/></svg>