<svg xmlns="http://www.w3.org/2000/svg" width="200" height="200" viewBox="0 0 24 24"><path fill="currentColor" d="M7.154 13.77q-.31 0-.54-.22q-.23-.221-.23-.55t.23-.549q.23-.22.54-.22q.31 0 .54.22q.23.22.23.549t-.23.55q-.23.22-.54.22ZM19.7 16.964L18.85 16h.535q.269 0 .442-.173t.173-.442V4.615q0-.269-.173-.442T19.385 4H6.85l-1-1h13.535q.69 0 1.152.463q.463.462.463 1.152v10.77q0 .65-.363 1.041q-.362.391-.937.54ZM13.35 10.5l-1-1H17q.213 0 .357.143q.143.144.143.357t-.143.357q-.144.143-.357.143h-3.65ZM6.077 17l-1.704 1.704q-.379.379-.876.174Q3 18.673 3 18.133V4.415L1.362 2.777q-.14-.14-.15-.344q-.01-.204.15-.364t.353-.16q.195 0 .354.16l18.554 18.554q.14.14.153.341q.012.201-.153.367q-.16.16-.354.16q-.194 0-.354-.16L15.573 17H6.077Zm6.773-7Zm-5.696.77q-.31 0-.54-.22q-.23-.221-.23-.55t.23-.549q.23-.22.54-.22q.31 0 .54.22q.23.22.23.549t-.23.55q-.23.22-.54.22ZM10.35 7.5l-.408-.408V7q0-.213.144-.357q.143-.143.356-.143H17q.213 0 .357.143q.143.144.143.357t-.143.357Q17.213 7.5 17 7.5h-6.65Zm-1.058 3.208ZM4 5.415v12.23L5.65 16h8.935L4 5.415Z"/></svg>