<svg xmlns="http://www.w3.org/2000/svg" width="200" height="200" viewBox="0 0 24 24"><path fill="currentColor" d="M6.104 21L4.115 3h15.77l-1.989 18H6.104ZM5.733 8.5h3.829q.467-.475 1.094-.738T12 7.5q.717 0 1.344.263q.627.262 1.094.737h3.83L18.75 4H5.225l.508 4.5Zm6.267 5q1.037 0 1.768-.732q.732-.731.732-1.768t-.732-1.768Q13.037 8.5 12 8.5t-1.768.732Q9.5 9.963 9.5 11t.732 1.768q.731.732 1.768.732Zm-6.158-4L7 20h10l1.158-10.5h-3.014q.166.327.26.709q.096.381.096.791q0 1.458-1.021 2.479T12 14.5q-1.458 0-2.479-1.021T8.5 11q0-.41.095-.791q.095-.382.26-.709H5.843ZM7 20h1.856H8.5h7h-.356H17H7Z"/></svg>