<svg xmlns="http://www.w3.org/2000/svg" width="200" height="200" viewBox="0 0 24 24"><path fill="currentColor" d="m16.615 12.713l-2.134 3.554q-.068.11-.17.171t-.225.062q-.273 0-.41-.236t.003-.468l2.398-3.988l-2.148-3.585q-.16-.252-.003-.487t.43-.236q.122 0 .224.062t.17.17l1.885 3.15l1.884-3.15q.068-.109.17-.17t.225-.062q.273 0 .41.236t-.003.468l-2.148 3.565l2.398 4.008q.16.252.003.487t-.43.236q-.122 0-.224-.062q-.102-.061-.17-.17zM9.885 16.5H7q-.213 0-.356-.144Q6.5 16.212 6.5 16t.144-.356T7 15.5h2.885q.269 0 .442-.173t.173-.442v-1.77q0-.269-.173-.442t-.442-.173H7q-.213 0-.356-.144T6.5 12V8q0-.213.144-.356T7 7.5h4q.213 0 .356.144q.144.144.144.357t-.144.356T11 8.5H7.5v3h2.385q.69 0 1.153.463t.462 1.152v1.77q0 .69-.462 1.153t-1.153.462m-5.386 0q-.212 0-.356-.144Q4 16.212 4 16t.144-.356t.357-.143t.356.144T5 16t-.144.356t-.357.143"/></svg>