<svg xmlns="http://www.w3.org/2000/svg" width="200" height="200" viewBox="0 0 24 24"><path fill="currentColor" d="M6.615 16.5v-1h1v1zM9 16.5v-3.385q0-.69.463-1.152t1.152-.463h1.75q.27 0 .443-.173t.173-.442v-1.77q0-.269-.173-.442t-.443-.173H9v-1h3.365q.69 0 1.153.463t.463 1.152v1.77q0 .69-.463 1.153t-1.153.462h-1.75q-.269 0-.442.173t-.173.442V15.5h3.98v1zm-4.77 0v-8H2.424v-1h2.808v9zm11.116 0l2.808-4.692L15.577 7.5h1.115l2.02 3.383L20.73 7.5h1.077l-2.558 4.27l2.827 4.73h-1.115l-2.27-3.787l-2.269 3.787z"/></svg>