<svg xmlns="http://www.w3.org/2000/svg" width="200" height="200" viewBox="0 0 24 24"><path fill="currentColor" d="M4.73 16.5q-.213 0-.356-.144T4.231 16V8.5H2.923q-.212 0-.356-.144t-.144-.357t.144-.356t.356-.143h1.808q.212 0 .356.144T5.231 8v8q0 .213-.144.356t-.357.144m13.462-3.787l-2.134 3.554q-.068.11-.17.171t-.225.062q-.273 0-.41-.236t.003-.468l2.398-3.988l-2.148-3.585q-.16-.252-.003-.487t.429-.236q.123 0 .225.062t.17.17l1.885 3.15l1.884-3.15q.068-.109.17-.17t.225-.062q.272 0 .41.236t-.003.468l-2.148 3.565l2.398 4.008q.16.252.003.487t-.43.236q-.122 0-.224-.062q-.102-.061-.17-.17zm-7.33 3.787q-.24 0-.397-.192t-.088-.431L12.212 8.5H8.75q-.213 0-.356-.144q-.144-.144-.144-.357t.144-.356t.356-.143h3.558q.379 0 .66.268t.282.647q0 .25-.07.431l-1.832 7.275q-.056.171-.182.275q-.127.104-.304.104m-3.747 0q-.213 0-.356-.144q-.144-.144-.144-.357t.144-.356t.357-.143t.356.144t.143.357t-.144.356t-.356.143"/></svg>