<svg xmlns="http://www.w3.org/2000/svg" width="200" height="200" viewBox="0 0 24 24"><path fill="currentColor" d="M14.5 16.5q-.213 0-.357-.143T14 16t.143-.357t.357-.143h2.885q.269 0 .442-.173t.173-.442v-1.77q0-.269-.173-.442t-.442-.173h-2.577q-.348 0-.578-.23t-.23-.578V8.308q0-.348.23-.578t.578-.23H18.5q.213 0 .357.143T19 8t-.143.357q-.144.143-.357.143H15v3h2.385q.69 0 1.152.463T19 13.115v1.77q0 .69-.462 1.153t-1.153.462zm-2.5 0H8.308q-.348 0-.578-.23t-.23-.578v-2.577q0-.69.463-1.152t1.152-.463h1.77q.269 0 .442-.173t.173-.442v-1.77q0-.269-.173-.442t-.442-.173H8q-.213 0-.357-.143T7.5 8t.143-.357Q7.787 7.5 8 7.5h2.885q.69 0 1.153.463t.462 1.152v1.77q0 .69-.462 1.153t-1.153.462h-1.77q-.269 0-.442.173t-.173.442V15.5H12q.213 0 .357.143T12.5 16t-.143.357q-.144.143-.357.143m-6.5 0q-.213 0-.357-.143T5 16t.143-.357q.144-.143.357-.143t.357.143Q6 15.787 6 16t-.143.357t-.357.143"/></svg>