<svg xmlns="http://www.w3.org/2000/svg" width="200" height="200" viewBox="0 0 24 24"><path fill="currentColor" d="M11 16.5H7q-.213 0-.356-.144T6.5 16v-2.885q0-.69.463-1.152t1.152-.463h1.77q.269 0 .442-.173t.173-.442v-1.77q0-.269-.173-.442T9.885 8.5H7q-.213 0-.356-.144q-.144-.144-.144-.357t.144-.356T7 7.5h2.885q.69 0 1.153.463t.462 1.152v1.77q0 .69-.462 1.153t-1.153.462h-1.77q-.269 0-.442.173t-.173.442V15.5H11q.213 0 .356.144q.144.144.144.357t-.144.356T11 16.5m5.615-3.787l-2.134 3.554q-.068.11-.17.171t-.225.062q-.273 0-.41-.236t.003-.468l2.398-3.988l-2.148-3.585q-.16-.252-.003-.487t.43-.236q.122 0 .224.062t.17.17l1.885 3.15l1.884-3.15q.068-.109.17-.17t.225-.062q.273 0 .41.236t-.003.468l-2.148 3.565l2.398 4.008q.16.252.003.487t-.43.236q-.122 0-.224-.062q-.102-.061-.17-.17zM4.5 16.5q-.212 0-.356-.144T4 16t.144-.356t.357-.143t.356.144T5 16t-.144.356t-.357.143"/></svg>