<svg xmlns="http://www.w3.org/2000/svg" width="200" height="200" viewBox="0 0 24 24"><path fill="currentColor" d="M13.48 16.5H9.5q-.213 0-.356-.144T9 16v-2.885q0-.69.463-1.152t1.152-.463h1.75q.27 0 .443-.173t.173-.442v-1.77q0-.269-.173-.442t-.443-.173H9.5q-.213 0-.356-.144Q9 8.212 9 7.999t.144-.356T9.5 7.5h2.865q.69 0 1.153.463t.463 1.152v1.77q0 .69-.463 1.153t-1.153.462h-1.75q-.269 0-.442.173t-.173.442V15.5h3.48q.213 0 .357.144t.144.357t-.144.356t-.356.143m-9.25-8H2.923q-.212 0-.356-.144t-.144-.357t.144-.356t.356-.143h1.808q.212 0 .356.144T5.231 8v8q0 .213-.144.356t-.357.144t-.356-.144T4.231 16zm14.461 4.213l-2.134 3.554q-.068.11-.17.171t-.225.062q-.273 0-.41-.236t.003-.468l2.398-3.988l-2.148-3.585q-.16-.252-.003-.487t.429-.236q.123 0 .225.062t.17.17l1.885 3.15l1.884-3.15q.068-.109.17-.17t.225-.062q.272 0 .41.236t-.003.468l-2.148 3.565l2.398 4.008q.16.252.003.487t-.43.236q-.122 0-.224-.062q-.102-.061-.17-.17zM7.115 16.5q-.213 0-.356-.144q-.144-.144-.144-.357t.144-.356t.357-.143t.356.144t.143.357t-.144.356t-.356.143"/></svg>