<svg xmlns="http://www.w3.org/2000/svg" width="200" height="200" viewBox="0 0 24 24"><path fill="currentColor" d="M11.5 16.5v-1h1v1zm2.5 0v-1h3.385q.269 0 .442-.173t.173-.442v-1.77q0-.269-.173-.442t-.442-.173H14v-5h5v1h-4v3h2.385q.69 0 1.152.463q.463.462.463 1.152v1.77q0 .69-.462 1.153q-.463.462-1.153.462zm-7.385 0h1.77q.69 0 1.152-.462q.463-.463.463-1.153v-5.77q0-.69-.463-1.152Q9.076 7.5 8.386 7.5h-1.77q-.69 0-1.152.463Q5 8.425 5 9.115v5.77q0 .69.463 1.153q.462.462 1.152.462m0-8h1.77q.269 0 .442.173T9 9.115v5.77q0 .269-.173.442t-.442.173h-1.77q-.269 0-.442-.173T6 14.885v-5.77q0-.269.173-.442t.442-.173"/></svg>