<svg xmlns="http://www.w3.org/2000/svg" width="200" height="200" viewBox="0 0 24 24"><path fill="currentColor" d="M14.5 16.5q-.213 0-.357-.143Q14 16.213 14 16t.143-.357q.144-.143.357-.143h2.885q.269 0 .442-.173t.173-.442v-1.77q0-.269-.173-.442t-.442-.173h-1.77q-.67 0-1.143-.472Q14 11.556 14 10.885v-1.77q0-.67.472-1.143q.472-.472 1.143-.472H18.5q.213 0 .357.143Q19 7.787 19 8t-.143.357q-.144.143-.357.143h-2.885q-.269 0-.442.173T15 9.115v1.77q0 .269.173.442t.442.173h1.77q.69 0 1.152.463q.463.462.463 1.152v1.77q0 .69-.462 1.153q-.463.462-1.153.462zm-7.885 0q-.69 0-1.152-.462Q5 15.575 5 14.885v-5.77q0-.69.463-1.152q.462-.463 1.152-.463h1.77q.69 0 1.152.463q.463.462.463 1.152v5.77q0 .69-.463 1.153q-.462.462-1.152.462zm0-1h1.77q.269 0 .442-.173T9 14.885v-5.77q0-.269-.173-.442T8.385 8.5h-1.77q-.269 0-.442.173T6 9.115v5.77q0 .269.173.442t.442.173m5.385 1q-.213 0-.357-.143q-.143-.144-.143-.357t.143-.357q.144-.143.357-.143t.357.143q.143.144.143.357t-.143.357q-.144.143-.357.143"/></svg>