<svg xmlns="http://www.w3.org/2000/svg" width="200" height="200" viewBox="0 0 24 24"><path fill="currentColor" d="m16.615 12.713l-2.134 3.554q-.068.11-.17.171t-.225.062q-.273 0-.41-.236t.003-.468l2.398-3.988l-2.148-3.585q-.16-.252-.003-.487t.43-.236q.122 0 .224.062t.17.17l1.885 3.15l1.884-3.15q.068-.109.17-.17t.225-.062q.273 0 .41.236t-.003.468l-2.148 3.565l2.398 4.008q.16.252.003.487t-.43.236q-.122 0-.224-.062q-.102-.061-.17-.17zM8.92 16.5q-.24 0-.396-.192t-.088-.431L10.269 8.5H6.808q-.213 0-.357-.144q-.143-.144-.143-.357t.143-.356t.357-.143h3.557q.38 0 .661.268t.282.647q0 .25-.07.431l-1.832 7.275q-.056.171-.183.275t-.304.104m-3.42 0q-.212 0-.356-.144Q5 16.212 5 16t.144-.356t.357-.143t.356.144T6 16t-.144.356t-.357.143"/></svg>