<svg xmlns="http://www.w3.org/2000/svg" width="200" height="200" viewBox="0 0 24 24"><path fill="currentColor" d="M7.038 16.5v-1h1v1zm9.462 0v-1h3.385q.269 0 .442-.173t.173-.442v-1.77q0-.269-.173-.442t-.442-.173H16.5v-5h5v1h-4v3h2.385q.69 0 1.152.463t.463 1.152v1.77q0 .69-.462 1.153t-1.153.462zm-6.73 0v-3.385q0-.69.462-1.152t1.153-.463h1.769q.27 0 .442-.173t.173-.442v-1.77q0-.269-.173-.442t-.442-.173H9.769v-1h3.385q.69 0 1.153.463t.462 1.152v1.77q0 .69-.462 1.153t-1.153.462h-1.77q-.269 0-.442.173t-.173.442V15.5h4v1zm-5.462 0v-8H2.5v-1h2.808v9z"/></svg>