<svg xmlns="http://www.w3.org/2000/svg" width="200" height="200" viewBox="0 0 24 24"><path fill="currentColor" d="M14.5 16.5q-.213 0-.356-.144Q14 16.212 14 16t.144-.356t.356-.143h2.885q.269 0 .442-.173t.173-.442v-1.77q0-.269-.173-.442t-.442-.173h-2.577q-.344 0-.576-.23T14 11.683V8.317q0-.357.232-.587t.576-.23H18.5q.213 0 .356.144Q19 7.788 19 8t-.144.356t-.356.143H15v3h2.385q.69 0 1.152.463T19 13.115v1.77q0 .69-.462 1.153t-1.153.462zm-3.23-8H7.807q-.213 0-.357-.144q-.143-.144-.143-.357t.143-.356t.357-.143h3.557q.38 0 .661.268t.282.647q0 .25-.07.431l-1.832 7.275q-.056.171-.182.275t-.3.104q-.255 0-.415-.192q-.16-.193-.094-.431zm-4.77 8q-.213 0-.357-.144Q6 16.212 6 16t.144-.356t.357-.143t.356.144T7 16t-.144.356t-.357.143"/></svg>