<svg xmlns="http://www.w3.org/2000/svg" width="200" height="200" viewBox="0 0 24 24"><path fill="currentColor" d="M6.615 10h10.77q.269 0 .442-.173T18 9.385v-4.77q0-.269-.173-.442T17.385 4H6.615q-.269 0-.442.173T6 4.615v4.77q0 .269.173.442t.442.173Zm0 1q-.69 0-1.152-.462Q5 10.075 5 9.385v-4.77q0-.69.463-1.152Q5.925 3 6.615 3h10.77q.69 0 1.152.463q.463.462.463 1.152v4.77q0 .69-.462 1.153q-.463.462-1.153.462H6.615Zm0 9h10.77q.269 0 .442-.173t.173-.442v-4.77q0-.269-.173-.442T17.385 14H6.615q-.269 0-.442.173T6 14.615v4.77q0 .269.173.442t.442.173Zm0 1q-.69 0-1.152-.462Q5 20.075 5 19.385v-4.77q0-.69.463-1.152Q5.925 13 6.615 13h10.77q.69 0 1.152.463q.463.462.463 1.152v4.77q0 .69-.462 1.152q-.463.463-1.153.463H6.615ZM6 10V4v6Zm0 10v-6v6Z"/></svg>