<svg xmlns="http://www.w3.org/2000/svg" width="200" height="200" viewBox="0 0 24 24"><path fill="currentColor" d="M11.5 16.854L2.452 7.806l3.354-3.354l9.048 9.048l-3.354 3.354Zm0-1.416l1.938-1.938L5.8 5.862L3.862 7.8l7.638 7.638Zm7.1 5.87l-4.327-4.327l.708-.708l4.327 4.327l-.708.708Zm-.097-13.039q-1.145 0-1.959-.81q-.813-.81-.813-1.955q0-1.146.81-1.96q.81-.813 1.956-.813q1.145 0 1.959.81q.813.81.813 1.956q0 1.145-.81 1.959q-.81.813-1.955.813Zm0-1q.737 0 1.252-.516q.514-.517.514-1.255q0-.738-.516-1.253q-.517-.514-1.255-.514q-.738 0-1.253.516q-.514.517-.514 1.255q0 .738.516 1.253q.517.514 1.255.514ZM18.5 5.5Zm-9.85 5.15Z"/></svg>