<svg xmlns="http://www.w3.org/2000/svg" width="200" height="200" viewBox="0 0 24 24"><path fill="currentColor" d="M2.76 18L4.479 6H19.52l1.72 12h-2.418l-3-3H8.177l-3 3H2.76ZM17 12.808q.329 0 .568-.24q.24-.24.24-.568q0-.329-.24-.568q-.24-.24-.568-.24q-.329 0-.568.24q-.24.24-.24.568q0 .329.24.568q.24.24.568.24Zm-2-3q.329 0 .568-.24q.24-.24.24-.568q0-.329-.24-.568q-.24-.24-.568-.24q-.329 0-.568.24q-.24.24-.24.568q0 .329.24.568q.24.24.568.24Zm-6.942 2.884h.884v-1.75h1.75v-.884h-1.75v-1.75h-.884v1.75h-1.75v.884h1.75v1.75Z"/></svg>