<svg xmlns="http://www.w3.org/2000/svg" width="200" height="200" viewBox="0 0 24 24"><path fill="currentColor" d="M8.808 6.077h1.846V4.23H8.808v1.846Zm3.692 0V4.23h1.846v1.846H12.5Zm-3.692 7.385v-1.847h1.846v1.847H8.808Zm7.384-3.693V7.923h1.846V9.77h-1.846Zm0 3.693v-1.847h1.846v1.847h-1.846Zm-3.692 0v-1.847h1.846v1.847H12.5Zm3.692-7.385V4.23h1.846v1.846h-1.846Zm-5.538 1.846V6.077H12.5v1.846h-1.846ZM5.962 19.462V4.23h1v1.846h1.846v1.846H6.962V9.77h1.846v1.846H6.962v7.847h-1Zm8.384-7.847V9.77h1.846v1.846h-1.846Zm-3.692 0V9.77H12.5v1.846h-1.846ZM8.808 9.77V7.923h1.846V9.77H8.808Zm3.692 0V7.923h1.846V9.77H12.5Zm1.846-1.846V6.077h1.846v1.846h-1.846Z"/></svg>