<svg xmlns="http://www.w3.org/2000/svg" width="200" height="200" viewBox="0 0 24 24"><path fill="currentColor" d="M4.512 18q-.756 0-1.177-.551q-.422-.55-.323-1.23L4.1 8.604q.167-1.135.991-1.87Q5.915 6 7.05 6h9.9q1.135 0 1.959.735q.824.734.991 1.869l1.088 7.615q.099.68-.323 1.23q-.42.551-1.177.551q-.332 0-.6-.101q-.267-.1-.507-.341L15.823 15H8.177l-2.558 2.558q-.24.24-.507.341q-.268.101-.6.101Zm.4-1.15L7.762 14h8.476l2.85 2.85q.05.05.362.15q.275 0 .438-.163T20 16.4l-1.1-7.7q-.1-.725-.66-1.212Q17.68 7 16.95 7h-9.9q-.73 0-1.29.488q-.56.487-.66 1.212L4 16.4q-.05.275.113.438T4.55 17q.088 0 .362-.15ZM17 12.808q.329 0 .568-.24q.24-.24.24-.568q0-.329-.24-.568q-.24-.24-.568-.24q-.329 0-.568.24q-.24.24-.24.568q0 .329.24.568q.24.24.568.24Zm-2-3q.329 0 .568-.24q.24-.24.24-.568q0-.329-.24-.568q-.24-.24-.568-.24q-.329 0-.568.24q-.24.24-.24.568q0 .329.24.568q.24.24.568.24Zm-8.692 1.134h.875q.35 0 .612.272t.263.738q0 .292.224.516q.224.224.516.224h.144v-.875q0-.35.272-.612t.738-.263q.292 0 .516-.224q.224-.224.224-.516v-.144h-.875q-.35 0-.612-.272t-.263-.738q0-.292-.224-.516q-.224-.224-.516-.224h-.144v.875q0 .35-.272.612t-.738.263q-.292 0-.516.224q-.224.224-.224.516v.144ZM12 12Z"/></svg>