<svg xmlns="http://www.w3.org/2000/svg" width="200" height="200" viewBox="0 0 24 24"><path fill="currentColor" d="M9 19.615q-.425 0-.713-.287T8 18.615v-2.23h8.077v2.23q0 .425-.288.713t-.712.287H9Zm8.77-12.23v3.577q0 .075-.05.2l-.635 3.069q-.075.334-.332.552q-.257.217-.6.217H7.809q-.343 0-.6-.217q-.256-.218-.331-.552L6.28 11.2q-.05-.125-.05-.2V5.462q0-.69.462-1.153q.463-.463 1.16-.463h6.756q.697 0 1.16.463q.462.462.462 1.153v1.923q0-.327.221-.548q.222-.222.55-.222q.327 0 .547.222q.22.22.22.548ZM7.88 14h8.24l.65-3.323v-.908h-1.54V5.462q0-.231-.192-.424q-.192-.192-.423-.192H7.846q-.23 0-.423.192q-.192.193-.192.424v5.253L7.88 14ZM12 9.423Zm-2.115.346h2.692q.356 0 .62-.255t.265-.62q0-.365-.265-.63Q12.933 8 12.577 8H9.885q-.356 0-.62.255T9 8.875q0 .365.264.63t.62.264Z"/></svg>