<svg xmlns="http://www.w3.org/2000/svg" width="200" height="200" viewBox="0 0 24 24"><path fill="currentColor" d="M6.615 16.77q-.69 0-1.153-.463Q5 15.844 5 15.154v-9.77q0-.69.463-1.152t1.152-.463h13.77q.69 0 1.152.463q.463.462.463 1.153v9.769q0 .69-.463 1.153q-.462.462-1.152.462H6.615Zm6.885-5.24L6 5.945v9.21q0 .27.173.442t.442.173h13.77q.269 0 .442-.173t.173-.442v-9.21l-7.5 5.587Zm0-1.218l7.308-5.427q-.058-.058-.125-.087q-.068-.029-.183-.029h-14q-.096 0-.192.048t-.154.106l7.346 5.389Zm-9.885 9.457q-.69 0-1.153-.462Q2 18.844 2 18.154v-9.5h1v9.5q0 .27.173.442t.442.173h14.77v1H3.615ZM21 5.927q0-.277-.067-.55q-.068-.273-.125-.492q-.058-.058-.125-.087q-.068-.029-.183-.029h-14q-.096 0-.192.048t-.154.106q-.058.22-.106.483Q6 5.669 6 5.926V4.77h15v1.158Z"/></svg>