<svg xmlns="http://www.w3.org/2000/svg" width="200" height="200" viewBox="0 0 24 24"><path fill="currentColor" d="m21 18.188l-1-1v-6.573q0-.25-.183-.432q-.182-.183-.432-.183h-6.573l-1-1h7.573q.666 0 1.14.475q.475.474.475 1.14v7.573ZM14 6.615v-2q0-.25-.183-.432Q13.635 4 13.385 4H6.812l-1-1h7.573q.666 0 1.14.475q.475.474.475 1.14v2h-1Zm2.406 6.98ZM10.616 20h7.957L10 11.427v7.958q0 .269.173.442t.442.173Zm9.67 1.713L19.574 21h-8.958q-.686 0-1.15-.464Q9 20.07 9 19.385v-8.958l-4.385-5V14h2v1h-2q-.696 0-1.155-.464Q3 14.07 3 13.385V4.427l-.713-.714L3 3l18 18l-.713.713Zm-6-6Z"/></svg>