<svg xmlns="http://www.w3.org/2000/svg" width="200" height="200" viewBox="0 0 24 24"><path fill="currentColor" d="m12 13.113l-4.246 4.24q-.14.141-.341.154t-.367-.153q-.16-.16-.16-.354t.16-.354l4.221-4.221q.306-.306.733-.306t.733.306l4.22 4.221q.141.14.154.342t-.153.366q-.16.16-.354.16t-.354-.16L12 13.114Zm0-6l-4.246 4.24q-.14.141-.341.154t-.367-.153q-.16-.16-.16-.354t.16-.354l4.221-4.221q.306-.306.733-.306t.733.306l4.22 4.221q.141.14.154.342t-.153.366q-.16.16-.354.16t-.354-.16L12 7.114Z"/></svg>