<svg xmlns="http://www.w3.org/2000/svg" width="200" height="200" viewBox="0 0 24 24"><path fill="currentColor" d="m12 16.108l-4.246 4.24q-.14.14-.341.153t-.367-.153q-.16-.16-.16-.354q0-.194.16-.354l4.221-4.22q.306-.307.733-.307t.733.306l4.22 4.221q.141.14.154.342q.012.2-.153.366q-.16.16-.354.16t-.354-.16L12 16.108Zm0-6l-4.246 4.24q-.14.14-.341.153t-.367-.153q-.16-.16-.16-.354q0-.194.16-.354l4.221-4.22q.306-.307.733-.307t.733.306l4.22 4.221q.141.14.154.342q.012.2-.153.366q-.16.16-.354.16t-.354-.16L12 10.108Zm0-6l-4.246 4.24q-.14.14-.341.153t-.367-.153q-.16-.16-.16-.354q0-.194.16-.354l4.221-4.22q.306-.307.733-.307t.733.306l4.575 4.575l-.708.708L12 4.108Z"/></svg>