<svg xmlns="http://www.w3.org/2000/svg" width="200" height="200" viewBox="0 0 24 24"><path fill="currentColor" d="M3.615 18q-.69 0-1.152-.462Q2 17.075 2 16.385v-8.77q0-.69.463-1.152Q2.925 6 3.615 6h16.77q.69 0 1.152.463q.463.462.463 1.152v8.77q0 .69-.462 1.152q-.463.463-1.153.463H3.615Zm.885-1V7h-.885q-.23 0-.423.192Q3 7.385 3 7.615v8.77q0 .23.192.423q.193.192.423.192H4.5Zm1 0h13V7h-13v10Zm14 0h.885q.23 0 .423-.192q.192-.193.192-.423v-8.77q0-.23-.192-.423Q20.615 7 20.385 7H19.5v10ZM4.5 7H3h1.5Zm15 0H21h-1.5Z"/></svg>