<svg xmlns="http://www.w3.org/2000/svg" width="200" height="200" viewBox="0 0 24 24"><path fill="currentColor" d="m14.021 11.171l-1.556-1.556h.804V8.308l1.808 1.807l-1.056 1.056Zm6.102 6.102l-.85-.85h.265q.212-.058.337-.23t.125-.347v-9.77q0-.268-.173-.441t-.442-.173H8.312l-1-1h12.073q.69 0 1.152.462q.463.463.463 1.153v9.77q0 .418-.209.81q-.208.391-.668.616Zm1.07 5.335l-3.147-3.146H1.77v-1h15.27l-1-1H4.615q-.69 0-1.153-.463Q3 16.537 3 15.846V6.042q0-.327.173-.586q.173-.26.442-.414L1.392 2.808L2.1 2.1l19.8 19.8l-.708.708ZM10.076 11.504q-.154.173-.23.356t-.078.452v1.803h-1v-2q0-.467.15-.832q.15-.366.352-.59L4.48 5.902q-.231.096-.356.24Q4 6.287 4 6.498v9.348q0 .27.173.442t.442.174h10.42l-4.958-4.958Zm3.715-.562Zm-4.025.227Z"/></svg>