<svg xmlns="http://www.w3.org/2000/svg" width="200" height="200" viewBox="0 0 24 24"><path fill="currentColor" d="M17.23 11q-1.755 0-2.992-1.237T13 6.769q0-1.756 1.238-2.993t2.993-1.238q1.756 0 2.993 1.238t1.238 2.993q0 1.756-1.238 2.994T17.231 11ZM5.063 18.938q-.24-.237-.382-.538q-.142-.302-.142-.63V5.922q0-.698.5-1.195t1.2-.497h5.693q-.312.569-.468 1.211q-.155.643-.155 1.32q0 1.251.473 2.322q.473 1.07 1.269 1.866l-7.988 7.988Zm7.092.524v-4.593q0-.88.55-1.58q.552-.702 1.404-.908q.76-.162 1.54-.243q.78-.08 1.583-.08q.678 0 1.303.043q.626.043 1.235.168v5.5q0 .698-.497 1.195q-.497.498-1.195.498h-5.923Z"/></svg>