<svg xmlns="http://www.w3.org/2000/svg" width="200" height="200" viewBox="0 0 24 24"><path fill="currentColor" d="M14.73 20.346q-.586 0-1.004-.418q-.418-.418-.418-1.005t.418-1.005q.418-.418 1.005-.418t1.005.418q.418.418.418 1.005t-.418 1.005q-.418.418-1.005.418Zm-7.768 0q-.575 0-1-.418q-.424-.418-.424-1.005t.425-1.005q.424-.418.999-.418q.613 0 1.018.418t.405 1.005q0 .587-.405 1.005q-.405.418-1.018.418Zm1.58-4.846h5.612V8.925L8.542 15.5Zm-2.19 1l9.386-10.998q.443-.517.94-.76q.497-.242 1.107-.242q.88 0 1.48.6t.6 1.488V7h-1v-.42q0-.46-.31-.77t-.77-.31q-.381 0-.675.148t-.547.425l-1.41 1.644V16.5h-8.8Zm3.883-6.842L6.34 5.763q.95-.638 1.987-.95Q9.363 4.5 10.519 4.5q.894 0 1.742.179q.847.179 1.75.556l-3.776 4.423Zm-.068-1.47l2.087-2.446q-.43-.12-.867-.181t-.868-.061q-.654 0-1.28.123t-1.235.383l2.163 2.182Zm0 0Zm1.19 4.022Z"/></svg>