<svg xmlns="http://www.w3.org/2000/svg" width="200" height="200" viewBox="0 0 24 24"><path fill="currentColor" d="M14.73 20.346q-.586 0-1.004-.418q-.418-.418-.418-1.005t.418-1.005q.418-.418 1.005-.418t1.005.418q.418.418.418 1.005t-.418 1.005q-.418.418-1.005.418Zm-7.768 0q-.575 0-1-.418q-.424-.418-.424-1.005t.425-1.005q.424-.418.999-.418q.613 0 1.018.418t.405 1.005q0 .587-.405 1.005q-.405.418-1.018.418Zm1.58-4.846h4.996q.27 0 .443-.173t.173-.442v-5.96L8.542 15.5Zm-1.117 1q-.32 0-.45-.287q-.129-.286.085-.536l8.678-10.175q.443-.517.94-.76q.497-.242 1.107-.242q.88 0 1.48.6t.6 1.49v.016q0 .212-.144.356t-.356.144q-.213 0-.356-.144q-.144-.144-.144-.356v-.02q0-.463-.31-.774t-.77-.312q-.381 0-.675.148t-.547.425l-1.41 1.644v7.162q0 .677-.473 1.149q-.475.472-1.14.472H7.424Zm2.81-6.842L6.967 6.39q-.248-.248-.197-.574q.05-.326.353-.499q.789-.396 1.626-.606q.838-.211 1.77-.211q.894 0 1.742.179q.847.179 1.75.556l-3.776 4.423Zm1.123 2.552Zm-1.19-4.022l2.086-2.446q-.43-.12-.867-.181t-.868-.061q-.654 0-1.28.123t-1.235.383l2.163 2.182Zm0 0Z"/></svg>