<svg xmlns="http://www.w3.org/2000/svg" width="200" height="200" viewBox="0 0 24 24"><path fill="currentColor" d="M7.078 11.846q.212 0 .356-.144q.143-.144.143-.357q0-.212-.144-.356q-.144-.143-.357-.143t-.356.144q-.143.144-.143.357t.144.356q.144.143.357.143ZM7.658 5h11.727q.69 0 1.152.463q.463.462.463 1.152v10.747q0 .211-.042.403q-.043.193-.17.366l-6.284-6.285h2.42q.212 0 .355-.144q.144-.144.144-.357q0-.212-.144-.356q-.143-.143-.356-.143h-3.42L7.659 5ZM4.615 19q-.69 0-1.152-.462Q3 18.075 3 17.385V6.615q0-.69.463-1.152Q3.925 5 4.615 5h.193l6.769 6.77h-1.415L2.735 4.341q-.14-.14-.15-.344q-.01-.204.15-.363q.16-.16.353-.16t.354.16l16.27 16.269q.14.14.152.341q.013.201-.157.37q-.155.156-.35.156T19 20.605L17.38 19H4.615Zm8.189-4.577H7.077q-.213 0-.356.144t-.144.357q0 .213.144.356q.143.143.356.143h6.727l-1-1Z"/></svg>