<svg xmlns="http://www.w3.org/2000/svg" width="200" height="200" viewBox="0 0 24 24"><path fill="currentColor" d="M4.615 19q-.69 0-1.152-.462Q3 18.075 3 17.385V6.615q0-.69.463-1.152Q3.925 5 4.615 5h.193l1 1H4.615q-.23 0-.423.192Q4 6.385 4 6.615v10.77q0 .269.173.442t.442.173h11.766l-2.577-2.577H7.077q-.213 0-.356-.144q-.144-.144-.144-.357q0-.212.144-.356q.143-.143.356-.143h5.727L2.734 4.343q-.14-.141-.152-.342q-.013-.201.157-.37q.155-.156.35-.156t.353.16l16.27 16.269q.14.14.152.341q.013.201-.157.37q-.155.156-.35.156T19 20.605L17.38 19H4.615Zm16.173-.87L20 17.343V6.615q0-.269-.173-.442T19.385 6H8.658l-1-1h11.727q.69 0 1.152.463q.463.462.463 1.152v10.747q0 .211-.042.403q-.043.193-.17.366Zm-6.284-6.284l-1-1h3.42q.212 0 .355.144t.144.357q0 .213-.144.356q-.143.143-.356.143h-2.42Zm-.175-.175Zm-3.85.427Zm-3.403-.252q-.213 0-.356-.144t-.143-.357q0-.212.144-.356q.144-.143.357-.143q.212 0 .356.144q.143.144.143.357t-.144.356q-.144.143-.357.143Z"/></svg>