<svg xmlns="http://www.w3.org/2000/svg" width="200" height="200" viewBox="0 0 24 24"><path fill="currentColor" d="M2.23 13.25v-1h3v1h-3Zm4.62-4.942L4.712 6.175l.713-.708L7.538 7.6l-.688.708Zm-.853 9.884q-.349 0-.586-.24q-.238-.241-.238-.59t.24-.586q.242-.238.59-.238q.349 0 .586.241q.238.241.238.59q0 .348-.24.586q-.242.237-.59.237ZM8 13.25v-.5q0-1.671 1.164-2.836T12 8.75q1.671 0 2.836 1.164T16 12.75v.5h-1v-.5q0-1.25-.875-2.125T12 9.75q-1.25 0-2.125.875T9 12.75v.5H8Zm.997 8.942q-.349 0-.586-.24t-.238-.59q0-.349.24-.586q.242-.238.59-.238q.349 0 .586.241q.238.241.238.59q0 .348-.24.586t-.59.237Zm3-4q-.349 0-.586-.24q-.238-.241-.238-.59t.24-.586q.242-.238.59-.238q.349 0 .586.241q.238.241.238.59q0 .348-.24.586q-.242.237-.59.237ZM11.5 5.981v-3h1v3h-1Zm3.497 16.211q-.349 0-.586-.24t-.238-.59q0-.349.24-.586q.242-.238.59-.238q.349 0 .586.241q.238.241.238.59q0 .348-.24.586t-.59.237ZM17.15 8.308l-.713-.708l2.138-2.133l.688.708l-2.113 2.133Zm.847 9.884q-.349 0-.586-.24q-.238-.241-.238-.59t.24-.586q.242-.238.59-.238q.349 0 .586.241q.238.241.238.59q0 .348-.24.586q-.242.237-.59.237Zm.772-4.942v-1h3v1h-3Zm-6.769 0Z"/></svg>