<svg xmlns="http://www.w3.org/2000/svg" width="200" height="200" viewBox="0 0 24 24"><path fill="currentColor" d="m11.65 14.58l-2.327-2.326l7.03-7.03q.24-.243.567-.243q.328 0 .57.242l1.19 1.19q.243.239.243.567q0 .328-.242.57l-7.031 7.03Zm0-1.426l6.2-6.175l-.925-.925l-6.175 6.2l.9.9Zm1.196 6.058l1-1h8.289v1h-9.289Zm-7.136.019q-.698 0-1.342-.2q-.645-.2-1.214-.596l5.106-5.1l1.888 1.888q.224.212.353.486q.128.273.128.576q0 .303-.123.585q-.123.28-.339.493l-.475.495q-.665.684-1.555 1.029q-.889.344-1.827.344h-.6Zm0-1h.6q.75 0 1.45-.288t1.225-.812l.475-.475q.15-.15.14-.36q-.01-.21-.179-.379L8.26 14.756l-3.362 3.336q.142.07.374.104q.232.035.438.035ZM17.85 6.979l-.925-.925l.925.925Zm-9.59 7.777Z"/></svg>