<svg xmlns="http://www.w3.org/2000/svg" width="200" height="200" viewBox="0 0 24 24"><path fill="currentColor" d="M14.5 16.5q-1.748 0-3.005-1.137q-1.257-1.138-1.472-2.863H4.921l2.094 2.1l-.707.708L3 12l3.308-3.308l.713.708l-2.1 2.1h5.102q.215-1.725 1.472-2.863T14.5 7.5q1.868 0 3.184 1.315Q19 10.131 19 11.997t-1.316 3.185Q16.368 16.5 14.5 16.5Zm.002-1q1.46 0 2.479-1.022T18 11.998q0-1.46-1.022-2.479Q15.957 8.5 14.498 8.5t-2.479 1.022Q11 10.543 11 12.002t1.022 2.479q1.021 1.019 2.48 1.019ZM14.5 12Z"/></svg>