<svg xmlns="http://www.w3.org/2000/svg" width="200" height="200" viewBox="0 0 24 24"><path fill="currentColor" d="M12.003 19q-1.866 0-3.185-1.316Q7.5 16.368 7.5 14.5q0-1.748 1.137-3.005q1.138-1.257 2.863-1.472V4.921L9.4 7.015l-.708-.707L12 3l3.308 3.308l-.708.713l-2.1-2.1v5.102q1.725.215 2.863 1.472T16.5 14.5q0 1.868-1.315 3.184Q13.869 19 12.003 19Zm0-1q1.459 0 2.478-1.022q1.019-1.021 1.019-2.48t-1.022-2.479Q13.457 11 11.998 11t-2.479 1.022Q8.5 13.043 8.5 14.502q0 1.46 1.022 2.479T12.002 18ZM12 14.5Z"/></svg>