<svg xmlns="http://www.w3.org/2000/svg" width="200" height="200" viewBox="0 0 24 24"><path fill="currentColor" d="M9.5 16.5q-1.868 0-3.184-1.315Q5 13.869 5 12.003t1.316-3.185Q7.633 7.5 9.5 7.5q1.748 0 3.005 1.137q1.257 1.138 1.472 2.863h5.102l-2.094-2.1l.707-.708L21 12l-3.308 3.308l-.713-.708l2.1-2.1h-5.102q-.215 1.725-1.472 2.863T9.5 16.5Zm.002-1q1.46 0 2.479-1.022Q13 13.457 13 11.998q0-1.46-1.022-2.479Q10.957 8.5 9.498 8.5q-1.46 0-2.479 1.022Q6 10.543 6 12.002t1.022 2.479Q8.043 15.5 9.502 15.5ZM9.5 12Z"/></svg>