<svg xmlns="http://www.w3.org/2000/svg" width="200" height="200" viewBox="0 0 24 24"><path fill="currentColor" d="m7.98 14.808l.708-.708l-1.6-1.6h6.785l-1.6 1.6l.708.708L15.788 12l-2.807-2.808l-.708.708l1.6 1.6H7.088l1.6-1.6l-.707-.708L5.173 12l2.808 2.808ZM5.097 19q-.69 0-1.153-.463t-.462-1.152V6.615q0-.69.462-1.153Q4.406 5 5.096 5h10.77q.69 0 1.152.463t.463 1.152v4.654l3.038-3.038v7.538l-3.038-3.038v4.654q0 .69-.463 1.152q-.462.463-1.153.463H5.096Zm0-1h10.77q.269 0 .442-.173t.173-.442V6.615q0-.269-.173-.442T15.865 6H5.096q-.27 0-.442.173t-.173.442v10.77q0 .269.173.442t.442.173Zm-.615 0V6v12Z"/></svg>