<svg xmlns="http://www.w3.org/2000/svg" width="200" height="200" viewBox="0 0 24 24"><path fill="currentColor" d="M14.692 16.5q.348 0 .578-.23q.23-.23.23-.578V8.308q0-.348-.23-.578q-.23-.23-.578-.23H9.308q-.348 0-.578.23q-.23.23-.23.578v7.384q0 .348.23.578q.23.23.578.23h5.384Zm-5.192-1v-7h5v7h-5ZM5.615 20q-.69 0-1.152-.462Q4 19.075 4 18.385V5.615q0-.69.463-1.152Q4.925 4 5.615 4h12.77q.69 0 1.152.463q.463.462.463 1.152v12.77q0 .69-.462 1.152q-.463.463-1.153.463H5.615Zm0-1h12.77q.23 0 .423-.192q.192-.193.192-.423V5.615q0-.23-.192-.423Q18.615 5 18.385 5H5.615q-.23 0-.423.192Q5 5.385 5 5.615v12.77q0 .23.192.423q.193.192.423.192ZM5 5v14V5Zm7 6.808q.348 0 .578-.23q.23-.23.23-.578t-.23-.578q-.23-.23-.578-.23t-.578.23q-.23.23-.23.578t.23.578q.23.23.578.23Z"/></svg>