<svg xmlns="http://www.w3.org/2000/svg" width="200" height="200" viewBox="0 0 24 24"><path fill="currentColor" d="M13.998 11.462q1.04 0 1.771-.729q.731-.728.731-1.77q0-1.04-.729-1.77q-.728-.731-1.769-.731q-1.04 0-1.771.728q-.731.729-.731 1.77q0 1.04.729 1.77q.728.732 1.769.732Zm-5.421 4.48q1.067-1.152 2.47-1.778q1.401-.626 2.953-.626t2.954.626q1.402.626 2.47 1.778H20V4H8v11.942h.577ZM7 17V3h14v14H7Zm-4 4V7h1v13h13v1H3Zm11-10.538q-.617 0-1.059-.442q-.441-.441-.441-1.058q0-.618.441-1.06q.442-.44 1.059-.44t1.059.44q.441.442.441 1.06q0 .617-.441 1.058q-.442.442-1.059.442ZM9.97 16h8.06q-.84-.73-1.872-1.096q-1.033-.366-2.158-.366t-2.158.366Q10.81 15.269 9.97 16ZM14 9.971Z"/></svg>