<svg xmlns="http://www.w3.org/2000/svg" width="200" height="200" viewBox="0 0 24 24"><path fill="currentColor" d="m15.312 11.285l-.708-.714L20 5.175V4h-1.175l-5.396 5.396l-.714-.708l5.466-5.446q.13-.13.27-.186q.14-.056.3-.056h1.441q.348 0 .578.23q.23.23.23.578v1.44q0 .162-.056.301q-.056.14-.186.27l-5.446 5.466ZM4.069 20.738l-.827-.826Q3 19.669 3 19.346t.242-.565l3.054-3.06l-2.2-2.2l.277-.277q.46-.46 1.137-.46t1.136.46l.754.76l1.238-1.239l.714.708l-1.239 1.239l1.175 1.175l1.239-1.239l.708.714L9.996 16.6l.74.735q.46.46.46 1.136q0 .677-.46 1.137l-.276.277l-2.2-2.2l-3.06 3.053q-.242.243-.565.243q-.323 0-.566-.243Zm16.381-6.313q.183-.844-.038-1.66q-.222-.815-.645-1.557q-.675.534-1.182 1.205t-.69 1.514q-.183.825.05 1.637t.632 1.555q.713-.496 1.202-1.182q.488-.687.671-1.512ZM5.175 8.35q.552.552 1.338.654q.785.102 1.418-.31l-.783-.782q-.585-.585-1.383-.71q-.798-.123-1.488.25l.898.898ZM7 3.85L4.487 6.338q.88-.267 1.777-.044t1.578.904l.783.783q.43-.633.363-1.421q-.067-.789-.663-1.36L7 3.85Zm13.115 16.998L8.637 9.4q-.956.673-2.137.597q-1.18-.076-2.038-.934L2.423 7L7 2.429l2.038 2.058q.864.863.944 2.053q.08 1.19-.632 2.147l7.802 7.801q-.258-.669-.327-1.369T16.9 13.7q.237-1.083.902-1.983q.665-.9 1.573-1.492q.292-.18.613-.115q.32.065.506.352q.571.89.857 1.976q.286 1.087.068 2.15q-.217 1.14-.908 2.045q-.692.904-1.663 1.532l1.975 1.975q.14.14.153.351t-.153.357q-.14.14-.354.14q-.213 0-.354-.14ZM7.52 7.558Z"/></svg>