<svg xmlns="http://www.w3.org/2000/svg" width="200" height="200" viewBox="0 0 24 24"><path fill="currentColor" d="m15.312 11.285l-2.597-2.597L18.423 3H21v2.577l-5.688 5.708ZM4.635 21.304l-1.958-1.958l3.62-3.625l-2.2-2.2l1.407-1.408l1.896 1.89l1.238-1.238l2.597 2.597L9.996 16.6l1.877 1.871l-1.413 1.414l-2.2-2.2l-3.625 3.619Zm16.36-.992l-.708.688L8.637 9.4q-.956.673-2.137.597q-1.18-.076-2.038-.934l-.972-.99l.156-.161q.727-.714 1.751-.72q1.024-.007 1.751.72L8.637 9.4q.11-.067.203-.163q.095-.095.198-.18q.08-.078.162-.182l.15-.188l-1.508-1.489q-1.025-1.02-2.448-1.01q-1.423.01-2.436 1.035l-.156.156L2.423 7L7 2.429l2.038 2.058q.864.863.944 2.053q.08 1.19-.632 2.147l7.802 7.801q-.258-.669-.327-1.369T16.9 13.7q.13-.635.426-1.208q.295-.573.715-1.058t.93-.9q.51-.415 1.089-.746q.782 1.066 1.202 2.299q.419 1.232.157 2.501q-.217 1.14-.908 2.045q-.692.904-1.663 1.532l2.146 2.147Z"/></svg>