<svg xmlns="http://www.w3.org/2000/svg" width="200" height="200" viewBox="0 0 24 24"><path fill="currentColor" d="m15.312 11.285l-2.597-2.597l5.466-5.446q.13-.13.27-.186q.14-.056.3-.056h1.441q.348 0 .578.23q.23.23.23.578v1.44q0 .162-.056.301q-.056.14-.186.27l-5.446 5.466ZM4.069 20.738l-.827-.826Q3 19.669 3 19.346t.242-.565l3.054-3.06l-2.2-2.2l.277-.277q.46-.46 1.137-.46t1.136.46l.754.76l1.238-1.239l2.597 2.597L9.996 16.6l.74.735q.46.46.46 1.136q0 .677-.46 1.137l-.276.277l-2.2-2.2l-3.06 3.053q-.242.243-.565.243q-.323 0-.566-.243Zm16.066.11L8.637 9.4q-.956.673-2.137.597q-1.18-.076-2.038-.934l-.972-.99l.156-.161q.727-.714 1.751-.72q1.024-.007 1.751.72L8.637 9.4q.11-.067.203-.163q.095-.095.198-.18q.08-.078.162-.182l.15-.188l-1.508-1.489q-1.025-1.02-2.448-1.01q-1.423.01-2.436 1.035l-.156.156L2.423 7L7 2.429l2.038 2.058q.864.863.944 2.053q.08 1.19-.632 2.147l7.802 7.801q-.258-.669-.327-1.369T16.9 13.7q.237-1.083.902-1.983q.665-.9 1.573-1.492q.292-.18.613-.115q.32.065.506.352q.571.89.857 1.976q.286 1.087.068 2.15q-.217 1.14-.908 2.045q-.692.904-1.663 1.532l1.975 1.975q.14.14.153.351t-.153.357q-.14.14-.344.14t-.344-.14Z"/></svg>