<svg xmlns="http://www.w3.org/2000/svg" width="200" height="200" viewBox="0 0 24 24"><path fill="currentColor" d="m18.838 20.696l-3.06-3.054l-1.922 1.923q-.102.102-.277.102t-.277-.102q-.46-.46-.46-1.136t.46-1.137l4.09-4.09q.46-.46 1.137-.46t1.136.46q.102.102.102.277t-.102.277l-1.923 1.923l3.054 3.06q.242.242.242.565t-.242.565l-.827.827q-.242.242-.565.242t-.566-.242m1.92-14.977l-10.8 10.82l.74.734q.46.46.46 1.137t-.46 1.136q-.102.102-.277.102t-.277-.102l-1.923-1.923l-3.06 3.054q-.242.242-.565.242t-.565-.242l-.827-.827q-.242-.242-.242-.565t.242-.566l3.054-3.06l-1.923-1.922q-.102-.102-.102-.277t.102-.277q.46-.46 1.136-.46t1.137.46l.754.76L17.944 3.378q.218-.217.522-.348t.628-.131h1.098q.348 0 .578.23t.23.578v1.44q0 .162-.056.301t-.186.27M8.35 9.425l.58-.594l.576-.6l-.575.6zm-1.067.354L3.46 5.956q-.218-.218-.339-.522T3 4.806V3.708q0-.348.23-.578t.578-.23h1.098q.323 0 .628.13q.304.132.522.349l3.81 3.829q.146.146.143.334t-.15.335q-.146.14-.344.143t-.344-.143L5.175 3.9H4v1.175l3.996 3.996q.14.14.15.341t-.15.367q-.165.165-.357.165t-.356-.165m1.967 6.046L20 5.075V3.9h-1.175L8.075 14.65zm0 0l-.58-.594l-.595-.581l.594.58z"/></svg>