<svg xmlns="http://www.w3.org/2000/svg" width="200" height="200" viewBox="0 0 24 24"><path fill="currentColor" d="M5.5 12.077q0 1.522.643 2.804q.644 1.282 2.28 2.723v-2.527q0-.213.144-.356t.357-.144q.213 0 .356.144q.143.143.143.356v3.461q0 .344-.232.576q-.232.232-.576.232H5.154q-.213 0-.356-.144q-.144-.144-.144-.357q0-.212.144-.356q.143-.143.356-.143h2.59q-1.794-1.561-2.519-3.073Q4.5 13.762 4.5 12.07q0-2.208 1.148-4.022q1.148-1.813 3.008-2.756q.196-.104.4-.034q.206.069.273.277q.067.207-.021.4q-.089.193-.28.296q-1.591.813-2.56 2.383q-.968 1.57-.968 3.463Zm13-.039q0-1.563-.647-2.858q-.647-1.295-2.276-2.765v2.508q0 .213-.144.356t-.357.144q-.213 0-.356-.144q-.143-.143-.143-.356V5.462q0-.344.232-.576q.232-.232.576-.232h3.461q.213 0 .356.144q.144.144.144.357q0 .212-.144.356q-.143.143-.356.143h-2.59q1.898 1.613 2.587 3.232q.69 1.618.657 3.152h-1Zm-2.346 9.693q-.367 0-.645-.278t-.278-.645v-2.693q0-.367.278-.645t.645-.278h.096v-1q0-.748.51-1.258t1.26-.51q.747 0 1.258.51q.51.51.51 1.258v1h.097q.376 0 .63.278t.254.645v2.693q0 .367-.278.645t-.645.278h-3.692Zm.865-4.539h2v-1q0-.425-.287-.712t-.713-.288q-.425 0-.712.288t-.288.712v1Z"/></svg>