<svg xmlns="http://www.w3.org/2000/svg" width="200" height="200" viewBox="0 0 24 24"><path fill="currentColor" d="M18.385 17.838V15.5q0-.162-.112-.273q-.111-.112-.273-.112t-.273.112q-.112.111-.112.273v2.333q0 .161.056.3t.187.27l1.519 1.52q.111.112.263.121q.152.01.283-.12t.13-.274q0-.142-.13-.273l-1.538-1.539ZM13.769 6v2.23q0 .349.23.579q.23.23.578.23H20V6.614q0-.23-.192-.423Q19.615 6 19.385 6h-5.616ZM18 22q-1.671 0-2.836-1.164T14 18q0-1.671 1.164-2.836T18 14q1.671 0 2.836 1.164T22 18q0 1.671-1.164 2.836T18 22ZM4.615 19q-.69 0-1.152-.462Q3 18.075 3 17.385V6.615q0-.69.463-1.152Q3.925 5 4.615 5h14.77q.69 0 1.152.463q.463.462.463 1.152v6.16q-.644-.394-1.422-.585Q18.8 12 18.052 12q-2.496 0-4.255 1.752T12 18q0 .256.017.506q.018.25.071.494H4.615Z"/></svg>