<svg xmlns="http://www.w3.org/2000/svg" width="200" height="200" viewBox="0 0 24 24"><path fill="currentColor" d="M8.423 17.308q-.706 0-1.209-.492t-.502-1.2V4.691q0-.71.502-1.2Q7.717 3 8.424 3h10.884q.698 0 1.195.497q.497.497.497 1.195v10.923q0 .698-.497 1.196q-.497.497-1.195.497H8.423ZM6.712 21v-1.23h1.23V21h-1.23ZM4.25 6.23H3.02q0-.507.36-.868Q3.743 5 4.25 5v1.23ZM10.404 21v-1.23h1.23V21h-1.23Zm3.692 0v-1.23h1.23V21h-1.23ZM4.25 19.77V21q-.508 0-.87-.362q-.36-.361-.36-.869h1.23Zm-1.23-2.462v-1.231h1.23v1.23H3.02Zm0-3.693v-1.23h1.23v1.23H3.02Zm0-3.692v-1.23h1.23v1.23H3.02Zm14.768 9.846h1.231q0 .508-.361.87q-.362.361-.87.361v-1.23ZM13.385 7.192H20v-2.5q0-.288-.202-.49T19.308 4h-5.923v3.192Z"/></svg>