<svg xmlns="http://www.w3.org/2000/svg" width="200" height="200" viewBox="0 0 24 24"><path fill="currentColor" d="M20.367 19.5H16q-.213 0-.357-.143q-.143-.144-.143-.357t.143-.357q.144-.143.357-.143h4.367l-1.727-1.765q-.14-.14-.13-.342q.01-.2.155-.347q.14-.14.345-.14t.344.14l2.37 2.389q.241.242.241.565q0 .323-.242.565l-2.388 2.389q-.14.14-.342.134q-.2-.007-.347-.153q-.14-.14-.14-.335t.14-.335l1.721-1.765ZM5.615 20q-.69 0-1.152-.462Q4 19.075 4 18.385V5.615q0-.69.463-1.152Q4.925 4 5.615 4h12.77q.69 0 1.152.463q.463.462.463 1.152v7.812q-.244-.06-.497-.09t-.509-.03q-1.052 0-1.975.368t-1.667.988L12.688 12l2.516-2.515q.14-.14.14-.345t-.14-.344q-.14-.14-.344-.14t-.345.14L12 11.312L9.485 8.796q-.14-.14-.335-.14t-.335.14q-.14.14-.14.344t.14.345L11.312 12l-2.516 2.515q-.14.14-.13.335q.009.194.15.335q.14.14.344.14t.344-.14L12 12.688l2.663 2.664q-.62.744-.988 1.67q-.367.926-.367 1.978q0 .256.03.506t.089.494H5.615Z"/></svg>