<svg xmlns="http://www.w3.org/2000/svg" width="200" height="200" viewBox="0 0 24 24"><path fill="currentColor" d="M4.615 19q-.69 0-1.152-.462Q3 18.075 3 17.385v-.039h1v.039q0 .23.192.423q.193.192.423.192h.193v1h-.193ZM3 15.808v-1.866h1v1.866H3Zm0-3.404v-1.866h1v1.866H3ZM3 9V6.615q0-.69.463-1.152Q3.925 5 4.615 5H7v1H4.615q-.288 0-.452.163Q4 6.327 4 6.615V9H3Zm3.346 10v-1h2.02v1h-2.02ZM8.673 6V5h2.02v1h-2.02Zm1.23 13v-1h2.02v1h-2.02Zm2.328-9V5h7.154q.69 0 1.152.463q.463.462.463 1.152V10h-8.77Zm1.23 9v-1h2.02v1h-2.02Zm3.558 0v-1h2.366q.288 0 .452-.163q.163-.164.163-.452V15h1v2.385q0 .69-.462 1.152q-.463.463-1.153.463h-2.366ZM20 13.404v-1.866h1v1.866h-1Z"/></svg>