<svg xmlns="http://www.w3.org/2000/svg" width="200" height="200" viewBox="0 0 24 24"><path fill="currentColor" d="M9.615 20q-.666 0-1.14-.475Q8 19.051 8 18.385v-8.77q0-.666.475-1.14Q8.949 8 9.615 8h8.77q.666 0 1.14.475q.475.474.475 1.14v8.77q0 .666-.475 1.14q-.474.475-1.14.475h-8.77Zm.231-8.346h8.308q.36 0 .603-.243q.243-.244.243-.603v-.962q0-.36-.243-.603Q18.513 9 18.154 9H9.846q-.36 0-.603.243Q9 9.487 9 9.846v.962q0 .36.243.603t.603.243Zm2.808 3.692h2.692v-2.692h-2.692v2.692Zm0 3.654h2.692v-2.654h-2.692V19ZM9 15.346h2.654v-2.692H9v2.692Zm7.346 0H19v-2.692h-2.654v2.692ZM9.616 19h2.038v-2.654H9v2.039q0 .269.173.442t.442.173Zm6.73 0h2.039q.269 0 .442-.173t.173-.442v-2.039h-2.654V19Zm-10.73-3q-.667 0-1.141-.475Q4 15.051 4 14.385v-8.77q0-.666.475-1.14Q4.949 4 5.615 4h8.77q.666 0 1.14.475q.475.474.475 1.14V7h-1V5.615q0-.269-.173-.442T14.385 5h-8.77q-.269 0-.442.173T5 5.615v8.77q0 .269.173.442t.442.173H7v1H5.615Z"/></svg>