<svg xmlns="http://www.w3.org/2000/svg" width="200" height="200" viewBox="0 0 24 24"><path fill="currentColor" d="M4.808 15.635q-.344 0-.576-.233Q4 15.17 4 14.827v-1.52q0-.343.232-.575q.232-.232.576-.232h14.384q.344 0 .576.232q.232.232.232.576v1.519q0 .343-.232.575q-.232.233-.576.233H4.808Zm0-4.135q-.344 0-.576-.232Q4 11.036 4 10.692V9.173q0-.343.232-.575q.232-.233.576-.233h14.384q.344 0 .576.233q.232.232.232.575v1.52q0 .343-.232.575q-.232.232-.576.232H4.808Zm0-4.135q-.344 0-.576-.232Q4 6.901 4 6.558v-1.52q0-.343.232-.575q.232-.232.576-.232h14.384q.344 0 .576.232q.232.232.232.575v1.52q0 .343-.232.575q-.232.232-.576.232H4.808Zm0 12.404q-.344 0-.576-.232Q4 19.305 4 18.962v-1.52q0-.343.232-.575q.232-.232.576-.232h14.384q.344 0 .576.232q.232.232.232.575v1.52q0 .343-.232.575q-.232.232-.576.232H4.808Z"/></svg>