<svg xmlns="http://www.w3.org/2000/svg" width="200" height="200" viewBox="0 0 24 24"><path fill="currentColor" d="M19.385 20H5.615q-.69 0-1.152-.462Q4 19.075 4 18.385V5.615q0-.69.463-1.152Q4.925 4 5.615 4h13.77q.69 0 1.152.463q.463.462.463 1.152v12.77q0 .69-.462 1.152q-.463.463-1.153.463ZM5 8.5h15V5.615q0-.23-.192-.423Q19.615 5 19.385 5H5.615q-.23 0-.423.192Q5 5.385 5 5.615V8.5Zm3.385 1H5v8.885q0 .23.192.423q.193.192.423.192h2.77V9.5Zm8.23 0V19h2.77q.23 0 .423-.192q.192-.193.192-.423V9.5h-3.385Zm-1 0h-6.23V19h6.23V9.5Z"/></svg>