<svg xmlns="http://www.w3.org/2000/svg" width="200" height="200" viewBox="0 0 24 24"><path fill="currentColor" d="M15.923 22v-1h.462q.23 0 .423-.192q.192-.193.192-.423V5.5H7v6.577H6V3.615q0-.69.463-1.152Q6.925 2 7.615 2h8.77q.69 0 1.152.463q.463.462.463 1.152v16.77q0 .69-.462 1.152q-.463.463-1.153.463h-.462ZM6 22v-1.385q.575 0 .98.405t.405.98H6Zm3.77 0q0-1.573-1.099-2.671T6 18.23v-1q1.98 0 3.375 1.394q1.394 1.394 1.394 3.375h-1Zm3.384 0q0-2.985-2.085-5.07T6 14.847v-1q1.69 0 3.179.643q1.488.644 2.588 1.744t1.744 2.588q.643 1.489.643 3.179h-1ZM7 4.5h10v-.885q0-.23-.192-.423Q16.615 3 16.385 3h-8.77q-.23 0-.423.192Q7 3.385 7 3.615V4.5Zm0 0V3v1.5Z"/></svg>