<svg xmlns="http://www.w3.org/2000/svg" width="200" height="200" viewBox="0 0 24 24"><path fill="currentColor" d="M15.923 22v-1h.462q.23 0 .423-.192q.192-.193.192-.423V5.5H7v6.577H6V3.615q0-.69.463-1.152Q6.925 2 7.615 2h8.77q.69 0 1.152.463q.463.462.463 1.152v16.77q0 .69-.462 1.152q-.463.463-1.153.463h-.462Zm-6.558-3.365q.58.578.937 1.307q.358.73.43 1.564q.031.207-.109.35q-.14.144-.354.144q-.213 0-.36-.147q-.146-.147-.188-.36q-.067-.622-.34-1.174q-.271-.552-.71-.99q-.438-.439-.99-.71q-.552-.273-1.173-.34q-.214-.042-.36-.189Q6 17.944 6 17.73q0-.213.143-.353q.144-.14.351-.11q.835.073 1.564.431q.729.358 1.307.937Zm2.573-2.231q.935.996 1.52 2.27q.586 1.274.684 2.751q.012.233-.131.404t-.357.171q-.214 0-.36-.156t-.157-.369q-.093-1.27-.596-2.37t-1.303-1.974q-.892-.96-2.093-1.548q-1.2-.589-2.585-.706q-.227-.03-.394-.167Q6 14.573 6 14.346q0-.213.153-.357q.153-.143.36-.131q1.612.104 3.002.765q1.39.662 2.423 1.78ZM7 4.5h10v-.885q0-.23-.192-.423Q16.615 3 16.385 3h-8.77q-.23 0-.423.192Q7 3.385 7 3.615V4.5Zm0 0V3v1.5ZM6.692 22q-.29 0-.491-.201Q6 21.6 6 21.308q0-.29.201-.492q.2-.2.491-.2q.29 0 .492.2q.2.201.2.492q0 .29-.2.491q-.201.201-.492.201Z"/></svg>