<svg xmlns="http://www.w3.org/2000/svg" width="200" height="200" viewBox="0 0 24 24"><path fill="currentColor" d="M3.5 20.846q-.213 0-.356-.144T3 20.346V13l1.985-5.654q.073-.238.27-.37q.196-.13.437-.13h3.231V5.308h2.415q-.126.629-.107 1.269q.019.64.184 1.27H5.888L4.415 12h10.377q.63.398 1.342.584t1.481.185q.325 0 .625-.014t.622-.082L19 13v7.346q0 .213-.144.356t-.356.144h-.23q-.213 0-.357-.144t-.144-.356v-1.5H4.231v1.5q0 .213-.144.356t-.356.144H3.5Zm2.928-4.308q.466 0 .788-.326q.322-.327.322-.793t-.326-.79q-.327-.321-.793-.321t-.79.326q-.321.327-.321.794t.326.788q.327.322.794.322Zm11.187-6.153q-1.67 0-2.835-1.165t-1.165-2.835q0-1.672 1.165-2.836q1.164-1.164 2.835-1.164q1.672 0 2.836 1.164t1.164 2.836q0 1.67-1.164 2.835t-2.836 1.165Zm-2.034 6.153q.467 0 .79-.326q.321-.327.321-.793t-.326-.79q-.327-.321-.794-.321t-.788.326q-.322.327-.322.794t.326.788q.327.322.793.322Zm2.034-7.692q.2 0 .331-.13q.13-.131.13-.331t-.13-.331q-.13-.13-.33-.13t-.331.13q-.131.13-.131.33t.13.331q.131.131.331.131ZM17.231 7H18V4h-.77v3Z"/></svg>