<svg xmlns="http://www.w3.org/2000/svg" width="200" height="200" viewBox="0 0 24 24"><path fill="currentColor" d="M3.613 20.846q-.257 0-.435-.18Q3 20.488 3 20.232v-6.958q0-.136.015-.273q.016-.137.061-.272l1.707-4.801q.16-.48.578-.78q.419-.3.937-.3h2.625v-.732q0-.343.232-.575q.233-.232.576-.232h1.607q-.126.629-.107 1.269q.019.64.184 1.27H6.331q-.212 0-.366.105q-.153.106-.23.298L4.415 12h10.377q.63.398 1.342.584t1.481.185q.335 0 .652-.033q.318-.034.733-.101v7.596q0 .256-.18.436t-.438.18t-.435-.18q-.178-.18-.178-.436v-1.385H4.231v1.385q0 .256-.18.436t-.438.18ZM4 13v4.846V13Zm2.428 3.538q.466 0 .788-.326q.322-.327.322-.793t-.326-.79q-.327-.321-.793-.321t-.79.326q-.321.327-.321.794t.326.788q.327.322.794.322Zm9.153 0q.467 0 .79-.326q.321-.327.321-.793t-.326-.79q-.327-.321-.794-.321t-.788.326q-.322.327-.322.794t.326.788q.327.322.793.322Zm2.034-6.153q-1.67 0-2.835-1.165t-1.165-2.835q0-1.672 1.165-2.836q1.164-1.164 2.835-1.164q1.672 0 2.836 1.164t1.164 2.836q0 1.67-1.164 2.835t-2.836 1.165Zm0-3.385q.154 0 .27-.115q.115-.116.115-.27v-2.23q0-.154-.115-.27Q17.769 4 17.615 4q-.153 0-.269.115q-.115.116-.115.27v2.23q0 .154.115.27q.116.115.27.115ZM4 17.846h14V13H4v4.846Zm13.615-9q.2 0 .331-.13q.13-.131.13-.331t-.13-.331q-.13-.13-.33-.13t-.331.13q-.131.13-.131.33t.13.331q.131.131.331.131Z"/></svg>