<svg xmlns="http://www.w3.org/2000/svg" width="200" height="200" viewBox="0 0 24 24"><path fill="currentColor" d="M3 20.846V13l2.162-6.154h3.761V5.308h2.415q-.126.629-.107 1.269q.019.64.184 1.27H5.888L4.415 12h10.377q.63.398 1.342.584t1.481.185q.335 0 .652-.014q.318-.015.733-.082v8.173h-1.23v-2H4.23v2H3Zm3.428-4.308q.466 0 .788-.326q.322-.327.322-.793t-.326-.79q-.327-.321-.793-.321t-.79.326q-.321.327-.321.794t.326.788q.327.322.794.322Zm9.153 0q.467 0 .79-.326q.321-.327.321-.793t-.326-.79q-.327-.321-.794-.321t-.788.326q-.322.327-.322.794t.326.788q.327.322.793.322Zm2.034-6.153q-1.67 0-2.835-1.165t-1.165-2.835q0-1.672 1.165-2.836q1.164-1.164 2.835-1.164q1.672 0 2.836 1.164t1.164 2.836q0 1.67-1.164 2.835t-2.836 1.165ZM17.231 7H18V4h-.77v3Zm-.077 1.846h.923v-.923h-.923v.923Z"/></svg>