<svg xmlns="http://www.w3.org/2000/svg" width="200" height="200" viewBox="0 0 24 24"><path fill="currentColor" d="M12.596 7.77q-.161 0-.283-.122t-.12-.283V6.27q0-.627.436-1.063q.436-.437 1.063-.437h1.096q.162 0 .283.121q.121.122.121.283V6.27q0 .627-.436 1.064q-.437.436-1.064.436zm-5.288 5q-1.046 0-1.773-.728t-.727-1.773V8.577q0-.348.23-.578t.577-.23h1.693q1.046 0 1.773.727t.727 1.773v1.693q0 .348-.23.577T9 12.77zM16 20.75q-.898 0-1.709-.3t-1.458-.825l-1.48 1.479q-.14.14-.343.15t-.364-.15t-.15-.364t.15-.344l1.479-1.479q-.525-.648-.825-1.458T11 15.75q0-2.077 1.462-3.541q1.461-1.465 3.538-1.465h3.948q.44 0 .74.3t.299.739v3.967q0 2.077-1.455 3.538T16 20.75m0-1q1.675 0 2.825-1.175t1.15-2.825v-4H16q-1.65 0-2.825 1.163T12 15.75q0 .69.224 1.318t.614 1.136l2.808-2.808q.16-.16.354-.16t.354.16t.16.354t-.16.354l-2.808 2.808q.508.39 1.136.614T16 19.75m.025-4.025"/></svg>