<svg xmlns="http://www.w3.org/2000/svg" width="200" height="200" viewBox="0 0 24 24"><path fill="currentColor" d="M11.788 18.385q-.212 0-.356-.144t-.144-.357t.144-.356t.356-.143h7.924q.212 0 .356.144q.144.143.144.356t-.144.356t-.356.144zm3.961-3.808q-.212 0-.356-.144t-.143-.356V7.53l-1.746 1.746q-.14.14-.344.15t-.364-.15t-.16-.354t.16-.354l2.389-2.388q.242-.243.565-.243t.565.243l2.389 2.388q.14.14.15.344t-.15.364t-.354.16t-.354-.16L16.25 7.53v6.546q0 .212-.144.356t-.357.144m-11.299 0q-.246 0-.377-.19t-.044-.412l3.196-8.212q.03-.088.109-.137t.168-.05h.236q.097 0 .175.05t.108.137l3.235 8.21q.086.235-.044.42q-.131.184-.376.184q-.148 0-.261-.07t-.17-.219l-.913-2.319H5.765l-.913 2.325q-.056.13-.16.206t-.242.077m1.612-3.408h3.123L7.654 7.15h-.1z"/></svg>