<svg xmlns="http://www.w3.org/2000/svg" width="200" height="200" viewBox="0 0 24 24"><path fill="currentColor" d="M4.615 21q-.666 0-1.14-.475Q3 20.051 3 19.385V4.615q0-.666.475-1.14Q3.949 3 4.615 3h7.058q.213 0 .356.144q.144.144.144.357q0 .212-.144.356q-.143.143-.356.143H4.615q-.269 0-.442.173T4 4.615v14.77q0 .269.173.442t.442.173h9.77q.269 0 .442-.173t.173-.442V18q0-.213.144-.356t.357-.144q.212 0 .356.144q.143.144.143.356v1.385q0 .666-.475 1.14q-.474.475-1.14.475h-9.77ZM7 17.5q-.213 0-.356-.144Q6.5 17.212 6.5 17t.144-.356Q6.788 16.5 7 16.5h5q.213 0 .356.144q.144.144.144.357t-.144.356q-.143.143-.356.143H7Zm0-2.77q-.213 0-.356-.143T6.5 14.23q0-.213.144-.356q.143-.143.356-.143h3q.213 0 .356.144q.144.144.144.356q0 .213-.144.356q-.144.144-.356.144H7Zm6.804-1.445l-2.592-2.593H9.308q-.344 0-.576-.23q-.232-.23-.232-.57v-2.4q0-.34.232-.57q.232-.23.576-.23h1.904L13.804 4.1q.192-.192.444-.095t.252.368v8.639q0 .271-.252.368t-.444-.095Zm2.696-1.662V5.762q.765.505 1.133 1.319q.367.813.367 1.611t-.377 1.612q-.377.813-1.123 1.32Zm3.5-2.93q0-1.72-.834-3.232t-2.195-2.326q-.177-.104-.272-.31q-.095-.204-.003-.383q.092-.192.297-.249q.205-.056.382.047q1.604.943 2.614 2.676Q21 6.65 21 8.692q0 2.043-1.01 3.776q-1.011 1.734-2.615 2.676q-.177.104-.382.047t-.297-.248q-.092-.18.003-.384q.095-.205.272-.309q1.362-.813 2.195-2.326Q20 10.412 20 8.692Z"/></svg>