<svg xmlns="http://www.w3.org/2000/svg" width="200" height="200" viewBox="0 0 24 24"><path fill="currentColor" d="M7.505 21q-2.082 0-3.543-1.458Q2.5 18.083 2.5 16v-6h10v6q0 2.083-1.457 3.542Q9.586 21 7.505 21ZM5.5 14.308q.329 0 .568-.24q.24-.24.24-.568q0-.329-.24-.568q-.24-.24-.568-.24q-.329 0-.568.24q-.24.24-.24.568q0 .329.24.568q.24.24.568.24Zm2 3.4q.898 0 1.555-.426q.657-.426.714-1.09H5.231q.057.664.714 1.09q.657.426 1.555.426Zm2-3.4q.329 0 .568-.24q.24-.24.24-.568q0-.329-.24-.568q-.24-.24-.568-.24q-.329 0-.568.24q-.24.24-.24.568q0 .329.24.568q.24.24.568.24Zm7-.308q-.67 0-1.355-.186q-.685-.185-1.145-.518V8.5h-2.5V3h10v6q0 2.083-1.458 3.542Q18.583 14 16.5 14Zm-2-6.692q.329 0 .568-.24q.24-.24.24-.568q0-.329-.24-.568q-.24-.24-.568-.24q-.329 0-.568.24q-.24.24-.24.568q0 .329.24.568q.24.24.568.24Zm-.27 3.4h4.54q-.097-.664-.754-1.09q-.656-.426-1.516-.426q-.677 0-1.444.364q-.768.363-.825 1.152Zm4.27-3.4q.329 0 .568-.24q.24-.24.24-.568q0-.329-.24-.568q-.24-.24-.568-.24q-.329 0-.568.24q-.24.24-.24.568q0 .329.24.568q.24.24.568.24Z"/></svg>