<svg xmlns="http://www.w3.org/2000/svg" width="200" height="200" viewBox="0 0 24 24"><path fill="currentColor" d="M17.462 20H7.423V9l6.27-6.192l.442.442q.136.137.23.35q.093.213.093.392v.158L13.435 9h6.95q.627 0 1.12.494q.495.494.495 1.121v1.231q0 .137-.03.298q-.032.162-.082.298l-2.73 6.473q-.206.462-.693.773q-.486.312-1.003.312Zm-9.039-1h9.039q.211 0 .432-.115q.221-.116.337-.385L21 12v-1.385q0-.269-.173-.442T20.385 10h-8.193l1.158-5.462l-4.927 4.889V19Zm0-9.573V19V9.427Zm-1-.427v1H4v9h3.423v1H3V9h4.423Z"/></svg>