<svg xmlns="http://www.w3.org/2000/svg" width="200" height="200" viewBox="0 0 24 24"><path fill="currentColor" d="M17.198 8.688q.379.61.59 1.29T18 11.426v9.363q0 .51-.351.861t-.86.351h-5.116q-.348 0-.612-.19t-.39-.512q-.415-1.242-.55-2.473t-.124-2.275t.1-1.813t.1-1.07q0-.12-.03-.211t-.163-.116q-.29-.046-2.053-.448t-3.688-1.705q-.367-.237-.413-.673t.215-.783l3.818-5.11q.267-.348.683-.45t.801.085l5.704 2.598q.685.292 1.217.759t.91 1.075m-3.583 10.056q.206 0 .377-.1t.258-.25q.112.15.273.25t.362.1q.328 0 .549-.23q.22-.23.22-.539q0-.329-.22-.55t-.55-.22h-.192V12.77h.193q.328 0 .549-.23q.22-.23.22-.539q0-.329-.22-.549t-.55-.22q-.2 0-.36.087t-.274.238q-.087-.15-.258-.238t-.377-.087q-.31 0-.539.22t-.23.549q0 .31.23.54t.54.23h.192v4.436h-.193q-.31 0-.539.22t-.23.549q0 .31.23.54t.54.23"/></svg>