<svg xmlns="http://www.w3.org/2000/svg" width="200" height="200" viewBox="0 0 24 24"><path fill="currentColor" d="M13.308 16.635q.412 0 .706-.3t.294-.72V13.5q0-.402-.3-.701t-.7-.299h-2.616v-2.135h3.116q.212 0 .356-.144q.144-.143.144-.356t-.144-.356t-.356-.144h-3.305q-.351 0-.58.233t-.23.575v2.52q0 .343.232.575t.575.232h2.808v2.135h-3.116q-.212 0-.356.144q-.144.143-.144.356t.144.356t.356.144zM9.885 2.5q-.213 0-.357-.144q-.143-.144-.143-.357t.143-.356t.357-.143h4.23q.213 0 .357.144q.143.144.143.357t-.143.356t-.357.143zM12 21q-1.649 0-3.108-.626t-2.55-1.716t-1.716-2.55T4 13t.626-3.108t1.716-2.55t2.55-1.716T12 5q1.454 0 2.812.52t2.492 1.468l.738-.738q.14-.14.345-.15t.363.15t.16.354t-.16.354l-.738.738q.95 1.135 1.469 2.492Q20 11.546 20 13q0 1.649-.626 3.108t-1.716 2.55t-2.55 1.716T12 21"/></svg>