<svg xmlns="http://www.w3.org/2000/svg" width="200" height="200" viewBox="0 0 24 24"><path fill="currentColor" d="m11.006 15.648l3.484-2.32q.187-.13.187-.328t-.187-.329l-3.484-2.32q-.212-.136-.417-.027t-.204.351v4.65q0 .242.204.351t.417-.028M9.885 2.5q-.214 0-.357-.143T9.385 2t.143-.357t.357-.143h4.23q.214 0 .357.143t.143.357t-.143.357t-.357.143zM12 21q-1.658 0-3.113-.626q-1.454-.626-2.545-1.716t-1.716-2.545T4 13t.626-3.113t1.716-2.545t2.546-1.716T12 5q1.454 0 2.812.52t2.492 1.468l.738-.738q.14-.14.345-.15t.363.15t.16.354t-.16.354l-.738.738q.95 1.135 1.469 2.492Q20 11.546 20 13q0 1.658-.626 3.113q-.626 1.454-1.716 2.545t-2.545 1.716T12 21m0-1q2.9 0 4.95-2.05T19 13t-2.05-4.95T12 6T7.05 8.05T5 13t2.05 4.95T12 20m0-7"/></svg>