<svg xmlns="http://www.w3.org/2000/svg" width="200" height="200" viewBox="0 0 24 24"><path fill="currentColor" d="M9.692 16.635h3.616q.42 0 .71-.3t.29-.72V13.5q0-.402-.3-.701t-.7-.299h-2.616v-2.135h3.616v-1H9.692V13.5h3.616v2.135H9.692zM9.385 2.5v-1h5.23v1zM12 21q-1.658 0-3.113-.626q-1.454-.626-2.545-1.716t-1.716-2.545T4 13t.626-3.113t1.716-2.545t2.546-1.716T12 5q1.454 0 2.812.52t2.492 1.468l1.092-1.092l.708.708l-1.092 1.092q.95 1.135 1.469 2.492Q20 11.546 20 13q0 1.658-.626 3.113q-.626 1.454-1.716 2.545t-2.545 1.716T12 21m0-1q2.9 0 4.95-2.05T19 13t-2.05-4.95T12 6T7.05 8.05T5 13t2.05 4.95T12 20m0-7"/></svg>