<svg xmlns="http://www.w3.org/2000/svg" width="200" height="200" viewBox="0 0 24 24"><path fill="currentColor" d="M12 21q-1.658 0-3.113-.626q-1.454-.626-2.545-1.716q-1.09-1.09-1.716-2.545Q4 14.658 4 13q0-1.538.549-2.936q.55-1.397 1.597-2.502L2.985 4.4q-.14-.14-.15-.344q-.01-.204.15-.364t.353-.16q.195 0 .354.16l16.616 16.616q.14.14.15.344q.01.204-.15.363q-.16.16-.354.16t-.354-.16l-2.162-2.161q-1.065 1.01-2.49 1.578Q13.52 21 12 21ZM9.885 1.5h4.23q.214 0 .357.143q.143.144.143.357t-.143.357q-.143.143-.357.143h-4.23q-.214 0-.357-.143q-.143-.144-.143-.357t.143-.357q.143-.143.357-.143ZM12 5q1.423 0 2.774.51t2.51 1.478l.74-.738q.14-.14.343-.15q.204-.01.364.15t.16.354q0 .194-.16.354l-.739.738q.97 1.16 1.489 2.52Q20 11.576 20 13q0 .858-.195 1.732t-.586 1.668L12.5 9.68v-.795q0-.214-.143-.357q-.144-.143-.357-.143q-.154 0-.28.1q-.126.1-.174.242L8.594 5.775q.777-.385 1.657-.58Q11.13 5 12 5Z"/></svg>