<svg xmlns="http://www.w3.org/2000/svg" width="200" height="200" viewBox="0 0 24 24"><path fill="currentColor" d="m19.22 16.4l-.75-.75q.274-.656.402-1.318Q19 13.669 19 13q0-2.9-2.05-4.95T12 6q-.6 0-1.313.125q-.714.125-1.343.4l-.75-.75q.784-.378 1.66-.577Q11.131 5 12 5q1.414 0 2.77.51q1.355.51 2.515 1.478l.738-.738q.14-.14.344-.15q.204-.01.364.15t.16.354q0 .194-.16.354l-.739.738q.97 1.16 1.489 2.521Q20 11.58 20 13q0 .858-.195 1.732t-.586 1.668ZM12.5 9.68v-.795q0-.213-.144-.357T12 8.385q-.15 0-.278.1t-.176.242l.954.954ZM12 21q-1.649 0-3.108-.626q-1.46-.626-2.55-1.716q-1.09-1.09-1.716-2.55Q4 14.648 4 13q0-1.538.549-2.936q.55-1.397 1.597-2.502L2.985 4.4q-.14-.14-.15-.344q-.01-.204.15-.364t.353-.16q.195 0 .354.16l16.616 16.616q.14.14.15.344q.01.204-.15.363q-.16.16-.354.16t-.354-.16l-2.162-2.161q-1.065 1.01-2.49 1.578Q13.52 21 12 21Zm0-1q1.282 0 2.502-.488q1.221-.489 2.211-1.377l-9.86-9.86q-.888.952-1.37 2.163Q5 11.65 5 13q0 2.9 2.05 4.95T12 20ZM9.885 2.5q-.213 0-.357-.144q-.143-.144-.143-.357t.143-.356q.144-.143.357-.143h4.23q.213 0 .357.144q.143.144.143.357t-.143.356q-.144.143-.357.143h-4.23Zm1.902 10.702Zm2.132-2.127Z"/></svg>