<svg xmlns="http://www.w3.org/2000/svg" width="200" height="200" viewBox="0 0 24 24"><path fill="currentColor" d="M8.965 16.694V8.331H6.483q-.196 0-.347-.139t-.151-.334t.15-.335t.348-.138h5.96q.195 0 .334.138t.138.335t-.138.334q-.139.139-.335.139H9.935v8.363q0 .203-.142.341t-.34.138t-.343-.138t-.145-.34m6.27-5.337h-.914q-.18 0-.308-.13t-.128-.31t.128-.307t.308-.126h.914V8.769q0-.195.132-.327q.133-.132.328-.132t.327.132t.132.327v1.716h1.413q.181 0 .309.128t.128.311t-.128.308t-.309.126h-1.413v3.815q0 .575.349.958t.857.382h.122q.053 0 .122-.019q.16-.044.285.084t.126.309q0 .196-.12.328t-.306.157q-.072.013-.149.022q-.077.01-.144.01q-.888 0-1.475-.6q-.586-.598-.586-1.492z"/></svg>