<svg xmlns="http://www.w3.org/2000/svg" width="200" height="200" viewBox="0 0 24 24"><path fill="currentColor" d="M7 17q-2.083 0-3.542-1.457Q2 14.086 2 12.005q0-2.082 1.458-3.543Q4.917 7 7 7h10q2.083 0 3.542 1.457Q22 9.914 22 11.995q0 2.082-1.458 3.543Q19.083 17 17 17H7Zm0-1h10q1.65 0 2.825-1.175T21 12q0-1.65-1.175-2.825T17 8H7Q5.35 8 4.175 9.175T3 12q0 1.65 1.175 2.825T7 16Zm-.002-1.5q1.04 0 1.771-.729q.731-.728.731-1.769q0-1.04-.729-1.771Q8.043 9.5 7.002 9.5q-1.04 0-1.771.729q-.731.728-.731 1.769t.729 1.771q.728.731 1.769.731ZM12 12Z"/></svg>