<svg xmlns="http://www.w3.org/2000/svg" width="200" height="200" viewBox="0 0 24 24"><path fill="currentColor" d="M5.338 11.8q.737-2.246 2.576-4.341q1.84-2.096 3.551-3.653q.218-.212.535-.212q.317 0 .535.212q1.711 1.557 3.55 3.653q1.84 2.095 2.577 4.341H5.338Zm13.627 2.4q-.052.494-.2.957q-.15.462-.39.876l-4.423 4.404q-.414.24-.866.376q-.453.137-.942.164l6.821-6.777Zm-4.382-.4h1.446l-6.677 6.658q-.267-.087-.516-.192q-.25-.104-.48-.264l6.227-6.202Zm-4.764 0h1.446l-4.648 4.648q-.182-.196-.328-.398t-.285-.435L9.819 13.8Zm-4.75 0h1.446l-1.384 1.385q-.085-.348-.093-.693q-.01-.344.031-.692Z"/></svg>