<svg xmlns="http://www.w3.org/2000/svg" width="200" height="200" viewBox="0 0 24 24"><path fill="currentColor" d="M16.5 20q1.45 0 2.475-1.025T20 16.5v-2h-7v2q0 1.45 1.025 2.475T16.5 20Zm-3.494-6.5H16v-3.446q-1.315.179-2.138 1.146q-.822.967-.856 2.3Zm3.994 0h2.994q-.034-1.333-.856-2.3T17 10.054V13.5Zm-.497 7.5q-1.88 0-3.191-1.31Q12 18.383 12 16.5v-3q0-1.882 1.308-3.19Q14.616 9 16.497 9t3.191 1.31Q21 11.617 21 13.5v3q0 1.882-1.308 3.19Q18.384 21 16.503 21ZM4 18V6v12Zm-1 1V5h18v3.304q-.233-.206-.473-.391q-.24-.186-.527-.351V6H4v12h5.785q.067.275.143.515q.076.24.172.485H3Z"/></svg>