<svg xmlns="http://www.w3.org/2000/svg" width="200" height="200" viewBox="0 0 24 24"><path fill="currentColor" d="M14.671 21q-.504 0-.948-.187t-.811-.553l-4.35-4.337l.575-.6q.234-.235.542-.292q.308-.058.634.029l2.033.461V8.52q0-.213.143-.356t.357-.144t.357.144t.143.356v8.325l-3.238-.815l3.498 3.536q.227.227.488.331t.577.104h3.483q1.036 0 1.768-.732t.732-1.768v-3.173q0-.214.143-.357t.357-.143t.357.143t.143.357V17.5q0 1.458-1.021 2.479T18.153 21zm.444-6.423v-4.02q0-.213.144-.356t.356-.143t.357.143t.143.357v4.019zm2.77 0v-2.635q0-.213.143-.356t.357-.144t.356.144t.144.356v2.635zM18.154 20h-4.548zM4.615 18q-.69 0-1.152-.462T3 16.385V5.615q0-.69.463-1.152T4.615 4h13.77q.69 0 1.152.463T20 5.615v3.443h-1V5.615q0-.23-.192-.423T18.385 5H4.615q-.23 0-.423.192T4 5.615v10.77q0 .23.192.423t.423.192h1.8l.995 1z"/></svg>