<svg xmlns="http://www.w3.org/2000/svg" width="200" height="200" viewBox="0 0 24 24"><path fill="currentColor" d="M14.668 21q-.5 0-.945-.187t-.812-.55l-3.803-3.794q-.218-.217-.22-.543t.214-.568l.035-.035q.234-.235.542-.292q.308-.058.634.029l2.033.461V8.52q0-.212.144-.356t.357-.144t.356.144t.143.356v7.289q0 .384-.31.633t-.696.144l-2.232-.556l3.498 3.536q.227.227.488.331t.577.104h3.483q1.031 0 1.765-.734t.735-1.766v-3.173q0-.213.144-.356q.144-.144.357-.144t.356.144t.143.356V17.5q0 1.458-1.021 2.479T18.153 21zm.947-6.423q-.213 0-.356-.144t-.144-.356v-3.52q0-.212.144-.356t.357-.143t.356.143t.143.357v3.519q0 .212-.144.356t-.356.144m2.769 0q-.213 0-.356-.144t-.143-.356v-2.135q0-.212.144-.356q.143-.144.356-.144t.356.144t.144.356v2.135q0 .212-.144.356t-.357.144M18.154 20h-4.548zM4.615 18q-.69 0-1.152-.462T3 16.385V5.615q0-.69.463-1.152T4.615 4h13.77q.69 0 1.152.463T20 5.615v2.943q0 .212-.144.356t-.357.144t-.356-.144T19 8.558V5.615q0-.23-.192-.423T18.385 5H4.615q-.23 0-.423.192T4 5.615v10.77q0 .23.192.423t.423.192h1.8q.213 0 .357.144t.143.357t-.143.356t-.357.143z"/></svg>