<svg xmlns="http://www.w3.org/2000/svg" width="200" height="200" viewBox="0 0 24 24"><path fill="currentColor" d="M4.615 18q-.69 0-1.152-.462T3 16.385V5.615q0-.69.463-1.152T4.615 4h13.77q.69 0 1.152.463T20 5.615v3.443h-1V5.615q0-.23-.192-.423T18.385 5H4.615q-.23 0-.423.192T4 5.615v10.77q0 .23.192.423t.423.192h1.8l.995 1zm10.056 3q-.504 0-.948-.187t-.811-.553l-4.35-4.337l.575-.6q.234-.235.542-.292q.308-.058.634.029l2.033.461V8.52q0-.213.143-.356t.357-.144t.357.144t.143.356v5.808h1.77v-3.77q0-.213.143-.356t.356-.143t.357.143t.143.357v3.769h1.77v-2.385q0-.213.143-.356t.357-.144t.356.144t.144.356v2.385h1.769q0-.214.143-.357t.357-.143t.357.143t.143.357V17.5q0 1.458-1.021 2.479T18.153 21z"/></svg>