<svg xmlns="http://www.w3.org/2000/svg" width="200" height="200" viewBox="0 0 24 24"><path fill="currentColor" d="m11.938 20.462l3.858-10.154h1.754l3.858 10.154h-1.754l-.896-2.589h-4.12l-.907 2.589h-1.793Zm3.224-4.07h3.023l-1.481-4.18h-.062l-1.48 4.18Zm-9.893 1.531l-1.207-1.208l4.28-4.28q-.796-.877-1.393-1.83q-.597-.951-1.045-1.99h1.754q.392.766.818 1.366q.426.6 1.036 1.284q.946-1.027 1.565-2.087T12.1 6.923H2.73V5.231h5.924V3.538h1.692v1.693h5.923v1.692h-2.477q-.448 1.487-1.204 2.902q-.755 1.415-1.869 2.66l2.016 2.065l-.635 1.742l-2.6-2.6l-4.23 4.231Z"/></svg>