<svg xmlns="http://www.w3.org/2000/svg" width="200" height="200" viewBox="0 0 24 24"><path fill="currentColor" d="m14.638 17.873l-.72 2.045q-.081.232-.295.388t-.471.156q-.442 0-.697-.355q-.255-.355-.086-.778l3.216-8.496q.105-.233.307-.38q.202-.145.46-.145h.643q.257 0 .46.148t.307.38l3.215 8.533q.17.402-.073.747q-.242.346-.66.346q-.273 0-.481-.15q-.21-.149-.296-.41l-.702-2.029h-4.127Zm.524-1.48h3.023l-1.481-4.181h-.062l-1.48 4.18Zm-5.662-2.7l-3.627 3.626q-.256.256-.604.256t-.604-.256q-.255-.256-.255-.604t.255-.603l3.677-3.677q-.796-.885-1.393-1.833T5.904 8.615h1.754q.392.766.818 1.366q.426.6 1.036 1.284q.946-1.027 1.565-2.087T12.1 6.923H3.575q-.359 0-.602-.243t-.242-.603q0-.361.243-.605t.603-.244h5.077v-.85q0-.36.243-.6t.603-.24q.36 0 .604.244t.243.603v.846h5.083q.36 0 .6.243t.24.603q0 .36-.244.603q-.243.243-.603.243h-1.629q-.45 1.487-1.206 2.901q-.756 1.415-1.869 2.66l2.016 2.066l-.635 1.742l-2.6-2.6Z"/></svg>