<svg xmlns="http://www.w3.org/2000/svg" width="200" height="200" viewBox="0 0 24 24"><path fill="currentColor" d="M5 17V5H2.5V4H6v12h15v1H5Zm1.442 3.885q-.613 0-1.037-.424q-.424-.424-.424-1.038q0-.613.424-1.037q.424-.424 1.037-.424q.614 0 1.038.424q.424.424.424 1.037q0 .614-.424 1.038q-.424.424-1.038.424ZM7.77 14.23V9.769h4.462v4.462H7.769Zm1-1h2.462v-2.462H8.769v2.462Zm6 1V9.769h4.462v4.462H14.77Zm1-1h2.462v-2.462H15.77v2.462Zm3.748 7.654q-.611 0-1.026-.424q-.414-.424-.414-1.038q0-.613.414-1.037q.415-.424 1.026-.424q.612 0 1.047.424q.436.424.436 1.037q0 .614-.436 1.038q-.435.424-1.047.424ZM8.77 13.23h2.462H8.77Zm7 0h2.462h-2.462Z"/></svg>