<svg xmlns="http://www.w3.org/2000/svg" width="200" height="200" viewBox="0 0 24 24"><path fill="currentColor" d="M20.767 17.167L7.6 4h11.785q.69 0 1.152.463q.463.462.463 1.152v10.77q0 .2-.057.399q-.056.199-.176.383ZM4.81 4.04v1.416L2.515 3.162q-.14-.14-.15-.345q-.01-.204.15-.363q.16-.16.354-.16t.354.16L21.2 20.43q.14.14.15.344q.01.204-.15.363q-.16.16-.354.16t-.354-.16L17.354 18h-2.316v1.192q0 .348-.23.578q-.23.23-.577.23H9.808q-.348 0-.578-.23q-.23-.23-.23-.578V18H4.615q-.69 0-1.152-.462Q3 17.075 3 16.385V5.615q0-.713.463-1.144q.462-.43.962-.43h.385Z"/></svg>