<svg xmlns="http://www.w3.org/2000/svg" width="200" height="200" viewBox="0 0 24 24"><path fill="currentColor" d="M9.665 14.5h.947l1.03-2.608h3.727L16.4 14.5h.973l-3.554-9h-.638l-3.516 9Zm2.273-3.408l1.493-4.019h.1l1.53 4.02h-3.123ZM8.115 17q-.69 0-1.152-.462q-.463-.463-.463-1.153V4.615q0-.69.463-1.152Q7.425 3 8.114 3h10.77q.69 0 1.152.463q.463.462.463 1.152v10.77q0 .69-.462 1.153q-.463.462-1.153.462H8.115Zm0-1h10.77q.23 0 .423-.192q.192-.193.192-.423V4.615q0-.23-.192-.423Q19.115 4 18.885 4H8.115q-.23 0-.423.192q-.192.193-.192.423v10.77q0 .23.192.423q.193.192.423.192Zm-3 4q-.69 0-1.152-.462q-.463-.463-.463-1.153V6.615h1v11.77q0 .23.192.423q.193.192.423.192h11.77v1H5.115ZM7.5 4v12V4Z"/></svg>