<svg xmlns="http://www.w3.org/2000/svg" width="200" height="200" viewBox="0 0 24 24"><path fill="currentColor" d="M12.35 19.865q-.654 0-1.267-.249q-.614-.249-1.112-.716l-6.986-6.53q-.14-.135-.15-.315t.096-.345q.14-.195.353-.225t.39.14l6.98 6.594q.358.333.807.509t.914.176q.377 0 .72-.097t.624-.28l7.044-4.45q.231-.152.474-.015t.244.423q0 .12-.058.23t-.167.177l-7.025 4.425q-.418.262-.888.405t-.993.143m.688-2.807q.31 0 .54-.23t.23-.54q0-.107-.254-.52l3.473-2.168q.067.238.27.387t.453.148q.31 0 .54-.23t.23-.54q0-.292-.216-.519t-.508-.244h-.038q.044-.07.056-.144t.013-.17q0-.31-.23-.539t-.54-.23t-.539.23t-.23.54q0 .1.252.55l-3.473 2.142q-.067-.225-.266-.372t-.455-.147q-.31 0-.54.23t-.23.539q0 .292.216.519t.546.244q-.044.07-.056.144t-.013.15q0 .31.23.54t.54.23m.144-5.562q1.034-1.258 2.103-1.897t3.249-1.222q.627-.17 1.147-.329t1.003-.348q.188-.067.364.009t.25.258q.078.183.002.371q-.076.189-.264.256q-.495.194-1.042.354t-1.185.335q-2.216.588-3.32 1.311t-2.063 2.244q-.067.085-.167.152t-.26.068q-.158 0-.288-.11t-.168-.28q-.419-1.758-1.786-3.492T7.55 6.31q-.177-.104-.226-.29q-.049-.185.074-.362q.129-.177.34-.225q.21-.048.387.061q1.779 1.071 3.145 2.694t1.913 3.308m-9.93-.26q1.647 1.56 3.682 3.473t3.719 3.51q.358.333.807.509t.914.176q.377 0 .72-.097t.624-.28l3.846-2.424q2.175-1.372 3.916-2.476l-7.762 4.9q-.282.183-.625.28t-.719.097q-.465 0-.914-.176q-.45-.176-.807-.509z"/></svg>