<svg xmlns="http://www.w3.org/2000/svg" width="200" height="200" viewBox="0 0 24 24"><path fill="currentColor" d="M3 18V6h18v12H3Zm2.5-4.115h2.615q.31 0 .54-.23q.23-.23.23-.54V11.52q0-.31-.23-.54q-.23-.229-.54-.229h-1.73V9.385h2.5V8.5H5.5v3.135H8V13H5.5v.885Zm6.192 1.423h6.616v-.166q0-.875-.88-1.354T15 13.308q-1.55 0-2.429.48q-.879.48-.879 1.354v.166ZM15 11.692q.633 0 1.066-.433q.434-.434.434-1.067q0-.632-.434-1.066q-.433-.434-1.066-.434t-1.066.434q-.434.434-.434 1.066q0 .633.434 1.067q.433.433 1.066.433ZM4 17h16V7H4v10Zm0 0V7v10Z"/></svg>