<svg xmlns="http://www.w3.org/2000/svg" width="200" height="200" viewBox="0 0 24 24"><path fill="currentColor" d="M16.308 19.538q.226 0 .38-.154t.154-.38t-.154-.38q-.154-.155-.38-.155t-.38.154q-.155.155-.155.38t.154.381q.155.154.38.154Zm0-5.769q-.468 0-.862.238q-.394.237-.644.656q-.08.131-.018.26q.063.13.21.19q.125.06.266.014q.14-.046.227-.171q.144-.194.355-.323q.21-.13.464-.13q.365 0 .622.242t.257.577q0 .284-.17.49q-.169.207-.369.407q-.15.15-.293.31t-.268.34q-.095.131-.123.294q-.027.162-.027.32q0 .204.096.362t.267.159q.171 0 .277-.127t.106-.296q0-.266.15-.472q.15-.205.35-.399q.3-.266.525-.615t.225-.764q0-.659-.478-1.11q-.477-.452-1.145-.452Zm0 6.923q-1.671 0-2.836-1.164t-1.164-2.836q0-1.67 1.164-2.835t2.836-1.165q1.67 0 2.835 1.165t1.165 2.835q0 1.671-1.165 2.836q-1.164 1.164-2.835 1.164ZM13.8 8H17l-4-4l4 4l-4-4v3.2q0 .34.23.57q.23.23.57.23ZM5.615 21q-.666 0-1.14-.475Q4 20.051 4 19.385V4.615q0-.666.475-1.14Q4.949 3 5.615 3h7.214q.331 0 .632.13q.3.132.518.349L17.52 7.02q.217.217.348.518q.131.3.131.632v2.36q-.423-.131-.837-.177q-.413-.046-.855-.046q-1.445 0-2.688.585T11.504 12.5H8q-.213 0-.356.144q-.144.144-.144.357t.144.356q.144.143.356.143h2.79q-.378.667-.605 1.427q-.227.76-.245 1.573H8q-.213 0-.356.144q-.144.144-.144.357t.144.356q.144.143.356.143h1.979q.136.97.546 1.864q.41.894 1.08 1.636h-5.99Z"/></svg>