<svg xmlns="http://www.w3.org/2000/svg" width="200" height="200" viewBox="0 0 24 24"><path fill="currentColor" d="M5 4v6.365v-.057V20V4v4v-4Zm3 9.5h2.79q.16-.287.34-.527q.18-.24.38-.473H8q-.213 0-.356.144q-.144.144-.144.357t.144.356q.144.143.356.143Zm0 4h1.979q-.037-.25-.046-.5q-.01-.25.007-.5H8q-.213 0-.356.144q-.144.144-.144.357t.144.356q.144.143.356.143ZM5.618 21q-.693 0-1.155-.462T4 19.385V4.615q0-.69.463-1.152Q4.925 3 5.615 3h7.214q.331 0 .632.13q.3.132.518.349L17.52 7.02q.217.217.348.518q.131.3.131.632v2.36q-.244-.073-.485-.11q-.24-.036-.515-.056V8h-3.2q-.34 0-.57-.23T13 7.2V4H5.615q-.23 0-.423.192Q5 4.385 5 4.615v14.77q0 .23.192.423q.193.192.423.192h5.233q.16.287.35.527q.189.24.408.473H5.618Zm10.69-8.308q1.67 0 2.835 1.165t1.165 2.835q0 1.671-1.165 2.836q-1.164 1.164-2.835 1.164t-2.836-1.164q-1.164-1.165-1.164-2.836q0-1.67 1.164-2.835t2.836-1.165Zm0 6.846q.226 0 .38-.154t.154-.38t-.154-.38q-.154-.155-.38-.155t-.38.154q-.155.155-.155.38t.154.381q.155.154.38.154Zm0-5.769q-.468 0-.862.238q-.394.237-.644.656q-.08.131-.018.26q.063.13.21.19q.125.06.266.014q.14-.046.227-.171q.144-.194.355-.323q.21-.13.464-.13q.365 0 .622.242t.257.577q0 .284-.17.49q-.169.207-.369.407q-.15.15-.293.31t-.268.34q-.095.131-.123.294q-.027.162-.027.32q0 .204.096.362t.267.159q.171 0 .277-.127t.106-.296q0-.266.15-.472q.15-.205.35-.399q.3-.266.525-.615t.225-.764q0-.659-.478-1.11q-.477-.452-1.145-.452Z"/></svg>