<svg xmlns="http://www.w3.org/2000/svg" width="200" height="200" viewBox="0 0 24 24"><path fill="currentColor" d="M12 21q-1.863 0-3.506-.71t-2.857-1.927Q4.42 17.148 3.71 15.506Q3 13.863 3 12q0-1.608.521-3.024t1.456-2.578L2.24 3.662q-.146-.147-.155-.348q-.01-.2.155-.366q.166-.165.357-.165q.191 0 .357.165l18.515 18.515q.146.147.156.345q.01.198-.156.363q-.165.166-.356.166t-.357-.166l-3.154-3.148q-1.162.935-2.578 1.456Q13.608 21 12 21Zm7.625-4.192l-4.979-4.985l1.958-1.958q.14-.14.15-.344q.01-.204-.15-.363q-.166-.166-.357-.166t-.35.166l-1.959 1.963l-6.746-6.746q1.046-.66 2.26-1.017Q10.668 3 12 3q1.863 0 3.506.71t2.857 1.927q1.216 1.215 1.926 2.857Q21 10.137 21 12q0 1.333-.358 2.547q-.357 1.215-1.017 2.26ZM7.358 12.704l2.638 2.638q.242.243.566.243q.323 0 .565-.243l1.4-1.4l-.708-.707l-1.257 1.257l-2.497-2.496q-.14-.14-.344-.15q-.204-.01-.363.15q-.16.16-.16.354t.16.354Z"/></svg>