<svg xmlns="http://www.w3.org/2000/svg" width="200" height="200" viewBox="0 0 24 24"><path fill="currentColor" d="M12 21q-1.868 0-3.51-.709t-2.857-1.923q-1.215-1.215-1.924-2.858Q3 13.868 3 12q0-1.608.521-3.024t1.456-2.578L2.24 3.662q-.146-.147-.155-.348q-.01-.2.155-.366q.166-.165.357-.165q.191 0 .357.165l18.515 18.515q.146.147.156.345q.01.198-.156.363q-.165.166-.356.166t-.357-.166l-3.154-3.148q-1.162.935-2.578 1.456Q13.608 21 12 21Zm0-1q1.394 0 2.628-.454t2.249-1.248l-4.356-4.356l-1.394 1.395q-.239.242-.566.242t-.57-.242l-2.633-2.633q-.14-.14-.15-.344q-.01-.204.15-.364t.354-.16q.194 0 .353.16l2.497 2.496l1.251-1.257l-6.111-6.112q-.794 1.015-1.248 2.25Q4 10.605 4 12q0 3.325 2.337 5.663T12 20Zm7.625-3.192l-.744-.745q.544-.894.832-1.912Q20 13.13 20 12q0-3.325-2.337-5.663T12 4q-1.125 0-2.147.288q-1.022.287-1.916.831l-.745-.744q1.05-.656 2.262-1.015Q10.667 3 12 3q1.868 0 3.51.709t2.857 1.924q1.215 1.215 1.924 2.857Q21 10.133 21 12q0 1.333-.36 2.546q-.36 1.213-1.015 2.262Zm-4.979-4.985l-.708-.708l1.958-1.957q.14-.14.344-.15q.204-.01.364.15t.16.354q0 .194-.16.353l-1.958 1.958Zm-1.234-1.235Zm-2.12 2.12Z"/></svg>