<svg xmlns="http://www.w3.org/2000/svg" width="200" height="200" viewBox="0 0 24 24"><path fill="currentColor" d="M12 11L4.82 6.32q-.195-.122-.402-.045q-.206.077-.264.288q-.058.149-.016.307q.043.159.185.245l7.229 4.714q.214.13.45.13q.235 0 .446-.13l7.229-4.714q.142-.086.194-.245t-.025-.307q-.058-.211-.264-.278q-.207-.068-.401.053L12 11Zm7 11q-1.671 0-2.836-1.164T15 18q0-1.671 1.164-2.836T19 14q1.671 0 2.836 1.164T23 18q0 1.671-1.164 2.836T19 22Zm-1.962-3.615h3.928q.157 0 .269-.116q.111-.115.111-.269t-.115-.27q-.116-.115-.27-.115h-3.927q-.157 0-.269.116q-.111.115-.111.269t.115.27q.116.115.27.115ZM4.615 19q-.666 0-1.14-.475Q3 18.051 3 17.385V6.615q0-.666.475-1.14Q3.949 5 4.615 5h14.77q.666 0 1.14.475q.475.474.475 1.14v5.739q-.488-.177-.988-.266Q19.512 12 19 12q-2.507 0-4.254 1.746T13 18q0 .25.017.5t.09.5H4.616Z"/></svg>