<svg xmlns="http://www.w3.org/2000/svg" width="200" height="200" viewBox="0 0 24 24"><path fill="currentColor" d="M12 12.115L4 6.904v10.48q0 .27.173.443t.442.173H13q0 .275.017.503q.018.228.09.497H4.616q-.69 0-1.152-.462Q3 18.075 3 17.385V6.615q0-.69.463-1.152Q3.925 5 4.615 5h14.77q.69 0 1.152.463q.463.462.463 1.152v5.739q-.2-.09-.463-.154q-.262-.063-.537-.12V6.905l-8 5.211ZM12 11l7.692-5H4.308L12 11Zm7 11q-1.671 0-2.836-1.164T15 18q0-1.671 1.164-2.836T19 14q1.671 0 2.836 1.164T23 18q0 1.671-1.164 2.836T19 22Zm-2.346-3.615h4.692v-.77h-4.692v.77ZM4 18v-4.385v.058V6v12Z"/></svg>