<svg xmlns="http://www.w3.org/2000/svg" width="200" height="200" viewBox="0 0 24 24"><path fill="currentColor" d="M12.02 20q-1.664 0-3.119-.626q-1.455-.626-2.542-1.713q-1.088-1.088-1.714-2.543Q4.02 13.663 4.02 12q0-1.402.45-2.63q.448-1.23 1.233-2.241L3.094 4.52q-.146-.146-.156-.347q-.01-.2.156-.366q.166-.166.357-.166t.357.166l16.384 16.384q.146.146.156.345q.01.198-.156.363q-.165.165-.356.165t-.357-.165l-2.57-2.563q-1.03.784-2.269 1.224q-1.238.439-2.62.439Zm0-1q1.168 0 2.227-.376t1.924-1.026l-9.77-9.77q-.65.885-1.015 1.934q-.367 1.05-.367 2.238q0 2.925 2.038 4.963T12.019 19Zm0-14q-.92 0-1.767.213q-.847.212-1.597.631l-.72-.719q.897-.535 1.924-.83Q10.887 4 12.02 4q1.722 0 3.281.712q1.559.711 2.718 1.984V4.808q0-.214.144-.357q.143-.143.356-.143q.214 0 .357.143t.143.357v2.846q0 .348-.23.578q-.23.23-.577.23h-2.847q-.213 0-.356-.144t-.144-.356q0-.214.144-.357q.143-.143.356-.143h1.981q-1.044-1.15-2.41-1.806Q13.572 5 12.02 5Zm.5 4.708l-1-1V7.5q0-.213.143-.357T12.018 7q.214 0 .357.143q.143.144.143.357v2.208Zm6.374 6.375l-.738-.739q.246-.44.412-.906q.167-.465.297-.953q.068-.227.232-.353q.165-.126.372-.095q.233.03.339.218t.044.408q-.137.593-.366 1.213q-.23.62-.592 1.207Z"/></svg>