<svg xmlns="http://www.w3.org/2000/svg" width="200" height="200" viewBox="0 0 24 24"><path fill="currentColor" d="M17.25 17.577q-.213 0-.357-.143t-.143-.357V10.53l-1.746 1.746q-.14.14-.344.15t-.364-.15t-.16-.354t.16-.354l2.389-2.388q.242-.243.565-.243t.565.243l2.389 2.388q.14.14.15.344t-.15.364t-.354.16t-.354-.16L17.75 10.53v6.546q0 .213-.143.357t-.357.143m-11.158-2.96l-.915 2.635q-.062.16-.18.242t-.28.083q-.263 0-.41-.215t-.05-.466l3.374-9.22q.061-.159.196-.244t.294-.086h.367q.16 0 .296.085t.198.245l3.427 9.208q.099.25-.058.472t-.419.22q-.162 0-.296-.094t-.196-.255l-.917-2.61zm.345-.907h3.755L8.337 8.487h-.062z"/></svg>