<svg xmlns="http://www.w3.org/2000/svg" width="200" height="200" viewBox="0 0 24 24"><path fill="currentColor" d="M17.038 17.577q-.213 0-.356-.143t-.144-.357V10.53l-1.746 1.746q-.14.14-.344.15t-.363-.15t-.16-.354t.16-.354l2.388-2.388q.242-.243.565-.243t.566.243l2.388 2.388q.14.14.15.344t-.15.364t-.354.16t-.353-.16l-1.747-1.746v6.546q0 .213-.143.357t-.357.143m-10.792-2.96l-.915 2.635q-.062.16-.181.242t-.279.083q-.263 0-.41-.215q-.148-.214-.05-.466l3.374-9.22q.061-.159.196-.244t.294-.086h.367q.16 0 .295.086t.196.245l3.411 9.225q.098.252-.058.463t-.415.212q-.16 0-.291-.095t-.193-.255l-.91-2.61zm.344-.907h3.756L8.49 8.487h-.06z"/></svg>