<svg xmlns="http://www.w3.org/2000/svg" width="200" height="200" viewBox="0 0 24 24"><path fill="currentColor" d="M14.865 6.73q-.212 0-.356-.143t-.144-.357t.144-.356t.356-.143h6q.213 0 .357.144q.143.144.143.356q0 .213-.143.357q-.144.143-.357.143zm0 3.77q-.212 0-.356-.144T14.365 10t.144-.356t.356-.143h6q.213 0 .357.144q.143.144.143.357t-.143.356t-.357.143zm0 3.77q-.212 0-.356-.145q-.144-.144-.144-.356q0-.213.144-.356t.356-.144h6q.213 0 .357.144q.143.144.143.357t-.143.356t-.357.143zm-6.995-.655q-.928 0-1.582-.649t-.653-1.577t.649-1.581t1.577-.654t1.581.65q.654.648.654 1.576t-.65 1.582q-.648.653-1.576.653m-5.235 4.423v-.323q0-.326.163-.622t.44-.474q1.049-.598 2.2-.916q1.15-.318 2.427-.318t2.428.318t2.2.916q.276.18.44.474t.163.622v.323q0 .344-.232.576t-.576.232H3.442q-.343 0-.575-.232t-.232-.576"/></svg>