<svg xmlns="http://www.w3.org/2000/svg" width="200" height="200" viewBox="0 0 24 24"><path fill="currentColor" d="M11.5 4.615H8q-.213 0-.356-.144q-.144-.144-.144-.356q0-.213.144-.356T8 3.615h8q.213 0 .356.144t.144.357t-.144.356t-.356.143h-3.5v2.5q0 .213-.144.357q-.144.143-.357.143t-.356-.143t-.143-.357zm-7 14.795v-5.05q0-.213.144-.357q.144-.143.357-.143t.356.143t.143.357v.025h4v-4h-.025q-.213 0-.356-.144t-.144-.357t.144-.356t.356-.143h5.05q.213 0 .356.144q.144.143.144.356t-.144.356t-.356.144H14.5v4h4v-.025q0-.213.144-.357q.144-.143.357-.143t.356.143t.143.357v5.05q0 .212-.144.356T19 19.91t-.356-.144t-.143-.356v-.025h-13v.025q0 .213-.144.356q-.144.144-.357.144t-.356-.144t-.143-.356"/></svg>