<svg xmlns="http://www.w3.org/2000/svg" width="200" height="200" viewBox="0 0 24 24"><path fill="currentColor" d="M4.808 16q-.348 0-.578-.23q-.23-.23-.23-.578V8.808q0-.348.23-.578q.23-.23.578-.23h14.384q.348 0 .578.23q.23.23.23.578v1.315q-.177-.042-.36-.054q-.182-.011-.37-.011q-2.16 0-3.686 1.523q-1.526 1.523-1.526 3.688q0 .189.011.371q.012.183.054.36H4.808Zm14.461-.017l-1.765 1.76q-.14.14-.342.152q-.2.013-.366-.153q-.16-.16-.16-.354q0-.194.16-.353l1.766-1.766l-1.766-1.765q-.14-.14-.15-.344q-.01-.204.15-.364t.354-.16q.194 0 .354.16l1.765 1.766l1.766-1.766q.14-.14.341-.153q.2-.012.366.153q.16.16.16.354t-.16.354l-1.76 1.765l1.76 1.766q.14.14.153.341q.013.2-.153.366q-.16.16-.354.16q-.194 0-.353-.16l-1.766-1.76Z"/></svg>