<svg xmlns="http://www.w3.org/2000/svg" width="200" height="200" viewBox="0 0 24 24"><path fill="currentColor" d="M4.808 16q-.344 0-.576-.23Q4 15.54 4 15.2V8.8q0-.34.232-.57q.232-.23.576-.23h14.384q.344 0 .576.232q.232.232.232.576v.825q-.125-.012-.244-.015q-.118-.003-.256-.003q-2.385 0-4.038 1.654q-1.654 1.654-1.654 4.039q0 .179.006.347q.006.168.03.345H4.808ZM19 16h-2.5q-.213 0-.356-.144Q16 15.712 16 15.5t.144-.356q.144-.143.356-.143H19v-2.5q0-.213.144-.356T19.5 12q.212 0 .356.144q.143.144.143.356V15h2.5q.213 0 .356.144T23 15.5q0 .212-.144.356q-.143.143-.356.143H20v2.5q0 .213-.144.356q-.144.144-.357.144q-.212 0-.356-.144Q19 18.713 19 18.5V16Z"/></svg>