<svg xmlns="http://www.w3.org/2000/svg" width="200" height="200" viewBox="0 0 24 24"><path fill="currentColor" d="M14.058 16h-9.25q-.344 0-.576-.23Q4 15.54 4 15.2V8.8q0-.34.232-.57q.232-.23.576-.23h14.384q.344 0 .576.232q.232.232.232.576v1.25h-1V9H5v6h9.058v1ZM5 15V9v6Zm14.27.983l-1.766 1.76q-.14.14-.342.152q-.2.013-.37-.157q-.155-.155-.155-.35q0-.194.16-.353l1.765-1.766l-1.766-1.765q-.14-.14-.15-.344q-.01-.204.15-.364t.354-.16q.194 0 .354.16l1.765 1.766l1.766-1.766q.14-.14.341-.153q.2-.012.37.157q.156.156.156.35t-.16.354l-1.76 1.765l1.76 1.766q.14.14.153.341q.013.2-.157.37q-.155.156-.35.156q-.194 0-.353-.16l-1.766-1.76Z"/></svg>