<svg xmlns="http://www.w3.org/2000/svg" width="200" height="200" viewBox="0 0 24 24"><path fill="currentColor" d="M4.5 14.346q-.213 0-.356-.144Q4 14.058 4 13.845q0-.212.14-.356q.14-.143.335-.143H10.5q.213 0 .356.144t.144.357q0 .213-.14.356t-.335.143H4.5ZM4.5 18q-.213 0-.356-.144Q4 17.712 4 17.5t.14-.356q.14-.143.335-.143H10.5q.213 0 .356.144T11 17.5q0 .212-.14.356q-.14.143-.335.143H4.5Zm0-7.346q-.213 0-.356-.144T4 10.153q0-.213.14-.356t.335-.143H10.5q.213 0 .356.144q.144.144.144.357q0 .212-.14.356q-.14.143-.335.143H4.5ZM4.5 7q-.213 0-.356-.144T4 6.499q0-.212.14-.356Q4.28 6 4.475 6H10.5q.213 0 .356.144q.144.144.144.357q0 .212-.14.356q-.14.143-.335.143H4.5ZM15 7v10V7Zm-.192 11q-.344 0-.576-.232q-.232-.232-.232-.576V6.808q0-.344.232-.576q.232-.232.576-.232h4.384q.344 0 .576.232q.232.232.232.576v10.384q0 .344-.232.576q-.232.232-.576.232h-4.384ZM15 7v10h4V7h-4Z"/></svg>