<svg xmlns="http://www.w3.org/2000/svg" width="200" height="200" viewBox="0 0 24 24"><path fill="currentColor" d="M21 15.385q0 .592-.35 1.015q-.35.423-.887.552L18.812 16h.573q.23 0 .423-.192q.192-.193.192-.423v-6.77q0-.23-.192-.423Q19.615 8 19.385 8h-8.573l-1-1h9.573q.69 0 1.152.463q.463.462.463 1.16v6.762ZM17.502 11.5q-.415 0-.709-.291q-.293-.291-.293-.707q0-.415.291-.709q.291-.293.707-.293q.415 0 .709.291q.293.291.293.707q0 .415-.291.709q-.291.293-.707.293Zm-6.929.5Zm4.239 0ZM7.5 14.5v-2h-2v-1h2v-2h1v2h2v1h-2v2h-1ZM4.615 17q-.69 0-1.152-.462Q3 16.075 3 15.378V8.615q0-.696.465-1.158q.466-.463 1.162-.463h2.367L8 8H4.615q-.23 0-.423.192Q4 8.385 4 8.615v6.77q0 .23.192.423q.193.192.423.192h9.958L2.74 4.167l.714-.713l17.092 17.092l-.713.714l-4.26-4.26H4.615Z"/></svg>