<svg xmlns="http://www.w3.org/2000/svg" width="200" height="200" viewBox="0 0 24 24"><path fill="currentColor" d="M21 15.385q0 .592-.35 1.015q-.35.423-.887.552L18.812 16h.573q.23 0 .423-.192q.192-.193.192-.423v-6.77q0-.23-.192-.423Q19.615 8 19.385 8h-8.573l-1-1h9.573q.69 0 1.152.463q.463.462.463 1.16v6.762ZM17.502 11.5q-.415 0-.709-.291q-.293-.291-.293-.707q0-.415.291-.709q.291-.293.707-.293q.415 0 .709.291q.293.291.293.707q0 .415-.291.709q-.291.293-.707.293Zm-6.929.5Zm4.239 0Zm-7.312.5H6q-.213 0-.356-.144Q5.5 12.212 5.5 12t.144-.356Q5.788 11.5 6 11.5h1.5V10q0-.213.144-.356Q7.788 9.5 8 9.5t.356.144q.143.144.143.356v1.5H10q.213 0 .356.144q.144.144.144.357t-.144.356q-.143.143-.356.143H8.5V14q0 .213-.144.356q-.144.144-.357.144t-.356-.144Q7.5 14.213 7.5 14v-1.5ZM4.615 17q-.69 0-1.152-.462Q3 16.075 3 15.378V8.615q0-.696.465-1.158q.466-.463 1.162-.463h2.367L8 8H4.615q-.23 0-.423.192Q4 8.385 4 8.615v6.77q0 .23.192.423q.193.192.423.192h9.958L3.094 4.521q-.146-.146-.156-.347q-.01-.2.156-.366q.166-.166.357-.166t.357.166l16.384 16.384q.146.146.156.345q.01.198-.156.363q-.165.165-.356.165t-.357-.165L15.573 17H4.615Z"/></svg>