<svg xmlns="http://www.w3.org/2000/svg" width="200" height="200" viewBox="0 0 24 24"><path fill="currentColor" d="M4.615 17q-.69 0-1.152-.462Q3 16.075 3 15.378V8.615q0-.696.465-1.158q.466-.463 1.162-.463h2.367L14.5 14.5h-1.427L3.094 4.521q-.146-.146-.156-.347q-.01-.2.156-.366q.166-.166.357-.166t.357.166l16.384 16.384q.146.146.156.345q.01.198-.156.363q-.165.165-.356.165t-.357-.165L15.573 17H4.615ZM9.812 7h9.573q.69 0 1.152.463q.463.462.463 1.16v6.762q0 .592-.35 1.015q-.35.423-.887.552L9.812 7Zm7.69 2.5q-.415 0-.709.291q-.293.291-.293.707q0 .415.291.709q.291.293.707.293q.415 0 .709-.291q.293-.291.293-.707q0-.415-.291-.709q-.291-.293-.707-.293ZM7.5 12.5V14q0 .213.144.356q.144.144.357.144t.356-.144Q8.5 14.213 8.5 14v-1.5H10q.213 0 .356-.144q.144-.144.144-.357t-.144-.356Q10.213 11.5 10 11.5H8.5V10q0-.213-.144-.356q-.144-.144-.357-.144t-.356.144Q7.5 9.788 7.5 10v1.5H6q-.213 0-.356.144q-.144.144-.144.357t.144.356q.144.143.356.143h1.5Z"/></svg>