<svg xmlns="http://www.w3.org/2000/svg" width="200" height="200" viewBox="0 0 24 24"><path fill="currentColor" d="M17.538 12.73v2.118l-1-1V6.615q0-.269-.173-.442T15.923 6H8.69l-1-1h8.233q.69 0 1.153.463t.462 1.152v4.654l2.343-2.342q.192-.192.444-.096t.252.369v5.6q0 .273-.252.37q-.252.095-.444-.097l-2.343-2.342Zm1.504 7.882L2.773 4.342q-.14-.14-.15-.344q-.01-.204.15-.363q.16-.16.354-.16q.194 0 .354.16L19.75 19.904q.14.14.15.344q.01.204-.15.364t-.354.16q-.194 0-.354-.16Zm-6.38-10.64Zm-2.208 2.043Zm-5.57-6.977L5.847 6h-.692q-.27 0-.442.173q-.174.173-.174.442v10.77q0 .269.174.442t.442.173h10.77q.268 0 .441-.173t.173-.442v-.693l.962.962q-.096.575-.53.96q-.433.386-1.047.386H5.153q-.69 0-1.152-.463t-.463-1.152V6.615q0-.613.386-1.047q.386-.433.96-.53Z"/></svg>