<svg xmlns="http://www.w3.org/2000/svg" width="200" height="200" viewBox="0 0 24 24"><path fill="currentColor" d="M7.173 15.308h6.615v-.166q0-.792-.936-1.313q-.937-.521-2.371-.521q-1.435 0-2.371.52q-.937.522-.937 1.314v.166Zm3.308-3.616q.632 0 1.066-.433q.434-.434.434-1.067q0-.632-.434-1.066q-.434-.434-1.066-.434q-.633 0-1.067.434q-.433.434-.433 1.066q0 .633.433 1.067q.434.433 1.067.433ZM5.096 19q-.69 0-1.153-.463t-.462-1.152V6.615q0-.69.462-1.153Q4.406 5 5.096 5h10.77q.69 0 1.152.463t.463 1.152v4.654l3.038-3.038v7.538l-3.038-3.038v4.654q0 .69-.463 1.152q-.462.463-1.153.463H5.096Zm0-1h10.77q.269 0 .442-.173t.173-.442V6.615q0-.269-.173-.442T15.865 6H5.096q-.27 0-.442.173t-.173.442v10.77q0 .269.173.442t.442.173Zm-.615 0V6v12Z"/></svg>