<svg xmlns="http://www.w3.org/2000/svg" width="200" height="200" viewBox="0 0 24 24"><path fill="currentColor" d="M8.962 10H4.038q-.44 0-.739-.299Q3 9.4 3 8.96V4.039q0-.44.299-.739q.3-.299.74-.299h4.923q.44 0 .739.299q.299.3.299.74v4.923q0 .44-.299.739q-.3.299-.74.299ZM4 9h5V4H4v5Zm4.962 12H4.038q-.44 0-.739-.299q-.299-.3-.299-.74v-4.923q0-.44.299-.739q.3-.299.74-.299h4.923q.44 0 .739.299q.299.3.299.74v4.923q0 .44-.299.739q-.3.299-.74.299ZM4 20h5v-5H4v5Zm15.962-10h-4.924q-.44 0-.739-.299Q14 9.4 14 8.96V4.039q0-.44.299-.739q.3-.299.74-.299h4.923q.44 0 .739.299q.299.3.299.74v4.923q0 .44-.299.739q-.3.299-.74.299ZM15 9h5V4h-5v5Zm4.962 12h-4.924q-.44 0-.739-.299q-.299-.3-.299-.74v-4.923q0-.44.299-.739q.3-.299.74-.299h4.923q.44 0 .739.299q.299.3.299.74v4.923q0 .44-.299.739q-.3.299-.74.299ZM15 20h5v-5h-5v5ZM9 9Zm0 6Zm6-6Zm0 6Z"/></svg>