<svg xmlns="http://www.w3.org/2000/svg" width="200" height="200" viewBox="0 0 24 24"><path fill="currentColor" d="M21.038 18.904V5.096v13.808ZM2.962 9.174V5.095H6.98v4.077H2.96Zm4.788 0V5.095h3.865v4.077H7.75Zm4.635 0V5.095h3.865v4.077h-3.865Zm4.634 0V5.095h4.02v4.077h-4.02Zm0 4.884V9.942h4.02v4.116h-4.02Zm-4.634 0V9.942h3.865v4.116h-3.865Zm-4.635 0V9.942h3.865v4.116H7.75Zm-4.788 0V9.942H6.98v4.116H2.96Zm14.057 4.846v-4.077h4.02v4.077h-4.02Zm-4.634 0v-4.077h3.865v4.077h-3.865Zm-4.635 0v-4.077h3.865v4.077H7.75Zm-4.788 0v-4.077H6.98v4.077H2.96Z"/></svg>