<svg xmlns="http://www.w3.org/2000/svg" width="200" height="200" viewBox="0 0 24 24"><path fill="currentColor" d="m11.192 19.129l-4.884-2.837q-.38-.217-.594-.59q-.214-.373-.214-.808V9.221q0-.434.214-.808q.215-.373.594-.59l4.884-2.836q.38-.218.808-.218t.808.218l4.884 2.836q.38.217.594.59q.214.374.214.808v5.673q0 .435-.214.808q-.215.373-.594.59l-4.884 2.837q-.38.217-.808.217t-.808-.217Zm.308-.973v-5.831l-5-2.844v5.413q0 .154.077.289q.077.134.23.23l4.693 2.743Zm1 0l4.692-2.743q.154-.096.231-.23q.077-.135.077-.289V9.481l-5 2.844v5.83ZM3 7V4.615q0-.67.472-1.143Q3.944 3 4.615 3H7v1H4.615q-.269 0-.442.173T4 4.615V7H3Zm4 14H4.615q-.67 0-1.143-.472Q3 20.056 3 19.385V17h1v2.385q0 .269.173.442t.442.173H7v1Zm10 0v-1h2.385q.269 0 .442-.173t.173-.442V17h1v2.385q0 .67-.472 1.143q-.472.472-1.143.472H17Zm3-14V4.615q0-.269-.173-.442T19.385 4H17V3h2.385q.67 0 1.143.472q.472.472.472 1.143V7h-1Zm-8 4.465l4.988-2.882l-4.68-2.698q-.154-.097-.308-.097t-.308.097l-4.68 2.698L12 11.465Zm0 .53Zm0-.53Zm.5.86Zm-1 0Z"/></svg>