<svg xmlns="http://www.w3.org/2000/svg" width="200" height="200" viewBox="0 0 24 24"><path fill="currentColor" d="M13.82 11.008Zm-1.782 1.03ZM18.5 8.283v7.405L9.046 6.235L12 4.527l6.5 3.756Zm-13 7.543v-7.55l1.765-1.01l4.773 4.772l4.774 4.774L12 19.588l-6.5-3.762Zm7.94-5.197Zm-1.94 1.696Zm2.679-.958ZM12.5 12.5ZM9.785 6.973l3.655 3.656l3.548-2.046L12 5.712L9.785 6.973ZM11.5 18.156v-5.831l-5-2.844v5.76l5 2.915Zm6-3.468V9.481l-3.321 1.886l3.321 3.321Zm-5 3.468l3.573-2.083L12.5 12.5v5.656Zm8.604 4.375L19.574 21H17v-1h1.715v.142L3.823 5.25H4V7H3V4.427l-1.12-1.12l.714-.713l19.223 19.223l-.713.714ZM21 17v1.188l-1-1V17h1ZM7 3v1h-.188l-1-1H7Zm0 18H3v-4h1v3h3v1ZM20 7V4h-3V3h4v4h-1Z"/></svg>