<svg xmlns="http://www.w3.org/2000/svg" width="200" height="200" viewBox="0 0 24 24"><path fill="currentColor" d="M2.962 18.904V5.096h18.076v13.808H2.962Zm1-9.539H7.23V6.096H3.96v3.27Zm4.269 0H11.5V6.096H8.23v3.27Zm4.269 0h3.27V6.096H12.5v3.27Zm4.27 0h3.268V6.096H16.77v3.27Zm0 4.27h3.268v-3.27H16.77v3.27Zm-4.27 0h3.27v-3.27H12.5v3.27Zm-4.27 0h3.27v-3.27H8.23v3.27Zm-1-3.27H3.963v3.27H7.23v-3.27Zm9.54 7.539h3.268v-3.27H16.77v3.27Zm-4.27 0h3.27v-3.27H12.5v3.27Zm-4.27 0h3.27v-3.27H8.23v3.27Zm-4.268 0H7.23v-3.27H3.96v3.27Z"/></svg>