<svg xmlns="http://www.w3.org/2000/svg" width="200" height="200" viewBox="0 0 24 24"><path fill="currentColor" d="M20 11.865ZM4.808 9.615q-.344 0-.576-.232Q4 9.151 4 8.808V6.923q0-.343.232-.575q.232-.233.576-.233h1.884q.344 0 .576.233q.232.232.232.575v1.885q0 .343-.232.575q-.232.232-.576.232H4.808Zm4.077 0q-.344 0-.576-.232q-.232-.232-.232-.575V6.923q0-.343.232-.575q.232-.233.576-.233h10.307q.344 0 .576.233q.232.232.232.575v1.885q0 .343-.232.575q-.232.232-.576.232H8.885Zm0 3.923q-.344 0-.576-.232q-.232-.232-.232-.575V11q0-.343.232-.575q.232-.233.576-.233h10.307q.344 0 .576.233q.232.232.232.575v1.73q0 .344-.232.576q-.232.232-.576.232H8.885Zm0 4.077q-.344 0-.576-.232q-.232-.232-.232-.575v-1.885q0-.343.232-.575q.232-.233.576-.233h10.307q.344 0 .576.233q.232.232.232.575v1.885q0 .343-.232.575q-.232.232-.576.232H8.885Zm-4.077 0q-.344 0-.576-.232Q4 17.151 4 16.808v-1.885q0-.343.232-.575q.232-.233.576-.233h1.884q.344 0 .576.233q.232.232.232.575v1.885q0 .343-.232.575q-.232.232-.576.232H4.808Zm0-4.077q-.344 0-.576-.232Q4 13.074 4 12.731V11q0-.343.232-.575q.232-.233.576-.233h1.884q.344 0 .576.233q.232.232.232.575v1.73q0 .344-.232.576q-.232.232-.576.232H4.808Z"/></svg>