<svg xmlns="http://www.w3.org/2000/svg" width="200" height="200" viewBox="0 0 24 24"><path fill="currentColor" d="M4 15.99V7.74q0-.68.475-1.152q.474-.473 1.14-.473h12.77q.666 0 1.14.473Q20 7.06 20 7.74v8.25q0 .681-.475 1.153q-.474.472-1.14.472H5.615q-.666 0-1.14-.472Q4 16.671 4 15.991Zm1-6.375h2.5v-2.5H5.615q-.269 0-.442.173T5 7.731v1.884Zm3.5 0H19V7.731q0-.27-.173-.443t-.442-.173H8.5v2.5Zm0 3.5H19v-2.5H8.5v2.5Zm0 3.5h9.885q.269 0 .442-.173T19 16v-1.885H8.5v2.5Zm-2.885 0H7.5v-2.5H5V16q0 .27.173.442t.442.173ZM5 13.115h2.5v-2.5H5v2.5Z"/></svg>