<svg xmlns="http://www.w3.org/2000/svg" width="200" height="200" viewBox="0 0 24 24"><path fill="currentColor" d="M13.692 19q-.31 0-.54-.23q-.229-.23-.229-.54v-3.845q0-.31.23-.54t.54-.23h2.345q.31 0 .54.23t.23.54v3.846q0 .31-.23.54t-.54.229zm.116-.885h2.115V14.5h-2.115zM18.192 21v-2.365q0-.33.22-.55t.55-.22h2.269V16.5h-3.039v-.885h3.154q.329 0 .55.22t.22.55v1.596q0 .329-.22.549t-.55.22h-2.27v1.365h3.04V21zM4.885 19q-1.206 0-2.046-.858T2 16.073v-4.161q0-1.002.433-1.883q.432-.88 1.223-1.49l4.113-3.227q.427-.333.656-.813t.229-1.026V2h1v1.473q0 .546.238 1.026q.239.48.671.813l4.095 3.226q.784.61 1.217 1.49t.433 1.884v.319h-3.154q-.671 0-1.143.472q-.473.472-.473 1.143v4.516q-.488-.374-.747-.951q-.258-.578-.253-1.338V6.608L9.154 5.48L7.75 6.608v9.465q.006 1.212-.827 2.07T4.885 19"/></svg>