<svg xmlns="http://www.w3.org/2000/svg" width="200" height="200" viewBox="0 0 24 24"><path fill="currentColor" d="M13.692 19q-.31 0-.54-.23q-.229-.23-.229-.54v-3.845q0-.31.23-.54t.54-.23h2.345q.31 0 .54.23t.23.54v3.846q0 .31-.23.54t-.54.229zm.116-.885h2.115V14.5h-2.115zm4.827-1.615q-.19 0-.317-.126t-.126-.316t.126-.317t.317-.126h2.711q.329 0 .55.22t.22.55v1.596q0 .329-.22.549t-.55.22h-2.27v1.365h2.597q.19 0 .316.126t.126.317t-.126.316t-.316.126h-2.711q-.31 0-.54-.23t-.23-.54v-1.595q0-.33.22-.55t.55-.22h2.269V16.5zM4.885 19q-1.206 0-2.046-.858T2 16.073v-4.161q0-1.002.433-1.883q.432-.88 1.223-1.49l4.113-3.227q.427-.333.656-.813t.229-1.026V2.5q0-.213.143-.357T9.154 2t.357.143t.143.357v.973q0 .546.238 1.026q.239.48.671.813l4.095 3.226q.65.514 1.099 1.213t.449 1.522q0 .379-.217.668t-.639.29h-2.196q-.671 0-1.143.472q-.473.472-.473 1.143v3.467q0 .262-.23.332t-.366-.124q-.196-.288-.303-.652t-.1-.796V6.608L9.153 5.48L7.75 6.608v9.465q.006 1.212-.827 2.07T4.885 19"/></svg>