<svg xmlns="http://www.w3.org/2000/svg" width="200" height="200" viewBox="0 0 24 24"><path fill="currentColor" d="M4.882 19q-1.203 0-2.043-.854Q2 17.293 2 16.073v-4.161q0-1.007.433-1.886q.432-.878 1.223-1.488l4.113-3.226q.427-.333.656-.813t.229-1.026V2h1v1.473q0 .546.238 1.026q.239.48.671.813l4.095 3.226q.784.61 1.217 1.488t.433 1.886v.319h-1v-.32q0-.762-.339-1.43t-.927-1.15l-2.504-1.956v10.987q-.488-.374-.747-.951q-.258-.578-.253-1.338V6.608L9.154 5.48L7.75 6.608v9.465q.006 1.212-.83 2.07T4.882 19m.008-1q.785 0 1.325-.571t.535-1.356V7.375L4.265 9.331q-.607.482-.936 1.15T3 11.911v4.162q0 .804.553 1.365Q4.106 18 4.89 18m8.802 1q-.31 0-.54-.23q-.229-.23-.229-.54v-3.845q0-.31.23-.54t.54-.23h2.345q.31 0 .54.23t.23.54v3.846q0 .31-.23.54t-.54.229zm.116-.885h2.115V14.5h-2.115zM18.192 21v-2.365q0-.327.221-.548q.222-.222.549-.222h2.269V16.5h-3.039v-.885h3.154q.327 0 .548.222q.221.22.221.548v1.596q0 .327-.22.548t-.549.221h-2.27v1.365h3.04V21zm-4.769-8.315"/></svg>