<svg xmlns="http://www.w3.org/2000/svg" width="200" height="200" viewBox="0 0 24 24"><path fill="currentColor" d="M12 21q-.69 0-1.153-.463q-.462-.462-.462-1.152V12q0-.69.462-1.153q.463-.462 1.153-.462h7.385q.69 0 1.152.462Q21 11.31 21 12v7.385q0 .69-.462 1.152q-.463.463-1.153.463H12Zm.885-2.192h6.23l-1.915-2.5l-1.7 2.25l-1.2-1.65l-1.415 1.9ZM8 16.712q-2.252-.656-3.626-2.511T3 10q0-2.927 2.037-4.963Q7.073 3 10 3q2.346 0 4.201 1.374Q16.056 5.748 16.711 8H12q-1.65 0-2.825 1.175T8 12v4.712Z"/></svg>