<svg xmlns="http://www.w3.org/2000/svg" width="200" height="200" viewBox="0 0 24 24"><path fill="currentColor" d="M5.115 4h-2V3h3v18h-1V4Zm2.77 17V3h11v18h-11Zm1-9.206q.392-.39.902-.592q.51-.202 1.098-.202h5q.588 0 1.098.202q.51.202.902.592V4h-9v7.794ZM13.385 9q-.633 0-1.067-.434q-.433-.433-.433-1.066t.433-1.066Q12.752 6 13.385 6q.632 0 1.066.434q.434.433.434 1.066t-.434 1.066Q14.017 9 13.385 9Zm-4.5 11h9v-6q0-.825-.588-1.413T15.885 12h-5q-.825 0-1.413.588T8.885 14v6Zm4-1.5h1v-2h2v-1h-2v-2h-1v2h-2v1h2v2Zm-4 1.5h9h-9Z"/></svg>