<svg xmlns="http://www.w3.org/2000/svg" width="200" height="200" viewBox="0 0 24 24"><path fill="currentColor" d="M12 17.615q-.262 0-.438-.177q-.177-.176-.177-.438t.177-.438q.176-.177.438-.177t.438.177q.177.176.177.438t-.177.438q-.176.177-.438.177Zm-.5-2.23v-3.89l1 1v2.89h-1Zm7.613.892l-2.719-2.714L12.004 6l-1.179 2l-.72-.72L12 4l7.113 12.277ZM4.45 19h13.129l-8.31-8.31L4.45 19Zm15.833 2.704L18.579 20H2.73L8.55 9.971L2.271 3.692l.714-.713L20.996 20.99l-.713.714Zm-6.846-6.846Zm.182-4.064Z"/></svg>