<svg xmlns="http://www.w3.org/2000/svg" width="200" height="200" viewBox="0 0 24 24"><path fill="currentColor" d="M19.192 11.98q-.213 0-.356-.143t-.144-.356V4.538q0-.212.144-.356t.357-.144q.213 0 .356.144t.143.356v6.943q0 .212-.144.356t-.356.144ZM8.827 20.193q-.338 0-.618-.204t-.384-.548l-.675-2.375q-1.258-.738-2.05-2.086q-.792-1.35-.792-2.98T5.1 9.021q.792-1.348 2.05-2.086l.675-2.375q.104-.343.384-.548t.618-.204h2.961q.339 0 .619.204q.28.205.383.548l.675 2.375q1.258.738 2.05 2.086q.793 1.348.793 2.979t-.793 2.979q-.792 1.348-2.05 2.086l-.675 2.375q-.104.343-.383.548q-.28.204-.619.204H8.827ZM10.307 17q2.076 0 3.538-1.463T15.308 12q0-2.075-1.463-3.538T10.308 7Q8.233 7 6.77 8.463T5.308 12q0 2.075 1.462 3.538T10.308 17ZM8.37 6.327q.52-.164.988-.248q.47-.085.95-.085t.951.085q.469.084.988.248l-.438-1.52h-3l-.439 1.52Zm.439 12.865h3l.438-1.519q-.52.164-.988.236q-.469.072-.95.072t-.95-.072q-.47-.072-.989-.236l.439 1.52Zm-.44-14.384h3.877H8.37Zm.439 14.384h-.439h3.877h-3.438Z"/></svg>