<svg xmlns="http://www.w3.org/2000/svg" width="200" height="200" viewBox="0 0 24 24"><path fill="currentColor" d="M9.615 13.885v-3.77h.885v3.77h-.885Zm1.943 0v-2.77h.884v2.77h-.884Zm1.942 0v-1.77h.885v1.77H13.5Zm-3.77 6.307l-.888-3.127q-1.257-.738-2.05-2.086T6 12q0-1.63.792-2.979t2.05-2.086l.889-3.127h4.538l.889 3.127q1.257.738 2.05 2.086T18 12q0 1.63-.792 2.979t-2.05 2.086l-.889 3.127H9.731ZM12 17q2.075 0 3.538-1.463T17 12q0-2.075-1.463-3.538T12 7Q9.925 7 8.462 8.463T7 12q0 2.075 1.463 3.538T12 17ZM10.062 6.327q.519-.164.99-.248q.473-.085.948-.085t.947.085q.472.084.991.248l-.438-1.52h-3l-.438 1.52Zm.438 12.865h3l.438-1.519q-.519.164-.99.236q-.473.072-.948.072t-.947-.072q-.472-.072-.991-.236l.438 1.52Zm-.438-14.384h3.876h-3.876Zm.438 14.384h-.438h3.876H10.5Z"/></svg>