<svg xmlns="http://www.w3.org/2000/svg" width="200" height="200" viewBox="0 0 24 24"><path fill="currentColor" d="m6.221 13.742l.644 5.72q.039.23.202.384q.164.154.414.154h9.057q.25 0 .414-.154t.202-.384l.65-5.962h-.283q-.911 0-1.69-.137q-.777-.138-2.108-.519q-.633-.194-1.306-.269q-.673-.075-1.355-.075q-1.295 0-2.511.306q-1.216.306-2.33.936Zm-.134-1.054q1.175-.594 2.427-.89q1.253-.298 2.573-.298q.73 0 1.458.09t1.434.29q1.327.37 2.018.495q.691.125 1.5.125h.416l.952-8.5H5.115l.972 8.688ZM7.475 21q-.64 0-1.097-.404q-.457-.404-.513-1.025L4 3h16l-1.846 16.571q-.056.621-.513 1.025q-.456.404-1.097.404H7.475Zm-.61-1h10.289H6.865Z"/></svg>