<svg xmlns="http://www.w3.org/2000/svg" width="200" height="200" viewBox="0 0 24 24"><path fill="currentColor" d="M5.35 16.27q-.783 0-1.23.327q-.449.328-1.095.528q-.188.062-.357-.07q-.168-.13-.168-.343q0-.233.143-.401q.144-.169.365-.253q.482-.206.931-.497q.45-.292 1.411-.292q1.263 0 1.784.5q.52.5 1.535.5q1.027 0 1.547-.5t1.784-.5q1.252 0 1.784.5q.531.5 1.547.5q1.027 0 1.541-.5q.515-.5 1.778-.5q.962 0 1.41.292q.45.29.932.497q.221.084.365.253q.143.168.143.4q0 .214-.165.345q-.166.13-.354.069q-.627-.2-1.107-.528t-1.224-.328q-.996 0-1.526.5t-1.793.5q-1.252 0-1.784-.5T12 16.27q-1.027 0-1.547.5t-1.784.5q-1.263 0-1.787-.5t-1.532-.5Zm0-3.77q-.783 0-1.234.328q-.45.328-1.097.528q-.188.061-.354-.07q-.165-.13-.165-.344q0-.232.143-.4q.144-.169.365-.254q.482-.205.931-.497q.45-.291 1.411-.291q1.252 0 1.778.5t1.541.5q1.027 0 1.547-.5T12 11.5q1.252 0 1.78.5q.53.5 1.54.5q1.026 0 1.546-.5t1.784-.5q.95 0 1.402.291q.452.292.935.497q.226.085.37.253q.143.169.143.401q0 .214-.168.345q-.169.13-.357.069q-.627-.2-1.104-.528q-.477-.328-1.221-.328q-.996 0-1.526.5t-1.793.5q-1.252 0-1.784-.5T12 12.5q-1.027 0-1.541.5q-.515.5-1.778.5q-1.264 0-1.8-.5q-.535-.5-1.531-.5Zm0-3.77q-.763 0-1.224.319q-.46.318-1.088.518q-.207.062-.373-.06q-.165-.12-.165-.334q0-.233.143-.4q.144-.17.365-.254q.482-.206.931-.497q.45-.291 1.411-.291q1.252 0 1.778.5t1.541.5q1.027 0 1.547-.5T12 7.73q1.252 0 1.78.5q.53.5 1.54.5q1.026 0 1.546-.5t1.784-.5q.95 0 1.402.291q.452.291.935.497q.226.085.37.253q.143.168.143.401q0 .214-.168.344q-.169.131-.357.07q-.627-.2-1.104-.528q-.477-.328-1.221-.328q-.996 0-1.526.5t-1.793.5q-1.252 0-1.784-.5T12 8.73q-1.027 0-1.541.5q-.515.5-1.778.5q-1.264 0-1.8-.5q-.535-.5-1.531-.5Z"/></svg>