<svg xmlns="http://www.w3.org/2000/svg" width="200" height="200" viewBox="0 0 24 24"><path fill="currentColor" d="M6 18.192v-7.096l-.72.289q-.272.153-.474-.114q-.202-.267.073-.511l6.58-5.93q.218-.217.541-.217q.323 0 .54.218l6.581 5.929q.294.263.083.54q-.212.277-.485.104L18 11.096v7.096q0 .348-.23.578q-.23.23-.578.23H6.808q-.348 0-.578-.23q-.23-.23-.23-.578ZM7 18h10v-7.8l-5-4.5l-5 4.5V18Zm5-2.5q.633 0 1.066-.434q.434-.433.434-1.066q0-.483-.27-1.005q-.268-.522-1.23-1.918q-1 1.454-1.25 1.937q-.25.484-.25.986q0 .633.434 1.066q.433.434 1.066.434Zm0-3.65Z"/></svg>