<svg xmlns="http://www.w3.org/2000/svg" width="200" height="200" viewBox="0 0 24 24"><path fill="currentColor" d="M11.5 21.5v-2.73h1v2.73h-1Zm-9-9v-1h2.73v1H2.5Zm16.27 0v-1h2.73v1h-2.73Zm-.732 6.746l-1.907-1.908l.707-.707l1.908 1.907l-.708.708Zm-12.076 0l-.708-.708l1.908-1.907l.707.707l-1.907 1.908ZM12 16q-1.671 0-2.836-1.164T8 12q0-1.085.537-1.997Q9.075 9.09 10 8.538V4.692h4v3.846q.925.552 1.463 1.465T16 12q0 1.671-1.164 2.836T12 16Zm-1-7.862q.25-.069.49-.103Q11.73 8 12 8t.51.035q.24.034.49.103V5.692h-2v2.446Z"/></svg>