<svg xmlns="http://www.w3.org/2000/svg" width="200" height="200" viewBox="0 0 24 24"><path fill="currentColor" d="M11.5 3.885V1.5h1v2.385h-1Zm0 18.615v-2.385h1V22.5h-1Zm8.615-10v-1H22.5v1h-2.385ZM1.5 12.5v-1h2.385v1H1.5Zm16.815-6.108l-.707-.707L19.05 4.23l.72.719l-1.455 1.442ZM4.95 19.77l-.72-.719l1.455-1.442l.707.707L4.95 19.77Zm14.1 0l-1.442-1.454l.707-.707l1.454 1.442l-.719.72ZM5.685 6.392L4.23 4.95l.719-.72l1.442 1.455l-.707.707ZM12.005 17q-2.082 0-3.543-1.457Q7 14.086 7 12.005q0-2.082 1.457-3.543Q9.914 7 11.995 7q2.082 0 3.543 1.457Q17 9.914 17 11.995q0 2.082-1.457 3.543Q14.086 17 12.005 17Z"/></svg>