<svg xmlns="http://www.w3.org/2000/svg" width="200" height="200" viewBox="0 0 24 24"><path fill="currentColor" d="M17.25 15.038h2v-1q0-.425-.288-.712t-.712-.288q-.425 0-.713.288t-.287.712v1ZM12 19.577L1.423 9q2.183-1.963 4.91-2.982Q9.063 5 12 5t5.666 1.018Q20.394 7.037 22.576 9l-1.563 1.563q-.632-.332-1.34-.505q-.707-.173-1.442-.173q-2.516 0-4.277 1.76q-1.762 1.762-1.762 4.278q0 .736.173 1.443q.173.707.506 1.34l-.871.87Zm4.39 0q-.392 0-.66-.265q-.268-.266-.268-.658v-2.697q0-.382.265-.65q.265-.269.658-.269h.096v-1q0-.748.51-1.258t1.259-.51t1.259.51q.51.51.51 1.258v1h.096q.376 0 .63.266q.255.265.255.658v2.696q0 .382-.265.65q-.265.269-.657.269H16.39Z"/></svg>