<svg xmlns="http://www.w3.org/2000/svg" width="200" height="200" viewBox="0 0 24 24"><path fill="currentColor" d="M11.267 18.844L2.256 9.833q-.166-.166-.239-.361q-.073-.196-.073-.391q0-.23.098-.438t.295-.37q2.107-1.621 4.557-2.447Q9.344 5 12 5t5.106.826q2.45.826 4.557 2.447q.197.162.295.37q.098.209.098.438q0 .202-.073.394t-.239.358l-.73.73q-.633-.332-1.34-.505q-.708-.173-1.443-.173q-2.516 0-4.277 1.76q-1.762 1.762-1.762 4.278q0 .736.173 1.443q.173.707.506 1.34l-.138.138q-.166.166-.35.23q-.184.063-.387.063q-.204 0-.383-.064q-.18-.063-.346-.229Zm5.123.733q-.392 0-.66-.265q-.268-.266-.268-.658v-2.697q0-.382.265-.65q.265-.269.658-.269h.096v-1q0-.748.51-1.258t1.259-.51t1.259.51q.51.51.51 1.258v1h.096q.376 0 .63.266q.255.265.255.658v2.696q0 .382-.265.65q-.265.269-.657.269H16.39Zm.86-4.539h2v-1q0-.425-.288-.712t-.712-.288q-.425 0-.713.288t-.287.712v1Z"/></svg>