<svg xmlns="http://www.w3.org/2000/svg" width="200" height="200" viewBox="0 0 24 24"><path fill="currentColor" d="M16.808 18.635h1.769v-1.77h-1.77v1.77Zm0-2.654h1.769v-1.77h-1.77v1.77Zm2.654 2.654h1.769v-1.77h-1.77v1.77Zm-2.731.884q-.344 0-.576-.232q-.232-.232-.232-.575v-4.577q0-.344.232-.576q.232-.232.576-.232h1.923q.343 0 .575.232q.233.232.233.576v1.846h1.846q.343 0 .575.232q.232.232.232.575v1.924q0 .343-.232.575q-.232.232-.575.232H16.73Zm-5.464-.675L2.256 9.833q-.166-.166-.239-.361q-.073-.196-.073-.391q0-.23.098-.438t.295-.37q2.107-1.621 4.557-2.447Q9.344 5 12 5t5.106.826q2.45.826 4.557 2.447q.197.162.295.37q.098.209.098.438q0 .202-.073.394t-.239.358l-.765.765q-.275-.115-.552-.185q-.277-.07-.575-.115L21.1 9.05q-1.975-1.5-4.3-2.275T12 6q-2.475 0-4.8.775T2.9 9.05l9.1 9.1l.952-.952q.044.298.114.575t.186.552l-.52.52q-.165.165-.349.228q-.184.064-.387.064q-.204 0-.384-.064q-.18-.063-.345-.229ZM12 12.075Z"/></svg>