<svg xmlns="http://www.w3.org/2000/svg" width="200" height="200" viewBox="0 0 24 24"><path fill="currentColor" d="M11.267 18.844L2.256 9.833q-.166-.166-.239-.361q-.073-.196-.073-.391q0-.23.098-.438t.295-.37q2.107-1.621 4.557-2.447Q9.344 5 12 5t5.106.826q2.45.826 4.557 2.447q.197.162.295.37q.098.209.098.438q0 .202-.073.394t-.239.358l-.765.765q-.529-.223-1.096-.32q-.568-.095-1.114-.095q-2.454 0-4.193 1.74q-1.74 1.739-1.74 4.192q0 .547.097 1.114q.096.567.319 1.096l-.52.52q-.165.165-.349.228q-.184.064-.387.064q-.204 0-.384-.064q-.18-.063-.345-.229Zm5.464.675q-.344 0-.576-.232q-.232-.232-.232-.575v-4.577q0-.344.232-.576q.232-.232.576-.232h1.923q.343 0 .575.232q.233.232.233.576v1.846h1.846q.343 0 .575.232q.232.232.232.575v1.924q0 .343-.232.575q-.232.232-.575.232H16.73Zm.077-.884h1.769v-1.77h-1.77v1.77Zm0-2.654h1.769v-1.77h-1.77v1.77Zm2.654 2.654h1.769v-1.77h-1.77v1.77Z"/></svg>