<svg xmlns="http://www.w3.org/2000/svg" width="200" height="200" viewBox="0 0 24 24"><path fill="currentColor" d="M15.462 19.577v-4.539h1.019v-1q0-.748.51-1.258t1.259-.51t1.259.51q.51.51.51 1.258v1H21v4.539h-5.538Zm1.788-4.539h2v-1q0-.425-.288-.712t-.712-.288q-.425 0-.713.288t-.287.712v1ZM12 19.577L1.423 9q2.183-1.963 4.91-2.982Q9.063 5 12 5t5.666 1.018Q20.394 7.037 22.576 9l-1.563 1.563q-.255-.134-.516-.22q-.26-.087-.54-.15L21.1 9.05q-1.975-1.5-4.3-2.275T12 6q-2.475 0-4.8.775T2.9 9.05l9.1 9.1l.5-.5q.063.279.15.54q.087.26.221.516l-.871.87Zm0-7.502Z"/></svg>