<svg xmlns="http://www.w3.org/2000/svg" width="200" height="200" viewBox="0 0 24 24"><path fill="currentColor" d="M14.23 18.038q0 .918.446 1.754q.445.837 1.17 1.446v-1.45q0-.19.126-.316t.316-.126q.19 0 .317.126q.126.126.126.316v2.135q0 .348-.23.578q-.23.23-.578.23h-2.135q-.19 0-.316-.126t-.126-.317q0-.19.126-.316t.316-.126h1.406q-.823-.713-1.335-1.71q-.513-.996-.513-2.098q0-1.515.863-2.7q.862-1.184 2.19-1.684q.147-.056.24.058q.092.113.092.278q0 .185-.074.354q-.074.17-.234.237q-.971.463-1.582 1.387q-.61.924-.61 2.07Zm7.385 0q0-.917-.445-1.753q-.445-.837-1.17-1.447v1.45q0 .19-.126.317q-.126.126-.316.126t-.317-.126q-.126-.126-.126-.317v-2.134q0-.348.23-.578q.23-.23.578-.23h2.135q.19 0 .316.126t.126.316q0 .19-.126.317q-.126.126-.316.126h-1.406q.823.713 1.335 1.71q.513.996.513 2.097q0 1.502-.863 2.694q-.862 1.191-2.189 1.691q-.148.056-.24-.067q-.093-.123-.093-.289q0-.184.074-.354q.074-.169.234-.236q.977-.483 1.585-1.41q.607-.927.607-2.029ZM12 11.135Zm-7-1.51l-1.538 1.198q-.177.135-.366.104q-.188-.03-.323-.208q-.135-.177-.11-.365q.024-.189.195-.323l8.148-6.26q.454-.348.994-.348t.994.348l8.154 6.26q.171.134.192.323q.022.188-.113.365q-.135.171-.323.202q-.189.03-.36-.104l-1.563-1.192l-6.616-5.042q-.153-.135-.365-.135t-.365.135L6 8.869v8.516q0 .269.173.442t.442.173h4.347q0 .256.017.506t.071.494H6.615q-.67 0-1.143-.472Q5 18.056 5 17.385v-7.76Z"/></svg>