<svg xmlns="http://www.w3.org/2000/svg" width="200" height="200" viewBox="0 0 24 24"><path fill="currentColor" d="M17.25 15.038h2v-1q0-.425-.288-.712t-.712-.288q-.425 0-.713.288t-.287.712v1ZM12 19.577L1.423 9q2.183-1.963 4.91-2.982Q9.063 5 12 5t5.666 1.018Q20.394 7.037 22.576 9l-1.563 1.563q-.632-.332-1.34-.505q-.707-.173-1.442-.173q-2.516 0-4.277 1.76q-1.762 1.762-1.762 4.278q0 .736.173 1.443q.173.707.506 1.34l-.871.87Zm3.462 0v-4.539h1.019v-1q0-.748.51-1.258t1.259-.51t1.259.51q.51.51.51 1.258v1H21v4.539h-5.538Z"/></svg>