<svg xmlns="http://www.w3.org/2000/svg" width="200" height="200" viewBox="0 0 24 24"><path fill="currentColor" d="M12 19.577L1.423 9q2.183-1.963 4.91-2.982Q9.063 5 12 5t5.666 1.018Q20.394 7.037 22.576 9l-1.597 1.598q-.523-.217-1.089-.316q-.566-.1-1.12-.1q-2.455 0-4.194 1.74q-1.74 1.74-1.74 4.193q0 .555.1 1.121q.099.566.316 1.089L12 19.577Zm3.923-.058v-6.192h3.539v2.654h2.653v3.538h-6.192Zm.885-.884h1.769v-1.77h-1.77v1.77Zm0-2.654h1.769v-1.77h-1.77v1.77Zm2.654 2.654h1.769v-1.77h-1.77v1.77Z"/></svg>