<svg xmlns="http://www.w3.org/2000/svg" width="200" height="200" viewBox="0 0 24 24"><path fill="currentColor" d="M11.267 18.844L2.256 9.833q-.166-.166-.239-.361q-.073-.196-.073-.391q0-.23.098-.438t.295-.37q2.107-1.621 4.557-2.447Q9.344 5 12 5t5.106.826q2.45.826 4.557 2.447q.197.162.295.37q.098.209.098.438q0 .202-.073.394t-.239.358l-.765.765q-.529-.223-1.096-.32q-.568-.095-1.114-.095q-2.454 0-4.193 1.74q-1.74 1.739-1.74 4.192q0 .547.097 1.114q.096.567.319 1.096l-.52.52q-.165.165-.349.228q-.184.064-.387.064q-.204 0-.384-.064q-.18-.063-.345-.229Zm7.002-2.229h-2.5q-.212 0-.356-.144t-.144-.356q0-.213.144-.356t.356-.144h2.5v-2.5q0-.212.144-.356t.357-.144q.213 0 .356.144t.143.356v2.5h2.5q.213 0 .356.144t.144.357q0 .213-.144.356q-.143.143-.356.143h-2.5v2.5q0 .213-.144.357q-.144.143-.356.143q-.213 0-.357-.143q-.143-.144-.143-.357v-2.5Z"/></svg>