<svg xmlns="http://www.w3.org/2000/svg" width="200" height="200" viewBox="0 0 24 24"><path fill="currentColor" d="M16.808 18.635h1.769v-1.77h-1.77v1.77Zm0-2.654h1.769v-1.77h-1.77v1.77Zm2.654 2.654h1.769v-1.77h-1.77v1.77Zm-3.539.884v-6.192h3.539v2.654h2.653v3.538h-6.192ZM12 19.577L1.423 9q2.183-1.963 4.91-2.982Q9.063 5 12 5t5.666 1.018Q20.394 7.037 22.576 9l-1.597 1.598q-.275-.115-.552-.186q-.277-.07-.575-.114L21.1 9.05q-1.975-1.5-4.3-2.275T12 6q-2.475 0-4.8.775T2.9 9.05l9.1 9.1l.952-.952q.044.298.114.575t.186.552L12 19.577Zm0-7.502Z"/></svg>