<svg xmlns="http://www.w3.org/2000/svg" width="200" height="200" viewBox="0 0 24 24"><path fill="currentColor" d="M10.962 22v-1H12.5v-5.892q-.454-.106-.793-.374q-.34-.269-.545-.66l-2.958 1.85l-5.877-1.674V12h8.78q.212-.41.57-.706t.823-.41V6.977l4.46-4.187l1.919 1.202l-4.49 7.418q.444.28.656.89t.045 1.158l3.506.869l2.954 5.33l-1.575 1.499l-6.071-5.989q-.096.058-.192.096q-.097.039-.212.058V21h1.538v1h-4.076ZM5 5V4h5v1H5Zm8.5 2.41v3.482q.006 0 .009.003q.003.003.008.003l4.008-6.587l-.45-.251L13.5 7.41ZM2 9V8h4v1H2Zm10.997 5.192q.505 0 .85-.342q.345-.341.345-.847q0-.505-.341-.85q-.342-.345-.848-.345q-.505 0-.85.342q-.345.341-.345.847q0 .505.342.85q.341.345.847.345Zm-4.984.658l2.825-1.746q-.005-.029-.005-.052V13H3.327v.5l4.686 1.35Zm9.918.337l-3.273-.804q-.012.011-.023.029q-.012.017-.023.028l5.305 5.339l.375-.37l-2.361-4.222ZM4 20v-1h4v1H4Zm9-7Zm.517-2.102ZM10.833 13Zm3.779 1.44Z"/></svg>