<svg xmlns="http://www.w3.org/2000/svg" width="200" height="200" viewBox="0 0 24 24"><path fill="currentColor" d="M21.5 9q-.213 0-.357-.143T21 8.5v-4q0-.213.143-.357T21.5 4t.357.143Q22 4.287 22 4.5v4q0 .213-.143.357T21.5 9M4 18.385V5.615q0-.67.472-1.143Q4.944 4 5.615 4h10.77q.67 0 1.143.472q.472.472.472 1.143v12.77q0 .67-.472 1.143q-.472.472-1.143.472H5.615q-.67 0-1.143-.472Q4 19.056 4 18.385M5 11.5h5.23v-.365q0-.162.122-.283t.283-.121h.73q.162 0 .283.12t.121.284v.365H17V5.615q0-.269-.173-.442T16.385 5H5.615q-.269 0-.442.173T5 5.615zm.615 7.5h10.77q.269 0 .442-.173t.173-.442V12.5H5v5.885q0 .269.173.442t.442.173m0 0H17H5z"/></svg>