<svg xmlns="http://www.w3.org/2000/svg" width="200" height="200" viewBox="0 0 24 24"><path fill="currentColor" d="M6.615 20q-.67 0-1.143-.472Q5 19.056 5 18.385V5.615q0-.67.472-1.143Q5.944 4 6.615 4h10.77q.67 0 1.143.472q.472.472.472 1.143v12.77q0 .67-.472 1.143q-.472.472-1.143.472zm.154-8.5h4.462v-.365q0-.162.12-.283t.284-.121h.73q.162 0 .283.12t.121.284v.365h4.462V6.385q0-.27-.173-.443t-.443-.173h-9.23q-.27 0-.443.173t-.173.443zM6.615 19h10.77q.269 0 .442-.173t.173-.442V5.615q0-.269-.173-.442T17.385 5H6.615q-.269 0-.442.173T6 5.615v12.77q0 .269.173.442t.442.173"/></svg>