<svg xmlns="http://www.w3.org/2000/svg" width="200" height="200" viewBox="0 0 24 24"><path fill="currentColor" d="M4 18.385V19V8v10.385ZM3 20V7h6V4h6v3h6v5.813q-.238-.151-.479-.264q-.24-.112-.521-.21V8H4v11h8.075q.056.275.12.515q.063.24.153.485H3Zm7-13h4V5h-4v2Zm8 15q-1.671 0-2.836-1.164T14 18q0-1.671 1.164-2.836T18 14q1.671 0 2.836 1.164T22 18q0 1.671-1.164 2.836T18 22Zm0-1.577q.2 0 .33-.13q.132-.131.132-.331t-.131-.331Q18.2 19.5 18 19.5t-.33.13q-.132.132-.132.332t.131.33q.131.131.331.131Zm-.385-1.846h.77v-3h-.77v3Z"/></svg>