<svg xmlns="http://www.w3.org/2000/svg" width="200" height="200" viewBox="0 0 24 24"><path fill="currentColor" d="M4 18.385V19V8v10.385ZM4.615 20q-.69 0-1.152-.462Q3 19.075 3 18.385v-9.77q0-.69.463-1.152Q3.925 7 4.615 7H9V5.615q0-.69.463-1.152Q9.925 4 10.614 4h2.77q.69 0 1.153.463q.462.462.462 1.152V7h4.385q.69 0 1.152.463q.463.462.463 1.152v4.198q-.238-.151-.479-.264q-.24-.112-.521-.21V8.614q0-.269-.173-.442T19.385 8H4.615q-.269 0-.442.173T4 8.615v9.77q0 .269.173.442t.442.173h7.46q.056.275.12.515q.063.24.153.485H4.615ZM10 7h4V5.615q0-.269-.173-.442T13.385 5h-2.77q-.269 0-.442.173T10 5.615V7Zm8 15q-1.671 0-2.836-1.164T14 18q0-1.671 1.164-2.836T18 14q1.671 0 2.836 1.164T22 18q0 1.671-1.164 2.836T18 22Zm-.385-2.88l-1.334-1.335q-.112-.112-.264-.122q-.152-.01-.282.122q-.131.13-.131.273q0 .142.13.273l1.7 1.7q.243.242.566.242q.323 0 .565-.242l1.7-1.7q.112-.112.122-.264q.01-.152-.122-.282q-.13-.131-.273-.131q-.142 0-.273.13l-1.334 1.335v-3.33q0-.162-.112-.274q-.111-.111-.273-.111t-.273.111q-.112.112-.112.273v3.331Z"/></svg>