<svg xmlns="http://www.w3.org/2000/svg" width="200" height="200" viewBox="0 0 24 24"><path fill="currentColor" d="M5.474 16.655q-.558-.148-.966-.552q-.408-.403-.552-.961q-.123-.494-.192-1.184q-.068-.69-.099-1.345q-.05-.746-.05-1.536t.05-1.537q.031-.653.1-1.344t.195-1.184q.149-.558.552-.966t.962-.551q.493-.124 1.579-.192t2.218-.1q1.308-.05 2.806-.05t2.806.05q1.132.032 2.218.1t1.58.196q.557.148.965.551q.408.404.544.958q.206.734.265 1.612t.083 1.724q0 .385-.313.627t-.717.156q-.166-.025-.32-.038t-.342-.012q-1.756 0-2.993 1.237t-1.238 2.994q0 .185.01.358t.046.359q.056.373-.152.662t-.556.288q-.394 0-.745.013t-.593.012h-.548q-1.498 0-2.806-.05q-1.133-.03-2.218-.099q-1.086-.068-1.58-.196m5.53-3.386l3.175-1.846q.214-.129.214-.35t-.211-.344l-3.178-1.845q-.215-.128-.416-.004t-.202.361v3.671q0 .238.202.362t.416-.005m6.994 2.885h-.85q-.36 0-.6-.243t-.24-.603q0-.361.244-.605t.603-.245H18v-.849q0-.36.243-.6t.603-.24t.605.244t.245.602v.847h.849q.36 0 .6.243t.24.603t-.244.605t-.603.244h-.846v.85q0 .36-.243.6t-.603.24t-.605-.244t-.244-.603z"/></svg>