<svg xmlns="http://www.w3.org/2000/svg" width="200" height="200" viewBox="0 0 24 24"><path fill="currentColor" d="m21.11 21.28l-8.122-8.126l-.573 2.93h-3l1.039-5.33l-2.954 1.22V15.2h-1v-3.892l3.285-1.352l-7.898-7.898l.713-.714l19.223 19.223l-.713.714ZM3 19.7v-4h1v3h3v1H3Zm17-14v-3h-3v-1h4v4h-1Zm-17 0V2.738h1V5.7H3Zm14 14v-1h2.962v1H17ZM6.767 2.7l-1-1H7v1h-.233ZM21 16.933l-1-1V15.7h1v1.233Zm-7.5-9.04q-.71 0-1.201-.492q-.491-.491-.491-1.201t.491-1.201q.491-.491 1.201-.491t1.201.491q.491.491.491 1.201t-.491 1.201q-.491.491-1.201.491Z"/></svg>