<svg xmlns="http://www.w3.org/2000/svg" width="200" height="200" viewBox="0 0 24 24"><path fill="currentColor" d="m21.11 21.28l-8.122-8.126l-.573 2.93h-3l1.039-5.33l-2.954 1.22V15.2h-1v-3.892l3.285-1.352l-7.898-7.898l.713-.714l19.223 19.223l-.713.714ZM4.615 19.7q-.69 0-1.152-.462Q3 18.774 3 18.085V15.7h1v2.385q0 .23.192.423q.193.192.423.192H7v1H4.615ZM20 5.7V3.315q0-.23-.192-.423q-.193-.192-.423-.192H17v-1h2.385q.69 0 1.152.463q.463.462.463 1.152V5.7h-1Zm-17 0V3.315q0-.348.114-.643q.115-.295.307-.512l.733.738q-.058.096-.106.202T4 3.321V5.7H3Zm14 14v-1h2.379q.115 0 .221-.048t.163-.144l.733.727q-.192.217-.478.341q-.285.124-.633.124H17ZM6.767 2.7l-1-1H7v1h-.233ZM21 16.933l-1-1V15.7h1v1.233Zm-7.5-9.04q-.71 0-1.201-.492q-.491-.491-.491-1.201t.491-1.201q.491-.491 1.201-.491t1.201.491q.491.491.491 1.201t-.491 1.201q-.491.491-1.201.491Z"/></svg>